<?xml version="1.0" encoding="UTF-8" standalone="no"?>
<!-- Created with Inkscape (http://www.inkscape.org/) -->

<svg
   xmlns:dc="http://purl.org/dc/elements/1.1/"
   xmlns:cc="http://creativecommons.org/ns#"
   xmlns:rdf="http://www.w3.org/1999/02/22-rdf-syntax-ns#"
   xmlns:svg="http://www.w3.org/2000/svg"
   xmlns="http://www.w3.org/2000/svg"
   xmlns:sodipodi="http://sodipodi.sourceforge.net/DTD/sodipodi-0.dtd"
   xmlns:inkscape="http://www.inkscape.org/namespaces/inkscape"
   width="100"
   height="100"
   id="svg1949"
   sodipodi:version="0.32"
   inkscape:version="0.48.2 r9819"
   version="1.0"
   sodipodi:docname="mem_solo_minus.svg">
  <defs
     id="defs1951" />
  <sodipodi:namedview
     id="base"
     pagecolor="#ffffff"
     bordercolor="#666666"
     borderopacity="1.0"
     inkscape:pageopacity="0.0"
     inkscape:pageshadow="2"
     inkscape:zoom="6.0595767"
     inkscape:cx="67.764494"
     inkscape:cy="46.226601"
     inkscape:document-units="px"
     inkscape:current-layer="layer1"
     width="100px"
     height="100px"
     inkscape:window-width="1087"
     inkscape:window-height="756"
     inkscape:window-x="40"
     inkscape:window-y="7"
     showgrid="false"
     inkscape:window-maximized="0" />
  <metadata
     id="metadata1954">
    <rdf:RDF>
      <cc:Work
         rdf:about="">
        <dc:format>image/svg+xml</dc:format>
        <dc:type
           rdf:resource="http://purl.org/dc/dcmitype/StillImage" />
      </cc:Work>
    </rdf:RDF>
  </metadata>
  <g
     inkscape:label="Calque 1"
     inkscape:groupmode="layer"
     id="layer1">
    <path
       style="fill:#008000;fill-opacity:0.75000000000000000;fill-rule:evenodd;stroke:black;stroke-width:2.50000000000000000;stroke-linecap:butt;stroke-linejoin:miter;stroke-miterlimit:4;stroke-dasharray:none;stroke-opacity:1"
       d="M 7.9213453,22.271799 L 7.9213453,31.843425 L 7.9213453,41.250022 L 7.9213453,52.141872 L 7.2612332,66.169254 L 7.7563173,71.285123 L 8.7464855,74.420656 L 13.532298,75.575852 L 32.840578,75.575852 L 43.897455,75.575852 L 46.702932,73.595516 L 47.528072,71.780207 L 47.858128,61.54847 L 47.363044,42.24019 L 47.858128,28.212808 L 47.198016,21.611687 L 45.712764,19.136266 L 44.062484,18.476154 L 34.160802,18.476154 L 23.599008,18.146098 L 15.347607,18.311126 L 10.396766,18.971238 L 8.2514014,20.126435 L 7.9213453,22.271799 z "
       id="path1970"
       sodipodi:nodetypes="cccccccccccccccccccccccc" />
    <path
       style="fill:white;fill-opacity:1;fill-rule:evenodd;stroke:none;stroke-width:1px;stroke-linecap:butt;stroke-linejoin:miter;stroke-opacity:1"
       d="M 94.010109,34.15547 L 94.536122,49.175171 L 93.856997,60.462433 L 93.953028,69.817184 L 90.754489,75.520979 L 81.479976,75.070275 L 72.145021,74.765402 L 62.210281,75.442378 L 56.830266,75.070275 L 54.570327,69.2538 L 54.863928,54.497352 L 53.825799,38.49672 L 54.584232,23.228019 L 58.342892,18.690736 L 68.670159,17.704129 L 85.138521,17.77229 L 90.702239,18.471065 L 94.213237,23.785716 L 94.010109,34.15547 z "
       id="path12050"
       sodipodi:nodetypes="ccccccccccccccccccc" />
    <path
       transform="matrix(0.232029,0,0,0.21884,24.03042,16.78338)"
       style="fill:#aad400;fill-opacity:1;fill-rule:evenodd;stroke:none"
       d="m -12.998724,49.618675 c 0,10.240629 -8.30167,18.5423 -18.542299,18.5423 -10.240629,0 -18.5423,-8.301671 -18.5423,-18.5423 0,-10.240629 8.301671,-18.542299 18.5423,-18.542299 10.240629,0 18.542299,8.30167 18.542299,18.542299 z"
       id="path2910" />
    <path
       transform="matrix(0.22161,0,0,0.21884,34.98374,16.78338)"
       style="fill:#aad400;fill-opacity:1;fill-rule:evenodd;stroke:none"
       d="m -12.998724,49.618675 c 0,10.240629 -8.30167,18.5423 -18.542299,18.5423 -10.240629,0 -18.5423,-8.301671 -18.5423,-18.5423 0,-10.240629 8.301671,-18.542299 18.5423,-18.542299 10.240629,0 18.542299,8.30167 18.542299,18.542299 z"
       id="path2924" />
    <path
       transform="matrix(0.220524,0,0,0.21884,46.22301,16.57419)"
       style="fill:#aad400;fill-opacity:1;fill-rule:evenodd;stroke:none"
       d="m -12.998724,49.618675 c 0,10.240629 -8.30167,18.5423 -18.542299,18.5423 -10.240629,0 -18.5423,-8.301671 -18.5423,-18.5423 0,-10.240629 8.301671,-18.542299 18.5423,-18.542299 10.240629,0 18.542299,8.30167 18.542299,18.542299 z"
       id="path2926" />
    <path
       transform="matrix(0.232029,0,0,0.21884,24.03042,29.05311)"
       style="fill:#aad400;fill-opacity:1;fill-rule:evenodd;stroke:none"
       d="m -12.998724,49.618675 c 0,10.240629 -8.30167,18.5423 -18.542299,18.5423 -10.240629,0 -18.5423,-8.301671 -18.5423,-18.5423 0,-10.240629 8.301671,-18.542299 18.5423,-18.542299 10.240629,0 18.542299,8.30167 18.542299,18.542299 z"
       id="path2928" />
    <path
       transform="matrix(0.232029,0,0,0.21884,35.29045,29.06141)"
       style="fill:#aad400;fill-opacity:1;fill-rule:evenodd;stroke:none"
       d="m -12.998724,49.618675 c 0,10.240629 -8.30167,18.5423 -18.542299,18.5423 -10.240629,0 -18.5423,-8.301671 -18.5423,-18.5423 0,-10.240629 8.301671,-18.542299 18.5423,-18.542299 10.240629,0 18.542299,8.30167 18.542299,18.542299 z"
       id="path2930" />
    <path
       transform="matrix(0.232029,0,0,0.21884,46.53721,29.06346)"
       style="fill:#aad400;fill-opacity:1;fill-rule:evenodd;stroke:none"
       d="m -12.998724,49.618675 c 0,10.240629 -8.30167,18.5423 -18.542299,18.5423 -10.240629,0 -18.5423,-8.301671 -18.5423,-18.5423 0,-10.240629 8.301671,-18.542299 18.5423,-18.542299 10.240629,0 18.542299,8.30167 18.542299,18.542299 z"
       id="path2932" />
    <path
       transform="matrix(0.232029,0,0,0.21884,24.03042,41.54864)"
       style="fill:#aad400;fill-opacity:1;fill-rule:evenodd;stroke:none"
       d="m -12.998724,49.618675 c 0,10.240629 -8.30167,18.5423 -18.542299,18.5423 -10.240629,0 -18.5423,-8.301671 -18.5423,-18.5423 0,-10.240629 8.301671,-18.542299 18.5423,-18.542299 10.240629,0 18.542299,8.30167 18.542299,18.542299 z"
       id="path2934" />
    <path
       transform="matrix(0.232029,0,0,0.21884,35.39798,41.54864)"
       style="fill:#aad400;fill-opacity:1;fill-rule:evenodd;stroke:none"
       d="m -12.998724,49.618675 c 0,10.240629 -8.30167,18.5423 -18.542299,18.5423 -10.240629,0 -18.5423,-8.301671 -18.5423,-18.5423 0,-10.240629 8.301671,-18.542299 18.5423,-18.542299 10.240629,0 18.542299,8.30167 18.542299,18.542299 z"
       id="path2936" />
    <path
       transform="matrix(0.232029,0,0,0.21884,46.53721,41.53205)"
       style="fill:#aad400;fill-opacity:1;fill-rule:evenodd;stroke:none"
       d="m -12.998724,49.618675 c 0,10.240629 -8.30167,18.5423 -18.542299,18.5423 -10.240629,0 -18.5423,-8.301671 -18.5423,-18.5423 0,-10.240629 8.301671,-18.542299 18.5423,-18.542299 10.240629,0 18.542299,8.30167 18.542299,18.542299 z"
       id="path2938" />
    <path
       transform="matrix(0.232029,0,0,0.21884,24.03042,54.01096)"
       style="fill:#aad400;fill-opacity:1;fill-rule:evenodd;stroke:none"
       d="m -12.998724,49.618675 c 0,10.240629 -8.30167,18.5423 -18.542299,18.5423 -10.240629,0 -18.5423,-8.301671 -18.5423,-18.5423 0,-10.240629 8.301671,-18.542299 18.5423,-18.542299 10.240629,0 18.542299,8.30167 18.542299,18.542299 z"
       id="path2940" />
    <path
       transform="matrix(0.232029,0,0,0.21884,35.11918,54.03585)"
       style="fill:#aad400;fill-opacity:1;fill-rule:evenodd;stroke:none"
       d="m -12.998724,49.618675 c 0,10.240629 -8.30167,18.5423 -18.542299,18.5423 -10.240629,0 -18.5423,-8.301671 -18.5423,-18.5423 0,-10.240629 8.301671,-18.542299 18.5423,-18.542299 10.240629,0 18.542299,8.30167 18.542299,18.542299 z"
       id="path2942" />
    <path
       transform="matrix(0.232029,0,0,0.21884,46.64476,54.03585)"
       style="fill:#aad400;fill-opacity:1;fill-rule:evenodd;stroke:none"
       d="m -12.998724,49.618675 c 0,10.240629 -8.30167,18.5423 -18.542299,18.5423 -10.240629,0 -18.5423,-8.301671 -18.5423,-18.5423 0,-10.240629 8.301671,-18.542299 18.5423,-18.542299 10.240629,0 18.542299,8.30167 18.542299,18.542299 z"
       id="path2944" />
    <path
       style="fill:none;fill-opacity:0.75;fill-rule:evenodd;stroke:black;stroke-width:2.5;stroke-linecap:butt;stroke-linejoin:miter;stroke-miterlimit:4;stroke-dasharray:none;stroke-opacity:1"
       d="M 54.541763,22.271799 L 54.541763,31.843425 L 54.211707,41.250022 L 54.211707,50.65662 L 53.881651,66.169254 L 54.376735,71.285123 L 55.366903,74.420656 L 60.152716,75.575852 L 79.460996,75.575852 L 90.517873,75.575852 L 93.32335,73.595516 L 94.14849,71.780207 L 94.478546,61.54847 L 94.14849,42.24019 L 94.478546,28.212808 L 93.818434,21.611687 L 92.333182,19.136266 L 90.682902,18.476154 L 80.78122,18.476154 L 70.219426,18.146098 L 61.968025,18.311126 L 57.017184,18.971238 L 54.871819,20.126435 L 54.541763,22.271799 z "
       id="path2857"
       sodipodi:nodetypes="cccccccccccccccccccccccc" />
    <path
       style="fill:black;fill-opacity:1;fill-rule:evenodd;stroke:none;stroke-width:1px;stroke-linecap:butt;stroke-linejoin:miter;stroke-opacity:1"
       d="M 77.948459,44.573141 L 73.572515,44.509592 L 70.284011,44.591635 L 67.558535,44.580036 L 65.896753,44.966458 L 66.028063,46.086928 L 66.116887,47.214698 L 65.919653,48.414928 L 66.028063,49.064899 L 67.722668,49.337926 L 72.02191,49.302455 L 76.683645,49.427873 L 81.132147,49.336245 L 82.454067,48.882155 L 82.741507,47.634501 L 82.721647,45.644931 L 82.518056,44.97277 L 80.969664,44.548598 L 77.948459,44.573141 z "
       id="path12064"
       sodipodi:nodetypes="ccccccccccccccccccc" />
  </g>
</svg>
