<?xml version="1.0" encoding="UTF-8" standalone="no"?>
<!-- Created with Inkscape (http://www.inkscape.org/) -->

<svg
   xmlns:dc="http://purl.org/dc/elements/1.1/"
   xmlns:cc="http://creativecommons.org/ns#"
   xmlns:rdf="http://www.w3.org/1999/02/22-rdf-syntax-ns#"
   xmlns:svg="http://www.w3.org/2000/svg"
   xmlns="http://www.w3.org/2000/svg"
   xmlns:sodipodi="http://sodipodi.sourceforge.net/DTD/sodipodi-0.dtd"
   xmlns:inkscape="http://www.inkscape.org/namespaces/inkscape"
   width="100"
   height="100"
   id="svg1949"
   sodipodi:version="0.32"
   inkscape:version="0.48.2 r9819"
   version="1.0"
   sodipodi:docname="mem_solo_plus_minus.svg">
  <defs
     id="defs1951" />
  <sodipodi:namedview
     id="base"
     pagecolor="#ffffff"
     bordercolor="#666666"
     borderopacity="1.0"
     inkscape:pageopacity="0.0"
     inkscape:pageshadow="2"
     inkscape:zoom="6.0595767"
     inkscape:cx="56.144003"
     inkscape:cy="64.220606"
     inkscape:document-units="px"
     inkscape:current-layer="layer1"
     width="100px"
     height="100px"
     inkscape:window-width="1087"
     inkscape:window-height="756"
     inkscape:window-x="40"
     inkscape:window-y="7"
     showgrid="false"
     inkscape:window-maximized="0" />
  <metadata
     id="metadata1954">
    <rdf:RDF>
      <cc:Work
         rdf:about="">
        <dc:format>image/svg+xml</dc:format>
        <dc:type
           rdf:resource="http://purl.org/dc/dcmitype/StillImage" />
      </cc:Work>
    </rdf:RDF>
  </metadata>
  <g
     inkscape:label="Calque 1"
     inkscape:groupmode="layer"
     id="layer1">
    <path
       style="fill:#008000;fill-opacity:0.75000000000000000;fill-rule:evenodd;stroke:black;stroke-width:2.50000000000000000;stroke-linecap:butt;stroke-linejoin:miter;stroke-miterlimit:4;stroke-dasharray:none;stroke-opacity:1"
       d="M 7.9213453,22.271799 L 7.9213453,31.843425 L 7.9213453,41.250022 L 7.9213453,52.141872 L 7.2612332,66.169254 L 7.7563173,71.285123 L 8.7464855,74.420656 L 13.532298,75.575852 L 32.840578,75.575852 L 43.897455,75.575852 L 46.702932,73.595516 L 47.528072,71.780207 L 47.858128,61.54847 L 47.363044,42.24019 L 47.858128,28.212808 L 47.198016,21.611687 L 45.712764,19.136266 L 44.062484,18.476154 L 34.160802,18.476154 L 23.599008,18.146098 L 15.347607,18.311126 L 10.396766,18.971238 L 8.2514014,20.126435 L 7.9213453,22.271799 z "
       id="path1970"
       sodipodi:nodetypes="cccccccccccccccccccccccc" />
    <path
       style="fill:white;fill-opacity:1;fill-rule:evenodd;stroke:none;stroke-width:1px;stroke-linecap:butt;stroke-linejoin:miter;stroke-opacity:1"
       d="M 94.010109,34.15547 L 94.536122,49.175171 L 93.856997,60.462433 L 93.953028,69.817184 L 90.754489,75.520979 L 81.479976,75.070275 L 72.145021,74.765402 L 62.210281,75.442378 L 56.830266,75.070275 L 54.570327,69.2538 L 54.863928,54.497352 L 53.825799,38.49672 L 54.584232,23.228019 L 58.342892,18.690736 L 68.670159,17.704129 L 85.138521,17.77229 L 90.702239,18.471065 L 94.213237,23.785716 L 94.010109,34.15547 z "
       id="path12050"
       sodipodi:nodetypes="ccccccccccccccccccc" />
    <path
       transform="matrix(0.232029,0,0,0.21884,24.03042,16.78338)"
       style="fill:#aad400;fill-opacity:1;fill-rule:evenodd;stroke:none"
       d="m -12.998724,49.618675 c 0,10.240629 -8.30167,18.5423 -18.542299,18.5423 -10.240629,0 -18.5423,-8.301671 -18.5423,-18.5423 0,-10.240629 8.301671,-18.542299 18.5423,-18.542299 10.240629,0 18.542299,8.30167 18.542299,18.542299 z"
       id="path2910" />
    <path
       transform="matrix(0.22161,0,0,0.21884,34.98374,16.78338)"
       style="fill:#aad400;fill-opacity:1;fill-rule:evenodd;stroke:none"
       d="m -12.998724,49.618675 c 0,10.240629 -8.30167,18.5423 -18.542299,18.5423 -10.240629,0 -18.5423,-8.301671 -18.5423,-18.5423 0,-10.240629 8.301671,-18.542299 18.5423,-18.542299 10.240629,0 18.542299,8.30167 18.542299,18.542299 z"
       id="path2924" />
    <path
       transform="matrix(0.220524,0,0,0.21884,46.22301,16.57419)"
       style="fill:#aad400;fill-opacity:1;fill-rule:evenodd;stroke:none"
       d="m -12.998724,49.618675 c 0,10.240629 -8.30167,18.5423 -18.542299,18.5423 -10.240629,0 -18.5423,-8.301671 -18.5423,-18.5423 0,-10.240629 8.301671,-18.542299 18.5423,-18.542299 10.240629,0 18.542299,8.30167 18.542299,18.542299 z"
       id="path2926" />
    <path
       transform="matrix(0.232029,0,0,0.21884,24.03042,29.05311)"
       style="fill:#aad400;fill-opacity:1;fill-rule:evenodd;stroke:none"
       d="m -12.998724,49.618675 c 0,10.240629 -8.30167,18.5423 -18.542299,18.5423 -10.240629,0 -18.5423,-8.301671 -18.5423,-18.5423 0,-10.240629 8.301671,-18.542299 18.5423,-18.542299 10.240629,0 18.542299,8.30167 18.542299,18.542299 z"
       id="path2928" />
    <path
       transform="matrix(0.232029,0,0,0.21884,35.29045,29.06141)"
       style="fill:#aad400;fill-opacity:1;fill-rule:evenodd;stroke:none"
       d="m -12.998724,49.618675 c 0,10.240629 -8.30167,18.5423 -18.542299,18.5423 -10.240629,0 -18.5423,-8.301671 -18.5423,-18.5423 0,-10.240629 8.301671,-18.542299 18.5423,-18.542299 10.240629,0 18.542299,8.30167 18.542299,18.542299 z"
       id="path2930" />
    <path
       transform="matrix(0.232029,0,0,0.21884,46.53721,29.06346)"
       style="fill:#aad400;fill-opacity:1;fill-rule:evenodd;stroke:none"
       d="m -12.998724,49.618675 c 0,10.240629 -8.30167,18.5423 -18.542299,18.5423 -10.240629,0 -18.5423,-8.301671 -18.5423,-18.5423 0,-10.240629 8.301671,-18.542299 18.5423,-18.542299 10.240629,0 18.542299,8.30167 18.542299,18.542299 z"
       id="path2932" />
    <path
       transform="matrix(0.232029,0,0,0.21884,24.03042,41.54864)"
       style="fill:#aad400;fill-opacity:1;fill-rule:evenodd;stroke:none"
       d="m -12.998724,49.618675 c 0,10.240629 -8.30167,18.5423 -18.542299,18.5423 -10.240629,0 -18.5423,-8.301671 -18.5423,-18.5423 0,-10.240629 8.301671,-18.542299 18.5423,-18.542299 10.240629,0 18.542299,8.30167 18.542299,18.542299 z"
       id="path2934" />
    <path
       transform="matrix(0.232029,0,0,0.21884,35.39798,41.54864)"
       style="fill:#aad400;fill-opacity:1;fill-rule:evenodd;stroke:none"
       d="m -12.998724,49.618675 c 0,10.240629 -8.30167,18.5423 -18.542299,18.5423 -10.240629,0 -18.5423,-8.301671 -18.5423,-18.5423 0,-10.240629 8.301671,-18.542299 18.5423,-18.542299 10.240629,0 18.542299,8.30167 18.542299,18.542299 z"
       id="path2936" />
    <path
       transform="matrix(0.232029,0,0,0.21884,46.53721,41.53205)"
       style="fill:#aad400;fill-opacity:1;fill-rule:evenodd;stroke:none"
       d="m -12.998724,49.618675 c 0,10.240629 -8.30167,18.5423 -18.542299,18.5423 -10.240629,0 -18.5423,-8.301671 -18.5423,-18.5423 0,-10.240629 8.301671,-18.542299 18.5423,-18.542299 10.240629,0 18.542299,8.30167 18.542299,18.542299 z"
       id="path2938" />
    <path
       transform="matrix(0.232029,0,0,0.21884,24.03042,54.01096)"
       style="fill:#aad400;fill-opacity:1;fill-rule:evenodd;stroke:none"
       d="m -12.998724,49.618675 c 0,10.240629 -8.30167,18.5423 -18.542299,18.5423 -10.240629,0 -18.5423,-8.301671 -18.5423,-18.5423 0,-10.240629 8.301671,-18.542299 18.5423,-18.542299 10.240629,0 18.542299,8.30167 18.542299,18.542299 z"
       id="path2940" />
    <path
       transform="matrix(0.232029,0,0,0.21884,35.11918,54.03585)"
       style="fill:#aad400;fill-opacity:1;fill-rule:evenodd;stroke:none"
       d="m -12.998724,49.618675 c 0,10.240629 -8.30167,18.5423 -18.542299,18.5423 -10.240629,0 -18.5423,-8.301671 -18.5423,-18.5423 0,-10.240629 8.301671,-18.542299 18.5423,-18.542299 10.240629,0 18.542299,8.30167 18.542299,18.542299 z"
       id="path2942" />
    <path
       transform="matrix(0.232029,0,0,0.21884,46.64476,54.03585)"
       style="fill:#aad400;fill-opacity:1;fill-rule:evenodd;stroke:none"
       d="m -12.998724,49.618675 c 0,10.240629 -8.30167,18.5423 -18.542299,18.5423 -10.240629,0 -18.5423,-8.301671 -18.5423,-18.5423 0,-10.240629 8.301671,-18.542299 18.5423,-18.542299 10.240629,0 18.542299,8.30167 18.542299,18.542299 z"
       id="path2944" />
    <path
       style="fill:none;fill-opacity:0.75;fill-rule:evenodd;stroke:black;stroke-width:2.5;stroke-linecap:butt;stroke-linejoin:miter;stroke-miterlimit:4;stroke-dasharray:none;stroke-opacity:1"
       d="M 54.541763,22.271799 L 54.541763,31.843425 L 54.211707,41.250022 L 54.211707,50.65662 L 53.881651,66.169254 L 54.376735,71.285123 L 55.366903,74.420656 L 60.152716,75.575852 L 79.460996,75.575852 L 90.517873,75.575852 L 93.32335,73.595516 L 94.14849,71.780207 L 94.478546,61.54847 L 94.14849,42.24019 L 94.478546,28.212808 L 93.818434,21.611687 L 92.333182,19.136266 L 90.682902,18.476154 L 80.78122,18.476154 L 70.219426,18.146098 L 61.968025,18.311126 L 57.017184,18.971238 L 54.871819,20.126435 L 54.541763,22.271799 z "
       id="path2857"
       sodipodi:nodetypes="cccccccccccccccccccccccc" />
    <path
       style="fill:black;fill-opacity:1;fill-rule:evenodd;stroke:none;stroke-width:1px;stroke-linecap:butt;stroke-linejoin:miter;stroke-opacity:1"
       d="M 76.155847,31.444349 L 76.217497,35.760272 L 76.137907,39.003694 L 76.149158,41.691793 L 75.774283,43.33078 L 74.687292,43.201267 L 73.593219,43.113666 L 72.428848,43.308196 L 71.798297,43.201267 L 71.533429,41.529893 L 71.567839,37.289611 L 71.446168,32.691814 L 71.535058,28.304333 L 71.975581,27.00054 L 73.185957,26.717037 L 75.116082,26.736623 L 75.768159,26.937419 L 76.179657,28.464589 L 76.155847,31.444349 z "
       id="path12062"
       sodipodi:nodetypes="ccccccccccccccccccc" />
    <path
       style="fill:black;fill-opacity:1;fill-rule:evenodd;stroke:none;stroke-width:1px;stroke-linecap:butt;stroke-linejoin:miter;stroke-opacity:1"
       d="M 77.914298,32.946154 L 73.676185,32.883372 L 70.491254,32.964424 L 67.851624,32.952965 L 66.242184,33.334716 L 66.369358,34.441673 L 66.455384,35.555836 L 66.264362,36.741579 L 66.369358,37.383706 L 68.010595,37.653453 L 72.174424,37.618399 L 76.689325,37.742301 L 80.997698,37.651791 L 82.277982,37.203171 L 82.556374,35.970579 L 82.537141,34.005004 L 82.339966,33.340968 L 80.840331,32.921907 L 77.914298,32.946154 z "
       id="path12064"
       sodipodi:nodetypes="ccccccccccccccccccc" />
    <path
       style="fill:black;fill-opacity:1;fill-rule:evenodd;stroke:none;stroke-width:1px;stroke-linecap:butt;stroke-linejoin:miter;stroke-opacity:1"
       d="M 78.466106,56.013311 L 74.227994,55.950529 L 71.043062,56.031581 L 68.403432,56.020122 L 66.793992,56.401876 L 66.921167,57.508834 L 67.007193,58.622997 L 66.816171,59.80874 L 66.921167,60.450867 L 68.562403,60.720596 L 72.726233,60.68556 L 77.241133,60.809461 L 81.549506,60.718951 L 82.829791,60.270331 L 83.108183,59.03774 L 83.088949,57.072164 L 82.891774,56.408111 L 81.392139,55.989064 L 78.466106,56.013311 z "
       id="path12076"
       sodipodi:nodetypes="ccccccccccccccccccc" />
  </g>
</svg>
