<?xml version="1.0" encoding="UTF-8" standalone="no"?>
<!-- Created with Inkscape (http://www.inkscape.org/) -->

<svg
   xmlns:dc="http://purl.org/dc/elements/1.1/"
   xmlns:cc="http://creativecommons.org/ns#"
   xmlns:rdf="http://www.w3.org/1999/02/22-rdf-syntax-ns#"
   xmlns:svg="http://www.w3.org/2000/svg"
   xmlns="http://www.w3.org/2000/svg"
   xmlns:sodipodi="http://sodipodi.sourceforge.net/DTD/sodipodi-0.dtd"
   xmlns:inkscape="http://www.inkscape.org/namespaces/inkscape"
   width="100"
   height="100"
   id="svg2607"
   sodipodi:version="0.32"
   inkscape:version="0.48.2 r9819"
   sodipodi:docname="scalesboard_weight.svg"
   inkscape:output_extension="org.inkscape.output.svg.inkscape"
   version="1.1">
  <defs
     id="defs2609">
    <inkscape:perspective
       sodipodi:type="inkscape:persp3d"
       inkscape:vp_x="0 : 526.18109 : 1"
       inkscape:vp_y="0 : 1000 : 0"
       inkscape:vp_z="744.09448 : 526.18109 : 1"
       inkscape:persp3d-origin="372.04724 : 350.78739 : 1"
       id="perspective56" />
  </defs>
  <sodipodi:namedview
     id="base"
     pagecolor="#ffffff"
     bordercolor="#666666"
     borderopacity="1.0"
     inkscape:pageopacity="0.0"
     inkscape:pageshadow="2"
     inkscape:zoom="5.6"
     inkscape:cx="82.345677"
     inkscape:cy="61.577267"
     inkscape:document-units="px"
     inkscape:current-layer="layer1"
     inkscape:window-width="1272"
     inkscape:window-height="756"
     inkscape:window-x="0"
     inkscape:window-y="25"
     showgrid="false"
     inkscape:window-maximized="0" />
  <metadata
     id="metadata2612">
    <rdf:RDF>
      <cc:Work
         rdf:about="">
        <dc:format>image/svg+xml</dc:format>
        <dc:type
           rdf:resource="http://purl.org/dc/dcmitype/StillImage" />
      </cc:Work>
    </rdf:RDF>
  </metadata>
  <g
     inkscape:label="Ebene 1"
     inkscape:groupmode="layer"
     id="layer1"
     transform="translate(-47.387013,-408.40006)">
    <g
       id="g2694"
       inkscape:label="Calque 1"
       transform="matrix(0.89969088,0,0,0.8281799,70.318591,418.19058)">
      <g
         transform="matrix(0.7074653,0,0,0.7325938,-36.467912,37.094351)"
         id="g25383">
        <path
           transform="matrix(0.624083,0,0,0.624083,-220.8666,-110.4241)"
           d="m 507.61497,310.79874 c 0,12.84036 -28.84209,23.24954 -64.4206,23.24954 -35.57852,0 -64.4206,-10.40918 -64.4206,-23.24954 0,-12.84037 28.84208,-23.24954 64.4206,-23.24954 35.57851,0 64.4206,10.40917 64.4206,23.24954 z"
           sodipodi:ry="23.24954"
           sodipodi:rx="64.420601"
           sodipodi:cy="310.79874"
           sodipodi:cx="443.19437"
           id="path13613"
           style="fill:#000000;fill-opacity:0.27826083;fill-rule:nonzero;stroke:none"
           sodipodi:type="arc" />
        <g
           style="fill:#ffffff;fill-opacity:1;stroke:none"
           id="g11309"
           transform="matrix(0.328566,0,0,0.439163,111.5656,-22.51474)">
          <path
             style="fill-rule:evenodd;stroke:#000000;stroke-linecap:round;stroke-linejoin:round"
             d="m -177.46417,83.851927 c -55.41083,-20.22815 -59.92867,111.800913 -44.31337,114.725873 25.80298,17.41866 78.00661,14.56136 92.07317,1.46973 9.23475,-7.56016 21.43273,-128.269643 -47.7598,-116.195603 z"
             id="path11311"
             sodipodi:nodetypes="cccc" />
        </g>
        <path
           d="m 53.683236,-26.019691 c -24.509965,1.357736 -26.98393,77.389933 -21.909903,89.050093 14.869978,13.15318 37.094975,9.78644 45.201383,-0.09931 6.243098,-12.47667 8.100343,-91.830977 -23.29148,-88.950783 z m 0.882529,2.110668 C 30.0558,-22.551287 27.581834,53.480912 32.655861,65.141082 c 14.869978,13.15317 37.094975,9.78643 45.201384,-0.09932 6.243097,-12.47667 8.100343,-91.830979 -23.29148,-88.950785 z"
           style="fill:#111414;fill-opacity:1;fill-rule:nonzero;stroke:#000000;stroke-width:2.34031153;stroke-linecap:round;stroke-linejoin:round;stroke-miterlimit:4;stroke-opacity:1"
           id="path11315" />
        <path
           style="fill:#ffffff;fill-opacity:1;fill-rule:evenodd;stroke:none"
           d="M 54.963299,2.8136224 C 51.339249,-13.625706 74.566561,-21.042454 65.545814,5.3054744"
           id="path2186"
           sodipodi:nodetypes="cc" />
        <path
           style="fill:#ffffff;fill-opacity:1;fill-rule:evenodd;stroke:none"
           d="M 45.993802,5.6964124 C 37.876703,-16.813934 54.369041,-17.329352 56.389017,3.8847674"
           id="path5435"
           sodipodi:nodetypes="cc" />
        <path
           sodipodi:nodetypes="cccccccccccc"
           id="path12075"
           style="fill:#ff8a00;fill-opacity:1;fill-rule:nonzero;stroke:#000000;stroke-width:1.87224936;stroke-linecap:round;stroke-linejoin:round;stroke-miterlimit:4;stroke-opacity:1"
           d="m 45.35612,69.242632 0.439218,7.91489 4.49059,6.80934 c -5.616748,4.36859 -19.673559,1.02642 -19.918742,-3.70547 l 9.813008,-3.12042 c -0.913102,3.7445 -0.913102,-9.98532 -0.913102,-9.98532 m 4.840862,2.71106 0.439217,7.9149 4.49059,6.80934 c -5.616747,4.36858 -19.673558,1.02641 -19.918741,-3.70548 l 9.813007,-3.12041 c -0.913102,3.7445 -0.913102,-9.98533 -0.913102,-9.98533" />
        <path
           sodipodi:nodetypes="cccccccccccc"
           id="path5438"
           style="fill:#ff8a00;fill-opacity:1;fill-rule:nonzero;stroke:#000000;stroke-width:1.87224936;stroke-linecap:round;stroke-linejoin:round;stroke-miterlimit:4;stroke-opacity:1"
           d="m 63.078327,70.219432 -0.439217,7.9149 -4.49059,6.80933 c 5.616748,4.36858 19.673558,1.02642 19.918741,-3.70547 l -9.813007,-3.12041 c 0.913102,3.74449 0.913102,-9.98533 0.913102,-9.98533 m -4.840863,2.71107 -0.439217,7.91489 -4.49059,6.80933 c 5.616748,4.36859 19.673558,1.02642 19.918742,-3.70547 l -9.813008,-3.12041 c 0.913102,3.7445 0.913102,-9.98532 0.913102,-9.98532" />
        <path
           style="fill:#ffffff;fill-opacity:1;fill-rule:evenodd;stroke:#000000;stroke-width:1.34762597;stroke-linecap:round;stroke-linejoin:round;stroke-miterlimit:4;stroke-opacity:1"
           d="m 54.350231,15.025342 c -18.206083,-8.8834656 -19.690489,49.09889 -14.55984,50.38342 8.477969,7.64964 25.630276,6.39482 30.252061,0.64545 3.034217,-3.32014 7.042054,-56.3313476 -15.692221,-51.02887 z"
           id="path13611"
           sodipodi:nodetypes="cccc" />
        <path
           sodipodi:nodetypes="cccccccc"
           d="M 54.493133,27.639532 C 45.795774,24.014632 42.255744,9.2720954 43.927738,3.0152444 52.62647,6.8897214 56.240592,3.8661694 67.238977,3.4567654 66.88358,15.027539 62.780052,24.047252 54.493133,27.639532 z m -0.647854,0.72017 C 43.334216,22.316522 42.212457,10.596837 43.884451,4.3399864 60.442581,2.7733504 51.965322,3.3772074 67.195697,4.7815004 66.840294,16.35228 62.132199,27.185682 53.845279,28.359702 z"
           style="fill:#ff8a00;fill-opacity:1;fill-rule:nonzero;stroke:#000000;stroke-width:1.68239236;stroke-linecap:round;stroke-linejoin:round;stroke-miterlimit:4;stroke-opacity:1"
           id="path5441" />
        <path
           style="fill:#000000;fill-opacity:1;fill-rule:evenodd;stroke:#000000;stroke-width:4.60893917;stroke-linecap:round;stroke-linejoin:round;stroke-miterlimit:4;stroke-opacity:1"
           d="m 61.4589,-1.8701526 c 2.775704,3.16744 -0.56648,0.41554 -0.56648,0.41554"
           id="path2188"
           sodipodi:nodetypes="cc" />
        <path
           style="fill:#000000;fill-opacity:1;fill-rule:evenodd;stroke:#000000;stroke-width:4.60893917;stroke-linecap:round;stroke-linejoin:round;stroke-miterlimit:4;stroke-opacity:1"
           d="m 49.652595,-1.7533556 c 2.775703,3.167447 -0.566474,0.41554 -0.566474,0.41554"
           id="path5462"
           sodipodi:nodetypes="cc" />
        <path
           d="M 34.863517,7.0037034 C 24.561335,22.609552 13.92581,40.986072 18.922625,45.666192 c 13.289813,-5.48619 6.887393,-6.65226 14.872861,-14.45758 m 0.0041,-25.0383456 C 23.497435,21.776117 12.86191,40.152632 17.858726,44.832752 c 13.289812,-5.48619 6.887393,-6.65227 14.872861,-14.45758"
           style="fill:#111414;fill-opacity:1;fill-rule:nonzero;stroke:#000000;stroke-width:1.87224936;stroke-linecap:round;stroke-linejoin:round;stroke-miterlimit:4;stroke-opacity:1"
           id="path5464" />
        <path
           d="M 77.720084,6.5869914 C 88.022267,22.192842 98.657792,40.569362 93.660977,45.249482 80.371164,39.763292 86.773584,38.597222 78.788115,30.791892 M 78.783983,5.7535524 C 89.086167,21.359403 99.721692,39.735922 94.724876,44.416042 81.435064,38.929842 87.837483,37.763782 79.852015,29.958462"
           style="fill:#111414;fill-opacity:1;fill-rule:nonzero;stroke:#000000;stroke-width:1.87224936;stroke-linecap:round;stroke-linejoin:round;stroke-miterlimit:4;stroke-opacity:1"
           id="path13605" />
        <path
           style="fill:#000000;fill-opacity:1;fill-rule:evenodd;stroke:#000000;stroke-width:1.9141084;stroke-linecap:round;stroke-linejoin:round;stroke-miterlimit:4;stroke-opacity:1"
           d="m 52.28534,17.935329 c 1.171803,1.294067 -0.239142,0.169763 -0.239142,0.169763"
           id="path13607"
           sodipodi:nodetypes="cc" />
        <path
           style="fill:#000000;fill-opacity:1;fill-rule:evenodd;stroke:#000000;stroke-width:1.9141084;stroke-linecap:round;stroke-linejoin:round;stroke-miterlimit:4;stroke-opacity:1"
           d="m 57.121891,17.935329 c 1.171803,1.294067 -0.239143,0.169763 -0.239143,0.169763"
           id="path13609"
           sodipodi:nodetypes="cc" />
      </g>
    </g>
    <g
       id="g2799"
       inkscape:label="Calque 1"
       transform="matrix(0.61202364,0,0,0.79150132,86.831286,431.05878)">
      <g
         transform="matrix(0.730311,0,0,0.69119,12.40364,7.210214)"
         id="g16756">
        <path
           style="fill:#000000;fill-opacity:1;fill-rule:evenodd;stroke:none"
           d="m 5.1360781,27.721887 0.479989,25.04677 1.570723,18.900813 -1.158163,15.575496 10.0193039,7.734587 18.626519,0.160157 21.234276,-1.324619 19.1643,1.280413 16.33602,-0.912553 5.17105,-9.442502 -1.00158,-21.787763 0.89439,-28.962222 L 96.099496,8.8377464 87.840486,1.8785182 63.732836,1.2587483 22.639889,2.4165412 15.933571,2.0011392 4.8897291,10.260785 5.1360781,27.721887 z"
           id="path2101"
           sodipodi:nodetypes="ccccccccccccccccccc" />
        <path
           style="fill:#0fb8aa;fill-opacity:1;fill-rule:evenodd;stroke:none"
           d="m 92.049986,29.168851 1.09248,21.907712 -1.41044,16.463585 0.19941,13.644808 -6.64304,8.319548 L 66.026196,88.84711 46.638458,88.402424 26.005035,89.389865 14.831273,88.847109 10.137613,80.363212 10.747387,58.83949 8.5913001,35.501 10.166492,13.230099 17.972843,6.6120286 39.421517,5.1729649 l 34.203109,0.09942 11.55525,1.019232 7.29203,7.7519381 -0.42192,15.125296 z"
           id="path2988"
           sodipodi:nodetypes="ccccccccccccccccccc" />
      </g>
      <path
         id="path15600"
         d="m 89.341721,16.534163 -24.375,1.71875 -13.90625,1.25 -17.25,1.46875 -15.625,1.75 c 0,1e-6 -1.788206,0.947733 -1.75,1.40625 -0.0121,0.963112 0.280314,2.698521 0.96875,3.375 l 0.46875,-0.03125 -0.125,0.53125 0.28125,1.90625 1,1.28125 1.28125,0.71875 1.375,0.09375 c 0,0 0.905918,-0.414696 1.40625,-0.8125 0.500332,-0.397805 1,-1.031251 1,-1.03125 l 0.375,-1.59375 -0.15625,-1.46875 7.1875,-0.40625 20.03125,-1.78125 -0.3125,15.78125 0.125,9.59375 0,11.90625 0.25,5.5625 -22.90625,0.25 -13.6875,0.3125 -2.1875,2.625 -1.03125,7.46875 2.0625,2.75 27.375,0.84375 15.65625,-0.3125 19.4375,0 17.65625,-1.21875 c -2e-6,0 2.0625,-2.059018 2.0625,-3.25 0.103262,-2.481788 -0.04327,-6.950768 -0.75,-8.84375 l -15.84375,-0.96875 -22.71875,0.28125 0.125,-3.5625 -0.09375,-14.59375 -0.125,-16.53125 -0.125,-8.375 -0.09375,-0.15625 20.15625,-1.78125 5,-0.46875 0.21875,1.53125 1,1.25 1.28125,0.71875 1.34375,0.09375 c 0,0 0.937169,-0.414697 1.4375,-0.8125 0.500332,-0.397805 1.000001,-1.031249 1,-1.03125 l 0.375,-1.59375 -0.0625,-0.75 0.5625,-0.0625 1.84375,-1.15625 0.6875,-2.96875 -1.90625,-0.90625 z m -4.71875,18.625 -12.15625,0.40625 0.4375,3.625 8.09375,11.53125 5.75,0.625 12.15625,-11.5 -1.28125,-4.46875 -13,-0.21875 z m -64.8125,4.25 -12.1250004,0.4375 0.40625,3.625 8.0937504,11.5 5.78125,0.65625 12.15625,-11.53125 -1.28125,-4.46875 -13.03125,-0.21875 z"
         style="fill:#000000;fill-opacity:0.26099704;fill-rule:evenodd;stroke:none" />
      <g
         transform="matrix(0.08303684,0.996547,-1.44864,0.120707,29.78854,-12.65652)"
         id="g15586">
        <path
           style="fill:#000000;fill-opacity:1;fill-rule:evenodd;stroke:none"
           d="m 34.865658,-35.728231 -1.015788,-1.339462 -2.885565,-0.64563 -1.054354,1.263592 -0.325966,16.79511 0.115026,9.605692 0,11.911058 0.469665,10.821358 c 0,0 0.795631,1.273973 1.255736,1.273973 0.95878,0.06331 2.690825,-0.03444 3.422133,-0.467754 l 0.373751,-9.7064388 -0.115028,-14.6006512 -0.115026,-16.52179 -0.124584,-8.389057 z"
           id="path15578"
           sodipodi:nodetypes="cccccccccccccc" />
        <path
           style="fill:#d4aa00;fill-opacity:1;fill-rule:evenodd;stroke:none"
           d="m 33.741652,-32.888655 -0.219247,-2.640716 -1.142138,-0.720645 -1.08315,0.605571 0.02943,16.535028 0.0554,8.213565 0,10.18481738 0.277002,6.57085022 c 0,0 -0.123662,6.6272404 0.09794,6.6272404 0.221602,0 1.476767,-0.1307 1.698369,-0.787786 0.221601,-0.657083 0.275887,-3.4161251 0.275887,-3.4161251 l 0.310017,-7.35146752 -0.5221,-12.74601538 0.411299,-13.865927 -0.188707,-7.20839 z"
           id="path15580"
           sodipodi:nodetypes="ccccccccssccccc" />
      </g>
      <path
         sodipodi:nodetypes="ccccc"
         id="path4278"
         d="M 4.0502661,36.261603 16.414236,22.831773 16.201064,36.048431 27.712347,36.901119 16.414236,22.831773"
         style="fill:none;stroke:#000000;stroke-width:1px;stroke-linecap:butt;stroke-linejoin:miter;stroke-opacity:1" />
      <path
         sodipodi:nodetypes="ccccc"
         id="path4280"
         d="M 69.280867,32.424509 80.365805,16.649788 92.942947,32.211337 81.218493,32.424509 80.792149,16.649788"
         style="fill:none;stroke:#000000;stroke-width:1px;stroke-linecap:butt;stroke-linejoin:miter;stroke-opacity:1" />
      <path
         sodipodi:nodetypes="cccccccccccccc"
         id="path13590"
         d="m 52.239167,20.822851 -1.015788,-1.339462 -2.885565,-0.64563 -1.054354,1.263592 -0.325966,16.79511 0.115026,9.605692 0,11.911058 0.469665,10.821358 c 0,0 0.795631,1.273973 1.255736,1.273973 0.95878,0.06331 2.690825,-0.03444 3.422133,-0.467754 l 0.373751,-9.706439 -0.115028,-14.600651 -0.115026,-16.52179 -0.124584,-8.389057 z"
         style="fill:#000000;fill-opacity:1;fill-rule:evenodd;stroke:none" />
      <path
         sodipodi:nodetypes="ccccccccssccccc"
         id="path13592"
         d="m 50.901989,24.301942 -0.219247,-2.640716 -1.142138,-0.720645 -1.08315,0.605571 0.02943,16.535028 0.0554,8.213566 0,10.184817 0.277002,6.57085 c 0,0 -0.123662,6.62724 0.09794,6.62724 0.221602,0 1.476767,-0.1307 1.698369,-0.787786 0.221601,-0.657083 0.275887,-3.416125 0.275887,-3.416125 l 0.310017,-7.351467 -0.5221,-12.746015 0.411299,-13.865928 -0.188707,-7.20839 z"
         style="fill:#d4aa00;fill-opacity:1;fill-rule:evenodd;stroke:none" />
      <g
         transform="matrix(1,0,0,1.280687,2.344891,-39.96729)"
         id="g13584">
        <path
           style="fill:#000000;fill-opacity:1;fill-rule:evenodd;stroke:none"
           d="m 8.3948368,81.590978 -2.1846621,2.05308 -1.0530217,5.832223 2.0609178,2.131033 27.3928152,0.658833 15.666878,-0.232489 19.426929,0 17.649629,-0.949272 c 0,0 2.077849,-1.608106 2.077849,-2.538061 0.103265,-1.937857 -0.05618,-5.438615 -0.762906,-6.916714 l -15.831197,-0.755417 -23.813654,0.232489 -26.94703,0.23249 -13.6825472,0.251805 z"
           id="path13580"
           sodipodi:nodetypes="cccccccccccccc" />
        <path
           style="fill:#ff2a2a;fill-opacity:1;fill-rule:evenodd;stroke:none"
           d="m 13.721549,82.993028 -4.3070061,0.600872 -1.1753716,3.13013 0.9876854,2.968471 26.9686223,-0.08066 13.396321,-0.15183 16.61143,0 10.717054,-0.759147 c 0,0 10.809024,0.33891 10.809024,-0.268408 0,-0.607317 -0.213172,-4.047212 -1.284878,-4.654529 -1.071702,-0.607318 -5.571698,-0.756095 -5.571698,-0.756095 L 68.882493,82.172199 48.09375,83.60306 25.478429,82.475859 13.721549,82.993028 z"
           id="path13582"
           sodipodi:nodetypes="ccccccccssccccc" />
      </g>
      <path
         sodipodi:nodetypes="cccccccc"
         id="path13606"
         d="m 3.410749,36.048429 12.150798,-0.426344 13.003486,0.213172 1.279031,4.47661 L 17.693266,51.823149 11.937625,51.183633 3.8370927,39.672351 3.410749,36.048429 z"
         style="fill:#000000;fill-opacity:1;fill-rule:evenodd;stroke:none" />
      <path
         id="path14493"
         d="m 7.7162837,38.592174 8.4749263,-0.30544 9.069659,0.15272 0,1.527202 -8.474927,8.552329 -1.338146,0 -7.8801953,-8.552329 0.148683,-1.374482 z"
         style="fill:#85c751;fill-opacity:1;fill-rule:evenodd;stroke:none" />
      <path
         sodipodi:nodetypes="ccccccccscccccc"
         id="path14505"
         d="m 46.560473,17.085211 1.358044,-1.272979 1.429521,-0.477367 1.7869,0.238683 1.215092,0.954734 0.428856,1.113857 0.142952,1.591224 -0.35738,1.591223 c 0,0 -0.500332,0.636491 -1.000664,1.034296 -0.500332,0.397804 -1.42952,0.795612 -1.42952,0.795612 l -1.358044,-0.07956 -1.286569,-0.71605 -1.000664,-1.27298 -0.285904,-1.909468 0.35738,-1.591223 z"
         style="fill:#000000;fill-opacity:1;fill-rule:evenodd;stroke:none" />
      <path
         sodipodi:nodetypes="ccccccccscccccc"
         id="path14507"
         d="m 47.910883,17.891867 0.795362,-0.700184 0.837223,-0.262569 1.046529,0.131284 0.71164,0.525138 0.251167,0.612661 0.08372,0.87523 -0.209306,0.87523 c 0,0 -0.293027,0.350092 -0.586056,0.568899 -0.293028,0.218808 -0.837223,0.437616 -0.837223,0.437616 l -0.795362,-0.04376 -0.753501,-0.393854 -0.586056,-0.700184 -0.167445,-1.050275 0.209306,-0.87523 z"
         style="fill:#3771c8;fill-opacity:1;fill-rule:evenodd;stroke:none" />
      <path
         sodipodi:nodetypes="cccccccc"
         id="path15574"
         d="M 68.215006,31.784994 80.365804,31.35865 93.36929,31.571822 94.648321,36.048432 82.497523,47.559714 76.741882,46.920198 68.64135,35.408916 68.215006,31.784994 z"
         style="fill:#000000;fill-opacity:1;fill-rule:evenodd;stroke:none" />
      <path
         id="path15576"
         d="m 72.520541,34.328739 8.474926,-0.30544 9.069659,0.15272 0,1.527202 -8.474927,8.552329 -1.338146,0 -7.880195,-8.552329 0.148683,-1.374482 z"
         style="fill:#85c751;fill-opacity:1;fill-rule:evenodd;stroke:none" />
      <path
         sodipodi:nodetypes="ccccccccscccccc"
         id="path15590"
         d="m 13.838587,22.62768 1.358044,-1.272979 1.429521,-0.477367 1.7869,0.238683 1.215092,0.954734 0.428856,1.113857 0.142952,1.591224 -0.35738,1.591223 c 0,0 -0.500332,0.636491 -1.000664,1.034296 -0.500332,0.397804 -1.42952,0.795612 -1.42952,0.795612 l -1.358044,-0.07956 -1.286569,-0.71605 -1.000664,-1.27298 -0.285904,-1.909468 0.35738,-1.591223 z"
         style="fill:#000000;fill-opacity:1;fill-rule:evenodd;stroke:none" />
      <path
         sodipodi:nodetypes="ccccccccscccccc"
         id="path15592"
         d="m 15.188997,23.434336 0.795362,-0.700184 0.837223,-0.262569 1.046529,0.131284 0.71164,0.525138 0.251167,0.612661 0.08372,0.87523 -0.209306,0.87523 c 0,0 -0.293027,0.350092 -0.586056,0.568899 -0.293028,0.218808 -0.837223,0.437616 -0.837223,0.437616 l -0.795362,-0.04376 -0.753501,-0.393854 -0.586056,-0.700184 -0.167445,-1.050275 0.209306,-0.87523 z"
         style="fill:#3771c8;fill-opacity:1;fill-rule:evenodd;stroke:none" />
      <path
         sodipodi:nodetypes="ccccccccscccccc"
         id="path15594"
         d="m 77.576984,16.445695 1.358044,-1.272979 1.429521,-0.477367 1.7869,0.238683 1.215092,0.954734 0.428856,1.113857 0.142952,1.591224 -0.35738,1.591223 c 0,0 -0.500332,0.636491 -1.000664,1.034296 -0.500332,0.397804 -1.42952,0.795612 -1.42952,0.795612 l -1.358044,-0.07956 -1.286569,-0.71605 -1.000664,-1.27298 -0.285904,-1.909468 0.35738,-1.591223 z"
         style="fill:#000000;fill-opacity:1;fill-rule:evenodd;stroke:none" />
      <path
         sodipodi:nodetypes="ccccccccscccccc"
         id="path15596"
         d="m 78.927394,17.252351 0.795362,-0.700184 0.837223,-0.262569 1.046529,0.131284 0.71164,0.525138 0.251167,0.612661 0.08372,0.87523 -0.209306,0.87523 c 0,0 -0.293027,0.350092 -0.586056,0.568899 -0.293028,0.218808 -0.837223,0.437616 -0.837223,0.437616 l -0.795362,-0.04376 -0.753501,-0.393854 -0.586056,-0.700184 -0.167445,-1.050275 0.209306,-0.87523 z"
         style="fill:#3771c8;fill-opacity:1;fill-rule:evenodd;stroke:none" />
    </g>
    <g
       transform="scale(1.0136714,0.98651298)"
       style="font-size:26.53242874px;font-style:normal;font-weight:normal;fill:#000000;fill-opacity:1;stroke:none;font-family:Bitstream Vera Sans"
       id="text2429">
      <path
         d="m 85.071447,440.5309 2.267175,0.33684 c 0.095,0.69958 0.358426,1.20916 0.790273,1.52873 0.578664,0.43183 1.368936,0.64776 2.370817,0.64776 1.0796,0 1.913056,-0.21593 2.500371,-0.64776 0.587296,-0.43185 0.984591,-1.03643 1.191886,-1.81374 0.120906,-0.47503 0.177045,-1.47259 0.168419,-2.99268 -1.019159,1.20053 -2.288776,1.80079 -3.808854,1.80079 -1.891477,0 -3.355423,-0.68231 -4.391843,-2.04694 -1.036424,-1.36462 -1.554635,-3.0013 -1.554634,-4.91005 -10e-7,-1.31279 0.237512,-2.52195 0.71254,-3.62748 0.475026,-1.11414 1.161655,-1.97351 2.059891,-2.5781 0.906866,-0.60457 1.969198,-0.90686 3.187001,-0.90687 1.623721,1e-5 2.962432,0.65641 4.016139,1.9692 l 0,-1.65828 2.150578,0 0,11.89296 c -1.3e-5,2.14194 -0.220253,3.6577 -0.66072,4.5473 -0.431855,0.89823 -1.122803,1.60645 -2.072846,2.12467 -0.941427,0.51821 -2.103083,0.77731 -3.484972,0.77732 -1.641009,-1e-5 -2.966765,-0.37139 -3.977274,-1.11416 -1.010514,-0.73413 -1.498496,-1.84397 -1.463947,-3.32951 m 1.930338,-8.26547 c -3e-6,1.80511 0.358426,3.12223 1.075289,3.95136 0.716854,0.82914 1.615086,1.24371 2.694699,1.24371 1.070963,0 1.969195,-0.41025 2.6947,-1.23075 0.725486,-0.82914 1.088234,-2.12466 1.088244,-3.88659 -1e-5,-1.68418 -0.375713,-2.95379 -1.12711,-3.80885 -0.742778,-0.85504 -1.641011,-1.28256 -2.694699,-1.28258 -1.036429,2e-5 -1.917388,0.42322 -2.642879,1.26962 -0.7255,0.83779 -1.088247,2.08581 -1.088244,3.74408"
         style="font-variant:normal;font-stretch:normal;font-family:Liberation Sans;-inkscape-font-specification:Liberation Sans"
         id="path3031" />
    </g>
    <g
       transform="matrix(1.0752553,0,0,0.93001169,-5.8928571,2.3214286)"
       style="font-size:31.86760902px;font-style:normal;font-weight:normal;fill:#000000;fill-opacity:1;stroke:none;font-family:Bitstream Vera Sans"
       id="text2433">
      <path
         d="m 102.96808,462.80679 0,-22.81148 2.80086,0 0,13.00846 6.62871,-6.72207 3.62556,0 -6.3175,6.13078 6.95548,10.39431 -3.4544,0 -5.46168,-8.44927 -1.97617,1.89836 0,6.55091 -2.80086,0"
         style="font-variant:normal;font-stretch:normal;font-family:Liberation Sans;-inkscape-font-specification:Liberation Sans"
         id="path3034"
         inkscape:connector-curvature="0" />
      <path
         d="m 118.37283,464.1761 2.72306,0.40457 c 0.11411,0.84026 0.4305,1.4523 0.94918,1.83613 0.69503,0.51867 1.64421,0.77801 2.84755,0.77801 1.29668,0 2.29773,-0.25934 3.00315,-0.77801 0.70539,-0.51869 1.18257,-1.24484 1.43155,-2.17845 0.14522,-0.57055 0.21264,-1.7687 0.20228,-3.59445 -1.22409,1.44193 -2.749,2.16289 -4.57474,2.16289 -2.27182,0 -4.03014,-0.81951 -5.27496,-2.45853 -1.24483,-1.63902 -1.86725,-3.60481 -1.86724,-5.89738 -10e-6,-1.57677 0.28527,-3.02907 0.85582,-4.3569 0.57054,-1.33817 1.39524,-2.37034 2.47409,-3.09651 1.08922,-0.72613 2.36517,-1.08921 3.82785,-1.08922 1.95022,10e-6 3.55812,0.7884 4.82371,2.36517 l 0,-1.99172 2.58302,0 0,14.2844 c -2e-5,2.57265 -0.26454,4.39321 -0.79358,5.46169 -0.51869,1.07884 -1.34858,1.92948 -2.48966,2.5519 -1.13073,0.6224 -2.52597,0.93361 -4.18573,0.93362 -1.97099,-10e-6 -3.56333,-0.44607 -4.77703,-1.33819 -1.21371,-0.88176 -1.79982,-2.21476 -1.75832,-3.99902 m 2.31849,-9.9275 c 0,2.16808 0.4305,3.75005 1.29151,4.74591 0.861,0.99586 1.93985,1.49379 3.23656,1.49379 1.28631,0 2.36516,-0.49274 3.23655,-1.47823 0.87137,-0.99586 1.30706,-2.5519 1.30707,-4.66811 -1e-5,-2.02284 -0.45126,-3.54775 -1.35375,-4.57475 -0.89214,-1.02696 -1.97099,-1.54046 -3.23656,-1.54047 -1.24483,10e-6 -2.30293,0.50832 -3.17431,1.52491 -0.87138,1.00625 -1.30707,2.50523 -1.30707,4.49695"
         style="font-variant:normal;font-stretch:normal;font-family:Liberation Sans;-inkscape-font-specification:Liberation Sans"
         id="path3036"
         inkscape:connector-curvature="0" />
    </g>
  </g>
</svg>
