<?xml version="1.0" encoding="UTF-8" standalone="no"?>
<!-- Created with Inkscape (http://www.inkscape.org/) -->

<svg
   xmlns:dc="http://purl.org/dc/elements/1.1/"
   xmlns:cc="http://creativecommons.org/ns#"
   xmlns:rdf="http://www.w3.org/1999/02/22-rdf-syntax-ns#"
   xmlns:svg="http://www.w3.org/2000/svg"
   xmlns="http://www.w3.org/2000/svg"
   xmlns:sodipodi="http://sodipodi.sourceforge.net/DTD/sodipodi-0.dtd"
   xmlns:inkscape="http://www.inkscape.org/namespaces/inkscape"
   width="100"
   height="100"
   id="svg14315"
   sodipodi:version="0.32"
   inkscape:version="0.48.2 r9819"
   version="1.0"
   sodipodi:docname="memory_sound.svg">
  <defs
     id="defs14317" />
  <sodipodi:namedview
     id="base"
     pagecolor="#ffffff"
     bordercolor="#666666"
     borderopacity="1.0"
     inkscape:pageopacity="0.0"
     inkscape:pageshadow="2"
     inkscape:zoom="4.533588"
     inkscape:cx="40.862035"
     inkscape:cy="50.201554"
     inkscape:document-units="px"
     inkscape:current-layer="layer1"
     width="100px"
     height="100px"
     inkscape:window-width="1091"
     inkscape:window-height="756"
     inkscape:window-x="46"
     inkscape:window-y="0"
     showgrid="false"
     inkscape:window-maximized="0" />
  <metadata
     id="metadata14320">
    <rdf:RDF>
      <cc:Work
         rdf:about="">
        <dc:format>image/svg+xml</dc:format>
        <dc:type
           rdf:resource="http://purl.org/dc/dcmitype/StillImage" />
      </cc:Work>
    </rdf:RDF>
  </metadata>
  <g
     inkscape:label="Calque 1"
     inkscape:groupmode="layer"
     id="layer1">
    <path
       style="fill:#008000;stroke:#000000;stroke-width:2.50000000000000000;stroke-linecap:butt;stroke-linejoin:miter;stroke-miterlimit:4;stroke-opacity:1;stroke-dasharray:none"
       d="m 9.0007729,23.004677 0,9.571626 0,9.406597 0,10.89185 -0.66011,14.027382 0.49508,5.115869 0.99017,3.135533 4.7858201,1.155196 19.30828,0 11.05687,0 2.80548,-1.980336 0.82514,-1.815309 0.33006,-10.231737 -0.49509,-19.30828 0.49509,-14.027382 -0.66012,-6.601121 -1.48525,-2.475421 -1.65028,-0.660112 -9.90168,0 -10.56179,-0.330056 -8.2514,0.165028 -4.95085,0.660112 -2.1453601,1.155197 -0.33006,2.145364 z"
       id="path1970"
       sodipodi:nodetypes="cccccccccccccccccccccccc"
       inkscape:connector-curvature="0" />
    <path
       style="fill:white;fill-opacity:1;fill-rule:evenodd;stroke:none;stroke-width:1px;stroke-linecap:butt;stroke-linejoin:miter;stroke-opacity:1"
       d="M 93.986661,34.888348 L 94.512674,49.908049 L 93.833549,61.195311 L 93.92958,70.550062 L 90.731041,76.253857 L 81.456528,75.803153 L 72.121573,75.49828 L 62.186833,76.175256 L 56.806818,75.803153 L 54.546879,69.986678 L 54.84048,55.23023 L 53.802351,39.229598 L 54.560784,23.960897 L 58.319444,19.423614 L 68.646711,18.437007 L 85.115073,18.505168 L 90.678791,19.203943 L 94.189789,24.518594 L 93.986661,34.888348 z "
       id="path12050"
       sodipodi:nodetypes="ccccccccccccccccccc" />
    <path
       transform="matrix(0.232029,0,0,0.21884,24.00697,17.51625)"
       style="fill:#aad400;fill-opacity:1;fill-rule:evenodd;stroke:none"
       d="m -12.998724,49.618675 c 0,10.240629 -8.30167,18.5423 -18.542299,18.5423 -10.240629,0 -18.5423,-8.301671 -18.5423,-18.5423 0,-10.240629 8.301671,-18.542299 18.5423,-18.542299 10.240629,0 18.542299,8.30167 18.542299,18.542299 z"
       id="path2910" />
    <path
       transform="matrix(0.22161,0,0,0.21884,34.96029,17.51625)"
       style="fill:#aad400;fill-opacity:1;fill-rule:evenodd;stroke:none"
       d="m -12.998724,49.618675 c 0,10.240629 -8.30167,18.5423 -18.542299,18.5423 -10.240629,0 -18.5423,-8.301671 -18.5423,-18.5423 0,-10.240629 8.301671,-18.542299 18.5423,-18.542299 10.240629,0 18.542299,8.30167 18.542299,18.542299 z"
       id="path2924" />
    <path
       transform="matrix(0.220524,0,0,0.21884,46.19956,17.30706)"
       style="fill:#aad400;fill-opacity:1;fill-rule:evenodd;stroke:none"
       d="m -12.998724,49.618675 c 0,10.240629 -8.30167,18.5423 -18.542299,18.5423 -10.240629,0 -18.5423,-8.301671 -18.5423,-18.5423 0,-10.240629 8.301671,-18.542299 18.5423,-18.542299 10.240629,0 18.542299,8.30167 18.542299,18.542299 z"
       id="path2926" />
    <path
       transform="matrix(0.232029,0,0,0.21884,24.00697,29.78598)"
       style="fill:#aad400;fill-opacity:1;fill-rule:evenodd;stroke:none"
       d="m -12.998724,49.618675 c 0,10.240629 -8.30167,18.5423 -18.542299,18.5423 -10.240629,0 -18.5423,-8.301671 -18.5423,-18.5423 0,-10.240629 8.301671,-18.542299 18.5423,-18.542299 10.240629,0 18.542299,8.30167 18.542299,18.542299 z"
       id="path2928" />
    <path
       transform="matrix(0.232029,0,0,0.21884,35.267,29.79428)"
       style="fill:#aad400;fill-opacity:1;fill-rule:evenodd;stroke:none"
       d="m -12.998724,49.618675 c 0,10.240629 -8.30167,18.5423 -18.542299,18.5423 -10.240629,0 -18.5423,-8.301671 -18.5423,-18.5423 0,-10.240629 8.301671,-18.542299 18.5423,-18.542299 10.240629,0 18.542299,8.30167 18.542299,18.542299 z"
       id="path2930" />
    <path
       transform="matrix(0.232029,0,0,0.21884,46.51376,29.79633)"
       style="fill:#aad400;fill-opacity:1;fill-rule:evenodd;stroke:none"
       d="m -12.998724,49.618675 c 0,10.240629 -8.30167,18.5423 -18.542299,18.5423 -10.240629,0 -18.5423,-8.301671 -18.5423,-18.5423 0,-10.240629 8.301671,-18.542299 18.5423,-18.542299 10.240629,0 18.542299,8.30167 18.542299,18.542299 z"
       id="path2932" />
    <path
       transform="matrix(0.232029,0,0,0.21884,24.00697,42.28151)"
       style="fill:#aad400;fill-opacity:1;fill-rule:evenodd;stroke:none"
       d="m -12.998724,49.618675 c 0,10.240629 -8.30167,18.5423 -18.542299,18.5423 -10.240629,0 -18.5423,-8.301671 -18.5423,-18.5423 0,-10.240629 8.301671,-18.542299 18.5423,-18.542299 10.240629,0 18.542299,8.30167 18.542299,18.542299 z"
       id="path2934" />
    <path
       transform="matrix(0.232029,0,0,0.21884,35.37453,42.28151)"
       style="fill:#aad400;fill-opacity:1;fill-rule:evenodd;stroke:none"
       d="m -12.998724,49.618675 c 0,10.240629 -8.30167,18.5423 -18.542299,18.5423 -10.240629,0 -18.5423,-8.301671 -18.5423,-18.5423 0,-10.240629 8.301671,-18.542299 18.5423,-18.542299 10.240629,0 18.542299,8.30167 18.542299,18.542299 z"
       id="path2936" />
    <path
       transform="matrix(0.232029,0,0,0.21884,46.51376,42.26492)"
       style="fill:#aad400;fill-opacity:1;fill-rule:evenodd;stroke:none"
       d="m -12.998724,49.618675 c 0,10.240629 -8.30167,18.5423 -18.542299,18.5423 -10.240629,0 -18.5423,-8.301671 -18.5423,-18.5423 0,-10.240629 8.301671,-18.542299 18.5423,-18.542299 10.240629,0 18.542299,8.30167 18.542299,18.542299 z"
       id="path2938" />
    <path
       transform="matrix(0.232029,0,0,0.21884,24.00697,54.74383)"
       style="fill:#aad400;fill-opacity:1;fill-rule:evenodd;stroke:none"
       d="m -12.998724,49.618675 c 0,10.240629 -8.30167,18.5423 -18.542299,18.5423 -10.240629,0 -18.5423,-8.301671 -18.5423,-18.5423 0,-10.240629 8.301671,-18.542299 18.5423,-18.542299 10.240629,0 18.542299,8.30167 18.542299,18.542299 z"
       id="path2940" />
    <path
       transform="matrix(0.232029,0,0,0.21884,35.09573,54.76872)"
       style="fill:#aad400;fill-opacity:1;fill-rule:evenodd;stroke:none"
       d="m -12.998724,49.618675 c 0,10.240629 -8.30167,18.5423 -18.542299,18.5423 -10.240629,0 -18.5423,-8.301671 -18.5423,-18.5423 0,-10.240629 8.301671,-18.542299 18.5423,-18.542299 10.240629,0 18.542299,8.30167 18.542299,18.542299 z"
       id="path2942" />
    <path
       transform="matrix(0.232029,0,0,0.21884,46.62131,54.76872)"
       style="fill:#aad400;fill-opacity:1;fill-rule:evenodd;stroke:none"
       d="m -12.998724,49.618675 c 0,10.240629 -8.30167,18.5423 -18.542299,18.5423 -10.240629,0 -18.5423,-8.301671 -18.5423,-18.5423 0,-10.240629 8.301671,-18.542299 18.5423,-18.542299 10.240629,0 18.542299,8.30167 18.542299,18.542299 z"
       id="path2944" />
    <path
       style="fill:none;fill-opacity:0.75;fill-rule:evenodd;stroke:black;stroke-width:2.5;stroke-linecap:butt;stroke-linejoin:miter;stroke-miterlimit:4;stroke-dasharray:none;stroke-opacity:1"
       d="M 54.518315,23.004677 L 54.518315,32.576303 L 54.188259,41.9829 L 54.188259,51.389498 L 53.858203,66.902132 L 54.353287,72.018001 L 55.343455,75.153534 L 60.129268,76.30873 L 79.437548,76.30873 L 90.494425,76.30873 L 93.299902,74.328394 L 94.125042,72.513085 L 94.455098,62.281348 L 94.125042,42.973068 L 94.455098,28.945686 L 93.794986,22.344565 L 92.309734,19.869144 L 90.659454,19.209032 L 80.757772,19.209032 L 70.195978,18.878976 L 61.944577,19.044004 L 56.993736,19.704116 L 54.848371,20.859313 L 54.518315,23.004677 z "
       id="path2857"
       sodipodi:nodetypes="cccccccccccccccccccccccc" />
    <g
       id="g19312"
       transform="matrix(7.638663e-2,0,0,0.226079,65.99331,73.02646)">
      <path
         style="fill:black;fill-opacity:1;fill-rule:evenodd;stroke:black;stroke-width:0.67233763pt;stroke-linecap:butt;stroke-linejoin:miter;stroke-opacity:1"
         id="path923"
         d="M 139.35084,-194.19481 L 299.01291,-226.18621 L 281.27268,-154.20557 L 281.27268,-218.18835 L 139.35084,-194.19481 z " />
      <path
         style="fill:black;fill-opacity:1;fill-rule:evenodd;stroke:black;stroke-width:0.67233763pt;stroke-linecap:butt;stroke-linejoin:miter;stroke-opacity:1"
         sodipodi:nodetypes="ccccccc"
         id="path925"
         d="M 263.53245,-202.19266 L 263.12165,-39.687838 L 246.54449,-39.562321 L 245.79222,-189.99908 L 15.169218,-154.20557 L 15.169218,-162.20342 L 263.53245,-202.19266 z " />
      <path
         style="fill:black;fill-opacity:1;fill-rule:evenodd;stroke:black;stroke-width:0.67233763pt;stroke-linecap:butt;stroke-linejoin:miter;stroke-opacity:1"
         id="path926"
         d="M 15.169218,-154.20557 L 15.169218,-90.222781 L 39.690351,-90.222781 L 40.411094,-158.48041 L 15.169218,-154.20557 z " />
      <path
         transform="matrix(1.208685,-0.258639,0.708745,0.551813,-509.8518,-243.2346)"
         style="fill:black;fill-opacity:1;fill-rule:evenodd;stroke:black;stroke-width:1pt;stroke-linecap:butt;stroke-linejoin:miter;stroke-opacity:1"
         sodipodi:type="arc"
         sodipodi:ry="30.590796"
         sodipodi:rx="56.143108"
         sodipodi:cy="376.12564"
         sodipodi:cx="174.90738"
         id="path928"
         d="m 231.05049,376.12564 c 0,16.89483 -25.13613,30.5908 -56.14311,30.5908 -31.00698,0 -56.14311,-13.69597 -56.14311,-30.5908 0,-16.89483 25.13613,-30.59079 56.14311,-30.59079 31.00698,0 56.14311,13.69596 56.14311,30.59079 z" />
      <path
         transform="matrix(1.81327,-0.692855,1.782482,0.155344,-1005.535,-24.98159)"
         style="fill:white;fill-opacity:1;fill-rule:evenodd;stroke:black;stroke-width:1pt;stroke-linecap:butt;stroke-linejoin:miter;stroke-opacity:1"
         sodipodi:type="arc"
         sodipodi:start="3.0700191"
         sodipodi:ry="20.153936"
         sodipodi:rx="21.953396"
         sodipodi:open="true"
         sodipodi:end="6.4104658"
         sodipodi:cy="375.76575"
         sodipodi:cx="165.19031"
         id="path930"
         d="m 143.29312,377.207 c -0.86706,-11.10221 8.23376,-20.7476 20.32725,-21.54359 12.09348,-0.79598 22.60007,7.55887 23.46713,18.66108 0.10415,1.33358 0.0635,2.67336 -0.12138,3.99954" />
      <path
         transform="matrix(0.957127,-0.814485,2.39414,-0.273448,-1102.963,189.9041)"
         style="fill:black;fill-opacity:1;fill-rule:evenodd;stroke:black;stroke-width:1pt;stroke-linecap:butt;stroke-linejoin:miter;stroke-opacity:1"
         sodipodi:type="arc"
         sodipodi:start="4.4676779"
         sodipodi:ry="28.791338"
         sodipodi:rx="24.472637"
         sodipodi:open="true"
         sodipodi:end="6.2160926"
         sodipodi:cy="380.80423"
         sodipodi:cx="200.09979"
         id="path931"
         d="m 194.17066,352.87066 c 13.11319,-3.85243 26.3981,5.53084 29.67267,20.95812 0.35127,1.65493 0.57684,3.3433 0.67404,5.04521" />
      <path
         style="fill:black;fill-opacity:1;fill-rule:evenodd;stroke:black;stroke-width:0.67233763pt;stroke-linecap:butt;stroke-linejoin:miter;stroke-opacity:1"
         id="path4658"
         d="M 41.131847,-130.21202 L 245.79222,-146.20772 L 245.79222,-141.90873 L 41.131847,-119.1633 L 41.131847,-130.21202 z " />
      <path
         style="fill:black;fill-opacity:1;fill-rule:evenodd;stroke:black;stroke-width:0.67233763pt;stroke-linecap:butt;stroke-linejoin:miter;stroke-opacity:1"
         id="path5281"
         d="M 39.690351,-154.20557 L 235.7333,-183.17546 L 235.01255,-150.03211 L 228.05199,-149.38223 L 228.05199,-154.20557 L 139.35084,-146.20772 L 157.09106,-162.20342 L 39.690351,-154.20557 z " />
      <path
         transform="matrix(1.264357,-0.298649,0.741389,0.637176,-311.9477,-219.5204)"
         style="fill:black;fill-opacity:1;fill-rule:evenodd;stroke:black;stroke-width:1pt;stroke-linecap:butt;stroke-linejoin:miter;stroke-opacity:1"
         sodipodi:type="arc"
         sodipodi:ry="30.590796"
         sodipodi:rx="56.143108"
         sodipodi:cy="376.12564"
         sodipodi:cx="174.90738"
         id="path6524"
         d="m 231.05049,376.12564 c 0,16.89483 -25.13613,30.5908 -56.14311,30.5908 -31.00698,0 -56.14311,-13.69597 -56.14311,-30.5908 0,-16.89483 25.13613,-30.59079 56.14311,-30.59079 31.00698,0 56.14311,13.69596 56.14311,30.59079 z" />
      <path
         transform="matrix(1.896791,-0.800034,1.864584,0.179374,-829.3275,33.0079)"
         style="fill:white;fill-opacity:1;fill-rule:evenodd;stroke:black;stroke-width:1pt;stroke-linecap:butt;stroke-linejoin:miter;stroke-opacity:1"
         sodipodi:type="arc"
         sodipodi:start="3.0700191"
         sodipodi:ry="20.153936"
         sodipodi:rx="21.953396"
         sodipodi:open="true"
         sodipodi:end="6.4104658"
         sodipodi:cy="375.76575"
         sodipodi:cx="165.19031"
         id="path6525"
         d="m 143.29312,377.207 c -0.86706,-11.10221 8.23376,-20.7476 20.32725,-21.54359 12.09348,-0.79598 22.60007,7.55887 23.46713,18.66108 0.10415,1.33358 0.0635,2.67336 -0.12138,3.99954" />
      <path
         transform="matrix(1.001214,-0.94048,2.504414,-0.315749,-931.2437,281.1345)"
         style="fill:black;fill-opacity:1;fill-rule:evenodd;stroke:black;stroke-width:1pt;stroke-linecap:butt;stroke-linejoin:miter;stroke-opacity:1"
         sodipodi:type="arc"
         sodipodi:start="4.4676779"
         sodipodi:ry="28.791338"
         sodipodi:rx="24.472637"
         sodipodi:open="true"
         sodipodi:end="6.2160926"
         sodipodi:cy="380.80423"
         sodipodi:cx="200.09979"
         id="path6526"
         d="m 194.17066,352.87066 c 13.11319,-3.85243 26.3981,5.53084 29.67267,20.95812 0.35127,1.65493 0.57684,3.3433 0.67404,5.04521" />
      <path
         transform="matrix(0.661259,0.342842,-0.772289,0.293688,338.3146,-333.0007)"
         style="fill:black;fill-opacity:1;fill-rule:evenodd;stroke:black;stroke-width:1pt;stroke-linecap:butt;stroke-linejoin:miter;stroke-opacity:1"
         sodipodi:type="arc"
         sodipodi:start="5.2106964"
         sodipodi:ry="66.939857"
         sodipodi:rx="55.423325"
         sodipodi:open="true"
         sodipodi:end="7.3963458"
         sodipodi:cy="536.99725"
         sodipodi:cx="444.10638"
         id="path6527"
         d="m 470.59538,478.19777 c 26.88712,17.66935 36.82392,58.31862 22.19445,90.79268 -5.47211,12.14684 -13.92461,21.94871 -24.19584,28.05852" />
      <path
         transform="matrix(1.492101,0.2899,-1.267152,0.535786,187.5215,-444.9715)"
         style="fill:white;fill-opacity:1;fill-rule:evenodd;stroke:white;stroke-width:1pt;stroke-linecap:butt;stroke-linejoin:miter;stroke-opacity:1"
         sodipodi:type="arc"
         sodipodi:start="5.7273796"
         sodipodi:ry="66.939857"
         sodipodi:rx="55.423325"
         sodipodi:open="true"
         sodipodi:end="7.055892"
         sodipodi:cy="536.99725"
         sodipodi:cx="444.10638"
         id="path6528"
         d="m 491.18715,501.67792 c 13.448,26.15008 10.39598,60.0065 -7.39635,82.04843" />
      <path
         transform="matrix(-0.595957,-0.36637,0.823624,-0.263821,-237.2496,216.8936)"
         style="fill:black;fill-opacity:1;fill-rule:evenodd;stroke:black;stroke-width:1pt;stroke-linecap:butt;stroke-linejoin:miter;stroke-opacity:1"
         sodipodi:type="arc"
         sodipodi:start="5.2106964"
         sodipodi:ry="66.939857"
         sodipodi:rx="55.423325"
         sodipodi:open="true"
         sodipodi:end="7.3963458"
         sodipodi:cy="536.99725"
         sodipodi:cx="444.10638"
         id="path9014"
         d="m 470.59538,478.19777 c 26.88712,17.66935 36.82392,58.31862 22.19445,90.79268 -5.47211,12.14684 -13.92461,21.94871 -24.19584,28.05852" />
      <path
         transform="matrix(-1.498492,-0.308584,1.350923,-0.482342,-71.88542,316.5152)"
         style="fill:white;fill-opacity:1;fill-rule:evenodd;stroke:white;stroke-width:1pt;stroke-linecap:butt;stroke-linejoin:miter;stroke-opacity:1"
         sodipodi:type="arc"
         sodipodi:start="5.7273796"
         sodipodi:ry="66.939857"
         sodipodi:rx="55.423325"
         sodipodi:open="true"
         sodipodi:end="7.055892"
         sodipodi:cy="536.99725"
         sodipodi:cx="444.10638"
         id="path9015"
         d="m 491.18715,501.67792 c 13.448,26.15008 10.39598,60.0065 -7.39635,82.04843" />
    </g>
    <path
       sodipodi:type="arc"
       style="fill:#2b0000"
       id="path3018"
       sodipodi:cx="78.304428"
       sodipodi:cy="54.120224"
       sodipodi:rx="4.4115171"
       sodipodi:ry="4.8526688"
       d="m 82.715945,54.120224 a 4.4115171,4.8526688 0 1 1 -8.823034,0 4.4115171,4.8526688 0 1 1 8.823034,0 z"
       transform="matrix(1.0706738,0.50050832,-0.47669469,1.1241601,21.919071,-34.662219)" />
    <path
       transform="matrix(1.0706738,0.50050832,-0.47669469,1.1241601,5.3758826,-46.132163)"
       d="m 82.715945,54.120224 a 4.4115171,4.8526688 0 1 1 -8.823034,0 4.4115171,4.8526688 0 1 1 8.823034,0 z"
       sodipodi:ry="4.8526688"
       sodipodi:rx="4.4115171"
       sodipodi:cy="54.120224"
       sodipodi:cx="78.304428"
       id="path3020"
       style="fill:#2b0000"
       sodipodi:type="arc" />
  </g>
</svg>
