<?xml version="1.0" encoding="UTF-8" standalone="no"?>
<!-- Created with Inkscape (http://www.inkscape.org/) -->

<svg
   xmlns:dc="http://purl.org/dc/elements/1.1/"
   xmlns:cc="http://creativecommons.org/ns#"
   xmlns:rdf="http://www.w3.org/1999/02/22-rdf-syntax-ns#"
   xmlns:svg="http://www.w3.org/2000/svg"
   xmlns="http://www.w3.org/2000/svg"
   xmlns:sodipodi="http://sodipodi.sourceforge.net/DTD/sodipodi-0.dtd"
   xmlns:inkscape="http://www.inkscape.org/namespaces/inkscape"
   width="100"
   height="100"
   id="svg10790"
   sodipodi:version="0.32"
   inkscape:version="0.48.2 r9819"
   version="1.0"
   sodipodi:docname="sudoku.svg">
  <defs
     id="defs10792" />
  <sodipodi:namedview
     id="base"
     pagecolor="#ffffff"
     bordercolor="#666666"
     borderopacity="1.0"
     inkscape:pageopacity="0.0"
     inkscape:pageshadow="2"
     inkscape:zoom="4.9036492"
     inkscape:cx="63.536534"
     inkscape:cy="-15.281692"
     inkscape:document-units="px"
     inkscape:current-layer="layer1"
     height="100px"
     width="100px"
     inkscape:window-width="1022"
     inkscape:window-height="756"
     inkscape:window-x="216"
     inkscape:window-y="47"
     showgrid="false"
     inkscape:window-maximized="0" />
  <metadata
     id="metadata10795">
    <rdf:RDF>
      <cc:Work
         rdf:about="">
        <dc:format>image/svg+xml</dc:format>
        <dc:type
           rdf:resource="http://purl.org/dc/dcmitype/StillImage" />
      </cc:Work>
    </rdf:RDF>
  </metadata>
  <g
     inkscape:label="Calque 1"
     id="layer1"
     inkscape:groupmode="layer">
    <path
       style="fill:#000000;fill-opacity:1;fill-rule:evenodd;stroke:none"
       d="M 48.10979,2.840531 24.507673,3.228035 11.121398,4.6488831 6.5418834,9.4926826 c 0,0 0.80178,6.4421174 1.601229,11.8834574 0.799449,5.44134 -1.793376,11.981508 -1.793377,12.787633 0,0.806125 0.39201,13.411313 0.192148,14.822029 -0.199862,1.410718 -0.193313,20.95208 -0.992762,22.765862 -0.799449,1.81378 -0.553299,14.969102 -1.152885,16.178293 -0.599587,1.209187 3.106384,5.6511 3.106384,5.6511 0,0 5.1262656,4.076568 6.7251626,3.875038 1.598897,-0.20153 11.966429,-0.85514 15.563946,-0.45209 3.597519,0.40307 15.737614,-0.51667 19.534995,-0.51667 3.797381,0 28.440161,1.33175 30.039061,1.13022 1.59889,-0.20153 9.70461,-3.278226 10.50406,-3.681286 0.79945,-0.403062 3.81093,-6.264652 3.81092,-6.264648 l 1.18491,-9.461557 0.60847,-14.692861 1.60123,-15.532453 -0.19215,-21.571057 -0.22417,-10.462609 c 0,0 -2.99488,-6.8638144 -3.3946,-8.0730004 -0.39973,-1.209187 -3.39461,-3.4229525 -3.39461,-3.4229525 0,0 -11.17891,0 -12.77781,0 -1.5989,0 -20.39966,0.1937522 -20.39966,0.193752 L 48.10979,2.840531 z m 0.320246,3.6812886 7.781969,1.679184 c 0,-10e-7 17.05903,-0.193752 18.51021,-0.193752 1.45119,-10e-7 11.62493,0 11.62493,0 -1e-5,-10e-7 2.71156,2.0495174 3.07436,3.1646164 0.36279,1.115097 3.07436,7.459452 3.07436,7.459452 l 0.19214,9.655309 0.19215,19.891873 -1.47313,14.305357 -0.54442,13.562641 -1.08883,8.71884 c -1e-5,-3e-6 -2.70104,5.408571 -3.42663,5.780269 -0.7256,0.371699 -8.09215,3.204811 -9.54333,3.39066 -1.45119,0.185852 -23.806358,-1.033344 -27.252918,-1.033344 -3.446562,3e-6 -14.476455,0.823787 -17.741619,0.452088 -3.265163,-0.371696 -12.671655,0.233947 -14.12284,0.419796 -1.451184,0.185846 -6.084671,-3.55212 -6.084671,-3.55212 0,-10e-7 -3.3943816,-4.116206 -2.8501876,-5.231305 0.544194,-1.115096 0.299195,-13.213966 1.024787,-14.886612 0.7255906,-1.672647 0.7473146,-19.721147 0.9287116,-21.022094 0.181398,-1.300946 -0.160122,-12.916119 -0.160122,-13.659517 0,-0.743399 2.32682,-6.768643 1.601229,-11.786581 C 11.420593,18.618643 10.705078,12.6573 10.705078,12.6573 l 4.163196,-4.4562964 12.169341,-1.29168 21.392421,-0.387504 z"
       id="path28146"
       inkscape:connector-curvature="0" />
    <path
       style="fill:black;fill-opacity:1;fill-rule:evenodd;stroke:none;stroke-width:1px;stroke-linecap:butt;stroke-linejoin:miter;stroke-opacity:1"
       d="M 34.056269,2.3176452 L 37.115216,2.3176452 L 35.483777,27.604936 L 36.095567,50.445069 L 36.299497,88.376004 L 36.707356,98.164633 L 33.852339,98.164633 L 32.832691,84.909198 L 33.64841,68.798747 L 33.03662,47.997912 L 32.628761,14.553431 L 34.056269,2.3176452 z "
       id="path29036" />
    <path
       style="fill:black;fill-opacity:1;fill-rule:evenodd;stroke:none;stroke-width:1px;stroke-linecap:butt;stroke-linejoin:miter;stroke-opacity:1"
       d="M 96.458777,35.150335 L 96.458777,38.209282 L 71.171487,36.577843 L 48.331353,37.189633 L 10.400418,37.393563 L 0.61178869,37.801422 L 0.61178869,34.946405 L 13.867224,33.926757 L 29.977676,34.742476 L 50.77851,34.130686 L 84.222992,33.722827 L 96.458777,35.150335 z "
       id="path29923" />
    <path
       inkscape:connector-curvature="0"
       style="font-size:36px;font-style:normal;font-variant:normal;font-weight:normal;font-stretch:normal;text-align:start;line-height:100%;writing-mode:lr-tb;text-anchor:start;fill:#800000;fill-opacity:1;stroke:none;font-family:Indigo Joker"
       d="m 88.642495,54.123562 c -2e-5,-0.04664 -0.009,0.101053 -0.0277,0.443067 -0.0185,0.513028 -0.037,1.39139 -0.0555,2.635088 -0.037,0.466386 -0.0925,1.103781 -0.16644,1.912188 -2e-5,0.310922 -0.074,0.761762 -0.22193,1.352523 -0.0555,0.108819 -0.54557,0.202097 -1.47023,0.279832 -0.73976,0.06218 -1.38703,0.09327 -1.94182,0.09328 l -9.43169,-0.139916 c -0.0555,-4e-6 -0.20344,-0.02333 -0.44385,-0.06996 -0.24042,-0.0311 -0.39761,-0.04664 -0.47158,-0.04664 -0.53632,-0.0311 -1.08187,-0.06219 -1.63668,-0.09328 -0.70275,-0.06219 -1.23906,-0.171013 -1.60893,-0.326471 -0.36987,-0.155466 -0.55481,-0.629625 -0.55481,-1.422481 0,-0.03109 0.0277,-0.3187 0.0832,-0.862816 0.074,-0.544119 0.12021,-0.940548 0.1387,-1.189288 0.037,-0.528571 0.0647,-1.057143 0.0832,-1.585716 0.0555,-0.730672 0.21268,-1.305882 0.47159,-1.725633 0,-0.171005 0.074,-0.396425 0.22192,-0.676261 0.12945,-0.124366 0.36062,-0.264283 0.69351,-0.419749 0.33288,-0.171004 0.5548,-0.295374 0.66576,-0.37311 -0.2959,-0.217642 -0.87844,-0.528567 -1.74763,-0.932774 -0.79523,-0.373104 -1.35928,-0.691801 -1.69216,-0.956094 -0.49932,-0.404195 -0.74899,-0.855035 -0.74899,-1.352523 0,0.06219 0.0462,-0.132135 0.13871,-0.582984 0.12945,-0.590748 0.48083,-1.554613 1.05413,-2.8916 0.59179,-1.35251 1.56269,-2.712805 2.91272,-4.080888 1.44249,-1.492422 2.79252,-2.394103 4.05008,-2.705046 0.22192,-0.09326 0.54555,-0.202083 0.97091,-0.326471 0.48082,-0.07771 1.07261,-0.116578 1.77538,-0.116597 1.49796,1.9e-5 2.86648,0.349809 4.10556,1.049371 1.23905,0.699598 2.02502,1.539094 2.35792,2.518491 0.31437,0.88615 0.47157,1.787831 0.47159,2.705046 -2e-5,1.212618 -0.34215,2.650644 -1.02639,4.314082 -0.61031,1.492445 -1.25758,2.619546 -1.94182,3.381307 -2e-5,0.108828 0.1017,0.16324 0.30514,0.163235 0.074,5e-6 0.60102,-0.04663 1.5812,-0.139916 0.99863,-0.108819 1.53494,-0.163231 1.60893,-0.163235 0.36985,4e-6 0.62876,0.03887 0.77673,0.116596 0.2219,0.108829 0.40684,0.458619 0.5548,1.049372 0.11095,0.46639 0.16643,0.855045 0.16645,1.165968 m -1.91408,1.609035 c -2e-5,-0.06218 -0.0278,-0.209873 -0.0832,-0.443067 -0.037,-0.248739 -0.0647,-0.419747 -0.0832,-0.513026 -0.037,-0.279831 -0.14797,-0.474158 -0.33289,-0.582984 -0.16646,-0.124368 -0.4716,-0.186553 -0.91542,-0.186555 l -6.29705,0.816177 c -0.35138,-0.124368 -0.52707,-0.272057 -0.52706,-0.443067 -1e-5,-0.06218 0.32363,-0.365334 0.97091,-0.909455 0.75822,-0.637392 1.27604,-1.103779 1.55345,-1.399162 0.27739,-0.31092 0.61952,-0.753988 1.02639,-1.329204 0.68425,-0.932767 1.15583,-1.787809 1.41476,-2.565129 0.11094,-0.357555 0.23115,-0.948311 0.36062,-1.772272 0.12944,-0.730662 0.19417,-1.165956 0.19418,-1.305884 -1e-5,-0.855031 -0.21269,-1.671208 -0.63802,-2.448533 -0.53633,-0.994944 -1.29456,-1.60902 -2.27471,-1.842229 -0.49933,-0.124354 -1.17434,-0.186539 -2.02503,-0.186555 -0.11098,1.6e-5 -0.42537,0.04666 -0.94317,0.139916 -0.51783,0.09329 -0.79523,0.139932 -0.83221,0.139916 -1.1651,0.09329 -2.41341,0.730689 -3.74494,1.912188 -1.31304,1.181527 -2.00655,2.277536 -2.08052,3.28803 -0.0185,0.12438 -0.0925,0.380893 -0.22192,0.769539 -0.12946,0.388665 -0.19418,0.606312 -0.19418,0.652942 0,0.497488 0.037,0.792866 0.11096,0.886135 0.36987,0.435303 0.88768,0.785093 1.55345,1.049372 0.5733,0.217654 1.1466,0.435301 1.7199,0.652942 0.0555,-0.04663 0.11096,-0.101044 0.16644,-0.163236 0.20342,-1.29033 0.36987,-2.075414 0.49933,-2.355255 0.40685,-0.963857 0.77672,-1.624572 1.10961,-1.982146 0.48082,-0.481922 1.13734,-0.722888 1.96956,-0.7229 0.83219,1.2e-5 1.44248,0.443079 1.83085,1.329204 0.2589,0.590766 0.38836,1.235935 0.38837,1.935506 -1e-5,0.932783 -0.1757,1.640136 -0.52707,2.122062 -0.14796,0.186562 -0.69351,0.559671 -1.63667,1.119329 -0.42536,0.295384 -1.06339,0.668493 -1.91408,1.11933 -0.64728,0.171012 -1.55346,0.435298 -2.71855,0.792858 -0.16644,0.06219 -0.34213,0.435297 -0.52706,1.119329 -0.18494,0.684036 -0.27741,1.2437 -0.27741,1.678994 l 0,2.215339 c 0.20343,0.171007 0.42535,0.256511 0.66577,0.256513 0.037,-2e-6 0.36062,-0.02332 0.97091,-0.06996 0.61028,-0.03109 1.01714,-0.05441 1.22057,-0.06996 0.46233,-2e-6 1.1281,0.0078 1.9973,0.02332 0.96165,0.01555 1.387,0.02332 1.27605,0.02332 1.47947,-2e-6 3.91137,-0.147691 7.29569,-0.443068 0.14793,-0.01555 0.26814,-0.342018 0.36063,-0.979413 0.0924,-0.513026 0.13868,-0.956093 0.1387,-1.329204"
       id="text29937" />
    <path
       inkscape:connector-curvature="0"
       style="font-size:36px;font-style:normal;font-variant:normal;font-weight:normal;font-stretch:normal;text-align:start;line-height:100%;writing-mode:lr-tb;text-anchor:start;fill:#ffff00;fill-opacity:1;stroke:none;font-family:Indigo Joker"
       d="m 57.224031,74.353513 c -2e-5,0.051 -0.0284,0.16984 -0.0851,0.35663 -0.0378,0.16983 -0.0662,0.2972 -0.0851,0.3821 -0.0379,0.90006 -0.24592,1.73219 -0.62421,2.49638 -0.28375,0.56042 -0.83231,1.35858 -1.64566,2.39449 0.30263,0.2887 0.67149,0.70476 1.10656,1.24819 0.66203,1.29065 0.99305,2.33505 0.99307,3.13321 -2e-5,1.2397 -0.49182,2.46242 -1.47541,3.66815 -0.24592,0.39059 -0.49183,0.78118 -0.73771,1.17177 -0.35941,0.56041 -0.78501,1.00195 -1.2768,1.32461 -1.02146,0.64532 -2.21314,1.11233 -3.57505,1.40104 -0.83229,0.16981 -1.47542,0.25472 -1.92939,0.25473 -1.83481,-1e-5 -3.42372,-0.49249 -4.76672,-1.47746 -1.53217,-1.12082 -2.39282,-2.64073 -2.58198,-4.55971 -0.0189,-0.0679 -0.0662,-0.1953 -0.14186,-0.3821 -0.0567,-0.20379 -0.0851,-0.33964 -0.0851,-0.40757 l 0,-2.54733 c -1e-5,-0.28869 0.17969,-0.6623 0.53909,-1.12083 0.0757,-0.10188 0.28373,-0.22925 0.62421,-0.38209 0.3594,-0.16982 0.64313,-0.25473 0.8512,-0.25474 0.0757,1e-5 0.13241,0.017 0.17024,0.051 0.0568,0.017 0.13241,0.0255 0.22699,0.0255 0.28373,1e-5 0.63367,-0.0509 1.04982,-0.15284 0.4918,-0.11887 0.8039,-0.24623 0.93632,-0.3821 0.1324,-0.13585 0.1986,-0.39058 0.19861,-0.76419 -1e-5,-0.3736 -0.22699,-0.68777 -0.68096,-0.94252 -0.85121,-0.50945 -2.0618,-0.78117 -3.63179,-0.81514 -0.0946,-0.017 -0.25536,-0.0934 -0.48235,-0.22926 -0.22699,-0.15283 -0.34048,-0.2802 -0.34048,-0.3821 0,-0.69626 0.0946,-1.69821 0.28374,-3.00585 0.0567,-0.11886 0.12295,-0.2717 0.19861,-0.45851 0.26482,-1.46046 1.22005,-2.980361 2.86571,-4.55972 0.26481,-0.13584 0.66204,-0.37359 1.19168,-0.713252 1.00252,-0.764179 2.1942,-1.256662 3.57504,-1.47745 0.0567,-0.01696 0.19861,-0.05942 0.4256,-0.127367 0.22698,-0.06791 0.37831,-0.101872 0.45398,-0.101893 1.21058,2.1e-5 2.40226,0.280226 3.57504,0.840618 0.43505,0.169841 1.06872,0.475521 1.90102,0.917038 1.98612,1.460485 2.97918,3.320036 2.9792,5.578646 m -2.52523,0.91704 c -1e-5,-1.44347 -0.5864,-2.68317 -1.75915,-3.719099 -1.17278,-1.052878 -2.61036,-1.579325 -4.31275,-1.579343 -0.49181,1.8e-5 -0.79446,0.0085 -0.90795,0.02547 -0.0946,0.017 -0.21753,0.05945 -0.36885,0.127366 -0.15133,0.05096 -0.25537,0.07644 -0.31211,0.07642 -0.92687,-0.01697 -1.87264,0.526464 -2.83733,1.630289 -0.7188,0.798177 -1.34301,1.774657 -1.87265,2.929427 -0.11349,0.22078 -0.23644,0.83214 -0.36885,1.83408 0.77554,0.22077 1.83481,0.53494 3.17782,0.94251 0.11348,-0.40757 0.23644,-0.80665 0.36885,-1.19725 0.15132,-0.4585 0.33102,-0.81513 0.53909,-1.06987 0.58638,-0.71324 1.28626,-1.06987 2.09963,-1.06988 0.71879,10e-6 1.32408,0.27173 1.8159,0.81514 0.43505,0.50948 0.65258,1.0614 0.65259,1.65577 -1e-5,1.90201 -0.6526,3.01434 -1.95777,3.33699 -0.39723,0.034 -0.785,0.0679 -1.1633,0.1019 -0.45399,0.0849 -0.6526,0.36512 -0.59584,0.84062 0.17023,0.13586 0.3783,0.23775 0.62421,0.30568 0.32156,0.0679 0.75661,0.1868 1.30517,0.35662 0.43505,0.18681 0.81336,0.53494 1.13494,1.04441 0.26481,0.44154 0.39722,0.79816 0.39723,1.06987 -10e-6,0.61136 -0.28375,1.16329 -0.8512,1.65577 -0.54857,0.4755 -1.17278,0.71325 -1.87265,0.71325 -0.73771,0 -1.35247,-0.30568 -1.84427,-0.91704 -0.30265,-0.37361 -0.45398,-0.81514 -0.45397,-1.32461 -10e-6,-0.22077 0.0284,-0.44153 0.0851,-0.66231 0.0567,-0.20378 0.0189,-0.34813 -0.11349,-0.43304 -0.13242,0 -0.34995,-0.008 -0.65259,-0.0255 -0.30265,-0.034 -0.48235,-0.0509 -0.53909,-0.051 -0.4729,0 -0.87012,0.0594 -1.19169,0.17831 -0.18915,0.0849 -0.36885,0.3821 -0.53909,0.89157 -0.17024,0.49248 -0.25536,0.87458 -0.25536,1.14629 0,0.61136 0.27427,1.31612 0.82283,2.11429 0.18915,0.27171 0.46343,0.61135 0.82283,1.01893 0.85119,0.62834 2.05233,0.94251 3.60341,0.94251 0.0189,0 0.42559,-0.0425 1.22006,-0.12737 0.68095,-0.0679 1.05926,-0.10189 1.13493,-0.10189 0.43505,-0.0849 0.87011,-0.20379 1.30518,-0.35663 1.05926,-0.39059 1.7213,-0.77269 1.98613,-1.1463 0.77553,-1.10384 1.1633,-2.15673 1.16331,-3.15868 -1e-5,-1.29064 -0.30266,-2.25014 -0.90795,-2.87848 -0.17025,-0.16982 -0.44453,-0.39059 -0.82282,-0.66231 -0.30267,-0.20378 -0.45399,-0.33963 -0.45398,-0.40757 -1e-5,-0.0679 0.0756,-0.1868 0.22699,-0.35662 0.15131,-0.16982 0.23643,-0.27171 0.25536,-0.30568 0.45396,-0.59437 0.89847,-1.18026 1.33355,-1.75766 0.58636,-0.81513 0.87956,-1.63028 0.87957,-2.44543"
       id="text29941" />
    <path
       style="fill:black;fill-opacity:1;fill-rule:evenodd;stroke:none;stroke-width:1px;stroke-linecap:butt;stroke-linejoin:miter;stroke-opacity:1"
       d="M 63.014295,1.5019259 L 66.073242,1.5019259 L 64.441803,26.789216 L 65.053593,49.629349 L 65.257523,87.560284 L 65.665382,97.348913 L 62.810365,97.348913 L 61.790717,84.093478 L 62.606436,67.983027 L 61.994646,47.182192 L 61.586787,13.737711 L 63.014295,1.5019259 z "
       id="path3535" />
    <path
       style="fill:black;fill-opacity:1;fill-rule:evenodd;stroke:none;stroke-width:1px;stroke-linecap:butt;stroke-linejoin:miter;stroke-opacity:1"
       d="M 96.866635,64.924081 L 96.866635,67.983028 L 71.579345,66.351589 L 48.739211,66.963379 L 10.808277,67.167309 L 1.0196477,67.575168 L 1.0196477,64.720151 L 14.275082,63.700503 L 30.385535,64.516222 L 51.186368,63.904432 L 84.63085,63.496573 L 96.866635,64.924081 z "
       id="path3537" />
    <path
       inkscape:connector-curvature="0"
       style="fill:#85c751;fill-opacity:1;fill-rule:evenodd;stroke:#000000;stroke-width:0.65816462px;stroke-linecap:butt;stroke-linejoin:miter;stroke-opacity:1"
       d="m 23.61059,11.043043 -4.927423,2.687186 -1.548619,2.303303 1.407836,2.047379 2.111752,0.255922 -0.844701,6.14214 -3.238021,0.767767 -0.42235,5.11845 11.685032,-1.023691 1.407835,-4.22272 -3.941939,-1.02369 2.534104,-12.796124 -4.223506,-0.255922 z"
       id="path3541" />
  </g>
</svg>
