<?xml version="1.0" encoding="UTF-8" standalone="no"?>
<!-- Created with Inkscape (http://www.inkscape.org/) -->

<svg
   xmlns:dc="http://purl.org/dc/elements/1.1/"
   xmlns:cc="http://creativecommons.org/ns#"
   xmlns:rdf="http://www.w3.org/1999/02/22-rdf-syntax-ns#"
   xmlns:svg="http://www.w3.org/2000/svg"
   xmlns="http://www.w3.org/2000/svg"
   xmlns:xlink="http://www.w3.org/1999/xlink"
   xmlns:sodipodi="http://sodipodi.sourceforge.net/DTD/sodipodi-0.dtd"
   xmlns:inkscape="http://www.inkscape.org/namespaces/inkscape"
   width="800"
   height="520"
   id="svg2"
   sodipodi:version="0.32"
   inkscape:version="0.48.2 r9819"
   sodipodi:docname="watercycle.svg"
   inkscape:output_extension="org.inkscape.output.svgz.inkscape"
   version="1.0"
   style="display:inline;enable-background:new"
   inkscape:export-filename="/home/tef/Desktop/watercycle_preview_04.png"
   inkscape:export-xdpi="90"
   inkscape:export-ydpi="90">
  <defs
     id="defs4">
    <inkscape:perspective
       sodipodi:type="inkscape:persp3d"
       inkscape:vp_x="0 : 260 : 1"
       inkscape:vp_y="0 : 1000 : 0"
       inkscape:vp_z="800 : 260 : 1"
       inkscape:persp3d-origin="400 : 173.33333 : 1"
       id="perspective5750" />
    <linearGradient
       inkscape:collect="always"
       id="linearGradient7115">
      <stop
         style="stop-color:#deaa87;stop-opacity:1;"
         offset="0"
         id="stop7117" />
      <stop
         style="stop-color:#deaa87;stop-opacity:0;"
         offset="1"
         id="stop7119" />
    </linearGradient>
    <linearGradient
       id="linearGradient15760">
      <stop
         id="stop15762"
         offset="0"
         style="stop-color:#00aa00;stop-opacity:1;" />
      <stop
         style="stop-color:#008e00;stop-opacity:1;"
         offset="0.47496903"
         id="stop15764" />
      <stop
         id="stop15766"
         offset="1"
         style="stop-color:#007300;stop-opacity:1;" />
    </linearGradient>
    <linearGradient
       id="linearGradient18703">
      <stop
         style="stop-color:#848484;stop-opacity:1;"
         offset="0"
         id="stop18705" />
      <stop
         style="stop-color:#6d6d6d;stop-opacity:1;"
         offset="1"
         id="stop18707" />
    </linearGradient>
    <linearGradient
       id="linearGradient18687">
      <stop
         style="stop-color:#cccccc;stop-opacity:1;"
         offset="0"
         id="stop18689" />
      <stop
         style="stop-color:#8a8a8a;stop-opacity:1;"
         offset="1"
         id="stop18691" />
    </linearGradient>
    <linearGradient
       id="linearGradient18679">
      <stop
         style="stop-color:#92c5ff;stop-opacity:1;"
         offset="0"
         id="stop18681" />
      <stop
         style="stop-color:#4398ff;stop-opacity:1;"
         offset="1"
         id="stop18683" />
    </linearGradient>
    <linearGradient
       inkscape:collect="always"
       xlink:href="#linearGradient18679"
       id="linearGradient7278"
       gradientUnits="userSpaceOnUse"
       x1="430.728"
       y1="87.738113"
       x2="430.728"
       y2="-0.89821374"
       gradientTransform="matrix(0.9972093,0,0,0.9886998,1.3399729,21.538087)" />
    <linearGradient
       inkscape:collect="always"
       xlink:href="#linearGradient7115"
       id="linearGradient7280"
       gradientUnits="userSpaceOnUse"
       x1="574.89532"
       y1="674.24615"
       x2="574.89532"
       y2="683.6665" />
    <linearGradient
       inkscape:collect="always"
       xlink:href="#linearGradient15760"
       id="linearGradient7350"
       gradientUnits="userSpaceOnUse"
       x1="190.3918"
       y1="222.07539"
       x2="821.79773"
       y2="263.08762" />
    <radialGradient
       inkscape:collect="always"
       xlink:href="#linearGradient18687"
       id="radialGradient7457"
       gradientUnits="userSpaceOnUse"
       gradientTransform="matrix(0.8023362,0.3102283,-0.3276306,0.8473435,134.23176,-1061.139)"
       cx="340.19864"
       cy="93.756691"
       fx="340.19864"
       fy="93.756691"
       r="168.61659" />
    <linearGradient
       inkscape:collect="always"
       xlink:href="#linearGradient18687"
       id="linearGradient7459"
       gradientUnits="userSpaceOnUse"
       gradientTransform="translate(0,-960)"
       x1="216.56773"
       y1="86.94973"
       x2="253.94122"
       y2="162.94974" />
    <radialGradient
       inkscape:collect="always"
       xlink:href="#linearGradient18687"
       id="radialGradient8268"
       gradientUnits="userSpaceOnUse"
       gradientTransform="matrix(0.8023362,0.3102283,-0.3276306,0.8473435,134.23176,-81.13896)"
       cx="340.19864"
       cy="93.756691"
       fx="340.19864"
       fy="93.756691"
       r="168.61659" />
    <linearGradient
       inkscape:collect="always"
       xlink:href="#linearGradient18687"
       id="linearGradient8284"
       gradientUnits="userSpaceOnUse"
       gradientTransform="translate(0,20)"
       x1="216.56773"
       y1="86.94973"
       x2="253.94122"
       y2="162.94974" />
    <linearGradient
       inkscape:collect="always"
       xlink:href="#linearGradient18703"
       id="linearGradient9522"
       gradientUnits="userSpaceOnUse"
       gradientTransform="translate(0,20)"
       x1="833.66272"
       y1="236.70831"
       x2="559.94501"
       y2="119.30124" />
    <linearGradient
       inkscape:collect="always"
       xlink:href="#linearGradient7115"
       id="linearGradient3919"
       gradientUnits="userSpaceOnUse"
       x1="574.89532"
       y1="674.24615"
       x2="574.89532"
       y2="683.6665" />
    <linearGradient
       inkscape:collect="always"
       xlink:href="#linearGradient7115"
       id="linearGradient4001"
       gradientUnits="userSpaceOnUse"
       gradientTransform="matrix(0.6165256,0,0,0.6165256,358.73929,75.09851)"
       x1="574.89532"
       y1="674.24615"
       x2="574.89532"
       y2="683.6665" />
    <inkscape:perspective
       id="perspective4065"
       inkscape:persp3d-origin="0.5 : 0.33333333 : 1"
       inkscape:vp_z="1 : 0.5 : 1"
       inkscape:vp_y="0 : 1000 : 0"
       inkscape:vp_x="0 : 0.5 : 1"
       sodipodi:type="inkscape:persp3d" />
    <inkscape:perspective
       id="perspective4166"
       inkscape:persp3d-origin="0.5 : 0.33333333 : 1"
       inkscape:vp_z="1 : 0.5 : 1"
       inkscape:vp_y="0 : 1000 : 0"
       inkscape:vp_x="0 : 0.5 : 1"
       sodipodi:type="inkscape:persp3d" />
  </defs>
  <sodipodi:namedview
     id="base"
     pagecolor="#ffffff"
     bordercolor="#666666"
     borderopacity="1.0"
     inkscape:pageopacity="0.0"
     inkscape:pageshadow="2"
     inkscape:zoom="0.54565796"
     inkscape:cx="625.52994"
     inkscape:cy="253.54134"
     inkscape:document-units="px"
     inkscape:current-layer="FOREGROUND"
     showgrid="false"
     inkscape:window-width="1280"
     inkscape:window-height="752"
     inkscape:window-x="0"
     inkscape:window-y="0"
     showguides="true"
     inkscape:guide-bbox="true"
     borderlayer="true"
     inkscape:showpageshadow="false"
     inkscape:window-maximized="1" />
  <metadata
     id="metadata7">
    <rdf:RDF>
      <cc:Work
         rdf:about="">
        <dc:format>image/svg+xml</dc:format>
        <dc:type
           rdf:resource="http://purl.org/dc/dcmitype/StillImage" />
        <dc:title></dc:title>
        <dc:date>28/10/2008</dc:date>
        <dc:creator>
          <cc:Agent>
            <dc:title>Cabaraux Stéphane</dc:title>
          </cc:Agent>
        </dc:creator>
        <dc:rights>
          <cc:Agent>
            <dc:title>Cabaraux Stéphane</dc:title>
          </cc:Agent>
        </dc:rights>
        <dc:publisher>
          <cc:Agent>
            <dc:title>Gnurps</dc:title>
          </cc:Agent>
        </dc:publisher>
        <dc:identifier />
        <dc:relation />
        <dc:subject>
          <rdf:Bag>
            <rdf:li>gcompris</rdf:li>
            <rdf:li>watercycle</rdf:li>
          </rdf:Bag>
        </dc:subject>
        <cc:license
           rdf:resource="http://artlibre.org/licence.php/lalgb.html" />
      </cc:Work>
      <cc:License
         rdf:about="http://artlibre.org/licence.php/lalgb.html">
        <cc:permits
           rdf:resource="http://creativecommons.org/ns#Reproduction" />
        <cc:permits
           rdf:resource="http://creativecommons.org/ns#Distribution" />
        <cc:permits
           rdf:resource="http://creativecommons.org/ns#DerivativeWorks" />
        <cc:requires
           rdf:resource="http://creativecommons.org/ns#ShareAlike" />
        <cc:requires
           rdf:resource="http://creativecommons.org/ns#Notice" />
        <cc:requires
           rdf:resource="http://creativecommons.org/ns#Attribution" />
      </cc:License>
    </rdf:RDF>
  </metadata>
  <g
     inkscape:groupmode="layer"
     id="BACKGROUND"
     style="opacity:1;display:inline"
     inkscape:label="BACKGROUND">
    <g
       transform="translate(-1798.1411,-110.22771)"
       id="g6965" />
  </g>
  <g
     inkscape:groupmode="layer"
     id="layer5"
     inkscape:label="MISC"
     style="display:inline" />
  <g
     inkscape:groupmode="layer"
     id="layer4"
     inkscape:label="Cliquable"
     style="display:inline" />
  <g
     inkscape:groupmode="layer"
     id="FOREGROUND"
     inkscape:label="FOREGROUND"
     style="display:inline">
    <g
       style="display:inline;enable-background:new"
       id="g17478"
       transform="matrix(0.9099873,0,0,0.9099873,-85.990819,25.130066)" />
    <g
       style="fill:#d38d5f;fill-opacity:1;display:inline;enable-background:new"
       id="g15790"
       transform="matrix(0.3831471,0,0,0.2692464,341.1036,397.78251)">
      <g
         id="g15802"
         transform="matrix(0.7886114,0,0,0.7886114,81.005046,47.197041)" />
      <g
         transform="matrix(-0.7886114,0,0,0.7886114,777.18677,47.197041)"
         id="g15874"
         inkscape:transform-center-x="-10.783377" />
    </g>
    <g
       transform="translate(840,-520)"
       id="g7437"
       style="display:inline;enable-background:new" />
    <g
       id="g4237"
       transform="translate(-1053.7737,40.318057)">
      <g
         transform="translate(1053.7737,-40.318297)"
         id="RIVERWATER"
         style="display:inline;enable-background:new">
        <g
           id="g8239">
          <g
             transform="translate(0,30)"
             id="g17646"
             style="display:inline;enable-background:new">
            <path
               inkscape:connector-curvature="0"
               sodipodi:nodetypes="cssccssscc"
               id="path7898"
               d="m 324.63024,92.57156 c 0,0 -4.28553,-0.0392 -17.72056,4.2034 -13.43503,4.2426 -15.55635,-12.0208 -9.19239,-14.8492 6.36396,-2.8285 98.35287,-18.645248 98.35287,-18.645248 l 0.53033,-1.2374 c 0,0 -96.23155,14.048948 -101.35807,16.877348 -5.12653,2.8285 -9.01562,11.137 -5.30331,14.4957 3.71232,3.3588 3.53554,12.3744 15.55635,9.546 12.02082,-2.8285 10.84925,-3.4106 10.84925,-3.4106 l 8.28553,-6.98 z"
               style="fill:#0099ff;fill-opacity:1;fill-rule:evenodd;stroke:#000000;stroke-width:1px;stroke-linecap:butt;stroke-linejoin:miter;stroke-opacity:1;display:inline;enable-background:new" />
          </g>
          <g
             transform="translate(840,0)"
             id="g7564"
             style="display:inline;enable-background:new">
            <path
               inkscape:connector-curvature="0"
               id="path7439"
               d="m -539.9375,150.03125 -15.09375,9.8125 c -10e-6,1e-5 -2.50018,2.50004 -2,7 0.48749,4.38576 -0.89667,18.99933 -0.96875,19.75 -9.05031,1.0152 -21.82738,2.14679 -26.46875,2.65625 -4.3457,-0.9043 -9.03504,-1.77035 -13.46875,-0.0312 -7.98947,3.1917 -16.48999,7.00845 -25.3125,4.40625 -4.77738,-2.13481 -9.82403,-1.80391 -14.90625,-1.59375 -2.9278,3.0211 -4.35433,6.06357 0.59375,8.8125 9,5 25,2 34,3 8.99997,1 37,18 44,31 7.00001,13 -1,32 -3,38 -1.99999,6 -39.00003,32 -42,46 -3,14 68,32 97,28 29.00001,-4 72,31 86,54 14.00001,23 80,50 94,54 14.00001,4 19.5,19 19.5,19 l 36,-12 c 10e-6,0 -25.5,-20 -38.5,-25 -12.99999,-5 -66,-26 -79,-39 -12.99999,-13 -63,-55 -92,-62 -28.99999,-7 -37,6 -95,-12 10e-6,0 -12,-2 -7,-10 5.00001,-8 37,-36 38,-50 1.00001,-14 1,-31 -2,-37 -2.99999,-6 1,-16 11,-19 10.00001,-3 22,5 35,-5 13.00001,-10 9,-7 16,-11 3.1607,-1.80611 4.6934,-5.02787 4.5,-8.03125 -6.26431,1.14937 -12.52204,2.28997 -18.78125,3.4375 -17.3565,2.3487 -35.73086,12.42056 -52.78125,4.15625 -2.3173,-1.8094 1.35339,-5.49276 1.5625,-7.78125 3.6764,-6.5537 0.0818,-14.41704 2.125,-21.21875 3.19219,-3.94429 6.10603,-8.14291 9,-12.375 z"
               style="fill:#0099ff;fill-opacity:1;fill-rule:evenodd;stroke:#000000;stroke-width:1;stroke-linecap:round;stroke-linejoin:round;stroke-miterlimit:4;stroke-opacity:1;stroke-dasharray:none;display:inline;enable-background:new" />
            <path
               inkscape:connector-curvature="0"
               sodipodi:nodetypes="ccccccccccccccccccccccccc"
               id="path6945"
               d="m -589.21997,195.39636 c -12.53007,0.5174 -30.65247,2.0294 -44.96877,1.0625 13.2696,10.9539 34.04697,-2.7126 47.64387,8.0371 12.7863,6.8817 24.3762,15.6458 32.9653,27.3517 1.4472,0.3991 -0.8834,-6.4764 -0.828,-9.2638 -0.3369,-14.8246 16.9765,-25.2615 30.5313,-20.75 9.1917,1.2729 18.9641,-1.5617 24.875,-8.9062 4.8655,-2.9841 9.4872,0.5599 11.9687,-5.2188 -16.8514,1.0707 -36.5202,13.3453 -53.7187,9 -6.2863,-2.5538 -7.2659,0.9784 -11.875,-4.0312 -6.1711,-3.0711 -1.0168,3.3364 -1.6536,-29.6146 -0.8736,31.8424 -1.5723,27.5421 -34.9401,32.3333 z m -4.4688,116.7813 c -4.7345,3.3221 -4.8742,11.6334 1.875,11.875 4.0855,-1.7716 -0.3971,-6.5752 1.6875,-9.7813 1.0422,-3.2211 -1.5639,-3.855 -3.5625,-2.0937 z m 140.625,48.3437 c 18.4053,11.5599 30.2383,30.0007 44.6562,45.75 21.1718,18.3719 47.6165,29.0207 73.3454,39.4061 11.5886,4.0172 24.6041,9.1602 30.1546,21.0626 4.946,-3.623 13.1935,-2.0323 16.5938,-7.5625 0.2822,-4.4337 -6.1154,-5.5906 -8.9375,-8.1875 -32.4032,-19.3446 -71.6952,-26.2271 -100.2043,-52.0169 -16.7236,-15.2843 -34.1688,-29.8056 -53.4207,-41.7955 -5.1838,-0.7619 -5.0706,-1.3173 -2.1875,3.3437 z"
               style="opacity:0.25;fill:#00ffff;fill-opacity:1;fill-rule:evenodd;stroke:none" />
            <rect
               transform="matrix(0.989167,0.1467948,-0.03212851,0.9994837,0,0)"
               ry="3.6697249"
               rx="0.54438299"
               y="245.61694"
               x="-550.0235"
               height="21.335213"
               width="0.35204256"
               id="rect7466"
               style="fill:#00b2ff;fill-opacity:1;stroke:none;display:inline;enable-background:new" />
          </g>
        </g>
        <path
           inkscape:connector-curvature="0"
           sodipodi:nodetypes="ccccc"
           id="rect8273"
           d="m 531.30195,469.90805 33.89951,-9.3305 4.55341,4.85819 -36.02451,13.3305 -2.42841,-8.85819 z"
           inkscape:transform-center-y="6.816054"
           inkscape:transform-center-x="2.7894032"
           style="fill:#0099ff;fill-opacity:1;stroke:none;display:inline;enable-background:new" />
      </g>
      <rect
         style="fill:#9c582b;fill-opacity:1;stroke:#000000;stroke-width:1.03045142;stroke-linecap:round;stroke-linejoin:round;stroke-miterlimit:4;stroke-opacity:1;stroke-dasharray:none;stroke-dashoffset:0;display:inline;enable-background:new"
         id="rect21517"
         width="43.565655"
         height="14.521885"
         x="1006.5158"
         y="-591.13306"
         transform="matrix(0.81739107,0.57608318,-0.81739107,0.57608318,0,0)" />
    </g>
  </g>
  <g
     inkscape:groupmode="layer"
     id="layer1"
     inkscape:label="FOREGROUND2"
     style="display:inline" />
</svg>
