<?xml version="1.0" encoding="UTF-8" standalone="no"?>
<!-- Created with Inkscape (http://www.inkscape.org/) -->

<svg
   xmlns:dc="http://purl.org/dc/elements/1.1/"
   xmlns:cc="http://creativecommons.org/ns#"
   xmlns:rdf="http://www.w3.org/1999/02/22-rdf-syntax-ns#"
   xmlns:svg="http://www.w3.org/2000/svg"
   xmlns="http://www.w3.org/2000/svg"
   xmlns:sodipodi="http://sodipodi.sourceforge.net/DTD/sodipodi-0.dtd"
   xmlns:inkscape="http://www.inkscape.org/namespaces/inkscape"
   version="1.0"
   width="620"
   height="690.85712"
   id="svg2"
   inkscape:version="0.48.2 r9819"
   sodipodi:docname="Chinese_checkers_start.svg">
  <metadata
     id="metadata129">
    <rdf:RDF>
      <cc:Work
         rdf:about="">
        <dc:format>image/svg+xml</dc:format>
        <dc:type
           rdf:resource="http://purl.org/dc/dcmitype/StillImage" />
      </cc:Work>
    </rdf:RDF>
  </metadata>
  <sodipodi:namedview
     pagecolor="#ffffff"
     bordercolor="#666666"
     borderopacity="1"
     objecttolerance="10"
     gridtolerance="10"
     guidetolerance="10"
     inkscape:pageopacity="0"
     inkscape:pageshadow="2"
     inkscape:window-width="1123"
     inkscape:window-height="754"
     id="namedview127"
     showgrid="false"
     inkscape:zoom="0.68320929"
     inkscape:cx="302.12791"
     inkscape:cy="373.83024"
     inkscape:window-x="81"
     inkscape:window-y="1"
     inkscape:window-maximized="0"
     inkscape:current-layer="layer1" />
  <defs
     id="defs4" />
  <g
     transform="translate(-21.428558,-15.505044)"
     id="layer1">
    <path
       d="M 312.74106,24.505044 L 227.27231,176.34879 L 53.053558,174.41129 L 32.928558,209.28629 L 121.67856,359.22379 L 32.928558,509.13004 L 53.053558,544.00504 L 227.27231,542.09879 L 312.74106,693.94254 L 352.99106,693.94254 L 438.42856,542.09879 L 612.67856,544.00504 L 632.80356,509.13004 L 544.02231,359.22379 L 632.80356,209.31754 L 612.64731,174.41129 L 438.42856,176.34879 L 352.99106,24.505044 L 312.74106,24.505044 z "
       style="opacity:1;fill:#000000;fill-opacity:1;stroke:none;stroke-width:2.5;stroke-linejoin:round;stroke-miterlimit:4;stroke-dasharray:none;stroke-opacity:1"
       id="path2221" />
    <g
       id="g3128">
      <path
         inkscape:connector-curvature="0"
         id="path3105"
         d="m 355.14767,669.03831 c 0,10.91297 -8.84671,19.75969 -19.75968,19.75969 -10.91298,0 -19.75969,-8.84672 -19.75969,-19.75969 0,-10.91297 8.84671,-19.75968 19.75969,-19.75968 10.52428,0 19.20172,8.24884 19.73435,18.75963"
         style="fill:#ff0000;fill-opacity:1;stroke:none" />
      <path
         inkscape:connector-curvature="0"
         id="path3110"
         d="m 377.10287,629.51894 c 0,10.91297 -8.84671,19.75969 -19.75968,19.75969 -10.91298,0 -19.75969,-8.84672 -19.75969,-19.75969 0,-10.91297 8.84671,-19.75968 19.75969,-19.75968 10.52428,0 19.20172,8.24884 19.73435,18.75963"
         style="fill:#ff0000;fill-opacity:1;stroke:none" />
      <path
         inkscape:connector-curvature="0"
         id="path3112"
         d="m 330.2651,629.51894 c 0,10.91297 -8.84671,19.75969 -19.75968,19.75969 -10.91298,0 -19.75969,-8.84672 -19.75969,-19.75969 0,-10.91297 8.84671,-19.75968 19.75969,-19.75968 10.52428,0 19.20172,8.24884 19.73435,18.75963"
         style="fill:#ff0000;fill-opacity:1;stroke:none" />
      <path
         inkscape:connector-curvature="0"
         id="path3114"
         d="m 399.05807,591.46326 c 0,10.91297 -8.84671,19.75969 -19.75968,19.75969 -10.91298,0 -19.75969,-8.84672 -19.75969,-19.75969 0,-10.91297 8.84671,-19.75968 19.75969,-19.75968 10.52428,0 19.20172,8.24884 19.73435,18.75963"
         style="fill:#ff0000;fill-opacity:1;stroke:none" />
      <path
         inkscape:connector-curvature="0"
         id="path3116"
         d="m 352.2203,589.99958 c 0,10.91297 -8.84671,19.75969 -19.75968,19.75969 -10.91298,0 -19.75969,-8.84672 -19.75969,-19.75969 0,-10.91297 8.84671,-19.75968 19.75969,-19.75968 10.52428,0 19.20172,8.24884 19.73435,18.75963"
         style="fill:#ff0000;fill-opacity:1;stroke:none" />
      <path
         inkscape:connector-curvature="0"
         id="path3118"
         d="m 307.38253,591.99958 c 0,10.91297 -8.84671,19.75969 -19.75968,19.75969 -10.91298,0 -19.75969,-8.84672 -19.75969,-19.75969 0,-10.91297 8.84671,-19.75968 19.75969,-19.75968 10.52428,0 19.20172,8.24884 19.73435,18.75963"
         style="fill:#ff0000;fill-opacity:1;stroke:none" />
      <path
         inkscape:connector-curvature="0"
         id="path3120"
         d="m 287.81837,553.40757 c 0,10.91297 -8.84671,19.75969 -19.75968,19.75969 -10.91298,0 -19.75969,-8.84672 -19.75969,-19.75969 0,-10.91297 8.84671,-19.75968 19.75969,-19.75968 10.52428,0 19.20172,8.24884 19.73435,18.75963"
         style="fill:#ff0000;fill-opacity:1;stroke:none" />
      <path
         inkscape:connector-curvature="0"
         id="path3122"
         d="m 330.2651,551.94389 c 0,10.91297 -8.84671,19.75969 -19.75968,19.75969 -10.91298,0 -19.75969,-8.84672 -19.75969,-19.75969 0,-10.91297 8.84671,-19.75968 19.75969,-19.75968 10.52428,0 19.20172,8.24884 19.73435,18.75963"
         style="fill:#ff0000;fill-opacity:1;stroke:none" />
      <path
         inkscape:connector-curvature="0"
         id="path3124"
         d="m 377.10287,553.40757 c 0,10.91297 -8.84671,19.75969 -19.75968,19.75969 -10.91298,0 -19.75969,-8.84672 -19.75969,-19.75969 0,-10.91297 8.84671,-19.75968 19.75969,-19.75968 10.52428,0 19.20172,8.24884 19.73435,18.75963"
         style="fill:#ff0000;fill-opacity:1;stroke:none" />
      <path
         inkscape:connector-curvature="0"
         id="path3126"
         d="m 423.94064,553.40757 c 0,10.91297 -8.84671,19.75969 -19.75968,19.75969 -10.91298,0 -19.75969,-8.84672 -19.75969,-19.75969 0,-10.91297 8.84671,-19.75968 19.75969,-19.75968 10.52428,0 19.20172,8.24884 19.73435,18.75963"
         style="fill:#ff0000;fill-opacity:1;stroke:none" />
    </g>
    <g
       id="g3140"
       transform="matrix(0.5,-0.8660254,0.8660254,0.5,-547.99198,470.45734)"
       style="fill:#ff00ff">
      <path
         style="fill:#ff00ff;fill-opacity:1;stroke:none"
         d="m 355.14767,669.03831 c 0,10.91297 -8.84671,19.75969 -19.75968,19.75969 -10.91298,0 -19.75969,-8.84672 -19.75969,-19.75969 0,-10.91297 8.84671,-19.75968 19.75969,-19.75968 10.52428,0 19.20172,8.24884 19.73435,18.75963"
         id="path3142"
         inkscape:connector-curvature="0" />
      <path
         style="fill:#ff00ff;fill-opacity:1;stroke:none"
         d="m 377.10287,629.51894 c 0,10.91297 -8.84671,19.75969 -19.75968,19.75969 -10.91298,0 -19.75969,-8.84672 -19.75969,-19.75969 0,-10.91297 8.84671,-19.75968 19.75969,-19.75968 10.52428,0 19.20172,8.24884 19.73435,18.75963"
         id="path3144"
         inkscape:connector-curvature="0" />
      <path
         style="fill:#ff00ff;fill-opacity:1;stroke:none"
         d="m 330.2651,629.51894 c 0,10.91297 -8.84671,19.75969 -19.75968,19.75969 -10.91298,0 -19.75969,-8.84672 -19.75969,-19.75969 0,-10.91297 8.84671,-19.75968 19.75969,-19.75968 10.52428,0 19.20172,8.24884 19.73435,18.75963"
         id="path3146"
         inkscape:connector-curvature="0" />
      <path
         style="fill:#ff00ff;fill-opacity:1;stroke:none"
         d="m 399.05807,591.46326 c 0,10.91297 -8.84671,19.75969 -19.75968,19.75969 -10.91298,0 -19.75969,-8.84672 -19.75969,-19.75969 0,-10.91297 8.84671,-19.75968 19.75969,-19.75968 10.52428,0 19.20172,8.24884 19.73435,18.75963"
         id="path3148"
         inkscape:connector-curvature="0" />
      <path
         style="fill:#ff00ff;fill-opacity:1;stroke:none"
         d="m 352.2203,589.99958 c 0,10.91297 -8.84671,19.75969 -19.75968,19.75969 -10.91298,0 -19.75969,-8.84672 -19.75969,-19.75969 0,-10.91297 8.84671,-19.75968 19.75969,-19.75968 10.52428,0 19.20172,8.24884 19.73435,18.75963"
         id="path3150"
         inkscape:connector-curvature="0" />
      <path
         style="fill:#ff00ff;fill-opacity:1;stroke:none"
         d="m 307.38253,591.99958 c 0,10.91297 -8.84671,19.75969 -19.75968,19.75969 -10.91298,0 -19.75969,-8.84672 -19.75969,-19.75969 0,-10.91297 8.84671,-19.75968 19.75969,-19.75968 10.52428,0 19.20172,8.24884 19.73435,18.75963"
         id="path3152"
         inkscape:connector-curvature="0" />
      <path
         style="fill:#ff00ff;fill-opacity:1;stroke:none"
         d="m 287.81837,553.40757 c 0,10.91297 -8.84671,19.75969 -19.75968,19.75969 -10.91298,0 -19.75969,-8.84672 -19.75969,-19.75969 0,-10.91297 8.84671,-19.75968 19.75969,-19.75968 10.52428,0 19.20172,8.24884 19.73435,18.75963"
         id="path3154"
         inkscape:connector-curvature="0" />
      <path
         style="fill:#ff00ff;fill-opacity:1;stroke:none"
         d="m 330.2651,551.94389 c 0,10.91297 -8.84671,19.75969 -19.75968,19.75969 -10.91298,0 -19.75969,-8.84672 -19.75969,-19.75969 0,-10.91297 8.84671,-19.75968 19.75969,-19.75968 10.52428,0 19.20172,8.24884 19.73435,18.75963"
         id="path3156"
         inkscape:connector-curvature="0" />
      <path
         style="fill:#ff00ff;fill-opacity:1;stroke:none"
         d="m 377.10287,553.40757 c 0,10.91297 -8.84671,19.75969 -19.75968,19.75969 -10.91298,0 -19.75969,-8.84672 -19.75969,-19.75969 0,-10.91297 8.84671,-19.75968 19.75969,-19.75968 10.52428,0 19.20172,8.24884 19.73435,18.75963"
         id="path3158"
         inkscape:connector-curvature="0" />
      <path
         style="fill:#ff00ff;fill-opacity:1;stroke:none"
         d="m 423.94064,553.40757 c 0,10.91297 -8.84671,19.75969 -19.75968,19.75969 -10.91298,0 -19.75969,-8.84672 -19.75969,-19.75969 0,-10.91297 8.84671,-19.75968 19.75969,-19.75968 10.52428,0 19.20172,8.24884 19.73435,18.75963"
         id="path3160"
         inkscape:connector-curvature="0" />
    </g>
    <g
       style="fill:#0000ff"
       transform="matrix(0.99862954,0.05233596,-0.05233596,0.99862954,-174.13519,-364.43499)"
       id="g3162">
      <path
         inkscape:connector-curvature="0"
         id="path3164"
         d="m 355.14767,669.03831 c 0,10.91297 -8.84671,19.75969 -19.75968,19.75969 -10.91298,0 -19.75969,-8.84672 -19.75969,-19.75969 0,-10.91297 8.84671,-19.75968 19.75969,-19.75968 10.52428,0 19.20172,8.24884 19.73435,18.75963"
         style="fill:#0000ff;fill-opacity:1;stroke:none" />
      <path
         inkscape:connector-curvature="0"
         id="path3166"
         d="m 377.10287,629.51894 c 0,10.91297 -8.84671,19.75969 -19.75968,19.75969 -10.91298,0 -19.75969,-8.84672 -19.75969,-19.75969 0,-10.91297 8.84671,-19.75968 19.75969,-19.75968 10.52428,0 19.20172,8.24884 19.73435,18.75963"
         style="fill:#0000ff;fill-opacity:1;stroke:none" />
      <path
         inkscape:connector-curvature="0"
         id="path3168"
         d="m 330.2651,629.51894 c 0,10.91297 -8.84671,19.75969 -19.75968,19.75969 -10.91298,0 -19.75969,-8.84672 -19.75969,-19.75969 0,-10.91297 8.84671,-19.75968 19.75969,-19.75968 10.52428,0 19.20172,8.24884 19.73435,18.75963"
         style="fill:#0000ff;fill-opacity:1;stroke:none" />
      <path
         inkscape:connector-curvature="0"
         id="path3170"
         d="m 399.05807,591.46326 c 0,10.91297 -8.84671,19.75969 -19.75968,19.75969 -10.91298,0 -19.75969,-8.84672 -19.75969,-19.75969 0,-10.91297 8.84671,-19.75968 19.75969,-19.75968 10.52428,0 19.20172,8.24884 19.73435,18.75963"
         style="fill:#0000ff;fill-opacity:1;stroke:none" />
      <path
         inkscape:connector-curvature="0"
         id="path3172"
         d="m 352.2203,589.99958 c 0,10.91297 -8.84671,19.75969 -19.75968,19.75969 -10.91298,0 -19.75969,-8.84672 -19.75969,-19.75969 0,-10.91297 8.84671,-19.75968 19.75969,-19.75968 10.52428,0 19.20172,8.24884 19.73435,18.75963"
         style="fill:#0000ff;fill-opacity:1;stroke:none" />
      <path
         inkscape:connector-curvature="0"
         id="path3174"
         d="m 307.38253,591.99958 c 0,10.91297 -8.84671,19.75969 -19.75968,19.75969 -10.91298,0 -19.75969,-8.84672 -19.75969,-19.75969 0,-10.91297 8.84671,-19.75968 19.75969,-19.75968 10.52428,0 19.20172,8.24884 19.73435,18.75963"
         style="fill:#0000ff;fill-opacity:1;stroke:none" />
      <path
         inkscape:connector-curvature="0"
         id="path3176"
         d="m 287.81837,553.40757 c 0,10.91297 -8.84671,19.75969 -19.75968,19.75969 -10.91298,0 -19.75969,-8.84672 -19.75969,-19.75969 0,-10.91297 8.84671,-19.75968 19.75969,-19.75968 10.52428,0 19.20172,8.24884 19.73435,18.75963"
         style="fill:#0000ff;fill-opacity:1;stroke:none" />
      <path
         inkscape:connector-curvature="0"
         id="path3178"
         d="m 330.2651,551.94389 c 0,10.91297 -8.84671,19.75969 -19.75968,19.75969 -10.91298,0 -19.75969,-8.84672 -19.75969,-19.75969 0,-10.91297 8.84671,-19.75968 19.75969,-19.75968 10.52428,0 19.20172,8.24884 19.73435,18.75963"
         style="fill:#0000ff;fill-opacity:1;stroke:none" />
      <path
         inkscape:connector-curvature="0"
         id="path3180"
         d="m 377.10287,553.40757 c 0,10.91297 -8.84671,19.75969 -19.75968,19.75969 -10.91298,0 -19.75969,-8.84672 -19.75969,-19.75969 0,-10.91297 8.84671,-19.75968 19.75969,-19.75968 10.52428,0 19.20172,8.24884 19.73435,18.75963"
         style="fill:#0000ff;fill-opacity:1;stroke:none" />
      <path
         inkscape:connector-curvature="0"
         id="path3182"
         d="m 423.94064,553.40757 c 0,10.91297 -8.84671,19.75969 -19.75968,19.75969 -10.91298,0 -19.75969,-8.84672 -19.75969,-19.75969 0,-10.91297 8.84671,-19.75968 19.75969,-19.75968 10.52428,0 19.20172,8.24884 19.73435,18.75963"
         style="fill:#0000ff;fill-opacity:1;stroke:none" />
    </g>
    <g
       id="g3184"
       transform="matrix(1,0,0,-1,-5.3184022,717.08513)"
       style="fill:#008000">
      <path
         style="fill:#008000;fill-opacity:1;stroke:none"
         d="m 355.14767,669.03831 c 0,10.91297 -8.84671,19.75969 -19.75968,19.75969 -10.91298,0 -19.75969,-8.84672 -19.75969,-19.75969 0,-10.91297 8.84671,-19.75968 19.75969,-19.75968 10.52428,0 19.20172,8.24884 19.73435,18.75963"
         id="path3186"
         inkscape:connector-curvature="0" />
      <path
         style="fill:#008000;fill-opacity:1;stroke:none"
         d="m 377.10287,629.51894 c 0,10.91297 -8.84671,19.75969 -19.75968,19.75969 -10.91298,0 -19.75969,-8.84672 -19.75969,-19.75969 0,-10.91297 8.84671,-19.75968 19.75969,-19.75968 10.52428,0 19.20172,8.24884 19.73435,18.75963"
         id="path3188"
         inkscape:connector-curvature="0" />
      <path
         style="fill:#008000;fill-opacity:1;stroke:none"
         d="m 330.2651,629.51894 c 0,10.91297 -8.84671,19.75969 -19.75968,19.75969 -10.91298,0 -19.75969,-8.84672 -19.75969,-19.75969 0,-10.91297 8.84671,-19.75968 19.75969,-19.75968 10.52428,0 19.20172,8.24884 19.73435,18.75963"
         id="path3190"
         inkscape:connector-curvature="0" />
      <path
         style="fill:#008000;fill-opacity:1;stroke:none"
         d="m 399.05807,591.46326 c 0,10.91297 -8.84671,19.75969 -19.75968,19.75969 -10.91298,0 -19.75969,-8.84672 -19.75969,-19.75969 0,-10.91297 8.84671,-19.75968 19.75969,-19.75968 10.52428,0 19.20172,8.24884 19.73435,18.75963"
         id="path3192"
         inkscape:connector-curvature="0" />
      <path
         style="fill:#008000;fill-opacity:1;stroke:none"
         d="m 352.2203,589.99958 c 0,10.91297 -8.84671,19.75969 -19.75968,19.75969 -10.91298,0 -19.75969,-8.84672 -19.75969,-19.75969 0,-10.91297 8.84671,-19.75968 19.75969,-19.75968 10.52428,0 19.20172,8.24884 19.73435,18.75963"
         id="path3194"
         inkscape:connector-curvature="0" />
      <path
         style="fill:#008000;fill-opacity:1;stroke:none"
         d="m 307.38253,591.99958 c 0,10.91297 -8.84671,19.75969 -19.75968,19.75969 -10.91298,0 -19.75969,-8.84672 -19.75969,-19.75969 0,-10.91297 8.84671,-19.75968 19.75969,-19.75968 10.52428,0 19.20172,8.24884 19.73435,18.75963"
         id="path3196"
         inkscape:connector-curvature="0" />
      <path
         style="fill:#008000;fill-opacity:1;stroke:none"
         d="m 287.81837,553.40757 c 0,10.91297 -8.84671,19.75969 -19.75968,19.75969 -10.91298,0 -19.75969,-8.84672 -19.75969,-19.75969 0,-10.91297 8.84671,-19.75968 19.75969,-19.75968 10.52428,0 19.20172,8.24884 19.73435,18.75963"
         id="path3198"
         inkscape:connector-curvature="0" />
      <path
         style="fill:#008000;fill-opacity:1;stroke:none"
         d="m 330.2651,551.94389 c 0,10.91297 -8.84671,19.75969 -19.75968,19.75969 -10.91298,0 -19.75969,-8.84672 -19.75969,-19.75969 0,-10.91297 8.84671,-19.75968 19.75969,-19.75968 10.52428,0 19.20172,8.24884 19.73435,18.75963"
         id="path3200"
         inkscape:connector-curvature="0" />
      <path
         style="fill:#008000;fill-opacity:1;stroke:none"
         d="m 377.10287,553.40757 c 0,10.91297 -8.84671,19.75969 -19.75968,19.75969 -10.91298,0 -19.75969,-8.84672 -19.75969,-19.75969 0,-10.91297 8.84671,-19.75968 19.75969,-19.75968 10.52428,0 19.20172,8.24884 19.73435,18.75963"
         id="path3202"
         inkscape:connector-curvature="0" />
      <path
         style="fill:#008000;fill-opacity:1;stroke:none"
         d="m 423.94064,553.40757 c 0,10.91297 -8.84671,19.75969 -19.75968,19.75969 -10.91298,0 -19.75969,-8.84672 -19.75969,-19.75969 0,-10.91297 8.84671,-19.75968 19.75969,-19.75968 10.52428,0 19.20172,8.24884 19.73435,18.75963"
         id="path3204"
         inkscape:connector-curvature="0" />
    </g>
    <g
       style="fill:#808000"
       transform="matrix(0.49999999,-0.86602542,-0.86602542,-0.49999999,876.92282,828.72516)"
       id="g3206">
      <path
         inkscape:connector-curvature="0"
         id="path3208"
         d="m 355.14767,669.03831 c 0,10.91297 -8.84671,19.75969 -19.75968,19.75969 -10.91298,0 -19.75969,-8.84672 -19.75969,-19.75969 0,-10.91297 8.84671,-19.75968 19.75969,-19.75968 10.52428,0 19.20172,8.24884 19.73435,18.75963"
         style="fill:#808000;fill-opacity:1;stroke:none" />
      <path
         inkscape:connector-curvature="0"
         id="path3210"
         d="m 377.10287,629.51894 c 0,10.91297 -8.84671,19.75969 -19.75968,19.75969 -10.91298,0 -19.75969,-8.84672 -19.75969,-19.75969 0,-10.91297 8.84671,-19.75968 19.75969,-19.75968 10.52428,0 19.20172,8.24884 19.73435,18.75963"
         style="fill:#808000;fill-opacity:1;stroke:none" />
      <path
         inkscape:connector-curvature="0"
         id="path3212"
         d="m 330.2651,629.51894 c 0,10.91297 -8.84671,19.75969 -19.75968,19.75969 -10.91298,0 -19.75969,-8.84672 -19.75969,-19.75969 0,-10.91297 8.84671,-19.75968 19.75969,-19.75968 10.52428,0 19.20172,8.24884 19.73435,18.75963"
         style="fill:#808000;fill-opacity:1;stroke:none" />
      <path
         inkscape:connector-curvature="0"
         id="path3214"
         d="m 399.05807,591.46326 c 0,10.91297 -8.84671,19.75969 -19.75968,19.75969 -10.91298,0 -19.75969,-8.84672 -19.75969,-19.75969 0,-10.91297 8.84671,-19.75968 19.75969,-19.75968 10.52428,0 19.20172,8.24884 19.73435,18.75963"
         style="fill:#808000;fill-opacity:1;stroke:none" />
      <path
         inkscape:connector-curvature="0"
         id="path3216"
         d="m 352.2203,589.99958 c 0,10.91297 -8.84671,19.75969 -19.75968,19.75969 -10.91298,0 -19.75969,-8.84672 -19.75969,-19.75969 0,-10.91297 8.84671,-19.75968 19.75969,-19.75968 10.52428,0 19.20172,8.24884 19.73435,18.75963"
         style="fill:#808000;fill-opacity:1;stroke:none" />
      <path
         inkscape:connector-curvature="0"
         id="path3218"
         d="m 307.38253,591.99958 c 0,10.91297 -8.84671,19.75969 -19.75968,19.75969 -10.91298,0 -19.75969,-8.84672 -19.75969,-19.75969 0,-10.91297 8.84671,-19.75968 19.75969,-19.75968 10.52428,0 19.20172,8.24884 19.73435,18.75963"
         style="fill:#808000;fill-opacity:1;stroke:none" />
      <path
         inkscape:connector-curvature="0"
         id="path3220"
         d="m 287.81837,553.40757 c 0,10.91297 -8.84671,19.75969 -19.75968,19.75969 -10.91298,0 -19.75969,-8.84672 -19.75969,-19.75969 0,-10.91297 8.84671,-19.75968 19.75969,-19.75968 10.52428,0 19.20172,8.24884 19.73435,18.75963"
         style="fill:#808000;fill-opacity:1;stroke:none" />
      <path
         inkscape:connector-curvature="0"
         id="path3222"
         d="m 330.2651,551.94389 c 0,10.91297 -8.84671,19.75969 -19.75968,19.75969 -10.91298,0 -19.75969,-8.84672 -19.75969,-19.75969 0,-10.91297 8.84671,-19.75968 19.75969,-19.75968 10.52428,0 19.20172,8.24884 19.73435,18.75963"
         style="fill:#808000;fill-opacity:1;stroke:none" />
      <path
         inkscape:connector-curvature="0"
         id="path3224"
         d="m 377.10287,553.40757 c 0,10.91297 -8.84671,19.75969 -19.75968,19.75969 -10.91298,0 -19.75969,-8.84672 -19.75969,-19.75969 0,-10.91297 8.84671,-19.75968 19.75969,-19.75968 10.52428,0 19.20172,8.24884 19.73435,18.75963"
         style="fill:#808000;fill-opacity:1;stroke:none" />
      <path
         inkscape:connector-curvature="0"
         id="path3226"
         d="m 423.94064,553.40757 c 0,10.91297 -8.84671,19.75969 -19.75968,19.75969 -10.91298,0 -19.75969,-8.84672 -19.75969,-19.75969 0,-10.91297 8.84671,-19.75968 19.75969,-19.75968 10.52428,0 19.20172,8.24884 19.73435,18.75963"
         style="fill:#808000;fill-opacity:1;stroke:none" />
    </g>
    <g
       id="g3228"
       transform="matrix(0.49999999,0.86602541,-0.86602541,0.49999999,877.97775,-112.36795)"
       style="fill:#800080">
      <path
         style="fill:#800080;fill-opacity:1;stroke:none"
         d="m 355.14767,669.03831 c 0,10.91297 -8.84671,19.75969 -19.75968,19.75969 -10.91298,0 -19.75969,-8.84672 -19.75969,-19.75969 0,-10.91297 8.84671,-19.75968 19.75969,-19.75968 10.52428,0 19.20172,8.24884 19.73435,18.75963"
         id="path3230"
         inkscape:connector-curvature="0" />
      <path
         style="fill:#800080;fill-opacity:1;stroke:none"
         d="m 377.10287,629.51894 c 0,10.91297 -8.84671,19.75969 -19.75968,19.75969 -10.91298,0 -19.75969,-8.84672 -19.75969,-19.75969 0,-10.91297 8.84671,-19.75968 19.75969,-19.75968 10.52428,0 19.20172,8.24884 19.73435,18.75963"
         id="path3232"
         inkscape:connector-curvature="0" />
      <path
         style="fill:#800080;fill-opacity:1;stroke:none"
         d="m 330.2651,629.51894 c 0,10.91297 -8.84671,19.75969 -19.75968,19.75969 -10.91298,0 -19.75969,-8.84672 -19.75969,-19.75969 0,-10.91297 8.84671,-19.75968 19.75969,-19.75968 10.52428,0 19.20172,8.24884 19.73435,18.75963"
         id="path3234"
         inkscape:connector-curvature="0" />
      <path
         style="fill:#800080;fill-opacity:1;stroke:none"
         d="m 399.05807,591.46326 c 0,10.91297 -8.84671,19.75969 -19.75968,19.75969 -10.91298,0 -19.75969,-8.84672 -19.75969,-19.75969 0,-10.91297 8.84671,-19.75968 19.75969,-19.75968 10.52428,0 19.20172,8.24884 19.73435,18.75963"
         id="path3236"
         inkscape:connector-curvature="0" />
      <path
         style="fill:#800080;fill-opacity:1;stroke:none"
         d="m 352.2203,589.99958 c 0,10.91297 -8.84671,19.75969 -19.75968,19.75969 -10.91298,0 -19.75969,-8.84672 -19.75969,-19.75969 0,-10.91297 8.84671,-19.75968 19.75969,-19.75968 10.52428,0 19.20172,8.24884 19.73435,18.75963"
         id="path3238"
         inkscape:connector-curvature="0" />
      <path
         style="fill:#800080;fill-opacity:1;stroke:none"
         d="m 307.38253,591.99958 c 0,10.91297 -8.84671,19.75969 -19.75968,19.75969 -10.91298,0 -19.75969,-8.84672 -19.75969,-19.75969 0,-10.91297 8.84671,-19.75968 19.75969,-19.75968 10.52428,0 19.20172,8.24884 19.73435,18.75963"
         id="path3240"
         inkscape:connector-curvature="0" />
      <path
         style="fill:#800080;fill-opacity:1;stroke:none"
         d="m 287.81837,553.40757 c 0,10.91297 -8.84671,19.75969 -19.75968,19.75969 -10.91298,0 -19.75969,-8.84672 -19.75969,-19.75969 0,-10.91297 8.84671,-19.75968 19.75969,-19.75968 10.52428,0 19.20172,8.24884 19.73435,18.75963"
         id="path3242"
         inkscape:connector-curvature="0" />
      <path
         style="fill:#800080;fill-opacity:1;stroke:none"
         d="m 330.2651,551.94389 c 0,10.91297 -8.84671,19.75969 -19.75968,19.75969 -10.91298,0 -19.75969,-8.84672 -19.75969,-19.75969 0,-10.91297 8.84671,-19.75968 19.75969,-19.75968 10.52428,0 19.20172,8.24884 19.73435,18.75963"
         id="path3244"
         inkscape:connector-curvature="0" />
      <path
         style="fill:#800080;fill-opacity:1;stroke:none"
         d="m 377.10287,553.40757 c 0,10.91297 -8.84671,19.75969 -19.75968,19.75969 -10.91298,0 -19.75969,-8.84672 -19.75969,-19.75969 0,-10.91297 8.84671,-19.75968 19.75969,-19.75968 10.52428,0 19.20172,8.24884 19.73435,18.75963"
         id="path3246"
         inkscape:connector-curvature="0" />
      <path
         style="fill:#800080;fill-opacity:1;stroke:none"
         d="m 423.94064,553.40757 c 0,10.91297 -8.84671,19.75969 -19.75968,19.75969 -10.91298,0 -19.75969,-8.84672 -19.75969,-19.75969 0,-10.91297 8.84671,-19.75968 19.75969,-19.75968 10.52428,0 19.20172,8.24884 19.73435,18.75963"
         id="path3248"
         inkscape:connector-curvature="0" />
    </g>
    <path
       style="fill:#ffffff;fill-opacity:1;stroke:none"
       d="m 263.47213,207.05166 c 0,-10.91297 -8.84671,-19.75969 -19.75968,-19.75969 -10.91298,0 -19.75969,8.84672 -19.75969,19.75969 0,10.91297 8.84671,19.75968 19.75969,19.75968 10.52428,0 19.20172,-8.24884 19.73435,-18.75963"
       id="path3252"
       inkscape:connector-curvature="0" />
    <path
       style="fill:#ffffff;fill-opacity:1;stroke:none"
       d="m 285.42733,246.57103 c 0,-10.91297 -8.84671,-19.75969 -19.75968,-19.75969 -10.91298,0 -19.75969,8.84672 -19.75969,19.75969 0,10.91297 8.84671,19.75968 19.75969,19.75968 10.52428,0 19.20172,-8.24884 19.73435,-18.75963"
       id="path3254"
       inkscape:connector-curvature="0" />
    <path
       style="fill:#ffffff;fill-opacity:1;stroke:none"
       d="m 238.58956,246.57103 c 0,-10.91297 -8.84671,-19.75969 -19.75968,-19.75969 -10.91298,0 -19.75969,8.84672 -19.75969,19.75969 0,10.91297 8.84671,19.75968 19.75969,19.75968 10.52428,0 19.20172,-8.24884 19.73435,-18.75963"
       id="path3256"
       inkscape:connector-curvature="0" />
    <path
       style="fill:#ffffff;fill-opacity:1;stroke:none"
       d="m 307.38253,284.62671 c 0,-10.91297 -8.84671,-19.75969 -19.75968,-19.75969 -10.91298,0 -19.75969,8.84672 -19.75969,19.75969 0,10.91297 8.84671,19.75968 19.75969,19.75968 10.52428,0 19.20172,-8.24884 19.73435,-18.75963"
       id="path3258"
       inkscape:connector-curvature="0" />
    <path
       style="fill:#ffffff;fill-opacity:1;stroke:none"
       d="m 260.54476,286.09039 c 0,-10.91297 -8.84671,-19.75969 -19.75968,-19.75969 -10.91298,0 -19.75969,8.84672 -19.75969,19.75969 0,10.91297 8.84671,19.75968 19.75969,19.75968 10.52428,0 19.20172,-8.24884 19.73435,-18.75963"
       id="path3260"
       inkscape:connector-curvature="0" />
    <path
       style="fill:#ffffff;fill-opacity:1;stroke:none"
       d="m 215.70699,284.09039 c 0,-10.91297 -8.84671,-19.75969 -19.75968,-19.75969 -10.91298,0 -19.75969,8.84672 -19.75969,19.75969 0,10.91297 8.84671,19.75968 19.75969,19.75968 10.52428,0 19.20172,-8.24884 19.73435,-18.75963"
       id="path3262"
       inkscape:connector-curvature="0" />
    <path
       style="fill:#ffffff;fill-opacity:1;stroke:none"
       d="m 196.14283,322.6824 c 0,-10.91297 -8.84671,-19.75969 -19.75968,-19.75969 -10.91298,0 -19.75969,8.84672 -19.75969,19.75969 0,10.91297 8.84671,19.75968 19.75969,19.75968 10.52428,0 19.20172,-8.24884 19.73435,-18.75963"
       id="path3264"
       inkscape:connector-curvature="0" />
    <path
       style="fill:#ffffff;fill-opacity:1;stroke:none"
       d="m 238.58956,324.14608 c 0,-10.91297 -8.84671,-19.75969 -19.75968,-19.75969 -10.91298,0 -19.75969,8.84672 -19.75969,19.75969 0,10.91297 8.84671,19.75968 19.75969,19.75968 10.52428,0 19.20172,-8.24884 19.73435,-18.75963"
       id="path3266"
       inkscape:connector-curvature="0" />
    <path
       style="fill:#ffffff;fill-opacity:1;stroke:none"
       d="m 285.42733,322.6824 c 0,-10.91297 -8.84671,-19.75969 -19.75968,-19.75969 -10.91298,0 -19.75969,8.84672 -19.75969,19.75969 0,10.91297 8.84671,19.75968 19.75969,19.75968 10.52428,0 19.20172,-8.24884 19.73435,-18.75963"
       id="path3268"
       inkscape:connector-curvature="0" />
    <path
       style="fill:#ffffff;fill-opacity:1;stroke:none"
       d="m 330.2651,322.6824 c 0,-10.91297 -8.84671,-19.75969 -19.75968,-19.75969 -10.91298,0 -19.75969,8.84672 -19.75969,19.75969 0,10.91297 8.84671,19.75968 19.75969,19.75968 10.52428,0 19.20172,-8.24884 19.73435,-18.75963"
       id="path3270"
       inkscape:connector-curvature="0" />
    <path
       inkscape:connector-curvature="0"
       id="path3274"
       d="m 300.11472,186.29434 c -9.4509,-5.45649 -21.53574,-2.21837 -26.99223,7.23254 -5.45649,9.45091 -2.21836,21.53575 7.23255,26.99223 9.45091,5.45649 21.53574,2.21837 26.99223,-7.23255 5.26214,-9.11429 2.45715,-20.7536 -6.37914,-26.47026"
       style="fill:#ffffff;fill-opacity:1;stroke:none" />
    <path
       inkscape:connector-curvature="0"
       id="path3276"
       d="m 345.3171,187.04026 c -9.45091,-5.45649 -21.53575,-2.21837 -26.99223,7.23254 -5.45649,9.45092 -2.21836,21.53575 7.23255,26.99224 9.45091,5.45648 21.53574,2.21836 26.99223,-7.23256 5.26214,-9.11429 2.45715,-20.75359 -6.37914,-26.47026"
       style="fill:#ffffff;fill-opacity:1;stroke:none" />
    <path
       inkscape:connector-curvature="0"
       id="path3278"
       d="m 321.89822,227.60296 c -9.45091,-5.45649 -21.53575,-2.21837 -26.99223,7.23254 -5.45649,9.45092 -2.21837,21.53575 7.23254,26.99224 9.45091,5.45648 21.53574,2.21836 26.99223,-7.23256 5.26214,-9.11429 2.45716,-20.75359 -6.37914,-26.47026"
       style="fill:#ffffff;fill-opacity:1;stroke:none" />
    <path
       inkscape:connector-curvature="0"
       id="path3280"
       d="m 389.25189,187.05434 c -9.45091,-5.45649 -21.53575,-2.21837 -26.99223,7.23254 -5.45649,9.45092 -2.21837,21.53575 7.23254,26.99224 9.45091,5.45648 21.53574,2.21836 26.99223,-7.23256 5.26214,-9.11429 2.45716,-20.7536 -6.37914,-26.47026"
       style="fill:#ffffff;fill-opacity:1;stroke:none" />
    <path
       inkscape:connector-curvature="0"
       id="path3282"
       d="m 367.10059,228.34888 c -9.45091,-5.45649 -21.53575,-2.21837 -26.99224,7.23254 -5.45649,9.45091 -2.21836,21.53575 7.23255,26.99223 9.45091,5.45649 21.53574,2.21837 26.99223,-7.23255 5.26214,-9.11429 2.45716,-20.7536 -6.37914,-26.47026"
       style="fill:#ffffff;fill-opacity:1;stroke:none" />
    <path
       inkscape:connector-curvature="0"
       id="path3284"
       d="m 342.94965,266.17952 c -9.45091,-5.45648 -21.53575,-2.21836 -26.99223,7.23254 -5.45649,9.45092 -2.21836,21.53576 7.23255,26.99224 9.45091,5.45649 21.53574,2.21837 26.99223,-7.23255 5.26214,-9.11429 2.45715,-20.7536 -6.37914,-26.47026"
       style="fill:#ffffff;fill-opacity:1;stroke:none" />
    <path
       inkscape:connector-curvature="0"
       id="path3286"
       d="m 366.58923,306.41859 c -9.4509,-5.45649 -21.53574,-2.21837 -26.99223,7.23254 -5.45649,9.45092 -2.21836,21.53575 7.23255,26.99224 9.45091,5.45648 21.53574,2.21836 26.99223,-7.23256 5.26214,-9.11429 2.45715,-20.75359 -6.37914,-26.47026"
       style="fill:#ffffff;fill-opacity:1;stroke:none" />
    <path
       inkscape:connector-curvature="0"
       id="path3288"
       d="m 389.08018,266.39048 c -9.45091,-5.45648 -21.53575,-2.21837 -26.99223,7.23254 -5.45649,9.45092 -2.21836,21.53576 7.23255,26.99224 9.45091,5.45649 21.53574,2.21836 26.99223,-7.23255 5.26214,-9.1143 2.45715,-20.7536 -6.37914,-26.47027"
       style="fill:#ffffff;fill-opacity:1;stroke:none" />
    <path
       inkscape:connector-curvature="0"
       id="path3290"
       d="m 411.23148,225.09594 c -9.45091,-5.45648 -21.53575,-2.21837 -26.99223,7.23254 -5.45649,9.45092 -2.21836,21.53576 7.23255,26.99224 9.45091,5.45649 21.53574,2.21837 26.99223,-7.23255 5.26214,-9.1143 2.45715,-20.7536 -6.37914,-26.47027"
       style="fill:#ffffff;fill-opacity:1;stroke:none" />
    <path
       inkscape:connector-curvature="0"
       id="path3292"
       d="m 434.65037,184.53324 c -9.45091,-5.45648 -21.53575,-2.21837 -26.99224,7.23254 -5.45649,9.45092 -2.21836,21.53576 7.23255,26.99224 9.45091,5.45649 21.53574,2.21837 26.99223,-7.23255 5.26214,-9.1143 2.45716,-20.7536 -6.37914,-26.47026"
       style="fill:#ffffff;fill-opacity:1;stroke:none" />
    <path
       style="fill:#ffffff;fill-opacity:1;stroke:none"
       d="m 454.41005,227.37985 c -9.4509,-5.45649 -21.53574,-2.21837 -26.99223,7.23254 -5.45649,9.45092 -2.21836,21.53575 7.23255,26.99224 9.45091,5.45648 21.53574,2.21836 26.99223,-7.23256 5.26214,-9.11429 2.45715,-20.75359 -6.37914,-26.47026"
       id="path3404"
       inkscape:connector-curvature="0" />
    <path
       inkscape:connector-curvature="0"
       id="path3406"
       d="m 432.84589,268.3629 c -9.4509,-5.45649 -21.53574,-2.21837 -26.99223,7.23254 -5.45649,9.45092 -2.21836,21.53575 7.23255,26.99224 9.45091,5.45648 21.53574,2.21836 26.99223,-7.23256 5.26214,-9.11429 2.45715,-20.75359 -6.37914,-26.47026"
       style="fill:#ffffff;fill-opacity:1;stroke:none" />
    <path
       style="fill:#ffffff;fill-opacity:1;stroke:none"
       d="m 474.84589,268.3629 c -9.4509,-5.45649 -21.53574,-2.21837 -26.99223,7.23254 -5.45649,9.45092 -2.21836,21.53575 7.23255,26.99224 9.45091,5.45648 21.53574,2.21836 26.99223,-7.23256 5.26214,-9.11429 2.45715,-20.75359 -6.37914,-26.47026"
       id="path3408"
       inkscape:connector-curvature="0" />
    <path
       style="fill:#ffffff;fill-opacity:1;stroke:none"
       d="m 410.58923,306.41859 c -9.4509,-5.45649 -21.53574,-2.21837 -26.99223,7.23254 -5.45649,9.45092 -2.21836,21.53575 7.23255,26.99224 9.45091,5.45648 21.53574,2.21836 26.99223,-7.23256 5.26214,-9.11429 2.45715,-20.75359 -6.37914,-26.47026"
       id="path3412"
       inkscape:connector-curvature="0" />
    <path
       inkscape:connector-curvature="0"
       id="path3414"
       d="m 454.58923,306.41859 c -9.4509,-5.45649 -21.53574,-2.21837 -26.99223,7.23254 -5.45649,9.45092 -2.21836,21.53575 7.23255,26.99224 9.45091,5.45648 21.53574,2.21836 26.99223,-7.23256 5.26214,-9.11429 2.45715,-20.75359 -6.37914,-26.47026"
       style="fill:#ffffff;fill-opacity:1;stroke:none" />
    <path
       style="fill:#ffffff;fill-opacity:1;stroke:none"
       d="m 496.58923,306.41859 c -9.4509,-5.45649 -21.53574,-2.21837 -26.99223,7.23254 -5.45649,9.45092 -2.21836,21.53575 7.23255,26.99224 9.45091,5.45648 21.53574,2.21836 26.99223,-7.23256 5.26214,-9.11429 2.45715,-20.75359 -6.37914,-26.47026"
       id="path3416"
       inkscape:connector-curvature="0" />
    <path
       inkscape:connector-curvature="0"
       id="path3418"
       d="m 516.58923,344.41859 c -9.4509,-5.45649 -21.53574,-2.21837 -26.99223,7.23254 -5.45649,9.45092 -2.21836,21.53575 7.23255,26.99224 9.45091,5.45648 21.53574,2.21836 26.99223,-7.23256 5.26214,-9.11429 2.45715,-20.75359 -6.37914,-26.47026"
       style="fill:#ffffff;fill-opacity:1;stroke:none" />
    <path
       style="fill:#ffffff;fill-opacity:1;stroke:none"
       d="m 474.58923,344.41859 c -9.4509,-5.45649 -21.53574,-2.21837 -26.99223,7.23254 -5.45649,9.45092 -2.21836,21.53575 7.23255,26.99224 9.45091,5.45648 21.53574,2.21836 26.99223,-7.23256 5.26214,-9.11429 2.45715,-20.75359 -6.37914,-26.47026"
       id="path3420"
       inkscape:connector-curvature="0" />
    <path
       inkscape:connector-curvature="0"
       id="path3422"
       d="m 430.58923,344.41859 c -9.4509,-5.45649 -21.53574,-2.21837 -26.99223,7.23254 -5.45649,9.45092 -2.21836,21.53575 7.23255,26.99224 9.45091,5.45648 21.53574,2.21836 26.99223,-7.23256 5.26214,-9.11429 2.45715,-20.75359 -6.37914,-26.47026"
       style="fill:#ffffff;fill-opacity:1;stroke:none" />
    <path
       style="fill:#ffffff;fill-opacity:1;stroke:none"
       d="m 388.58923,344.41859 c -9.4509,-5.45649 -21.53574,-2.21837 -26.99223,7.23254 -5.45649,9.45092 -2.21836,21.53575 7.23255,26.99224 9.45091,5.45648 21.53574,2.21836 26.99223,-7.23256 5.26214,-9.11429 2.45715,-20.75359 -6.37914,-26.47026"
       id="path3424"
       inkscape:connector-curvature="0" />
    <path
       inkscape:connector-curvature="0"
       id="path3426"
       d="m 342.58923,344.41859 c -9.4509,-5.45649 -21.53574,-2.21837 -26.99223,7.23254 -5.45649,9.45092 -2.21836,21.53575 7.23255,26.99224 9.45091,5.45648 21.53574,2.21836 26.99223,-7.23256 5.26214,-9.11429 2.45715,-20.75359 -6.37914,-26.47026"
       style="fill:#ffffff;fill-opacity:1;stroke:none" />
    <path
       style="fill:#ffffff;fill-opacity:1;stroke:none"
       d="m 298.58923,344.41859 c -9.4509,-5.45649 -21.53574,-2.21837 -26.99223,7.23254 -5.45649,9.45092 -2.21836,21.53575 7.23255,26.99224 9.45091,5.45648 21.53574,2.21836 26.99223,-7.23256 5.26214,-9.11429 2.45715,-20.75359 -6.37914,-26.47026"
       id="path3428"
       inkscape:connector-curvature="0" />
    <path
       inkscape:connector-curvature="0"
       id="path3430"
       d="m 254.58923,344.41859 c -9.4509,-5.45649 -21.53574,-2.21837 -26.99223,7.23254 -5.45649,9.45092 -2.21836,21.53575 7.23255,26.99224 9.45091,5.45648 21.53574,2.21836 26.99223,-7.23256 5.26214,-9.11429 2.45715,-20.75359 -6.37914,-26.47026"
       style="fill:#ffffff;fill-opacity:1;stroke:none" />
    <path
       style="fill:#ffffff;fill-opacity:1;stroke:none"
       d="m 210.58923,344.41859 c -9.4509,-5.45649 -21.53574,-2.21837 -26.99223,7.23254 -5.45649,9.45092 -2.21836,21.53575 7.23255,26.99224 9.45091,5.45648 21.53574,2.21836 26.99223,-7.23256 5.26214,-9.11429 2.45715,-20.75359 -6.37914,-26.47026"
       id="path3432"
       inkscape:connector-curvature="0" />
    <path
       inkscape:connector-curvature="0"
       id="path3434"
       d="m 164.58923,344.41859 c -9.4509,-5.45649 -21.53574,-2.21837 -26.99223,7.23254 -5.45649,9.45092 -2.21836,21.53575 7.23255,26.99224 9.45091,5.45648 21.53574,2.21836 26.99223,-7.23256 5.26214,-9.11429 2.45715,-20.75359 -6.37914,-26.47026"
       style="fill:#ffffff;fill-opacity:1;stroke:none" />
    <path
       style="fill:#ffffff;fill-opacity:1;stroke:none"
       d="m 190.58923,384.41859 c -9.4509,-5.45649 -21.53574,-2.21837 -26.99223,7.23254 -5.45649,9.45092 -2.21836,21.53575 7.23255,26.99224 9.45091,5.45648 21.53574,2.21836 26.99223,-7.23256 5.26214,-9.11429 2.45715,-20.75359 -6.37914,-26.47026"
       id="path3436"
       inkscape:connector-curvature="0" />
    <path
       inkscape:connector-curvature="0"
       id="path3438"
       d="m 232.58923,384.41859 c -9.4509,-5.45649 -21.53574,-2.21837 -26.99223,7.23254 -5.45649,9.45092 -2.21836,21.53575 7.23255,26.99224 9.45091,5.45648 21.53574,2.21836 26.99223,-7.23256 5.26214,-9.11429 2.45715,-20.75359 -6.37914,-26.47026"
       style="fill:#ffffff;fill-opacity:1;stroke:none" />
    <path
       style="fill:#ffffff;fill-opacity:1;stroke:none"
       d="m 276.58923,384.41859 c -9.4509,-5.45649 -21.53574,-2.21837 -26.99223,7.23254 -5.45649,9.45092 -2.21836,21.53575 7.23255,26.99224 9.45091,5.45648 21.53574,2.21836 26.99223,-7.23256 5.26214,-9.11429 2.45715,-20.75359 -6.37914,-26.47026"
       id="path3440"
       inkscape:connector-curvature="0" />
    <path
       inkscape:connector-curvature="0"
       id="path3442"
       d="m 320.58923,386.41859 c -9.4509,-5.45649 -21.53574,-2.21837 -26.99223,7.23254 -5.45649,9.45092 -2.21836,21.53575 7.23255,26.99224 9.45091,5.45648 21.53574,2.21836 26.99223,-7.23256 5.26214,-9.11429 2.45715,-20.75359 -6.37914,-26.47026"
       style="fill:#ffffff;fill-opacity:1;stroke:none" />
    <path
       style="fill:#ffffff;fill-opacity:1;stroke:none"
       d="m 362.58923,384.41859 c -9.4509,-5.45649 -21.53574,-2.21837 -26.99223,7.23254 -5.45649,9.45092 -2.21836,21.53575 7.23255,26.99224 9.45091,5.45648 21.53574,2.21836 26.99223,-7.23256 5.26214,-9.11429 2.45715,-20.75359 -6.37914,-26.47026"
       id="path3444"
       inkscape:connector-curvature="0" />
    <path
       inkscape:connector-curvature="0"
       id="path3446"
       d="m 406.58923,384.41859 c -9.4509,-5.45649 -21.53574,-2.21837 -26.99223,7.23254 -5.45649,9.45092 -2.21836,21.53575 7.23255,26.99224 9.45091,5.45648 21.53574,2.21836 26.99223,-7.23256 5.26214,-9.11429 2.45715,-20.75359 -6.37914,-26.47026"
       style="fill:#ffffff;fill-opacity:1;stroke:none" />
    <path
       style="fill:#ffffff;fill-opacity:1;stroke:none"
       d="m 450.58923,384.41859 c -9.4509,-5.45649 -21.53574,-2.21837 -26.99223,7.23254 -5.45649,9.45092 -2.21836,21.53575 7.23255,26.99224 9.45091,5.45648 21.53574,2.21836 26.99223,-7.23256 5.26214,-9.11429 2.45715,-20.75359 -6.37914,-26.47026"
       id="path3448"
       inkscape:connector-curvature="0" />
    <path
       inkscape:connector-curvature="0"
       id="path3450"
       d="m 492.58923,384.41859 c -9.4509,-5.45649 -21.53574,-2.21837 -26.99223,7.23254 -5.45649,9.45092 -2.21836,21.53575 7.23255,26.99224 9.45091,5.45648 21.53574,2.21836 26.99223,-7.23256 5.26214,-9.11429 2.45715,-20.75359 -6.37914,-26.47026"
       style="fill:#ffffff;fill-opacity:1;stroke:none" />
    <path
       style="fill:#ffffff;fill-opacity:1;stroke:none"
       d="m 470.58923,422.41859 c -9.4509,-5.45649 -21.53574,-2.21837 -26.99223,7.23254 -5.45649,9.45092 -2.21836,21.53575 7.23255,26.99224 9.45091,5.45648 21.53574,2.21836 26.99223,-7.23256 5.26214,-9.11429 2.45715,-20.75359 -6.37914,-26.47026"
       id="path3452"
       inkscape:connector-curvature="0" />
    <path
       inkscape:connector-curvature="0"
       id="path3454"
       d="m 428.58923,422.41859 c -9.4509,-5.45649 -21.53574,-2.21837 -26.99223,7.23254 -5.45649,9.45092 -2.21836,21.53575 7.23255,26.99224 9.45091,5.45648 21.53574,2.21836 26.99223,-7.23256 5.26214,-9.11429 2.45715,-20.75359 -6.37914,-26.47026"
       style="fill:#ffffff;fill-opacity:1;stroke:none" />
    <path
       style="fill:#ffffff;fill-opacity:1;stroke:none"
       d="m 384.58923,422.41859 c -9.4509,-5.45649 -21.53574,-2.21837 -26.99223,7.23254 -5.45649,9.45092 -2.21836,21.53575 7.23255,26.99224 9.45091,5.45648 21.53574,2.21836 26.99223,-7.23256 5.26214,-9.11429 2.45715,-20.75359 -6.37914,-26.47026"
       id="path3456"
       inkscape:connector-curvature="0" />
    <path
       inkscape:connector-curvature="0"
       id="path3458"
       d="m 342.58923,422.41859 c -9.4509,-5.45649 -21.53574,-2.21837 -26.99223,7.23254 -5.45649,9.45092 -2.21836,21.53575 7.23255,26.99224 9.45091,5.45648 21.53574,2.21836 26.99223,-7.23256 5.26214,-9.11429 2.45715,-20.75359 -6.37914,-26.47026"
       style="fill:#ffffff;fill-opacity:1;stroke:none" />
    <path
       style="fill:#ffffff;fill-opacity:1;stroke:none"
       d="m 300.58923,422.41859 c -9.4509,-5.45649 -21.53574,-2.21837 -26.99223,7.23254 -5.45649,9.45092 -2.21836,21.53575 7.23255,26.99224 9.45091,5.45648 21.53574,2.21836 26.99223,-7.23256 5.26214,-9.11429 2.45715,-20.75359 -6.37914,-26.47026"
       id="path3460"
       inkscape:connector-curvature="0" />
    <path
       inkscape:connector-curvature="0"
       id="path3462"
       d="m 256.58923,422.41859 c -9.4509,-5.45649 -21.53574,-2.21837 -26.99223,7.23254 -5.45649,9.45092 -2.21836,21.53575 7.23255,26.99224 9.45091,5.45648 21.53574,2.21836 26.99223,-7.23256 5.26214,-9.11429 2.45715,-20.75359 -6.37914,-26.47026"
       style="fill:#ffffff;fill-opacity:1;stroke:none" />
    <path
       style="fill:#ffffff;fill-opacity:1;stroke:none"
       d="m 214.58923,422.41859 c -9.4509,-5.45649 -21.53574,-2.21837 -26.99223,7.23254 -5.45649,9.45092 -2.21836,21.53575 7.23255,26.99224 9.45091,5.45648 21.53574,2.21836 26.99223,-7.23256 5.26214,-9.11429 2.45715,-20.75359 -6.37914,-26.47026"
       id="path3464"
       inkscape:connector-curvature="0" />
    <path
       inkscape:connector-curvature="0"
       id="path3466"
       d="m 238.58923,460.41859 c -9.4509,-5.45649 -21.53574,-2.21837 -26.99223,7.23254 -5.45649,9.45092 -2.21836,21.53575 7.23255,26.99224 9.45091,5.45648 21.53574,2.21836 26.99223,-7.23256 5.26214,-9.11429 2.45715,-20.75359 -6.37914,-26.47026"
       style="fill:#ffffff;fill-opacity:1;stroke:none" />
    <path
       style="fill:#ffffff;fill-opacity:1;stroke:none"
       d="m 278.58923,460.41859 c -9.4509,-5.45649 -21.53574,-2.21837 -26.99223,7.23254 -5.45649,9.45092 -2.21836,21.53575 7.23255,26.99224 9.45091,5.45648 21.53574,2.21836 26.99223,-7.23256 5.26214,-9.11429 2.45715,-20.75359 -6.37914,-26.47026"
       id="path3468"
       inkscape:connector-curvature="0" />
    <path
       inkscape:connector-curvature="0"
       id="path3470"
       d="m 320.58923,460.41859 c -9.4509,-5.45649 -21.53574,-2.21837 -26.99223,7.23254 -5.45649,9.45092 -2.21836,21.53575 7.23255,26.99224 9.45091,5.45648 21.53574,2.21836 26.99223,-7.23256 5.26214,-9.11429 2.45715,-20.75359 -6.37914,-26.47026"
       style="fill:#ffffff;fill-opacity:1;stroke:none" />
    <path
       style="fill:#ffffff;fill-opacity:1;stroke:none"
       d="m 364.58923,460.41859 c -9.4509,-5.45649 -21.53574,-2.21837 -26.99223,7.23254 -5.45649,9.45092 -2.21836,21.53575 7.23255,26.99224 9.45091,5.45648 21.53574,2.21836 26.99223,-7.23256 5.26214,-9.11429 2.45715,-20.75359 -6.37914,-26.47026"
       id="path3472"
       inkscape:connector-curvature="0" />
    <path
       inkscape:connector-curvature="0"
       id="path3474"
       d="m 406.58923,460.41859 c -9.4509,-5.45649 -21.53574,-2.21837 -26.99223,7.23254 -5.45649,9.45092 -2.21836,21.53575 7.23255,26.99224 9.45091,5.45648 21.53574,2.21836 26.99223,-7.23256 5.26214,-9.11429 2.45715,-20.75359 -6.37914,-26.47026"
       style="fill:#ffffff;fill-opacity:1;stroke:none" />
    <path
       style="fill:#ffffff;fill-opacity:1;stroke:none"
       d="m 448.58923,460.41859 c -9.4509,-5.45649 -21.53574,-2.21837 -26.99223,7.23254 -5.45649,9.45092 -2.21836,21.53575 7.23255,26.99224 9.45091,5.45648 21.53574,2.21836 26.99223,-7.23256 5.26214,-9.11429 2.45715,-20.75359 -6.37914,-26.47026"
       id="path3476"
       inkscape:connector-curvature="0" />
    <path
       inkscape:connector-curvature="0"
       id="path3478"
       d="m 428.58923,498.41859 c -9.4509,-5.45649 -21.53574,-2.21837 -26.99223,7.23254 -5.45649,9.45092 -2.21836,21.53575 7.23255,26.99224 9.45091,5.45648 21.53574,2.21836 26.99223,-7.23256 5.26214,-9.11429 2.45715,-20.75359 -6.37914,-26.47026"
       style="fill:#ffffff;fill-opacity:1;stroke:none" />
    <path
       style="fill:#ffffff;fill-opacity:1;stroke:none"
       d="m 384.58923,498.41859 c -9.4509,-5.45649 -21.53574,-2.21837 -26.99223,7.23254 -5.45649,9.45092 -2.21836,21.53575 7.23255,26.99224 9.45091,5.45648 21.53574,2.21836 26.99223,-7.23256 5.26214,-9.11429 2.45715,-20.75359 -6.37914,-26.47026"
       id="path3480"
       inkscape:connector-curvature="0" />
    <path
       inkscape:connector-curvature="0"
       id="path3482"
       d="m 340.58923,498.41859 c -9.4509,-5.45649 -21.53574,-2.21837 -26.99223,7.23254 -5.45649,9.45092 -2.21836,21.53575 7.23255,26.99224 9.45091,5.45648 21.53574,2.21836 26.99223,-7.23256 5.26214,-9.11429 2.45715,-20.75359 -6.37914,-26.47026"
       style="fill:#ffffff;fill-opacity:1;stroke:none" />
    <path
       style="fill:#ffffff;fill-opacity:1;stroke:none"
       d="m 296.58923,496.41859 c -9.4509,-5.45649 -21.53574,-2.21837 -26.99223,7.23254 -5.45649,9.45092 -2.21836,21.53575 7.23255,26.99224 9.45091,5.45648 21.53574,2.21836 26.99223,-7.23256 5.26214,-9.11429 2.45715,-20.75359 -6.37914,-26.47026"
       id="path3484"
       inkscape:connector-curvature="0" />
    <path
       inkscape:connector-curvature="0"
       id="path3486"
       d="m 254.58923,500.41859 c -9.4509,-5.45649 -21.53574,-2.21837 -26.99223,7.23254 -5.45649,9.45092 -2.21836,21.53575 7.23255,26.99224 9.45091,5.45648 21.53574,2.21836 26.99223,-7.23256 5.26214,-9.11429 2.45715,-20.75359 -6.37914,-26.47026"
       style="fill:#ffffff;fill-opacity:1;stroke:none" />
  </g>
</svg>
