<?xml version="1.0" encoding="UTF-8" standalone="no"?>
<!-- Created with Inkscape (http://www.inkscape.org/) -->

<svg
   xmlns:dc="http://purl.org/dc/elements/1.1/"
   xmlns:cc="http://creativecommons.org/ns#"
   xmlns:rdf="http://www.w3.org/1999/02/22-rdf-syntax-ns#"
   xmlns:svg="http://www.w3.org/2000/svg"
   xmlns="http://www.w3.org/2000/svg"
   xmlns:sodipodi="http://sodipodi.sourceforge.net/DTD/sodipodi-0.dtd"
   xmlns:inkscape="http://www.inkscape.org/namespaces/inkscape"
   width="100"
   height="100"
   id="svg12024"
   sodipodi:version="0.32"
   inkscape:version="0.48.2 r9819"
   version="1.0"
   sodipodi:docname="connect4.svg">
  <defs
     id="defs12026" />
  <sodipodi:namedview
     id="base"
     pagecolor="#ffffff"
     bordercolor="#666666"
     borderopacity="1.0"
     inkscape:pageopacity="0.0"
     inkscape:pageshadow="2"
     inkscape:zoom="3.9854303"
     inkscape:cx="73.027844"
     inkscape:cy="64.456911"
     inkscape:document-units="px"
     inkscape:current-layer="layer1"
     height="100px"
     width="100px"
     inkscape:window-width="1015"
     inkscape:window-height="756"
     inkscape:window-x="49"
     inkscape:window-y="17"
     showgrid="false"
     inkscape:window-maximized="0" />
  <metadata
     id="metadata12029">
    <rdf:RDF>
      <cc:Work
         rdf:about="">
        <dc:format>image/svg+xml</dc:format>
        <dc:type
           rdf:resource="http://purl.org/dc/dcmitype/StillImage" />
      </cc:Work>
    </rdf:RDF>
  </metadata>
  <g
     inkscape:label="Calque 1"
     inkscape:groupmode="layer"
     id="layer1">
    <path
       style="fill:#7fff2a;fill-opacity:1;fill-rule:evenodd;stroke:none"
       d="m 93.336939,67.25573 17.570071,0 c 2.22241,0 4.01157,1.729682 4.01157,3.878212 l 0,16.0804 c 0,2.14853 -1.78916,3.878212 -4.01157,3.878212 l -17.570071,0 c -2.222413,0 -4.011576,-1.729682 -4.011576,-3.878212 l 0,-16.0804 c 0,-2.14853 1.789163,-3.878212 4.011576,-3.878212 z"
       id="rect30370" />
    <path
       style="fill:#ffba0e;fill-opacity:1;fill-rule:evenodd;stroke:none"
       d="m 66.489145,66.753906 17.570071,0 c 2.222412,0 4.011575,1.729683 4.011575,3.878212 l 0,16.080401 c 0,2.148529 -1.789163,3.878212 -4.011575,3.878212 l -17.570071,0 c -2.222413,0 -4.011575,-1.729683 -4.011575,-3.878212 l 0,-16.080401 c 0,-2.148529 1.789162,-3.878212 4.011575,-3.878212 z"
       id="rect30366" />
    <path
       style="fill:#ffba0e;fill-opacity:1;fill-rule:evenodd;stroke:none"
       d="m 66.489145,43.418907 17.570071,0 c 2.222412,0 4.011575,1.729683 4.011575,3.878212 l 0,16.080401 c 0,2.148529 -1.789163,3.878212 -4.011575,3.878212 l -17.570071,0 c -2.222413,0 -4.011575,-1.729683 -4.011575,-3.878212 l 0,-16.080401 c 0,-2.148529 1.789162,-3.878212 4.011575,-3.878212 z"
       id="rect30368" />
    <path
       style="fill:#7fff2a;fill-opacity:1;fill-rule:evenodd;stroke:none"
       d="m 15.051788,41.913422 17.570071,0 c 2.222413,0 4.011575,1.729682 4.011575,3.878212 l 0,16.0804 c 0,2.14853 -1.789162,3.878212 -4.011575,3.878212 l -17.570071,0 c -2.222413,0 -4.011575,-1.729682 -4.011575,-3.878212 l 0,-16.0804 c 0,-2.14853 1.789162,-3.878212 4.011575,-3.878212 z"
       id="rect30356" />
    <path
       style="fill:#ffba0e;fill-opacity:1;fill-rule:evenodd;stroke:none"
       d="m 40.394098,22.843964 17.570071,0 c 2.222412,0 4.011575,1.729682 4.011575,3.878212 l 0,16.0804 c 0,2.148529 -1.789163,3.878212 -4.011575,3.878212 l -17.570071,0 c -2.222413,0 -4.011575,-1.729683 -4.011575,-3.878212 l 0,-16.0804 c 0,-2.14853 1.789162,-3.878212 4.011575,-3.878212 z"
       id="rect30364" />
    <path
       style="fill:#ffba0e;fill-opacity:1;fill-rule:evenodd;stroke:none"
       d="m 15.302703,23.094879 17.57007,0 c 2.222413,0 4.011576,1.729683 4.011576,3.878212 l 0,16.080401 c 0,2.148529 -1.789163,3.878212 -4.011576,3.878212 l -17.57007,0 c -2.222413,0 -4.011576,-1.729683 -4.011576,-3.878212 l 0,-16.080401 c 0,-2.148529 1.789163,-3.878212 4.011576,-3.878212 z"
       id="rect30362" />
    <path
       style="fill:#ffba0e;fill-opacity:1;fill-rule:evenodd;stroke:none"
       d="m 41.648668,66.252075 17.570071,0 c 2.222412,0 4.011575,1.729683 4.011575,3.878212 l 0,16.080401 c 0,2.148529 -1.789163,3.878212 -4.011575,3.878212 l -17.570071,0 c -2.222413,0 -4.011575,-1.729683 -4.011575,-3.878212 l 0,-16.080401 c 0,-2.148529 1.789162,-3.878212 4.011575,-3.878212 z"
       id="rect30354" />
    <path
       style="fill:#7fff2a;fill-opacity:1;fill-rule:evenodd;stroke:none"
       d="m 17.560928,66.879364 17.570071,0 c 2.222413,0 4.011575,1.729683 4.011575,3.878212 l 0,16.0804 c 0,2.14853 -1.789162,3.878212 -4.011575,3.878212 l -17.570071,0 c -2.222413,0 -4.011575,-1.729682 -4.011575,-3.878212 l 0,-16.0804 c 0,-2.148529 1.789162,-3.878212 4.011575,-3.878212 z"
       id="rect30352" />
    <path
       style="fill:#7fff2a;fill-opacity:1;fill-rule:evenodd;stroke:none"
       d="m 40.64501,43.669823 17.57007,0 c 2.222413,0 4.011576,1.729682 4.011576,3.878212 l 0,16.0804 c 0,2.14853 -1.789163,3.878212 -4.011576,3.878212 l -17.57007,0 c -2.222413,0 -4.011576,-1.729682 -4.011576,-3.878212 l 0,-16.0804 c 0,-2.14853 1.789163,-3.878212 4.011576,-3.878212 z"
       id="rect30358" />
    <path
       style="fill:#000000;fill-opacity:1;fill-rule:evenodd;stroke:none"
       d="m 8.0431312,12.444074 0,20.632812 0,20.632813 0,33.178509 1.2545693,6.079805 5.5167155,2.007311 20.822465,0 27.59375,0 55.187499,0 0,-82.53125 -10.3125,0 0.0937,0.25 -1.28125,4.40625 -3.1875,4.40625 -6.499999,0.78125 c 0,-1e-6 -0.765991,0.33526 -2.90625,-1.15625 -2.140258,-1.491509 -3.8125,-3.53125 -3.8125,-3.53125 l 0,-3.53125 0.5,-1.625 -8.8125,0 -1.125,3.90625 -3.1875,4.40625 -6.5,0.78125 c -3e-6,0 -0.765991,0.33526 -2.90625,-1.15625 -2.140261,-1.491509 -3.8125,-3.53125 -3.8125,-3.53125 l 0,-3.53125 0.28125,-0.875 -8.5,0 -1.21875,4.15625 -3.1875,4.40625 -6.5,0.78125 c 10e-7,1e-6 -0.765991,0.33526 -2.90625,-1.15625 -2.140257,-1.491508 -3.8125,-3.53125 -3.8125,-3.53125 l 0,-3.53125 0.34375,-1.125 -7.28125,0 -1.25,4.28125 -3.1875,4.40625 -6.46875,0.78125 c 0,0 -0.797241,0.33526 -2.9375,-1.15625 -2.140259,-1.491509 -3.8125,-3.53125 -3.8125,-3.53125 l 0,-3.53125 0.40625,-1.25 -6.5937498,0 z m 66.9687498,13.5625 4.0625,1.5 2.0625,2.75 0.96875,2.90625 -1.28125,4.40625 -3.1875,4.375 -6.5,0.78125 c 3e-6,-10e-7 -0.765991,0.36651 -2.90625,-1.125 -2.140263,-1.491507 -3.8125,-3.5625 -3.8125,-3.5625 l 0,-3.53125 1.25,-4.0625 3.15625,-3.21875 6.1875,-1.21875 z m -25.84375,0.25 4.0625,1.5 2.0625,2.75 0.96875,2.90625 -1.28125,4.40625 -3.1875,4.375 -6.5,0.78125 c -1e-6,2e-6 -0.765991,0.36651 -2.90625,-1.125 -2.140259,-1.491509 -3.8125,-3.5625 -3.8125,-3.5625 l 0,-3.53125 1.25,-4.0625 3.15625,-3.21875 6.1875,-1.21875 z m -24.5625,0.125 4.0625,1.5 2.03125,2.75 0.96875,2.90625 -1.28125,4.40625 -3.1875,4.375 -6.46875,0.78125 c 1e-6,10e-7 -0.797241,0.36651 -2.9375,-1.125 -2.140259,-1.49151 -3.8125,-3.5625 -3.8125,-3.5625 l 0,-3.53125 1.28125,-4.0625 3.125,-3.21875 6.21875,-1.21875 z m 76.249999,0.375 4.0625,1.5 2.0625,2.75 0.96875,2.90625 -1.28125,4.40625 -3.1875,4.375 -6.499999,0.78125 c -10e-7,-10e-7 -0.765991,0.36651 -2.90625,-1.125 -2.140259,-1.491508 -3.8125,-3.5625 -3.8125,-3.5625 l 0,-3.53125 1.28125,-4.0625 3.125,-3.21875 6.187499,-1.21875 z m -25.843749,21.09375 4.0625,1.5 2.0625,2.75 0.96875,2.875 -1.28125,4.40625 -3.1875,4.40625 -6.5,0.78125 c -4e-6,-2e-6 -0.765991,0.33526 -2.90625,-1.15625 -2.140262,-1.491509 -3.8125,-3.53125 -3.8125,-3.53125 l 0,-3.53125 1.25,-4.0625 3.15625,-3.25 6.1875,-1.1875 z m -25.84375,0.25 4.0625,1.5 2.0625,2.75 0.96875,2.875 -1.28125,4.40625 -3.1875,4.40625 -6.5,0.78125 c 0,-4e-6 -0.765991,0.33526 -2.90625,-1.15625 -2.140258,-1.491511 -3.8125,-3.53125 -3.8125,-3.53125 l 0,-3.53125 1.25,-4.0625 3.15625,-3.21875 6.1875,-1.21875 z m -24.5625,0.125 4.0625,1.5 2.03125,2.75 0.96875,2.875 -1.28125,4.40625 -3.1875,4.40625 -6.46875,0.78125 c 0,3e-6 -0.797241,0.33526 -2.9375,-1.15625 -2.140259,-1.491511 -3.8125,-3.53125 -3.8125,-3.53125 l 0,-3.53125 1.28125,-4.0625 3.125,-3.21875 6.21875,-1.21875 z m 76.249999,0.375 4.0625,1.5 2.0625,2.75 0.96875,2.875 -1.28125,4.40625 -3.1875,4.40625 -6.499999,0.78125 c 0,10e-7 -0.765991,0.33526 -2.90625,-1.15625 -2.140258,-1.491506 -3.8125,-3.53125 -3.8125,-3.53125 l 0,-3.53125 1.28125,-4.0625 3.125,-3.21875 6.187499,-1.21875 z m -25.343749,21.3125 4.09375,1.5 2.03125,2.75 0.96875,2.90625 -1.28125,4.40625 -3.1875,4.375 -6.46875,0.78125 c 10e-7,3e-6 -0.797241,0.36651 -2.9375,-1.125 -2.140257,-1.491511 -3.8125,-3.5625 -3.8125,-3.5625 l 0,-3.53125 1.28125,-4.0625 3.125,-3.21875 6.1875,-1.21875 z m -25.84375,0.25 4.09375,1.5 2.03125,2.75 0.96875,2.90625 -1.28125,4.40625 -3.1875,4.375 -6.5,0.78125 c 10e-7,-10e-7 -0.765991,0.366509 -2.90625,-1.125 -2.140261,-1.491513 -3.8125,-3.5625 -3.8125,-3.5625 l 0,-3.53125 1.28125,-4.0625 3.125,-3.21875 6.1875,-1.21875 z m -24.5625,0.125 4.0625,1.5 2.03125,2.75 0.96875,2.90625 -1.28125,4.40625 -3.1875,4.375 -6.46875,0.78125 c 0,10e-7 -0.797241,0.36651 -2.9375,-1.125 -2.140259,-1.491506 -3.8125,-3.5625 -3.8125,-3.5625 l 0,-3.53125 1.28125,-4.0625 3.125,-3.21875 6.21875,-1.21875 z m 76.249999,0.375 4.09375,1.5 2.03125,2.78125 0.96875,2.875 -1.28125,4.40625 -3.1875,4.375 -6.468749,0.78125 c -3e-6,-10e-7 -0.797241,0.36651 -2.9375,-1.125 -2.140261,-1.491508 -3.8125,-3.5625 -3.8125,-3.5625 l 0,-3.53125 1.28125,-4.0625 3.125,-3.21875 6.187499,-1.21875 z"
       id="rect30294"
       sodipodi:nodetypes="cccccccccccccccscccccccscccccccscccccccscccccccccccsccccccccccccsccccccccccccsccccccccccccsccccccccccccsccccccccccccsccccccccccccsccccccccccccsccccccccccccsccccccccccccsccccccccccccsccccccccccccsccccc"
       inkscape:connector-curvature="0" />
  </g>
</svg>
