<?xml version="1.0" encoding="UTF-8" standalone="no"?>
<!-- Created with Inkscape (http://www.inkscape.org/) -->

<svg
   xmlns:dc="http://purl.org/dc/elements/1.1/"
   xmlns:cc="http://creativecommons.org/ns#"
   xmlns:rdf="http://www.w3.org/1999/02/22-rdf-syntax-ns#"
   xmlns:svg="http://www.w3.org/2000/svg"
   xmlns="http://www.w3.org/2000/svg"
   xmlns:sodipodi="http://sodipodi.sourceforge.net/DTD/sodipodi-0.dtd"
   xmlns:inkscape="http://www.inkscape.org/namespaces/inkscape"
   id="svg2440"
   sodipodi:version="0.32"
   inkscape:version="0.48.2 r9819"
   width="800"
   height="520"
   version="1.0"
   sodipodi:docname="target_background.svg"
   inkscape:output_extension="org.inkscape.output.svg.inkscape">
  <sodipodi:namedview
     inkscape:window-height="756"
     inkscape:window-width="1280"
     inkscape:pageshadow="2"
     inkscape:pageopacity="0.0"
     guidetolerance="10.0"
     gridtolerance="10.0"
     objecttolerance="10.0"
     borderopacity="1.0"
     bordercolor="#666666"
     pagecolor="#ffffff"
     id="base"
     showgrid="false"
     showguides="true"
     inkscape:guide-bbox="true"
     inkscape:zoom="1.4281099"
     inkscape:cx="400.71985"
     inkscape:cy="272.12531"
     inkscape:window-x="-4"
     inkscape:window-y="0"
     inkscape:current-layer="svg2440"
     borderlayer="true"
     inkscape:showpageshadow="false"
     inkscape:window-maximized="0" />
  <metadata
     id="metadata2445">
    <rdf:RDF>
      <cc:Work
         rdf:about="">
        <dc:format>image/svg+xml</dc:format>
        <dc:type
           rdf:resource="http://purl.org/dc/dcmitype/StillImage" />
      </cc:Work>
    </rdf:RDF>
  </metadata>
  <defs
     id="defs2443">
    <inkscape:perspective
       id="perspective2447"
       inkscape:persp3d-origin="372.04724 : 350.78739 : 1"
       inkscape:vp_z="744.09448 : 526.18109 : 1"
       inkscape:vp_y="0 : 1000 : 0"
       inkscape:vp_x="0 : 526.18109 : 1"
       sodipodi:type="inkscape:persp3d" />
    <inkscape:perspective
       id="perspective7618"
       inkscape:persp3d-origin="50 : 33.333333 : 1"
       inkscape:vp_z="100 : 50 : 1"
       inkscape:vp_y="0 : 1000 : 0"
       inkscape:vp_x="0 : 50 : 1"
       sodipodi:type="inkscape:persp3d" />
  </defs>
  <path
     style="fill:#5599ff;fill-opacity:1;fill-rule:evenodd;stroke:none;stroke-width:1px;stroke-linecap:butt;stroke-linejoin:miter;stroke-opacity:1"
     d="M -14.704751,-9.3710407 L -17.505656,386.25679 L 515.36652,365.95023 L 560.88122,365.95023 L 620.40045,369.45136 L 709.32919,382.75566 L 812.26244,397.46041 L 809.46154,-16.373303 L -14.704751,-9.3710407 z"
     id="path7666" />
  <path
     style="fill:#ffcc00;fill-opacity:1;fill-rule:evenodd;stroke:none;stroke-width:1px;stroke-linecap:butt;stroke-linejoin:miter;stroke-opacity:1"
     d="M -18.906109,389.05769 L 502.06222,365.95023 L 550.37783,363.84955 L 597.29299,367.35068 L 677.819,377.15385 L 811.56222,396.76018 L 807.36086,543.80769 L -18.906109,552.91063 L -18.906109,389.05769 z"
     id="path7664" />
  <path
     style="fill:#000000;fill-opacity:1;fill-rule:evenodd;stroke:none;stroke-width:1px;stroke-linecap:butt;stroke-linejoin:miter;stroke-opacity:1"
     d="M -12.604073,382.75565 C -9.1029415,382.75565 544.77602,360.34841 544.77602,360.34841 C 544.77602,360.34841 810.86199,382.75565 813.6629,396.76018 C 816.4638,410.7647 815.06335,419.86764 815.06335,419.86764 C 815.06335,419.86764 847.87746,403.2015 805.26018,400.96154 C 761.98764,398.68714 661.61399,368.51615 539.87444,368.75113 C 417.43467,368.98746 -9.1029415,386.95701 -9.1029415,393.25905 C -9.1029415,399.56108 -13.304299,383.45588 -12.604073,382.75565 z"
     id="path7662"
     sodipodi:nodetypes="ccsczzsc" />
  <g
     id="g7874"
     transform="matrix(0.6917986,0,0,0.6917986,367.76714,94.910399)">
    <path
       id="path7774"
       d="M 559.41121,313.84079 C 566.89609,313.99333 572.82129,321.19511 577.34352,326.5483 C 588.07693,317.51171 605.35164,327.1722 605.41991,342.87728 C 608.98335,363.65853 604.44561,384.96002 606.91657,405.86515 C 606.90642,418.8519 601.52698,434.94471 589.12285,436.93873 C 587.05386,438.34955 581.46927,435.30022 581.62329,438.80878 C 581.99395,446.67648 581.072,465.4767 577.16786,472.20127 C 573.26373,478.92584 566.37739,473.57475 558.96775,473.92954 C 550.41852,474.52372 543.8219,479.52321 538.91688,471.84062 C 534.01186,464.15802 533.59933,456.39743 535.96498,447.05303 C 535.54722,441.16377 534.14164,421.09642 532.55433,416.05055 C 520.11595,416.11491 506.69418,404.89844 507.4681,389.28676 C 505.9628,369.06478 505.03306,347.90376 510.21517,328.35903 C 515.97809,317.32613 531.19155,314.21897 539.01218,323.83219 C 543.95435,316.92648 551.69874,313.13043 559.41121,313.84079 z"
       style="fill:#000000;fill-opacity:1;fill-rule:evenodd;stroke:none;stroke-width:13.07824993;stroke-linecap:butt;stroke-linejoin:bevel;stroke-miterlimit:4;stroke-dasharray:26.15649986, 13.07824993;stroke-dashoffset:26.15649986;stroke-opacity:0"
       sodipodi:nodetypes="ccccccscscccccc" />
    <path
       id="path7776"
       d="M 558.45088,321.60431 C 566.47809,321.60431 572.94092,328.77563 572.94092,337.68281 L 572.94092,402.53504 L 576.90003,401.51075 L 580.51038,346.09823 C 580.51038,337.19106 586.71229,330.71995 591.79619,330.71995 C 596.88008,330.71995 600.95097,337.89128 600.95097,346.79846 L 600.95097,407.88334 C 600.95097,409.78093 600.77717,411.57784 600.43565,413.26526 C 600.36373,414.18039 600.12933,415.05508 599.73842,415.88895 C 598.15735,420.70898 595.20947,428.86342 591.79619,428.86342 L 575.0416,431.98839 L 571.8066,460.07106 C 571.8066,468.97824 566.4781,462.00534 558.45088,462.00534 C 550.42369,462.00534 542.82651,471.33561 542.82651,462.42843 L 540.45971,411.26182 L 530.92587,405.66001 C 523.12533,405.66001 514.71631,399.25712 514.36545,393.83824 C 513.44237,391.37216 512.88007,374.45496 512.88007,371.32352 L 513.5803,343.51721 C 513.5803,334.61003 519.29942,325.33802 524.65089,325.33802 C 530.00236,325.33802 535.02125,329.00821 535.02125,337.9154 L 538.17088,381.07461 L 543.96084,381.07461 L 543.96084,337.68281 C 543.96084,328.77564 550.42369,321.60431 558.45088,321.60431 z M 523.68083,334.45366 C 522.34296,334.45366 521.52826,341.6104 521.86201,350.49853 L 522.58953,369.87348 C 522.92328,378.7616 524.28307,385.91834 525.62093,385.91834 C 526.9588,385.91836 527.77351,378.7616 527.43976,369.87348 L 526.71223,350.49853 C 526.37848,341.61041 525.01871,334.45366 523.68083,334.45366 z M 565.69591,336.60644 C 564.35806,336.60644 563.30111,343.77777 563.30111,352.68494 L 563.30111,435.19662 C 563.30111,444.10379 564.35805,451.27512 565.69591,451.27512 C 567.03379,451.27512 568.12102,444.10379 568.12102,435.19662 L 568.12102,352.68494 C 568.12102,343.77776 567.03378,336.60644 565.69591,336.60644 z M 551.20586,336.60644 C 550.13557,336.60644 549.26578,343.77777 549.26578,352.68494 L 549.26578,435.19662 C 549.26578,444.10379 550.13558,451.27512 551.20586,451.27512 C 552.27615,451.27512 553.14595,444.10379 553.14595,435.19662 L 553.14595,352.68494 C 553.14595,343.77777 552.27615,336.60644 551.20586,336.60644 z M 595.10039,338.42284 C 593.76954,338.2869 591.95319,345.285 591.03834,354.13134 L 586.73376,395.74036 C 585.8189,404.58669 586.16075,411.81751 587.4916,411.95342 C 588.82246,412.08934 590.63881,405.09126 591.55366,396.24492 L 595.85824,354.63589 C 596.7731,345.78957 596.43124,338.55875 595.10039,338.42284 z"
       style="fill:#00aa00;fill-opacity:1;fill-rule:evenodd;stroke:none;stroke-width:13.07824993;stroke-linecap:butt;stroke-linejoin:bevel;stroke-miterlimit:4;stroke-dasharray:26.15649986, 13.07824993;stroke-dashoffset:26.15649986;stroke-opacity:0"
       sodipodi:nodetypes="cccccscccccccsccccccsccccccccsccccccsccccccsccccccsccc" />
    <rect
       transform="matrix(0,1,0.992873,-0.1191773,0,0)"
       ry="21.406212"
       rx="21.591507"
       y="498.37695"
       x="403.26266"
       height="17.291216"
       width="5.1518035"
       id="rect7778"
       style="fill:#000000;fill-opacity:1;fill-rule:evenodd;stroke:none;stroke-width:13.07824993;stroke-linecap:butt;stroke-linejoin:bevel;stroke-miterlimit:4;stroke-dasharray:26.15649986, 13.07824993;stroke-dashoffset:26.15649986;stroke-opacity:0" />
    <rect
       transform="matrix(0,1,0.9956729,-9.2927187e-2,0,0)"
       ry="21.433712"
       rx="21.591507"
       y="495.64496"
       x="406.41211"
       height="22.175652"
       width="5.1518035"
       id="rect7780"
       style="fill:#000000;fill-opacity:1;fill-rule:evenodd;stroke:none;stroke-width:13.07824993;stroke-linecap:butt;stroke-linejoin:bevel;stroke-miterlimit:4;stroke-dasharray:26.15649986, 13.07824993;stroke-dashoffset:26.15649986;stroke-opacity:0" />
    <rect
       transform="matrix(0,1,0.992873,-0.1191773,0,0)"
       ry="21.406212"
       rx="21.591507"
       y="499.41449"
       x="440.47931"
       height="17.291216"
       width="5.1518035"
       id="rect7782"
       style="fill:#000000;fill-opacity:1;fill-rule:evenodd;stroke:none;stroke-width:13.07824993;stroke-linecap:butt;stroke-linejoin:bevel;stroke-miterlimit:4;stroke-dasharray:26.15649986, 13.07824993;stroke-dashoffset:26.15649986;stroke-opacity:0" />
    <rect
       transform="matrix(0.403398,0.9150246,0.6482238,-0.7614499,0,0)"
       ry="20.83087"
       rx="21.180977"
       y="325.54343"
       x="713.30676"
       height="20.920475"
       width="4.6958685"
       id="rect7784"
       style="fill:#000000;fill-opacity:1;fill-rule:evenodd;stroke:none;stroke-width:13.07824993;stroke-linecap:butt;stroke-linejoin:bevel;stroke-miterlimit:4;stroke-dasharray:26.15649986, 13.07824993;stroke-dashoffset:26.15649986;stroke-opacity:0" />
    <rect
       transform="matrix(0.4932249,-0.8699018,0.7383687,0.6743972,0,0)"
       ry="21.492426"
       rx="21.6413"
       y="607.14215"
       x="99.257553"
       height="23.620932"
       width="4.9394484"
       id="rect7786"
       style="fill:#000000;fill-opacity:1;fill-rule:evenodd;stroke:none;stroke-width:13.07824993;stroke-linecap:butt;stroke-linejoin:bevel;stroke-miterlimit:4;stroke-dasharray:26.15649986, 13.07824993;stroke-dashoffset:26.15649986;stroke-opacity:0" />
    <rect
       transform="matrix(0,1,-0.9919929,-0.1262936,0,0)"
       ry="21.385788"
       rx="21.591507"
       y="-623.45099"
       x="277.49384"
       height="16.31691"
       width="5.1518035"
       id="rect7788"
       style="fill:#000000;fill-opacity:1;fill-rule:evenodd;stroke:none;stroke-width:13.07824993;stroke-linecap:butt;stroke-linejoin:bevel;stroke-miterlimit:4;stroke-dasharray:26.15649986, 13.07824993;stroke-dashoffset:26.15649986;stroke-opacity:0" />
    <rect
       transform="matrix(0,1,-0.9919929,-0.1262935,0,0)"
       ry="21.385788"
       rx="21.591507"
       y="-620.51385"
       x="294.35062"
       height="16.31691"
       width="5.1518035"
       id="rect7790"
       style="fill:#000000;fill-opacity:1;fill-rule:evenodd;stroke:none;stroke-width:13.07824993;stroke-linecap:butt;stroke-linejoin:bevel;stroke-miterlimit:4;stroke-dasharray:26.15649986, 13.07824993;stroke-dashoffset:26.15649986;stroke-opacity:0" />
    <rect
       transform="matrix(0,1,-0.9919929,-0.1262935,0,0)"
       ry="21.385788"
       rx="21.591507"
       y="-622.47192"
       x="314.71054"
       height="16.31691"
       width="5.1518035"
       id="rect7792"
       style="fill:#000000;fill-opacity:1;fill-rule:evenodd;stroke:none;stroke-width:13.07824993;stroke-linecap:butt;stroke-linejoin:bevel;stroke-miterlimit:4;stroke-dasharray:26.15649986, 13.07824993;stroke-dashoffset:26.15649986;stroke-opacity:0" />
    <rect
       transform="matrix(-0.3838156,0.9234098,-0.6259409,-0.7798705,0,0)"
       ry="20.500906"
       rx="20.991987"
       y="-829.53448"
       x="-248.81358"
       height="20.426329"
       width="4.6532269"
       id="rect7794"
       style="fill:#000000;fill-opacity:1;fill-rule:evenodd;stroke:none;stroke-width:13.07824993;stroke-linecap:butt;stroke-linejoin:bevel;stroke-miterlimit:4;stroke-dasharray:26.15649986, 13.07824993;stroke-dashoffset:26.15649986;stroke-opacity:0" />
    <rect
       transform="matrix(-0.3838156,-0.9234098,-0.6259409,0.7798705,0,0)"
       ry="20.500902"
       rx="20.991983"
       y="-498.21939"
       x="-784.0741"
       height="20.426329"
       width="4.6532269"
       id="rect7796"
       style="fill:#000000;fill-opacity:1;fill-rule:evenodd;stroke:none;stroke-width:13.07824993;stroke-linecap:butt;stroke-linejoin:bevel;stroke-miterlimit:4;stroke-dasharray:26.15649986, 13.07824993;stroke-dashoffset:26.15649986;stroke-opacity:0" />
    <g
       transform="matrix(0,-1.0347082,-0.8869146,0,309.52696,488.6331)"
       id="g7798">
      <rect
         style="opacity:1;fill:#000000;fill-opacity:1;fill-rule:evenodd;stroke:none;stroke-width:13.07824993;stroke-linecap:butt;stroke-linejoin:bevel;stroke-miterlimit:4;stroke-dasharray:26.15649986, 13.07824993;stroke-dashoffset:26.15649986;stroke-opacity:0"
         id="rect7800"
         width="4.9789915"
         height="19.45916"
         x="-317.30539"
         y="-178.42404"
         rx="20.867243"
         ry="24.090084"
         transform="matrix(0,1,-0.9947487,-0.1023475,0,0)" />
      <rect
         style="opacity:1;fill:#000000;fill-opacity:1;fill-rule:evenodd;stroke:none;stroke-width:13.07824993;stroke-linecap:butt;stroke-linejoin:bevel;stroke-miterlimit:4;stroke-dasharray:26.15649986, 13.07824993;stroke-dashoffset:26.15649986;stroke-opacity:0"
         id="rect7802"
         width="4.9789915"
         height="24.974489"
         x="-297.42981"
         y="-179.55255"
         rx="20.867243"
         ry="24.138906"
         transform="matrix(0,1,-0.9968153,-7.9745216e-2,0,0)" />
      <rect
         style="opacity:1;fill:#000000;fill-opacity:1;fill-rule:evenodd;stroke:none;stroke-width:13.07824993;stroke-linecap:butt;stroke-linejoin:bevel;stroke-miterlimit:4;stroke-dasharray:26.15649986, 13.07824993;stroke-dashoffset:26.15649986;stroke-opacity:0"
         id="rect7804"
         width="4.9789915"
         height="19.45916"
         x="-281.33713"
         y="-177.25644"
         rx="20.867243"
         ry="24.090084"
         transform="matrix(0,1,-0.9947487,-0.1023475,0,0)" />
      <rect
         style="opacity:1;fill:#000000;fill-opacity:1;fill-rule:evenodd;stroke:none;stroke-width:13.07824993;stroke-linecap:butt;stroke-linejoin:bevel;stroke-miterlimit:4;stroke-dasharray:26.15649986, 13.07824993;stroke-dashoffset:26.15649986;stroke-opacity:0"
         id="rect7806"
         width="4.6697679"
         height="21.698259"
         x="-306.9913"
         y="-46.300934"
         rx="21.063253"
         ry="21.605331"
         transform="matrix(-0.4573751,0.8892739,-0.7046765,-0.7095288,0,0)" />
      <rect
         style="opacity:1;fill:#000000;fill-opacity:1;fill-rule:evenodd;stroke:none;stroke-width:13.07824993;stroke-linecap:butt;stroke-linejoin:bevel;stroke-miterlimit:4;stroke-dasharray:26.15649986, 13.07824993;stroke-dashoffset:26.15649986;stroke-opacity:0"
         id="rect7808"
         width="4.9789915"
         height="24.974489"
         x="143.99376"
         y="-322.82776"
         rx="21.814545"
         ry="22.72402"
         transform="matrix(-0.5516965,-0.8340449,-0.7873936,0.6164506,0,0)" />
    </g>
  </g>
  <g
     id="g3355">
    <path
       sodipodi:nodetypes="ccccccccc"
       style="fill:#000000;fill-opacity:1;fill-rule:evenodd;stroke:none;stroke-width:1px;stroke-linecap:butt;stroke-linejoin:miter;stroke-opacity:1"
       d="M 49.450563,260.0872 L 49.04369,403.30607 L 51.484919,510.31335 L 46.195589,520.26371 L 16.08897,520.27696 L 13.238973,452.13068 L 16.08708,264.56279 L 19.748925,258.05284 L 49.450563,260.0872 z"
       id="path3333" />
    <path
       sodipodi:nodetypes="ccccccccc"
       style="fill:#a05a2c;fill-opacity:1;fill-rule:evenodd;stroke:none;stroke-width:1px;stroke-linecap:butt;stroke-linejoin:miter;stroke-opacity:1"
       d="M 46.304995,508.91002 C 45.375187,479.21173 44.880674,449.4484 44.183471,419.72449 C 44.294905,380.16134 44.406334,340.5982 44.517768,301.03506 C 37.100288,300.53209 29.682812,300.02913 22.265332,299.52616 C 20.330969,302.11533 19.404944,305.2828 19.916052,308.49145 C 19.226738,360.6131 18.110908,412.73622 17.733614,464.85762 C 18.575198,482.1933 19.416781,499.52897 20.258364,516.86464 C 27.748397,516.04904 36.245593,518.81945 43.613744,517.78986 C 44.889394,516.07085 46.581209,511.38885 46.304995,508.91002 z"
       id="path3335" />
  </g>
  <g
     id="g3351"
     transform="matrix(-1,0,0,1,931.91246,1.4004525)">
    <path
       sodipodi:nodetypes="ccccccccc"
       style="fill:#000000;fill-opacity:1;fill-rule:evenodd;stroke:none;stroke-width:1px;stroke-linecap:butt;stroke-linejoin:miter;stroke-opacity:1"
       d="M 483.39496,264.9227 L 482.98809,408.14156 L 485.42932,515.14884 L 480.54497,520.23948 L 450.23586,520.45522 L 447.18337,456.96617 L 450.03148,269.39829 L 453.69333,262.88834 L 483.39496,264.9227 z"
       id="path3343" />
    <path
       sodipodi:nodetypes="ccccccccc"
       style="fill:#a05a2c;fill-opacity:1;fill-rule:evenodd;stroke:none;stroke-width:1px;stroke-linecap:butt;stroke-linejoin:miter;stroke-opacity:1"
       d="M 481.71877,510.18965 C 480.7172,478.19953 480.18453,446.13935 479.43352,414.12163 C 479.55355,371.50538 479.67359,328.88913 479.79362,286.27287 C 471.80373,285.7311 463.81384,285.18933 455.82395,284.64755 C 453.74031,287.43652 452.74282,290.84843 453.29337,294.30469 C 452.55087,350.44859 451.34893,406.59408 450.94252,462.73771 C 451.84905,481.41118 452.1481,498.86974 453.05464,517.5432 C 461.12268,516.66466 470.01062,517.37395 477.94737,516.26491 C 479.32146,514.41324 482.0163,512.85978 481.71877,510.18965 z"
       id="path3345" />
  </g>
  <path
     sodipodi:nodetypes="csssssssssssssssc"
     id="path4674"
     d="M -103.38172,381.68222 C -103.38172,386.36883 -103.12211,392.20219 -104.87684,396.26477 C -106.63156,400.32735 -109.58059,404.07907 -112.71743,407.15253 C -115.85427,410.226 -120.59503,411.19404 -124.74137,412.91332 C -128.88772,414.63259 -134.16748,417.17054 -138.95073,417.17054 C -143.73397,417.17054 -146.99519,414.33988 -151.14154,412.62061 C -155.28788,410.90133 -157.02636,408.42804 -160.1632,405.35457 C -163.30004,402.28111 -168.15698,398.90062 -169.9117,394.83804 C -171.66643,390.77546 -174.37416,384.79798 -174.37416,380.11137 C -174.37416,375.42475 -172.65418,371.79242 -170.89945,367.72983 C -169.14473,363.66725 -165.68654,360.61959 -162.5497,357.54612 C -159.41286,354.47265 -153.96419,352.39468 -149.81785,350.6754 C -145.6715,348.95613 -141.45224,346.94031 -136.669,346.94031 C -131.88575,346.94031 -129.27809,349.32944 -125.13174,351.04871 C -120.9854,352.76799 -116.9128,354.88302 -113.77596,357.95649 C -110.63912,361.02996 -107.16023,366.16179 -105.40551,370.22437 C -103.65078,374.28696 -102.91543,376.99345 -102.91543,381.68007 C -102.91543,381.68007 -103.67997,384.58009 -103.67997,384.58009"
     style="fill:#000000;fill-opacity:1;fill-rule:evenodd;stroke:none;stroke-width:8.69999981;stroke-linecap:butt;stroke-linejoin:bevel;stroke-miterlimit:4;stroke-dasharray:8.69999981, 26.09999943;stroke-dashoffset:0;stroke-opacity:1" />
  <g
     id="g4761"
     transform="translate(142.84615,-494.35974)">
    <path
       style="fill:#000000;fill-opacity:1;fill-rule:evenodd;stroke:none;stroke-width:1px;stroke-linecap:butt;stroke-linejoin:miter;stroke-opacity:1"
       d="M 333.65809,834.12762 C 333.65809,834.12762 306.27711,834.69845 306.27711,834.69845 C 306.27711,834.69845 277.10442,836.30724 277.10442,836.30724 C 277.10442,836.30724 248.06914,838.78873 248.06914,838.78873 C 248.06914,838.78873 223.28888,837.06573 223.28888,837.06573 C 223.28888,837.06573 197.9039,841.92761 197.9039,841.92761 C 197.9039,841.92761 169.24167,840.62433 169.24167,840.62433 C 169.24167,840.62433 141.20008,843.47999 141.20008,843.47999 C 141.20008,843.47999 114.55513,844.12444 114.55513,844.12444 C 114.55513,844.12444 85.601916,844.03608 85.601916,844.03608 C 85.601916,844.03608 56.10651,845.97291 56.10651,845.97291 C 56.10651,845.97291 25.86993,845.82324 25.86993,845.82324 C 25.86993,845.82324 -3.43972,847.31777 -3.43972,847.31777 C -3.43972,847.31777 -33.84643,845.95134 -33.84643,845.95134 C -33.84643,845.95134 -63.15036,847.75731 -63.15036,847.75731 C -63.15036,847.75731 -90.52484,846.43624 -90.52484,846.43624 C -90.52484,846.43624 -121.4832,846.96108 -121.4832,846.96108 C -121.4832,846.96108 -129.23412,853.27445 -129.23412,853.27445 C -129.23412,853.27445 -134.23005,909.82094 -134.23005,909.82094 C -134.23005,909.82094 -103.38255,911.50879 -103.38255,911.50879 C -103.38255,911.50879 -70.85263,909.11119 -70.85263,909.11119 C -70.85263,909.11119 -42.39644,911.88756 -42.39644,911.88756 C -42.39644,911.88756 -11.63975,912.17888 -11.63975,912.17888 C -11.63975,912.17888 28.40295,912.36949 28.40295,912.36949 C 28.40295,912.36949 72.22725,906.64795 72.22725,906.64795 C 72.22725,906.64795 113.98542,906.90921 113.98542,906.90921 C 113.98542,906.90921 153.84935,902.15024 153.84935,902.15024 C 153.84935,902.15024 198.55266,898.71332 198.55266,898.71332 C 198.55266,898.71332 242.70916,898.6874 242.70916,898.6874 C 242.70916,898.6874 284.8003,895.9695 284.8003,895.9695 C 284.8003,895.9695 326.37497,893.77023 326.37497,893.77023 C 326.37497,893.77023 338.23006,887.02977 338.23006,887.02977 C 338.23006,887.02977 332.72489,831.63051 332.72489,831.63051 C 332.72489,831.63051 332.57393,831.82406 332.57393,831.82406"
       id="path4487"
       sodipodi:nodetypes="ccccccccccccccccccccccccccccccccc" />
    <path
       style="fill:#784421;fill-opacity:1;fill-rule:evenodd;stroke:none;stroke-width:1px;stroke-linecap:butt;stroke-linejoin:miter;stroke-opacity:1"
       d="M -112.39124,849.70653 C -104.46849,849.65782 -97.21425,850.05723 -88.63233,849.95469 C -80.05042,849.85215 -70.98802,850.14628 -61.93511,850.00306 C -52.8822,849.85985 -43.97444,849.68619 -34.63871,849.51545 C -25.30298,849.34472 -13.42077,853.1164 -3.9904,852.93131 C 5.43998,852.74622 17.29654,851.20581 26.6334,851.01952 C 35.97025,850.83323 42.0474,849.8839 51.10256,849.70957 C 60.15772,849.53523 68.49899,849.28732 77.08428,849.1381 C 85.66958,848.98888 94.8383,849.478 102.76556,849.36705 C 113.30653,848.94241 120.93234,847.72868 130.81707,847.33139 C 140.70179,846.93409 148.9246,847.75634 158.34057,847.37858 C 167.75655,847.00081 178.65385,843.74736 187.78857,843.38132 C 196.92329,843.01527 206.11824,843.1819 215.15921,842.81976 C 224.20018,842.45762 234.63297,843.09846 243.76769,842.73241 C 252.90241,842.36636 259.93737,840.11885 269.35334,839.74109 C 278.76931,839.36332 288.92994,838.19511 298.81466,837.79781 C 308.69939,837.40052 317.3425,841.10106 327.88347,840.67642 C 329.54801,856.44808 332.5907,869.28257 334.25524,885.05423 C 328.89041,889.38448 322.63382,891.82392 315.75311,890.99065 C 301.87154,891.69464 285.21479,892.95958 271.33401,893.68714 C 257.45324,894.41469 246.82345,892.10067 232.94314,892.84209 C 219.06283,893.58351 203.31575,896.62149 189.43557,897.36707 C 175.55538,898.11265 163.72553,896.70974 149.84513,897.44978 C 135.96473,898.18981 121.68063,899.8771 107.79968,900.60189 C 93.91873,901.32669 79.91182,904.04912 66.02998,904.74897 C 52.14815,905.44882 39.41656,907.1089 25.53351,907.77409 C 11.65045,908.43929 -3.8683,906.74818 -17.75292,907.36903 C -36.26373,907.16426 -54.17174,907.40396 -72.68256,907.19919 C -91.19338,906.99441 -109.01446,907.51203 -127.52527,907.30726 C -126.38481,891.27563 -126.46903,871.25668 -124.8627,855.46778 C -121.30016,852.6112 -119.59509,851.77904 -114.28891,852.16988 C -114.28891,852.16988 -113.69035,848.55933 -113.69035,848.55933"
       id="path4489"
       sodipodi:nodetypes="cssssssscssssssscccssssssscscccc" />
  </g>
  <g
     id="g4875"
     transform="matrix(-1,0,0,-1,929.85612,608.47382)">
    <path
       sodipodi:nodetypes="ccccccccc"
       style="fill:#000000;fill-opacity:1;fill-rule:evenodd;stroke:none;stroke-width:1px;stroke-linecap:butt;stroke-linejoin:miter;stroke-opacity:1"
       d="M 483.39496,264.9227 L 482.98809,408.14156 L 485.42932,515.14884 L 480.54497,520.23948 L 450.23586,520.45522 L 447.18337,456.96617 L 450.03148,269.39829 L 453.69333,262.88834 L 483.39496,264.9227 z"
       id="path4877" />
    <path
       sodipodi:nodetypes="ccccccccc"
       style="fill:#a05a2c;fill-opacity:1;fill-rule:evenodd;stroke:none;stroke-width:1px;stroke-linecap:butt;stroke-linejoin:miter;stroke-opacity:1"
       d="M 481.71877,510.18965 C 480.7172,478.19953 480.18453,446.13935 479.43352,414.12163 C 479.55355,371.50538 479.67359,328.88913 479.79362,286.27287 C 471.80373,285.7311 463.81384,285.18933 455.82395,284.64755 C 453.74031,287.43652 452.74282,290.84843 453.29337,294.30469 C 452.55087,350.44859 451.34893,406.59408 450.94252,462.73771 C 451.84905,481.41118 452.1481,498.86974 453.05464,517.5432 C 461.12268,516.66466 470.01062,517.37395 477.94737,516.26491 C 479.32146,514.41324 482.0163,512.85978 481.71877,510.18965 z"
       id="path4879" />
  </g>
  <g
     transform="matrix(1,0,0,-1,87.50107,945.50946)"
     id="g4211">
    <path
       style="fill:#000000;fill-opacity:1;fill-rule:evenodd;stroke:none;stroke-width:1px;stroke-linecap:butt;stroke-linejoin:miter;stroke-opacity:1"
       d="M 359.65277,577.01577 C 359.65277,577.01577 300.48991,581.27739 300.48991,581.27739 C 300.48991,581.27739 241.88294,584.65204 241.88294,584.65204 C 241.88294,584.65204 185.1359,585.43145 185.1359,585.43145 C 185.1359,585.43145 123.643,585.77247 123.643,585.77247 C 123.643,585.77247 75.299302,586.51901 75.299302,586.51901 C 75.299302,586.51901 29.053967,586.86879 29.053967,586.86879 C 29.053967,586.86879 -18.30934,588.54713 -18.30934,588.54713 C -18.30934,588.54713 -68.825682,587.9312 -68.825682,587.9312 C -68.825682,587.9312 -78.914717,598.71491 -78.914717,598.71491 C -78.914717,598.71491 -82.997857,651.55837 -82.997857,651.55837 C -82.997857,651.55837 -21.295902,650.90909 -21.295902,650.90909 C -21.295902,650.90909 38.197231,652.69928 38.197231,652.69928 C 38.197231,652.69928 80.361734,652.72264 80.361734,652.72264 C 80.361734,652.72264 123.83611,650.41176 123.83611,650.41176 C 123.83611,650.41176 166.35624,648.63073 166.35624,648.63073 C 166.35624,648.63073 209.61604,646.08943 209.61604,646.08943 C 209.61604,646.08943 251.04677,646.43958 251.04677,646.43958 C 251.04677,646.43958 292.31814,643.23514 292.31814,643.23514 C 292.31814,643.23514 336.03036,640.64857 336.03036,640.64857 C 336.03036,640.64857 380.53459,639.25664 380.53459,639.25664 C 380.53459,639.25664 389.68803,632.08142 389.68803,632.08142 C 389.68803,632.08142 386.00977,604.27727 386.00977,604.27727 C 385.53817,604.303 385.14271,603.22132 384.6649,603.22132 C 371.08763,603.22132 360.53674,592.92892 359.01347,579.39204 C 359.01347,579.39204 358.42915,579.62555 358.42915,579.62555 M -31.200967,602.08967 C -21.660077,602.08967 -12.605521,610.99534 -12.605521,621.3881 C -12.605521,631.78086 -20.518831,640.06928 -30.059721,640.06928 C -39.600623,640.06927 -44.494609,629.99734 -44.494609,619.60458 C -44.49461,609.21182 -42.156557,602.11002 -32.615668,602.11002 C -32.615668,602.11002 -32.836789,603.93278 -32.836789,603.93278"
       id="path4213"
       sodipodi:nodetypes="cccccccccccccccccccccccscccssccc" />
    <path
       style="fill:#a05a2c;fill-opacity:1;fill-rule:evenodd;stroke:none;stroke-width:1px;stroke-linecap:butt;stroke-linejoin:miter;stroke-opacity:1"
       d="M 355.95139,583.83974 C 346.42912,584.13226 338.53928,582.60659 329.01712,582.89947 C 319.49497,583.19234 309.88376,584.85237 300.36168,585.14549 C 290.8396,585.43861 280.60961,584.60879 271.08758,584.90204 C 261.56554,585.19529 252.88867,587.88414 243.36663,588.17741 C 233.8446,588.47067 225.96657,586.80087 216.4445,587.09405 C 206.92243,587.38722 195.64902,587.19949 186.12687,587.49246 C 176.60473,587.78543 167.46044,588.05197 157.93818,588.34462 C 148.41593,588.63727 138.29288,588.07713 128.77048,588.36935 C 120.84252,588.40431 112.32071,589.45556 104.39144,589.50157 C 96.462164,589.54759 92.587215,591.92101 84.657175,591.9727 C 76.727146,592.02438 65.166022,591.06664 57.235789,591.11862 C 49.305557,591.1706 41.497888,591.14962 33.568015,591.19652 C 25.638141,591.24341 16.040958,591.45177 8.1120009,591.48821 C 0.18304395,591.52464 -6.0239948,589.49211 -13.951476,589.51271 C -21.878959,589.5333 -29.246739,591.20385 -37.172188,591.20322 C -45.097637,591.20259 -52.931186,591.04823 -60.854043,591.021 C -63.505138,590.80016 -65.586867,591.55128 -67.436311,593.19902 C -69.285756,594.84675 -72.40499,597.08304 -74.199865,598.4942 C -75.078665,606.38059 -75.858923,614.26988 -76.375902,622.35048 C -76.892881,630.43107 -76.671729,639.12768 -77.318764,647.13766 C -68.064764,647.32875 -61.193208,648.39671 -51.937849,648.58669 C -42.682491,648.77667 -29.257662,648.15245 -20.00185,648.34206 C -10.746038,648.53167 -2.773071,648.33035 6.482289,648.52033 C 15.737649,648.71031 24.952184,647.85725 34.206186,648.04834 C 41.151152,647.80447 47.335848,647.86567 54.280377,647.61017 C 61.224905,647.35467 68.594446,647.32921 75.538586,647.06327 C 82.482724,646.79734 90.364123,646.81874 97.307923,646.54358 C 104.25172,646.26842 107.41417,646.3323 114.35768,646.04912 C 121.30119,645.76594 130.55453,645.28117 137.49779,644.99117 C 144.44106,644.70117 150.10023,644.61415 157.04331,644.31854 C 163.98639,644.02293 172.39657,644.35842 179.3395,644.0584 C 186.28243,643.75839 192.24496,643.12376 199.1878,642.82054 C 206.13064,642.51733 214.97487,642.05302 221.91766,641.74781 C 228.86046,641.44259 235.40672,638.90822 242.34951,638.60222 C 249.29231,638.29621 255.90452,639.718 262.84737,639.41241 C 269.79022,639.10682 277.26041,639.38819 284.20336,639.08422 C 291.14631,638.78025 297.51773,637.70741 304.46082,637.40626 C 311.40392,637.10511 316.91497,638.09763 323.85827,637.8005 C 330.80157,637.50338 339.36109,636.50018 346.30464,636.20829 C 353.24818,635.9164 359.87352,635.88089 366.81736,635.59544 C 370.25355,636.04503 373.75471,636.00978 376.9699,635.04939 C 380.18509,634.08901 380.9052,632.56802 383.60825,630.4287 C 383.23843,626.57068 385.54446,621.46194 385.17538,617.60233 C 384.80629,613.74272 384.28521,611.38227 383.91263,607.52249 C 383.80425,607.52519 385.17311,604.20312 385.06339,604.21026 C 384.95368,604.2174 382.8999,605.57561 382.7909,605.57561 C 376.09937,605.57561 371.22447,603.98488 366.56428,599.76696 C 361.90409,595.54904 357.83342,588.60195 356.94697,581.97362 C 356.94697,581.97362 356.30621,584.46637 356.30621,584.46637 M -29.479825,598.54399 C -23.79589,598.54399 -18.936037,601.16633 -15.208584,605.22785 C -11.481131,609.28937 -6.4303744,615.7507 -6.4303724,621.94213 C -6.4303704,628.13356 -9.8387014,632.1635 -13.566156,636.22501 C -17.293611,640.28653 -23.983885,643.33025 -29.66782,643.33025 C -35.351761,643.33025 -39.728738,638.40086 -43.45619,634.33935 C -47.183643,630.27783 -50.746077,626.88717 -50.746077,620.69574 C -50.746077,614.50431 -48.606568,608.93804 -44.879114,604.87652 C -41.15166,600.815 -35.94461,596.5018 -30.260676,596.5018"
       id="path4215"
       sodipodi:nodetypes="cssssssscssssssscscscssscssssssssssssssscscscssscccsssssscc" />
  </g>
  <g
     transform="translate(161.74954,-327.99918)"
     id="g4479">
    <path
       style="fill:#000000;fill-opacity:1;fill-rule:evenodd;stroke:none;stroke-width:1px;stroke-linecap:butt;stroke-linejoin:miter;stroke-opacity:1"
       d="M -149.56147,561.76706 C -149.56147,561.76706 -122.18049,562.33789 -122.18049,562.33789 C -122.18049,562.33789 -93.007795,563.94668 -93.007795,563.94668 C -93.007795,563.94668 -63.972523,566.42817 -63.972523,566.42817 C -63.972523,566.42817 -39.192255,564.70517 -39.192255,564.70517 C -39.192255,564.70517 -13.807276,569.56705 -13.807276,569.56705 C -13.807276,569.56705 14.854947,568.26377 14.854947,568.26377 C 14.854947,568.26377 42.89654,571.11943 42.89654,571.11943 C 42.89654,571.11943 69.541488,571.76388 69.541488,571.76388 C 69.541488,571.76388 98.494704,571.67552 98.494704,571.67552 C 98.494704,571.67552 127.99011,573.61235 127.99011,573.61235 C 127.99011,573.61235 158.22669,573.46268 158.22669,573.46268 C 158.22669,573.46268 187.53634,574.95721 187.53634,574.95721 C 187.53634,574.95721 217.94305,573.59078 217.94305,573.59078 C 217.94305,573.59078 247.24698,575.39675 247.24698,575.39675 C 247.24698,575.39675 274.62146,574.07568 274.62146,574.07568 C 274.62146,574.07568 305.57982,574.60052 305.57982,574.60052 C 305.57982,574.60052 313.33074,580.91389 313.33074,580.91389 C 313.33074,580.91389 318.32667,637.46038 318.32667,637.46038 C 318.32667,637.46038 287.47917,639.14823 287.47917,639.14823 C 287.47917,639.14823 254.94925,636.75063 254.94925,636.75063 C 254.94925,636.75063 226.49306,639.527 226.49306,639.527 C 226.49306,639.527 195.73637,639.81832 195.73637,639.81832 C 195.73637,639.81832 155.69367,640.00893 155.69367,640.00893 C 155.69367,640.00893 111.86937,634.28739 111.86937,634.28739 C 111.86937,634.28739 70.111199,634.54865 70.111199,634.54865 C 70.111199,634.54865 30.247268,629.78968 30.247268,629.78968 C 30.247268,629.78968 -14.456043,626.35276 -14.456043,626.35276 C -14.456043,626.35276 -58.612541,626.32684 -58.612541,626.32684 C -58.612541,626.32684 -100.70368,623.60894 -100.70368,623.60894 C -100.70368,623.60894 -142.27835,621.40967 -142.27835,621.40967 C -142.27835,621.40967 -154.13344,614.66921 -154.13344,614.66921 C -154.13344,614.66921 -148.62827,559.26995 -148.62827,559.26995 C -148.62827,559.26995 -148.47731,559.4635 -148.47731,559.4635"
       id="path4481"
       sodipodi:nodetypes="ccccccccccccccccccccccccccccccccc" />
    <path
       style="fill:#a05a2c;fill-opacity:1;fill-rule:evenodd;stroke:none;stroke-width:1px;stroke-linecap:butt;stroke-linejoin:miter;stroke-opacity:1"
       d="M 296.48786,577.34597 C 288.56511,577.29726 281.31087,577.69667 272.72895,577.59413 C 264.14704,577.49159 255.08464,577.78572 246.03173,577.6425 C 236.97882,577.49929 228.07106,577.32563 218.73533,577.15489 C 209.3996,576.98416 197.51739,580.75584 188.08702,580.57075 C 178.65664,580.38566 166.80008,578.84525 157.46322,578.65896 C 148.12637,578.47267 142.04922,577.52334 132.99406,577.34901 C 123.9389,577.17467 115.59763,576.92676 107.01234,576.77754 C 98.42704,576.62832 89.25832,577.11744 81.33106,577.00649 C 70.79009,576.58185 63.16428,575.36812 53.27955,574.97083 C 43.39483,574.57353 35.17202,575.39578 25.75605,575.01802 C 16.34007,574.64025 5.44277,571.3868 -3.69195,571.02076 C -12.82667,570.65471 -22.02162,570.82134 -31.06259,570.4592 C -40.103564,570.09706 -50.536345,570.7379 -59.671067,570.37185 C -68.805789,570.0058 -75.840746,567.75829 -85.256718,567.38053 C -94.67269,567.00276 -104.83332,565.83455 -114.71804,565.43725 C -124.60277,565.03996 -133.24588,568.7405 -143.78685,568.31586 C -145.45139,584.08752 -148.49408,596.92201 -150.15862,612.69367 C -144.79379,617.02392 -138.5372,619.46336 -131.65649,618.63009 C -117.77492,619.33408 -101.11817,620.59902 -87.237394,621.32658 C -73.356622,622.05413 -62.726829,619.74011 -48.846518,620.48153 C -34.966207,621.22295 -19.21913,624.26093 -5.33895,625.00651 C 8.54124,625.75209 20.37109,624.34918 34.25149,625.08922 C 48.13189,625.82925 62.41599,627.51654 76.29694,628.24133 C 90.17789,628.96613 104.1848,631.68856 118.06664,632.38841 C 131.94847,633.08826 144.68006,634.74834 158.56311,635.41353 C 172.44617,636.07873 187.96492,634.38762 201.84954,635.00847 C 220.36035,634.8037 238.26836,635.0434 256.77918,634.83863 C 275.29,634.63385 293.11108,635.15147 311.62189,634.9467 C 310.48143,618.91507 310.56565,598.89612 308.95932,583.10722 C 305.39678,580.25064 303.69171,579.41848 298.38553,579.80932 C 298.38553,579.80932 297.78697,576.19877 297.78697,576.19877"
       id="path4483"
       sodipodi:nodetypes="cssssssscssssssscccssssssscscccc" />
  </g>
  <g
     transform="matrix(-1,0,0,-1,395.19124,837.50946)"
     id="g4205">
    <path
       style="fill:#000000;fill-opacity:1;fill-rule:evenodd;stroke:none;stroke-width:1px;stroke-linecap:butt;stroke-linejoin:miter;stroke-opacity:1"
       d="M 359.65277,577.01577 C 359.65277,577.01577 300.48991,581.27739 300.48991,581.27739 C 300.48991,581.27739 241.88294,584.65204 241.88294,584.65204 C 241.88294,584.65204 185.1359,585.43145 185.1359,585.43145 C 185.1359,585.43145 123.643,585.77247 123.643,585.77247 C 123.643,585.77247 75.299302,586.51901 75.299302,586.51901 C 75.299302,586.51901 29.053967,586.86879 29.053967,586.86879 C 29.053967,586.86879 -18.30934,588.54713 -18.30934,588.54713 C -18.30934,588.54713 -68.825682,587.9312 -68.825682,587.9312 C -68.825682,587.9312 -78.914717,598.71491 -78.914717,598.71491 C -78.914717,598.71491 -82.997857,651.55837 -82.997857,651.55837 C -82.997857,651.55837 -21.295902,650.90909 -21.295902,650.90909 C -21.295902,650.90909 38.197231,652.69928 38.197231,652.69928 C 38.197231,652.69928 80.361734,652.72264 80.361734,652.72264 C 80.361734,652.72264 123.83611,650.41176 123.83611,650.41176 C 123.83611,650.41176 166.35624,648.63073 166.35624,648.63073 C 166.35624,648.63073 209.61604,646.08943 209.61604,646.08943 C 209.61604,646.08943 251.04677,646.43958 251.04677,646.43958 C 251.04677,646.43958 292.31814,643.23514 292.31814,643.23514 C 292.31814,643.23514 336.03036,640.64857 336.03036,640.64857 C 336.03036,640.64857 380.53459,639.25664 380.53459,639.25664 C 380.53459,639.25664 389.68803,632.08142 389.68803,632.08142 C 389.68803,632.08142 386.00977,604.27727 386.00977,604.27727 C 385.53817,604.303 385.14271,603.22132 384.6649,603.22132 C 371.08763,603.22132 360.53674,592.92892 359.01347,579.39204 C 359.01347,579.39204 358.42915,579.62555 358.42915,579.62555 M 15.714191,602.08967 C 25.255081,602.08967 34.309637,610.99534 34.309637,621.3881 C 34.309637,631.78086 26.396327,640.06928 16.855437,640.06928 C 7.3145357,640.06927 2.4205494,629.99734 2.4205494,619.60458 C 2.4205484,609.21182 4.7586016,602.11002 14.29949,602.11002 C 14.29949,602.11002 14.078369,603.93278 14.078369,603.93278"
       id="path4207"
       sodipodi:nodetypes="cccccccccccccccccccccccsccsssc" />
    <path
       style="fill:#a05a2c;fill-opacity:1;fill-rule:evenodd;stroke:none;stroke-width:1px;stroke-linecap:butt;stroke-linejoin:miter;stroke-opacity:1"
       d="M 355.95139,583.83974 C 346.42912,584.13226 338.53928,582.60659 329.01712,582.89947 C 319.49497,583.19234 309.88376,584.85237 300.36168,585.14549 C 290.8396,585.43861 280.60961,584.60879 271.08758,584.90204 C 261.56554,585.19529 252.88867,587.88414 243.36663,588.17741 C 233.8446,588.47067 225.96657,586.80087 216.4445,587.09405 C 206.92243,587.38722 195.64902,587.19949 186.12687,587.49246 C 176.60473,587.78543 167.46044,588.05197 157.93818,588.34462 C 148.41593,588.63727 138.29288,588.07713 128.77048,588.36935 C 120.84252,588.40431 112.32071,589.45556 104.39144,589.50157 C 96.462164,589.54759 92.587215,591.92101 84.657175,591.9727 C 76.727146,592.02438 65.166022,591.06664 57.235789,591.11862 C 49.305557,591.1706 41.497888,591.14962 33.568015,591.19652 C 25.638141,591.24341 16.040958,591.45177 8.1120009,591.48821 C 0.18304395,591.52464 -6.0239948,589.49211 -13.951476,589.51271 C -21.878959,589.5333 -29.246739,591.20385 -37.172188,591.20322 C -45.097637,591.20259 -52.931186,591.04823 -60.854043,591.021 C -63.505138,590.80016 -65.586867,591.55128 -67.436311,593.19902 C -69.285756,594.84675 -72.40499,597.08304 -74.199865,598.4942 C -75.078665,606.38059 -75.858923,614.26988 -76.375902,622.35048 C -76.892881,630.43107 -76.671729,639.12768 -77.318764,647.13766 C -68.064764,647.32875 -61.193208,648.39671 -51.937849,648.58669 C -42.682491,648.77667 -29.257662,648.15245 -20.00185,648.34206 C -10.746038,648.53167 -2.773071,648.33035 6.482289,648.52033 C 15.737649,648.71031 24.952184,647.85725 34.206186,648.04834 C 41.151152,647.80447 47.335848,647.86567 54.280377,647.61017 C 61.224905,647.35467 68.594446,647.32921 75.538586,647.06327 C 82.482724,646.79734 90.364123,646.81874 97.307923,646.54358 C 104.25172,646.26842 107.41417,646.3323 114.35768,646.04912 C 121.30119,645.76594 130.55453,645.28117 137.49779,644.99117 C 144.44106,644.70117 150.10023,644.61415 157.04331,644.31854 C 163.98639,644.02293 172.39657,644.35842 179.3395,644.0584 C 186.28243,643.75839 192.24496,643.12376 199.1878,642.82054 C 206.13064,642.51733 214.97487,642.05302 221.91766,641.74781 C 228.86046,641.44259 235.40672,638.90822 242.34951,638.60222 C 249.29231,638.29621 255.90452,639.718 262.84737,639.41241 C 269.79022,639.10682 277.26041,639.38819 284.20336,639.08422 C 291.14631,638.78025 297.51773,637.70741 304.46082,637.40626 C 311.40392,637.10511 316.91497,638.09763 323.85827,637.8005 C 330.80157,637.50338 339.36109,636.50018 346.30464,636.20829 C 353.24818,635.9164 359.87352,635.88089 366.81736,635.59544 C 370.25355,636.04503 373.75471,636.00978 376.9699,635.04939 C 380.18509,634.08901 380.9052,632.56802 383.60825,630.4287 C 383.23843,626.57068 385.54446,621.46194 385.17538,617.60233 C 384.80629,613.74272 384.28521,611.38227 383.91263,607.52249 C 383.80425,607.52519 385.17311,604.20312 385.06339,604.21026 C 384.95368,604.2174 382.8999,605.57561 382.7909,605.57561 C 376.09937,605.57561 371.22447,603.98488 366.56428,599.76696 C 361.90409,595.54904 357.83342,588.60195 356.94697,581.97362 C 356.94697,581.97362 356.30621,584.46637 356.30621,584.46637 M 17.435333,598.54399 C 23.119268,598.54399 27.979121,601.16633 31.706574,605.22785 C 35.434027,609.28937 40.484784,615.7507 40.484786,621.94213 C 40.484788,628.13356 37.076457,632.1635 33.349002,636.22501 C 29.621547,640.28653 22.931273,643.33025 17.247338,643.33025 C 11.563397,643.33025 7.1864202,638.40086 3.4589682,634.33935 C -0.26848477,630.27783 -3.8309189,626.88717 -3.8309189,620.69574 C -3.8309189,614.50431 -1.6914095,608.93804 2.0360445,604.87652 C 5.7634985,600.815 10.970548,596.5018 16.654482,596.5018 C 16.654482,596.5018 19.284977,594.08168 19.284977,594.08168"
       id="path4209"
       sodipodi:nodetypes="cssssssscssssssscscscssscssssssssssssssscscscsssccsssssssc" />
  </g>
  <g
     id="g4755"
     transform="translate(142.84615,-494.35974)">
    <path
       style="fill:#000000;fill-opacity:1;fill-rule:evenodd;stroke:none;stroke-width:1px;stroke-linecap:butt;stroke-linejoin:miter;stroke-opacity:1"
       d="M 302.65277,630.01577 C 302.65277,630.01577 243.48991,634.27739 243.48991,634.27739 C 243.48991,634.27739 184.88294,637.65204 184.88294,637.65204 C 184.88294,637.65204 128.1359,638.43145 128.1359,638.43145 C 128.1359,638.43145 66.643,638.77247 66.643,638.77247 C 66.643,638.77247 18.299302,639.51901 18.299302,639.51901 C 18.299302,639.51901 -27.946033,639.86879 -27.946033,639.86879 C -27.946033,639.86879 -75.30934,641.54713 -75.30934,641.54713 C -75.30934,641.54713 -125.82568,640.9312 -125.82568,640.9312 C -125.82568,640.9312 -135.91472,651.71491 -135.91472,651.71491 C -135.91472,651.71491 -139.99786,704.55837 -139.99786,704.55837 C -139.99786,704.55837 -78.295902,703.90909 -78.295902,703.90909 C -78.295902,703.90909 -18.802769,705.69928 -18.802769,705.69928 C -18.802769,705.69928 23.361734,705.72264 23.361734,705.72264 C 23.361734,705.72264 66.83611,703.41176 66.83611,703.41176 C 66.83611,703.41176 109.35624,701.63073 109.35624,701.63073 C 109.35624,701.63073 152.61604,699.08943 152.61604,699.08943 C 152.61604,699.08943 194.04677,699.43958 194.04677,699.43958 C 194.04677,699.43958 235.31814,696.23514 235.31814,696.23514 C 235.31814,696.23514 279.03036,693.64857 279.03036,693.64857 C 279.03036,693.64857 323.53459,692.25664 323.53459,692.25664 C 323.53459,692.25664 332.68803,685.08142 332.68803,685.08142 C 332.68803,685.08142 329.00977,657.27727 329.00977,657.27727 C 328.53817,657.303 328.14271,656.22132 327.6649,656.22132 C 314.08763,656.22132 303.53674,645.92892 302.01347,632.39204 C 302.01347,632.39204 301.42915,632.62555 301.42915,632.62555 M -41.285809,655.08967 C -31.744919,655.08967 -22.690363,663.99534 -22.690363,674.3881 C -22.690363,684.78086 -30.603673,693.06928 -40.144563,693.06928 C -49.685464,693.06927 -54.579451,682.99734 -54.579451,672.60458 C -54.579452,662.21182 -52.241398,655.11002 -42.70051,655.11002 C -42.70051,655.11002 -42.921631,656.93278 -42.921631,656.93278"
       id="path3243"
       sodipodi:nodetypes="cccccccccccccccccccccccsccsssc" />
    <path
       style="fill:#784421;fill-opacity:1;fill-rule:evenodd;stroke:none;stroke-width:1px;stroke-linecap:butt;stroke-linejoin:miter;stroke-opacity:1"
       d="M 298.95139,636.83974 C 289.42912,637.13226 281.53928,635.60659 272.01712,635.89947 C 262.49497,636.19234 252.88376,637.85237 243.36168,638.14549 C 233.8396,638.43861 223.60961,637.60879 214.08758,637.90204 C 204.56554,638.19529 195.88867,640.88414 186.36663,641.17741 C 176.8446,641.47067 168.96657,639.80087 159.4445,640.09405 C 149.92243,640.38722 138.64902,640.19949 129.12687,640.49246 C 119.60473,640.78543 110.46044,641.05197 100.93818,641.34462 C 91.41593,641.63727 81.29288,641.07713 71.77048,641.36935 C 63.84252,641.40431 55.32071,642.45556 47.39144,642.50157 C 39.462164,642.54759 35.587215,644.92101 27.657175,644.9727 C 19.727146,645.02438 8.166022,644.06664 0.235789,644.11862 C -7.694443,644.1706 -15.502112,644.14962 -23.431985,644.19652 C -31.361859,644.24341 -40.959042,644.45177 -48.887999,644.48821 C -56.816956,644.52464 -63.023995,642.49211 -70.951476,642.51271 C -78.878959,642.5333 -86.246739,644.20385 -94.172188,644.20322 C -102.09764,644.20259 -109.93119,644.04823 -117.85404,644.021 C -120.50514,643.80016 -122.58687,644.55128 -124.43631,646.19902 C -126.28576,647.84675 -129.40499,650.08304 -131.19986,651.4942 C -132.07867,659.38059 -132.85892,667.26988 -133.3759,675.35048 C -133.89288,683.43107 -133.67173,692.12768 -134.31876,700.13766 C -125.06476,700.32875 -118.19321,701.39671 -108.93785,701.58669 C -99.682491,701.77667 -86.257662,701.15245 -77.00185,701.34206 C -67.746038,701.53167 -59.773071,701.33035 -50.517711,701.52033 C -41.262351,701.71031 -32.047816,700.85725 -22.793814,701.04834 C -15.848848,700.80447 -9.664152,700.86567 -2.719623,700.61017 C 4.224905,700.35467 11.594446,700.32921 18.538586,700.06327 C 25.482724,699.79734 33.364123,699.81874 40.307923,699.54358 C 47.25172,699.26842 50.41417,699.3323 57.35768,699.04912 C 64.30119,698.76594 73.55453,698.28117 80.49779,697.99117 C 87.44106,697.70117 93.10023,697.61415 100.04331,697.31854 C 106.98639,697.02293 115.39657,697.35842 122.3395,697.0584 C 129.28243,696.75839 135.24496,696.12376 142.1878,695.82054 C 149.13064,695.51733 157.97487,695.05302 164.91766,694.74781 C 171.86046,694.44259 178.40672,691.90822 185.34951,691.60222 C 192.29231,691.29621 198.90452,692.718 205.84737,692.41241 C 212.79022,692.10682 220.26041,692.38819 227.20336,692.08422 C 234.14631,691.78025 240.51773,690.70741 247.46082,690.40626 C 254.40392,690.10511 259.91497,691.09763 266.85827,690.8005 C 273.80157,690.50338 282.36109,689.50018 289.30464,689.20829 C 296.24818,688.9164 302.87352,688.88089 309.81736,688.59544 C 313.25355,689.04503 316.75471,689.00978 319.9699,688.04939 C 323.18509,687.08901 323.9052,685.56802 326.60825,683.4287 C 326.23843,679.57068 328.54446,674.46194 328.17538,670.60233 C 327.80629,666.74272 327.28521,664.38227 326.91263,660.52249 C 326.80425,660.52519 328.17311,657.20312 328.06339,657.21026 C 327.95368,657.2174 325.8999,658.57561 325.7909,658.57561 C 319.09937,658.57561 314.22447,656.98488 309.56428,652.76696 C 304.90409,648.54904 300.83342,641.60195 299.94697,634.97362 C 299.94697,634.97362 299.30621,637.46637 299.30621,637.46637 M -39.564667,651.54399 C -33.880732,651.54399 -29.020879,654.16633 -25.293426,658.22785 C -21.565973,662.28937 -16.515216,668.7507 -16.515214,674.94213 C -16.515212,681.13356 -19.923543,685.1635 -23.650998,689.22501 C -27.378453,693.28653 -34.068727,696.33025 -39.752662,696.33025 C -45.436603,696.33025 -49.81358,691.40086 -53.541032,687.33935 C -57.268485,683.27783 -60.830919,679.88717 -60.830919,673.69574 C -60.830919,667.50431 -58.691409,661.93804 -54.963955,657.87652 C -51.236502,653.815 -46.029452,649.5018 -40.345518,649.5018 C -40.345518,649.5018 -37.715023,647.08168 -37.715023,647.08168"
       id="path3245"
       sodipodi:nodetypes="cssssssscssssssscscscssscssssssssssssssscscscsssccsssssssc" />
  </g>
  <g
     id="g4680"
     transform="matrix(0.9996057,-2.807866e-2,2.807866e-2,0.9996057,125.40309,-495.47702)">
    <path
       id="path3249"
       d="M -129.625,582.28125 C -129.625,582.28125 -129.68597,582.92214 -129.6875,582.9375 L -129.46875,582.46875 C -129.46875,582.46875 -129.625,582.28124 -129.625,582.28125 z M -129.6875,582.9375 L -130.5625,584.78125 C -130.5625,584.78125 -129.90864,584.78055 -129.875,584.78125 C -129.85919,584.62217 -129.69179,582.98069 -129.6875,582.9375 z M -129.875,584.78125 C -130.32824,589.34225 -135.125,637.65627 -135.125,637.65625 C -135.125,637.65625 -123.28125,644.40625 -123.28125,644.40625 C -123.28125,644.40625 -81.718748,646.59374 -81.71875,646.59375 C -81.71875,646.59375 -39.625,649.3125 -39.625,649.3125 C -39.625,649.3125 4.5312498,649.34373 4.53125,649.34375 C 4.53125,649.34375 49.249999,652.78126 49.25,652.78125 C 49.25,652.78125 89.125001,657.5625 89.125,657.5625 C 89.125,657.5625 130.875,657.28123 130.875,657.28125 C 130.875,657.28125 174.68751,663.00002 174.6875,663 C 174.6875,663 214.75,662.81252 214.75,662.8125 C 214.75,662.8125 245.5,662.53127 245.5,662.53125 C 245.5,662.53125 273.9375,659.75002 273.9375,659.75 C 273.9375,659.75 306.46876,662.15623 306.46875,662.15625 C 306.46875,662.15625 337.31251,660.46874 337.3125,660.46875 C 337.3125,660.46875 336.25989,648.57675 335.28125,637.5 C 332.30402,639.81102 330.04311,641.09137 326.03125,642.25 C 326.03125,642.25001 325.17595,642.28366 324.375,642.3125 C 320.45729,643.46827 316.00413,644.76793 312.375,644.375 C 308.27102,643.93065 304.14643,642.38708 300.59375,640.5 C 297.04108,638.61292 294.98566,634.79316 292.40625,631.6875 C 289.82684,628.58183 286.24661,624.72511 285.0625,620.625 C 283.8784,616.52493 285.62974,613.00267 286.15625,609 C 286.68277,604.99735 288.46914,602.86558 290.46875,599.375 C 290.86275,598.68722 291.26206,597.93386 291.65625,597.15625 C 288.26501,597.31991 266.25,598.40627 266.25,598.40625 C 266.25,598.40625 236.9375,596.59377 236.9375,596.59375 C 236.9375,596.59375 206.53124,597.96875 206.53125,597.96875 C 206.53125,597.96875 177.21876,596.46872 177.21875,596.46875 C 177.21875,596.46875 147,596.62498 147,596.625 C 147,596.625 117.5,594.68748 117.5,594.6875 C 117.5,594.6875 88.531249,594.75003 88.53125,594.75 C 88.53125,594.75 61.906248,594.12498 61.90625,594.125 C 61.90625,594.125 33.843751,591.24998 33.84375,591.25 C 33.84375,591.25 5.1874998,592.56247 5.1875,592.5625 C 5.1875,592.5625 -20.1875,587.71872 -20.1875,587.71875 C -20.1875,587.71875 -44.96875,589.43751 -44.96875,589.4375 C -44.96875,589.4375 -73.999998,586.93752 -74,586.9375 C -74,586.9375 -103.1875,585.34375 -103.1875,585.34375 C -103.1875,585.34375 -128.56844,584.80846 -129.875,584.78125 z M 324.375,642.3125 C 324.88759,642.16128 325.41646,641.9852 325.90625,641.84375 L 323.21875,642.34375 C 323.21875,642.34375 323.81605,642.33263 324.375,642.3125 z"
       style="fill:#000000;fill-opacity:1;fill-rule:evenodd;stroke:none;stroke-width:1px;stroke-linecap:butt;stroke-linejoin:miter;stroke-opacity:1" />
    <path
       id="path3251"
       d="M -97.5625,588.40625 C -106.69543,588.48389 -114.89909,591.7106 -124.78125,591.3125 C -126.44579,607.08416 -129.49171,619.91584 -131.15625,635.6875 C -125.79142,640.01776 -119.53696,642.45827 -112.65625,641.625 C -98.774683,642.32901 -82.130776,643.58494 -68.25,644.3125 C -54.369226,645.04003 -43.724061,642.72733 -29.84375,643.46875 C -15.963439,644.21019 -0.22393,647.25442 13.65625,648 C 27.53644,648.74556 39.3696,647.35371 53.25,648.09375 C 67.130398,648.83377 81.43155,650.52521 95.3125,651.25 C 109.19345,651.9748 123.18066,654.67515 137.0625,655.375 C 150.94433,656.07483 163.67945,657.74106 177.5625,658.40625 C 191.44556,659.07147 206.95913,657.37915 220.84375,658 C 239.35457,657.79522 257.27043,658.04852 275.78125,657.84375 C 294.29208,657.63898 312.11419,658.14227 330.625,657.9375 C 330.35373,654.12416 330.14067,650.09144 329.96875,645.9375 C 329.7749,646.01399 329.56653,646.07683 329.375,646.15625 C 325.22864,647.87553 319.97075,650.40625 315.1875,650.40625 C 310.40427,650.40628 307.14635,647.59427 303,645.875 C 298.85366,644.15575 297.10559,641.66722 293.96875,638.59375 C 290.83192,635.52027 285.97347,632.15633 284.21875,628.09375 C 282.46403,624.03116 279.75,618.03036 279.75,613.34375 C 279.75001,608.65713 281.46402,605.03134 283.21875,600.96875 C 283.27451,600.83965 283.34711,600.72083 283.40625,600.59375 C 277.37938,600.63836 271.20467,600.75392 265.03125,600.65625 C 255.97833,600.51302 247.08573,600.32699 237.75,600.15625 C 228.41426,599.9855 216.52412,603.74759 207.09375,603.5625 C 197.66337,603.37742 185.80561,601.84254 176.46875,601.65625 C 167.13189,601.46998 161.05516,600.51808 152,600.34375 C 142.94484,600.16942 134.58529,599.93047 126,599.78125 C 117.4147,599.63204 108.27101,600.11095 100.34375,600 C 89.802778,599.57538 82.16598,598.36604 72.28125,597.96875 C 62.396531,597.57145 54.16597,598.40901 44.75,598.03125 C 35.33402,597.65349 24.44722,594.39729 15.3125,594.03125 C 6.1777798,593.66521 -3.02153,593.83089 -12.0625,593.46875 C -21.103474,593.10658 -31.521528,593.74105 -40.65625,593.375 C -49.790973,593.00897 -56.834028,590.75276 -66.25,590.375 C -75.665969,589.99721 -85.83403,588.8348 -95.71875,588.4375 C -96.336546,588.41267 -96.953638,588.40107 -97.5625,588.40625 z"
       style="fill:#a05a2c;fill-opacity:1;fill-rule:evenodd;stroke:none;stroke-width:1px;stroke-linecap:butt;stroke-linejoin:miter;stroke-opacity:1" />
  </g>
  <g
     transform="translate(400.64958,155.76384)"
     id="g4723">
    <path
       sodipodi:type="arc"
       style="opacity:1;fill:#000000;fill-opacity:1;fill-rule:evenodd;stroke:none;stroke-width:8.69999981;stroke-linecap:butt;stroke-linejoin:bevel;stroke-miterlimit:4;stroke-dasharray:8.69999981, 26.09999943;stroke-dashoffset:0;stroke-opacity:1"
       id="path4725"
       sodipodi:cx="34.936199"
       sodipodi:cy="22.802696"
       sodipodi:rx="7.7227392"
       sodipodi:ry="7.3549895"
       d="M 42.658938,22.802696 A 7.7227392,7.3549895 0 1 1 27.21346,22.802696 A 7.7227392,7.3549895 0 1 1 42.658938,22.802696 z"
       transform="translate(20.961722,8.8259882)" />
    <path
       sodipodi:type="arc"
       style="opacity:1;fill:#b3b3b3;fill-opacity:1;fill-rule:evenodd;stroke:none;stroke-width:8.69999981;stroke-linecap:butt;stroke-linejoin:bevel;stroke-miterlimit:4;stroke-dasharray:8.69999981, 26.09999943;stroke-dashoffset:0;stroke-opacity:1"
       id="path4727"
       sodipodi:cx="34.936199"
       sodipodi:cy="22.802696"
       sodipodi:rx="7.7227392"
       sodipodi:ry="7.3549895"
       d="M 42.658938,22.802696 A 7.7227392,7.3549895 0 1 1 27.21346,22.802696 A 7.7227392,7.3549895 0 1 1 42.658938,22.802696 z"
       transform="matrix(0.6,0,0,0.6,34.421351,17.947066)" />
  </g>
  <g
     transform="translate(-22.98729,106.04777)"
     id="g3425">
    <path
       sodipodi:type="arc"
       style="opacity:1;fill:#000000;fill-opacity:1;fill-rule:evenodd;stroke:none;stroke-width:8.69999981;stroke-linecap:butt;stroke-linejoin:bevel;stroke-miterlimit:4;stroke-dasharray:8.69999981, 26.09999943;stroke-dashoffset:0;stroke-opacity:1"
       id="path3427"
       sodipodi:cx="34.936199"
       sodipodi:cy="22.802696"
       sodipodi:rx="7.7227392"
       sodipodi:ry="7.3549895"
       d="M 42.658938,22.802696 A 7.7227392,7.3549895 0 1 1 27.21346,22.802696 A 7.7227392,7.3549895 0 1 1 42.658938,22.802696 z"
       transform="translate(20.961722,8.8259882)" />
    <path
       sodipodi:type="arc"
       style="opacity:1;fill:#b3b3b3;fill-opacity:1;fill-rule:evenodd;stroke:none;stroke-width:8.69999981;stroke-linecap:butt;stroke-linejoin:bevel;stroke-miterlimit:4;stroke-dasharray:8.69999981, 26.09999943;stroke-dashoffset:0;stroke-opacity:1"
       id="path3429"
       sodipodi:cx="34.936199"
       sodipodi:cy="22.802696"
       sodipodi:rx="7.7227392"
       sodipodi:ry="7.3549895"
       d="M 42.658938,22.802696 A 7.7227392,7.3549895 0 1 1 27.21346,22.802696 A 7.7227392,7.3549895 0 1 1 42.658938,22.802696 z"
       transform="matrix(0.6,0,0,0.6,34.421351,17.947066)" />
  </g>
  <g
     transform="translate(-22.98729,147.36112)"
     id="g4687">
    <path
       sodipodi:type="arc"
       style="opacity:1;fill:#000000;fill-opacity:1;fill-rule:evenodd;stroke:none;stroke-width:8.69999981;stroke-linecap:butt;stroke-linejoin:bevel;stroke-miterlimit:4;stroke-dasharray:8.69999981, 26.09999943;stroke-dashoffset:0;stroke-opacity:1"
       id="path4689"
       sodipodi:cx="34.936199"
       sodipodi:cy="22.802696"
       sodipodi:rx="7.7227392"
       sodipodi:ry="7.3549895"
       d="M 42.658938,22.802696 A 7.7227392,7.3549895 0 1 1 27.21346,22.802696 A 7.7227392,7.3549895 0 1 1 42.658938,22.802696 z"
       transform="translate(20.961722,8.8259882)" />
    <path
       sodipodi:type="arc"
       style="opacity:1;fill:#b3b3b3;fill-opacity:1;fill-rule:evenodd;stroke:none;stroke-width:8.69999981;stroke-linecap:butt;stroke-linejoin:bevel;stroke-miterlimit:4;stroke-dasharray:8.69999981, 26.09999943;stroke-dashoffset:0;stroke-opacity:1"
       id="path4691"
       sodipodi:cx="34.936199"
       sodipodi:cy="22.802696"
       sodipodi:rx="7.7227392"
       sodipodi:ry="7.3549895"
       d="M 42.658938,22.802696 A 7.7227392,7.3549895 0 1 1 27.21346,22.802696 A 7.7227392,7.3549895 0 1 1 42.658938,22.802696 z"
       transform="matrix(0.6,0,0,0.6,34.421351,17.947066)" />
  </g>
  <g
     transform="translate(-22.28707,186.57379)"
     id="g4693">
    <path
       sodipodi:type="arc"
       style="opacity:1;fill:#000000;fill-opacity:1;fill-rule:evenodd;stroke:none;stroke-width:8.69999981;stroke-linecap:butt;stroke-linejoin:bevel;stroke-miterlimit:4;stroke-dasharray:8.69999981, 26.09999943;stroke-dashoffset:0;stroke-opacity:1"
       id="path4695"
       sodipodi:cx="34.936199"
       sodipodi:cy="22.802696"
       sodipodi:rx="7.7227392"
       sodipodi:ry="7.3549895"
       d="M 42.658938,22.802696 A 7.7227392,7.3549895 0 1 1 27.21346,22.802696 A 7.7227392,7.3549895 0 1 1 42.658938,22.802696 z"
       transform="translate(20.961722,8.8259882)" />
    <path
       sodipodi:type="arc"
       style="opacity:1;fill:#b3b3b3;fill-opacity:1;fill-rule:evenodd;stroke:none;stroke-width:8.69999981;stroke-linecap:butt;stroke-linejoin:bevel;stroke-miterlimit:4;stroke-dasharray:8.69999981, 26.09999943;stroke-dashoffset:0;stroke-opacity:1"
       id="path4697"
       sodipodi:cx="34.936199"
       sodipodi:cy="22.802696"
       sodipodi:rx="7.7227392"
       sodipodi:ry="7.3549895"
       d="M 42.658938,22.802696 A 7.7227392,7.3549895 0 1 1 27.21346,22.802696 A 7.7227392,7.3549895 0 1 1 42.658938,22.802696 z"
       transform="matrix(0.6,0,0,0.6,34.421351,17.947066)" />
  </g>
  <g
     transform="translate(-22.98729,240.49121)"
     id="g4699">
    <path
       sodipodi:type="arc"
       style="opacity:1;fill:#000000;fill-opacity:1;fill-rule:evenodd;stroke:none;stroke-width:8.69999981;stroke-linecap:butt;stroke-linejoin:bevel;stroke-miterlimit:4;stroke-dasharray:8.69999981, 26.09999943;stroke-dashoffset:0;stroke-opacity:1"
       id="path4701"
       sodipodi:cx="34.936199"
       sodipodi:cy="22.802696"
       sodipodi:rx="7.7227392"
       sodipodi:ry="7.3549895"
       d="M 42.658938,22.802696 A 7.7227392,7.3549895 0 1 1 27.21346,22.802696 A 7.7227392,7.3549895 0 1 1 42.658938,22.802696 z"
       transform="translate(20.961722,8.8259882)" />
    <path
       sodipodi:type="arc"
       style="opacity:1;fill:#b3b3b3;fill-opacity:1;fill-rule:evenodd;stroke:none;stroke-width:8.69999981;stroke-linecap:butt;stroke-linejoin:bevel;stroke-miterlimit:4;stroke-dasharray:8.69999981, 26.09999943;stroke-dashoffset:0;stroke-opacity:1"
       id="path4703"
       sodipodi:cx="34.936199"
       sodipodi:cy="22.802696"
       sodipodi:rx="7.7227392"
       sodipodi:ry="7.3549895"
       d="M 42.658938,22.802696 A 7.7227392,7.3549895 0 1 1 27.21346,22.802696 A 7.7227392,7.3549895 0 1 1 42.658938,22.802696 z"
       transform="matrix(0.6,0,0,0.6,34.421351,17.947066)" />
  </g>
  <g
     transform="translate(-24.38774,294.40863)"
     id="g4705">
    <path
       sodipodi:type="arc"
       style="opacity:1;fill:#000000;fill-opacity:1;fill-rule:evenodd;stroke:none;stroke-width:8.69999981;stroke-linecap:butt;stroke-linejoin:bevel;stroke-miterlimit:4;stroke-dasharray:8.69999981, 26.09999943;stroke-dashoffset:0;stroke-opacity:1"
       id="path4707"
       sodipodi:cx="34.936199"
       sodipodi:cy="22.802696"
       sodipodi:rx="7.7227392"
       sodipodi:ry="7.3549895"
       d="M 42.658938,22.802696 A 7.7227392,7.3549895 0 1 1 27.21346,22.802696 A 7.7227392,7.3549895 0 1 1 42.658938,22.802696 z"
       transform="translate(20.961722,8.8259882)" />
    <path
       sodipodi:type="arc"
       style="opacity:1;fill:#b3b3b3;fill-opacity:1;fill-rule:evenodd;stroke:none;stroke-width:8.69999981;stroke-linecap:butt;stroke-linejoin:bevel;stroke-miterlimit:4;stroke-dasharray:8.69999981, 26.09999943;stroke-dashoffset:0;stroke-opacity:1"
       id="path4709"
       sodipodi:cx="34.936199"
       sodipodi:cy="22.802696"
       sodipodi:rx="7.7227392"
       sodipodi:ry="7.3549895"
       d="M 42.658938,22.802696 A 7.7227392,7.3549895 0 1 1 27.21346,22.802696 A 7.7227392,7.3549895 0 1 1 42.658938,22.802696 z"
       transform="matrix(0.6,0,0,0.6,34.421351,17.947066)" />
  </g>
  <g
     transform="translate(-20.18639,355.32832)"
     id="g4711">
    <path
       sodipodi:type="arc"
       style="opacity:1;fill:#000000;fill-opacity:1;fill-rule:evenodd;stroke:none;stroke-width:8.69999981;stroke-linecap:butt;stroke-linejoin:bevel;stroke-miterlimit:4;stroke-dasharray:8.69999981, 26.09999943;stroke-dashoffset:0;stroke-opacity:1"
       id="path4713"
       sodipodi:cx="34.936199"
       sodipodi:cy="22.802696"
       sodipodi:rx="7.7227392"
       sodipodi:ry="7.3549895"
       d="M 42.658938,22.802696 A 7.7227392,7.3549895 0 1 1 27.21346,22.802696 A 7.7227392,7.3549895 0 1 1 42.658938,22.802696 z"
       transform="translate(20.961722,8.8259882)" />
    <path
       sodipodi:type="arc"
       style="opacity:1;fill:#b3b3b3;fill-opacity:1;fill-rule:evenodd;stroke:none;stroke-width:8.69999981;stroke-linecap:butt;stroke-linejoin:bevel;stroke-miterlimit:4;stroke-dasharray:8.69999981, 26.09999943;stroke-dashoffset:0;stroke-opacity:1"
       id="path4715"
       sodipodi:cx="34.936199"
       sodipodi:cy="22.802696"
       sodipodi:rx="7.7227392"
       sodipodi:ry="7.3549895"
       d="M 42.658938,22.802696 A 7.7227392,7.3549895 0 1 1 27.21346,22.802696 A 7.7227392,7.3549895 0 1 1 42.658938,22.802696 z"
       transform="matrix(0.6,0,0,0.6,34.421351,17.947066)" />
  </g>
  <g
     transform="translate(401.34981,113.75026)"
     id="g4717">
    <path
       sodipodi:type="arc"
       style="opacity:1;fill:#000000;fill-opacity:1;fill-rule:evenodd;stroke:none;stroke-width:8.69999981;stroke-linecap:butt;stroke-linejoin:bevel;stroke-miterlimit:4;stroke-dasharray:8.69999981, 26.09999943;stroke-dashoffset:0;stroke-opacity:1"
       id="path4719"
       sodipodi:cx="34.936199"
       sodipodi:cy="22.802696"
       sodipodi:rx="7.7227392"
       sodipodi:ry="7.3549895"
       d="M 42.658938,22.802696 A 7.7227392,7.3549895 0 1 1 27.21346,22.802696 A 7.7227392,7.3549895 0 1 1 42.658938,22.802696 z"
       transform="translate(20.961722,8.8259882)" />
    <path
       sodipodi:type="arc"
       style="opacity:1;fill:#b3b3b3;fill-opacity:1;fill-rule:evenodd;stroke:none;stroke-width:8.69999981;stroke-linecap:butt;stroke-linejoin:bevel;stroke-miterlimit:4;stroke-dasharray:8.69999981, 26.09999943;stroke-dashoffset:0;stroke-opacity:1"
       id="path4721"
       sodipodi:cx="34.936199"
       sodipodi:cy="22.802696"
       sodipodi:rx="7.7227392"
       sodipodi:ry="7.3549895"
       d="M 42.658938,22.802696 A 7.7227392,7.3549895 0 1 1 27.21346,22.802696 A 7.7227392,7.3549895 0 1 1 42.658938,22.802696 z"
       transform="matrix(0.6,0,0,0.6,34.421351,17.947066)" />
  </g>
  <g
     transform="translate(401.34981,201.97877)"
     id="g4729">
    <path
       sodipodi:type="arc"
       style="opacity:1;fill:#000000;fill-opacity:1;fill-rule:evenodd;stroke:none;stroke-width:8.69999981;stroke-linecap:butt;stroke-linejoin:bevel;stroke-miterlimit:4;stroke-dasharray:8.69999981, 26.09999943;stroke-dashoffset:0;stroke-opacity:1"
       id="path4731"
       sodipodi:cx="34.936199"
       sodipodi:cy="22.802696"
       sodipodi:rx="7.7227392"
       sodipodi:ry="7.3549895"
       d="M 42.658938,22.802696 A 7.7227392,7.3549895 0 1 1 27.21346,22.802696 A 7.7227392,7.3549895 0 1 1 42.658938,22.802696 z"
       transform="translate(20.961722,8.8259882)" />
    <path
       sodipodi:type="arc"
       style="opacity:1;fill:#b3b3b3;fill-opacity:1;fill-rule:evenodd;stroke:none;stroke-width:8.69999981;stroke-linecap:butt;stroke-linejoin:bevel;stroke-miterlimit:4;stroke-dasharray:8.69999981, 26.09999943;stroke-dashoffset:0;stroke-opacity:1"
       id="path4733"
       sodipodi:cx="34.936199"
       sodipodi:cy="22.802696"
       sodipodi:rx="7.7227392"
       sodipodi:ry="7.3549895"
       d="M 42.658938,22.802696 A 7.7227392,7.3549895 0 1 1 27.21346,22.802696 A 7.7227392,7.3549895 0 1 1 42.658938,22.802696 z"
       transform="matrix(0.6,0,0,0.6,34.421351,17.947066)" />
  </g>
  <g
     transform="translate(403.45049,265.69935)"
     id="g4735">
    <path
       sodipodi:type="arc"
       style="opacity:1;fill:#000000;fill-opacity:1;fill-rule:evenodd;stroke:none;stroke-width:8.69999981;stroke-linecap:butt;stroke-linejoin:bevel;stroke-miterlimit:4;stroke-dasharray:8.69999981, 26.09999943;stroke-dashoffset:0;stroke-opacity:1"
       id="path4737"
       sodipodi:cx="34.936199"
       sodipodi:cy="22.802696"
       sodipodi:rx="7.7227392"
       sodipodi:ry="7.3549895"
       d="M 42.658938,22.802696 A 7.7227392,7.3549895 0 1 1 27.21346,22.802696 A 7.7227392,7.3549895 0 1 1 42.658938,22.802696 z"
       transform="translate(20.961722,8.8259882)" />
    <path
       sodipodi:type="arc"
       style="opacity:1;fill:#b3b3b3;fill-opacity:1;fill-rule:evenodd;stroke:none;stroke-width:8.69999981;stroke-linecap:butt;stroke-linejoin:bevel;stroke-miterlimit:4;stroke-dasharray:8.69999981, 26.09999943;stroke-dashoffset:0;stroke-opacity:1"
       id="path4739"
       sodipodi:cx="34.936199"
       sodipodi:cy="22.802696"
       sodipodi:rx="7.7227392"
       sodipodi:ry="7.3549895"
       d="M 42.658938,22.802696 A 7.7227392,7.3549895 0 1 1 27.21346,22.802696 A 7.7227392,7.3549895 0 1 1 42.658938,22.802696 z"
       transform="matrix(0.6,0,0,0.6,34.421351,17.947066)" />
  </g>
  <g
     transform="translate(404.15071,300.71067)"
     id="g4741">
    <path
       sodipodi:type="arc"
       style="opacity:1;fill:#000000;fill-opacity:1;fill-rule:evenodd;stroke:none;stroke-width:8.69999981;stroke-linecap:butt;stroke-linejoin:bevel;stroke-miterlimit:4;stroke-dasharray:8.69999981, 26.09999943;stroke-dashoffset:0;stroke-opacity:1"
       id="path4743"
       sodipodi:cx="34.936199"
       sodipodi:cy="22.802696"
       sodipodi:rx="7.7227392"
       sodipodi:ry="7.3549895"
       d="M 42.658938,22.802696 A 7.7227392,7.3549895 0 1 1 27.21346,22.802696 A 7.7227392,7.3549895 0 1 1 42.658938,22.802696 z"
       transform="translate(20.961722,8.8259882)" />
    <path
       sodipodi:type="arc"
       style="opacity:1;fill:#b3b3b3;fill-opacity:1;fill-rule:evenodd;stroke:none;stroke-width:8.69999981;stroke-linecap:butt;stroke-linejoin:bevel;stroke-miterlimit:4;stroke-dasharray:8.69999981, 26.09999943;stroke-dashoffset:0;stroke-opacity:1"
       id="path4745"
       sodipodi:cx="34.936199"
       sodipodi:cy="22.802696"
       sodipodi:rx="7.7227392"
       sodipodi:ry="7.3549895"
       d="M 42.658938,22.802696 A 7.7227392,7.3549895 0 1 1 27.21346,22.802696 A 7.7227392,7.3549895 0 1 1 42.658938,22.802696 z"
       transform="matrix(0.6,0,0,0.6,34.421351,17.947066)" />
  </g>
  <g
     transform="translate(409.0523,336.4222)"
     id="g4747">
    <path
       sodipodi:type="arc"
       style="opacity:1;fill:#000000;fill-opacity:1;fill-rule:evenodd;stroke:none;stroke-width:8.69999981;stroke-linecap:butt;stroke-linejoin:bevel;stroke-miterlimit:4;stroke-dasharray:8.69999981, 26.09999943;stroke-dashoffset:0;stroke-opacity:1"
       id="path4749"
       sodipodi:cx="34.936199"
       sodipodi:cy="22.802696"
       sodipodi:rx="7.7227392"
       sodipodi:ry="7.3549895"
       d="M 42.658938,22.802696 A 7.7227392,7.3549895 0 1 1 27.21346,22.802696 A 7.7227392,7.3549895 0 1 1 42.658938,22.802696 z"
       transform="translate(20.961722,8.8259882)" />
    <path
       sodipodi:type="arc"
       style="opacity:1;fill:#b3b3b3;fill-opacity:1;fill-rule:evenodd;stroke:none;stroke-width:8.69999981;stroke-linecap:butt;stroke-linejoin:bevel;stroke-miterlimit:4;stroke-dasharray:8.69999981, 26.09999943;stroke-dashoffset:0;stroke-opacity:1"
       id="path4751"
       sodipodi:cx="34.936199"
       sodipodi:cy="22.802696"
       sodipodi:rx="7.7227392"
       sodipodi:ry="7.3549895"
       d="M 42.658938,22.802696 A 7.7227392,7.3549895 0 1 1 27.21346,22.802696 A 7.7227392,7.3549895 0 1 1 42.658938,22.802696 z"
       transform="matrix(0.6,0,0,0.6,34.421351,17.947066)" />
  </g>
  <path
     style="fill:#000000;fill-opacity:0.39002931;fill-rule:evenodd;stroke:none;stroke-width:1px;stroke-linecap:butt;stroke-linejoin:miter;stroke-opacity:1"
     d="M 660.08866,52.553183 L 637.96789,56.158504 L 617.17263,71.831292 L 602.67358,89.694179 L 595.50939,112.71975 C 595.50939,112.71975 594.31686,133.42 594.97875,135.39996 L 601.1735,159.87107 L 610.7765,176.51617 L 624.50279,190.86169 L 647.61477,202.7864 L 685.42539,202.44771 L 707.43592,193.88554 L 722.96518,183.61013 L 736.40157,166.64234 L 744.1054,148.3216 L 748.31549,126.71028 L 742.65004,98.744481 L 727.25437,75.648654 L 703.13428,57.423145 L 684.27988,51.405365 L 660.08866,52.553183 z M 694.656,64.75291 L 723.03158,85.514807 L 735.00564,108.43982 L 737.65519,132.97747 L 728.50333,159.58167 L 705.8416,182.95088 L 683.5819,192.0475 L 652.0926,191.3522 L 636.79109,184.54423 L 620.4727,171.45941 L 613.29215,156.1053 L 606.04279,140.00756 L 607.30209,116.26175 L 609.81974,98.599632 C 612.60086,96.745558 625.20439,81.190481 625.9728,79.39251 L 643.57024,66.442833 L 667.97519,61.517917 L 694.656,64.75291 z"
     id="path3254"
     sodipodi:nodetypes="ccccccccccccccccccccccccccccccccccccccc" />
  <path
     sodipodi:type="arc"
     style="fill:#ffcc00;fill-opacity:1;fill-rule:evenodd;stroke:none;stroke-width:3;stroke-linecap:butt;stroke-linejoin:miter;stroke-miterlimit:4;stroke-dasharray:none;stroke-dashoffset:0;stroke-opacity:1"
     id="path40749"
     sodipodi:cx="52.219921"
     sodipodi:cy="50.022652"
     sodipodi:rx="46.026146"
     sodipodi:ry="45.919357"
     d="M 97.773325,56.587165 A 46.026146,45.919357 0 1 1 97.7926,56.452625"
     sodipodi:start="0.1434489"
     sodipodi:end="6.4236745"
     sodipodi:open="true"
     transform="matrix(1.5720226,0,0,1.5608217,581.23892,42.441743)" />
  <path
     style="fill:#000000;fill-opacity:1;fill-rule:evenodd;stroke:none;stroke-width:1px;stroke-linecap:butt;stroke-linejoin:miter;stroke-opacity:1"
     d="M 658.85526,177.01594 L 663.2681,176.85857 L 663.47824,184.88447 L 663.05797,187.79583 L 665.99986,191.80878 L 665.36945,194.01197 L 658.43499,194.01197 L 658.85526,191.57273 L 658.85526,189.76296 L 656.33364,187.08766 L 657.38432,183.23208 L 658.85526,177.01594 z"
     id="path42525"
     sodipodi:nodetypes="cccccccccccc" />
  <path
     style="fill:#000000;fill-opacity:1;fill-rule:evenodd;stroke:none;stroke-width:1px;stroke-linecap:butt;stroke-linejoin:miter;stroke-opacity:1"
     d="M 608.76466,118.47115 L 608.91431,124.34132 L 601.28169,124.62085 L 598.51299,124.06179 L 594.69667,127.97525 L 592.60144,127.13665 L 592.60144,117.91208 L 594.92116,118.47115 L 596.64225,118.47115 L 599.18645,115.11675 L 602.85311,116.51442 L 608.76466,118.47115 z"
     id="path42527"
     sodipodi:nodetypes="cccccccccccc" />
  <path
     style="fill:#000000;fill-opacity:1;fill-rule:evenodd;stroke:none;stroke-width:1px;stroke-linecap:butt;stroke-linejoin:miter;stroke-opacity:1"
     d="M 715.91054,122.40507 L 715.75663,127.64043 L 723.60613,127.88973 L 726.4535,127.39113 L 730.37825,130.88136 L 732.53302,130.13346 L 732.53302,121.90646 L 730.14738,122.40507 L 728.3774,122.40507 L 725.7609,119.41343 L 721.99006,120.65995 L 715.91054,122.40507 z"
     id="path42529"
     sodipodi:nodetypes="cccccccccccc" />
  <path
     style="fill:#000000;fill-opacity:1;fill-rule:evenodd;stroke:none;stroke-width:1px;stroke-linecap:butt;stroke-linejoin:miter;stroke-opacity:1"
     d="M 611.56098,154.67882 L 613.36296,156.91894 L 609.4832,159.8939 L 607.88183,160.71469 L 607.05043,163.67837 L 605.71652,164.13697 L 603.0069,160.52849 L 604.37522,159.87627 L 605.26859,159.2301 L 605.60389,156.96272 L 607.9177,156.13284 L 611.56098,154.67882 z"
     id="path42531"
     sodipodi:nodetypes="cccccccccccc" />
  <path
     style="fill:#000000;fill-opacity:1;fill-rule:evenodd;stroke:none;stroke-width:1px;stroke-linecap:butt;stroke-linejoin:miter;stroke-opacity:1"
     d="M 712.18351,151.66668 L 710.38152,153.9068 L 714.26128,156.88176 L 715.86265,157.70255 L 716.69406,160.66623 L 718.02796,161.12483 L 720.73758,157.51635 L 719.36926,156.86412 L 718.4759,156.21796 L 718.14059,153.95058 L 715.82678,153.1207 L 712.18351,151.66668 z"
     id="path42533"
     sodipodi:nodetypes="cccccccccccc" />
  <path
     style="fill:#000000;fill-opacity:1;fill-rule:evenodd;stroke:none;stroke-width:1px;stroke-linecap:butt;stroke-linejoin:miter;stroke-opacity:1"
     d="M 714.47724,94.628995 L 712.67525,92.388879 L 716.55501,89.413917 L 718.15638,88.593123 L 718.98779,85.629446 L 720.32169,85.170848 L 723.03131,88.779326 L 721.66299,89.431551 L 720.76963,90.07772 L 720.43432,92.3451 L 718.12052,93.17498 L 714.47724,94.628995 z"
     id="path42535"
     sodipodi:nodetypes="cccccccccccc" />
  <path
     style="fill:#000000;fill-opacity:1;fill-rule:evenodd;stroke:none;stroke-width:1px;stroke-linecap:butt;stroke-linejoin:miter;stroke-opacity:1"
     d="M 609.56515,93.797231 L 611.36714,91.557117 L 607.48737,88.582155 L 605.886,87.761361 L 605.0546,84.797684 L 603.72069,84.339086 L 601.01107,87.947564 L 602.37939,88.599789 L 603.27276,89.245958 L 603.60807,91.513338 L 605.92187,92.34322 L 609.56515,93.797231 z"
     id="path42537"
     sodipodi:nodetypes="cccccccccccc" />
  <path
     style="fill:#000000;fill-opacity:1;fill-rule:evenodd;stroke:none;stroke-width:1px;stroke-linecap:butt;stroke-linejoin:miter;stroke-opacity:1"
     d="M 693.46458,173.43772 L 695.72077,171.64857 L 698.71709,175.50069 L 699.54377,177.09065 L 702.52872,177.91613 L 702.9906,179.24053 L 699.35623,181.93084 L 698.69932,180.57227 L 698.04852,179.68528 L 695.76487,179.35236 L 694.92903,177.05504 L 693.46458,173.43772 z"
     id="path42539"
     sodipodi:nodetypes="cccccccccccc" />
  <path
     style="fill:#000000;fill-opacity:1;fill-rule:evenodd;stroke:none;stroke-width:1px;stroke-linecap:butt;stroke-linejoin:miter;stroke-opacity:1"
     d="M 630.70023,70.848583 L 628.44404,72.637733 L 625.44773,68.785611 L 624.62104,67.195649 L 621.6361,66.37017 L 621.17421,65.045772 L 624.80858,62.355457 L 625.46549,63.714029 L 626.11629,64.601027 L 628.39995,64.933947 L 629.23578,67.231263 L 630.70023,70.848583 z"
     id="path42541"
     sodipodi:nodetypes="cccccccccccc" />
  <path
     style="fill:#000000;fill-opacity:1;fill-rule:evenodd;stroke:none;stroke-width:1px;stroke-linecap:butt;stroke-linejoin:miter;stroke-opacity:1"
     d="M 634.45966,175.27532 L 632.20346,173.48617 L 629.20715,177.33829 L 628.38047,178.92826 L 625.39552,179.75373 L 624.93363,181.07814 L 628.56801,183.76845 L 629.22492,182.40987 L 629.87572,181.52288 L 632.15937,181.18996 L 632.99521,178.89264 L 634.45966,175.27532 z"
     id="path42543"
     sodipodi:nodetypes="cccccccccccc" />
  <path
     style="fill:#000000;fill-opacity:1;fill-rule:evenodd;stroke:none;stroke-width:1px;stroke-linecap:butt;stroke-linejoin:miter;stroke-opacity:1"
     d="M 691.18026,72.314803 L 693.43645,74.103955 L 696.43276,70.251831 L 697.25944,68.661869 L 700.24439,67.83639 L 700.70628,66.51199 L 697.07191,63.821677 L 696.415,65.180251 L 695.76419,66.067247 L 693.48054,66.400167 L 692.6447,68.697483 L 691.18026,72.314803 z"
     id="path42545"
     sodipodi:nodetypes="cccccccccccc" />
  <path
     style="fill:#000000;fill-opacity:1;fill-rule:evenodd;stroke:none;stroke-width:1px;stroke-linecap:butt;stroke-linejoin:miter;stroke-opacity:1"
     d="M 651.62569,46.578969 L 629.50492,50.18429 L 608.70966,65.857078 L 594.2106,83.719965 L 587.04642,106.74554 C 587.04642,106.74554 585.85389,127.44579 586.51578,129.42575 L 592.71053,153.89686 L 602.31353,170.54196 L 616.03982,184.88748 L 639.15179,196.81219 L 676.96241,196.4735 L 698.97295,187.91133 L 714.5022,177.63591 L 727.93859,160.66813 L 735.64243,142.34739 L 739.8525,120.73607 L 734.18707,92.770267 L 718.7914,69.674441 L 694.6713,51.448931 L 675.81691,45.431151 L 651.62569,46.578969 z M 687.59347,55.977791 L 716.6693,78.140141 L 730.0438,101.06516 L 732.69335,127.70349 L 723.54149,156.40836 L 701.57998,181.17802 L 674.4187,190.27465 L 649.93167,192.38025 L 628.32811,183.4716 L 612.00972,170.38677 L 602.02827,157.13335 L 594.07868,136.13402 L 593.93754,113.08843 L 596.45519,96.126549 C 599.2363,94.272475 611.83984,74.516042 612.60825,72.718071 L 630.20568,57.667713 L 661.61289,52.042572 L 687.59347,55.977791 z"
     id="path47274"
     sodipodi:nodetypes="ccccccccccccccccccccccccccccccccccccccc" />
  <path
     style="fill:#000000;fill-opacity:1;fill-rule:evenodd;stroke:none;stroke-width:1px;stroke-linecap:butt;stroke-linejoin:miter;stroke-opacity:1"
     d="M 658.70209,67.670461 L 663.11493,67.827831 L 663.32507,59.801931 L 662.9048,56.890571 L 665.84669,52.877621 L 665.21628,50.674431 L 658.28182,50.674431 L 658.70209,53.113671 L 658.70209,54.923441 L 656.18047,57.598741 L 657.23115,61.454321 L 658.70209,67.670461 z"
     id="path7660"
     sodipodi:nodetypes="cccccccccccc" />
  <path
     transform="translate(-4,-4)"
     style="fill:#803300"
     d="m 679.783,126.27413 c -1.05041,7.27229 -7.7973,12.31611 -15.06959,11.26569 -7.27229,-1.05041 -12.31612,-7.7973 -11.2657,-15.06959 1.05042,-7.27229 7.7973,-12.31612 15.06959,-11.2657 7.25708,1.04822 12.29801,7.77047 11.27128,15.03061"
     id="path3084" />
</svg>
