<?xml version="1.0" encoding="UTF-8" standalone="no"?>
<!-- Created with Inkscape (http://www.inkscape.org/) -->

<svg
   xmlns:dc="http://purl.org/dc/elements/1.1/"
   xmlns:cc="http://creativecommons.org/ns#"
   xmlns:rdf="http://www.w3.org/1999/02/22-rdf-syntax-ns#"
   xmlns:svg="http://www.w3.org/2000/svg"
   xmlns="http://www.w3.org/2000/svg"
   xmlns:sodipodi="http://sodipodi.sourceforge.net/DTD/sodipodi-0.dtd"
   xmlns:inkscape="http://www.inkscape.org/namespaces/inkscape"
   id="svg6438"
   version="1.1"
   inkscape:version="0.48.2 r9819"
   width="104.48"
   height="126.43784"
   sodipodi:docname="carriage.svg">
  <metadata
     id="metadata6444">
    <rdf:RDF>
      <cc:Work
         rdf:about="">
        <dc:format>image/svg+xml</dc:format>
        <dc:type
           rdf:resource="http://purl.org/dc/dcmitype/StillImage" />
        <dc:title />
      </cc:Work>
    </rdf:RDF>
  </metadata>
  <defs
     id="defs6442" />
  <sodipodi:namedview
     pagecolor="#ffffff"
     bordercolor="#666666"
     borderopacity="1"
     objecttolerance="10"
     gridtolerance="10"
     guidetolerance="10"
     inkscape:pageopacity="0"
     inkscape:pageshadow="2"
     inkscape:window-width="948"
     inkscape:window-height="575"
     id="namedview6440"
     showgrid="false"
     fit-margin-top="0"
     fit-margin-left="0"
     fit-margin-right="0"
     fit-margin-bottom="0"
     inkscape:zoom="2.5190679"
     inkscape:cx="57.218872"
     inkscape:cy="58.654393"
     inkscape:window-x="68"
     inkscape:window-y="1"
     inkscape:window-maximized="0"
     inkscape:current-layer="g3114"
     showguides="true"
     inkscape:guide-bbox="true" />
  <g
     inkscape:groupmode="layer"
     id="layer1"
     inkscape:label="C_OFF"
     style="display:inline" />
  <g
     inkscape:label="C_ON"
     id="g3114"
     inkscape:groupmode="layer"
     style="display:inline">
    <path
       style="fill:#ffd543;fill-opacity:1;fill-rule:nonzero;stroke:none"
       d="m 27.11197,54.31342 2.91583,0 c 1.28145,0 2.31308,1.06997 2.31308,2.39903 l 0,38.20199 c 0,1.329 -1.03163,2.399 -2.31308,2.399 l -2.91583,0 c -1.28144,0 -2.31308,-1.07 -2.31308,-2.399 l 0,-38.20199 c 0,-1.32906 1.03164,-2.39903 2.31308,-2.39903 z"
       id="rect6969-1-98"
       inkscape:connector-curvature="0" />
    <path
       style="fill:#ffe791;fill-opacity:1;fill-rule:nonzero;stroke:none"
       d="m 27.12363,54.31342 c -1.28145,0 -2.32005,1.07719 -2.32005,2.40625 l 0,38.18747 c 0,1.0799 0.68432,1.9784 1.62705,2.2813 -0.36054,-0.4228 -0.60261,-0.9823 -0.60261,-1.5938 l 0,-38.18747 c 0,-1.32906 1.0386,-2.40625 2.32005,-2.40625 l 2.92265,0 c 0.24526,0 0.47153,0.0523 0.69301,0.125 -0.42328,-0.49899 -1.05345,-0.8125 -1.74757,-0.8125 l -2.89253,0 z"
       id="rect6969-1-4-0-4"
       inkscape:connector-curvature="0" />
    <path
       style="fill:#ffd543;fill-opacity:1;fill-rule:nonzero;stroke:none"
       d="m 70.10349,54.31342 2.91582,0 c 1.28146,0 2.31309,1.06997 2.31309,2.39903 l 0,38.20199 c 0,1.329 -1.03163,2.399 -2.31309,2.399 l -2.91582,0 c -1.28144,0 -2.31308,-1.07 -2.31308,-2.399 l 0,-38.20199 c 0,-1.32906 1.03164,-2.39903 2.31308,-2.39903 z"
       id="rect6969-1-9-2"
       inkscape:connector-curvature="0" />
    <path
       style="fill:#ffe791;fill-opacity:1;fill-rule:nonzero;stroke:none"
       d="m 70.11045,54.31342 c -1.28144,0 -2.32004,1.07719 -2.32004,2.40625 l 0,38.18747 c 0,1.0799 0.68431,1.9784 1.62704,2.2813 -0.36054,-0.4228 -0.60261,-0.9823 -0.60261,-1.5938 l 0,-38.18747 c 0,-1.32906 1.0386,-2.40625 2.32005,-2.40625 l 2.92266,0 c 0.24526,0 0.47153,0.0523 0.693,0.125 -0.42327,-0.49899 -1.05345,-0.8125 -1.74757,-0.8125 l -2.89253,0 z"
       id="rect6969-1-4-0-7-7"
       inkscape:connector-curvature="0" />
    <path
       style="fill:#5c3566;fill-opacity:1;fill-rule:nonzero;stroke:none"
       d="m 8.22486,83.31343 83.11379,0 c 1.28144,0 2.31308,1.07 2.31308,2.399 l 0,5.20201 c 0,1.329 -1.03164,2.399 -2.31308,2.399 l -83.11379,0 c -1.28145,0 -2.31309,-1.07 -2.31309,-2.399 l 0,-5.20201 c 0,-1.329 1.03164,-2.399 2.31309,-2.399 z"
       id="rect6562-63-4"
       inkscape:connector-curvature="0" />
    <path
       style="fill:#75507b;fill-opacity:1;fill-rule:nonzero;stroke:none"
       d="m 8.24519,84.40713 c -0.72201,0 -1.26548,0.5498 -1.26548,1.2813 l 0,5.21871 c 0,0.7315 0.56019,1.3125 1.26548,1.3125 l 83.09987,0 c 0.70529,0 1.26548,-0.581 1.26548,-1.3125 l 0,-5.21871 c 0,-0.7315 -0.54347,-1.2813 -1.26548,-1.2813 l -83.09987,0 z"
       id="path7072-1"
       inkscape:connector-curvature="0" />
    <path
       style="fill:#ce5c00;fill-opacity:1;fill-rule:nonzero;stroke:none"
       d="m 8.22486,73.31342 83.11379,0 c 1.28144,0 2.31308,1.07001 2.31308,2.39901 l 0,5.202 c 0,1.329 -1.03164,2.399 -2.31308,2.399 l -83.11379,0 c -1.28145,0 -2.31309,-1.07 -2.31309,-2.399 l 0,-5.202 c 0,-1.329 1.03164,-2.39901 2.31309,-2.39901 z"
       id="rect6562-63-2-8"
       inkscape:connector-curvature="0" />
    <path
       style="fill:#f57900;fill-opacity:1;fill-rule:nonzero;stroke:none"
       d="m 8.16013,74.31339 c -0.72321,0 -1.2676,0.56284 -1.2676,1.31174 l 0,5.3432 c 0,0.7489 0.56113,1.3438 1.2676,1.3438 l 83.23924,0 c 0.70648,0 1.2676,-0.5949 1.2676,-1.3438 l 0,-5.3432 c 0,-0.7489 -0.54438,-1.31174 -1.2676,-1.31174 l -83.23924,0 z"
       id="path7072-9-4"
       inkscape:connector-curvature="0" />
    <path
       style="fill:#5a5148;fill-opacity:1;fill-rule:nonzero;stroke:none"
       d="m 0,100.97374 101.92791,0 c 1.94145,0 1.94145,5 0,5 0,0 -101.92791,0 -101.92791,0 l 0,-5 z"
       id="rect3649-4-0"
       sodipodi:nodetypes="ccscc"
       inkscape:connector-curvature="0" />
    <path
       style="fill:#cccccc;fill-opacity:1;fill-rule:nonzero;stroke:#1728c5;stroke-width:2.72234654;stroke-opacity:1"
       d="m 6.3570333,1.4257297 c -0.7360344,0 -1.2900582,4.233069 -1.2900582,9.8656303 l 0,40.184289 c 0,5.632539 0.5710759,10.106168 1.2900582,10.106168 l 84.7135697,0 c 0.718982,0 1.290068,-4.473629 1.290068,-10.106168 l 0,-40.184289 c 0,-5.6325613 -0.554024,-9.8656303 -1.290068,-9.8656303 l -84.7135697,0 z"
       id="path7072-98-8"
       inkscape:connector-curvature="0" />
    <path
       style="fill:#a40000;fill-opacity:1;fill-rule:nonzero;stroke:none"
       d="m 3.40398,93.31344 91.79137,0 c 4.24143,0 4.24143,8 0,8 l -91.79137,0 c -4.24143,0 -4.24143,-8 0,-8 z"
       id="rect6562-2"
       sodipodi:nodetypes="ccccc"
       inkscape:connector-curvature="0" />
    <path
       style="fill:#ef292a;fill-opacity:1;fill-rule:nonzero;stroke:none"
       d="m 3.01925,94.31344 c -2.89253,0 -2.89253,6 0,6 8.67758,0 84.84743,0 92.56083,0 2.89253,0 2.89253,-6 0,-6 -7.7134,0 -83.88325,0 -92.56083,0 z"
       id="path7329-0"
       sodipodi:nodetypes="ccccc"
       inkscape:connector-curvature="0" />
    <path
       style="fill:#d69600;fill-opacity:1;fill-rule:nonzero;stroke:none"
       d="m 43.003,108.93784 c 0,9.665 -7.83501,17.5 -17.5,17.5 -9.66498,0 -17.5,-7.835 -17.5,-17.5 0,-9.665 7.83502,-17.5 17.5,-17.5 9.66499,0 17.5,7.835 17.5,17.5 z"
       id="path3167-4-0-1"
       inkscape:connector-curvature="0" />
    <path
       style="fill:#ffd543;fill-opacity:1;fill-rule:nonzero;stroke:none"
       d="m 25.503,94.12844 c -8.2107,0 -14.80937,6.5987 -14.80937,14.8094 0,8.2107 6.59867,14.8094 14.80937,14.8094 8.2107,0 14.80938,-6.5987 14.80938,-14.8094 0,-8.2107 -6.59868,-14.8094 -14.80938,-14.8094 z"
       id="path3260-28-2"
       inkscape:connector-curvature="0" />
    <path
       style="fill:#8d7c6a;fill-opacity:1;fill-rule:nonzero;stroke:none"
       d="m 25.503,102.63784 c -3.61316,0 -6.3,2.6869 -6.3,6.3 0,3.6132 2.68684,6.3 6.3,6.3 3.61317,0 6.3,-2.6868 6.3,-6.3 0,-3.6131 -2.68683,-6.3 -6.3,-6.3 z"
       id="path3260-2-6-5"
       inkscape:connector-curvature="0" />
    <path
       style="fill:#ffe791;fill-opacity:1;fill-rule:nonzero;stroke:none"
       d="m 26.05931,117.84494 c 4.10172,0 7.3997,-3.2979 7.3997,-7.3997 0,-0.4364 -0.0533,-0.8649 -0.12489,-1.2801 -0.18985,4.4324 -3.80842,7.9461 -8.28954,7.9461 -1.22529,0 -2.37433,-0.2779 -3.41885,-0.7493 1.23414,0.9227 2.76555,1.483 4.43358,1.483 z"
       id="path3260-1-4-2-0-2"
       inkscape:connector-curvature="0" />
    <path
       style="fill:#312c29;fill-opacity:1;fill-rule:nonzero;stroke:none"
       d="m 25.503,107.92814 c -0.57907,0 -1.00969,0.4307 -1.00969,1.0097 0,0.5791 0.43062,1.0097 1.00969,1.0097 0.57908,0 1.00969,-0.4306 1.00969,-1.0097 0,-0.579 -0.43061,-1.0097 -1.00969,-1.0097 z"
       id="path3260-2-1-8-5"
       inkscape:connector-curvature="0" />
    <path
       style="fill:#ffe791;fill-opacity:1;fill-rule:nonzero;stroke:none"
       d="m 23.67246,97.11674 c -5.52798,0 -9.97274,4.4448 -9.97274,9.9728 0,0.5881 0.0718,1.1656 0.16832,1.7252 0.25587,-5.9736 5.13269,-10.7091 11.17199,-10.7091 1.65135,0 3.19994,0.3745 4.60766,1.0099 -1.66328,-1.2437 -3.72718,-1.9988 -5.97523,-1.9988 z"
       id="path3260-1-6-1"
       inkscape:connector-curvature="0" />
    <path
       style="fill:#ffe791;fill-opacity:1;fill-rule:nonzero;stroke:none"
       d="m 26.13143,121.31344 c 5.52798,0 9.97274,-4.4448 9.97274,-9.9727 0,-0.5882 -0.0718,-1.1657 -0.16832,-1.7253 -0.25587,5.9736 -5.13269,10.7091 -11.17199,10.7091 -1.65135,0 -3.19993,-0.3745 -4.60766,-1.0099 1.66328,1.2437 3.72719,1.9988 5.97523,1.9988 z"
       id="path3260-1-3-5-1"
       inkscape:connector-curvature="0" />
    <path
       style="fill:#ffe791;fill-opacity:1;fill-rule:nonzero;stroke:none"
       d="m 24.51888,100.19154 c -4.10173,0 -7.39971,3.298 -7.39971,7.3997 0,0.4365 0.0532,0.865 0.12489,1.2802 0.18985,-4.4324 3.80842,-7.9461 8.28954,-7.9461 1.22529,0 2.37433,0.2778 3.41885,0.7493 -1.23414,-0.9228 -2.76554,-1.4831 -4.43357,-1.4831 z"
       id="path3260-1-4-0-8"
       inkscape:connector-curvature="0" />
    <path
       style="fill:#d69600;fill-opacity:1;fill-rule:nonzero;stroke:none"
       d="m 92.003,108.93784 c 0,9.665 -7.83501,17.5 -17.5,17.5 -9.66498,0 -17.5,-7.835 -17.5,-17.5 0,-9.665 7.83502,-17.5 17.5,-17.5 9.66499,0 17.5,7.835 17.5,17.5 z"
       id="path3167-4-0-0-2"
       inkscape:connector-curvature="0" />
    <path
       style="fill:#ffd543;fill-opacity:1;fill-rule:nonzero;stroke:none"
       d="m 74.503,94.12844 c -8.2107,0 -14.80937,6.5987 -14.80937,14.8094 0,8.2107 6.59867,14.8094 14.80937,14.8094 8.2107,0 14.80938,-6.5987 14.80938,-14.8094 0,-8.2107 -6.59868,-14.8094 -14.80938,-14.8094 z"
       id="path3260-28-0-1"
       inkscape:connector-curvature="0" />
    <path
       style="fill:#8d7c6a;fill-opacity:1;fill-rule:nonzero;stroke:none"
       d="m 74.503,102.63784 c -3.61316,0 -6.3,2.6869 -6.3,6.3 0,3.6132 2.68684,6.3 6.3,6.3 3.61317,0 6.3,-2.6868 6.3,-6.3 0,-3.6131 -2.68683,-6.3 -6.3,-6.3 z"
       id="path3260-2-6-6-9"
       inkscape:connector-curvature="0" />
    <path
       style="fill:#ffe791;fill-opacity:1;fill-rule:nonzero;stroke:none"
       d="m 75.05931,117.84494 c 4.10172,0 7.3997,-3.2979 7.3997,-7.3997 0,-0.4364 -0.0533,-0.8649 -0.12489,-1.2801 -0.18985,4.4324 -3.80842,7.9461 -8.28954,7.9461 -1.22529,0 -2.37433,-0.2779 -3.41885,-0.7493 1.23414,0.9227 2.76555,1.483 4.43358,1.483 z"
       id="path3260-1-4-2-0-1-4"
       inkscape:connector-curvature="0" />
    <path
       style="fill:#312c29;fill-opacity:1;fill-rule:nonzero;stroke:none"
       d="m 74.503,107.92814 c -0.57907,0 -1.00969,0.4307 -1.00969,1.0097 0,0.5791 0.43062,1.0097 1.00969,1.0097 0.57908,0 1.00969,-0.4306 1.00969,-1.0097 0,-0.579 -0.43061,-1.0097 -1.00969,-1.0097 z"
       id="path3260-2-1-8-3-8"
       inkscape:connector-curvature="0" />
    <path
       style="fill:#ffe791;fill-opacity:1;fill-rule:nonzero;stroke:none"
       d="m 72.67246,97.11674 c -5.52798,0 -9.97274,4.4448 -9.97274,9.9728 0,0.5881 0.0718,1.1656 0.16832,1.7252 0.25587,-5.9736 5.13269,-10.7091 11.17199,-10.7091 1.65135,0 3.19994,0.3745 4.60766,1.0099 -1.66328,-1.2437 -3.72718,-1.9988 -5.97523,-1.9988 z"
       id="path3260-1-6-8-9"
       inkscape:connector-curvature="0" />
    <path
       style="fill:#ffe791;fill-opacity:1;fill-rule:nonzero;stroke:none"
       d="m 75.13143,121.31344 c 5.52798,0 9.97274,-4.4448 9.97274,-9.9727 0,-0.5882 -0.0718,-1.1657 -0.16832,-1.7253 -0.25587,5.9736 -5.13269,10.7091 -11.17199,10.7091 -1.65135,0 -3.19993,-0.3745 -4.60766,-1.0099 1.66328,1.2437 3.72719,1.9988 5.97523,1.9988 z"
       id="path3260-1-3-5-9-0"
       inkscape:connector-curvature="0" />
    <path
       style="fill:#ffe791;fill-opacity:1;fill-rule:nonzero;stroke:none"
       d="m 73.51888,100.19154 c -4.10173,0 -7.39971,3.298 -7.39971,7.3997 0,0.4365 0.0532,0.865 0.12489,1.2802 0.18985,-4.4324 3.80842,-7.9461 8.28954,-7.9461 1.22529,0 2.37433,0.2778 3.41885,0.7493 -1.23414,-0.9228 -2.76554,-1.4831 -4.43357,-1.4831 z"
       id="path3260-1-4-0-3-1"
       inkscape:connector-curvature="0" />
    <path
       style="fill:#8d7c6a;fill-opacity:1;fill-rule:nonzero;stroke:none"
       d="m 100.06532,98.674887 3.40342,0 c 0.70706,0 1.27628,1.337993 1.27628,2.999953 l 0,3 c 0,1.662 -0.56922,3 -1.27628,3 l -3.40342,0 c -0.707073,0 -1.276293,-1.338 -1.276293,-3 l 0,-3 c 0,-1.66196 0.56922,-2.999953 1.276293,-2.999953 z"
       id="rect3651-8-4"
       inkscape:connector-curvature="0" />
    <path
       style="fill:#d0a239;fill-opacity:1;fill-rule:nonzero;stroke:#ff8f0d;stroke-width:0.9819243;stroke-miterlimit:4;stroke-opacity:1;stroke-dasharray:none"
       d="m 49.4068,58.18346 2.85245,0 c 0.61127,0 1.10337,1.06997 1.10337,2.39903 l 0,40.20195 c 0,1.329 -0.4921,2.399 -1.10337,2.399 l -2.85245,0 c -0.61127,0 -1.10338,-1.07 -1.10338,-2.399 l 0,-40.20195 c 0,-1.32906 0.49211,-2.39903 1.10338,-2.39903 z"
       id="rect6969-3-5"
       inkscape:connector-curvature="0" />
    <path
       inkscape:connector-curvature="0"
       id="path3049"
       d="m 7.49439,62.89773 c -0.73033,0 -1.28006,0.66535 -1.28006,1.55067 l 0,6.31613 c 0,0.88531 0.56665,1.58848 1.28006,1.58848 l 84.05702,0 c 0.71341,0 1.28007,-0.70317 1.28007,-1.58848 l 0,-6.31613 c 0,-0.88532 -0.54973,-1.55067 -1.28007,-1.55067 l -84.05702,0 z"
       style="fill:#1682d2;fill-opacity:1;fill-rule:nonzero;stroke:#1728c5;stroke-width:1.07510602;stroke-opacity:1" />
  </g>
</svg>
