<?xml version="1.0" encoding="UTF-8" standalone="no"?>
<!-- Created with Inkscape (http://www.inkscape.org/) -->

<svg
   xmlns:dc="http://purl.org/dc/elements/1.1/"
   xmlns:cc="http://creativecommons.org/ns#"
   xmlns:rdf="http://www.w3.org/1999/02/22-rdf-syntax-ns#"
   xmlns:svg="http://www.w3.org/2000/svg"
   xmlns="http://www.w3.org/2000/svg"
   xmlns:sodipodi="http://sodipodi.sourceforge.net/DTD/sodipodi-0.dtd"
   xmlns:inkscape="http://www.inkscape.org/namespaces/inkscape"
   width="100"
   height="100"
   id="svg1949"
   sodipodi:version="0.32"
   inkscape:version="0.48.2 r9819"
   version="1.0"
   sodipodi:docname="gnumch.svg">
  <defs
     id="defs1951" />
  <sodipodi:namedview
     id="base"
     pagecolor="#ffffff"
     bordercolor="#666666"
     borderopacity="1.0"
     inkscape:pageopacity="0.0"
     inkscape:pageshadow="2"
     inkscape:zoom="6.0595767"
     inkscape:cx="70.127359"
     inkscape:cy="20.211956"
     inkscape:document-units="px"
     inkscape:current-layer="layer1"
     width="100px"
     height="100px"
     inkscape:window-width="1087"
     inkscape:window-height="756"
     inkscape:window-x="127"
     inkscape:window-y="12"
     showgrid="false"
     inkscape:window-maximized="0" />
  <metadata
     id="metadata1954">
    <rdf:RDF>
      <cc:Work
         rdf:about="">
        <dc:format>image/svg+xml</dc:format>
        <dc:type
           rdf:resource="http://purl.org/dc/dcmitype/StillImage" />
      </cc:Work>
    </rdf:RDF>
  </metadata>
  <g
     inkscape:label="Calque 1"
     inkscape:groupmode="layer"
     id="layer1">
    <path
       style="fill:black;fill-opacity:0.26099706;fill-rule:evenodd;stroke:none;stroke-width:1px;stroke-linecap:butt;stroke-linejoin:miter;stroke-opacity:1"
       d="M 47.752482,0.45049862 L 34.002482,2.0754986 L 22.596232,9.7942486 L 17.471232,17.950499 L 15.127482,27.856749 L 16.252482,38.762999 L 8.7837323,60.512999 L 15.908732,83.356749 L 27.658732,91.044249 C 28.005178,91.632469 28.37766,92.286339 28.939982,93.200499 C 28.999941,93.297879 29.431718,93.648709 30.252482,94.262999 C 31.300289,95.006189 32.037478,95.553609 32.439982,95.887999 C 34.723872,97.840529 37.495712,99.036459 40.752482,99.450499 C 42.510122,99.667489 44.274642,99.560579 46.002482,99.169249 C 47.913122,98.754919 49.319722,98.262209 50.283732,97.669249 C 51.926142,96.658879 53.557172,94.859769 55.158732,92.262999 C 56.724602,89.688109 57.426552,88.425109 57.283732,88.512999 C 57.569372,88.337259 58.015172,88.382179 58.596232,88.606749 C 59.555592,89.046189 60.071802,89.252439 60.127482,89.262999 C 61.619442,89.688179 63.083002,89.898549 64.533732,89.856749 C 64.883552,89.865339 66.165682,89.579749 68.346232,89.044249 C 70.709532,88.485749 72.127612,88.070439 72.627482,87.762999 C 74.412702,86.664779 75.850132,85.603999 76.939982,84.575499 C 77.371392,83.996699 78.025882,83.137989 78.908732,82.012999 C 79.262602,81.566649 79.609242,81.044779 79.971232,80.481749 L 90.564982,71.044249 L 87.783732,45.387999 L 73.627482,29.606749 L 72.908732,21.794249 L 69.939982,15.325499 L 71.533732,11.325499 L 69.189982,8.2942486 L 63.908732,5.2629986 L 60.283732,6.2004986 L 59.221232,5.3567486 L 47.752482,0.45049862 z M 26.971232,57.575499 L 32.127482,67.481749 C 32.005359,67.576037 31.871672,67.661411 31.752482,67.762999 C 30.712389,68.649491 29.806858,69.808293 29.002482,71.200499 L 27.752482,70.450499 L 24.439982,62.700499 L 26.971232,57.575499 z M 64.752482,65.669249 C 65.571022,66.00002 66.212512,66.506366 66.658732,67.231749 C 67.133602,68.003699 67.165512,68.926744 66.752482,69.981749 C 66.748482,69.991975 66.756572,70.002748 66.752482,70.012999 L 66.658732,70.075499 L 66.721232,70.106749 C 66.279552,71.181909 65.617132,71.969065 64.783732,72.481749 C 64.033942,72.942958 63.210152,73.049359 62.314982,72.794249 C 61.419802,72.539085 60.788322,72.130039 60.408732,71.512999 C 60.049132,70.928385 59.914732,69.96464 60.033732,68.637999 C 60.050932,68.446261 60.066402,68.280118 60.096232,68.106749 L 64.471232,66.387999 L 64.752482,65.669249 z M 42.939982,79.325499 C 43.858122,79.297883 44.475362,79.585846 44.814982,80.137999 C 45.034762,80.495211 45.050682,81.023989 44.846232,81.731749 C 44.626072,82.493889 44.305942,83.030649 43.877482,83.294249 C 43.449042,83.557769 42.844352,83.550279 42.096232,83.294249 C 41.368122,83.070619 40.875942,82.748889 40.596232,82.294249 C 40.396462,81.969429 40.396462,81.496099 40.533732,80.919249 C 40.651692,80.510914 40.803412,80.207357 41.033732,79.981749 C 41.110502,79.906544 41.163232,79.817898 41.252482,79.762999 C 41.609542,79.543324 42.188932,79.384588 42.939982,79.325499 z "
       id="path24207" />
    <path
       style="fill:black;fill-opacity:1;fill-rule:evenodd;stroke:none;stroke-width:1px;stroke-linecap:butt;stroke-linejoin:miter;stroke-opacity:1"
       d="M 67.334149,27.828682 L 83.230726,45.540349 L 86.013467,71.190758 L 75.095537,80.910818 L 62.10098,70.241379 L 69.485651,63.058868 L 70.229601,54.707802 L 59.211198,45.412321 L 67.334149,27.828682 z "
       id="path23281"
       sodipodi:nodetypes="ccccccccc" />
    <path
       style="fill:#71c837;fill-opacity:1;fill-rule:evenodd;stroke:none;stroke-width:1px;stroke-linecap:butt;stroke-linejoin:miter;stroke-opacity:1"
       d="M 66.333758,31.250833 L 80.469913,47.320966 L 82.437575,68.52295 L 76.749756,75.586482 L 67.246879,69.768312 L 72.506686,63.772176 L 72.672807,52.108784 L 64.546819,46.54311 L 66.333758,31.250833 z "
       id="path21486"
       sodipodi:nodetypes="ccccccccc" />
    <path
       style="fill:black;fill-opacity:1;fill-rule:evenodd;stroke:none;stroke-width:1px;stroke-linecap:butt;stroke-linejoin:miter;stroke-opacity:1"
       d="M 12.599057,36.299182 L 4.2082145,60.654469 L 11.354311,83.504321 L 24.200913,91.913626 L 33.253148,76.590359 L 23.181321,70.612546 L 19.892272,62.870475 L 23.406475,55.754679 L 12.599057,36.299182 z "
       id="path23279"
       sodipodi:nodetypes="ccccccccc" />
    <path
       style="fill:black;fill-opacity:1;fill-rule:evenodd;stroke:none;stroke-width:1px;stroke-linecap:butt;stroke-linejoin:miter;stroke-opacity:1"
       d="M 43.190485,0.59090968 L 54.663776,5.5007729 L 64.355501,13.20653 L 68.346211,21.935176 L 69.486414,34.005256 L 68.167492,44.489008 L 59.910462,66.552049 L 50.147476,70.370832 L 40.45575,72.007452 L 28.412358,69.279751 L 16.894557,47.166417 L 11.763644,39.460659 L 10.552178,28.004312 L 12.903847,18.116394 L 18.034759,9.9332877 L 29.436788,2.2275309 L 43.190485,0.59090968 z "
       id="path30383"
       sodipodi:nodetypes="ccccccccccccccccc" />
    <path
       style="fill:#71c837;fill-opacity:1;fill-rule:evenodd;stroke:none;stroke-width:1px;stroke-linecap:butt;stroke-linejoin:miter;stroke-opacity:1"
       d="M 42.465304,4.1011239 L 52.53002,8.4116317 L 61.031892,15.176735 L 64.532662,22.839862 L 65.532883,33.436529 L 65.901505,42.987182 L 57.708653,63.777364 L 49.144268,67.129982 L 40.642396,68.566817 L 30.07757,66.172091 L 19.397724,44.991086 L 14.896735,38.225983 L 13.834001,28.168129 L 15.896952,19.487244 L 20.397948,12.303064 L 30.400148,5.5379599 L 42.465304,4.1011239 z "
       id="path30605"
       sodipodi:nodetypes="ccccccccccccccccc" />
    <path
       style="fill:black;fill-opacity:1;fill-rule:evenodd;stroke:none;stroke-width:1px;stroke-linecap:butt;stroke-linejoin:miter;stroke-opacity:1"
       d="M 51.538993,15.305199 L 54.422735,16.446043 L 56.858691,18.236536 L 57.861732,20.264705 L 58.148315,23.069282 L 57.001983,25.350973 L 55.139193,27.268226 L 52.685326,28.15555 L 50.249369,28.535832 L 47.222335,27.902028 L 44.929671,26.127381 L 43.640047,24.336888 L 43.335553,21.674916 L 43.92663,19.377382 L 45.216254,17.475973 L 48.082085,15.68548 L 51.538993,15.305199 z "
       id="path30607"
       sodipodi:nodetypes="ccccccccccccccccc" />
    <path
       style="fill:white;fill-opacity:1;fill-rule:evenodd;stroke:none;stroke-width:1px;stroke-linecap:butt;stroke-linejoin:miter;stroke-opacity:1"
       d="M 51.066637,17.377086 L 53.011329,18.149098 L 54.65405,19.360727 L 55.330465,20.733192 L 55.523726,22.631053 L 54.750681,24.175076 L 53.494483,25.472483 L 51.839683,26.072937 L 50.196962,26.330275 L 48.155639,25.901379 L 46.609549,24.700473 L 45.739874,23.488843 L 45.534533,21.687483 L 45.933134,20.132738 L 46.80281,18.846052 L 48.735424,17.634423 L 51.066637,17.377086 z "
       id="path30609"
       sodipodi:nodetypes="ccccccccccccccccc" />
    <path
       style="fill:black;fill-opacity:1;fill-rule:evenodd;stroke:none;stroke-width:1px;stroke-linecap:butt;stroke-linejoin:miter;stroke-opacity:1"
       d="M 35.774903,14.703683 L 39.625315,16.282517 L 42.877836,18.760411 L 44.217111,21.567228 L 44.59976,25.44853 L 43.069162,28.606201 L 40.58194,31.25952 L 37.305502,32.487503 L 34.05298,33.013782 L 30.011244,32.13665 L 26.950047,29.680686 L 25.228124,27.202792 L 24.821559,23.518843 L 25.610773,20.339246 L 27.332697,17.707854 L 31.159192,15.229961 L 35.774903,14.703683 z "
       id="path30611"
       sodipodi:nodetypes="ccccccccccccccccc" />
    <path
       style="fill:white;fill-opacity:1;fill-rule:evenodd;stroke:none;stroke-width:1px;stroke-linecap:butt;stroke-linejoin:miter;stroke-opacity:1"
       d="M 35.90056,16.708736 L 38.922398,17.918737 L 41.475007,19.817766 L 42.526081,21.96888 L 42.826388,24.943466 L 41.62516,27.36347 L 39.673166,29.396943 L 37.101788,30.338056 L 34.54918,30.74139 L 31.377188,30.069166 L 28.974734,28.186943 L 27.623352,26.287912 L 27.304278,23.464575 L 27.923659,21.027768 L 29.275041,19.011099 L 32.278109,17.112069 L 35.90056,16.708736 z "
       id="path30613"
       sodipodi:nodetypes="ccccccccccccccccc" />
    <path
       style="fill:black;fill-opacity:1;fill-rule:evenodd;stroke:none;stroke-width:1px;stroke-linecap:butt;stroke-linejoin:miter;stroke-opacity:1"
       d="M 50.049704,18.981128 L 51.138203,19.430409 L 52.05768,20.135533 L 52.436288,20.934257 L 52.544462,22.038741 L 52.111767,22.937306 L 51.408637,23.692349 L 50.482399,24.04179 L 49.562922,24.191552 L 48.420337,23.94195 L 47.554946,23.243067 L 47.068164,22.537944 L 46.953229,21.489619 L 47.176337,20.584815 L 47.66312,19.836011 L 48.744858,19.130888 L 50.049704,18.981128 z "
       id="path30615"
       sodipodi:nodetypes="ccccccccccccccccc" />
    <path
       style="fill:black;fill-opacity:1;fill-rule:evenodd;stroke:none;stroke-width:1px;stroke-linecap:butt;stroke-linejoin:miter;stroke-opacity:1"
       d="M 38.487324,20.184159 L 39.575823,20.63344 L 40.4953,21.338564 L 40.873909,22.137288 L 40.982082,23.241772 L 40.549387,24.140337 L 39.846257,24.89538 L 38.920019,25.244822 L 38.000542,25.394583 L 36.857957,25.144981 L 35.992566,24.446098 L 35.505784,23.740975 L 35.390849,22.69265 L 35.613958,21.787846 L 36.10074,21.039042 L 37.182478,20.333919 L 38.487324,20.184159 z "
       id="path30617"
       sodipodi:nodetypes="ccccccccccccccccc" />
    <path
       style="fill:black;fill-opacity:1;fill-rule:evenodd;stroke:none;stroke-width:1px;stroke-linecap:butt;stroke-linejoin:miter;stroke-opacity:1"
       d="M 57.771827,32.43784 L 55.927522,34.175552 L 50.820213,37.383636 L 47.273471,39.255018 L 40.038116,40.324379 L 35.923895,39.522358 L 32.093414,37.784646 L 28.830411,35.645924 L 28.688541,33.640872 L 26.986104,33.373531 L 26.134886,35.244914 L 25.283668,36.848955 L 25.851147,38.987678 L 27.695453,38.720337 L 27.979193,37.383635 L 31.51492,40.31746 L 33.91936,45.571916 L 34.63238,52.552839 L 38.461944,54.421626 L 42.718034,54.688966 L 45.981037,54.421626 L 49.953388,53.619605 L 54.069446,50.953987 L 56.056539,45.101043 L 55.076304,37.784646 L 56.63687,35.779594 L 57.771827,34.442893 L 60.041742,34.576563 L 60.609222,33.774542 C 60.609222,33.774542 61.602309,32.1705 60.751091,31.769489 C 59.899873,31.368479 57.346219,29.764437 57.346219,29.764437 L 55.785652,31.368479 L 57.771827,32.43784 z "
       id="path30619"
       sodipodi:nodetypes="cccccccccccccccccccccccccccccsccc" />
    <path
       style="fill:#f6ffd5;fill-opacity:1;fill-rule:evenodd;stroke:none;stroke-width:1px;stroke-linecap:butt;stroke-linejoin:miter;stroke-opacity:1"
       d="M 49.595712,40.154858 L 46.794202,41.423059 L 41.079121,42.147746 L 35.292238,41.205816 L 36.246022,45.703907 L 36.809224,50.434753 L 39.83413,51.701197 L 43.195941,51.882368 L 45.773331,51.701197 L 48.911022,51.157682 L 52.162224,49.35124 L 53.731795,45.384805 L 53.098476,38.700148 L 49.595712,40.154858 z "
       id="path19704"
       sodipodi:nodetypes="cccccccccccccc" />
    <path
       style="fill:black;fill-opacity:1;fill-rule:evenodd;stroke:none;stroke-width:1px;stroke-linecap:butt;stroke-linejoin:miter;stroke-opacity:1"
       d="M 34.945036,44.599507 L 39.737394,47.255611 L 42.415476,44.997923 L 48.194496,44.068286 L 51.224957,45.794755 L 53.973516,41.412182 L 54.114467,43.40426 L 51.577336,48.650067 L 47.912592,46.45878 L 42.697379,47.388417 L 40.019297,50.575743 L 36.072649,46.591586 L 34.945036,44.599507 z "
       id="path19706"
       sodipodi:nodetypes="ccccccccccccc" />
    <path
       style="fill:black;fill-opacity:1;fill-rule:evenodd;stroke:none;stroke-width:1px;stroke-linecap:butt;stroke-linejoin:miter;stroke-opacity:1"
       d="M 22.360878,17.879963 L 27.309588,13.10859 L 31.718761,12.131503 L 36.876817,13.010008 L 42.499012,15.250156 L 40.48729,11.482158 L 36.283097,9.4758387 L 29.316945,8.2433017 L 23.867072,11.03231 L 21.21618,13.668257 L 22.360878,17.879963 z "
       id="path20593"
       sodipodi:nodetypes="ccccccccccc" />
    <path
       style="fill:black;fill-opacity:1;fill-rule:evenodd;stroke:none;stroke-width:1px;stroke-linecap:butt;stroke-linejoin:miter;stroke-opacity:1"
       d="M 64.922809,16.701957 L 60.545718,11.212336 L 56.007918,10.321106 L 50.305507,11.748188 L 43.840072,14.870602 L 46.731502,10.129314 L 51.630782,7.3898379 L 59.341087,5.4062109 L 64.641846,8.4396387 L 66.970939,11.478078 L 64.922809,16.701957 z "
       id="path20595"
       sodipodi:nodetypes="ccccccccccc" />
    <g
       id="g3016"
       transform="translate(-49.673437,-19.968392)">
      <path
         id="path21497"
         d="m 81.687975,92.015448 -4.303063,4.54677 0.5712,8.656762 c 0,0 0.508124,3.31797 0.732814,4.03489 0.224689,0.71692 8.403122,6.6157 8.403122,6.6157 0,0 5.775471,0.27349 6.464761,-0.3643 0.68927,-0.6378 8.442981,-4.95981 8.442981,-4.95981 l 3.39781,-3.58366 6.41682,0.94023 5.56031,-0.42148 6.55067,-4.88189 3.89225,-6.690119 1.28858,-6.341883 -3.89163,-8.482334 -5.92837,-8.527987 -2.57658,-1.224313 -0.27056,5.61049 -4.23102,-0.570956 -4.44434,2.87072 -1.21587,3.996968 -5.1802,-2.140451 -1.828921,-1.4027 -0.89819,-1.897751 -2.27247,3.90424 -1.3843,5.157835 -4.02951,1.176928 -5.367235,0.748979 -3.899059,3.229122 z m 7.012879,6.027868 c 2.107929,-1.760616 5.252275,-1.486214 7.020055,0.638266 1.76777,2.124488 1.48973,5.283378 -0.61819,7.043998 -2.10917,1.75102 -5.251744,1.43819 -7.016187,-0.68229 -0.220995,-0.26554 -0.4372,-0.51338 -0.594692,-0.80638 -1.102613,-2.05083 -0.635418,-4.653054 1.209014,-6.193594 z M 109.57165,84.170077 c 3.47288,-2.903881 5.77877,-2.575261 8.70149,0.941104 2.92273,3.516364 3.72749,3.041034 0.25464,5.944947 l -1.91946,2.914848 c -3.47493,2.888044 -5.76033,2.548557 -8.67755,-0.961184 -0.36535,-0.439537 -2.01312,0.107669 -2.27384,-0.37701 -1.82506,-3.392744 0.87598,-5.921776 3.91472,-8.462705 z"
         style="fill:#0066ff;fill-opacity:1;fill-rule:evenodd;stroke:none"
         inkscape:connector-curvature="0" />
      <path
         id="text21492"
         d="m 81.160888,88.042353 c -2.147075,1.829988 -3.792122,4.752176 -4.93426,8.70596 -1.069345,3.701937 -1.42538,6.721187 -1.087871,9.110067 0.283575,1.66098 0.624075,2.95156 1.036363,3.8619 0.108427,0.33617 0.837874,1.58629 2.176387,3.7623 0.05996,0.0974 0.482952,0.45395 1.303718,1.06824 1.047808,0.74319 1.783238,1.29927 2.185742,1.63366 2.283891,1.95253 5.060735,3.13302 8.317514,3.54706 1.757633,0.21699 3.508845,0.1189 5.236684,-0.27243 1.910639,-0.41433 3.316528,-0.91685 4.28054,-1.50981 1.642405,-1.01037 3.286985,-2.80808 4.888555,-5.40485 1.56587,-2.57489 2.26777,-3.82762 2.12495,-3.73973 0.28564,-0.17574 0.71961,-0.1326 1.30066,0.092 0.95937,0.43944 1.48285,0.65683 1.53854,0.66739 1.49196,0.42518 2.9564,0.62821 4.40712,0.58641 0.34982,0.009 1.61801,-0.2846 3.79855,-0.8201 2.36331,-0.5585 3.80538,-0.97838 4.30525,-1.28582 1.78521,-1.09822 3.20544,-2.16585 4.29528,-3.19435 0.43141,-0.5788 1.09376,-1.42993 1.97661,-2.55492 1.24707,-1.57299 2.54574,-3.871181 3.88762,-6.890164 0.007,-0.228311 0.0145,-0.514752 0.0333,-0.884363 0.70637,-2.85197 0.75114,-5.543002 0.15094,-8.038828 -0.30226,-1.291401 -1.14783,-3.407763 -2.52462,-6.365982 -0.7405,-1.603775 -1.26283,-2.680376 -1.58246,-3.199996 -1.19871,-1.948645 -3.51248,-4.232537 -6.91552,-6.884423 -2.03405,-1.56217 -4.19445,-2.53485 -6.48316,-2.964624 l 1.66512,2.76361 -0.25277,4.902226 c 3.03113,1.675456 5.15564,3.422482 6.28225,5.253923 l 1.41566,2.320259 c 0.17979,0.292277 0.9762,2.265213 2.36708,5.886334 0.52495,1.333418 0.76477,2.883305 0.72274,4.655107 0.0136,1.782254 -0.23726,3.3282 -0.76174,4.635738 -0.65883,1.569175 -1.4297,2.758373 -2.30954,3.568253 -0.6699,0.59111 -1.93214,1.4563 -3.75305,2.57648 -2.71355,1.66919 -6.4148,1.93239 -11.12063,0.84297 -0.52112,-0.12713 -1.23997,-0.51992 -2.15641,-1.20962 -0.23974,-0.38976 -0.4763,-0.79589 -0.73602,-1.21806 -0.43101,-0.54069 -0.97851,-0.62638 -1.62119,-0.231 -0.21422,0.13175 -0.45154,0.80103 -0.72611,1.95484 -0.33322,1.45841 -0.71472,2.59083 -1.09768,3.40843 -0.70302,1.41728 -1.68917,2.51952 -2.974536,3.31025 -2.57071,1.58134 -5.370553,2.23178 -8.400383,1.94681 -3.51096,-0.34721 -6.135419,-1.97429 -7.91351,-4.86472 -0.318345,-0.11756 -0.566153,-0.31412 -0.726005,-0.5739 -0.779129,-1.26665 -1.068666,-3.28856 -0.819236,-6.08322 0.28816,-3.131887 1.20965,-5.391499 2.723656,-6.770494 0.185768,-0.338119 0.460522,-0.741195 0.86047,-1.211042 1.062649,-0.832775 1.823095,-1.379975 2.251528,-1.643512 0.856924,-0.527149 2.104572,-0.931067 3.745275,-1.224054 1.640732,-0.293041 3.007335,-0.290097 4.125232,0.0071 0.167054,0.03151 0.678363,0.267104 1.490646,0.707553 0.378319,0.214934 0.775688,0.191761 1.204129,-0.07178 0.428463,-0.263584 0.609455,-0.677474 0.508271,-1.241952 -0.173858,-0.922709 -0.260281,-1.452514 -0.213108,-1.615808 0.279233,-2.186292 0.469811,-3.442085 0.528455,-3.746748 0.261822,-1.414535 0.724486,-2.734163 1.435996,-3.97765 0.0543,-0.111747 0.17569,-0.287956 0.3306,-0.481174 l -1.600304,-1.227362 -1.288974,-2.752782 c -1.50577,2.230572 -2.516873,5.062651 -2.99406,8.587867 -1.599063,-0.359363 -3.597923,-0.345447 -5.989735,0.0067 -2.371788,0.384605 -4.182479,0.972723 -5.432154,1.741473 -0.142795,0.08783 -0.385592,0.2719 -0.73841,0.578475 -0.368491,0.360975 -0.639319,0.608397 -0.79789,0.750712 -0.327231,0.218087 -0.643323,0.453745 -0.950045,0.715176 z m 8.095658,8.097093 c -0.497312,0.406625 -0.968381,0.961289 -1.431271,1.648953 -0.510039,0.850923 -1.01033,1.688871 -1.504679,2.485431 -0.272858,0.43642 -0.473518,1.04259 -0.562362,1.8583 -0.06882,0.84811 -0.02261,1.45947 0.10574,1.8282 0.546256,1.76799 0.992014,2.96366 1.371583,3.58077 0.379607,0.61702 1.301456,1.12352 2.753441,1.48384 1.452014,0.36022 2.696684,0.30334 3.740597,-0.15973 0.269932,-0.1213 0.723096,-0.37503 1.330053,-0.74837 1.892351,-1.16411 3.173176,-2.75786 3.882132,-4.80554 0.673262,-2.02579 0.525783,-3.860833 -0.453158,-5.452178 -0.899015,-1.461506 -2.183234,-2.38994 -3.877958,-2.824719 -1.730402,-0.412869 -3.359411,-0.151094 -4.859015,0.7714 -0.169589,0.104323 -0.329337,0.198097 -0.495103,0.333643 z m 18.363664,-13.36126 c -0.98342,0.831516 -1.79099,1.880411 -2.43079,3.180523 -0.85305,1.733444 -1.19619,3.555984 -1.01125,5.456757 0.0485,0.238762 0.0537,0.723237 -0.0194,1.484496 -0.0187,0.369608 0.10016,0.785001 0.35987,1.20723 1.05885,1.721257 2.60756,3.001008 4.65338,3.846596 2.39989,0.941086 4.6051,0.789172 6.60456,-0.440753 2.64212,-1.625336 4.38345,-3.759246 5.24543,-6.438267 0.84623,-2.624625 0.54268,-5.140523 -0.91572,-7.511342 -0.47949,-0.779466 -1.0286,-1.376589 -1.63813,-1.807414 -1.00784,-0.6783 -2.39178,-1.156041 -4.13367,-1.42751 -1.53914,-0.26192 -3.42298,0.314483 -5.67236,1.69821 -0.36596,0.225125 -0.71416,0.474289 -1.04195,0.751474 z M 90.425746,100.257 c 0.07677,-0.0752 0.150186,-0.1459 0.239443,-0.2008 0.357058,-0.219678 0.928093,-0.370285 1.679152,-0.429374 0.918137,-0.02762 1.543386,0.234198 1.883007,0.786354 0.21977,0.35721 0.21752,0.91267 0.01306,1.62043 -0.220154,0.76214 -0.527022,1.27183 -0.955485,1.53543 -0.428446,0.26352 -1.028333,0.27759 -1.776454,0.0216 -0.728109,-0.22363 -1.227912,-0.56495 -1.507625,-1.01959 -0.199766,-0.32482 -0.217537,-0.7833 -0.08027,-1.36015 0.117959,-0.40833 0.274851,-0.72825 0.505169,-0.95386 z M 110.20517,86.68726 c 0.14133,-0.165275 0.32431,-0.311877 0.50283,-0.421694 0.96402,-0.59303 1.97321,-0.752311 3.03544,-0.465615 1.02651,0.308616 1.79064,0.88886 2.31009,1.733294 0.47947,0.77943 0.51458,1.712722 0.0887,2.780538 -0.44162,1.122204 -1.11197,1.939724 -1.96887,2.466872 -0.7498,0.46121 -1.57256,0.570908 -2.46774,0.315798 -0.89518,-0.255165 -1.52502,-0.681393 -1.90461,-1.298433 -0.35961,-0.584613 -0.48807,-1.545048 -0.36908,-2.871689 0.0893,-0.995018 0.34925,-1.743237 0.77324,-2.239071 z"
         style="font-size:54.03022003px;font-style:normal;font-variant:normal;font-weight:normal;font-stretch:normal;text-align:start;line-height:100%;writing-mode:lr-tb;text-anchor:start;fill:#000000;fill-opacity:1;stroke:none;font-family:Indigo Joker"
         inkscape:connector-curvature="0" />
    </g>
    <path
       style="fill:#71c837;fill-opacity:1;fill-rule:evenodd;stroke:none;stroke-width:1px;stroke-linecap:butt;stroke-linejoin:miter;stroke-opacity:1"
       d="M 15.347606,35.969125 L 7.0962055,61.053385 L 14.027382,81.186805 L 21.288616,86.137646 L 24.382891,84.569879 L 22.856382,80.031609 L 25.620601,77.803731 L 24.424148,73.925572 L 21.123587,72.770376 L 16.172746,62.208582 L 23.599007,50.326563 L 15.347606,35.969125 z "
       id="path20599"
       sodipodi:nodetypes="cccccccccccc" />
    <path
       style="fill:black;fill-opacity:1;fill-rule:evenodd;stroke:none;stroke-width:1px;stroke-linecap:butt;stroke-linejoin:miter;stroke-opacity:1"
       d="M 46.02973,61.474239 L 50.822088,62.067492 L 53.50017,58.657035 L 59.27919,55.239843 L 62.309651,55.661863 L 65.05821,50.096184 L 65.199161,52.02759 L 62.66203,58.365495 L 58.997286,57.751681 L 53.782073,60.926185 L 51.103991,65.26628 L 43.856782,63.145969 L 46.02973,61.474239 z "
       id="path23308"
       sodipodi:nodetypes="ccccccccccccc" />
    <path
       style="fill:black;fill-opacity:0.36363639;fill-rule:evenodd;stroke:none;stroke-width:1px;stroke-linecap:butt;stroke-linejoin:miter;stroke-opacity:1"
       d="M 23.103924,54.287236 L 22.113755,47.686115 L 14.357438,58.742993 C 14.357438,58.742993 16.502802,62.37361 17.162915,62.703666 C 17.823027,63.033722 23.43398,54.452264 23.103924,54.287236 z "
       id="path23310"
       sodipodi:nodetypes="cccsc" />
    <path
       style="fill:black;fill-opacity:0.36363639;fill-rule:evenodd;stroke:none;stroke-width:1px;stroke-linecap:butt;stroke-linejoin:miter;stroke-opacity:1"
       d="M 12.552846,82.021433 L 15.525435,76.642537 L 10.853924,62.146346 C 10.853924,62.146346 5.6617575,60.450643 5.0160405,60.808045 C 4.3703245,61.165446 12.229988,82.200134 12.552846,82.021433 z "
       id="path24197"
       sodipodi:nodetypes="cccsc" />
    <path
       style="fill:black;fill-opacity:0.36363639;fill-rule:evenodd;stroke:none;stroke-width:1px;stroke-linecap:butt;stroke-linejoin:miter;stroke-opacity:1"
       d="M 24.340061,89.430878 L 25.591694,86.551619 L 15.459702,76.397722 C 15.459702,76.397722 13.308736,80.670281 13.12697,81.385577 C 12.945204,82.100871 24.249178,89.788525 24.340061,89.430878 z "
       id="path24199"
       sodipodi:nodetypes="cccsc" />
    <path
       style="fill:black;fill-opacity:0.36363639;fill-rule:evenodd;stroke:none;stroke-width:1px;stroke-linecap:butt;stroke-linejoin:miter;stroke-opacity:1"
       d="M 70.686132,51.965047 L 77.358267,51.770507 L 67.307095,42.748926 C 67.307095,42.748926 65.591563,47.415736 65.185016,48.031696 C 64.77847,48.647654 70.482859,52.273026 70.686132,51.965047 z "
       id="path24201"
       sodipodi:nodetypes="cccsc" />
    <path
       style="fill:black;fill-opacity:0.36363639;fill-rule:evenodd;stroke:none;stroke-width:1px;stroke-linecap:butt;stroke-linejoin:miter;stroke-opacity:1"
       d="M 72.43217,60.145975 L 77.00381,65.009657 L 77.087019,51.503801 C 77.087019,51.503801 71.301643,51.830623 70.571034,51.935012 C 69.840427,52.039401 72.066867,60.198169 72.43217,60.145975 z "
       id="path24203"
       sodipodi:nodetypes="cccsc"
       inkscape:transform-center-x="-3.9606727"
       inkscape:transform-center-y="-0.82514015" />
    <path
       style="fill:black;fill-opacity:0.36363639;fill-rule:evenodd;stroke:none;stroke-width:1px;stroke-linecap:butt;stroke-linejoin:miter;stroke-opacity:1"
       d="M 30.839205,68.852035 L 35.864434,66.454866 L 22.035281,47.64271 C 22.035281,47.64271 22.977029,52.281584 22.314389,52.606537 C 21.65175,52.931488 30.507885,69.014511 30.839205,68.852035 z "
       id="path24205"
       sodipodi:nodetypes="cccsc" />
  </g>
</svg>
