<?xml version="1.0" encoding="UTF-8" standalone="no"?>
<!-- Created with Sodipodi ("http://www.sodipodi.com/") -->
<svg
   xmlns:dc="http://purl.org/dc/elements/1.1/"
   xmlns:cc="http://web.resource.org/cc/"
   xmlns:rdf="http://www.w3.org/1999/02/22-rdf-syntax-ns#"
   xmlns:svg="http://www.w3.org/2000/svg"
   xmlns="http://www.w3.org/2000/svg"
   xmlns:xlink="http://www.w3.org/1999/xlink"
   xmlns:sodipodi="http://sodipodi.sourceforge.net/DTD/sodipodi-0.dtd"
   xmlns:inkscape="http://www.inkscape.org/namespaces/inkscape"
   id="svg602"
   sodipodi:version="0.32"
   width="800"
   height="519.99988"
   xml:space="preserve"
   sodipodi:docbase="/home/franck/Dessins/Vectoriels/Animaux"
   sodipodi:docname="baleine.svg"
   inkscape:version="0.45"
   inkscape:output_extension="org.inkscape.output.svg.inkscape"
   sodipodi:modified="true"
   version="1.0"><metadata
     id="metadata52"><rdf:RDF><cc:Work
         rdf:about=""><dc:format>image/svg+xml</dc:format><dc:type
           rdf:resource="http://purl.org/dc/dcmitype/StillImage" /></cc:Work></rdf:RDF></metadata><defs
     id="defs604"><linearGradient
       id="linearGradient730"><stop
         style="stop-color:#00b8c5;stop-opacity:0.2471;"
         offset="0"
         id="stop731" /><stop
         style="stop-color:#00a3b0;stop-opacity:0.7725;"
         offset="1"
         id="stop732" /></linearGradient><linearGradient
       id="linearGradient697"><stop
         style="stop-color:#c2c2c2;stop-opacity:0.5843;"
         offset="0"
         id="stop698" /><stop
         style="stop-color:#d7ef87;stop-opacity:0.6784;"
         offset="1"
         id="stop699" /></linearGradient><linearGradient
       id="linearGradient680"><stop
         style="stop-color:#ffffff;stop-opacity:1;"
         offset="0"
         id="stop681" /><stop
         style="stop-color:#000000;stop-opacity:1;"
         offset="1"
         id="stop682" /></linearGradient><linearGradient
       id="linearGradient675"><stop
         style="stop-color:#d5c299;stop-opacity:1;"
         offset="0"
         id="stop676" /><stop
         style="stop-color:#d7ef87;stop-opacity:1;"
         offset="1"
         id="stop677" /></linearGradient><linearGradient
       id="linearGradient648"><stop
         style="stop-color:#191c42;stop-opacity:1;"
         offset="0"
         id="stop649" /><stop
         style="stop-color:#667894;stop-opacity:1;"
         offset="1"
         id="stop650" /></linearGradient><linearGradient
       id="linearGradient612"><stop
         style="stop-color:#000;stop-opacity:1;"
         offset="0"
         id="stop613" /><stop
         style="stop-color:#fff;stop-opacity:1;"
         offset="1"
         id="stop614" /></linearGradient><linearGradient
       xlink:href="#linearGradient675"
       id="linearGradient615"
       x1="0.023513537"
       y1="0.55813253"
       x2="0.04698015"
       y2="0.56976742"
       spreadMethod="reflect" /><linearGradient
       xlink:href="#linearGradient648"
       id="linearGradient616"
       x1="2.0220007e-08"
       y1="-9.0055096e-08"
       x2="1"
       y2="-9.0055096e-08" /><linearGradient
       xlink:href="#linearGradient648"
       id="linearGradient617"
       x1="2.3926987e-07"
       y1="1.1428904e-06"
       x2="1.0000002"
       y2="1.1428904e-06"
       gradientTransform="translate(2.392699e-7,1.14289e-6)" /><linearGradient
       xlink:href="#linearGradient648"
       id="linearGradient618"
       x1="0.99562472"
       y1="0.015577655"
       x2="-0.0043843202"
       y2="0.015624698" /><linearGradient
       xlink:href="#linearGradient697"
       id="linearGradient647"
       x1="0.088215843"
       y1="0.46094865"
       x2="0.11764663"
       y2="0.578125"
       spreadMethod="repeat" /><radialGradient
       xlink:href="#linearGradient680"
       id="radialGradient679"
       cx="0.48562402"
       cy="0.50791121"
       r="0.34896234"
       fx="0.48562402"
       fy="0.50791121"
       gradientTransform="translate(-1.298979e-6,1.407087e-6)" /><radialGradient
       xlink:href="#linearGradient697"
       id="radialGradient696"
       cx="0.24705534"
       cy="0.054689933"
       r="0.064942218"
       fx="0.24705534"
       fy="0.054689933"
       spreadMethod="reflect" /><linearGradient
       xlink:href="#linearGradient730"
       id="linearGradient729"
       x1="0.46460176"
       y1="0.031248957"
       x2="0.45575219"
       y2="0.56249994" /><linearGradient
       inkscape:collect="always"
       xlink:href="#linearGradient675"
       id="linearGradient2227"
       spreadMethod="reflect"
       x1="193.25809"
       y1="739.56921"
       x2="196.18951"
       y2="741.02264"
       gradientTransform="scale(1.8807015,0.5317165)"
       gradientUnits="userSpaceOnUse" /><linearGradient
       inkscape:collect="always"
       xlink:href="#linearGradient648"
       id="linearGradient2229"
       x1="852.28796"
       y1="420.13165"
       x2="960.75818"
       y2="420.13165"
       gradientTransform="scale(0.6254248,1.5989133)"
       gradientUnits="userSpaceOnUse" /><linearGradient
       inkscape:collect="always"
       xlink:href="#linearGradient648"
       id="linearGradient2231"
       x1="80.096237"
       y1="492.60013"
       x2="506.01083"
       y2="492.60013"
       gradientTransform="scale(1.5859308,0.6305445)"
       gradientUnits="userSpaceOnUse" /><linearGradient
       inkscape:collect="always"
       xlink:href="#linearGradient648"
       id="linearGradient2233"
       x1="126.93458"
       y1="667.19916"
       x2="210.9185"
       y2="667.19916"
       gradientTransform="scale(1.2611473,0.7929288)"
       gradientUnits="userSpaceOnUse" /><linearGradient
       inkscape:collect="always"
       xlink:href="#linearGradient648"
       id="linearGradient2235"
       x1="208.80136"
       y1="672.68066"
       x2="321.64752"
       y2="672.68066"
       gradientTransform="scale(1.5134697,0.6607334)"
       gradientUnits="userSpaceOnUse" /><linearGradient
       inkscape:collect="always"
       xlink:href="#linearGradient648"
       id="linearGradient2237"
       gradientTransform="scale(1.0892389,0.9180723)"
       x1="527.01508"
       y1="485.64624"
       x2="549.77368"
       y2="485.64624"
       gradientUnits="userSpaceOnUse" /><radialGradient
       inkscape:collect="always"
       xlink:href="#linearGradient680"
       id="radialGradient2239"
       gradientTransform="scale(1.0408337,0.9607683)"
       cx="509.71149"
       cy="566.71265"
       fx="509.71149"
       fy="566.71265"
       r="5.3610978"
       gradientUnits="userSpaceOnUse" /><linearGradient
       inkscape:collect="always"
       xlink:href="#linearGradient648"
       id="linearGradient2241"
       x1="2.7110934"
       y1="677.0036"
       x2="114.79267"
       y2="677.0036"
       gradientTransform="scale(1.7158984,0.5827851)"
       gradientUnits="userSpaceOnUse" /><linearGradient
       inkscape:collect="always"
       xlink:href="#linearGradient648"
       id="linearGradient2243"
       x1="399.18549"
       y1="623.85706"
       x2="382.50131"
       y2="623.85785"
       gradientTransform="scale(1.3328126,0.750293)"
       gradientUnits="userSpaceOnUse" /><linearGradient
       inkscape:collect="always"
       xlink:href="#linearGradient697"
       id="linearGradient2245"
       spreadMethod="repeat"
       x1="445.85782"
       y1="604.3822"
       x2="446.50424"
       y2="606.95593"
       gradientTransform="scale(1.1975744,0.8350212)"
       gradientUnits="userSpaceOnUse" /><linearGradient
       inkscape:collect="always"
       xlink:href="#linearGradient697"
       id="linearGradient2247"
       spreadMethod="repeat"
       x1="442.07745"
       y1="642.34393"
       x2="442.71289"
       y2="644.87384"
       gradientTransform="scale(1.3503863,0.7405289)"
       gradientUnits="userSpaceOnUse" /><linearGradient
       inkscape:collect="always"
       xlink:href="#linearGradient697"
       id="linearGradient2249"
       spreadMethod="repeat"
       x1="584.24469"
       y1="588.78644"
       x2="584.69617"
       y2="590.5838"
       gradientTransform="scale(1.1649668,0.8583935)"
       gradientUnits="userSpaceOnUse" /><linearGradient
       inkscape:collect="always"
       xlink:href="#linearGradient697"
       id="linearGradient2251"
       spreadMethod="repeat"
       x1="417.07773"
       y1="749.0155"
       x2="417.54016"
       y2="750.85663"
       gradientTransform="scale(1.5041231,0.6648392)"
       gradientUnits="userSpaceOnUse" /><linearGradient
       inkscape:collect="always"
       xlink:href="#linearGradient697"
       id="linearGradient2253"
       spreadMethod="repeat"
       x1="407.9501"
       y1="637.26379"
       x2="408.58554"
       y2="639.7937"
       gradientTransform="scale(1.3503863,0.7405289)"
       gradientUnits="userSpaceOnUse" /><linearGradient
       inkscape:collect="always"
       xlink:href="#linearGradient697"
       id="linearGradient2255"
       spreadMethod="repeat"
       x1="252.15698"
       y1="883.86829"
       x2="252.69012"
       y2="885.99091"
       gradientTransform="scale(1.8406776,0.5432782)"
       gradientUnits="userSpaceOnUse" /><linearGradient
       inkscape:collect="always"
       xlink:href="#linearGradient697"
       id="linearGradient2257"
       spreadMethod="repeat"
       x1="483.70346"
       y1="648.93097"
       x2="484.33801"
       y2="651.4574"
       gradientTransform="scale(1.3449336,0.7435311)"
       gradientUnits="userSpaceOnUse" /><linearGradient
       inkscape:collect="always"
       xlink:href="#linearGradient730"
       id="linearGradient2259"
       x1="308.86273"
       y1="830.98694"
       x2="305.01724"
       y2="1061.8368"
       gradientTransform="scale(1.3260928,0.754095)"
       gradientUnits="userSpaceOnUse" /></defs><sodipodi:namedview
     id="base"
     inkscape:zoom="0.36014217"
     inkscape:cx="372.04724"
     inkscape:cy="526.18109"
     inkscape:window-width="822"
     inkscape:window-height="592"
     inkscape:window-x="3"
     inkscape:window-y="25"
     inkscape:current-layer="svg602" /><g
     id="g2204"
     transform="matrix(0.8,0,0,0.8,115.96555,-243.68198)"><rect
       y="304.60248"
       x="-144.95694"
       height="649.99988"
       width="1000"
       id="rect709"
       style="font-size:12px;fill:#00a4b0;fill-opacity:1;fill-rule:evenodd;stroke-width:1" /><g
       transform="matrix(0.981174,0,0,1,34.32483,7.802322)"
       id="g734"><g
         transform="matrix(-0.99477,-0.102139,-0.102139,0.99477,810.5366,136.8165)"
         id="g710"><path
           transform="matrix(0.997319,-7.317368e-2,7.317368e-2,0.997319,110.5446,177.2834)"
           sodipodi:ry="33.210602"
           sodipodi:rx="117.46716"
           sodipodi:cy="389.37991"
           sodipodi:cx="475.40381"
           d="M 592.87097 389.37991 A 117.46716 33.210602 0 1 1  357.93665,389.37991 A 117.46716 33.210602 0 1 1  592.87097 389.37991 z"
           id="path674"
           style="fill:url(#linearGradient2227);fill-opacity:1;fill-rule:evenodd;stroke:none;stroke-width:1pt;stroke-linecap:butt;stroke-linejoin:miter;stroke-opacity:1"
           sodipodi:type="arc" /><path
           transform="matrix(0.812496,-0.518453,0.515596,0.816998,-309.5575,244.179)"
           sodipodi:nodetypes="ccccccccccccc"
           id="path639"
           d="M 542.6321,783.688 C 542.7313,782.0723 543.7622,775.2277 542.6366,774.0826 C 539.2656,770.6533 540.9684,732.8645 540.054,724.8445 C 536.5371,716.3491 534.6602,710.876 533.3685,701.5901 C 530.9803,684.4216 541.839,665.9598 561.1805,673.4807 C 575.2924,678.968 590.7171,729.2765 594.3259,743.6022 C 600.5202,768.191 604.6937,816.2764 595.6566,840.1567 C 589.9496,855.2369 581.6987,831.836 579.6844,829.5333 C 577.3915,826.9121 574.051,824.9878 571.5338,822.4117 C 569.667,820.5011 570.3301,817.5109 568.558,815.6002 C 567.1128,814.0418 564.1051,813.1357 562.3167,812.0462 C 560.1156,810.7053 556.9564,798.5033 552.4448,795.5935 C 550.4333,794.2963 543.5741,786.9994 542.6321,783.688 z "
           style="font-size:12px;fill:url(#linearGradient2229);fill-rule:evenodd" /><path
           transform="matrix(0.812496,-0.518453,0.515596,0.816998,-208.7229,472.2169)"
           sodipodi:nodetypes="ccccccsssssssccccccss"
           id="path611"
           d="M 135.4627,389.9425 C 148.9325,367.4086 208.7086,327.9569 236.5489,317.5644 C 279.3212,301.5983 413.2079,316.7829 450.1192,326.5545 C 472.0342,332.3561 595.129,372.8303 622.5586,390.9284 C 646.7836,406.7462 684.7986,416.3945 714.1598,438.1615 C 745.8942,461.6883 776.1638,505.4277 798.8868,538.417 C 804.4625,550.4393 803.2413,563.546 797.5568,570.482 C 789.9243,574.597 746.6254,538.8823 708.2812,508.5348 C 687.9553,492.6916 654.935,491.193 638.741,480.9566 C 622.5471,470.7202 615.1794,460.9789 614.481,461.0734 C 612.8397,461.3156 618.8727,471.9104 633.9741,483.18 C 649.0754,494.4495 693.6902,494.43 704.9252,517.0128 C 717.1158,540.3292 750.1234,558.324 765.6422,567.919 C 783.894,578.839 791.8008,568.292 790.6799,570.223 C 784.4626,582.543 779.1046,579.69 764.1772,575.986 C 714.5596,563.322 654.5682,537.2526 604.7529,533.3158 C 550.2372,540.198 477.7048,537.0748 434.4605,517.0572 C 399.3087,500.7855 370.1926,481.678 338.953,458.9883 C 310.3663,438.2254 260.2789,401.2802 225.4608,395.5491 C 219.2336,394.524 188.2758,397.5274 180.3469,403.7154 C 164.1634,414.7637 105.386,440.2586 135.4627,389.9425 z "
           style="font-size:12px;fill:url(#linearGradient2231);fill-rule:evenodd" /><path
           sodipodi:nodetypes="cccccccc"
           id="path616"
           d="M 160.0832,595.6347 C 164.8132,588.7879 164.7751,584.2756 180.0275,572.0096 C 181.1348,569.0553 192.0738,558.6178 197.2223,558.7869 C 204.0286,553.2696 207.5648,549.7396 215.4352,547.7311 C 222.6071,543.7791 223.8955,539.4338 231.8531,536.4019 C 234.4476,535.9368 238.8018,533.6452 243.5095,530.6207 C 251.0543,527.2179 260.2336,530.3686 265.9993,530.3994 C 264.6556,535.6821 209.4028,556.1618 160.0832,595.6347 z "
           style="font-size:12px;fill:url(#linearGradient2233);fill-rule:evenodd" /><path
           transform="matrix(0.812496,-0.518453,0.515596,0.816998,-208.7229,472.2169)"
           sodipodi:nodetypes="ccccccccccccc"
           id="path615"
           d="M 374.4287,459.4183 C 376.0474,459.4183 382.9423,460.028 384.0162,458.8344 C 387.2326,455.2596 425.0548,454.6445 433.0038,453.2405 C 441.2677,449.2099 446.6156,447.0012 455.805,445.1431 C 472.7949,441.7078 491.8871,451.4152 485.5652,471.181 C 480.9527,485.6025 431.6835,504.0799 417.6058,508.5595 C 393.4425,516.2484 345.703,523.3596 321.3141,515.8022 C 305.9125,511.0297 328.7641,501.3608 330.9391,499.2093 C 333.4149,496.7601 335.131,493.308 337.5481,490.6377 C 339.3407,488.6574 342.366,489.1361 344.1645,487.2503 C 345.6314,485.7123 346.3516,482.6548 347.3296,480.803 C 348.5331,478.5239 360.5186,474.6232 363.1465,469.9418 C 364.3181,467.8546 371.1812,460.5614 374.4287,459.4183 z "
           style="font-size:12px;fill:url(#linearGradient2235);fill-rule:evenodd" /><g
           transform="translate(-0.434875,-5.653412)"
           id="g684"><path
             sodipodi:nodetypes="cscsc"
             id="path683"
             d="M 598.8349,456.142 C 598.8349,462.6654 589.1265,468.439 583.4911,466.2987 C 576.8755,463.2563 574.0453,463.5794 574.0453,457.056 C 578.8306,451.6297 582.1032,447.5732 584.9,446.4444 C 590.3968,443.9929 598.8349,449.6186 598.8349,456.142 z "
             style="font-size:12px;fill:url(#linearGradient2237);fill-rule:evenodd"
             transform="matrix(1.147496,-0.173599,0.147987,0.757176,-211.7008,300.2777)" /><path
             transform="translate(-0.434875,-0.434906)"
             sodipodi:ry="7.380127"
             sodipodi:rx="7.9951477"
             sodipodi:cy="544.36279"
             sodipodi:cx="530.75476"
             d="M 538.74991 544.36279 A 7.9951477 7.380127 0 1 1  522.75961,544.36279 A 7.9951477 7.380127 0 1 1  538.74991 544.36279 z"
             id="path678"
             style="fill:url(#radialGradient2239);fill-opacity:1;fill-rule:evenodd;stroke:none;stroke-width:1pt;stroke-linecap:butt;stroke-linejoin:miter;stroke-opacity:1"
             sodipodi:type="arc" /></g><path
           transform="matrix(0.812496,-0.518453,0.515596,0.816998,-208.7229,472.2169)"
           sodipodi:nodetypes="cccccccccc"
           id="path610"
           d="M 177.8093,403.4299 C 192.7892,417.426 212.6654,443.2961 176.7317,457.1634 C 163.2429,461.493 173.6601,460.7755 160.9685,453.9012 C 154.3224,450.3013 122.1111,451.1502 113.8481,451.1476 C 107.3624,451.1456 116.0232,439.8347 112.6225,434.4021 C 101.6328,445.5397 94.89517,438.3425 82.65069,443.328 C 38.9395,417.3779 6.534189,424.9553 4.96688,419.1811 C -1.263454,409.0696 86.40347,389.1092 139.1196,395.9429 C 143.283,403.2235 136.3737,411.5357 130.506,418.2066 C 136.8835,423.8224 163.4035,412.2896 177.8093,403.4299 z "
           style="font-size:12px;fill:url(#linearGradient2241);fill-rule:evenodd" /><path
           sodipodi:nodetypes="ccccc"
           id="path693"
           d="M 532.0095,472.1526 C 533.217,475.6849 525.6957,479.3766 515.2102,480.3985 C 503.8451,471.3623 525.9674,481.9242 522.1038,473.1179 C 519.7776,466.3135 505.879,477.3118 511.0405,468.2021 C 521.5261,467.1802 530.8018,468.6203 532.0095,472.1526 z "
           style="font-size:12px;fill:url(#linearGradient2243);fill-rule:evenodd;stroke-width:1" /><path
           sodipodi:nodetypes="cccccccccc"
           id="path702"
           d="M 534.6679,510.9158 C 536.7799,506.7229 541.229,503.9201 542.3343,501.3728 C 547.7309,497.7416 555.8059,496.6918 551.742,502.3066 C 553.1745,505.0235 553.2776,506.2122 547.5567,509.2285 C 541.4481,510.4845 536.1004,513.6327 534.6679,510.9158 z M 532.1311,512.2534 C 530.0719,508.3478 534.5639,503.898 541.2981,498.3828 C 548.4199,494.6279 551.8954,496.4487 557.9219,498.6555 C 558.0992,500.0168 555.8768,508.7711 548.7549,512.526 C 541.668,514.2979 534.1902,516.1589 532.1311,512.2534 z "
           style="font-size:12px;fill:url(#linearGradient2245);fill-rule:evenodd;stroke-width:1" /><path
           sodipodi:nodetypes="cccccccccc"
           id="path703"
           d="M 597.2712,476.2987 C 601.0949,479.0226 606.3377,479.4269 608.5034,481.1648 C 614.9707,481.86 622.6033,479.0225 616.3898,475.9511 C 616.3898,472.8797 615.9266,471.7801 609.4593,471.7801 C 603.4699,473.518 597.2712,473.2273 597.2712,476.2987 z M 594.4033,476.2986 C 594.4033,480.7138 600.4521,482.555 608.9813,484.2929 C 617.0324,484.2929 619.2575,481.0614 623.5592,476.2986 C 623.0812,475.0117 617.0324,468.3043 608.9813,468.3043 C 601.886,470.0422 594.4033,471.8835 594.4033,476.2986 z "
           style="font-size:12px;fill:url(#linearGradient2247);fill-rule:evenodd;stroke-width:1" /><path
           sodipodi:nodetypes="cccccccccc"
           id="path704"
           d="M 695.1613,505.9248 C 692.8177,508.168 689.6044,508.5009 688.277,509.9322 C 684.3132,510.5047 679.6352,508.1679 683.4434,505.6385 C 683.4434,503.1091 683.7273,502.2036 687.6912,502.2036 C 691.3621,503.6348 695.1613,503.3954 695.1613,505.9248 z M 696.919,505.9247 C 696.919,509.5607 693.2117,511.077 687.9841,512.5082 C 683.0496,512.5082 681.6858,509.847 679.0493,505.9247 C 679.3423,504.8649 683.0496,499.3411 687.9841,499.3411 C 692.3329,500.7724 696.919,502.2887 696.919,505.9247 z "
           style="font-size:12px;fill:url(#linearGradient2249);fill-rule:evenodd;stroke-width:1" /><path
           sodipodi:nodetypes="cccccccccc"
           id="path705"
           d="M 627.7756,495.7688 C 631.7048,495.0706 636.0423,496.0149 638.3293,495.5081 C 643.7417,496.5608 648.9764,499.8919 643.0186,500.2528 C 642.0504,502.0066 641.3318,502.5306 636.1384,501.0809 C 631.8767,498.7461 626.8073,497.5225 627.7756,495.7688 z M 625.4726,495.126 C 626.8644,492.605 632.3022,492.9095 639.6991,493.829 C 646.1643,495.6338 646.9324,497.9777 648.8853,501.6615 C 648.0958,502.2891 641.124,504.7632 634.6588,502.9584 C 629.5091,500.3757 624.0807,497.647 625.4726,495.126 z "
           style="font-size:12px;fill:url(#linearGradient2251);fill-rule:evenodd;stroke-width:1" /><path
           sodipodi:nodetypes="cccccccccc"
           id="path706"
           d="M 574.6062,472.5367 C 570.7825,475.2606 565.5397,475.6649 563.374,477.4028 C 556.9067,478.098 549.2741,475.2605 555.4876,472.1891 C 555.4876,469.1177 555.9508,468.0181 562.4181,468.0181 C 568.4075,469.756 574.6062,469.4653 574.6062,472.5367 z M 577.4741,472.5366 C 577.4741,476.9518 571.4253,478.793 562.8961,480.5309 C 554.845,480.5309 552.6199,477.2994 548.3182,472.5366 C 548.7962,471.2497 554.845,464.5423 562.8961,464.5423 C 569.9914,466.2802 577.4741,468.1215 577.4741,472.5366 z "
           style="font-size:12px;fill:url(#linearGradient2253);fill-rule:evenodd;stroke-width:1" /><path
           sodipodi:nodetypes="cccccccccc"
           id="path707"
           d="M 490.9173,479.6167 C 485.2491,481.5645 479.1224,482.2103 475.8156,483.432 C 468.1608,484.3482 460.9335,483.2056 469.4751,480.8642 C 470.9922,478.9969 472.0589,478.293 479.3704,477.7996 C 485.2831,478.3991 492.4343,477.7495 490.9173,479.6167 z M 494.1595,479.3978 C 491.9787,482.0821 484.2312,483.6629 473.7303,485.3702 C 464.6284,485.9846 463.7091,484.1898 461.1983,481.6224 C 462.3744,480.8036 472.5257,476.2644 481.6275,475.65 C 488.7905,476.1652 496.3403,476.7137 494.1595,479.3978 z "
           style="font-size:12px;fill:url(#linearGradient2255);fill-rule:evenodd;stroke-width:1" /><path
           sodipodi:nodetypes="cccccccccc"
           id="path708"
           d="M 650.8736,479.585 C 655.0341,478.1812 660.2964,479.3492 662.6786,478.3731 C 669.1958,479.6314 676.4011,484.5132 669.8205,485.536 C 669.4124,488.3882 668.8061,489.2729 662.3814,487.3691 C 656.6624,483.992 650.4657,482.437 650.8736,479.585 z M 648.0246,478.7406 C 648.6112,474.6407 654.8648,474.7118 663.5691,475.6089 C 671.5672,477.9791 673.3483,481.6349 676.989,487.324 C 676.3431,488.3782 669.4428,492.8261 661.4447,490.456 C 654.6269,486.7533 647.438,482.8405 648.0246,478.7406 z "
           style="font-size:12px;fill:url(#linearGradient2257);fill-rule:evenodd;stroke-width:1" /></g><path
         sodipodi:nodetypes="cscccssssccccsssssccsccsscscccssss"
         id="path733"
         d="M 422.2995,808.9001 C 424.0976,813.5041 429.7727,825.5739 425.4504,828.1528 C 418.6104,832.0524 378.7191,805.0201 351.1551,764.6284 C 284.2193,755.3439 221.1486,695.0063 209.2963,684.8439 C 208.2771,684.0872 205.922,685.4083 201.4281,685.2101 C 197.4567,685.2828 187.3409,691.4947 185.6194,691.8786 C 182.1802,692.5308 180.7417,690.277 177.4102,690.9523 C 175.1701,691.4296 174.7527,694.0267 170.2513,694.3513 C 164.9155,694.7265 162.2514,694.1064 161.3978,694.5392 C 156.2924,696.8207 145.1897,702.9524 142.45,699.5089 C 138.6767,693.3104 153.6991,671.0605 166.2108,653.8235 C 261.7132,696.2755 486.2501,638.4422 454.784,616.4033 C 463.3777,620.9947 473.5984,626.4407 490.2881,636.8927 C 501.6978,636.7843 509.2809,637.4496 512.7242,638.9782 C 514.042,639.767 516.6255,641.3409 519.3641,643.4985 C 521.7938,645.5936 525.4174,646.7642 527.9763,648.3295 C 531.2982,650.4508 535.6379,655.7319 536.9036,657.4622 C 537.4387,658.1727 542.855,659.7142 548.0558,663.9888 C 553.4055,668.1562 554.7049,670.0213 556.7163,672.0828 C 561.0347,672.5496 570.0409,681.4966 573.0148,687.3856 C 577.8254,691.4379 580.2768,695.1871 582.505,698.114 C 586.3408,703.9852 589.6819,710.715 590.4034,712.9966 C 610.2493,728.0958 641.5217,817.6624 634.3929,848.329 C 668.8168,869.124 726.6544,936.478 717.0344,943.17 C 708.1494,948.9613 703.351,925.8462 643.1284,915.8793 C 640.7697,915.4919 624.8449,900.5334 626.1328,890.7941 C 624.9213,888.8447 620.0048,903.814 616.3411,903.6095 C 614.2114,903.4827 583.8211,873.1622 568.0532,876.6171 C 557.3243,863.5872 543.4674,832.3486 593.2858,827.9556 C 561.2883,766.4797 479.0455,779.1825 415.9883,772.4041 C 417.9004,776.0712 420.4558,782.3627 420.925,785.0555 C 421.3454,787.3528 419.3522,788.4744 419.4152,791.4561 C 419.6655,794.0075 422.2861,796.8691 422.4373,797.7686 C 422.951,800.3369 421.6545,807.2898 422.2995,808.9001 z "
         style="font-size:12px;fill:url(#linearGradient2259);fill-opacity:0.25410001;fill-rule:evenodd;stroke-width:1" /></g></g></svg>