<?xml version="1.0" encoding="UTF-8" standalone="no"?>
<!-- Created with Sodipodi ("http://www.sodipodi.com/") -->
<svg
   xmlns:dc="http://purl.org/dc/elements/1.1/"
   xmlns:cc="http://web.resource.org/cc/"
   xmlns:rdf="http://www.w3.org/1999/02/22-rdf-syntax-ns#"
   xmlns:svg="http://www.w3.org/2000/svg"
   xmlns="http://www.w3.org/2000/svg"
   xmlns:xlink="http://www.w3.org/1999/xlink"
   xmlns:sodipodi="http://sodipodi.sourceforge.net/DTD/sodipodi-0.dtd"
   xmlns:inkscape="http://www.inkscape.org/namespaces/inkscape"
   id="svg602"
   sodipodi:version="0.32"
   width="269.71735"
   height="125.64372"
   xml:space="preserve"
   sodipodi:docbase="/home/bruno/Projets/gcomprixogoo/src/reversecount-activity/resources/reversecount"
   sodipodi:docname="dice_area.svgz"
   inkscape:version="0.45.1"
   inkscape:output_extension="org.inkscape.output.svgz.inkscape"
   version="1.0"><metadata
     id="metadata23"><rdf:RDF><cc:Work
         rdf:about=""><dc:format>image/svg+xml</dc:format><dc:type
           rdf:resource="http://purl.org/dc/dcmitype/StillImage" /></cc:Work></rdf:RDF></metadata><defs
     id="defs604"><linearGradient
       id="linearGradient618"><stop
         style="stop-color:#2477ff;stop-opacity:1;"
         offset="0"
         id="stop619" /><stop
         style="stop-color:#ffffff;stop-opacity:1;"
         offset="1"
         id="stop620" /></linearGradient><linearGradient
       id="linearGradient612"><stop
         style="stop-color:#1873fa;stop-opacity:0.49803922;"
         offset="0"
         id="stop613" /><stop
         style="stop-color:#d2ffdf;stop-opacity:0.702;"
         offset="1"
         id="stop614" /></linearGradient><linearGradient
       xlink:href="#linearGradient618"
       id="linearGradient615"
       x1="300.79312"
       y1="654.67273"
       x2="276.33325"
       y2="724.95807"
       spreadMethod="pad"
       gradientTransform="scale(1.261335,0.7928108)"
       gradientUnits="userSpaceOnUse" /><linearGradient
       xlink:href="#linearGradient612"
       id="linearGradient616"
       gradientTransform="scale(1.7696933,0.5650697)"
       x1="75.292877"
       y1="1004.0671"
       x2="312.4985"
       y2="1004.0671"
       gradientUnits="userSpaceOnUse" /><linearGradient
       xlink:href="#linearGradient618"
       id="linearGradient629"
       x1="0.083892383"
       y1="0.10833476"
       x2="0.5704698"
       y2="0.50833338" /><radialGradient
       xlink:href="#linearGradient618"
       id="radialGradient656"
       cx="126.15959"
       cy="1157.882"
       r="31.709867"
       fx="126.15959"
       fy="1157.882"
       gradientTransform="scale(2.5512675,0.391962)"
       gradientUnits="userSpaceOnUse" /><radialGradient
       xlink:href="#linearGradient618"
       id="radialGradient657" /><radialGradient
       inkscape:collect="always"
       xlink:href="#linearGradient618"
       id="radialGradient2175"
       cx="259.00864"
       cy="917.49939"
       fx="259.00864"
       fy="917.49939"
       r="90.382477"
       gradientTransform="scale(1.5802723,0.6328023)"
       gradientUnits="userSpaceOnUse" /><radialGradient
       inkscape:collect="always"
       xlink:href="#linearGradient618"
       id="radialGradient2177"
       cx="109.32731"
       cy="1146.0134"
       fx="109.32731"
       fy="1146.0134"
       r="25.760361"
       gradientTransform="scale(2.3531015,0.424971)"
       gradientUnits="userSpaceOnUse" /><linearGradient
       inkscape:collect="always"
       xlink:href="#linearGradient612"
       id="linearGradient2182"
       gradientUnits="userSpaceOnUse"
       gradientTransform="matrix(1.1165477,0,0,0.3565179,-79.801433,-274.60814)"
       x1="75.292877"
       y1="1004.0671"
       x2="312.4985"
       y2="1004.0671" /><linearGradient
       inkscape:collect="always"
       xlink:href="#linearGradient618"
       id="linearGradient3156"
       gradientUnits="userSpaceOnUse"
       gradientTransform="matrix(0.7958106,0,0,0.5002059,-79.801433,-274.60814)"
       spreadMethod="pad"
       x1="300.79312"
       y1="654.67273"
       x2="276.33325"
       y2="724.95807" /><radialGradient
       inkscape:collect="always"
       xlink:href="#linearGradient618"
       id="radialGradient3159"
       gradientUnits="userSpaceOnUse"
       gradientTransform="matrix(1.6096642,0,0,0.2472995,-79.801433,-274.60814)"
       cx="126.15959"
       cy="1157.882"
       fx="126.15959"
       fy="1157.882"
       r="31.709867" /><radialGradient
       inkscape:collect="always"
       xlink:href="#linearGradient618"
       id="radialGradient3162"
       gradientUnits="userSpaceOnUse"
       gradientTransform="matrix(1.4846359,0,0,0.2681258,-79.801433,-274.60814)"
       cx="109.32731"
       cy="1146.0134"
       fx="109.32731"
       fy="1146.0134"
       r="25.760361" /><radialGradient
       inkscape:collect="always"
       xlink:href="#linearGradient618"
       id="radialGradient3165"
       gradientUnits="userSpaceOnUse"
       gradientTransform="matrix(0.9970369,0,0,0.3992522,-123.38249,-312.13286)"
       cx="259.00864"
       cy="917.49939"
       fx="259.00864"
       fy="917.49939"
       r="90.382477" /></defs><sodipodi:namedview
     id="base"
     inkscape:zoom="0.58505268"
     inkscape:cx="372.04724"
     inkscape:cy="128.54657"
     inkscape:window-width="910"
     inkscape:window-height="627"
     inkscape:window-x="9"
     inkscape:window-y="75"
     inkscape:current-layer="svg602" /><path
     sodipodi:nodetypes="ccscccssssccssssc"
     id="path607"
     d="M 4.2666582,62.078933 C 7.7797242,83.859803 6.3958484,80.271973 5.6931847,93.621447 C 10.962815,97.837113 10.966916,99.748886 23.226148,100.62619 L 63.165673,103.48423 L 109.06696,116.03022 L 153.4778,118.88832 L 189.69113,124.7273 C 203.19619,126.90481 216.97615,125.52308 227.75983,117.07869 C 235.78339,110.32928 237.86653,108.17246 245.92435,103.69981 C 254.32143,98.262169 259.77283,80.621191 266.32444,72.435414 C 267.58118,70.8651 268.68366,65.526761 269.11806,58.346493 L 265.75351,41.07568 C 271.00232,48.780879 265.73332,46.550551 262.606,50.573217 L 227.4137,95.841617 C 221.05238,104.02424 203.96037,105.69765 199.57088,104.92766 L 15.577543,72.655482 C 9.1692784,71.531485 7.3483592,68.00334 4.2666582,62.078933 z "
     style="font-size:12px;fill:url(#linearGradient2182);fill-rule:evenodd" /><path
     style="font-size:12px;fill:url(#radialGradient3165);fill-rule:evenodd"
     d="M 269.71736,40.038682 C 269.71736,49.860957 265.28882,52.650981 263.17118,60.253717 C 261.05347,67.856391 252.30396,72.074265 246.64284,77.30011 C 240.98178,82.525954 236.73463,92.575679 227.77887,98.9035 C 212.67725,109.04736 220.07228,108.94206 192.61389,107.45155 C 175.61507,106.50314 148.84293,100.94297 129.1069,102.48994 C 108.59242,103.32321 75.778085,87.556211 68.906026,84.75237 C 50.582637,79.263429 34.227993,85.372571 20.728799,84.240688 C 7.2697331,83.857337 0,79.670062 0,69.847786 C 0,60.025511 10.530113,45.079033 14.359463,38.221548 C 18.188812,31.364063 27.241104,20.671991 33.228225,16.377711 C 39.215346,12.083368 36.175539,5.989431 42.648789,3.8567076 C 49.122166,1.7240473 55.410618,0.28767836 60.708514,0.19922236 C 77.723613,-0.084947269 91.624013,2.5624234 114.06149,3.3676759 C 136.49884,4.1728653 164.50248,16.088999 185.90656,18.799715 C 207.31064,21.510367 226.58661,20.977486 240.51149,26.693813 C 254.43643,32.410204 269.71736,30.216406 269.71736,40.038682 z "
     id="path617"
     sodipodi:nodetypes="cssssssssssssssss" /><path
     style="font-size:12px;fill:url(#radialGradient3162);fill-opacity:0.38670002;fill-rule:evenodd"
     d="M 84.148673,22.331084 C 84.334986,25.366412 148.2982,36.747961 138.7777,41.694115 C 131.36077,44.729317 69.845552,38.353545 59.556075,36.863105 C 38.977184,36.863105 38.689734,46.39629 25.275652,41.706986 C 29.747034,34.782055 52.103878,34.781992 84.148673,22.331084 z "
     id="path622"
     sodipodi:nodetypes="csccc" /><path
     style="font-size:12px;fill:url(#radialGradient3159);fill-rule:evenodd"
     d="M 199.65902,22.331021 C 181.02831,24.728734 172.29975,24.194086 128.86236,12.270444 C 95.11299,12.270444 46.887245,11.314589 46.887245,3.7003071 C 46.887245,-3.9137861 78.717967,2.5824932 112.46734,2.5824932 C 141.74526,7.0538747 175.81174,17.697806 199.65902,22.331021 z "
     id="path624"
     sodipodi:nodetypes="ccccc" /><path
     style="font-size:12px;fill:url(#linearGradient3156);fill-rule:evenodd"
     d="M 181.6504,70.449129 C 178.63388,71.769092 171.19348,103.73653 134.73857,73.759352 C 140.38032,66.982563 126.61607,51.41765 129.63253,50.097751 C 155.67816,45.865238 178.63741,52.277857 186.64217,57.690014 C 193.90175,74.280687 184.66687,69.129229 181.6504,70.449129 z "
     id="path649"
     sodipodi:nodetypes="ccccc" /></svg>