<?xml version="1.0" encoding="UTF-8" standalone="no"?>
<!-- Created with Sodipodi ("http://www.sodipodi.com/") -->
<svg
   xmlns:dc="http://purl.org/dc/elements/1.1/"
   xmlns:cc="http://web.resource.org/cc/"
   xmlns:rdf="http://www.w3.org/1999/02/22-rdf-syntax-ns#"
   xmlns:svg="http://www.w3.org/2000/svg"
   xmlns="http://www.w3.org/2000/svg"
   xmlns:xlink="http://www.w3.org/1999/xlink"
   xmlns:sodipodi="http://sodipodi.sourceforge.net/DTD/sodipodi-0.dtd"
   xmlns:inkscape="http://www.inkscape.org/namespaces/inkscape"
   id="svg609"
   sodipodi:version="0.32"
   width="799.99994"
   height="519.99976"
   xml:space="preserve"
   sodipodi:docbase="/home/bruno/Projets/gcompris/gcomprixogoo/src/reversecount-activity/resources/reversecount"
   sodipodi:docname="elephant_mer.svgz"
   inkscape:version="0.45.1"
   inkscape:output_extension="org.inkscape.output.svgz.inkscape"
   version="1.0"><metadata
     id="metadata78"><rdf:RDF><cc:Work
         rdf:about=""><dc:format>image/svg+xml</dc:format><dc:type
           rdf:resource="http://purl.org/dc/dcmitype/StillImage" /></cc:Work></rdf:RDF></metadata><defs
     id="defs611"><linearGradient
       id="linearGradient865"><stop
         style="stop-color:#e6eeff;stop-opacity:0.498;"
         offset="0"
         id="stop866" /><stop
         style="stop-color:#d1ffde;stop-opacity:0.702;"
         offset="1"
         id="stop867" /></linearGradient><linearGradient
       id="linearGradient814"><stop
         style="stop-color:#e8d7aa;stop-opacity:1;"
         offset="0"
         id="stop815" /><stop
         style="stop-color:#faffd2;stop-opacity:1;"
         offset="1"
         id="stop816" /></linearGradient><linearGradient
       id="linearGradient811"><stop
         style="stop-color:#d1edf7;stop-opacity:1;"
         offset="0"
         id="stop812" /><stop
         style="stop-color:#ffffff;stop-opacity:1;"
         offset="1"
         id="stop813" /></linearGradient><linearGradient
       id="linearGradient731"><stop
         style="stop-color:#e37a5a;stop-opacity:1;"
         offset="0"
         id="stop732" /><stop
         style="stop-color:#371d32;stop-opacity:1;"
         offset="1"
         id="stop733" /></linearGradient><linearGradient
       id="linearGradient728"><stop
         style="stop-color:#8c7a5a;stop-opacity:1;"
         offset="0"
         id="stop729" /><stop
         style="stop-color:#a79a7a;stop-opacity:1;"
         offset="1"
         id="stop730" /></linearGradient><linearGradient
       id="linearGradient652"><stop
         style="stop-color:#ffffff;stop-opacity:1;"
         offset="0"
         id="stop653" /><stop
         style="stop-color:#000000;stop-opacity:1;"
         offset="1"
         id="stop654" /></linearGradient><linearGradient
       id="linearGradient624"><stop
         style="stop-color:#000;stop-opacity:1;"
         offset="0"
         id="stop625" /><stop
         style="stop-color:#fff;stop-opacity:1;"
         offset="1"
         id="stop626" /></linearGradient><linearGradient
       xlink:href="#linearGradient865"
       id="linearGradient627"
       x1="0.90268397"
       y1="0.52083337"
       x2="0.77852339"
       y2="0.55208331"
       spreadMethod="reflect" /><radialGradient
       xlink:href="#linearGradient731"
       id="radialGradient628"
       cx="0.21249066"
       cy="0.21078229"
       r="0.71271235"
       fx="0.21249066"
       fy="0.21078229" /><linearGradient
       xlink:href="#linearGradient728"
       id="linearGradient629"
       x1="0.17521369"
       y1="0.82812488"
       x2="0.61965817"
       y2="0.56249994" /><linearGradient
       xlink:href="#linearGradient814"
       id="linearGradient640"
       x1="0.22623955"
       y1="0.57815599"
       x2="0.53571719"
       y2="0.57812619" /><linearGradient
       xlink:href="#linearGradient624"
       id="linearGradient641"
       x1="-0.034719404"
       y1="0.83593476"
       x2="1.1736113"
       y2="0.015624939" /><radialGradient
       xlink:href="#linearGradient652"
       id="radialGradient651"
       cx="0.80471331"
       cy="0.52342224"
       r="0.53342998"
       fx="0.80471331"
       fy="0.52342224"
       gradientTransform="translate(2.174944e-6,-2.432191e-7)" /><linearGradient
       xlink:href="#linearGradient624"
       id="linearGradient665"
       x1="0.53313422"
       y1="0.14070822"
       x2="-0.46666932"
       y2="0.93750072" /><radialGradient
       xlink:href="#linearGradient811"
       id="radialGradient666"
       cx="0.49999991"
       cy="0.5"
       r="0.5"
       fx="0.49999991"
       fy="0.5" /><linearGradient
       xlink:href="#linearGradient652"
       id="linearGradient699"
       x1="-1.0543479"
       y1="0.96092856"
       x2="1.423913"
       y2="0.15624993" /><linearGradient
       xlink:href="#linearGradient652"
       id="linearGradient727" /><radialGradient
       xlink:href="#linearGradient731"
       id="radialGradient810" /><linearGradient
       inkscape:collect="always"
       xlink:href="#linearGradient865"
       id="linearGradient2273"
       spreadMethod="reflect"
       x1="289.41458"
       y1="1009.0089"
       x2="259.96301"
       y2="1016.4215"
       gradientTransform="scale(1.7696933,0.5650697)"
       gradientUnits="userSpaceOnUse" /><radialGradient
       inkscape:collect="always"
       xlink:href="#linearGradient811"
       id="radialGradient2275"
       cx="215.47537"
       cy="822.61102"
       fx="215.47537"
       fy="822.61102"
       r="135.37086"
       gradientTransform="scale(1.5789719,0.6333235)"
       gradientUnits="userSpaceOnUse" /><radialGradient
       inkscape:collect="always"
       xlink:href="#linearGradient811"
       id="radialGradient2277"
       cx="259.00861"
       cy="917.4989"
       fx="259.00861"
       fy="917.4989"
       r="135.25948"
       gradientTransform="scale(1.5802723,0.6328023)"
       gradientUnits="userSpaceOnUse" /><radialGradient
       inkscape:collect="always"
       xlink:href="#linearGradient811"
       id="radialGradient2279"
       cx="109.32731"
       cy="1146.0132"
       fx="109.32731"
       fy="1146.0132"
       r="38.550976"
       gradientTransform="scale(2.3531015,0.424971)"
       gradientUnits="userSpaceOnUse" /><radialGradient
       inkscape:collect="always"
       xlink:href="#linearGradient811"
       id="radialGradient2281"
       cx="126.15958"
       cy="1157.8818"
       fx="126.15958"
       fy="1157.8818"
       r="47.454552"
       gradientTransform="scale(2.5512675,0.391962)"
       gradientUnits="userSpaceOnUse" /><radialGradient
       inkscape:collect="always"
       xlink:href="#linearGradient811"
       id="radialGradient2283"
       cx="300.42313"
       cy="684.20215"
       fx="300.42313"
       fy="684.20215"
       r="37.802559"
       gradientTransform="scale(1.261335,0.7928108)"
       gradientUnits="userSpaceOnUse" /><linearGradient
       inkscape:collect="always"
       xlink:href="#linearGradient728"
       id="linearGradient2285"
       x1="84.524689"
       y1="791.27991"
       x2="280.60184"
       y2="674.0932"
       gradientTransform="scale(1.4432462,0.6928825)"
       gradientUnits="userSpaceOnUse" /><linearGradient
       inkscape:collect="always"
       xlink:href="#linearGradient728"
       id="linearGradient2287"
       x1="226.21547"
       y1="775.99817"
       x2="297.3269"
       y2="733.49799"
       gradientTransform="scale(1.3064174,0.7654521)"
       gradientUnits="userSpaceOnUse" /><linearGradient
       inkscape:collect="always"
       xlink:href="#linearGradient728"
       id="linearGradient2289"
       x1="483.37405"
       y1="452.84113"
       x2="553.76691"
       y2="410.77042"
       gradientTransform="scale(1.0495002,0.9528345)"
       gradientUnits="userSpaceOnUse" /><linearGradient
       inkscape:collect="always"
       xlink:href="#linearGradient728"
       id="linearGradient2291"
       x1="467.73123"
       y1="445.72177"
       x2="533.96826"
       y2="406.13477"
       gradientTransform="scale(1.0972112,0.9114015)"
       gradientUnits="userSpaceOnUse" /><linearGradient
       inkscape:collect="always"
       xlink:href="#linearGradient728"
       id="linearGradient2293"
       x1="447.36298"
       y1="486.64923"
       x2="524.48737"
       y2="440.55539"
       gradientTransform="scale(1.0842649,0.9222838)"
       gradientUnits="userSpaceOnUse" /><linearGradient
       inkscape:collect="always"
       xlink:href="#linearGradient728"
       id="linearGradient2295"
       x1="381.54404"
       y1="569.53687"
       x2="475.6228"
       y2="513.31012"
       gradientTransform="scale(1.1537744,0.8667205)"
       gradientUnits="userSpaceOnUse" /><linearGradient
       inkscape:collect="always"
       xlink:href="#linearGradient728"
       id="linearGradient2297"
       x1="433.47263"
       y1="520.69623"
       x2="514.58533"
       y2="472.21869"
       gradientTransform="scale(1.0942057,0.9139049)"
       gradientUnits="userSpaceOnUse" /><linearGradient
       inkscape:collect="always"
       xlink:href="#linearGradient728"
       id="linearGradient2299"
       x1="514.35358"
       y1="379.5419"
       x2="584.48041"
       y2="337.63019"
       gradientTransform="scale(1.0150583,0.9851651)"
       gradientUnits="userSpaceOnUse" /><linearGradient
       inkscape:collect="always"
       xlink:href="#linearGradient728"
       id="linearGradient2301"
       x1="606.28613"
       y1="379.98938"
       x2="631.04633"
       y2="365.19128"
       gradientTransform="scale(0.9753607,1.0252617)"
       gradientUnits="userSpaceOnUse" /><linearGradient
       inkscape:collect="always"
       xlink:href="#linearGradient728"
       id="linearGradient2303"
       x1="581.00067"
       y1="362.39807"
       x2="600.07782"
       y2="350.99649"
       gradientTransform="scale(1.0130449,0.9871231)"
       gradientUnits="userSpaceOnUse" /><linearGradient
       inkscape:collect="always"
       xlink:href="#linearGradient728"
       id="linearGradient2305"
       x1="263.58371"
       y1="142.36064"
       x2="278.98901"
       y2="133.15358"
       gradientTransform="scale(0.3118979,3.2061771)"
       gradientUnits="userSpaceOnUse" /><linearGradient
       inkscape:collect="always"
       xlink:href="#linearGradient728"
       id="linearGradient2307"
       x1="250.96735"
       y1="149.94254"
       x2="266.88181"
       y2="140.43118"
       gradientTransform="scale(0.3295188,3.0347279)"
       gradientUnits="userSpaceOnUse" /><linearGradient
       inkscape:collect="always"
       xlink:href="#linearGradient728"
       id="linearGradient2309"
       x1="60.912201"
       y1="484.22644"
       x2="100.2624"
       y2="460.70856"
       gradientTransform="scale(1.1786012,0.8484634)"
       gradientUnits="userSpaceOnUse" /><linearGradient
       inkscape:collect="always"
       xlink:href="#linearGradient728"
       id="linearGradient2311"
       x1="145.16628"
       y1="316.01337"
       x2="182.07686"
       y2="293.95355"
       gradientTransform="scale(0.826471,1.2099639)"
       gradientUnits="userSpaceOnUse" /><linearGradient
       inkscape:collect="always"
       xlink:href="#linearGradient728"
       id="linearGradient2313"
       x1="445.4563"
       y1="415.83636"
       x2="513.013"
       y2="375.46069"
       gradientTransform="scale(0.8469085,1.180765)"
       gradientUnits="userSpaceOnUse" /><radialGradient
       inkscape:collect="always"
       xlink:href="#linearGradient731"
       id="radialGradient2315"
       cx="441.87225"
       cy="499.28876"
       fx="441.87225"
       fy="499.28876"
       r="25.833607"
       gradientTransform="scale(1.3608892,0.7348137)"
       gradientUnits="userSpaceOnUse" /><linearGradient
       inkscape:collect="always"
       xlink:href="#linearGradient814"
       id="linearGradient2317"
       x1="195.7458"
       y1="299.53891"
       x2="197.06682"
       y2="299.53879"
       gradientTransform="scale(0.9922395,1.0078212)"
       gradientUnits="userSpaceOnUse" /><linearGradient
       inkscape:collect="always"
       xlink:href="#linearGradient814"
       id="linearGradient2319"
       x1="206.73682"
       y1="300.51489"
       x2="208.05783"
       y2="300.51477"
       gradientTransform="scale(0.9922418,1.0078188)"
       gradientUnits="userSpaceOnUse" /><radialGradient
       inkscape:collect="always"
       xlink:href="#linearGradient652"
       id="radialGradient2321"
       gradientTransform="scale(1.0377495,0.9636237)"
       cx="555.92285"
       cy="315.77765"
       fx="555.92285"
       fy="315.77765"
       r="8.866003"
       gradientUnits="userSpaceOnUse" /><linearGradient
       inkscape:collect="always"
       xlink:href="#linearGradient728"
       id="linearGradient2323"
       x1="645.52417"
       y1="342.4176"
       x2="693.5155"
       y2="313.73529"
       gradientTransform="scale(0.9335909,1.0711329)"
       gradientUnits="userSpaceOnUse" /><linearGradient
       inkscape:collect="always"
       xlink:href="#linearGradient728"
       id="linearGradient2325"
       x1="433.83749"
       y1="520.02026"
       x2="454.15494"
       y2="507.87738"
       gradientTransform="scale(1.4479716,0.6906213)"
       gradientUnits="userSpaceOnUse" /><linearGradient
       inkscape:collect="always"
       xlink:href="#linearGradient728"
       id="linearGradient2327"
       x1="450.57037"
       y1="492.65982"
       x2="470.73666"
       y2="480.6073"
       gradientTransform="scale(1.3937239,0.7175022)"
       gradientUnits="userSpaceOnUse" /><linearGradient
       inkscape:collect="always"
       xlink:href="#linearGradient728"
       id="linearGradient2329"
       x1="423.70087"
       y1="542.13959"
       x2="444.56418"
       y2="529.67047"
       gradientTransform="scale(1.4825465,0.6745151)"
       gradientUnits="userSpaceOnUse" /><linearGradient
       inkscape:collect="always"
       xlink:href="#linearGradient728"
       id="linearGradient2331"
       x1="401.13232"
       y1="507.52625"
       x2="414.27173"
       y2="499.6734"
       gradientTransform="scale(1.5556576,0.642815)"
       gradientUnits="userSpaceOnUse" /><linearGradient
       inkscape:collect="always"
       xlink:href="#linearGradient865"
       id="linearGradient2362"
       gradientUnits="userSpaceOnUse"
       gradientTransform="scale(1.7696933,0.5650697)"
       spreadMethod="reflect"
       x1="289.41458"
       y1="1009.0089"
       x2="259.96301"
       y2="1016.4215" /><radialGradient
       inkscape:collect="always"
       xlink:href="#linearGradient811"
       id="radialGradient2364"
       gradientUnits="userSpaceOnUse"
       gradientTransform="scale(1.5789719,0.6333235)"
       cx="215.47537"
       cy="822.61102"
       fx="215.47537"
       fy="822.61102"
       r="135.37086" /><radialGradient
       inkscape:collect="always"
       xlink:href="#linearGradient811"
       id="radialGradient2366"
       gradientUnits="userSpaceOnUse"
       gradientTransform="scale(1.5802723,0.6328023)"
       cx="259.00861"
       cy="917.4989"
       fx="259.00861"
       fy="917.4989"
       r="135.25948" /><radialGradient
       inkscape:collect="always"
       xlink:href="#linearGradient811"
       id="radialGradient2368"
       gradientUnits="userSpaceOnUse"
       gradientTransform="scale(2.3531015,0.424971)"
       cx="109.32731"
       cy="1146.0132"
       fx="109.32731"
       fy="1146.0132"
       r="38.550976" /><radialGradient
       inkscape:collect="always"
       xlink:href="#linearGradient811"
       id="radialGradient2370"
       gradientUnits="userSpaceOnUse"
       gradientTransform="scale(2.5512675,0.391962)"
       cx="126.15958"
       cy="1157.8818"
       fx="126.15958"
       fy="1157.8818"
       r="47.454552" /><radialGradient
       inkscape:collect="always"
       xlink:href="#linearGradient811"
       id="radialGradient2372"
       gradientUnits="userSpaceOnUse"
       gradientTransform="scale(1.261335,0.7928108)"
       cx="300.42313"
       cy="684.20215"
       fx="300.42313"
       fy="684.20215"
       r="37.802559" /><radialGradient
       inkscape:collect="always"
       xlink:href="#linearGradient731"
       id="radialGradient2404"
       gradientUnits="userSpaceOnUse"
       gradientTransform="scale(1.3608892,0.7348137)"
       cx="441.87225"
       cy="499.28876"
       fx="441.87225"
       fy="499.28876"
       r="25.833607" /><linearGradient
       inkscape:collect="always"
       xlink:href="#linearGradient814"
       id="linearGradient2406"
       gradientUnits="userSpaceOnUse"
       gradientTransform="scale(0.9922395,1.0078212)"
       x1="195.7458"
       y1="299.53891"
       x2="197.06682"
       y2="299.53879" /><linearGradient
       inkscape:collect="always"
       xlink:href="#linearGradient814"
       id="linearGradient2408"
       gradientUnits="userSpaceOnUse"
       gradientTransform="scale(0.9922418,1.0078188)"
       x1="206.73682"
       y1="300.51489"
       x2="208.05783"
       y2="300.51477" /><radialGradient
       inkscape:collect="always"
       xlink:href="#linearGradient652"
       id="radialGradient2410"
       gradientUnits="userSpaceOnUse"
       gradientTransform="scale(1.0377495,0.9636237)"
       cx="555.92285"
       cy="315.77765"
       fx="555.92285"
       fy="315.77765"
       r="8.866003" /><linearGradient
       inkscape:collect="always"
       xlink:href="#linearGradient728"
       id="linearGradient2412"
       gradientUnits="userSpaceOnUse"
       gradientTransform="scale(0.9335909,1.0711329)"
       x1="645.52417"
       y1="342.4176"
       x2="693.5155"
       y2="313.73529" /><linearGradient
       inkscape:collect="always"
       xlink:href="#linearGradient728"
       id="linearGradient2414"
       gradientUnits="userSpaceOnUse"
       gradientTransform="scale(1.4479716,0.6906213)"
       x1="433.83749"
       y1="520.02026"
       x2="454.15494"
       y2="507.87738" /><linearGradient
       inkscape:collect="always"
       xlink:href="#linearGradient728"
       id="linearGradient2416"
       gradientUnits="userSpaceOnUse"
       gradientTransform="scale(1.3937239,0.7175022)"
       x1="450.57037"
       y1="492.65982"
       x2="470.73666"
       y2="480.6073" /><linearGradient
       inkscape:collect="always"
       xlink:href="#linearGradient728"
       id="linearGradient2418"
       gradientUnits="userSpaceOnUse"
       gradientTransform="scale(1.4825465,0.6745151)"
       x1="423.70087"
       y1="542.13959"
       x2="444.56418"
       y2="529.67047" /><linearGradient
       inkscape:collect="always"
       xlink:href="#linearGradient728"
       id="linearGradient2420"
       gradientUnits="userSpaceOnUse"
       gradientTransform="scale(1.5556576,0.642815)"
       x1="401.13232"
       y1="507.52625"
       x2="414.27173"
       y2="499.6734" /><linearGradient
       inkscape:collect="always"
       xlink:href="#linearGradient728"
       id="linearGradient3491"
       gradientUnits="userSpaceOnUse"
       gradientTransform="matrix(-0.3421306,0,0,0.5338644,473.78606,73.068278)"
       x1="445.4563"
       y1="415.83636"
       x2="513.013"
       y2="375.46069" /><linearGradient
       inkscape:collect="always"
       xlink:href="#linearGradient728"
       id="linearGradient3494"
       gradientUnits="userSpaceOnUse"
       gradientTransform="matrix(-0.3338744,0,0,0.5470662,473.78606,73.068278)"
       x1="145.16628"
       y1="316.01337"
       x2="182.07686"
       y2="293.95355" /><linearGradient
       inkscape:collect="always"
       xlink:href="#linearGradient728"
       id="linearGradient3497"
       gradientUnits="userSpaceOnUse"
       gradientTransform="matrix(-0.4761265,0,0,0.3836194,473.78606,73.068278)"
       x1="60.912201"
       y1="484.22644"
       x2="100.2624"
       y2="460.70856" /><linearGradient
       inkscape:collect="always"
       xlink:href="#linearGradient728"
       id="linearGradient3500"
       gradientUnits="userSpaceOnUse"
       gradientTransform="matrix(-0.1138263,-7.7248928e-2,-0.6356514,1.1732595,537.51364,95.362856)"
       x1="250.96735"
       y1="149.94254"
       x2="266.88181"
       y2="140.43118" /><linearGradient
       inkscape:collect="always"
       xlink:href="#linearGradient728"
       id="linearGradient3503"
       gradientUnits="userSpaceOnUse"
       gradientTransform="matrix(-9.2184263e-2,-9.6134138e-2,-0.8829603,1.06058,567.42939,132.16517)"
       x1="263.58371"
       y1="142.36064"
       x2="278.98901"
       y2="133.15358" /><linearGradient
       inkscape:collect="always"
       xlink:href="#linearGradient728"
       id="linearGradient3506"
       gradientUnits="userSpaceOnUse"
       gradientTransform="matrix(-0.4092457,0,0,0.4463122,473.78606,73.068278)"
       x1="581.00067"
       y1="362.39807"
       x2="600.07782"
       y2="350.99649" /><linearGradient
       inkscape:collect="always"
       xlink:href="#linearGradient728"
       id="linearGradient3509"
       gradientUnits="userSpaceOnUse"
       gradientTransform="matrix(-0.3940222,0,0,0.463556,473.78606,73.068278)"
       x1="606.28613"
       y1="379.98938"
       x2="631.04633"
       y2="365.19128" /><linearGradient
       inkscape:collect="always"
       xlink:href="#linearGradient728"
       id="linearGradient3512"
       gradientUnits="userSpaceOnUse"
       gradientTransform="matrix(-0.4100591,0,0,0.4454269,473.78606,73.068278)"
       x1="514.35358"
       y1="379.5419"
       x2="584.48041"
       y2="337.63019" /><linearGradient
       inkscape:collect="always"
       xlink:href="#linearGradient728"
       id="linearGradient3515"
       gradientUnits="userSpaceOnUse"
       gradientTransform="matrix(-0.4420327,0,0,0.4132078,473.78606,73.068278)"
       x1="433.47263"
       y1="520.69623"
       x2="514.58533"
       y2="472.21869" /><linearGradient
       inkscape:collect="always"
       xlink:href="#linearGradient728"
       id="linearGradient3518"
       gradientUnits="userSpaceOnUse"
       gradientTransform="matrix(-0.4660971,0,0,0.3918741,473.78606,73.068278)"
       x1="381.54404"
       y1="569.53687"
       x2="475.6228"
       y2="513.31012" /><linearGradient
       inkscape:collect="always"
       xlink:href="#linearGradient728"
       id="linearGradient3521"
       gradientUnits="userSpaceOnUse"
       gradientTransform="matrix(-0.4380169,0,0,0.4169961,473.78606,73.068278)"
       x1="447.36298"
       y1="486.64923"
       x2="524.48737"
       y2="440.55539" /><linearGradient
       inkscape:collect="always"
       xlink:href="#linearGradient728"
       id="linearGradient3524"
       gradientUnits="userSpaceOnUse"
       gradientTransform="matrix(-0.4432469,0,0,0.4120759,473.78606,73.068278)"
       x1="467.73123"
       y1="445.72177"
       x2="533.96826"
       y2="406.13477" /><linearGradient
       inkscape:collect="always"
       xlink:href="#linearGradient728"
       id="linearGradient3527"
       gradientUnits="userSpaceOnUse"
       gradientTransform="matrix(-0.4239728,0,0,0.4308092,473.78606,73.068278)"
       x1="483.37405"
       y1="452.84113"
       x2="553.76691"
       y2="410.77042" /><linearGradient
       inkscape:collect="always"
       xlink:href="#linearGradient728"
       id="linearGradient3530"
       gradientUnits="userSpaceOnUse"
       gradientTransform="matrix(-0.5277611,0,0,0.3460871,473.78606,73.068278)"
       x1="226.21547"
       y1="775.99817"
       x2="297.3269"
       y2="733.49799" /><linearGradient
       inkscape:collect="always"
       xlink:href="#linearGradient728"
       id="linearGradient3533"
       gradientUnits="userSpaceOnUse"
       gradientTransform="matrix(-0.5830367,0,0,0.3132759,473.78606,73.068278)"
       x1="84.524689"
       y1="791.27991"
       x2="280.60184"
       y2="674.0932" /><linearGradient
       inkscape:collect="always"
       xlink:href="#linearGradient728"
       id="linearGradient4649"
       gradientUnits="userSpaceOnUse"
       gradientTransform="matrix(-0.6284482,0,0,0.2906387,473.69153,69.173266)"
       x1="401.13232"
       y1="507.52625"
       x2="414.27173"
       y2="499.6734" /><linearGradient
       inkscape:collect="always"
       xlink:href="#linearGradient728"
       id="linearGradient4652"
       gradientUnits="userSpaceOnUse"
       gradientTransform="matrix(-0.5989131,0,0,0.3049714,473.69153,69.173266)"
       x1="423.70087"
       y1="542.13959"
       x2="444.56418"
       y2="529.67047" /><linearGradient
       inkscape:collect="always"
       xlink:href="#linearGradient728"
       id="linearGradient4655"
       gradientUnits="userSpaceOnUse"
       gradientTransform="matrix(-0.5630309,0,0,0.3244074,473.69153,69.173266)"
       x1="450.57037"
       y1="492.65982"
       x2="470.73666"
       y2="480.6073" /><linearGradient
       inkscape:collect="always"
       xlink:href="#linearGradient728"
       id="linearGradient4658"
       gradientUnits="userSpaceOnUse"
       gradientTransform="matrix(-0.5849456,0,0,0.3122536,473.69153,69.173266)"
       x1="433.83749"
       y1="520.02026"
       x2="454.15494"
       y2="507.87738" /><linearGradient
       inkscape:collect="always"
       xlink:href="#linearGradient728"
       id="linearGradient4661"
       gradientUnits="userSpaceOnUse"
       gradientTransform="matrix(-0.3771482,0,0,0.4842959,473.69153,69.173266)"
       x1="645.52417"
       y1="342.4176"
       x2="693.5155"
       y2="313.73529" /></defs><sodipodi:namedview
     id="base"
     inkscape:zoom="2.8811374"
     inkscape:cx="228.81025"
     inkscape:cy="226.56195"
     inkscape:window-width="910"
     inkscape:window-height="627"
     inkscape:window-x="6"
     inkscape:window-y="50"
     inkscape:current-layer="svg609" /><rect
     style="font-size:12px;fill:#00a2af;fill-opacity:1;fill-rule:evenodd;stroke-width:1"
     id="rect734"
     width="799.99994"
     height="519.99976"
     x="-3.9273988e-07"
     y="-2.5739098e-08" /><g
     id="g868"
     transform="matrix(0.7999998,0,0,0.7999998,60.5384,2.9855194)"><path
       id="path864"
       d="M 133.2453,533.6385 C 138.8134,568.1605 136.62,562.4739 135.5063,583.6324 C 143.8585,590.3141 143.865,593.3442 163.2955,594.7347 L 226.5984,599.2646 L 299.3505,619.1496 L 369.7403,623.6796 L 427.1373,632.9342 C 448.5424,636.3855 470.3832,634.1955 487.475,620.8114 C 500.1921,610.1138 503.4938,606.6953 516.2652,599.6063 C 529.5743,590.9878 538.2146,563.0274 548.5987,550.0532 C 550.5906,547.5643 552.338,539.1032 553.0265,527.7227 L 547.6938,500.349 C 556.013,512.5615 547.6618,509.0265 542.7051,515.4023 L 486.9264,587.1513 C 476.8439,600.1205 449.7536,602.7728 442.7964,601.5524 L 151.1727,550.402 C 141.0158,548.6205 138.1297,543.0285 133.2453,533.6385 z "
       style="font-size:12px;fill:url(#linearGradient2362);fill-rule:evenodd"
       transform="matrix(-1,0,0,1,673.0787,-145.2411)" /><g
       style="font-size:12px;fill:url(#radialGradient2364)"
       transform="matrix(-1,0,0,1,673.0787,-145.2411)"
       id="g664"><path
         sodipodi:nodetypes="cssssssssssssssss"
         id="path617"
         d="M 623.051,558.1809 C 623.051,573.7489 616.0319,578.171 612.6755,590.2211 C 609.319,602.2711 595.4513,608.9563 586.4786,617.2391 C 577.506,625.5219 570.7744,641.4504 556.5798,651.4798 C 532.6442,667.5575 544.3651,667.3906 500.8444,665.0282 C 473.9018,663.525 431.4688,654.7123 400.1878,657.1642 C 367.673,658.4849 315.6633,633.4947 304.7713,629.0507 C 275.7293,620.3509 249.8077,630.0337 228.4119,628.2397 C 207.0797,627.6321 195.5574,620.9954 195.5574,605.4274 C 195.5574,589.8594 212.2473,566.1697 218.3167,555.3008 C 224.3861,544.4319 238.7337,527.4853 248.2231,520.679 C 257.7125,513.8726 252.8945,504.2139 263.1544,500.8336 C 273.4145,497.4534 283.3815,495.1768 291.7785,495.0366 C 318.7469,494.5862 340.7786,498.7822 376.3413,500.0585 C 411.9038,501.3347 456.2887,520.2214 490.2135,524.5178 C 524.1383,528.8141 554.6901,527.9695 576.7606,537.0297 C 598.8312,546.09 623.051,542.6129 623.051,558.1809 z "
         style="font-size:12px;fill:url(#radialGradient2366);fill-rule:evenodd"
         transform="translate(-69.07462,-59.47551)" /><path
         sodipodi:nodetypes="csccc"
         id="path622"
         d="M 259.8558,470.6394 C 260.1511,475.4503 361.5308,493.4897 346.4411,501.3292 C 334.6855,506.1399 237.1858,496.0345 220.8773,493.6722 C 188.2604,493.6722 187.8048,508.782 166.5439,501.3496 C 173.6309,490.3738 209.0658,490.3737 259.8558,470.6394 z "
         style="font-size:12px;fill:url(#radialGradient2368);fill-opacity:0.38670002;fill-rule:evenodd" /><path
         sodipodi:nodetypes="ccccc"
         id="path624"
         d="M 442.9361,470.6393 C 413.407,474.4396 399.5725,473.5922 330.7256,454.6936 C 277.2339,454.6936 200.7976,453.1786 200.7976,441.1102 C 200.7976,429.0421 251.2483,439.3385 304.74,439.3385 C 351.1446,446.4255 405.1389,463.2958 442.9361,470.6393 z "
         style="font-size:12px;fill:url(#radialGradient2370);fill-rule:evenodd" /><path
         sodipodi:nodetypes="ccccc"
         id="path803"
         d="M 414.393,546.905 C 409.6119,548.9971 397.8191,599.6645 340.0392,552.1516 C 348.9812,541.4106 327.1653,516.7407 331.9463,514.6487 C 373.2278,507.9403 409.6175,518.1041 422.3048,526.6822 C 433.811,552.9779 419.174,544.813 414.393,546.905 z "
         style="font-size:12px;fill:url(#radialGradient2372);fill-rule:evenodd" /></g></g><path
     sodipodi:nodetypes="cscssssssssscsssscccsss"
     id="path614"
     d="M 240.58899,341.16647 C 264.10394,348.41291 294.32122,342.74898 302.85582,340.01122 C 311.39041,337.27345 321.86858,332.67009 335.47837,326.95882 C 355.30748,316.32399 391.20155,312.80865 400.32143,292.29568 C 401.46137,289.73158 406.91944,288.17587 410.97779,286.62749 C 414.08545,285.59265 434.86546,279.0306 436.39255,272.85553 C 436.76726,271.25226 472.36909,265.41059 469.39743,262.97522 C 468.65452,262.36633 465.94831,255.23803 462.09246,255.0881 C 458.23661,254.93812 454.84497,257.18677 450.08656,258.92346 C 445.32816,260.66016 440.78654,255.1022 437.16011,257.03892 C 434.98524,258.0035 431.0583,260.4618 430.07017,259.62011 C 428.74622,258.75622 434.65352,253.99931 438.9074,249.01381 C 443.67661,243.64643 449.9943,236.54064 450.70291,234.49175 C 457.22362,226.7509 443.90029,230.17116 436.83136,227.33071 C 431.11683,224.96375 433.83299,209.15623 430.07045,208.86727 C 416.6667,207.82437 402.4383,250.95523 401.77465,253.34394 C 399.03097,262.38885 371.11688,242.91538 358.71211,236.02363 C 345.74994,229.64537 325.78565,226.98099 301.53284,230.84678 C 282.17678,223.48735 279.79631,215.74654 274.0382,206.50288 C 248.86969,266.61002 229.28219,246.67252 214.33302,244.44264 C 211.92686,256.14573 211.37911,253.41565 214.58644,265.81869 C 218.4009,278.64515 217.0458,292.83435 215.54148,302.58309 C 210.28074,333.44989 223.80824,335.99522 240.58899,341.16647 z "
     style="font-size:12px;fill:url(#linearGradient3533);fill-opacity:1.0;fill-rule:evenodd" /><path
     sodipodi:nodetypes="ccccc"
     id="path619"
     d="M 299.22977,329.09136 C 311.89918,335.3239 323.36919,351.14873 345.33239,351.14873 C 376.75186,346.13542 382.21406,342.18304 330.52631,324.40431 C 324.93084,302.41652 320.05182,295.77453 298.08866,295.77453 C 271.1484,295.77453 292.19122,323.64662 299.22977,329.09136 z "
     style="font-size:12px;fill:url(#linearGradient3530);fill-opacity:1.0;fill-rule:evenodd" /><path
     sodipodi:nodetypes="ccssccs"
     id="path632"
     d="M 244.05414,262.58561 C 230.46115,273.4745 215.8649,263.2819 213.56995,259.66116 C 213.03444,269.83342 214.56983,273.64934 217.18126,275.29461 C 221.36342,277.90388 228.13518,280.1745 234.10017,279.85362 C 260.34834,278.46059 279.3216,221.93743 280.27962,216.22607 C 281.47604,214.75184 279.1836,213.04268 277.82058,211.65074 C 275.04519,224.37371 264.74,245.87554 244.05414,262.58561 z "
     style="font-size:12px;fill:url(#linearGradient3527);fill-rule:evenodd" /><path
     sodipodi:nodetypes="ccssccs"
     id="path631"
     d="M 243.35029,249.19358 C 232.96762,255.56609 212.82353,257.24188 213.72092,247.76646 C 210.26143,262.32537 212.916,260.00931 213.58942,260.52542 C 221.2825,266.28213 227.78324,267.57021 233.74823,267.24938 C 259.99644,265.85635 277.05541,217.18695 278.01344,211.47563 C 278.33888,208.88739 275.60692,208.35771 273.57972,205.88178 C 266.33846,238.83703 251.37685,244.41949 243.35029,249.19358 z "
     style="font-size:12px;fill:url(#linearGradient3524);fill-rule:evenodd" /><path
     sodipodi:nodetypes="cccsccs"
     id="path633"
     d="M 245.81377,274.4021 C 232.22079,285.29099 218.79599,276.3517 216.25211,274.68061 C 213.66359,283.87802 216.23482,282.31612 217.58778,282.72449 C 223.9163,287.71198 223.05139,286.83841 235.85981,288.32788 C 262.00707,291.25473 290.07826,233.96072 291.03633,228.24941 C 291.73505,223.57235 289.38278,224.98676 280.30544,216.07497 C 276.09189,228.29308 266.49964,257.69203 245.81377,274.4021 z "
     style="font-size:12px;fill:url(#linearGradient3521);fill-rule:evenodd" /><path
     sodipodi:nodetypes="ccscsss"
     id="path634"
     d="M 262.1483,290.51169 C 238.70129,309.2782 216.98993,290.87756 217.18348,284.75019 C 207.65146,302.44871 225.45399,317.93056 250.82194,306.70515 C 275.4204,296.36045 312.27843,235.14233 313.23646,229.43106 C 310.93574,226.95526 305.34407,230.07485 301.5593,229.20174 C 297.30285,228.08053 296.76152,226.68348 296.14222,228.2853 C 291.13102,240.12024 282.83384,273.80117 262.1483,290.51169 z "
     style="font-size:12px;fill:url(#linearGradient3518);fill-rule:evenodd" /><path
     sodipodi:nodetypes="ccssccs"
     id="path646"
     d="M 246.54263,285.42405 C 231.01921,292.36381 218.03166,283.89217 215.73672,280.27144 C 215.20121,290.44369 216.9478,293.65719 219.17205,295.90488 C 222.85651,300.18524 225.78521,304.66295 248.5335,297.12167 C 281.60846,286.32203 295.16266,234.4847 296.12073,228.77329 C 297.31711,227.29906 292.56118,227.16546 291.19816,225.77352 C 286.43193,239.61055 269.21929,274.84135 246.54263,285.42405 z "
     style="font-size:12px;fill:url(#linearGradient3515);fill-rule:evenodd" /><path
     sodipodi:nodetypes="ccccc"
     id="path657"
     d="M 209.50596,221.06264 C 209.50596,240.90555 209.51904,254.20616 230.40949,254.20616 C 251.29981,254.20616 269.72794,229.20784 274.20726,207.13681 C 269.3156,200.10572 259.39847,183.92433 238.50811,183.92433 C 217.61767,183.92433 209.50596,201.21978 209.50596,221.06264 z "
     style="font-size:12px;fill:url(#linearGradient3512);fill-rule:evenodd" /><path
     sodipodi:nodetypes="csssccc"
     id="path675"
     d="M 220.61404,234.37592 C 219.75983,236.65639 215.65621,248.82197 217.09335,250.72075 C 220.26913,254.62575 224.11853,253.47719 227.66237,253.54917 C 234.86183,253.88886 233.94217,242.99834 235.20585,240.85188 C 236.96529,238.25102 239.56156,236.49236 238.49143,228.46232 C 238.37395,224.1287 235.45886,243.30507 227.15797,246.84845 C 214.65047,252.80401 223.41751,235.71428 220.61404,234.37592 z "
     style="font-size:12px;fill:url(#linearGradient3509);fill-rule:evenodd" /><path
     sodipodi:nodetypes="ccccc"
     id="path664"
     d="M 221.8048,230.6199 C 221.8048,233.55665 224.90346,238.10363 229.8112,238.10363 C 234.7189,238.10363 238.1695,234.54135 239.04932,231.01375 C 239.57719,229.2587 235.24686,212.89515 223.12463,221.36363 C 221.38418,225.30248 221.27692,226.69845 221.8048,230.6199 z "
     style="font-size:12px;fill:url(#linearGradient3506);fill-rule:evenodd" /><path
     sodipodi:nodetypes="ccccc"
     id="path687"
     d="M 428.16733,239.82144 C 418.236,251.75058 409.00937,260.83084 410.01489,261.87945 C 411.02042,262.92806 419.41382,254.76021 429.34516,242.83108 C 439.27649,230.90188 443.99875,228.64128 442.99322,227.59266 C 441.98772,226.54407 438.0987,227.89227 428.16733,239.82144 z "
     style="font-size:12px;fill:url(#linearGradient3503);fill-rule:evenodd" /><path
     sodipodi:nodetypes="ccccc"
     id="path688"
     d="M 420.18874,232.87145 C 412.63517,246.81354 405.67979,256.37106 406.85496,257.16866 C 408.5279,258.52323 415.13129,249.30782 422.68488,235.36575 C 430.23847,221.42362 433.89105,218.06102 432.71587,217.26348 C 431.54067,216.46592 427.74233,218.92932 420.18874,232.87145 z "
     style="font-size:12px;fill:url(#linearGradient3500);fill-rule:evenodd" /><path
     sodipodi:nodetypes="ccccc"
     id="path689"
     d="M 437.12616,243.95153 C 427.19483,255.88064 422.03097,258.49556 410.01507,264.66466 C 417.70726,263.74389 430.83619,259.67803 440.76749,247.74887 C 450.69882,235.81967 452.95757,231.98354 451.95204,230.93495 C 450.94653,229.88636 447.05751,232.02233 437.12616,243.95153 z "
     style="font-size:12px;fill:url(#linearGradient3497);fill-rule:evenodd" /><path
     sodipodi:nodetypes="ccccc"
     id="path690"
     d="M 418.15725,224.54299 C 409.54076,237.69029 403.85311,254.63198 402.74492,253.7222 C 400.98637,252.51107 407.28722,235.18347 415.90371,222.03609 C 424.52023,208.88874 428.8986,207.64601 430.00679,208.55575 C 431.11497,209.46553 426.77377,211.3956 418.15725,224.54299 z "
     style="font-size:12px;fill:url(#linearGradient3494);fill-rule:evenodd" /><path
     sodipodi:nodetypes="cscscs"
     id="path691"
     d="M 326.58492,244.2867 C 327.87889,242.22641 333.98139,230.49204 327.71027,228.60826 C 322.66566,227.1986 315.96362,227.92943 312.90856,229.71097 C 307.54812,235.64497 300.23147,242.9274 296.16141,249.51278 C 287.1698,263.49201 268.5907,289.05853 285.06989,309.01596 C 278.45684,272.30424 306.73516,275.49767 326.58492,244.2867 z "
     style="font-size:12px;fill:url(#linearGradient3491);fill-rule:evenodd" /><g
     id="g801"
     transform="matrix(0.7999998,0,0,0.7999998,60.5384,2.9855194)"><g
       id="g786"><path
         style="font-size:12px;fill:url(#radialGradient2404);fill-rule:evenodd"
         d="M 614.6075,361.2701 C 612.5012,375.6038 637.2309,380.2598 640.1854,381.1309 C 634.551,397.2021 593.0318,382.2772 590.8574,361.409 C 602.2665,367.1508 609.088,365.4288 614.6075,361.2701 z "
         id="path701"
         sodipodi:nodetypes="cccc"
         transform="matrix(-0.50497,0,0,0.565168,516.5597,87.60347)" /><path
         style="font-size:12px;fill:url(#linearGradient2406);fill-rule:evenodd;stroke-width:1"
         d="M 197.5039,302.4364 C 197.5039,304.1164 193.2685,304.1164 193.2685,302.4364 C 193.2685,300.7564 194.2166,299.3945 195.3862,299.3945 C 196.5559,299.3945 197.5039,300.7564 197.5039,302.4364 z "
         id="path785"
         sodipodi:nodetypes="cccc" /><path
         style="font-size:12px;fill:url(#linearGradient2408);fill-rule:evenodd;stroke-width:1"
         d="M 208.4101,303.4193 C 208.4101,305.0993 204.1747,305.0993 204.1747,303.4193 C 204.1747,301.7393 205.1228,300.3774 206.2924,300.3774 C 207.4621,300.3774 208.4101,301.7393 208.4101,303.4193 z "
         id="path783"
         sodipodi:nodetypes="cccc" /></g><g
       id="g702"
       transform="matrix(-0.50497,0,0,0.565168,512.8269,94.91457)"
       style="font-size:12px"><path
         sodipodi:type="arc"
         style="font-size:12px;fill:#f1f1f4;fill-rule:evenodd;stroke-width:1"
         id="path649"
         d="M 580.27701 295.90765 A 10.472076 13.552139 0 1 1  559.33286,295.90765 A 10.472076 13.552139 0 1 1  580.27701 295.90765 z"
         sodipodi:cx="569.80493"
         sodipodi:cy="295.90765"
         sodipodi:rx="10.472076"
         sodipodi:ry="13.552139"
         transform="translate(-2.464017,0.615936)" /><path
         sodipodi:type="arc"
         style="font-size:12px;fill:url(#radialGradient2410);fill-rule:evenodd;stroke-width:1"
         id="path650"
         d="M 580.27698 303.91571 A 8.6240845 8.0080719 0 1 1  563.02881,303.91571 A 8.6240845 8.0080719 0 1 1  580.27698 303.91571 z"
         sodipodi:cx="571.65289"
         sodipodi:cy="303.91571"
         sodipodi:rx="8.6240845"
         sodipodi:ry="8.0080719"
         transform="translate(-4.131612,-1.922867)" /></g><path
       style="font-size:12px;fill:none;fill-rule:evenodd;stroke:#000000;stroke-width:0.625;stroke-linecap:round;stroke-dasharray:none"
       d="M 211.1274,275.4472 C 220.0315,272.4686 228.1156,274.0699 236.3085,276.6483 M 212.5809,276.9115 C 221.7457,275.1882 229.5908,277.8962 237.4359,281.5888 M 213.4982,278.4413 C 222.7729,277.7857 230.3265,281.3852 237.7892,285.9642 M 214.4341,279.8506 C 223.6719,280.9842 230.5622,285.9799 237.2131,291.9231"
       id="path800" /></g><path
     sodipodi:nodetypes="csccsc"
     id="path616"
     d="M 207.056,208.02904 C 193.83888,221.25813 196.00193,233.8196 198.59481,238.67683 C 201.99342,244.11108 205.10827,241.88319 212.00087,243.95152 C 222.30222,243.95152 228.17174,245.97333 223.69242,221.73694 C 227.17635,213.168 242.56868,218.87371 235.5622,197.33471 C 233.93159,192.32217 207.056,183.79279 207.056,208.02904 z "
     style="font-size:12px;fill:url(#linearGradient4661);fill-opacity:1.0;fill-rule:evenodd;opacity:1" /><path
     sodipodi:nodetypes="ccscs"
     id="path679"
     d="M 203.40988,233.11011 C 211.14937,236.30155 225.20082,230.11065 224.58593,227.74323 C 224.84221,229.1358 215.16554,235.3574 203.53063,231.03355 C 198.62188,229.18961 198.75672,221.95853 198.99818,219.73042 C 197.87109,220.84452 195.79962,229.92075 203.40988,233.11011 z "
     style="font-size:12px;fill:url(#linearGradient4658);fill-rule:evenodd" /><path
     sodipodi:nodetypes="ccscs"
     id="path680"
     d="M 204.40532,230.46417 C 212.14481,233.65561 225.0764,228.85729 224.46155,226.48987 C 224.71783,227.88244 216.16097,232.71146 204.52606,228.38761 C 199.61731,226.54367 199.87658,219.03408 200.11808,216.80597 C 198.99099,217.92007 196.79506,227.27482 204.40532,230.46417 z "
     style="font-size:12px;fill:url(#linearGradient4655);fill-rule:evenodd" /><path
     sodipodi:nodetypes="ccscs"
     id="path681"
     d="M 202.41448,236.03451 C 213.51344,239.78298 225.44967,231.22471 224.83478,228.85724 C 225.0911,230.24982 215.7877,238.83883 202.53523,233.95795 C 197.60321,232.19332 197.63686,224.88294 197.8784,222.65482 C 196.75131,223.76892 194.64215,233.37981 202.41448,236.03451 z "
     style="font-size:12px;fill:url(#linearGradient4652);fill-rule:evenodd" /><path
     sodipodi:nodetypes="ccscs"
     id="path684"
     d="M 210.2546,217.5372 C 215.8832,219.40013 225.28776,216.59921 224.8406,215.21726 C 225.02699,216.03015 218.80399,218.84898 210.34243,216.32503 C 206.77253,215.24868 206.96107,210.8651 207.13672,209.56449 C 206.31701,210.2148 204.72001,215.67545 210.2546,217.5372 z "
     style="font-size:12px;fill:url(#linearGradient4649);fill-rule:evenodd" /></svg>