<?xml version="1.0" encoding="UTF-8" standalone="no"?>
<!-- Created with Sodipodi ("http://www.sodipodi.com/") -->
<svg
   xmlns:dc="http://purl.org/dc/elements/1.1/"
   xmlns:cc="http://web.resource.org/cc/"
   xmlns:rdf="http://www.w3.org/1999/02/22-rdf-syntax-ns#"
   xmlns:svg="http://www.w3.org/2000/svg"
   xmlns="http://www.w3.org/2000/svg"
   xmlns:xlink="http://www.w3.org/1999/xlink"
   xmlns:sodipodi="http://sodipodi.sourceforge.net/DTD/sodipodi-0.dtd"
   xmlns:inkscape="http://www.inkscape.org/namespaces/inkscape"
   id="svg1205"
   sodipodi:version="0.32"
   width="799.99994"
   height="519.99994"
   xml:space="preserve"
   sodipodi:docbase="/home/franck/Dessins/Vectoriels/Animaux"
   sodipodi:docname="epaulard.svg"
   inkscape:version="0.45"
   inkscape:output_extension="org.inkscape.output.svg.inkscape"
   sodipodi:modified="true"
   version="1.0"><metadata
     id="metadata71"><rdf:RDF><cc:Work
         rdf:about=""><dc:format>image/svg+xml</dc:format><dc:type
           rdf:resource="http://purl.org/dc/dcmitype/StillImage" /></cc:Work></rdf:RDF></metadata><defs
     id="defs1207"><linearGradient
       id="linearGradient669"><stop
         style="stop-color:#02a5b7;stop-opacity:0.5216;"
         offset="0"
         id="stop670" /><stop
         style="stop-color:#8dedcf;stop-opacity:0.5216;"
         offset="1"
         id="stop671" /></linearGradient><linearGradient
       id="linearGradient1251"><stop
         style="stop-color:#dabf92;stop-opacity:1;"
         offset="0"
         id="stop1252" /><stop
         style="stop-color:#eeedcf;stop-opacity:1;"
         offset="1"
         id="stop1253" /></linearGradient><linearGradient
       id="linearGradient1241"><stop
         style="stop-color:#af0500;stop-opacity:1;"
         offset="0"
         id="stop1242" /><stop
         style="stop-color:#5f0000;stop-opacity:1;"
         offset="1"
         id="stop1243" /></linearGradient><linearGradient
       id="linearGradient1236"><stop
         style="stop-color:#f2f7f7;stop-opacity:1;"
         offset="0"
         id="stop1237" /><stop
         style="stop-color:#cfcfcf;stop-opacity:1;"
         offset="1"
         id="stop1238" /></linearGradient><linearGradient
       id="linearGradient1230"><stop
         style="stop-color:#f2f7f7;stop-opacity:1;"
         offset="0"
         id="stop1231" /><stop
         style="stop-color:#000000;stop-opacity:1;"
         offset="1"
         id="stop1232" /></linearGradient><linearGradient
       id="linearGradient1225"><stop
         style="stop-color:#f2f7f7;stop-opacity:1;"
         offset="0"
         id="stop1226" /><stop
         style="stop-color:#4c4c4c;stop-opacity:0;"
         offset="1"
         id="stop1227" /></linearGradient><linearGradient
       id="linearGradient1219"><stop
         style="stop-color:#000;stop-opacity:1;"
         offset="0"
         id="stop1220" /><stop
         style="stop-color:#fff;stop-opacity:1;"
         offset="1"
         id="stop1221" /></linearGradient><linearGradient
       xlink:href="#linearGradient1219"
       id="linearGradient1222"
       x1="326.4938"
       y1="1067.5934"
       x2="2638.5845"
       y2="1162.0775"
       gradientTransform="matrix(0.2314136,3.7338213e-2,0.1014999,-0.6290737,45.1489,840.14398)"
       gradientUnits="userSpaceOnUse" /><radialGradient
       xlink:href="#linearGradient1225"
       id="radialGradient1224"
       cx="0.50939536"
       cy="0.51563007"
       r="0.38714528"
       fx="0.50939536"
       fy="0.51563007" /><linearGradient
       xlink:href="#linearGradient1219"
       id="linearGradient1228"
       x1="1.1739789"
       y1="0.53119022"
       x2="-1.5930278"
       y2="0.67187458"
       gradientTransform="translate(-1.076691e-6,-3.611131e-7)" /><radialGradient
       xlink:href="#linearGradient1230"
       id="radialGradient1229"
       cx="0.27962631"
       cy="0.2968742"
       r="0.2659528"
       fx="0.27962631"
       fy="0.2968742" /><linearGradient
       xlink:href="#linearGradient1236"
       id="linearGradient1235"
       x1="0.92855722"
       y1="0.50000203"
       x2="0.14285675"
       y2="0.53125006" /><radialGradient
       xlink:href="#linearGradient1219"
       id="radialGradient1239"
       cx="0.56249928"
       cy="0.92188585"
       r="1.3985343"
       fx="0.56249928"
       fy="0.92188585" /><radialGradient
       xlink:href="#linearGradient1219"
       id="radialGradient1240"
       cx="0.75806546"
       cy="0.97654819"
       r="2.3345656"
       fx="0.75806546"
       fy="0.97654819" /><radialGradient
       xlink:href="#linearGradient1241"
       id="radialGradient1246" /><linearGradient
       xlink:href="#linearGradient1241"
       id="linearGradient1247"
       x1="1.1413897"
       y1="0.11719894"
       x2="0.739133"
       y2="0.60937524" /><linearGradient
       xlink:href="#linearGradient1251"
       id="linearGradient1250"
       x1="1.7566526e-07"
       y1="-3.2690727e-06"
       x2="1.0000001"
       y2="-3.2690727e-06"
       gradientTransform="translate(1.756653e-7,-3.269072e-6)" /><linearGradient
       xlink:href="#linearGradient1219"
       id="linearGradient1352"
       x1="1.546875"
       y1="0.57809675"
       x2="-3.359375"
       y2="0.79687488" /><linearGradient
       xlink:href="#linearGradient1219"
       id="linearGradient1353"
       x1="0.3943558"
       y1="0.9609375"
       x2="1.0140841"
       y2="-0.5703125" /><linearGradient
       xlink:href="#linearGradient1236"
       id="linearGradient1360"
       x1="997.41699"
       y1="581.42175"
       x2="256.09552"
       y2="599.78528"
       gradientTransform="matrix(0.3969292,6.4043912e-2,0.2267152,-1.40513,-9.074221,960.8435)"
       gradientUnits="userSpaceOnUse" /><linearGradient
       xlink:href="#linearGradient669"
       id="linearGradient668"
       x1="192.63243"
       y1="509.69897"
       x2="605.61871"
       y2="509.69897"
       gradientTransform="matrix(0.7786846,0,0,-1.2842169,0,1052.3622)"
       gradientUnits="userSpaceOnUse" /><radialGradient
       inkscape:collect="always"
       xlink:href="#linearGradient1219"
       id="radialGradient2269"
       cx="524.67535"
       cy="554.05542"
       fx="524.67535"
       fy="554.05542"
       r="127.35264"
       gradientTransform="scale(0.6990736,1.4304645)"
       gradientUnits="userSpaceOnUse" /><radialGradient
       inkscape:collect="always"
       xlink:href="#linearGradient1219"
       id="radialGradient2271"
       cx="557.60529"
       cy="546.98444"
       fx="557.60529"
       fy="546.98444"
       r="188.63609"
       gradientTransform="scale(0.6837645,1.4624918)"
       gradientUnits="userSpaceOnUse" /><linearGradient
       inkscape:collect="always"
       xlink:href="#linearGradient1241"
       id="linearGradient2273"
       x1="460.93085"
       y1="595.76068"
       x2="441.58255"
       y2="619.43408"
       gradientTransform="scale(0.8471046,1.1804918)"
       gradientUnits="userSpaceOnUse" /><linearGradient
       inkscape:collect="always"
       xlink:href="#linearGradient1251"
       id="linearGradient2275"
       gradientTransform="scale(1.0880639,0.9190637)"
       x1="316.98114"
       y1="790.70459"
       x2="323.3576"
       y2="790.70459"
       gradientUnits="userSpaceOnUse" /><linearGradient
       inkscape:collect="always"
       xlink:href="#linearGradient1251"
       id="linearGradient2277"
       gradientTransform="scale(1.0996796,0.9093558)"
       x1="309.58737"
       y1="791.08435"
       x2="315.91974"
       y2="791.08435"
       gradientUnits="userSpaceOnUse" /><linearGradient
       inkscape:collect="always"
       xlink:href="#linearGradient1251"
       id="linearGradient2279"
       gradientTransform="scale(1.1078842,0.9026214)"
       x1="304.00854"
       y1="788.25415"
       x2="310.30707"
       y2="788.25415"
       gradientUnits="userSpaceOnUse" /><linearGradient
       inkscape:collect="always"
       xlink:href="#linearGradient1251"
       id="linearGradient2281"
       gradientTransform="scale(1.1053773,0.9046685)"
       x1="302.85712"
       y1="778.06604"
       x2="309.16626"
       y2="778.06604"
       gradientUnits="userSpaceOnUse" /><linearGradient
       inkscape:collect="always"
       xlink:href="#linearGradient1251"
       id="linearGradient2283"
       gradientTransform="scale(1.1066936,0.9035925)"
       x1="301.76508"
       y1="770.42102"
       x2="308.0687"
       y2="770.42102"
       gradientUnits="userSpaceOnUse" /><linearGradient
       inkscape:collect="always"
       xlink:href="#linearGradient1251"
       id="linearGradient2285"
       gradientTransform="scale(1.1078848,0.9026209)"
       x1="308.77328"
       y1="750.46387"
       x2="315.07184"
       y2="750.46387"
       gradientUnits="userSpaceOnUse" /><linearGradient
       inkscape:collect="always"
       xlink:href="#linearGradient1251"
       id="linearGradient2287"
       gradientTransform="scale(1.1078833,0.9026222)"
       x1="303.64215"
       y1="754.51172"
       x2="309.94067"
       y2="754.51172"
       gradientUnits="userSpaceOnUse" /><linearGradient
       inkscape:collect="always"
       xlink:href="#linearGradient1251"
       id="linearGradient2289"
       gradientTransform="scale(1.1078834,0.9026221)"
       x1="301.44296"
       y1="762.15991"
       x2="307.74149"
       y2="762.15991"
       gradientUnits="userSpaceOnUse" /><linearGradient
       inkscape:collect="always"
       xlink:href="#linearGradient1251"
       id="linearGradient2291"
       gradientTransform="scale(1.0342705,0.966865)"
       x1="344.78366"
       y1="765.69647"
       x2="351.30283"
       y2="765.69647"
       gradientUnits="userSpaceOnUse" /><linearGradient
       inkscape:collect="always"
       xlink:href="#linearGradient1251"
       id="linearGradient2293"
       gradientTransform="scale(1.0850527,0.9216142)"
       x1="322.69653"
       y1="796.00464"
       x2="329.08377"
       y2="796.00464"
       gradientUnits="userSpaceOnUse" /><linearGradient
       inkscape:collect="always"
       xlink:href="#linearGradient1251"
       id="linearGradient2295"
       gradientTransform="scale(1.1066226,0.9036504)"
       x1="334.1937"
       y1="773.86157"
       x2="339.73352"
       y2="773.86157"
       gradientUnits="userSpaceOnUse" /><linearGradient
       inkscape:collect="always"
       xlink:href="#linearGradient1251"
       id="linearGradient2297"
       gradientTransform="scale(1.1154765,0.8964779)"
       x1="326.32239"
       y1="774.92114"
       x2="331.83478"
       y2="774.92114"
       gradientUnits="userSpaceOnUse" /><linearGradient
       inkscape:collect="always"
       xlink:href="#linearGradient1251"
       id="linearGradient2299"
       gradientTransform="scale(1.1154755,0.8964787)"
       x1="321.95422"
       y1="768.89923"
       x2="327.46661"
       y2="768.89923"
       gradientUnits="userSpaceOnUse" /><linearGradient
       inkscape:collect="always"
       xlink:href="#linearGradient1251"
       id="linearGradient2301"
       gradientTransform="scale(1.1213548,0.8917784)"
       x1="315.92532"
       y1="766.53479"
       x2="321.41861"
       y2="766.53479"
       gradientUnits="userSpaceOnUse" /><linearGradient
       inkscape:collect="always"
       xlink:href="#linearGradient1251"
       id="linearGradient2303"
       gradientTransform="scale(1.1238801,0.8897746)"
       x1="310.52042"
       y1="763.19354"
       x2="316.00531"
       y2="763.19354"
       gradientUnits="userSpaceOnUse" /><linearGradient
       inkscape:collect="always"
       xlink:href="#linearGradient1251"
       id="linearGradient2305"
       gradientTransform="scale(1.0947821,0.9134237)"
       x1="343.16135"
       y1="769.34241"
       x2="348.73535"
       y2="769.34241"
       gradientUnits="userSpaceOnUse" /><linearGradient
       inkscape:collect="always"
       xlink:href="#linearGradient1251"
       id="linearGradient2307"
       gradientTransform="scale(1.0331591,0.9679052)"
       x1="352.45581"
       y1="770.75446"
       x2="358.97672"
       y2="770.75446"
       gradientUnits="userSpaceOnUse" /><linearGradient
       inkscape:collect="always"
       xlink:href="#linearGradient1219"
       id="linearGradient2309"
       gradientUnits="userSpaceOnUse"
       gradientTransform="matrix(0.2314136,3.7338213e-2,0.1014999,-0.6290737,45.1489,840.14398)"
       x1="326.4938"
       y1="1067.5934"
       x2="2638.5845"
       y2="1162.0775" /><linearGradient
       inkscape:collect="always"
       xlink:href="#linearGradient1219"
       id="linearGradient2311"
       x1="470.54218"
       y1="903.75897"
       x2="560.44086"
       y2="681.63354"
       gradientTransform="scale(1.0034988,0.9965134)"
       gradientUnits="userSpaceOnUse" /><radialGradient
       inkscape:collect="always"
       xlink:href="#linearGradient1230"
       id="radialGradient2313"
       cx="280.29745"
       cy="1425.9041"
       fx="280.29745"
       fy="1425.9041"
       r="8.4654083"
       gradientTransform="scale(1.7795116,0.5619519)"
       gradientUnits="userSpaceOnUse" /><linearGradient
       inkscape:collect="always"
       xlink:href="#linearGradient1219"
       id="linearGradient2315"
       gradientTransform="scale(0.8169204,1.2241094)"
       x1="960.28302"
       y1="764.90192"
       x2="821.96027"
       y2="771.93469"
       gradientUnits="userSpaceOnUse" /><radialGradient
       inkscape:collect="always"
       xlink:href="#linearGradient1225"
       id="radialGradient2317"
       cx="729.70435"
       cy="734.72784"
       fx="729.70435"
       fy="734.72784"
       r="44.774738"
       gradientTransform="scale(0.9021936,1.1084095)"
       gradientUnits="userSpaceOnUse" /><linearGradient
       inkscape:collect="always"
       xlink:href="#linearGradient1236"
       id="linearGradient2319"
       x1="474.52533"
       y1="449.08334"
       x2="416.56439"
       y2="451.38849"
       gradientTransform="scale(0.7033475,1.4217722)"
       gradientUnits="userSpaceOnUse" /><linearGradient
       inkscape:collect="always"
       xlink:href="#linearGradient1236"
       id="linearGradient2321"
       gradientUnits="userSpaceOnUse"
       gradientTransform="matrix(0.3969292,6.4043912e-2,0.2267152,-1.40513,-9.074221,960.8435)"
       x1="997.41699"
       y1="581.42175"
       x2="256.09552"
       y2="599.78528" /><linearGradient
       inkscape:collect="always"
       xlink:href="#linearGradient1219"
       id="linearGradient2323"
       x1="429.6355"
       y1="542.75342"
       x2="-261.00098"
       y2="573.55011"
       gradientTransform="scale(0.7011157,1.4262981)"
       gradientUnits="userSpaceOnUse" /><linearGradient
       inkscape:collect="always"
       xlink:href="#linearGradient669"
       id="linearGradient2325"
       gradientUnits="userSpaceOnUse"
       gradientTransform="matrix(0.7786846,0,0,-1.2842169,0,1052.3622)"
       x1="192.63243"
       y1="509.69897"
       x2="605.61871"
       y2="509.69897" /></defs><sodipodi:namedview
     id="base"
     inkscape:zoom="0.36014217"
     inkscape:cx="372.04724"
     inkscape:cy="511.69551"
     inkscape:window-width="822"
     inkscape:window-height="592"
     inkscape:window-x="6"
     inkscape:window-y="50"
     inkscape:current-layer="svg1205" /><g
     id="g2236"
     transform="matrix(0.8,0,0,0.8,51.217035,-228.10398)"><rect
       y="285.12997"
       x="-64.021294"
       height="649.99994"
       width="999.99994"
       id="rect605"
       style="font-size:12px;fill:#00a2af;fill-opacity:1;fill-rule:evenodd;stroke-width:1" /><g
       style="font-size:12px"
       transform="matrix(0.306446,-4.944456e-2,7.664798e-2,0.475047,45.1489,212.2182)"
       id="g1272"><path
         sodipodi:nodetypes="ccsssc"
         id="path1213"
         d="M 380.4929,705.205 C 380.4929,728.2688 386.0453,763.9213 394.6374,802.7318 C 376.2481,801.8459 385.3342,764.2334 357.308,747.405 C 326.8161,731.4584 327.9547,685.3497 335.375,676.7499 C 343.4956,667.4072 349.0402,674.136 362.3927,689.466 C 370.9214,698.7243 380.4929,700.4494 380.4929,705.205 z "
         style="font-size:12px;fill:url(#radialGradient2269);fill-opacity:1;fill-rule:evenodd;stroke-width:1" /><path
         sodipodi:nodetypes="ccsssc"
         id="path1214"
         d="M 383.1324,713.9633 C 383.1324,734.9559 387.6487,767.4065 394.6374,802.7316 C 386.2519,802.1207 386.8021,760.8428 369.03,749.9984 C 339.7644,732.0145 335.7591,696.2818 341.7948,688.4544 C 348.3999,679.9507 353.2965,686.0753 364.1574,700.0285 C 371.0945,708.4554 383.1324,709.6347 383.1324,713.9633 z "
         style="font-size:12px;fill:url(#radialGradient2271);fill-opacity:1;fill-rule:evenodd;stroke-width:1" /><path
         sodipodi:nodetypes="cccc"
         id="path1245"
         d="M 378.4668,725.4677 C 393.0856,765.2289 380.091,756.7012 358.9748,736.0258 C 343.5438,725.5023 338.7851,696.6359 350.4471,696.6359 C 362.1093,696.6359 390.2431,712.9138 378.4668,725.4677 z "
         style="font-size:12px;fill:url(#linearGradient2273);fill-rule:evenodd;stroke-width:1" /><path
         sodipodi:nodetypes="cccc"
         id="path1254"
         d="M 347.8229,732.4957 C 345.2063,733.2567 343.6186,727.7978 346.2351,727.0367 C 348.8519,726.2756 351.3285,726.8807 351.7669,728.3881 C 352.2054,729.8956 350.4396,731.7346 347.8229,732.4957 z "
         style="font-size:12px;fill:url(#linearGradient2275);fill-rule:evenodd;stroke-width:1" /><path
         sodipodi:nodetypes="cccc"
         id="path1255"
         d="M 343.0288,725.1063 C 340.3466,725.587 339.3436,719.9909 342.0259,719.5102 C 344.7084,719.0295 347.1073,719.8925 347.3843,721.4377 C 347.6612,722.9831 345.7113,724.6255 343.0288,725.1063 z "
         style="font-size:12px;fill:url(#linearGradient2277);fill-rule:evenodd;stroke-width:1" /><path
         sodipodi:nodetypes="cccc"
         id="path1256"
         d="M 338.85,717.1803 C 336.125,717.1803 336.125,711.4951 338.85,711.4951 C 341.5752,711.4951 343.7843,712.7678 343.7843,714.3376 C 343.7843,715.9076 341.5752,717.1803 338.85,717.1803 z "
         style="font-size:12px;fill:url(#linearGradient2279);fill-rule:evenodd;stroke-width:1" /><path
         sodipodi:nodetypes="cccc"
         id="path1257"
         d="M 337.0997,709.5907 C 334.3874,709.8529 333.8403,704.1941 336.5527,703.9319 C 339.2652,703.6696 341.5866,704.7239 341.7376,706.2864 C 341.8887,707.8491 339.8123,709.3285 337.0997,709.5907 z "
         style="font-size:12px;fill:url(#linearGradient2281);fill-rule:evenodd;stroke-width:1" /><path
         sodipodi:nodetypes="cccc"
         id="path1258"
         d="M 336.1982,701.8384 C 333.4791,702.0184 333.1037,696.3456 335.8227,696.1656 C 338.542,695.9857 340.8303,697.1097 340.934,698.6761 C 341.0377,700.2427 338.9174,701.6585 336.1982,701.8384 z "
         style="font-size:12px;fill:url(#linearGradient2283);fill-rule:evenodd;stroke-width:1" /><path
         sodipodi:nodetypes="cccc"
         id="path1259"
         d="M 344.129,683.0696 C 341.404,683.0696 341.404,677.3844 344.129,677.3844 C 346.8542,677.3844 349.0633,678.6571 349.0633,680.2269 C 349.0633,681.7969 346.8542,683.0696 344.129,683.0696 z "
         style="font-size:12px;fill:url(#linearGradient2285);fill-rule:evenodd;stroke-width:1" /><path
         sodipodi:nodetypes="cccc"
         id="path1260"
         d="M 338.4438,686.7242 C 335.7188,686.7242 335.7188,681.039 338.4438,681.039 C 341.169,681.039 343.3781,682.3117 343.3781,683.8815 C 343.3781,685.4515 341.169,686.7242 338.4438,686.7242 z "
         style="font-size:12px;fill:url(#linearGradient2287);fill-rule:evenodd;stroke-width:1" /><path
         sodipodi:nodetypes="cccc"
         id="path1261"
         d="M 336.0074,693.6276 C 333.2824,693.6276 333.2824,687.9424 336.0074,687.9424 C 338.7326,687.9424 340.9417,689.2151 340.9417,690.7849 C 340.9417,692.3549 338.7326,693.6276 336.0074,693.6276 z "
         style="font-size:12px;fill:url(#linearGradient2289);fill-rule:evenodd;stroke-width:1" /><path
         sodipodi:nodetypes="cccc"
         id="path1262"
         d="M 360.5941,746.3166 C 358.3547,747.8693 355.1155,743.1972 357.3548,741.6445 C 359.5944,740.0918 362.135,739.8791 363.0295,741.1691 C 363.924,742.4594 362.8337,744.7639 360.5941,746.3166 z "
         style="font-size:12px;fill:url(#linearGradient2291);fill-rule:evenodd;stroke-width:1" /><path
         sodipodi:nodetypes="cccc"
         id="path1263"
         d="M 353.1456,739.4115 C 350.547,740.232 348.8355,734.8105 351.434,733.9901 C 354.0328,733.1697 356.5226,733.7183 356.9952,735.2153 C 357.4679,736.7125 355.7444,738.5912 353.1456,739.4115 z "
         style="font-size:12px;fill:url(#linearGradient2293);fill-rule:evenodd;stroke-width:1" /><path
         sodipodi:nodetypes="cccc"
         id="path1264"
         d="M 372.2832,704.2557 C 369.9487,704.845 368.756,700.1201 371.0906,699.5308 C 373.4255,698.9415 375.5851,699.5215 375.9144,700.8261 C 376.2438,702.1309 374.6181,703.6664 372.2832,704.2557 z "
         style="font-size:12px;fill:url(#linearGradient2295);fill-rule:evenodd;stroke-width:1" /><path
         sodipodi:nodetypes="cccc"
         id="path1265"
         d="M 366.2605,699.6158 C 363.8891,700.0327 363.0454,695.2332 365.4168,694.8163 C 367.7886,694.3994 369.9,695.1359 370.1329,696.4611 C 370.3659,697.7865 368.6323,699.1989 366.2605,699.6158 z "
         style="font-size:12px;fill:url(#linearGradient2297);fill-rule:evenodd;stroke-width:1" /><path
         sodipodi:nodetypes="cccc"
         id="path1266"
         d="M 361.3876,694.2179 C 359.0162,694.6348 358.1725,689.8353 360.5439,689.4184 C 362.9157,689.0015 365.0271,689.7379 365.26,691.0632 C 365.493,692.3886 363.7594,693.801 361.3876,694.2179 z "
         style="font-size:12px;fill:url(#linearGradient2299);fill-rule:evenodd;stroke-width:1" /><path
         sodipodi:nodetypes="cccc"
         id="path1267"
         d="M 356.3353,688.4685 C 353.9407,688.7203 353.4311,683.8739 355.8257,683.6221 C 358.2206,683.3704 360.276,684.2512 360.4167,685.5894 C 360.5574,686.9277 358.7302,688.2167 356.3353,688.4685 z "
         style="font-size:12px;fill:url(#linearGradient2301);fill-rule:evenodd;stroke-width:1" /><path
         sodipodi:nodetypes="cccc"
         id="path1268"
         d="M 350.9298,683.9479 C 348.5257,684.0797 348.2588,679.2139 350.663,679.0821 C 353.0675,678.9502 355.0763,679.9326 355.15,681.2761 C 355.2237,682.6198 353.3343,683.816 350.9298,683.9479 z "
         style="font-size:12px;fill:url(#linearGradient2303);fill-rule:evenodd;stroke-width:1" /><path
         sodipodi:nodetypes="cccc"
         id="path1269"
         d="M 378.3616,707.7411 C 376.0798,708.5097 374.5243,703.8915 376.8062,703.1229 C 379.0884,702.3544 381.2865,702.7652 381.7159,704.0403 C 382.1455,705.3157 380.6438,706.9726 378.3616,707.7411 z "
         style="font-size:12px;fill:url(#linearGradient2305);fill-rule:evenodd;stroke-width:1" /><path
         sodipodi:nodetypes="cccc"
         id="path1271"
         d="M 368.1559,752.0114 C 365.9256,753.5771 362.6591,748.924 364.8894,747.3583 C 367.1198,745.7925 369.6591,745.5649 370.5611,746.8497 C 371.4632,748.1346 370.3864,750.4456 368.1559,752.0114 z "
         style="font-size:12px;fill:url(#linearGradient2307);fill-rule:evenodd;stroke-width:1" /></g><path
       id="path1211"
       d="M 227.0625,478.375 C 225.71405,478.436 224.36345,478.76953 222.5625,479.25 C 200.93405,484.81717 220.50788,559.75846 227.5,573.78125 C 223.9039,575.38563 221.25754,557.18457 213.5625,550.53125 C 203.77637,542.81271 200.48805,533.40881 199.46875,521.90625 C 199.17838,518.30383 199.91398,515.87008 202.0625,514.625 C 190.70444,513.37232 194.84575,551.16173 207.625,592.78125 C 218.59057,691.26124 236.40304,760.91174 238.65625,769.53125 C 256.43805,839.83083 270.56421,884.55534 283.96875,910.90625 C 287.23826,917.50928 288.68509,926.09313 288.6875,935.125 L 364.8125,935.125 C 373.67819,910.82315 380.21174,878.36807 380.96875,833.21875 C 376.38035,748.4301 380.36634,632.75518 325.21875,538.84375 C 287.10646,473.43288 257.23622,492.57252 249.96875,488.25 C 235.01815,480.4384 231.10785,478.192 227.0625,478.375 z M 171.59375,928 C 163.16458,928.17302 156.62617,930.50654 153,933.375 C 152.20477,933.83757 151.71645,934.41256 151.46875,935.125 L 200.71875,935.125 C 189.82713,929.71743 179.80982,927.83136 171.59375,928 z "
       style="font-size:12px;fill:url(#linearGradient2309);fill-rule:evenodd" /><path
       transform="matrix(0.627654,-0.101271,0.143375,0.888606,-9.074221,91.51868)"
       sodipodi:nodetypes="csccs"
       id="path1325"
       d="M 538.0384,842.3831 C 575.017,891.4029 557.7241,916.9835 545.0009,901.979 C 473.8558,820.8323 413.1333,914.0079 414.8167,883.962 C 424.9824,819.2783 431.6586,761.8437 438.7398,761.6989 C 466.8196,777.2082 520.1033,817.0093 538.0384,842.3831 z "
       style="font-size:12px;fill:url(#linearGradient2311);fill-rule:evenodd" /><path
       transform="matrix(0.177416,-2.862587e-2,0.153296,0.950094,43.71428,-163.8965)"
       sodipodi:ry="8.9436035"
       sodipodi:rx="28.321365"
       sodipodi:cy="804.92291"
       sodipodi:cx="511.27515"
       d="M 539.59651 804.92291 A 28.321365 8.9436035 0 1 1  482.95378,804.92291 A 28.321365 8.9436035 0 1 1  539.59651 804.92291 z"
       id="path1215"
       style="font-size:12px;fill:url(#radialGradient2313);fill-rule:evenodd"
       sodipodi:type="arc" /><path
       transform="matrix(0.306446,-4.944456e-2,7.664798e-2,0.475047,45.1489,212.2182)"
       sodipodi:nodetypes="cscccc"
       id="path1218"
       d="M 777.3699,934.7211 C 768.7427,951.2153 769.9774,946.7206 774.0675,937.6331 C 779.8963,924.8859 757.4406,907.689 745.3147,917.8542 C 719.7049,939.3232 765.7829,964.828 741.2371,965.0116 C 735.4167,946.1151 733.1569,916.8973 745.4595,906.584 C 757.7621,896.2706 774.5952,916.8398 777.3699,934.7211 z "
       style="font-size:12px;fill:url(#linearGradient2315);fill-rule:evenodd" /><path
       transform="matrix(0.306446,-4.944456e-2,7.664798e-2,0.475047,45.1489,212.2182)"
       sodipodi:ry="64.095764"
       sodipodi:rx="52.170959"
       sodipodi:cy="812.37573"
       sodipodi:cx="657.35425"
       d="M 709.52521 812.37573 A 52.170959 64.095764 0 1 1  605.18329,812.37573 A 52.170959 64.095764 0 1 1  709.52521 812.37573 z"
       id="path1223"
       style="font-size:12px;fill:url(#radialGradient2317);fill-rule:evenodd"
       sodipodi:type="arc" /><path
       transform="matrix(0.627654,-0.101271,0.143375,0.888606,-9.074221,91.51868)"
       sodipodi:nodetypes="cssssssss"
       id="path1234"
       d="M 328.8677,641.1159 C 328.8677,654.0458 333.2226,668.7483 328.5984,677.2216 C 323.9741,685.695 317.5858,690.9359 310.5294,690.9359 C 303.473,690.9359 297.0847,685.695 292.4604,677.2216 C 287.8362,668.7483 285.5773,655.544 285.5773,642.6141 C 285.5773,629.6846 295.6525,608.2398 300.2768,599.7665 C 304.901,591.2929 311.2894,586.0521 318.3457,586.0521 C 325.4021,586.0521 331.7904,591.2929 336.4147,599.7665 C 341.0389,608.2398 328.8677,628.1862 328.8677,641.1159 z "
       style="font-size:12px;fill:url(#linearGradient2319);fill-rule:evenodd" /><path
       id="path1359"
       d="M 201.59375,514.5625 C 186.78574,515.6249 202.29357,576.45487 206.46875,592.78125 C 210.5379,622.41095 213.45161,636.2403 219.3125,675.625 C 223.9832,707.01166 235.57653,758.09178 239.4375,773.625 C 250.39714,817.71735 266.97975,875.95031 272.625,886.4375 C 282.3496,903.5879 287.26778,919.86418 288.15625,935.125 L 300.9375,935.125 C 301.772,900.81711 286.3355,863.46234 280.34375,850.6875 C 295.48131,875.71896 337.29067,877.65481 327.96875,852.15625 C 319.47589,829.34304 282.92144,810.81821 265.125,796.875 C 247.9365,782.9905 233.42937,702.61015 229.15625,680.1875 C 218.05816,621.83099 252.90655,675.36375 252.625,656.90625 C 251.57874,625.29356 256.24564,621.93133 241.0625,582.40625 C 234.57253,565.02888 229.63343,589.17938 225.40625,574.09375 C 218.28974,548.57881 207.49895,548.85172 202.53125,536.21875 C 201.04422,532.38877 197.5781,518.70896 201.59375,514.5625 z M 170.8125,927.34375 C 163.83917,927.43489 157.16735,929.11807 151.3125,932.875 C 150.55067,933.33579 150.28332,934.10483 150.375,935.125 L 200.96875,935.125 C 191.27368,930.29208 180.74433,927.21394 170.8125,927.34375 z "
       style="font-size:12px;fill:url(#linearGradient2321);fill-rule:evenodd" /><path
       transform="matrix(0.627654,-0.101271,0.143375,0.888606,-9.074221,91.51868)"
       sodipodi:nodetypes="csscscc"
       id="path1323"
       d="M 237.9271,755.611 C 232.3836,758.9026 226.8521,763.1243 218.1329,778.3635 C 211.6314,791.0848 213.4121,824.6353 201.769,846.0067 C 190.1259,867.378 166.458,855.7266 159.9519,855.1607 C 141.3192,824.1963 147.9166,767.9459 162.7238,738.5889 C 184.8743,694.6724 219.8998,681.9419 228.2841,658.1148 C 254.8189,655.6492 249.0144,738.0994 237.9271,755.611 z "
       style="font-size:12px;fill:url(#linearGradient2323);fill-rule:evenodd" /><path
       id="path1321"
       d="M 366.5625,656.375 C 369.02666,673.97264 344.62169,691.31035 321.34375,696.78125 C 304.79705,700.48825 248.23954,700.99294 244.90625,682.40625 C 236.09345,699.23665 213.6217,721.79241 202.9375,712.0625 C 186.3475,776.746 204.415,812.31166 212.125,834.59375 C 219.4173,837.77455 230.467,839.16972 237.5,829.625 C 241.3477,817.2881 241.21381,795.2995 238.1875,767.9375 C 246.7767,803.58 265.89586,872.49263 269.78125,880.1875 C 280.40888,901.5332 285.67254,919.85911 287.03125,935.125 L 365.25,935.125 C 373.54485,912.00224 379.52283,881.88967 380.4375,841.21875 C 390.8282,832.96345 399.17631,820.45969 411.875,815.625 C 426.4499,810.1883 442.02591,814.74478 464.6875,840.5625 C 474.2205,851.411 491.40639,796.73427 375.625,722.46875 C 373.79438,698.81177 371.06795,679.18995 366.5625,656.375 z M 172.625,927.1875 C 159.36694,927.18445 151.22842,932.47694 150.6875,933.34375 C 150.3363,933.92603 150.14635,934.50613 150.0625,935.125 L 201.6875,935.125 C 190.51281,929.13689 180.62988,927.18934 172.625,927.1875 z "
       style="font-size:12px;fill:url(#linearGradient2325);fill-rule:evenodd;stroke-width:1" /></g></svg>