<?xml version="1.0" encoding="UTF-8" standalone="no"?>
<!-- Created with Sodipodi ("http://www.sodipodi.com/") -->

<svg
   xmlns:dc="http://purl.org/dc/elements/1.1/"
   xmlns:cc="http://creativecommons.org/ns#"
   xmlns:rdf="http://www.w3.org/1999/02/22-rdf-syntax-ns#"
   xmlns:svg="http://www.w3.org/2000/svg"
   xmlns="http://www.w3.org/2000/svg"
   xmlns:xlink="http://www.w3.org/1999/xlink"
   xmlns:sodipodi="http://sodipodi.sourceforge.net/DTD/sodipodi-0.dtd"
   xmlns:inkscape="http://www.inkscape.org/namespaces/inkscape"
   id="svg602"
   sodipodi:version="0.32"
   width="427.49359"
   height="199.14137"
   xml:space="preserve"
   sodipodi:docname="iceblock.svg"
   inkscape:version="0.48.2 r9819"
   inkscape:output_extension="org.inkscape.output.svg.inkscape"
   version="1.0"
   sodipodi:modified="true"><metadata
     id="metadata23"><rdf:RDF><cc:Work
         rdf:about=""><dc:format>image/svg+xml</dc:format><dc:type
           rdf:resource="http://purl.org/dc/dcmitype/StillImage" /></cc:Work></rdf:RDF></metadata><defs
     id="defs604"><linearGradient
       id="linearGradient618"><stop
         style="stop-color:#c5edff;stop-opacity:1;"
         offset="0"
         id="stop619" /><stop
         style="stop-color:#ffffff;stop-opacity:1;"
         offset="1"
         id="stop620" /></linearGradient><linearGradient
       id="linearGradient612"><stop
         style="stop-color:#e6edff;stop-opacity:0.498;"
         offset="0"
         id="stop613" /><stop
         style="stop-color:#d2ffdf;stop-opacity:0.702;"
         offset="1"
         id="stop614" /></linearGradient><linearGradient
       xlink:href="#linearGradient618"
       id="linearGradient615"
       x1="300.79311"
       y1="654.67275"
       x2="276.33324"
       y2="724.95808"
       spreadMethod="pad"
       gradientTransform="scale(1.261335,0.7928108)"
       gradientUnits="userSpaceOnUse" /><linearGradient
       xlink:href="#linearGradient612"
       id="linearGradient616"
       gradientTransform="scale(1.7696933,0.5650697)"
       x1="75.292878"
       y1="1004.0671"
       x2="312.4985"
       y2="1004.0671"
       gradientUnits="userSpaceOnUse" /><linearGradient
       xlink:href="#linearGradient618"
       id="linearGradient629"
       x1="0.083892383"
       y1="0.10833476"
       x2="0.5704698"
       y2="0.50833338" /><radialGradient
       xlink:href="#linearGradient618"
       id="radialGradient656"
       cx="126.15959"
       cy="1157.882"
       r="31.709867"
       fx="126.15959"
       fy="1157.882"
       gradientTransform="scale(2.5512675,0.391962)"
       gradientUnits="userSpaceOnUse" /><radialGradient
       xlink:href="#linearGradient618"
       id="radialGradient657" /><radialGradient
       inkscape:collect="always"
       xlink:href="#linearGradient618"
       id="radialGradient2175"
       cx="259.00865"
       cy="917.49936"
       fx="259.00865"
       fy="917.49936"
       r="90.382476"
       gradientTransform="scale(1.5802723,0.6328023)"
       gradientUnits="userSpaceOnUse" /><radialGradient
       inkscape:collect="always"
       xlink:href="#linearGradient618"
       id="radialGradient2177"
       cx="109.32731"
       cy="1146.0134"
       fx="109.32731"
       fy="1146.0134"
       r="25.760361"
       gradientTransform="scale(2.3531015,0.424971)"
       gradientUnits="userSpaceOnUse" /><linearGradient
       inkscape:collect="always"
       xlink:href="#linearGradient612"
       id="linearGradient3007"
       gradientUnits="userSpaceOnUse"
       gradientTransform="matrix(1.7696933,0,0,0.5650697,-126.48278,-435.24533)"
       x1="75.292878"
       y1="1004.0671"
       x2="312.4985"
       y2="1004.0671" /></defs><sodipodi:namedview
     id="base"
     inkscape:zoom="1.0186359"
     inkscape:cx="322.25064"
     inkscape:cy="139.86023"
     inkscape:window-width="822"
     inkscape:window-height="592"
     inkscape:window-x="9"
     inkscape:window-y="75"
     inkscape:current-layer="svg602"
     showgrid="false"
     inkscape:window-maximized="0" /><path
     inkscape:connector-curvature="0"
     sodipodi:nodetypes="ccscccssssccssssc"
     id="path607"
     d="m 6.76252,98.39317 c 5.5681,34.522 3.3747,28.8354 2.261,49.9939 8.3522,6.6817 8.3587,9.7118 27.7892,11.1023 l 63.3029,4.5299 72.7521,19.885 70.3898,4.53 57.397,9.2546 c 21.4051,3.4513 43.2459,1.2613 60.3377,-12.1228 12.7171,-10.6976 16.0188,-14.1161 28.7902,-21.2051 13.3091,-8.6185 21.9494,-36.5789 32.3335,-49.5531 1.9919,-2.4889 3.7393,-10.95 4.4278,-22.3305 l -5.3327,-27.3737 c 8.3192,12.2125 -0.032,8.6775 -4.9887,15.0533 l -55.7787,71.749 c -10.0825,12.9692 -37.1728,15.6215 -44.13,14.4011 l -291.6237,-51.1504 c -10.1569,-1.7815 -13.043,-7.3735 -17.9274,-16.7635 z"
     style="font-size:12px;fill:url(#linearGradient3007);fill-rule:evenodd" /><g
     style="font-size:12px"
     transform="translate(-126.48278,-435.24533)"
     id="g664"><path
       inkscape:connector-curvature="0"
       sodipodi:nodetypes="cssssssssssssssss"
       id="path617"
       d="m 623.051,558.1809 c 0,15.568 -7.0191,19.9901 -10.3755,32.0402 -3.3565,12.05 -17.2242,18.7352 -26.1969,27.018 -8.9726,8.2828 -15.7042,24.2113 -29.8988,34.2407 -23.9356,16.0777 -12.2147,15.9108 -55.7354,13.5484 -26.9426,-1.5032 -69.3756,-10.3159 -100.6566,-7.864 -32.5148,1.3207 -84.5245,-23.6695 -95.4165,-28.1135 -29.042,-8.6998 -54.9636,0.983 -76.3594,-0.811 -21.3322,-0.6076 -32.8545,-7.2443 -32.8545,-22.8123 0,-15.568 16.6899,-39.2577 22.7593,-50.1266 6.0694,-10.8689 20.417,-27.8155 29.9064,-34.6218 9.4894,-6.8064 4.6714,-16.4651 14.9313,-19.8454 10.2601,-3.3802 20.2271,-5.6568 28.6241,-5.797 26.9684,-0.4504 49.0001,3.7456 84.5628,5.0219 35.5625,1.2762 79.9474,20.1629 113.8722,24.4593 33.9248,4.2963 64.4766,3.4517 86.5471,12.5119 22.0706,9.0603 46.2904,5.5832 46.2904,21.1512 z"
       style="font-size:12px;fill:url(#radialGradient2175);fill-rule:evenodd"
       transform="translate(-69.07462,-59.47551)" /><path
       inkscape:connector-curvature="0"
       sodipodi:nodetypes="csccc"
       id="path622"
       d="m 259.8558,470.6394 c 0.2953,4.8109 101.675,22.8503 86.5853,30.6898 -11.7556,4.8107 -109.2553,-5.2947 -125.5638,-7.657 -32.6169,0 -33.0725,15.1098 -54.3334,7.6774 7.087,-10.9758 42.5219,-10.9759 93.3119,-30.7102 z"
       style="font-size:12px;fill:url(#radialGradient2177);fill-opacity:0.38670002;fill-rule:evenodd" /><path
       inkscape:connector-curvature="0"
       sodipodi:nodetypes="ccccc"
       id="path624"
       d="m 442.9361,470.6393 c -29.5291,3.8003 -43.3636,2.9529 -112.2105,-15.9457 -53.4917,0 -129.928,-1.515 -129.928,-13.5834 0,-12.0681 50.4507,-1.7717 103.9424,-1.7717 46.4046,7.087 100.3989,23.9573 138.1961,31.3008 z"
       style="font-size:12px;fill:url(#radialGradient656);fill-rule:evenodd" /><path
       inkscape:connector-curvature="0"
       sodipodi:nodetypes="ccccc"
       id="path649"
       d="m 414.393,546.905 c -4.7811,2.0921 -16.5739,52.7595 -74.3538,5.2466 8.942,-10.741 -12.8739,-35.4109 -8.0929,-37.5029 41.2815,-6.7084 77.6712,3.4554 90.3585,12.0335 11.5062,26.2957 -3.1308,18.1308 -7.9118,20.2228 z"
       style="font-size:12px;fill:url(#linearGradient615);fill-rule:evenodd" /></g></svg>