<?xml version="1.0" encoding="UTF-8" standalone="no"?>
<!-- Created with Sodipodi ("http://www.sodipodi.com/") -->
<svg
   xmlns:dc="http://purl.org/dc/elements/1.1/"
   xmlns:cc="http://web.resource.org/cc/"
   xmlns:rdf="http://www.w3.org/1999/02/22-rdf-syntax-ns#"
   xmlns:svg="http://www.w3.org/2000/svg"
   xmlns="http://www.w3.org/2000/svg"
   xmlns:xlink="http://www.w3.org/1999/xlink"
   xmlns:sodipodi="http://sodipodi.sourceforge.net/DTD/sodipodi-0.dtd"
   xmlns:inkscape="http://www.inkscape.org/namespaces/inkscape"
   id="svg602"
   sodipodi:version="0.32"
   width="799.99994"
   height="519.99994"
   xml:space="preserve"
   sodipodi:docbase="/home/franck/Dessins/Vectoriels/Animaux"
   sodipodi:docname="morse.svg"
   inkscape:version="0.45"
   inkscape:output_extension="org.inkscape.output.svg.inkscape"
   sodipodi:modified="true"
   version="1.0"><metadata
     id="metadata103"><rdf:RDF><cc:Work
         rdf:about=""><dc:format>image/svg+xml</dc:format><dc:type
           rdf:resource="http://purl.org/dc/dcmitype/StillImage" /></cc:Work></rdf:RDF></metadata><defs
     id="defs604"><linearGradient
       id="linearGradient908"><stop
         style="stop-color:#00b8c5;stop-opacity:0.2471;"
         offset="0"
         id="stop909" /><stop
         style="stop-color:#00a3b0;stop-opacity:0.7725;"
         offset="1"
         id="stop910" /></linearGradient><linearGradient
       id="linearGradient841"><stop
         style="stop-color:#e5edff;stop-opacity:0.498;"
         offset="0"
         id="stop842" /><stop
         style="stop-color:#d2ffde;stop-opacity:0.698;"
         offset="1"
         id="stop843" /></linearGradient><linearGradient
       id="linearGradient825"><stop
         style="stop-color:#d2edf7;stop-opacity:1;"
         offset="0"
         id="stop826" /><stop
         style="stop-color:#ffffff;stop-opacity:1;"
         offset="1"
         id="stop827" /></linearGradient><linearGradient
       id="linearGradient755"><stop
         style="stop-color:#d2d7da;stop-opacity:1;"
         offset="0"
         id="stop756" /><stop
         style="stop-color:#9a92a3;stop-opacity:1;"
         offset="1"
         id="stop757" /></linearGradient><linearGradient
       id="linearGradient725"><stop
         style="stop-color:#75552d;stop-opacity:0.1529;"
         offset="0"
         id="stop726" /><stop
         style="stop-color:#878d75;stop-opacity:0.6667;"
         offset="1"
         id="stop727" /></linearGradient><linearGradient
       id="linearGradient627"><stop
         style="stop-color:#ffedc2;stop-opacity:1;"
         offset="0"
         id="stop628" /><stop
         style="stop-color:#ddcab0;stop-opacity:1;"
         offset="1"
         id="stop629" /></linearGradient><linearGradient
       id="linearGradient621"><stop
         style="stop-color:#f8f8f8;stop-opacity:1;"
         offset="0"
         id="stop622" /><stop
         style="stop-color:#252726;stop-opacity:1;"
         offset="1"
         id="stop623" /></linearGradient><linearGradient
       id="linearGradient616"><stop
         style="stop-color:#75552d;stop-opacity:1;"
         offset="0"
         id="stop617" /><stop
         style="stop-color:#878d75;stop-opacity:1;"
         offset="1"
         id="stop618" /></linearGradient><linearGradient
       id="linearGradient611"><stop
         style="stop-color:#000;stop-opacity:1;"
         offset="0"
         id="stop612" /><stop
         style="stop-color:#fff;stop-opacity:1;"
         offset="1"
         id="stop613" /></linearGradient><linearGradient
       xlink:href="#linearGradient627"
       id="linearGradient614"
       x1="0.17646699"
       y1="0.42968547"
       x2="0.7647059"
       y2="0.45312488" /><radialGradient
       xlink:href="#linearGradient616"
       id="radialGradient615"
       cx="0.25000387"
       cy="0.25781444"
       r="0.82093912"
       fx="0.25000387"
       fy="0.25781444" /><radialGradient
       xlink:href="#linearGradient621"
       id="radialGradient620"
       cx="0.38057801"
       cy="0.64063132"
       r="0.23895183"
       fx="0.38057801"
       fy="0.64063132" /><radialGradient
       xlink:href="#linearGradient616"
       id="radialGradient713"
       cx="0.087500274"
       cy="0.32811984"
       r="0.77802187"
       fx="0.087500274"
       fy="0.32811984" /><linearGradient
       xlink:href="#linearGradient755"
       id="linearGradient716"
       x1="0.44295469"
       y1="0.066086143"
       x2="0.44630879"
       y2="0.5094353"
       spreadMethod="reflect" /><radialGradient
       xlink:href="#linearGradient616"
       id="radialGradient723"
       cx="0.55469567"
       cy="0.50769591"
       r="0.62154818"
       fx="0.55469567"
       fy="0.50769591"
       spreadMethod="pad" /><radialGradient
       xlink:href="#linearGradient725"
       id="radialGradient724"
       cx="0.11073555"
       cy="0.42721456"
       r="0.84932667"
       fx="0.11073555"
       fy="0.42721456" /><linearGradient
       xlink:href="#linearGradient755"
       id="linearGradient732"
       x1="0.12416263"
       y1="0.59434742"
       x2="0.38590616"
       y2="0.66981137"
       spreadMethod="repeat" /><radialGradient
       xlink:href="#linearGradient611"
       id="radialGradient734"
       cx="0.46761161"
       cy="0.4765107"
       r="0.86372548"
       fx="0.46761161"
       fy="0.4765107" /><radialGradient
       xlink:href="#linearGradient755"
       id="radialGradient750"
       cx="0.095294587"
       cy="0.50760823"
       r="0.587515"
       fx="0.095294587"
       fy="0.50760823"
       gradientTransform="matrix(0.999995,1.125248e-6,1.0753e-5,1.000005,-9.375133e-7,4.841012e-7)" /><linearGradient
       xlink:href="#linearGradient755"
       id="linearGradient758"
       x1="0.80187821"
       y1="0.015730388"
       x2="0.77358443"
       y2="0.13281402"
       spreadMethod="reflect" /><linearGradient
       xlink:href="#linearGradient755"
       id="linearGradient760"
       x1="0.30351847"
       y1="0.50777334"
       x2="0.58928424"
       y2="0.28906196"
       spreadMethod="reflect" /><linearGradient
       xlink:href="#linearGradient755"
       id="linearGradient761"
       x1="0.22864038"
       y1="0.42067561"
       x2="0.81905752"
       y2="0.45971113"
       gradientTransform="translate(-1.389543e-6,-4.74291e-7)"
       spreadMethod="reflect" /><linearGradient
       xlink:href="#linearGradient616"
       id="linearGradient776"
       x1="0.81443298"
       y1="0.93753064"
       x2="0.44845363"
       y2="1.0625" /><linearGradient
       xlink:href="#linearGradient841"
       id="linearGradient824"
       x1="0.83221775"
       y1="0.46251339"
       x2="0.62080556"
       y2="0.48750106"
       spreadMethod="reflect" /><radialGradient
       xlink:href="#linearGradient611"
       id="radialGradient833"
       cx="1.0879495"
       cy="0.86519217"
       r="2.4588008"
       fx="1.0879495"
       fy="0.86519217"
       gradientTransform="matrix(0.999998,0,0,1.000002,3.036007e-6,-6.54054e-6)" /><radialGradient
       xlink:href="#linearGradient825"
       id="radialGradient834"
       cx="0.4463059"
       cy="0.4916583"
       r="0.57242227"
       fx="0.4463059"
       fy="0.4916583" /><linearGradient
       xlink:href="#linearGradient908"
       id="linearGradient907"
       x1="0.48912984"
       y1="0.070309602"
       x2="0.46195653"
       y2="1.2812501" /><linearGradient
       xlink:href="#linearGradient616"
       id="linearGradient1032"
       x1="0.53571427"
       y1="0.031244785"
       x2="0.28571427"
       y2="0.89062488" /><linearGradient
       xlink:href="#linearGradient611"
       id="linearGradient968"
       x1="-0.080063254"
       y1="0.20129398"
       x2="-0.064714052"
       y2="1.2424301"
       gradientTransform="translate(-3.080186e-6,-1.102646e-5)" /><linearGradient
       xlink:href="#linearGradient611"
       id="linearGradient969"
       x1="1.1386939"
       y1="0.27511537"
       x2="1.1540431"
       y2="1.3162491"
       gradientTransform="matrix(0.999998,0,0,1.000002,3.036007e-6,-6.54054e-6)" /><radialGradient
       xlink:href="#linearGradient611"
       id="radialGradient970"
       cx="-0.13080768"
       cy="0.79137212"
       r="2.4588063"
       fx="-0.13080768"
       fy="0.79137212"
       gradientTransform="translate(-3.080186e-6,-1.102646e-5)" /><radialGradient
       inkscape:collect="always"
       xlink:href="#linearGradient616"
       id="radialGradient2306"
       cx="120.07292"
       cy="537.82007"
       fx="120.07292"
       fy="537.82007"
       r="336.71631"
       gradientTransform="scale(0.8316227,1.2024684)"
       gradientUnits="userSpaceOnUse" /><radialGradient
       inkscape:collect="always"
       xlink:href="#linearGradient725"
       id="radialGradient2308"
       cx="83.181931"
       cy="1178.7916"
       fx="83.181931"
       fy="1178.7916"
       r="73.004311"
       gradientTransform="scale(2.0357829,0.4912115)"
       gradientUnits="userSpaceOnUse" /><radialGradient
       inkscape:collect="always"
       xlink:href="#linearGradient725"
       id="radialGradient2310"
       cx="73.222427"
       cy="1311.6519"
       fx="73.222427"
       fy="1311.6519"
       r="75.718994"
       gradientTransform="scale(2.1904381,0.4565297)"
       gradientUnits="userSpaceOnUse" /><radialGradient
       inkscape:collect="always"
       xlink:href="#linearGradient725"
       id="radialGradient2312"
       cx="71.771774"
       cy="1268.0686"
       fx="71.771774"
       fy="1268.0686"
       r="89.857124"
       gradientTransform="scale(2.0651518,0.4842259)"
       gradientUnits="userSpaceOnUse" /><linearGradient
       inkscape:collect="always"
       xlink:href="#linearGradient755"
       id="linearGradient2314"
       spreadMethod="reflect"
       x1="82.170937"
       y1="664.48535"
       x2="82.471199"
       y2="704.17383"
       gradientTransform="scale(1.6880719,0.5923918)"
       gradientUnits="userSpaceOnUse" /><linearGradient
       inkscape:collect="always"
       xlink:href="#linearGradient755"
       id="linearGradient2316"
       spreadMethod="reflect"
       x1="268.30682"
       y1="372.68872"
       x2="266.76575"
       y2="379.06595"
       gradientTransform="scale(0.9079967,1.1013256)"
       gradientUnits="userSpaceOnUse" /><radialGradient
       inkscape:collect="always"
       xlink:href="#linearGradient611"
       id="radialGradient2318"
       cx="166.32921"
       cy="290.09601"
       fx="166.32921"
       fy="290.09601"
       r="10.181284"
       gradientTransform="scale(0.6948075,1.4392476)"
       gradientUnits="userSpaceOnUse" /><linearGradient
       inkscape:collect="always"
       xlink:href="#linearGradient755"
       id="linearGradient2320"
       spreadMethod="repeat"
       x1="73.393585"
       y1="658.5506"
       x2="80.472069"
       y2="660.59143"
       gradientTransform="scale(1.687309,0.5926597)"
       gradientUnits="userSpaceOnUse" /><linearGradient
       inkscape:collect="always"
       xlink:href="#linearGradient755"
       id="linearGradient2322"
       gradientTransform="scale(0.7874417,1.2699353)"
       spreadMethod="reflect"
       x1="223.47304"
       y1="345.61493"
       x2="232.68439"
       y2="346.22394"
       gradientUnits="userSpaceOnUse" /><radialGradient
       inkscape:collect="always"
       xlink:href="#linearGradient755"
       id="radialGradient2324"
       gradientTransform="scale(0.4794138,2.0858806)"
       cx="265.53275"
       cy="200.60283"
       fx="265.53275"
       fy="200.60283"
       r="8.2388058"
       gradientUnits="userSpaceOnUse" /><linearGradient
       inkscape:collect="always"
       xlink:href="#linearGradient755"
       id="linearGradient2326"
       spreadMethod="reflect"
       x1="116.21538"
       y1="506.83673"
       x2="121.52427"
       y2="502.77359"
       gradientTransform="scale(1.1399771,0.8772106)"
       gradientUnits="userSpaceOnUse" /><linearGradient
       inkscape:collect="always"
       xlink:href="#linearGradient627"
       id="linearGradient2328"
       x1="952.38312"
       y1="457.76361"
       x2="1053.8257"
       y2="461.80579"
       gradientTransform="scale(0.5036879,1.9853562)"
       gradientUnits="userSpaceOnUse" /><linearGradient
       inkscape:collect="always"
       xlink:href="#linearGradient627"
       id="linearGradient2330"
       x1="549.10144"
       y1="458.95081"
       x2="652.01013"
       y2="463.05139"
       gradientTransform="scale(0.5060602,1.9760497)"
       gradientUnits="userSpaceOnUse" /><radialGradient
       inkscape:collect="always"
       xlink:href="#linearGradient621"
       id="radialGradient2332"
       cx="314.56259"
       cy="623.89001"
       fx="314.56259"
       fy="623.89001"
       r="17.158766"
       gradientTransform="scale(1.0235328,0.9770083)"
       gradientUnits="userSpaceOnUse" /><radialGradient
       inkscape:collect="always"
       xlink:href="#linearGradient621"
       id="radialGradient2334"
       cx="314.56259"
       cy="623.89001"
       fx="314.56259"
       fy="623.89001"
       r="17.158766"
       gradientTransform="scale(1.0235328,0.9770083)"
       gradientUnits="userSpaceOnUse" /><radialGradient
       inkscape:collect="always"
       xlink:href="#linearGradient616"
       id="radialGradient2336"
       cx="217.9684"
       cy="992.66241"
       fx="217.9684"
       fy="992.66241"
       r="195.20511"
       gradientTransform="scale(1.4752437,0.6778541)"
       gradientUnits="userSpaceOnUse" /><linearGradient
       inkscape:collect="always"
       xlink:href="#linearGradient616"
       id="linearGradient2338"
       x1="349.8714"
       y1="826.0166"
       x2="315.74777"
       y2="837.66864"
       gradientTransform="scale(1.22499,0.8163332)"
       gradientUnits="userSpaceOnUse" /><linearGradient
       inkscape:collect="always"
       xlink:href="#linearGradient616"
       id="linearGradient2340"
       x1="189.3167"
       y1="414.11252"
       x2="160.44472"
       y2="513.36053"
       gradientTransform="scale(0.6585867,1.5184029)"
       gradientUnits="userSpaceOnUse" /><radialGradient
       inkscape:collect="always"
       xlink:href="#linearGradient611"
       id="radialGradient2342"
       gradientTransform="scale(1.5369267,0.6506491)"
       cx="187.86536"
       cy="815.34888"
       fx="187.86536"
       fy="815.34888"
       r="10.689518"
       gradientUnits="userSpaceOnUse" /><radialGradient
       inkscape:collect="always"
       xlink:href="#linearGradient611"
       id="radialGradient2344"
       gradientTransform="scale(1.5369267,0.6506491)"
       cx="187.86542"
       cy="815.34888"
       fx="187.86542"
       fy="815.34888"
       r="10.689495"
       gradientUnits="userSpaceOnUse" /><linearGradient
       inkscape:collect="always"
       xlink:href="#linearGradient908"
       id="linearGradient2346"
       x1="229.38393"
       y1="792.90564"
       x2="220.41081"
       y2="1192.7797"
       gradientTransform="scale(1.0919392,0.9158019)"
       gradientUnits="userSpaceOnUse" /><linearGradient
       inkscape:collect="always"
       xlink:href="#linearGradient841"
       id="linearGradient2348"
       spreadMethod="reflect"
       x1="272.69962"
       y1="995.17505"
       x2="222.55145"
       y2="1001.1023"
       gradientTransform="scale(1.7696933,0.5650697)"
       gradientUnits="userSpaceOnUse" /><radialGradient
       inkscape:collect="always"
       xlink:href="#linearGradient825"
       id="radialGradient2350"
       cx="434.29053"
       cy="1010.0573"
       fx="434.29053"
       fy="1010.0573"
       r="154.97861"
       gradientTransform="scale(1.5789719,0.6333235)"
       gradientUnits="userSpaceOnUse" /><radialGradient
       inkscape:collect="always"
       xlink:href="#linearGradient825"
       id="radialGradient2352"
       cx="244.48337"
       cy="915.24231"
       fx="244.48337"
       fy="915.24231"
       r="154.85106"
       gradientTransform="scale(1.5802723,0.6328023)"
       gradientUnits="userSpaceOnUse" /><radialGradient
       inkscape:collect="always"
       xlink:href="#linearGradient825"
       id="radialGradient2354"
       cx="105.18739"
       cy="1145.3701"
       fx="105.18739"
       fy="1145.3701"
       r="44.134876"
       gradientTransform="scale(2.3531015,0.424971)"
       gradientUnits="userSpaceOnUse" /><radialGradient
       inkscape:collect="always"
       xlink:href="#linearGradient825"
       id="radialGradient2356"
       cx="121.06353"
       cy="1157.0901"
       fx="121.06353"
       fy="1157.0901"
       r="54.328083"
       gradientTransform="scale(2.5512675,0.391962)"
       gradientUnits="userSpaceOnUse" /><radialGradient
       inkscape:collect="always"
       xlink:href="#linearGradient825"
       id="radialGradient2358"
       cx="296.36359"
       cy="683.57147"
       fx="296.36359"
       fy="683.57147"
       r="43.278053"
       gradientTransform="scale(1.261335,0.7928108)"
       gradientUnits="userSpaceOnUse" /><radialGradient
       inkscape:collect="always"
       xlink:href="#linearGradient616"
       id="radialGradient2360"
       spreadMethod="pad"
       cx="282.40872"
       cy="929.35553"
       fx="282.40872"
       fy="929.35553"
       r="49.379955"
       gradientTransform="scale(1.4138056,0.7073108)"
       gradientUnits="userSpaceOnUse" /><linearGradient
       inkscape:collect="always"
       xlink:href="#linearGradient755"
       id="linearGradient2362"
       spreadMethod="reflect"
       x1="82.170937"
       y1="664.48535"
       x2="82.471199"
       y2="704.17383"
       gradientTransform="scale(1.6880719,0.5923918)"
       gradientUnits="userSpaceOnUse" /><linearGradient
       inkscape:collect="always"
       xlink:href="#linearGradient755"
       id="linearGradient2364"
       spreadMethod="reflect"
       x1="268.30682"
       y1="372.68872"
       x2="266.76575"
       y2="379.06595"
       gradientTransform="scale(0.9079967,1.1013256)"
       gradientUnits="userSpaceOnUse" /><radialGradient
       inkscape:collect="always"
       xlink:href="#linearGradient611"
       id="radialGradient2366"
       cx="166.32921"
       cy="290.09601"
       fx="166.32921"
       fy="290.09601"
       r="10.181284"
       gradientTransform="scale(0.6948075,1.4392476)"
       gradientUnits="userSpaceOnUse" /><linearGradient
       inkscape:collect="always"
       xlink:href="#linearGradient755"
       id="linearGradient2368"
       spreadMethod="repeat"
       x1="73.393585"
       y1="658.5506"
       x2="80.472069"
       y2="660.59143"
       gradientTransform="scale(1.687309,0.5926597)"
       gradientUnits="userSpaceOnUse" /><linearGradient
       inkscape:collect="always"
       xlink:href="#linearGradient755"
       id="linearGradient2370"
       gradientTransform="scale(0.7874417,1.2699353)"
       spreadMethod="reflect"
       x1="223.47304"
       y1="345.61493"
       x2="232.68439"
       y2="346.22394"
       gradientUnits="userSpaceOnUse" /><radialGradient
       inkscape:collect="always"
       xlink:href="#linearGradient755"
       id="radialGradient2372"
       gradientTransform="scale(0.4794138,2.0858806)"
       cx="265.53275"
       cy="200.60283"
       fx="265.53275"
       fy="200.60283"
       r="8.2388058"
       gradientUnits="userSpaceOnUse" /><linearGradient
       inkscape:collect="always"
       xlink:href="#linearGradient755"
       id="linearGradient2374"
       spreadMethod="reflect"
       x1="116.21538"
       y1="506.83673"
       x2="121.52427"
       y2="502.77359"
       gradientTransform="scale(1.1399771,0.8772106)"
       gradientUnits="userSpaceOnUse" /></defs><sodipodi:namedview
     id="base"
     inkscape:zoom="0.36014217"
     inkscape:cx="372.04724"
     inkscape:cy="526.18109"
     inkscape:window-width="822"
     inkscape:window-height="592"
     inkscape:window-x="6"
     inkscape:window-y="50"
     inkscape:current-layer="svg602" /><g
     id="g2255"
     transform="matrix(0.8,0,0,0.8,51.217078,-252.04956)"><rect
       y="315.06195"
       x="-64.021347"
       height="649.99994"
       width="999.99994"
       id="rect605"
       style="font-size:12px;fill:#00a2af;fill-opacity:1;fill-rule:evenodd;stroke-width:1" /><path
       transform="matrix(0.713434,0,0,0.593331,125.3458,203.484)"
       sodipodi:nodetypes="csscsssscscsscsscscsc"
       id="path712"
       d="M 387.4215,720.4553 C 387.4215,786.6677 363.6111,847.7817 336.4651,891.1726 C 322.8921,912.8681 495.3112,876.0645 398.7659,958.939 C 319.5057,1026.137 260.4656,934.4908 239.7539,934.4908 C 219.0421,934.4908 232.0715,1049.464 70.21154,965.9592 C 50.98882,955.9698 188.2098,899.1802 179.3134,887.6625 C 148.2813,844.802 100.2764,791.3478 94.42626,721.6254 C 91.10967,688.6859 106.4463,657.0067 121.0925,624.9226 C 124.4828,616.202 133.9234,602.1516 139.0282,602.1288 C 138.3514,597.9102 139.4148,593.7296 141.5988,590.1799 C 143.7828,586.6302 147.6781,582.5305 150.3026,582.6077 C 148.6088,579.9686 151.3278,572.1745 153.1534,568.7965 C 154.979,565.4185 165.6633,548.2159 167.3677,542.0492 C 180.3399,494.5242 195.3997,475.9546 227.9645,475.9546 C 269.388,475.9546 283.2667,500.4301 303.3257,543.821 C 306.2627,549.5048 319.4599,566.3026 321.5833,569.5611 C 323.7067,572.8196 326.4941,578.5031 324.6063,581.2921 C 328.6244,581.7187 330.761,581.122 332.6681,586.921 C 335.1591,590.9041 350.6207,606.26 337.3011,605.7954 C 342.3529,606.666 344.2098,607.864 344.8317,609.1787 C 358.1489,641.7628 387.4215,687.3492 387.4215,720.4553 z "
       style="font-size:12px;fill:url(#radialGradient2306);fill-rule:evenodd" /><path
       transform="matrix(0.713434,0,0,0.593331,125.3458,203.484)"
       sodipodi:nodetypes="csccccc"
       id="path715"
       d="M 324.5248,580.9302 C 285.5464,588.348 275.9995,602.7156 223.9944,603.1776 C 184.7729,604.1166 179.2632,589.346 150.3031,582.259 C 148.3405,577.3867 155.3231,561.0694 159.7524,560.998 C 186.9192,574.51 203.4123,591.1177 224.1258,591.1177 C 245.4084,591.1177 283.2794,571.4631 313.9105,561.931 C 318.8562,564.0436 326.8871,576.4651 324.5248,580.9302 z "
       style="font-size:12px;fill:url(#radialGradient2308);fill-rule:evenodd" /><path
       transform="matrix(0.713434,0,0,0.593331,125.3458,203.484)"
       sodipodi:nodetypes="csccccc"
       id="path717"
       d="M 333.3583,594.5861 C 289.5124,602.0038 283.4702,621.6143 224.9709,622.0762 C 180.8516,623.0153 171.701,608.8353 139.1245,601.7483 C 136.9168,596.876 145.3619,581.1492 150.935,582.259 C 181.4942,595.771 201.8186,603.52 225.1187,603.52 C 249.0591,603.52 290.478,590.9523 324.9342,581.4202 C 330.4975,583.5328 336.0156,590.121 333.3583,594.5861 z "
       style="font-size:12px;fill:url(#radialGradient2310);fill-rule:evenodd" /><path
       transform="matrix(0.713434,0,0,0.593331,125.3458,203.484)"
       sodipodi:nodetypes="csccccc"
       id="path718"
       d="M 341.617,605.2945 C 292.8006,612.7123 288.4491,642.8752 223.3182,643.3372 C 174.1973,644.2762 160.6401,627.7339 124.3707,620.6469 C 121.9128,615.7745 133.1804,602.4102 138.7276,602.3388 C 172.7512,615.8508 200.4941,624.7809 226.4356,624.7809 C 253.0899,624.7809 295.2264,601.6775 333.5886,592.1454 C 339.7826,594.2581 344.5755,600.8294 341.617,605.2945 z "
       style="font-size:12px;fill:url(#radialGradient2312);fill-rule:evenodd" /><g
       style="font-size:12px"
       transform="matrix(0.409515,-7.501128e-2,0.112982,0.426618,200.827,372.6231)"
       id="g762"><path
         sodipodi:nodetypes="csccccc"
         id="path729"
         d="M 222.8887,433.7143 C 197.4407,430.1793 169.534,433.4217 127.5322,439.2718 C 106.6604,441.5974 90.84431,444.0732 81.28036,442.8285 C 76.49839,442.2061 73.38086,440.5998 71.77308,437.687 C 94.25214,444.6657 100.6009,436.1901 72.54124,424.0616 C 89.08781,403.9124 98.76747,390.1311 127.5322,390.1311 C 150.8137,390.1311 184.5705,400.1014 222.8887,433.7143 z "
         style="font-size:12px;fill:url(#linearGradient2314);fill-rule:evenodd;stroke-width:1" /><path
         sodipodi:nodetypes="ccccccc"
         id="path731"
         d="M 230.9704,435.9243 C 226.3629,452.081 249.6763,474.1089 230.5097,468.643 C 211.3431,463.1771 200.4059,448.0971 205.0134,431.9404 C 213.6532,432.0462 215.9609,431.8711 221.8999,433.0772 C 215.307,427.3605 213.7166,426.3406 208.509,422.3192 C 210.4544,414.0024 237.6116,407.4016 247.1949,410.1345 C 266.3614,415.6003 235.5779,419.7678 230.9704,435.9243 z "
         style="font-size:12px;fill:url(#linearGradient2316);fill-rule:evenodd;stroke-width:1" /><path
         sodipodi:ry="8.482666"
         sodipodi:rx="4.0950699"
         sodipodi:cy="417.91852"
         sodipodi:cx="115.83204"
         d="M 119.92711 417.91852 A 4.0950699 8.482666 0 1 1  111.73697,417.91852 A 4.0950699 8.482666 0 1 1  119.92711 417.91852 z"
         id="path733"
         style="fill:url(#radialGradient2318);fill-opacity:1;fill-rule:evenodd;stroke:none;stroke-width:1pt;stroke-linecap:butt;stroke-linejoin:miter;stroke-opacity:1"
         sodipodi:type="arc" /><path
         sodipodi:nodetypes="ccccc"
         id="path737"
         d="M 163.8029,392.1781 C 160.8779,399.0194 159.3684,396.5656 154.1503,395.3955 C 140.1569,392.4706 125.7772,393.1693 118.172,392.1781 C 118.172,389.4318 125.5316,383.6954 134.2599,380.7704 C 147.6682,380.7704 163.8029,389.4318 163.8029,392.1781 z "
         style="font-size:12px;fill:url(#linearGradient2320);fill-rule:evenodd;stroke-width:1" /><path
         sodipodi:nodetypes="cccsc"
         id="path738"
         d="M 185.4483,440.1489 C 185.4483,445.803 182.6981,450.3866 179.3057,450.3866 C 175.9132,450.3866 173.1631,445.803 173.1631,440.1489 C 173.1631,434.4948 174.95,429.247 178.6415,430.8745 C 181.5045,432.6941 185.4483,434.4948 185.4483,440.1489 z "
         style="font-size:12px;fill:url(#linearGradient2322);fill-rule:evenodd;stroke-width:1"
         transform="matrix(0.823214,-0.567732,0.567732,0.823214,-216.4326,176.6848)" /><path
         transform="matrix(1.314235,8.969686e-2,-0.11836,0.995969,5.893703,-8.555023)"
         sodipodi:nodetypes="ccccc"
         id="path740"
         d="M 133.3823,416.456 C 133.3823,424.5333 129.4402,430.4963 127.5323,432.8363 C 125.9168,432.8363 131.0423,424.5333 131.0423,416.456 C 131.0423,408.3787 125.3318,403.5857 126.9473,403.5857 C 130.6102,404.1707 133.3823,408.3787 133.3823,416.456 z "
         style="font-size:12px;fill:url(#radialGradient2324);fill-rule:evenodd" /><path
         sodipodi:nodetypes="cccsc"
         id="path751"
         d="M 141.9884,438.7913 C 146.9253,443.1734 148.5897,447.7658 146.0665,450.8525 C 143.5433,453.9394 137.4956,452.8891 132.5587,448.5069 C 127.6217,444.1248 123.081,436.0667 128.5352,436.3341 C 134.4155,436.6387 137.6365,437.0417 141.9884,438.7913 z "
         style="font-size:12px;fill:url(#linearGradient2326);fill-rule:evenodd;stroke-width:1" /><path
         sodipodi:nodetypes="ccccc"
         id="path754"
         d="M 91.26164,437.5162 C 89.50661,442.201 81.17732,440.7337 72.39505,437.8087 C 72.09541,434.8836 79.26892,437.8134 79.26892,433.1287 C 79.26892,430.7838 74.43546,428.741 72.98006,423.7684 C 84.39487,429.6185 92.43167,435.1714 91.26164,437.5162 z "
         style="font-size:12px;fill:#ab8080;fill-opacity:1;fill-rule:evenodd;stroke-width:1" /></g><g
       style="font-size:12px"
       transform="matrix(0.175903,0,0,0.127121,216.9315,437.8923)"
       id="g687"><path
         sodipodi:nodetypes="cccc"
         id="path630"
         d="M 464.3757,786.7656 C 491.1023,917.419 457.0937,1085.771 474.3982,1102.475 C 498.3844,1125.861 537.874,889.0217 551.2373,761.7094 C 526.181,786.4068 487.7614,798.0992 464.3757,786.7656 z "
         style="font-size:12px;fill:url(#linearGradient2328);fill-rule:evenodd;stroke-width:1" /><path
         sodipodi:nodetypes="cccc"
         id="path626"
         d="M 350.7874,786.7656 C 324.0608,917.4186 358.0694,1085.771 340.7649,1102.475 C 316.7787,1125.861 275.6187,885.6805 262.2554,758.3685 C 290.6525,789.7473 322.3904,796.4284 350.7874,786.7656 z "
         style="font-size:12px;fill:url(#linearGradient2330);fill-rule:evenodd" /></g><g
       style="font-size:12px"
       transform="matrix(0.138668,0,0,0.110454,230.5151,450.8075)"
       id="g645"><path
         sodipodi:ry="75.168732"
         sodipodi:rx="65.14624"
         sodipodi:cy="559.58936"
         sodipodi:cx="319.0495"
         d="M 384.19574 559.58936 A 65.14624 75.168732 0 1 1  253.90326,559.58936 A 65.14624 75.168732 0 1 1  384.19574 559.58936 z"
         id="path608"
         style="fill:#f8f8f8;fill-opacity:1;fill-rule:evenodd;stroke:none;stroke-width:1pt;stroke-linecap:butt;stroke-linejoin:miter;stroke-opacity:1"
         sodipodi:type="arc" /><path
         transform="translate(183.7458,-3.051758e-5)"
         sodipodi:ry="75.168732"
         sodipodi:rx="65.14624"
         sodipodi:cy="559.58936"
         sodipodi:cx="319.0495"
         d="M 384.19574 559.58936 A 65.14624 75.168732 0 1 1  253.90326,559.58936 A 65.14624 75.168732 0 1 1  384.19574 559.58936 z"
         id="path610"
         style="fill:#f8f8f8;fill-opacity:1;fill-rule:evenodd;stroke:none;stroke-width:1pt;stroke-linecap:butt;stroke-linejoin:miter;stroke-opacity:1"
         sodipodi:type="arc" /><path
         transform="matrix(1.181818,0,0,1.190476,-66.81661,-120.9065)"
         sodipodi:ry="35.078735"
         sodipodi:rx="36.749161"
         sodipodi:cy="599.67938"
         sodipodi:cx="330.74243"
         d="M 367.49159 599.67938 A 36.749161 35.078735 0 1 1  293.99327,599.67938 A 36.749161 35.078735 0 1 1  367.49159 599.67938 z"
         id="path619"
         style="fill:url(#radialGradient2332);fill-opacity:1;fill-rule:evenodd;stroke:none;stroke-width:1pt;stroke-linecap:butt;stroke-linejoin:miter;stroke-opacity:1"
         sodipodi:type="arc" /><path
         transform="matrix(1.181818,0,0,1.190476,113.5883,-120.9065)"
         sodipodi:ry="35.078735"
         sodipodi:rx="36.749161"
         sodipodi:cy="599.67938"
         sodipodi:cx="330.74243"
         d="M 367.49159 599.67938 A 36.749161 35.078735 0 1 1  293.99327,599.67938 A 36.749161 35.078735 0 1 1  367.49159 599.67938 z"
         id="path624"
         style="fill:url(#radialGradient2334);fill-opacity:1;fill-rule:evenodd;stroke:none;stroke-width:1pt;stroke-linecap:butt;stroke-linejoin:miter;stroke-opacity:1"
         sodipodi:type="arc" /></g><path
       transform="matrix(0.175903,0,0,0.127121,216.9315,437.8923)"
       sodipodi:nodetypes="ccsss"
       id="path607"
       d="M 584.6457,709.9269 C 584.6457,777.2727 431.076,845.2307 404.2407,731.6423 C 374.0646,845.2307 233.8583,777.2727 233.8583,709.9269 C 233.8583,642.5811 327.305,630.0856 400.8999,631.4173 C 481.0785,632.9286 584.6457,642.5811 584.6457,709.9269 z "
       style="font-size:12px;fill:url(#radialGradient2336);fill-rule:evenodd" /><path
       transform="matrix(0.713434,0,0,0.593331,125.3458,203.484)"
       sodipodi:nodetypes="cccsc"
       id="path772"
       d="M 449.7839,672.4411 C 426.6187,679.3839 417.6583,665.8223 365.3962,679.0596 C 359.4646,649.2758 324.7982,629.5777 338.9215,602.9453 C 356.3543,604.6771 396.5448,603.5614 424.7632,623.2026 C 441.708,634.3438 449.7839,634.0595 449.7839,672.4411 z "
       style="font-size:12px;fill:url(#linearGradient2338);fill-rule:evenodd" /><path
       transform="matrix(0.713434,0,0,0.593331,125.3458,203.484)"
       sodipodi:nodetypes="ccccc"
       id="path1031"
       d="M 159.1239,748.7398 C 159.1239,804.6351 110.0017,798.4661 91.26218,798.4661 C 72.52279,798.4661 92.43224,677.102 120.5129,625.8868 C 125.193,612.1124 127.5141,658.0626 146.2535,658.0626 C 164.993,658.0626 159.1239,692.8445 159.1239,748.7398 z "
       style="font-size:12px;fill:url(#linearGradient2340);fill-rule:evenodd" /><path
       sodipodi:nodetypes="cccccccccccccccccccccccccccccc"
       id="path963"
       d="M 262.2182,534.5087 C 261.3666,535.8837 260.8535,537.7106 261.3323,539.4421 M 263.3994,535.1604 C 262.4956,536.431 262.1481,537.7882 262.5135,539.885 M 264.5194,535.8464 C 263.459,536.9604 263.4769,538.944 263.8423,540.6232 M 265.6051,536.3326 C 264.5447,537.4465 264.7192,539.7434 264.9802,541.2138 M 266.6908,536.8799 C 265.8392,538.3071 265.7005,539.9252 266.0137,541.6045 M 267.872,537.375 C 267.0204,538.8022 266.9339,540.5248 267.0905,542.0996 M 269.1486,537.7658 C 268.4536,539.2453 268.1061,541.02 268.4193,542.5426 M 270.4252,538.1133 C 269.8346,539.5405 269.4349,541.2631 269.7481,542.8379 M 271.8062,538.4086 C 271.2156,539.8358 270.8681,541.6106 271.1813,543.1332 M 273.1873,538.5562 C 272.5967,539.9834 272.3014,541.706 272.5102,543.2808 M 274.516,538.7039 C 273.9254,540.1311 273.8911,541.8015 273.8911,543.3763 M 275.9925,538.7039 C 275.4019,540.1311 275.3676,541.8537 275.3676,543.4285 M 277.469,538.5562 C 276.8784,539.9834 276.8963,541.6537 276.8963,543.2286 M 278.9454,538.4086 C 278.4592,539.888 278.2683,541.5583 278.4249,543.0288 M 280.222,538.1743 C 279.788,539.758 279.6493,541.2197 279.6493,542.7945"
       style="font-size:12px;fill:none;fill-rule:evenodd;stroke:#000000;stroke-width:0.25;stroke-linecap:round" /><path
       sodipodi:nodetypes="cccccccccccccccccccccccccccccc"
       id="path964"
       d="M 314.8576,534.5087 C 315.7092,535.8837 316.2223,537.7106 315.7435,539.4421 M 313.6764,535.1604 C 314.5802,536.431 314.9277,537.7882 314.5623,539.885 M 312.5564,535.8464 C 313.6168,536.9604 313.5989,538.944 313.2335,540.6232 M 311.4707,536.3326 C 312.5311,537.4465 312.3566,539.7434 312.0956,541.2138 M 310.385,536.8799 C 311.2366,538.3071 311.3753,539.9252 311.0621,541.6045 M 309.2038,537.375 C 310.0554,538.8022 310.1419,540.5248 309.9853,542.0996 M 307.9272,537.7658 C 308.6222,539.2453 308.9697,541.02 308.6565,542.5426 M 306.6506,538.1133 C 307.2412,539.5405 307.6409,541.2631 307.3277,542.8379 M 305.2696,538.4086 C 305.8602,539.8358 306.2077,541.6106 305.8945,543.1332 M 303.8885,538.5562 C 304.4791,539.9834 304.7744,541.706 304.5656,543.2808 M 302.5598,538.7039 C 303.1504,540.1311 303.1847,541.8015 303.1847,543.3763 M 301.0833,538.7039 C 301.6739,540.1311 301.7082,541.8537 301.7082,543.4285 M 299.6068,538.5562 C 300.1974,539.9834 300.1795,541.6537 300.1795,543.2286 M 298.1304,538.4086 C 298.6166,539.888 298.8075,541.5583 298.6509,543.0288 M 296.8538,538.1743 C 297.2878,539.758 297.4265,541.2197 297.4265,542.7945"
       style="font-size:12px;fill:none;fill-rule:evenodd;stroke:#000000;stroke-width:0.25;stroke-linecap:round" /><path
       sodipodi:nodetypes="ccccc"
       id="path966"
       d="M 296.291,529.4159 C 296.291,530.0501 294.9355,530.5643 293.2634,530.5643 C 291.5912,530.5643 289.6093,531.5118 289.6093,530.8775 C 289.6093,530.2432 291.5912,528.2675 293.2634,528.2675 C 294.9355,528.2675 296.291,528.7816 296.291,529.4159 z "
       style="font-size:12px;fill:url(#radialGradient2342);fill-rule:evenodd;stroke-width:1" /><path
       sodipodi:nodetypes="ccccc"
       id="path967"
       d="M 281.466,529.2071 C 281.466,529.8413 282.8215,530.3555 284.4936,530.3555 C 286.1658,530.3555 288.1477,531.303 288.1477,530.6687 C 288.1477,530.0344 286.1658,528.0587 284.4936,528.0587 C 282.8215,528.0587 281.466,528.5728 281.466,529.2071 z "
       style="font-size:12px;fill:url(#radialGradient2344);fill-rule:evenodd;stroke-width:1" /><path
       id="path1107"
       d="M 268.2396,531.5658 C 266.3779,530.8655 263.7397,530.8874 262.4299,531.2455 M 267.7386,529.7873 C 265.464,529.0142 263.0782,528.6638 261.3046,529.1445 M 267.8299,527.9238 C 266.3707,527.2201 263.4031,526.9314 261.6174,526.7517 M 269.1183,526.6418 C 268.0161,525.9544 265.4484,525.2588 263.7446,525.099 M 309.4856,531.5765 C 311.3473,530.8762 313.9855,530.8981 315.2953,531.2562 M 309.9866,529.798 C 312.2612,529.0249 314.647,528.6745 316.4206,529.1552 M 309.8953,527.9345 C 311.3545,527.2308 314.3221,526.9421 316.1078,526.7624 M 308.6069,526.6525 C 309.7091,525.9651 312.2768,525.2695 313.9806,525.1097"
       style="font-size:12px;fill:none;fill-rule:evenodd;stroke:#000000;stroke-width:0.25;stroke-linecap:round" /><g
       id="g2128"><path
         transform="matrix(0.713434,0,0,0.593331,120.3374,197.2361)"
         sodipodi:nodetypes="cssscscccsccc"
         id="path886"
         d="M 388.7641,704.8819 C 407.6767,751.9317 374.8046,854.6776 343.3891,901.394 C 332.3953,919.4821 429.8715,898.8804 434.3741,928.7264 C 439.9972,958.2446 366.9651,999.9767 342.4623,994.7401 C 288.4999,982.6292 290.4247,968.8161 246.8296,942.2483 C 231.1388,949.2684 236.0263,1006.876 179.9552,1007.286 C 117.1829,1007.726 103.3487,993.481 74.25262,973.8591 C 69.93459,966.7465 160.9113,923.4714 189.4605,900.478 C 173.3144,879.0361 141.0247,840.1236 126.0264,808.5141 C 117.1148,808.8894 99.12079,812.0603 93.59251,806.64 C 85.12092,796.541 98.51165,740.4074 99.68168,718.119 C 100.8173,732.966 107.2056,774.3779 251.5098,774.3779 C 396.0148,769.8984 390.4045,710.9706 388.7641,704.8819 z "
         style="font-size:12px;fill:url(#linearGradient2346);fill-rule:evenodd" /><path
         transform="matrix(-0.713434,0,0,0.593331,611.6303,331.6187)"
         sodipodi:nodetypes="ccscccssssccssssc"
         id="path808"
         d="M 133.2453,533.6385 C 138.8134,568.1605 136.62,562.4739 135.5063,583.6324 C 143.8585,590.3141 143.865,593.3442 163.2955,594.7347 L 226.5984,599.2646 L 299.3505,619.1496 L 369.7403,623.6796 L 427.1373,632.9342 C 448.5424,636.3855 470.3832,634.1955 487.475,620.8114 C 500.1921,610.1138 503.4938,606.6953 516.2652,599.6063 C 529.5743,590.9878 538.2146,563.0274 548.5987,550.0532 C 550.5906,547.5643 552.338,539.1032 553.0265,527.7227 L 547.6938,500.349 C 556.013,512.5615 547.6618,509.0265 542.7051,515.4023 L 486.9264,587.1513 C 476.8439,600.1205 449.7536,602.7728 442.7964,601.5524 L 151.1727,550.402 C 141.0158,548.6205 138.1297,543.0285 133.2453,533.6385 z "
         style="font-size:12px;fill:url(#linearGradient2348);fill-rule:evenodd" /><g
         transform="matrix(-0.713434,0,0,0.593331,874.4999,260.3332)"
         style="font-size:12px;fill:url(#radialGradient2350)"
         id="g828"><path
           sodipodi:nodetypes="cssssssssssssssss"
           id="path617"
           d="M 623.051,558.1809 C 623.051,573.7489 616.0319,578.171 612.6755,590.2211 C 609.319,602.2711 595.4513,608.9563 586.4786,617.2391 C 577.506,625.5219 570.7744,641.4504 556.5798,651.4798 C 532.6442,667.5575 544.3651,667.3906 500.8444,665.0282 C 473.9018,663.525 431.4688,654.7123 400.1878,657.1642 C 367.673,658.4849 315.6633,633.4947 304.7713,629.0507 C 275.7293,620.3509 249.8077,630.0337 228.4119,628.2397 C 207.0797,627.6321 195.5574,620.9954 195.5574,605.4274 C 195.5574,589.8594 212.2473,566.1697 218.3167,555.3008 C 224.3861,544.4319 238.7337,527.4853 248.2231,520.679 C 257.7125,513.8726 252.8945,504.2139 263.1544,500.8336 C 273.4145,497.4534 283.3815,495.1768 291.7785,495.0366 C 318.7469,494.5862 340.7786,498.7822 376.3413,500.0585 C 411.9038,501.3347 456.2887,520.2214 490.2135,524.5178 C 524.1383,528.8141 554.6901,527.9695 576.7606,537.0297 C 598.8312,546.09 623.051,542.6129 623.051,558.1809 z "
           style="font-size:12px;fill:url(#radialGradient2352);fill-rule:evenodd"
           transform="translate(299.3822,60.66899)" /><path
           transform="translate(368.4568,120.1445)"
           sodipodi:nodetypes="csccc"
           id="path622"
           d="M 259.8558,470.6394 C 260.1511,475.4503 361.5308,493.4897 346.4411,501.3292 C 334.6855,506.1399 237.1858,496.0345 220.8773,493.6722 C 188.2604,493.6722 187.8048,508.782 166.5439,501.3496 C 173.6309,490.3738 209.0658,490.3737 259.8558,470.6394 z "
           style="font-size:12px;fill:url(#radialGradient2354);fill-opacity:0.38670002;fill-rule:evenodd" /><path
           transform="translate(368.4568,120.1445)"
           sodipodi:nodetypes="ccccc"
           id="path812"
           d="M 442.9361,470.6393 C 413.407,474.4396 399.5725,473.5922 330.7256,454.6936 C 277.2339,454.6936 200.7976,453.1786 200.7976,441.1102 C 200.7976,429.0421 251.2483,439.3385 304.74,439.3385 C 351.1446,446.4255 405.1389,463.2958 442.9361,470.6393 z "
           style="font-size:12px;fill:url(#radialGradient2356);fill-rule:evenodd" /><path
           transform="translate(368.4568,120.1445)"
           sodipodi:nodetypes="ccccc"
           id="path649"
           d="M 414.393,546.905 C 409.6119,548.9971 397.8191,599.6645 340.0392,552.1516 C 348.9812,541.4106 327.1653,516.7407 331.9463,514.6487 C 373.2278,507.9403 409.6175,518.1041 422.3048,526.6822 C 433.811,552.9779 419.174,544.813 414.393,546.905 z "
           style="font-size:12px;fill:url(#radialGradient2358);fill-rule:evenodd" /></g><path
         transform="matrix(0.713434,0,0,0.593331,127.0736,202.0195)"
         sodipodi:nodetypes="ccccc"
         id="path779"
         d="M 449.2886,674.4449 C 449.2886,689.9534 425.3144,683.805 394.2975,683.805 C 363.2806,683.805 336.9664,689.9534 336.9664,674.4449 C 336.9664,658.9365 385.511,628.814 416.528,628.814 C 447.5449,628.814 449.2886,658.9365 449.2886,674.4449 z "
         style="font-size:12px;fill:url(#radialGradient2360);fill-rule:evenodd" /><g
         style="font-size:12px"
         transform="matrix(-0.385772,-0.136701,0.205899,-0.401883,253.6324,833.1837)"
         id="g851"><path
           sodipodi:nodetypes="csccccc"
           id="path852"
           d="M 222.8887,433.7143 C 197.4407,430.1793 169.534,433.4217 127.5322,439.2718 C 106.6604,441.5974 90.84431,444.0732 81.28036,442.8285 C 76.49839,442.2061 73.38086,440.5998 71.77308,437.687 C 94.25214,444.6657 100.6009,436.1901 72.54124,424.0616 C 89.08781,403.9124 98.76747,390.1311 127.5322,390.1311 C 150.8137,390.1311 184.5705,400.1014 222.8887,433.7143 z "
           style="font-size:12px;fill:url(#linearGradient2362);fill-rule:evenodd;stroke-width:1" /><path
           sodipodi:nodetypes="ccccccc"
           id="path853"
           d="M 230.9704,435.9243 C 226.3629,452.081 249.6763,474.1089 230.5097,468.643 C 211.3431,463.1771 200.4059,448.0971 205.0134,431.9404 C 213.6532,432.0462 215.9609,431.8711 221.8999,433.0772 C 215.307,427.3605 213.7166,426.3406 208.509,422.3192 C 210.4544,414.0024 237.6116,407.4016 247.1949,410.1345 C 266.3614,415.6003 235.5779,419.7678 230.9704,435.9243 z "
           style="font-size:12px;fill:url(#linearGradient2364);fill-rule:evenodd;stroke-width:1" /><path
           sodipodi:ry="8.482666"
           sodipodi:rx="4.0950699"
           sodipodi:cy="417.91852"
           sodipodi:cx="115.83204"
           d="M 119.92711 417.91852 A 4.0950699 8.482666 0 1 1  111.73697,417.91852 A 4.0950699 8.482666 0 1 1  119.92711 417.91852 z"
           id="path854"
           style="fill:url(#radialGradient2366);fill-opacity:1;fill-rule:evenodd;stroke:none;stroke-width:1pt;stroke-linecap:butt;stroke-linejoin:miter;stroke-opacity:1"
           sodipodi:type="arc" /><path
           sodipodi:nodetypes="ccccc"
           id="path855"
           d="M 163.8029,392.1781 C 160.8779,399.0194 159.3684,396.5656 154.1503,395.3955 C 140.1569,392.4706 125.7772,393.1693 118.172,392.1781 C 118.172,389.4318 125.5316,383.6954 134.2599,380.7704 C 147.6682,380.7704 163.8029,389.4318 163.8029,392.1781 z "
           style="font-size:12px;fill:url(#linearGradient2368);fill-rule:evenodd;stroke-width:1" /><path
           sodipodi:nodetypes="cccsc"
           id="path856"
           d="M 185.4483,440.1489 C 185.4483,445.803 182.6981,450.3866 179.3057,450.3866 C 175.9132,450.3866 173.1631,445.803 173.1631,440.1489 C 173.1631,434.4948 174.95,429.247 178.6415,430.8745 C 181.5045,432.6941 185.4483,434.4948 185.4483,440.1489 z "
           style="font-size:12px;fill:url(#linearGradient2370);fill-rule:evenodd;stroke-width:1"
           transform="matrix(0.823214,-0.567732,0.567732,0.823214,-216.4326,176.6848)" /><path
           transform="matrix(1.314235,8.969686e-2,-0.11836,0.995969,5.893703,-8.555023)"
           sodipodi:nodetypes="ccccc"
           id="path857"
           d="M 133.3823,416.456 C 133.3823,424.5333 129.4402,430.4963 127.5323,432.8363 C 125.9168,432.8363 131.0423,424.5333 131.0423,416.456 C 131.0423,408.3787 125.3318,403.5857 126.9473,403.5857 C 130.6102,404.1707 133.3823,408.3787 133.3823,416.456 z "
           style="font-size:12px;fill:url(#radialGradient2372);fill-rule:evenodd" /><path
           sodipodi:nodetypes="cccsc"
           id="path858"
           d="M 141.9884,438.7913 C 146.9253,443.1734 148.5897,447.7658 146.0665,450.8525 C 143.5433,453.9394 137.4956,452.8891 132.5587,448.5069 C 127.6217,444.1248 123.081,436.0667 128.5352,436.3341 C 134.4155,436.6387 137.6365,437.0417 141.9884,438.7913 z "
           style="font-size:12px;fill:url(#linearGradient2374);fill-rule:evenodd;stroke-width:1" /><path
           sodipodi:nodetypes="ccccc"
           id="path859"
           d="M 91.26164,437.5162 C 89.50661,442.201 81.17732,440.7337 72.39505,437.8087 C 72.09541,434.8836 79.26892,437.8134 79.26892,433.1287 C 79.26892,430.7838 74.43546,428.741 72.98006,423.7684 C 84.39487,429.6185 92.43167,435.1714 91.26164,437.5162 z "
           style="font-size:12px;fill:#ab8080;fill-opacity:1;fill-rule:evenodd;stroke-width:1" /></g><path
         transform="matrix(0.713434,0,0,0.593331,125.3458,203.484)"
         sodipodi:nodetypes="csccssccssccscc"
         id="path884"
         d="M 504.2853,691.1394 C 519.3566,699.2733 628.5553,782.853 596.532,813.5571 C 558.3663,850.5643 455.4443,833.0596 447.1709,850.7585 C 419.0416,893.4252 320.0323,882.5599 208.0866,882.5599 C 152.1137,882.5599 132.9668,800.9873 119.4574,768.6704 C 107.6396,739.8151 77.93191,744.9078 53.36142,733.2773 C 33.51672,723.4141 64.46631,700.1544 97.42412,683.9772 L 99.64657,676.7858 C 66.36749,684.5901 16.95131,726.0873 38.46942,739.0688 C 66.54999,754.8393 97.1543,752.4354 111.0751,782.9446 C 127.0343,816.5105 146.8036,899.1066 206.432,899.1066 C 328.9978,887.5239 420.6964,926.6675 458.7537,856.55 C 470.3364,837.366 575.3754,857.3215 605.5965,817.4032 C 636.079,776.726 518.9892,693.0808 499.4511,684.8463 L 504.2853,691.1394 z "
         style="font-size:12px;fill:#defff4;fill-opacity:0.75690002;fill-rule:evenodd" /></g></g></svg>