<?xml version="1.0" encoding="UTF-8" standalone="no"?>
<!-- Created with Sodipodi ("http://www.sodipodi.com/") -->

<svg
   xmlns:dc="http://purl.org/dc/elements/1.1/"
   xmlns:cc="http://creativecommons.org/ns#"
   xmlns:rdf="http://www.w3.org/1999/02/22-rdf-syntax-ns#"
   xmlns:svg="http://www.w3.org/2000/svg"
   xmlns="http://www.w3.org/2000/svg"
   xmlns:xlink="http://www.w3.org/1999/xlink"
   xmlns:sodipodi="http://sodipodi.sourceforge.net/DTD/sodipodi-0.dtd"
   xmlns:inkscape="http://www.inkscape.org/namespaces/inkscape"
   id="svg1729"
   sodipodi:version="0.32"
   width="799.99994"
   height="520.00037"
   xml:space="preserve"
   sodipodi:docname="narval.svgz"
   inkscape:version="0.47pre4 r22446"
   inkscape:output_extension="org.inkscape.output.svg.inkscape"
   sodipodi:modified="true"
   version="1.0"><metadata
     id="metadata68"><rdf:RDF><cc:Work
         rdf:about=""><dc:format>image/svg+xml</dc:format><dc:type
           rdf:resource="http://purl.org/dc/dcmitype/StillImage" /></cc:Work></rdf:RDF></metadata><defs
     id="defs1731"><inkscape:perspective
       sodipodi:type="inkscape:persp3d"
       inkscape:vp_x="0 : 260.00018 : 1"
       inkscape:vp_y="0 : 1000 : 0"
       inkscape:vp_z="799.99994 : 260.00018 : 1"
       inkscape:persp3d-origin="399.99997 : 173.33346 : 1"
       id="perspective90" /><linearGradient
       id="linearGradient2001"><stop
         style="stop-color:#6a5f05;stop-opacity:1;"
         offset="0"
         id="stop2002" /><stop
         style="stop-color:#ede3ff;stop-opacity:1;"
         offset="1"
         id="stop2003" /></linearGradient><linearGradient
       id="linearGradient1983"><stop
         style="stop-color:#4d3f00;stop-opacity:1;"
         offset="0"
         id="stop1984" /><stop
         style="stop-color:#bac5d2;stop-opacity:0;"
         offset="1"
         id="stop1985" /></linearGradient><linearGradient
       id="linearGradient1893"><stop
         style="stop-color:#00b7c5;stop-opacity:0.2471;"
         offset="0"
         id="stop1894" /><stop
         style="stop-color:#00a3b0;stop-opacity:0.7725;"
         offset="1"
         id="stop1895" /></linearGradient><linearGradient
       id="linearGradient1796"><stop
         style="stop-color:#ffffff;stop-opacity:1;"
         offset="0"
         id="stop1797" /><stop
         style="stop-color:#b0b0ab;stop-opacity:0;"
         offset="1"
         id="stop1798" /></linearGradient><linearGradient
       id="linearGradient1758"><stop
         style="stop-color:#ffffff;stop-opacity:1;"
         offset="0"
         id="stop1759" /><stop
         style="stop-color:#000000;stop-opacity:1;"
         offset="1"
         id="stop1760" /></linearGradient><linearGradient
       id="linearGradient1752"><stop
         style="stop-color:#87775a;stop-opacity:1;"
         offset="0"
         id="stop1753" /><stop
         style="stop-color:#fff7d5;stop-opacity:1;"
         offset="1"
         id="stop1754" /></linearGradient><linearGradient
       id="linearGradient1740"><stop
         style="stop-color:#87856d;stop-opacity:1;"
         offset="0"
         id="stop1741" /><stop
         style="stop-color:#bac5d2;stop-opacity:1;"
         offset="1"
         id="stop1742" /></linearGradient><linearGradient
       id="linearGradient1736"><stop
         style="stop-color:#000000;stop-opacity:1;"
         offset="0"
         id="stop1737" /><stop
         style="stop-color:#ffffff;stop-opacity:1;"
         offset="1"
         id="stop1738" /></linearGradient><linearGradient
       xlink:href="#linearGradient1740"
       id="linearGradient1739"
       x1="367.58081"
       y1="1471.8438"
       x2="362.41113"
       y2="754.23322"
       gradientTransform="scale(1.6848449,0.5935265)"
       gradientUnits="userSpaceOnUse" /><radialGradient
       xlink:href="#linearGradient1758"
       id="radialGradient1750"
       cx="238.90309"
       cy="734.55731"
       r="6.7875848"
       fx="238.90309"
       fy="734.55731"
       spreadMethod="pad"
       gradientTransform="scale(1.0801237,0.9258199)"
       gradientUnits="userSpaceOnUse" /><linearGradient
       xlink:href="#linearGradient1752"
       id="linearGradient1751"
       x1="0.92952663"
       y1="0.56254995"
       x2="0.82550341"
       y2="0.62500155"
       spreadMethod="reflect" /><linearGradient
       xlink:href="#linearGradient1740"
       id="linearGradient1755"
       x1="142.19553"
       y1="168.70644"
       x2="201.17097"
       y2="168.70644"
       gradientTransform="scale(1.333777,0.7497505)"
       gradientUnits="userSpaceOnUse" /><linearGradient
       xlink:href="#linearGradient1740"
       id="linearGradient1756"
       x1="384.02103"
       y1="106.48047"
       x2="725.68665"
       y2="107.35426"
       gradientTransform="scale(1.0726695,0.9322536)"
       gradientUnits="userSpaceOnUse" /><linearGradient
       xlink:href="#linearGradient1740"
       id="linearGradient1757"
       x1="141.94717"
       y1="-29.799664"
       x2="97.991142"
       y2="-30.863411"
       gradientTransform="scale(2.4340001,0.4108463)"
       gradientUnits="userSpaceOnUse" /><radialGradient
       xlink:href="#linearGradient1796"
       id="radialGradient1795"
       cx="136.14594"
       cy="681.19696"
       r="11.950172"
       fx="136.14594"
       fy="681.19696"
       gradientTransform="scale(1.2836379,0.7790359)"
       gradientUnits="userSpaceOnUse" /><linearGradient
       xlink:href="#linearGradient1893"
       id="linearGradient1892"
       x1="242.73816"
       y1="816.98975"
       x2="121.46583"
       y2="1233.2802"
       gradientTransform="matrix(1.2600985,0,0,-0.7935887,0.7402138,1052.3622)"
       gradientUnits="userSpaceOnUse" /><linearGradient
       xlink:href="#linearGradient1983"
       id="linearGradient1982"
       x1="88.951096"
       y1="-184.6066"
       x2="278.67465"
       y2="360.65692"
       gradientTransform="scale(2.0175169,0.4956588)"
       gradientUnits="userSpaceOnUse" /><linearGradient
       xlink:href="#linearGradient2001"
       id="linearGradient2000"
       x1="82.445717"
       y1="-59.090939"
       x2="262.41537"
       y2="-29.709515"
       gradientTransform="scale(2.017938,0.4955554)"
       gradientUnits="userSpaceOnUse" /><linearGradient
       xlink:href="#linearGradient1740"
       id="linearGradient2033"
       x1="0.0069877133"
       y1="0.03908179"
       x2="-0.21830994"
       y2="0.49218738" /><linearGradient
       xlink:href="#linearGradient1752"
       id="linearGradient2034"
       x1="121.59292"
       y1="435.76712"
       x2="117.66864"
       y2="438.26077"
       spreadMethod="reflect"
       gradientTransform="scale(0.9713494,1.0294956)"
       gradientUnits="userSpaceOnUse" /><linearGradient
       xlink:href="#linearGradient1740"
       id="linearGradient2042"
       x1="211.00336"
       y1="587.70325"
       x2="268.6582"
       y2="608.54053"
       gradientTransform="scale(0.8668569,1.1535929)"
       gradientUnits="userSpaceOnUse" /><linearGradient
       xlink:href="#linearGradient1740"
       id="linearGradient2044"
       x1="577.86798"
       y1="34.599609"
       x2="719.15131"
       y2="-130.28229"
       gradientTransform="scale(1.0511901,0.9513027)"
       gradientUnits="userSpaceOnUse" /><linearGradient
       inkscape:collect="always"
       xlink:href="#linearGradient1752"
       id="linearGradient2242"
       gradientUnits="userSpaceOnUse"
       gradientTransform="scale(0.9713494,1.0294956)"
       spreadMethod="reflect"
       x1="121.59292"
       y1="435.76712"
       x2="117.66864"
       y2="438.26077" /><radialGradient
       inkscape:collect="always"
       xlink:href="#linearGradient1758"
       id="radialGradient2250"
       gradientUnits="userSpaceOnUse"
       gradientTransform="scale(1.0801237,0.9258199)"
       spreadMethod="pad"
       cx="238.90309"
       cy="734.55731"
       fx="238.90309"
       fy="734.55731"
       r="6.7875848" /><linearGradient
       inkscape:collect="always"
       xlink:href="#linearGradient2001"
       id="linearGradient2261"
       gradientUnits="userSpaceOnUse"
       gradientTransform="scale(0.8668569,1.1535929)"
       x1="193.07133"
       y1="558.82855"
       x2="288.29803"
       y2="623.94037" /><linearGradient
       inkscape:collect="always"
       xlink:href="#linearGradient1740"
       id="linearGradient2300"
       gradientUnits="userSpaceOnUse"
       gradientTransform="matrix(0.8262362,-0.6718025,-0.1740603,-0.1942154,295.20727,836.47833)"
       x1="305.30508"
       y1="1581.9412"
       x2="300.69092"
       y2="941.44409" /><linearGradient
       inkscape:collect="always"
       xlink:href="#linearGradient1983"
       id="linearGradient2320"
       gradientUnits="userSpaceOnUse"
       gradientTransform="matrix(1.5943306,1.2363202,-0.3037362,0.3916914,-14.71808,465.95718)"
       x1="88.951096"
       y1="-184.6066"
       x2="278.67465"
       y2="360.65692" /><linearGradient
       inkscape:collect="always"
       xlink:href="#linearGradient2001"
       id="linearGradient2379"
       gradientUnits="userSpaceOnUse"
       gradientTransform="matrix(1.5946634,-1.2365783,-0.3036729,-0.3916097,-14.71808,585.68998)"
       x1="82.445717"
       y1="-59.090939"
       x2="262.41537"
       y2="-29.709515" /><linearGradient
       inkscape:collect="always"
       xlink:href="#linearGradient2001"
       id="linearGradient3403"
       x1="474.68741"
       y1="828.06885"
       x2="539.84375"
       y2="828.06885"
       gradientUnits="userSpaceOnUse" /><linearGradient
       inkscape:collect="always"
       xlink:href="#linearGradient1740"
       id="linearGradient3430"
       gradientUnits="userSpaceOnUse"
       gradientTransform="matrix(0.3881386,-0.2946987,7.2145283e-2,0.1823001,-64.613876,639.19487)"
       x1="367.58081"
       y1="1471.8438"
       x2="362.41113"
       y2="754.23322" /><linearGradient
       inkscape:collect="always"
       xlink:href="#linearGradient1740"
       id="linearGradient3432"
       gradientUnits="userSpaceOnUse"
       gradientTransform="matrix(0.5195904,-0.1929668,0.1281821,0.5908157,18.87944,754.7923)"
       x1="384.02103"
       y1="106.48047"
       x2="725.68665"
       y2="107.35426" /><linearGradient
       inkscape:collect="always"
       xlink:href="#linearGradient1740"
       id="linearGradient3434"
       gradientUnits="userSpaceOnUse"
       gradientTransform="matrix(1.1790053,-0.437862,5.6490134e-2,0.2603738,18.87944,754.7923)"
       x1="141.94717"
       y1="-29.799664"
       x2="97.991142"
       y2="-30.863411" /><linearGradient
       inkscape:collect="always"
       xlink:href="#linearGradient1740"
       id="linearGradient3436"
       gradientUnits="userSpaceOnUse"
       gradientTransform="matrix(0.6460682,-0.2399385,0.1030884,0.4751544,18.87944,754.7923)"
       x1="142.19553"
       y1="168.70644"
       x2="201.17097"
       y2="168.70644" /><linearGradient
       inkscape:collect="always"
       xlink:href="#linearGradient1740"
       id="linearGradient3459"
       gradientUnits="userSpaceOnUse"
       gradientTransform="matrix(0.3881386,-0.2946987,7.2145283e-2,0.1823001,-64.613876,639.19487)"
       x1="367.58081"
       y1="1471.8438"
       x2="362.41113"
       y2="754.23322" /><linearGradient
       inkscape:collect="always"
       xlink:href="#linearGradient1740"
       id="linearGradient3461"
       gradientUnits="userSpaceOnUse"
       gradientTransform="matrix(0.5195904,-0.1929668,0.1281821,0.5908157,18.87944,754.7923)"
       x1="384.02103"
       y1="106.48047"
       x2="725.68665"
       y2="107.35426" /><linearGradient
       inkscape:collect="always"
       xlink:href="#linearGradient1740"
       id="linearGradient3463"
       gradientUnits="userSpaceOnUse"
       gradientTransform="matrix(1.1790053,-0.437862,5.6490134e-2,0.2603738,18.87944,754.7923)"
       x1="141.94717"
       y1="-29.799664"
       x2="97.991142"
       y2="-30.863411" /><linearGradient
       inkscape:collect="always"
       xlink:href="#linearGradient1740"
       id="linearGradient3465"
       gradientUnits="userSpaceOnUse"
       gradientTransform="matrix(0.6460682,-0.2399385,0.1030884,0.4751544,18.87944,754.7923)"
       x1="142.19553"
       y1="168.70644"
       x2="201.17097"
       y2="168.70644" /><radialGradient
       inkscape:collect="always"
       xlink:href="#linearGradient1758"
       id="radialGradient3467"
       gradientUnits="userSpaceOnUse"
       gradientTransform="scale(1.0801237,0.9258199)"
       spreadMethod="pad"
       cx="238.90309"
       cy="734.55731"
       fx="238.90309"
       fy="734.55731"
       r="6.7875848" /><radialGradient
       inkscape:collect="always"
       xlink:href="#linearGradient1796"
       id="radialGradient3469"
       gradientUnits="userSpaceOnUse"
       gradientTransform="scale(1.2836379,0.7790359)"
       cx="136.14594"
       cy="681.19696"
       fx="136.14594"
       fy="681.19696"
       r="11.950172" /><linearGradient
       inkscape:collect="always"
       xlink:href="#linearGradient1752"
       id="linearGradient3471"
       gradientUnits="userSpaceOnUse"
       gradientTransform="scale(0.9713494,1.0294956)"
       spreadMethod="reflect"
       x1="121.59292"
       y1="435.76712"
       x2="117.66864"
       y2="438.26077" /><linearGradient
       inkscape:collect="always"
       xlink:href="#linearGradient1740"
       id="linearGradient3473"
       gradientUnits="userSpaceOnUse"
       gradientTransform="matrix(0.8262362,-0.6718025,-0.1740603,-0.1942154,295.20727,836.47833)"
       x1="305.30508"
       y1="1581.9412"
       x2="300.69092"
       y2="941.44409" /><linearGradient
       inkscape:collect="always"
       xlink:href="#linearGradient2001"
       id="linearGradient3475"
       gradientUnits="userSpaceOnUse"
       gradientTransform="matrix(1.5946634,-1.2365783,-0.3036729,-0.3916097,-14.71808,585.68998)"
       x1="82.445717"
       y1="-59.090939"
       x2="262.41537"
       y2="-29.709515" /><linearGradient
       inkscape:collect="always"
       xlink:href="#linearGradient1983"
       id="linearGradient3477"
       gradientUnits="userSpaceOnUse"
       gradientTransform="matrix(1.5943306,1.2363202,-0.3037362,0.3916914,-14.71808,465.95718)"
       x1="88.951096"
       y1="-184.6066"
       x2="278.67465"
       y2="360.65692" /><radialGradient
       inkscape:collect="always"
       xlink:href="#linearGradient1758"
       id="radialGradient3479"
       gradientUnits="userSpaceOnUse"
       gradientTransform="scale(1.0801237,0.9258199)"
       spreadMethod="pad"
       cx="238.90309"
       cy="734.55731"
       fx="238.90309"
       fy="734.55731"
       r="6.7875848" /><linearGradient
       inkscape:collect="always"
       xlink:href="#linearGradient2001"
       id="linearGradient3481"
       gradientUnits="userSpaceOnUse"
       gradientTransform="scale(0.8668569,1.1535929)"
       x1="193.07133"
       y1="558.82855"
       x2="288.29803"
       y2="623.94037" /><linearGradient
       inkscape:collect="always"
       xlink:href="#linearGradient2001"
       id="linearGradient3483"
       gradientUnits="userSpaceOnUse"
       x1="474.68741"
       y1="828.06885"
       x2="539.84375"
       y2="828.06885" /><linearGradient
       inkscape:collect="always"
       xlink:href="#linearGradient1893"
       id="linearGradient5359"
       x1="66.7995"
       y1="727.875"
       x2="539.45898"
       y2="727.875"
       gradientUnits="userSpaceOnUse" /></defs><sodipodi:namedview
     id="base"
     inkscape:zoom="0.47763667"
     inkscape:cx="352.55309"
     inkscape:cy="320.6881"
     inkscape:window-width="1016"
     inkscape:window-height="575"
     inkscape:window-x="0"
     inkscape:window-y="1"
     inkscape:current-layer="g3411"
     showgrid="false"
     inkscape:window-maximized="0" /><path
     sodipodi:type="arc"
     style="fill:#808080;fill-opacity:1;fill-rule:evenodd;stroke:none;stroke-width:1pt;stroke-linecap:butt;stroke-linejoin:miter;stroke-opacity:1"
     id="path1915"
     d="M 188.82484 -56.490738 A 0.21906281 0.87623596 0 1 1  188.38671,-56.490738 A 0.21906281 0.87623596 0 1 1  188.82484 -56.490738 z"
     sodipodi:cx="188.60577"
     sodipodi:cy="-56.490738"
     sodipodi:rx="0.21906281"
     sodipodi:ry="0.87623596"
     transform="translate(194.31234,-329.92418)" /><g
     id="g3438"
     transform="matrix(0.8000002,0,0,0.8000002,155.44992,-159.93947)"><rect
       y="199.92429"
       x="-194.31235"
       height="650.00031"
       width="999.99969"
       id="rect1770"
       style="font-size:12px;fill:#00a3b0;fill-opacity:1;fill-rule:evenodd;stroke-width:1" /><g
       transform="translate(0,4.9586467e-2)"
       id="g3411"><path
         style="font-size:12px;fill:#333333;fill-opacity:1;fill-rule:evenodd;stroke-width:1"
         d="M 145.3117,575.9724 C 138.4509,578.3921 126.8521,565.7354 117.4942,551.5241 C 111.5437,539.4813 124.6167,545.2786 124.6812,546.4787 C 134.039,560.69 152.1724,573.5525 145.3117,575.9724 z "
         id="path1793"
         sodipodi:nodetypes="cccc" /><path
         sodipodi:nodetypes="csssssssssssss"
         id="path1772"
         d="M 285.60997,722.0098 C 286.12185,726.09817 236.42958,696.37155 176.38055,767.11803 C 169.61165,775.10571 131.47305,828.23469 104.63327,837.35934 C 95.680202,840.02715 79.338802,845.30885 77.764139,844.71487 C 76.92173,844.47439 75.623409,843.57457 75.616367,842.84419 C 75.582963,841.19994 83.725525,837.01895 86.165773,836.40315 C 90.636188,835.30606 94.958082,828.51447 94.766445,828.88302 C 93.719152,830.77744 89.603703,835.2679 85.448981,836.34451 C 83.208891,836.93404 76.066475,841.07693 75.493714,842.41549 C 75.137145,843.19614 73.374253,840.30651 73.253732,839.5417 C 72.677438,836.3915 74.153041,834.48432 72.733974,831.00325 C 55.360895,788.32401 79.695791,780.50219 93.757828,758.24803 C 103.81489,741.35199 124.61455,716.4594 166.0654,697.00226 C 207.51625,677.54508 283.4305,703.00716 285.60997,722.0098 z "
         style="font-size:12px;fill:url(#linearGradient3459);fill-rule:evenodd" /><path
         sodipodi:nodetypes="csssssccsc"
         id="path1773"
         d="M 287.44608,728.75369 C 288.34708,755.8356 288.94652,745.68201 285.38011,766.71053 C 284.61898,772.35331 275.34426,760.15169 270.13365,744.07902 C 266.66991,733.63556 259.19973,721.93091 253.85987,721.10711 C 248.65847,720.14077 245.69825,716.35467 250.33386,716.18989 C 254.96973,716.02508 266.69232,718.06964 267.40892,718.28794 C 303.53263,729.64242 267.17143,704.30045 265.30614,703.79824 C 273.57647,707.50575 289.72213,688.48024 304.05444,691.64063 C 307.74169,693.46485 306.122,693.80494 304.60212,697.05955 C 296.87365,713.30499 287.3695,712.46346 287.44608,728.75369 z "
         style="font-size:12px;fill:url(#linearGradient3461);fill-rule:evenodd" /><path
         sodipodi:nodetypes="ccccc"
         id="path1775"
         d="M 186.38057,690.74855 C 187.34289,693.18022 178.8611,690.56871 160.59617,699.71852 C 145.09752,709.59889 135.62956,716.10366 134.96944,715.32979 C 134.58138,714.34934 151.32585,702.98272 165.97814,691.85782 C 168.91486,688.68445 185.57684,689.61192 186.38057,690.74855 z "
         style="font-size:12px;fill:url(#linearGradient3463);fill-rule:evenodd" /><path
         sodipodi:nodetypes="ccccc"
         id="path1776"
         d="M 163.41597,794.34453 C 170.55916,798.63658 172.32021,808.00474 167.34939,815.26886 C 162.37847,822.53301 139.91027,817.84468 132.767,813.55274 C 125.62376,809.2607 135.7542,806.53586 140.72506,799.27166 C 145.69597,792.00751 156.27264,790.05254 163.41597,794.34453 z "
         style="font-size:12px;fill:url(#linearGradient3465);fill-rule:evenodd" /><path
         transform="matrix(0.1535455,-0.1305841,9.5994048e-2,0.2647425,-7.6250954,672.69215)"
         sodipodi:ry="10.022522"
         sodipodi:rx="11.692947"
         sodipodi:cy="678.18805"
         sodipodi:cx="262.25598"
         d="M 273.94893 678.18805 A 11.692947 10.022522 0 1 1  250.56303,678.18805 A 11.692947 10.022522 0 1 1  273.94893 678.18805 z"
         id="path1777"
         style="font-size:12px;fill:url(#radialGradient3467);fill-rule:evenodd;stroke-width:1"
         sodipodi:type="arc" /><path
         sodipodi:type="arc"
         style="fill:url(#radialGradient3469);fill-opacity:1;fill-rule:evenodd;stroke:none;stroke-width:1pt;stroke-linecap:butt;stroke-linejoin:miter;stroke-opacity:1"
         id="path1794"
         d="M 197.64558 530.677 A 22.459724 13.630737 0 1 1  152.72613,530.677 A 22.459724 13.630737 0 1 1  197.64558 530.677 z"
         sodipodi:cx="175.18585"
         sodipodi:cy="530.677"
         sodipodi:rx="22.459724"
         sodipodi:ry="13.630737"
         transform="translate(-1.239147,-4.956696)" /><path
         sodipodi:nodetypes="csss"
         id="path2008"
         d="M 122.5897,532.7431 C 119.5873,529.4265 -23.40369,373.296 -21.64212,371.6179 C -19.66517,370.1654 127.852,522.2906 130.5944,525.0013 C 137.6582,531.9839 129.7761,540.6817 122.5897,532.7431 z "
         style="font-size:12px;fill:url(#linearGradient3471);fill-rule:evenodd" /><path
         style="font-size:12px;fill:url(#linearGradient3473);fill-rule:evenodd"
         d="M 171.1875,509.4375 C 161.25995,509.50641 151.23391,514.17382 141,525.9375 C 137.10351,530.48507 135.1642,527.63772 132.15625,527.46875 C 134.62294,530.05112 127.55309,537.72394 124.46875,535.53125 C 121.91601,539.05384 123.222,539.32869 119.15625,542.09375 C 118.15548,542.72908 115.14096,544.53906 116.5,544.78125 C 118.80316,545.12471 129.71141,556.15721 132.125,560 C 135.03116,564.65791 139.98479,568.47787 144.03125,570.84375 C 140.1566,568.82271 135.16206,565.63661 132.5625,561.375 C 129.97088,557.17454 118.31031,544.30339 116,545.25 C 114.96826,545.65602 114.59215,548.55617 114.84375,550.25 C 115.10903,553.49383 127.70562,570.2289 134.71875,587.0625 C 153.53646,631.26848 210.24148,680.94582 226.34375,689.21875 C 339.46055,747.45056 433.10863,822.68534 469.875,849.875 L 493.75,849.875 C 503.39989,796.10286 311.73641,596.24891 252.78125,560.75 C 225.22339,544.11885 198.63425,509.24698 171.1875,509.4375 z "
         id="path2006" /><path
         style="font-size:12px;fill:url(#linearGradient3475);fill-rule:evenodd"
         d="M 171.59375,510.40625 C 161.6663,510.4885 151.62431,515.1601 141.40625,526.9375 C 137.51592,531.49028 135.60196,528.63373 132.59375,528.46875 C 135.06392,531.04787 127.99344,538.71971 124.90625,536.53125 C 122.35813,540.05713 123.65568,540.35437 119.59375,543.125 C 118.59379,543.76162 115.57809,545.57223 116.9375,545.8125 C 119.24107,546.15294 130.17499,557.19161 132.59375,561.03125 C 135.38262,565.48777 140.05303,569.18333 144,571.5625 C 140.20285,569.5331 135.52096,566.44415 133.03125,562.375 C 130.43398,558.17795 118.74658,545.33161 116.4375,546.28125 C 115.40633,546.68868 115.02736,549.58772 115.28125,551.28125 C 115.55092,554.52476 128.18291,571.23839 135.21875,588.0625 C 154.09597,632.24319 210.85536,681.84252 226.96875,690.09375 C 339.42526,747.79446 432.66609,822.2902 469.96875,849.875 L 494.6875,849.875 C 502.95769,795.33801 312.06499,596.90056 253.25,561.59375 C 225.66977,544.99968 199.04022,510.17884 171.59375,510.40625 z "
         id="path1987" /><path
         id="path1981"
         d="M 148.26828,530.55363 C 146.51258,532.55403 144.13112,533.3346 142.94912,532.29717 C 141.767,531.25972 142.232,528.79712 143.9877,526.79672 C 145.74337,524.79636 148.1248,524.01566 149.30691,525.05311 C 150.489,526.09059 150.02394,528.55327 148.26828,530.55363 z M 159.3069,521.29716 C 157.9503,522.84293 156.40824,523.70784 155.86266,523.22911 C 155.31708,522.75022 155.97461,521.10903 157.33132,519.56327 C 158.68803,518.01751 160.22995,517.15247 160.77556,517.63132 C 161.32117,518.11016 160.66361,519.75139 159.3069,521.29716 z M 154.21627,537.81015 C 153.65571,540.16392 151.7701,541.73115 150.00485,541.31076 C 148.2394,540.89028 147.26284,538.64142 147.82332,536.28759 C 148.38384,533.93386 150.26936,532.36657 152.03474,532.78698 C 153.80007,533.20744 154.77682,535.45637 154.21627,537.81015 z M 163.31384,543.19485 C 161.83948,545.83572 159.44557,547.30729 157.96668,546.4817 C 156.48765,545.65596 156.4841,542.84589 157.95841,540.20508 C 159.43266,537.56419 161.82668,536.09263 163.30565,536.91829 C 164.78454,537.74388 164.78815,540.55404 163.31384,543.19485 z M 173.74833,543.2417 C 172.60934,545.37649 170.47458,546.46067 168.98036,545.6635 C 167.48602,544.86615 167.19787,542.48917 168.33686,540.35439 C 169.47593,538.21967 171.61073,537.13544 173.10498,537.93273 C 174.59931,538.73009 174.8874,541.10698 173.74833,543.2417 z M 169.08722,535.1269 C 168.98801,537.00633 168.07641,538.48593 167.0512,538.43169 C 166.02613,538.3776 165.27556,536.81009 165.37487,534.93068 C 165.47431,533.05129 166.38588,531.57173 167.41095,531.62582 C 168.43604,531.68004 169.18654,533.24749 169.08722,535.1269 z M 182.65753,524.27992 C 182.22727,525.00939 180.35804,524.70382 178.4823,523.59739 C 176.6067,522.49111 175.43481,521.0028 175.86516,520.27339 C 176.29546,519.54404 178.16476,519.84951 180.04039,520.95593 C 181.91613,522.06235 183.08787,523.55052 182.65753,524.27992 z M 201.87056,530.40668 C 201.10969,531.78313 198.51886,531.80791 196.08338,530.46197 C 193.64806,529.116 192.29051,526.90904 193.05131,525.53253 C 193.81195,524.15606 196.40301,524.1313 198.83831,525.47715 C 201.27366,526.82308 202.63128,529.0301 201.87056,530.40668 z M 185.16809,548.94953 C 183.7316,550.58626 181.24025,550.74842 179.60362,549.3121 C 177.96697,547.87565 177.80469,545.38434 179.24117,543.74761 C 180.67761,542.11095 183.16893,541.94866 184.80558,543.38512 C 186.44224,544.82156 186.60463,547.31289 185.16809,548.94953 z M 175.83268,562.90685 C 174.07698,564.90726 171.32688,565.36442 169.69023,563.92797 C 168.05357,562.49153 168.15007,559.70534 169.90566,557.70492 C 171.66143,555.70458 174.41149,555.24747 176.04814,556.68392 C 177.68484,558.12031 177.58838,560.90645 175.83268,562.90685 z M 202.26157,542.09254 C 201.38369,543.09278 198.90298,542.35087 196.72078,540.43565 C 194.53852,538.52035 193.48114,536.15689 194.35896,535.15673 C 195.23684,534.15649 197.71751,534.89844 199.89975,536.81361 C 202.0819,538.7289 203.13936,541.09242 202.26157,542.09254 z M 197.24894,551.67833 C 196.21723,552.51891 193.89421,551.3757 192.06011,549.12468 C 190.22607,546.87373 189.57559,544.3674 190.6073,543.52681 C 191.63901,542.68622 193.96221,543.8297 195.79616,546.08059 C 197.63026,548.33162 198.28061,550.8378 197.24894,551.67833 z M 192.58126,557.39283 C 193.08888,559.88219 192.25104,562.15488 190.71005,562.46912 C 189.16905,562.78336 187.5082,561.02007 187.00064,558.53065 C 186.49311,556.04135 187.33091,553.76853 188.87185,553.45436 C 190.41285,553.14012 192.07358,554.90339 192.58126,557.39283 z M 186.60648,570.3054 C 187.16865,572.65881 186.0981,574.93119 184.21529,575.3809 C 182.33259,575.83062 180.35071,574.28747 179.78854,571.93406 C 179.22637,569.58066 180.29681,567.30826 182.17947,566.85842 C 184.06231,566.40883 186.04431,567.952 186.60648,570.3054 z M 214.70745,542.5234 C 213.67,543.70542 211.13365,543.17578 209.04234,541.34031 C 206.95109,539.50477 206.0967,537.05856 207.13415,535.87654 C 208.17159,534.69452 210.70786,535.22428 212.79927,537.05976 C 214.89049,538.89518 215.74489,541.34139 214.70745,542.5234 z M 213.34571,557.35844 C 212.388,558.44956 209.54786,557.52266 207.0019,555.28817 C 204.45592,553.05372 203.16832,550.35773 204.12596,549.26655 C 205.08356,548.17542 207.92379,549.10237 210.46985,551.33688 C 213.01572,553.57131 214.30332,556.2673 213.34571,557.35844 z M 207.84789,564.82706 C 209.02514,567.34829 208.73533,569.97303 207.2007,570.68964 C 205.66607,571.40624 203.46751,569.94326 202.29027,567.42203 C 201.11298,564.90086 201.40279,562.27612 202.93743,561.5595 C 204.47206,560.8429 206.67061,562.30588 207.84789,564.82706 z M 199.25646,571.86962 C 200.83038,573.86396 201.1054,576.2706 199.87084,577.24483 C 198.6362,578.21917 196.35938,577.39221 194.7856,575.39784 C 193.21171,573.40345 192.9365,570.99691 194.17125,570.02258 C 195.40581,569.04835 197.6826,569.87519 199.25646,571.86962 z M 221.98038,570.76593 C 221.34189,571.49337 219.27646,570.72441 217.36702,569.04852 C 215.45754,567.37267 214.42717,565.42444 215.06562,564.69707 C 215.70399,563.96963 217.76952,564.73846 219.67888,566.41429 C 221.58844,568.0902 222.61875,570.0385 221.98038,570.76593 z M 229.51786,560.18528 C 228.64018,561.18559 226.08571,560.37904 223.81253,558.38387 C 221.53933,556.38886 220.40831,553.96077 221.2861,552.96048 C 222.16389,551.96035 224.71821,552.76677 226.99152,554.76196 C 229.2646,556.75694 230.39577,559.18517 229.51786,560.18528 z M 212.14041,591.27561 C 210.8637,592.73044 208.13318,592.42181 206.04185,590.58638 C 203.95054,588.75091 203.29029,586.08356 204.56718,584.62881 C 205.84405,583.17393 208.57449,583.4825 210.6658,585.31797 C 212.7571,587.15344 213.41727,589.82074 212.14041,591.27561 z M 223.236,585.27519 C 222.11883,586.5481 219.44401,586.02746 217.26187,584.11218 C 215.07955,582.19695 214.21622,579.61228 215.33351,578.33938 C 216.45073,577.0664 219.12542,577.58703 221.30769,579.50232 C 223.48992,581.41767 224.35333,584.00222 223.236,585.27519 z M 243.97973,562.96861 C 243.26144,563.78687 240.68901,562.70355 238.23396,560.5488 C 235.77905,558.3942 234.37102,555.98406 235.08937,555.16573 C 235.80754,554.34746 238.37989,555.43073 240.83499,557.5854 C 243.28996,559.74009 244.69788,562.15021 243.97973,562.96861 z M 248.67975,575.54586 C 247.72215,576.637 245.25048,576.03356 243.15915,574.19813 C 241.06785,572.36265 240.14881,569.99018 241.10653,568.89905 C 242.06405,567.80786 244.53572,568.4113 246.62701,570.24678 C 248.71843,572.08227 249.63747,574.45474 248.67975,575.54586 z M 241.71314,590.12505 C 240.83534,591.12534 237.54376,589.67176 234.36138,586.87873 C 231.17897,584.08558 229.3106,581.01042 230.1885,580.01032 C 231.06638,579.01009 234.35786,580.46348 237.54026,583.25664 C 240.72272,586.04973 242.59102,589.12481 241.71314,590.12505 z M 231.55806,601.03149 C 230.52061,602.21352 227.39455,601.16626 224.57573,598.69226 C 221.75707,596.21838 220.313,593.25469 221.35049,592.07261 C 222.38793,590.89059 225.514,591.93784 228.33277,594.41173 C 231.15138,596.88568 232.59544,599.84939 231.55806,601.03149 z M 228.3274,625.30155 C 227.05048,626.75633 222.69846,625.02451 218.60673,621.43334 C 214.51501,617.84216 212.23312,613.75162 213.50997,612.29677 C 214.7869,610.84199 219.13892,612.5738 223.23056,616.16492 C 227.32235,619.75616 229.60424,623.8467 228.3274,625.30155 z M 251.71478,612.60178 C 250.75718,613.69291 247.91694,612.76598 245.37107,610.53154 C 242.82504,608.29699 241.53743,605.60101 242.49503,604.50988 C 243.45274,603.41877 246.29299,604.34569 248.83894,606.58018 C 251.38489,608.81467 252.6725,611.51066 251.71478,612.60178 z M 253.16428,594.34608 C 252.2864,595.34632 249.73205,594.53978 247.45888,592.54474 C 245.18569,590.54956 244.0546,588.12139 244.9324,587.12127 C 245.81022,586.1211 248.36469,586.92765 250.63785,588.9227 C 252.91096,590.91781 254.0421,593.34591 253.16428,594.34608 z M 268.77952,583.86024 C 267.66224,585.13314 264.02922,583.77146 260.66495,580.81874 C 257.30074,577.86609 255.47906,574.44042 256.59631,573.16739 C 257.71364,571.89442 261.34662,573.25617 264.71089,576.20889 C 268.07515,579.16162 269.89666,582.5872 268.77952,583.86024 z M 274.67575,595.73873 C 273.79792,596.73889 271.09608,595.80304 268.64103,593.64829 C 266.18605,591.49361 264.90755,588.93602 265.78527,587.93583 C 266.66314,586.9356 269.36494,587.87151 271.8201,590.02628 C 274.27507,592.18096 275.55363,594.73849 274.67575,595.73873 z M 269.53341,616.87361 C 268.65555,617.87383 266.02744,617.00265 263.66336,614.92772 C 261.29923,612.85284 260.09441,610.35999 260.97227,609.35978 C 261.85013,608.35957 264.47825,609.23075 266.84233,611.30568 C 269.20644,613.38056 270.41126,615.87341 269.53341,616.87361 z M 264.2228,640.19271 C 263.02574,641.55658 258.88569,639.88041 254.97589,636.44889 C 251.06612,633.01734 248.86685,629.12981 250.06395,627.7659 C 251.26101,626.40202 255.40096,628.07818 259.31084,631.50975 C 263.22065,634.94126 265.41979,638.82877 264.2228,640.19271 z M 289.10244,621.80759 C 288.06499,622.98962 284.93893,621.94236 282.12028,619.46846 C 279.30161,616.99461 277.85755,614.03089 278.895,612.84886 C 279.93245,611.66684 283.0585,612.7141 285.87707,615.18793 C 288.69583,617.66185 290.13988,620.62557 289.10244,621.80759 z M 303.02396,613.91554 C 302.22597,614.82483 298.70436,613.03895 295.15819,609.92654 C 291.61205,606.81425 289.38427,603.55408 290.18233,602.64485 C 290.98044,601.73558 294.50201,603.5215 298.04814,606.6338 C 301.59432,609.7462 303.82214,613.00632 303.02396,613.91554 z M 464.53003,844.37805 C 451.03398,834.2132 432.06395,819.59891 408.80674,802.58775 C 362.29233,768.56544 298.62923,724.95568 227.312,688.17913 C 211.2155,679.89501 154.55869,630.16474 135.77178,585.94574 C 128.77023,569.10714 116.17796,552.36372 115.91484,549.11959 C 115.66454,547.42571 116.02987,544.53077 117.06191,544.12547 C 119.37282,543.18048 131.02989,556.0605 133.61866,560.2628 C 138.31723,567.97763 150.99631,572.35863 150.33835,572.20058 C 146.91282,571.27253 137.64594,566.03926 133.19827,558.89972 C 130.78744,555.05526 119.88726,544.01252 117.58436,543.66746 C 116.22539,543.42434 119.24048,541.60553 120.24169,540.97089 C 124.30941,538.20865 122.99165,537.92348 125.54694,534.4027 C 128.62973,536.59749 135.71322,528.92951 133.24819,526.34539 C 136.25606,526.5165 138.17861,529.36937 142.07833,524.82455 C 180.63668,480.56474 216.35002,537.04891 253.86,559.72181 C 285.86528,579.02368 356.97671,646.83459 413.72477,713.38331 C 442.0988,746.65767 466.882,779.61649 481.39066,806.03835 C 488.64499,819.24928 493.33069,830.82597 494.6123,839.99075 C 495.8939,849.15553 478.02607,854.5429 464.53003,844.37805 z "
         style="font-size:12px;fill:url(#linearGradient3477);fill-rule:evenodd;stroke-width:1"
         sodipodi:nodetypes="csssccsssccsssccsssccsssccsssccsssccsssccsssccsssccsssccsssccsssccsssccsssccsssccsssccsssccsssccsssccsssccsssccsssccsssccsssccsssccsssccsssccsssccsssccsssccsssccsssccsssccsssccscccccccccccccssss" /><path
         transform="matrix(0.3378711,0.2747189,-0.2987853,0.3333829,281.08895,276.52099)"
         sodipodi:ry="10.022522"
         sodipodi:rx="11.692947"
         sodipodi:cy="678.18805"
         sodipodi:cx="262.25598"
         d="M 273.94893 678.18805 A 11.692947 10.022522 0 1 1  250.56303,678.18805 A 11.692947 10.022522 0 1 1  273.94893 678.18805 z"
         id="path2011"
         style="font-size:12px;fill:url(#radialGradient3479);fill-rule:evenodd;stroke-width:1"
         sodipodi:type="arc" /><path
         style="font-size:12px;fill:url(#linearGradient3481);fill-rule:evenodd"
         d="M 203.3178,689.4569 C 192.9859,700.9852 175.1877,702.6694 163.5644,693.2186 C 151.9411,683.7678 168.2671,646.2792 178.5992,634.7508 C 188.9311,623.2225 190.4503,640.7996 202.0735,650.2504 C 213.6968,659.7011 213.6497,677.9287 203.3178,689.4569 z "
         id="path2010"
         sodipodi:nodetypes="ccccc" /><path
         style="font-size:12px;fill:url(#linearGradient3483);fill-opacity:1;fill-rule:evenodd"
         d="M 436.53125,806.28125 C 433.61113,806.58939 432.66889,810.75254 436.53125,816.40625 C 441.37592,823.14929 445.87486,836.74332 444.3125,849.875 L 474.0625,849.875 C 470.74584,846.37844 466.81985,841.6243 462.15625,835.34375 C 461.2862,834.17003 448.73909,815.90896 442.34375,809.28125 C 440.14547,807.00304 438.06084,806.11985 436.53125,806.28125 z M 483.1875,812.78125 C 484.74069,816.68991 490.62883,837.9887 490.125,849.875 L 539.84375,849.875 C 522.04239,831.81291 489.95252,826.63142 483.1875,812.78125 z "
         id="path2043" /><path
         style="font-size:12px;fill:#6f6442;fill-rule:evenodd"
         d="M 393.76921,692.33365 C 390.99511,695.42901 383.27272,683.79907 357.429,654.80252 C 332.49547,631.33611 317.54643,616.54869 318.18019,614.90649 C 319.29878,613.65834 346.27054,639.34296 372.3748,660.56806 C 378.9462,664.31451 394.81682,690.22957 393.76921,692.33365 z "
         id="path2009"
         sodipodi:nodetypes="ccccc" /><path
         style="font-size:12px;fill:none;fill-rule:evenodd;stroke:#000000;stroke-linecap:round"
         d="M 116.6662,545.3926 C 121.0438,546.5033 124.9725,550.7629 127.6081,554.3684 C 132.7364,563.5985 140.0071,570.1322 144.7085,571.6987 C 146.0948,572.1604 146.9089,573.1041 148.268,573.6875"
         id="path2111"
         sodipodi:nodetypes="cccc" /><path
         style="font-size:12px;fill:url(#linearGradient5359);fill-opacity:1;fill-rule:evenodd;opacity:1"
         d="M 309.55271,605.875 C 326.62971,634.2294 174.88161,648.73186 163.67771,629.59375 C 169.75841,639.08735 172.78416,640.08428 173.95896,641.96875 C 163.36186,662.13095 154.7155,683.35962 166.17771,692.6875 C 150.37851,704.4938 107.28088,730.40021 94.333964,757.6875 C 84.580094,778.2707 56.967884,783.71573 70.427714,821.46875 C 71.049444,823.49215 73.254404,828.791 73.833964,832.9375 C 74.413524,837.084 73.395564,840.07902 76.302714,842.40625 C 83.474084,848.11605 100.48963,838.19683 107.99021,836.84375 C 111.55361,836.17315 131.41901,820.17398 136.42771,815.0625 C 152.64091,818.4702 159.41236,822.65439 165.58396,817.3125 C 177.31226,806.8927 169.52061,794.87738 157.49021,790.78125 C 175.81921,775.22285 189.72772,739.73982 240.17771,721.75 C 271.57191,710.0982 266.53062,755.61146 285.42771,767.96875 C 289.76481,758.64075 288.8642,742.98543 288.49021,724.0625 C 303.60571,729.6129 436.44862,820.67283 443.42771,830.34375 C 446.16627,836.65926 446.13701,843.17156 444.80271,849.875 L 539.45896,849.875 C 531.82785,842.99181 517.25609,836.05112 487.27146,818.125 C 466.31166,781.1678 452.6912,755.64397 393.67771,690.5 C 385.47611,674.4739 380.95396,668.83857 375.58396,661.09375 C 349.14776,642.81625 337.95682,628.3895 309.55271,605.875 z "
         id="path1805" /></g></g></svg>