<?xml version="1.0" encoding="UTF-8" standalone="no"?>
<!-- Created with Sodipodi ("http://www.sodipodi.com/") -->
<svg
   xmlns:dc="http://purl.org/dc/elements/1.1/"
   xmlns:cc="http://web.resource.org/cc/"
   xmlns:rdf="http://www.w3.org/1999/02/22-rdf-syntax-ns#"
   xmlns:svg="http://www.w3.org/2000/svg"
   xmlns="http://www.w3.org/2000/svg"
   xmlns:xlink="http://www.w3.org/1999/xlink"
   xmlns:sodipodi="http://sodipodi.sourceforge.net/DTD/sodipodi-0.dtd"
   xmlns:inkscape="http://www.inkscape.org/namespaces/inkscape"
   id="svg602"
   sodipodi:version="0.32"
   width="799.99994"
   height="519.99994"
   xml:space="preserve"
   sodipodi:docbase="/home/franck/Dessins/Vectoriels/Animaux"
   sodipodi:docname="ourspolaire.svg"
   inkscape:version="0.45"
   inkscape:output_extension="org.inkscape.output.svg.inkscape"
   sodipodi:modified="true"
   version="1.0"><metadata
     id="metadata116"><rdf:RDF><cc:Work
         rdf:about=""><dc:format>image/svg+xml</dc:format><dc:type
           rdf:resource="http://purl.org/dc/dcmitype/StillImage" /></cc:Work></rdf:RDF></metadata><defs
     id="defs604"><linearGradient
       id="linearGradient841"><stop
         style="stop-color:#e5edff;stop-opacity:0.498;"
         offset="0"
         id="stop842" /><stop
         style="stop-color:#d2ffde;stop-opacity:0.698;"
         offset="1"
         id="stop843" /></linearGradient><linearGradient
       id="linearGradient825"><stop
         style="stop-color:#d1edf7;stop-opacity:1;"
         offset="0"
         id="stop826" /><stop
         style="stop-color:#ffffff;stop-opacity:1;"
         offset="1"
         id="stop827" /></linearGradient><linearGradient
       id="linearGradient755"><stop
         style="stop-color:#ffffea;stop-opacity:1;"
         offset="0"
         id="stop756" /><stop
         style="stop-color:#bab2ba;stop-opacity:1;"
         offset="1"
         id="stop757" /></linearGradient><linearGradient
       id="linearGradient627"><stop
         style="stop-color:#ffedc2;stop-opacity:1;"
         offset="0"
         id="stop628" /><stop
         style="stop-color:#ddcab0;stop-opacity:1;"
         offset="1"
         id="stop629" /></linearGradient><linearGradient
       id="linearGradient621"><stop
         style="stop-color:#f8f8f8;stop-opacity:1;"
         offset="0"
         id="stop622" /><stop
         style="stop-color:#252726;stop-opacity:1;"
         offset="1"
         id="stop623" /></linearGradient><linearGradient
       id="linearGradient611"><stop
         style="stop-color:#000;stop-opacity:1;"
         offset="0"
         id="stop612" /><stop
         style="stop-color:#fff;stop-opacity:1;"
         offset="1"
         id="stop613" /></linearGradient><linearGradient
       xlink:href="#linearGradient755"
       id="linearGradient614"
       x1="257.85315"
       y1="682.33966"
       x2="320.36124"
       y2="553.27771"
       gradientTransform="scale(1.0955897,0.9127504)"
       gradientUnits="userSpaceOnUse" /><radialGradient
       xlink:href="#linearGradient611"
       id="radialGradient615"
       cx="269.29611"
       cy="624.37787"
       r="28.917383"
       fx="269.29611"
       fy="624.37787"
       spreadMethod="pad"
       gradientTransform="scale(1.0356058,0.9656184)"
       gradientUnits="userSpaceOnUse" /><radialGradient
       xlink:href="#linearGradient755"
       id="radialGradient620"
       cx="351.07855"
       cy="438.41156"
       r="22.250706"
       fx="351.07855"
       fy="438.41156"
       gradientTransform="scale(0.7717729,1.295718)"
       gradientUnits="userSpaceOnUse" /><radialGradient
       xlink:href="#linearGradient611"
       id="radialGradient713"
       cx="432.33527"
       cy="521.48029"
       r="21.761618"
       fx="432.33527"
       fy="521.48029"
       gradientTransform="scale(0.9186287,1.0885791)"
       gradientUnits="userSpaceOnUse" /><linearGradient
       xlink:href="#linearGradient755"
       id="linearGradient716"
       x1="-2.9363284e-07"
       y1="-8.5891713e-07"
       x2="0.99999964"
       y2="-8.5891713e-07" /><radialGradient
       xlink:href="#linearGradient621"
       id="radialGradient723"
       cx="315.51892"
       cy="590.1037"
       r="2.7601602"
       fx="315.51892"
       fy="590.1037"
       gradientTransform="scale(1.0235332,0.9770078)"
       gradientUnits="userSpaceOnUse" /><radialGradient
       xlink:href="#linearGradient755"
       id="radialGradient724"
       cx="0.83211493"
       cy="0.16246139"
       r="0.88567454"
       fx="0.83211493"
       fy="0.16246139"
       gradientTransform="matrix(1,-1.479343e-6,7.154156e-6,1,1.137596e-7,1.48308e-7)" /><radialGradient
       xlink:href="#linearGradient611"
       id="radialGradient734"
       cx="166.32921"
       cy="290.09601"
       r="10.181284"
       fx="166.32921"
       fy="290.09601"
       gradientTransform="scale(0.6948075,1.4392476)"
       gradientUnits="userSpaceOnUse" /><linearGradient
       xlink:href="#linearGradient755"
       id="linearGradient758"
       x1="413.42908"
       y1="503.23352"
       x2="324.4321"
       y2="464.20074"
       spreadMethod="pad"
       gradientTransform="scale(0.8142011,1.2281978)"
       gradientUnits="userSpaceOnUse" /><linearGradient
       xlink:href="#linearGradient755"
       id="linearGradient760"
       x1="1.3544778"
       y1="0.96866411"
       x2="0.9367097"
       y2="0.20312434"
       spreadMethod="pad" /><linearGradient
       xlink:href="#linearGradient611"
       id="linearGradient761"
       x1="0.62903172"
       y1="0.57817167"
       x2="1.2419349"
       y2="0.22656302"
       spreadMethod="pad" /><linearGradient
       xlink:href="#linearGradient755"
       id="linearGradient776"
       x1="0.19190952"
       y1="0.078121185"
       x2="0.37373707"
       y2="0.63281238" /><linearGradient
       xlink:href="#linearGradient841"
       id="linearGradient824"
       x1="-1.7174031e-08"
       y1="-2.5105663e-07"
       x2="1"
       y2="-2.5105663e-07" /><radialGradient
       xlink:href="#linearGradient825"
       id="radialGradient834"
       cx="0.4463059"
       cy="0.4916583"
       r="0.57242227"
       fx="0.4463059"
       fy="0.4916583" /><linearGradient
       xlink:href="#linearGradient755"
       id="linearGradient907"
       x1="243.77563"
       y1="842.38367"
       x2="226.13997"
       y2="820.94659"
       gradientTransform="scale(1.2881886,0.7762838)"
       gradientUnits="userSpaceOnUse" /><linearGradient
       xlink:href="#linearGradient627"
       id="linearGradient1032"
       x1="418.1116"
       y1="498.20596"
       x2="416.93024"
       y2="498.72147"
       gradientTransform="scale(0.8111421,1.2328296)"
       gradientUnits="userSpaceOnUse" /><linearGradient
       xlink:href="#linearGradient621"
       id="linearGradient1226"
       x1="224.63075"
       y1="371.83194"
       x2="279.09796"
       y2="371.83194"
       spreadMethod="reflect"
       gradientTransform="scale(0.9079967,1.1013256)"
       gradientUnits="userSpaceOnUse" /><linearGradient
       xlink:href="#linearGradient755"
       id="linearGradient1272"
       x1="0.28567919"
       y1="0.15626201"
       x2="1.6938769"
       y2="1.4375002" /><linearGradient
       xlink:href="#linearGradient755"
       id="linearGradient1274"
       x1="0.17104402"
       y1="0.023279674"
       x2="1.0263151"
       y2="1.0078107" /><linearGradient
       inkscape:collect="always"
       xlink:href="#linearGradient841"
       id="linearGradient2311"
       x1="75.292877"
       y1="885.46417"
       x2="312.4985"
       y2="885.46417"
       gradientTransform="scale(1.7696933,0.5650697)"
       gradientUnits="userSpaceOnUse" /><radialGradient
       inkscape:collect="always"
       xlink:href="#linearGradient825"
       id="radialGradient2313"
       cx="434.29053"
       cy="1010.0573"
       fx="434.29053"
       fy="1010.0573"
       r="154.97861"
       gradientTransform="scale(1.5789719,0.6333235)"
       gradientUnits="userSpaceOnUse" /><radialGradient
       inkscape:collect="always"
       xlink:href="#linearGradient825"
       id="radialGradient2315"
       cx="244.48337"
       cy="915.24231"
       fx="244.48337"
       fy="915.24231"
       r="154.85106"
       gradientTransform="scale(1.5802723,0.6328023)"
       gradientUnits="userSpaceOnUse" /><radialGradient
       inkscape:collect="always"
       xlink:href="#linearGradient825"
       id="radialGradient2317"
       cx="105.18739"
       cy="1145.3701"
       fx="105.18739"
       fy="1145.3701"
       r="44.134876"
       gradientTransform="scale(2.3531015,0.424971)"
       gradientUnits="userSpaceOnUse" /><radialGradient
       inkscape:collect="always"
       xlink:href="#linearGradient825"
       id="radialGradient2319"
       cx="121.06353"
       cy="1157.0901"
       fx="121.06353"
       fy="1157.0901"
       r="54.328083"
       gradientTransform="scale(2.5512675,0.391962)"
       gradientUnits="userSpaceOnUse" /><radialGradient
       inkscape:collect="always"
       xlink:href="#linearGradient825"
       id="radialGradient2321"
       cx="296.36359"
       cy="683.57147"
       fx="296.36359"
       fy="683.57147"
       r="43.278053"
       gradientTransform="scale(1.261335,0.7928108)"
       gradientUnits="userSpaceOnUse" /><linearGradient
       inkscape:collect="always"
       xlink:href="#linearGradient755"
       id="linearGradient2323"
       x1="139.40372"
       y1="841.53796"
       x2="357.4313"
       y2="841.53796"
       gradientTransform="scale(1.4303199,0.6991443)"
       gradientUnits="userSpaceOnUse" /><linearGradient
       inkscape:collect="always"
       xlink:href="#linearGradient755"
       id="linearGradient2325"
       x1="300.24008"
       y1="673.59393"
       x2="359.59357"
       y2="741.91772"
       gradientTransform="scale(1.0203839,0.9800233)"
       gradientUnits="userSpaceOnUse" /><radialGradient
       inkscape:collect="always"
       xlink:href="#linearGradient755"
       id="radialGradient2327"
       gradientTransform="scale(0.8188283,1.2212572)"
       cx="277.09235"
       cy="555.60541"
       fx="277.09235"
       fy="555.60541"
       r="88.593544"
       gradientUnits="userSpaceOnUse" /><linearGradient
       inkscape:collect="always"
       xlink:href="#linearGradient611"
       id="linearGradient2329"
       spreadMethod="pad"
       x1="718.37952"
       y1="516.23865"
       x2="728.68671"
       y2="510.32562"
       gradientTransform="scale(0.6716499,1.488871)"
       gradientUnits="userSpaceOnUse" /><linearGradient
       inkscape:collect="always"
       xlink:href="#linearGradient611"
       id="linearGradient2331"
       spreadMethod="pad"
       x1="752.59528"
       y1="514.75446"
       x2="762.90247"
       y2="508.84146"
       gradientTransform="scale(0.6716499,1.488871)"
       gradientUnits="userSpaceOnUse" /><linearGradient
       inkscape:collect="always"
       xlink:href="#linearGradient611"
       id="linearGradient2333"
       spreadMethod="pad"
       x1="651.54089"
       y1="542.96222"
       x2="662.40424"
       y2="536.73016"
       gradientTransform="scale(0.7073375,1.4137522)"
       gradientUnits="userSpaceOnUse" /><linearGradient
       inkscape:collect="always"
       xlink:href="#linearGradient611"
       id="linearGradient2335"
       spreadMethod="pad"
       x1="608.95398"
       y1="551.65869"
       x2="620.01044"
       y2="545.31586"
       gradientTransform="scale(0.7262922,1.3768563)"
       gradientUnits="userSpaceOnUse" /><linearGradient
       inkscape:collect="always"
       xlink:href="#linearGradient755"
       id="linearGradient2337"
       x1="339.45898"
       y1="966.55029"
       x2="351.88513"
       y2="1004.458"
       gradientTransform="scale(1.3272062,0.7534624)"
       gradientUnits="userSpaceOnUse" /><linearGradient
       inkscape:collect="always"
       xlink:href="#linearGradient611"
       id="linearGradient2339"
       spreadMethod="pad"
       x1="357.81613"
       y1="516.48523"
       x2="368.6041"
       y2="510.29639"
       gradientTransform="scale(0.7010292,1.426474)"
       gradientUnits="userSpaceOnUse" /><linearGradient
       inkscape:collect="always"
       xlink:href="#linearGradient611"
       id="linearGradient2341"
       spreadMethod="pad"
       x1="313.95786"
       y1="541.54443"
       x2="325.02661"
       y2="535.19458"
       gradientTransform="scale(0.7276732,1.3742432)"
       gradientUnits="userSpaceOnUse" /><linearGradient
       inkscape:collect="always"
       xlink:href="#linearGradient611"
       id="linearGradient2343"
       spreadMethod="pad"
       x1="292.08444"
       y1="517.68097"
       x2="302.78754"
       y2="511.54086"
       gradientTransform="scale(0.6946899,1.4394913)"
       gradientUnits="userSpaceOnUse" /><linearGradient
       inkscape:collect="always"
       xlink:href="#linearGradient611"
       id="linearGradient2345"
       spreadMethod="pad"
       x1="266.35193"
       y1="507.68127"
       x2="276.85019"
       y2="501.65863"
       gradientTransform="scale(0.6813617,1.4676492)"
       gradientUnits="userSpaceOnUse" /><linearGradient
       inkscape:collect="always"
       xlink:href="#linearGradient611"
       id="linearGradient2347"
       spreadMethod="pad"
       x1="227.71634"
       y1="540.25806"
       x2="238.7851"
       y2="533.90814"
       gradientTransform="scale(0.7276732,1.3742432)"
       gradientUnits="userSpaceOnUse" /><linearGradient
       inkscape:collect="always"
       xlink:href="#linearGradient755"
       id="linearGradient2349"
       x1="128.67809"
       y1="1016.6913"
       x2="141.77132"
       y2="1056.6342"
       gradientTransform="scale(1.3984569,0.7150739)"
       gradientUnits="userSpaceOnUse" /><linearGradient
       inkscape:collect="always"
       xlink:href="#linearGradient755"
       id="linearGradient2351"
       x1="289.94205"
       y1="598.19434"
       x2="365.30142"
       y2="666.75946"
       gradientTransform="scale(0.8712213,1.147814)"
       gradientUnits="userSpaceOnUse" /><linearGradient
       inkscape:collect="always"
       xlink:href="#linearGradient755"
       id="linearGradient2353"
       spreadMethod="pad"
       x1="323.81708"
       y1="647.07031"
       x2="310.3176"
       y2="622.33319"
       gradientTransform="scale(1.1078236,0.9026708)"
       gradientUnits="userSpaceOnUse" /><radialGradient
       inkscape:collect="always"
       xlink:href="#linearGradient621"
       id="radialGradient2355"
       gradientTransform="scale(1.0235332,0.9770078)"
       cx="315.51892"
       cy="590.1037"
       fx="315.51892"
       fy="590.1037"
       r="2.7601602"
       gradientUnits="userSpaceOnUse" /><radialGradient
       inkscape:collect="always"
       xlink:href="#linearGradient611"
       id="radialGradient2357"
       gradientTransform="scale(0.7468698,1.3389214)"
       cx="354.37497"
       cy="414.33463"
       fx="354.37497"
       fy="414.33463"
       r="18.112698"
       gradientUnits="userSpaceOnUse" /><linearGradient
       inkscape:collect="always"
       xlink:href="#linearGradient621"
       id="linearGradient2359"
       spreadMethod="reflect"
       x1="42.517784"
       y1="658.5694"
       x2="132.03745"
       y2="658.5694"
       gradientTransform="scale(1.6880719,0.5923918)"
       gradientUnits="userSpaceOnUse" /><linearGradient
       inkscape:collect="always"
       xlink:href="#linearGradient621"
       id="linearGradient2361"
       spreadMethod="reflect"
       x1="219.90593"
       y1="339.05179"
       x2="235.50734"
       y2="339.05179"
       gradientTransform="scale(0.7874417,1.2699353)"
       gradientUnits="userSpaceOnUse" /><linearGradient
       inkscape:collect="always"
       xlink:href="#linearGradient621"
       id="linearGradient2363"
       spreadMethod="reflect"
       x1="264.19641"
       y1="193.48457"
       x2="278.21954"
       y2="193.48457"
       gradientTransform="scale(0.4794138,2.0858806)"
       gradientUnits="userSpaceOnUse" /><linearGradient
       inkscape:collect="always"
       xlink:href="#linearGradient621"
       id="linearGradient2365"
       spreadMethod="reflect"
       x1="110.5767"
       y1="497.40347"
       x2="129.15443"
       y2="497.40347"
       gradientTransform="scale(1.1399771,0.8772106)"
       gradientUnits="userSpaceOnUse" /><linearGradient
       inkscape:collect="always"
       xlink:href="#linearGradient627"
       id="linearGradient2367"
       gradientTransform="scale(0.8229543,1.2151343)"
       x1="357.03064"
       y1="531.31152"
       x2="355.84546"
       y2="531.82874"
       gradientUnits="userSpaceOnUse" /></defs><sodipodi:namedview
     id="base"
     inkscape:zoom="0.37724654"
     inkscape:cx="385.25679"
     inkscape:cy="416.45594"
     inkscape:window-width="822"
     inkscape:window-height="592"
     inkscape:window-x="3"
     inkscape:window-y="25"
     inkscape:current-layer="svg602" /><g
     id="g2251"
     transform="matrix(0.8,0,0,0.8,53.168298,-293.02524)"><rect
       y="366.28156"
       x="-66.460373"
       height="649.99994"
       width="999.99994"
       id="rect605"
       style="font-size:12px;fill:#00a2af;fill-opacity:1;fill-rule:evenodd;stroke-width:1" /><g
       transform="matrix(0.84274,0,0,0.850105,22.49033,123.6241)"
       id="g1623"><g
         style="font-size:12px"
         transform="matrix(-0.937932,-4.997885e-2,-6.140859e-2,0.546284,1129.832,425.5443)"
         id="g844"><path
           transform="translate(368.4568,120.1445)"
           sodipodi:nodetypes="ccscccssssccssssc"
           id="path808"
           d="M 133.2453,533.6385 C 138.8134,568.1605 136.62,562.4739 135.5063,583.6324 C 143.8585,590.3141 143.865,593.3442 163.2955,594.7347 L 226.5984,599.2646 L 299.3505,619.1496 L 369.7403,623.6796 L 427.1373,632.9342 C 448.5424,636.3855 470.3832,634.1955 487.475,620.8114 C 500.1921,610.1138 503.4938,606.6953 516.2652,599.6063 C 529.5743,590.9878 538.2146,563.0274 548.5987,550.0532 C 550.5906,547.5643 552.338,539.1032 553.0265,527.7227 L 547.6938,500.349 C 556.013,512.5615 547.6618,509.0265 542.7051,515.4023 L 486.9264,587.1513 C 476.8439,600.1205 449.7536,602.7728 442.7964,601.5524 L 151.1727,550.402 C 141.0158,548.6205 138.1297,543.0285 133.2453,533.6385 z "
           style="font-size:12px;fill:url(#linearGradient2311);fill-rule:evenodd" /><g
           style="fill:url(#radialGradient2313)"
           id="g828"><path
             sodipodi:nodetypes="cssssssssssssssss"
             id="path617"
             d="M 623.051,558.1809 C 623.051,573.7489 616.0319,578.171 612.6755,590.2211 C 609.319,602.2711 595.4513,608.9563 586.4786,617.2391 C 577.506,625.5219 570.7744,641.4504 556.5798,651.4798 C 532.6442,667.5575 544.3651,667.3906 500.8444,665.0282 C 473.9018,663.525 431.4688,654.7123 400.1878,657.1642 C 367.673,658.4849 315.6633,633.4947 304.7713,629.0507 C 275.7293,620.3509 249.8077,630.0337 228.4119,628.2397 C 207.0797,627.6321 195.5574,620.9954 195.5574,605.4274 C 195.5574,589.8594 212.2473,566.1697 218.3167,555.3008 C 224.3861,544.4319 238.7337,527.4853 248.2231,520.679 C 257.7125,513.8726 252.8945,504.2139 263.1544,500.8336 C 273.4145,497.4534 283.3815,495.1768 291.7785,495.0366 C 318.7469,494.5862 340.7786,498.7822 376.3413,500.0585 C 411.9038,501.3347 456.2887,520.2214 490.2135,524.5178 C 524.1383,528.8141 554.6901,527.9695 576.7606,537.0297 C 598.8312,546.09 623.051,542.6129 623.051,558.1809 z "
             style="font-size:12px;fill:url(#radialGradient2315);fill-rule:evenodd"
             transform="translate(299.3822,60.66899)" /><path
             transform="translate(368.4568,120.1445)"
             sodipodi:nodetypes="csccc"
             id="path622"
             d="M 259.8558,470.6394 C 260.1511,475.4503 361.5308,493.4897 346.4411,501.3292 C 334.6855,506.1399 237.1858,496.0345 220.8773,493.6722 C 188.2604,493.6722 187.8048,508.782 166.5439,501.3496 C 173.6309,490.3738 209.0658,490.3737 259.8558,470.6394 z "
             style="font-size:12px;fill:url(#radialGradient2317);fill-opacity:0.38670002;fill-rule:evenodd" /><path
             transform="translate(368.4568,120.1445)"
             sodipodi:nodetypes="ccccc"
             id="path812"
             d="M 442.9361,470.6393 C 413.407,474.4396 399.5725,473.5922 330.7256,454.6936 C 277.2339,454.6936 200.7976,453.1786 200.7976,441.1102 C 200.7976,429.0421 251.2483,439.3385 304.74,439.3385 C 351.1446,446.4255 405.1389,463.2958 442.9361,470.6393 z "
             style="font-size:12px;fill:url(#radialGradient2319);fill-rule:evenodd" /><path
             transform="translate(368.4568,120.1445)"
             sodipodi:nodetypes="ccccc"
             id="path649"
             d="M 414.393,546.905 C 409.6119,548.9971 397.8191,599.6645 340.0392,552.1516 C 348.9812,541.4106 327.1653,516.7407 331.9463,514.6487 C 373.2278,507.9403 409.6175,518.1041 422.3048,526.6822 C 433.811,552.9779 419.174,544.813 414.393,546.905 z "
             style="font-size:12px;fill:url(#radialGradient2321);fill-rule:evenodd" /></g></g><path
         transform="matrix(0.839828,0,0,0.845163,106.2727,81.11203)"
         sodipodi:nodetypes="csccssccssccscc"
         id="path884"
         d="M 554.0083,756.0596 C 569.5243,760.8857 681.9444,810.4762 648.9763,828.6939 C 609.6847,850.6514 503.7265,840.2653 495.2091,850.7666 C 466.25,876.0821 364.3198,869.6354 249.0715,869.6354 C 191.4473,869.6354 171.7356,821.2358 157.8276,802.0612 C 145.6612,784.9404 115.0771,787.9621 89.78176,781.0614 C 69.35163,775.2092 101.2143,761.4085 135.1443,751.8101 L 137.4324,747.5432 C 103.1716,752.1737 52.29753,776.7953 74.45045,784.4976 C 103.3595,793.8548 134.8666,792.4285 149.1981,810.5305 C 165.6281,830.4462 185.9805,879.453 247.368,879.453 C 373.5498,872.5807 467.9535,895.8058 507.1335,854.2029 C 519.0579,842.8204 627.1956,854.6606 658.3084,830.9759 C 689.6901,806.8408 569.1461,757.2115 549.0314,752.3258 L 554.0083,756.0596 z "
         style="font-size:12px;fill:#defff4;fill-opacity:0.75690002;fill-rule:evenodd" /><g
         id="g1575"><g
           style="font-size:12px"
           transform="matrix(0.839828,0,0,0.845163,106.2727,81.11203)"
           id="g1372"><path
             sodipodi:nodetypes="ccsccsscccssc"
             id="path900"
             d="M 322.8978,628.4386 C 331.8546,629.2715 344.1394,639.0536 359.1571,634.9061 C 368.5412,632.5624 371.7091,623.0933 380.6852,609.3696 C 382.3668,606.9156 384.4617,600.6691 403.3267,588.3566 C 409.0872,620.1812 458.7307,647.946 511.2412,730.0399 C 480.4489,727.5972 456.2117,716.9458 444.144,728.466 C 427.0725,746.0509 369.7115,737.7682 339.2596,739.5929 C 308.8076,741.4175 263.209,740.9003 240.9331,739.7333 C 236.3116,717.7678 225.3196,712.1794 199.392,707.5916 C 269.8495,700.9958 272.041,646.0359 275.7548,631.6609 C 292.054,633.4286 279.8304,617.9756 285.0667,618.6424 C 287.7408,619.0625 288.8452,623.9291 292.8773,625.5343 C 301.9444,628.5189 318.0808,627.9214 322.8978,628.4386 z "
             style="font-size:12px;fill:url(#linearGradient2323);fill-opacity:1;fill-rule:evenodd;stroke-width:1" /><path
             sodipodi:nodetypes="ccccccccccccccccccccsssssssssssssssc"
             id="path1273"
             d="M 294.2482,682.4463 C 295.4432,685.4842 301.4666,692.2512 303.5753,695.8235 C 306.4759,700.7379 309.678,706.2687 313.2516,710.7202 C 313.5905,711.1424 313.2294,709.6378 313.2147,709.0967 C 313.1138,705.411 313.2399,701.7805 313.0016,698.0811 C 312.9822,697.7794 313.5627,699.2257 314.1379,700.7293 C 318.1508,711.2166 319.7067,715.8867 328.7074,723.8271 C 331.414,726.2147 328.4722,716.9612 327.9121,712.489 C 327.7234,710.9814 328.6969,713.8366 330.4602,716.0355 C 332.1177,718.1028 341.4965,726.9055 343.4353,726.5553 C 343.8905,726.4731 344.709,722.2443 344.8593,721.7369 C 346.4253,716.4531 346.9375,711.8063 346.3478,706.3353 C 346.2168,705.1209 347.171,708.9665 348.2138,710.6636 C 357.7856,726.2433 352.5587,698.2273 353.1557,696.6046 C 360.3634,702.3201 362.056,705.4825 361.6894,697.2263 C 361.3886,690.4545 359.6702,683.7654 358.2417,677.1645 C 357.5117,673.7905 361.4604,680.6358 362.8616,681.9891 C 368.5505,687.4821 360.3692,666.4307 359.9197,662.869 C 359.6715,660.9044 365.9512,670.4916 364.9523,666.075 C 362.9392,660.3798 361.9457,659.3327 358.1388,658.5545 C 357.9583,658.6142 357.4692,658.9771 356.7353,659.5729 C 356.0015,660.1687 360.0289,671.6417 358.8693,672.6332 C 357.7098,673.6247 351.3632,664.1348 349.9054,665.3815 C 348.4476,666.6284 351.8547,682.7163 350.2261,684.0779 C 348.5975,685.4396 341.1747,675.977 339.5028,677.3131 C 337.8309,678.6493 342.7564,691.2703 341.1688,692.4405 C 339.5811,693.6107 332.2385,679.4281 330.8626,680.2921 C 329.4867,681.1559 339.6437,703.7225 338.6069,704.1396 C 337.7021,704.5033 325.2942,682.9608 324.1925,683.283 C 323.0907,683.6051 324.2223,688.5567 322.9605,688.8155 C 321.6984,689.0742 318.0428,684.64 316.6576,684.8135 C 315.2722,684.987 325.0114,705.6149 323.5397,705.6814 C 322.068,705.7479 309.3853,685.2529 307.8638,685.1904 C 306.3426,685.1281 311.0324,694.9959 309.4983,694.7827 C 307.9642,694.5695 300.2061,684.2753 298.696,683.8897 C 297.186,683.504 295.6973,683.0264 294.2482,682.4463 z "
             style="font-size:12px;fill:url(#linearGradient2325);fill-rule:evenodd;stroke-width:1" /><path
             sodipodi:nodetypes="cccssssssssssssssscs"
             id="path1210"
             d="M 237.1764,733.1216 C 240.1826,751.7932 248.3297,780.8523 220.5428,780.8523 C 192.756,780.8523 168.1704,774.634 168.1704,756.5121 C 168.1704,755.9458 168.1475,755.3193 168.104,754.6371 C 168.0605,753.9548 167.7311,750.7964 167.6144,749.9081 C 167.4977,749.0198 167.365,748.0843 167.2185,747.1059 C 167.072,746.1275 165.2405,751.0449 165.0687,749.985 C 164.8969,748.9251 166.385,741.888 166.1925,740.7553 C 166.0001,739.6226 164.1272,744.3943 163.9186,743.1973 C 163.7101,742.0004 165.1658,734.8348 164.9457,733.5823 C 164.7256,732.3298 162.8295,736.9903 162.6024,735.6908 C 162.3752,734.3913 163.8169,727.1318 163.5873,725.7939 C 163.3576,724.4561 161.4566,729.0399 161.2291,727.6723 C 161.0015,726.3047 162.4474,718.9858 162.2265,717.5971 C 162.0056,716.2084 160.1179,720.7499 159.9082,719.3488 C 159.6985,717.9476 161.1667,710.6036 160.9728,709.1987 C 160.7788,707.7936 158.9226,712.3275 158.749,710.9272 C 158.5753,709.5269 160.0842,702.1925 159.9354,700.8057 C 157.5546,678.6155 158.6472,658.6906 172.5406,658.6906 C 192.0098,661.1549 234.1095,714.0729 237.1764,733.1216 z "
             style="font-size:12px;fill:url(#radialGradient2327);fill-rule:evenodd"
             transform="matrix(0.971693,-0.270953,0.236248,1.114436,101.165,-48.08643)" /><g
             style="font-size:12px"
             id="g1252"><path
               sodipodi:nodetypes="ccccc"
               id="path1249"
               d="M 476.51,767.576 C 478.987,774.2067 480.6162,779.7236 483.4655,779.1309 C 481.531,755.3213 488.6358,762.1102 486.1589,755.4796 C 483.6767,754.0404 481.5546,753.8972 478.9491,754.3988 C 474.3041,756.134 475.0501,762.9242 476.51,767.576 z "
               style="font-size:12px;fill:url(#linearGradient2329);fill-rule:evenodd;stroke-width:1" /><path
               sodipodi:nodetypes="ccccc"
               id="path1248"
               d="M 499.491,765.3663 C 501.968,771.997 503.5972,777.5139 506.4465,776.9212 C 504.512,753.1116 511.6168,759.9005 509.1399,753.2699 C 506.6577,751.8307 504.5356,751.6875 501.9301,752.1891 C 497.2851,753.9243 498.0311,760.7145 499.491,765.3663 z "
               style="font-size:12px;fill:url(#linearGradient2331);fill-rule:evenodd;stroke-width:1" /><path
               sodipodi:nodetypes="ccccc"
               id="path1250"
               d="M 452.9972,765.2222 C 453.6724,772.2682 453.8172,778.0187 456.7227,778.1842 C 461.0207,754.686 466.1248,763.0834 465.4497,756.0375 C 463.425,754.0045 461.4123,753.3166 458.7658,753.1263 C 453.8299,753.5992 452.7919,760.351 452.9972,765.2222 z "
               style="font-size:12px;fill:url(#linearGradient2333);fill-rule:evenodd;stroke-width:1" /><path
               sodipodi:nodetypes="ccccc"
               id="path1251"
               d="M 434.037,756.8299 C 434.1887,763.9064 433.9074,769.652 436.7927,770.032 C 442.8184,746.9165 447.2869,755.6686 447.1352,748.5922 C 445.2665,746.4149 443.3103,745.5798 440.6852,745.1942 C 435.7278,745.3005 434.1928,751.9567 434.037,756.8299 z "
               style="font-size:12px;fill:url(#linearGradient2335);fill-rule:evenodd;stroke-width:1" /><path
               sodipodi:nodetypes="ccsscsscccssccc"
               id="path1209"
               d="M 433.1944,757.0492 C 433.1944,759.3145 432.6971,762.3177 434.3766,763.1696 C 436.13,757.0824 432.8557,762.2553 437.6,768.5713 C 442.3753,775.0398 455.2113,774.623 454.9988,770.0052 C 454.5883,761.3827 459.4024,753.1228 464.1226,753.497 C 457.4433,754.965 452.6234,767.8242 459.0704,772.9928 C 462.106,775.4807 476.476,774.3895 477.288,774.0012 C 481.9616,771.6104 479.9164,759.6468 482.9668,756.6582 C 480.9295,759.2561 478.3055,775.3305 487.6585,775.643 C 510.9442,776.893 502.4824,764.0758 504.8755,760.252 C 504.5951,764.4586 501.2467,776.9701 508.3024,771.5011 C 512.328,768.4085 517.9728,773.747 520.2659,769.8213 C 522.559,765.8957 523.8271,761.5797 523.8271,757.0492 C 523.8271,738.9274 503.5383,724.2367 478.5108,724.2367 C 453.4832,724.2367 433.1944,738.9274 433.1944,757.0492 z "
               style="font-size:12px;fill:url(#linearGradient2337);fill-rule:evenodd;stroke-width:1" /></g><g
             style="font-size:12px"
             transform="matrix(0.830457,0,0,0.887216,30.04368,85.24243)"
             id="g1264"><path
               sodipodi:nodetypes="ccccc"
               id="path1258"
               d="M 255.3464,734.4998 C 254.4598,741.5223 254.1423,747.266 251.233,747.344 C 247.643,723.7273 242.2889,731.9675 243.1754,724.9451 C 245.2604,722.9739 247.2927,722.3467 249.9438,722.236 C 254.8632,722.8571 255.6979,729.637 255.3464,734.4998 z "
               style="font-size:12px;fill:url(#linearGradient2339);fill-rule:evenodd;stroke-width:1" /><path
               sodipodi:nodetypes="ccccc"
               id="path1238"
               d="M 233.3338,741.467 C 233.2173,748.5443 233.5273,754.2883 230.6438,754.6828 C 224.503,731.5976 220.0782,740.3719 220.1946,733.2947 C 222.0525,731.1081 224.0045,730.2634 226.6276,729.8646 C 231.5855,729.9462 233.1537,736.5948 233.3338,741.467 z "
               style="font-size:12px;fill:url(#linearGradient2341);fill-rule:evenodd" /><path
               sodipodi:nodetypes="ccccc"
               id="path1239"
               d="M 207.2537,743.1089 C 206.1214,750.096 205.6027,755.825 202.6924,755.801 C 199.9328,732.0729 194.293,740.1203 195.4253,733.1333 C 197.5781,731.2364 199.6313,730.681 202.2844,730.6633 C 207.1792,731.4565 207.7757,738.2614 207.2537,743.1089 z "
               style="font-size:12px;fill:url(#linearGradient2343);fill-rule:evenodd" /><path
               sodipodi:nodetypes="ccccc"
               id="path1240"
               d="M 174.6683,743.4897 C 176.4594,750.3376 177.52,755.9913 180.4148,755.6909 C 180.9074,731.808 187.2863,739.2831 185.4953,732.4353 C 183.172,730.7515 181.0754,730.3937 178.4325,730.6281 C 173.6353,731.8829 173.6881,738.7137 174.6683,743.4897 z "
               style="font-size:12px;fill:url(#linearGradient2345);fill-rule:evenodd" /><path
               sodipodi:nodetypes="ccccc"
               id="path1241"
               d="M 157.4367,739.6992 C 157.5532,746.7765 157.2432,752.5205 160.1267,752.915 C 166.2675,729.8298 170.6923,738.6041 170.5759,731.5269 C 168.718,729.3403 166.766,728.4956 164.1429,728.0968 C 159.185,728.1784 157.6168,734.827 157.4367,739.6992 z "
               style="font-size:12px;fill:url(#linearGradient2347);fill-rule:evenodd" /><path
               sodipodi:nodetypes="ccsscsscccssccc"
               id="path1208"
               d="M 261.2503,755.7993 C 261.2503,758.0646 261.8024,761.0678 259.9378,761.9197 C 257.9911,755.8325 261.6264,761.0054 256.359,767.3214 C 251.0572,773.7899 236.806,773.3731 237.0419,768.7553 C 237.4977,760.1328 232.1529,751.8729 226.9122,752.2471 C 234.3279,753.7151 239.6792,766.5743 232.5214,771.7429 C 229.1512,774.2308 213.1969,773.1396 212.2953,772.7513 C 207.1065,770.3605 209.3771,758.3969 205.9904,755.4083 C 208.2523,758.0062 211.1656,774.0806 200.7815,774.3931 C 174.9285,775.6431 184.3232,762.8259 181.6663,759.0021 C 181.9776,763.2087 185.6951,775.7202 177.8615,770.2512 C 173.3921,767.1586 167.125,772.4971 164.579,768.5714 C 162.0331,764.6458 160.6252,760.3298 160.6252,755.7993 C 160.6252,737.6775 183.1509,722.9868 210.9377,722.9868 C 238.7246,722.9868 261.2503,737.6775 261.2503,755.7993 z "
               style="font-size:12px;fill:url(#linearGradient2349);fill-rule:evenodd"
               transform="translate(-5,-21.25003)" /></g><path
             sodipodi:nodetypes="cccccccccc"
             id="path1271"
             d="M 258.5002,738.4424 C 260.2899,734.4974 261.6488,727.03 263.7943,722.1498 C 262.8846,728.2054 267.4167,735.0461 269.6616,726.0571 C 271.2881,719.5432 272.3205,703.9785 272.1687,725.1259 C 272.1114,733.1215 278.5237,711.0949 278.4977,706.5191 C 278.3903,687.3914 279.4684,708.238 282.9637,712.7077 C 284.27,708.329 285.2089,700.2185 285.2018,697.3986 C 285.1912,693.1584 287.4796,679.6511 283.8713,677.0174 C 282.0685,684.7607 264.0826,719.2239 239.2844,710.0264 C 251.5047,714.5158 255.5551,726.4205 258.5002,738.4424 z "
             style="font-size:12px;fill:url(#linearGradient2351);fill-rule:evenodd;stroke-width:1" /></g><g
           transform="translate(0.417595,-3.051758e-5)"
           id="g1546"><g
             style="font-size:12px"
             transform="matrix(0.839828,0,0,0.845163,106.2727,81.11203)"
             id="g1202"><path
               transform="matrix(1,0,0,1.242969,0,-142.1379)"
               sodipodi:ry="14.584167"
               sodipodi:rx="17.898758"
               sodipodi:cy="570.42133"
               sodipodi:cx="328.14404"
               d="M 346.0428 570.42133 A 17.898758 14.584167 0 1 1  310.24529,570.42133 A 17.898758 14.584167 0 1 1  346.0428 570.42133 z"
               id="path936"
               style="font-size:12px;fill:url(#linearGradient2353);fill-rule:evenodd;stroke-width:1"
               sodipodi:type="arc" /><path
               sodipodi:nodetypes="ccccc"
               id="path898"
               d="M 288.1254,558.6117 C 288.1254,580.3578 275.4951,585.6384 267.737,596.8884 C 265.8311,591.844 266.0045,581.4117 267.5133,577.3617 C 253.7633,568.7405 247.5545,538.6117 262.1878,539.2367 C 283.0711,539.2367 286.2504,554.9905 288.1254,558.6117 z "
               style="font-size:12px;fill:url(#radialGradient620);fill-opacity:1;fill-rule:evenodd" /><g
               style="font-size:12px"
               id="g1034"><g
                 transform="translate(0,-1.325867)"
                 id="g927"><path
                   sodipodi:ry="8.8388977"
                   sodipodi:rx="7.2920837"
                   sodipodi:cy="571.08496"
                   sodipodi:cx="324.16605"
                   d="M 331.45813 571.08496 A 7.2920837 8.8388977 0 1 1  316.87396,571.08496 A 7.2920837 8.8388977 0 1 1  331.45813 571.08496 z"
                   id="path921"
                   style="fill:#f6f6f6;fill-opacity:1;fill-rule:evenodd;stroke:none;stroke-width:1pt;stroke-linecap:butt;stroke-linejoin:miter;stroke-opacity:1"
                   sodipodi:type="arc" /><path
                   transform="translate(-0.441933,-3.535645)"
                   sodipodi:ry="4.6404114"
                   sodipodi:rx="4.8613892"
                   sodipodi:cy="576.60925"
                   sodipodi:cx="323.94507"
                   d="M 328.80646 576.60925 A 4.8613892 4.6404114 0 1 1  319.08368,576.60925 A 4.8613892 4.6404114 0 1 1  328.80646 576.60925 z"
                   id="path922"
                   style="fill:url(#radialGradient2355);fill-opacity:1;fill-rule:evenodd;stroke:none;stroke-width:1pt;stroke-linecap:butt;stroke-linejoin:miter;stroke-opacity:1"
                   sodipodi:type="arc" /></g><g
                 id="g1031"><path
                   sodipodi:nodetypes="ccccc"
                   id="path935"
                   d="M 331.4581,571.085 C 331.4581,575.9665 327.2559,577.5801 323.2285,577.5801 C 319.2012,577.5801 316.874,575.9665 316.874,571.085 C 316.874,566.2034 320.5806,562.909 323.945,563.5719 C 327.9724,564.6768 331.4581,566.2034 331.4581,571.085 z "
                   style="font-size:12px;fill:#f6f6f6;fill-rule:evenodd"
                   transform="translate(-41.54276,-2.209732)" /><path
                   transform="translate(-41.98469,-5.745377)"
                   sodipodi:ry="4.6404114"
                   sodipodi:rx="4.8613892"
                   sodipodi:cy="576.60925"
                   sodipodi:cx="323.94507"
                   d="M 328.80646 576.60925 A 4.8613892 4.6404114 0 1 1  319.08368,576.60925 A 4.8613892 4.6404114 0 1 1  328.80646 576.60925 z"
                   id="path932"
                   style="font-size:12px;fill:url(#radialGradient723);fill-rule:evenodd;stroke-width:1"
                   sodipodi:type="arc" /></g></g><path
               sodipodi:nodetypes="ccccc"
               id="path919"
               d="M 258.5219,544.5178 C 256.8362,552.2318 259.9747,565.8448 263.7093,566.6609 C 267.4437,567.477 267.2185,567.6466 268.9042,559.9326 C 270.5899,552.2186 273.7257,547.654 269.9912,546.8379 C 266.2566,546.0218 260.7523,539.1743 258.5219,544.5178 z "
               style="font-size:12px;fill:url(#radialGradient2357);fill-rule:evenodd" /></g><g
             id="g1535"><path
               transform="matrix(0.839828,0,0,0.845163,106.2727,81.11203)"
               sodipodi:nodetypes="cscscsccscscscscsccc"
               id="path1203"
               d="M 334.3779,627.5148 C 334.3779,628.8632 333.9946,630.3311 333.2878,631.8674 C 332.5812,633.4037 330.437,641.5712 329.1437,643.1935 C 327.8503,644.816 327.4075,639.8935 325.6473,641.5002 C 323.8872,643.1069 324.1516,645.9304 319.074,649.6069 C 316.967,651.0959 318.43,645.0009 313.1256,650.3329 C 312.2022,651.2067 310.736,654.5421 308.453,656.0197 C 306.9125,651.5598 303.0699,657.1172 303.3349,659.3102 C 296.4384,659.6335 296.6423,655.4187 294.1463,655.6082 C 291.3475,655.8207 292.2984,656.4213 291.8609,660.1713 C 287.3386,660.1713 288.7589,655.7091 285.3502,656.1356 C 282.0845,656.504 283.8197,659.2429 282.4408,658.5291 C 281.062,657.8151 278.0269,652.8917 277.0205,651.915 C 276.0139,650.9384 277.0359,654.846 276.3446,653.6694 C 275.6534,652.4929 273.2489,646.232 272.8159,644.9183 C 272.383,643.6046 273.1789,647.2379 272.9472,645.8499 C 272.7156,644.4617 271.4564,638.0522 271.3691,636.6526 C 271.2818,635.253 271.2523,633.8633 271.2523,632.5149 C 271.2523,621.728 273.5064,625.4836 291.8609,625.4836 C 310.2154,625.4836 334.3779,616.7279 334.3779,627.5148 z "
               style="font-size:12px;fill:url(#linearGradient907);fill-rule:evenodd" /><path
               transform="matrix(0.839828,0,0,0.845163,106.2727,81.11203)"
               sodipodi:nodetypes="cscccc"
               id="path1201"
               d="M 307.6477,634.0451 C 305.8799,639.2928 296.442,652.3326 292.7158,649.563 C 286.945,645.9308 285.3413,648.2632 280.5818,648.2632 C 273.5627,648.5757 274.7828,641.3175 274.7828,630.8221 C 274.7828,620.3267 277.3923,624.0765 286.9114,624.0765 C 296.4305,624.0765 312.951,623.5497 307.6477,634.0451 z "
               style="font-size:12px;fill:#333333;fill-rule:evenodd" /><path
               transform="matrix(0.528691,4.26828e-2,-0.143181,0.403416,335.222,445.2067)"
               sodipodi:nodetypes="ccccc"
               id="path859"
               d="M 91.26164,437.5162 C 89.50661,442.201 81.17732,440.7337 72.39505,437.8087 C 72.09541,434.8836 79.26892,437.8134 79.26892,433.1287 C 79.26892,430.7838 74.43546,428.741 72.98006,423.7684 C 84.39487,429.6185 92.43167,435.1714 91.26164,437.5162 z "
               style="font-size:12px;fill:#ab8080;fill-rule:evenodd" /><path
               transform="matrix(0.528691,4.26828e-2,-0.143181,0.403416,335.222,445.2067)"
               sodipodi:nodetypes="csccccc"
               id="path852"
               d="M 222.8887,433.7143 C 197.4407,430.1793 169.534,433.4217 127.5322,439.2718 C 106.6604,441.5974 90.84431,444.0732 81.28036,442.8285 C 76.49839,442.2061 73.38086,440.5998 71.77308,437.687 C 94.25214,444.6657 100.6009,436.1901 72.54124,424.0616 C 89.08781,403.9124 98.76747,390.1311 127.5322,390.1311 C 150.8137,390.1311 184.5705,400.1014 222.8887,433.7143 z "
               style="font-size:12px;fill:url(#linearGradient2359);fill-rule:evenodd" /><path
               sodipodi:nodetypes="cccsc"
               id="path856"
               d="M 185.4483,440.1489 C 185.4483,445.803 182.6981,450.3866 179.3057,450.3866 C 175.9132,450.3866 173.1631,445.803 173.1631,440.1489 C 173.1631,434.4948 174.95,429.247 178.6415,430.8745 C 181.5045,432.6941 185.4483,434.4948 185.4483,440.1489 z "
               style="font-size:12px;fill:url(#linearGradient2361);fill-rule:evenodd"
               transform="matrix(0.516514,-0.193895,0.182286,0.35633,195.4983,507.2462)" /><path
               transform="matrix(0.681982,9.227997e-2,-0.205179,0.396738,339.5629,442.0069)"
               sodipodi:nodetypes="ccccc"
               id="path857"
               d="M 133.3823,416.456 C 133.3823,424.5333 129.4402,430.4963 127.5323,432.8363 C 125.9168,432.8363 131.0423,424.5333 131.0423,416.456 C 131.0423,408.3787 125.3318,403.5857 126.9473,403.5857 C 130.6102,404.1707 133.3823,408.3787 133.3823,416.456 z "
               style="font-size:12px;fill:url(#linearGradient2363);fill-rule:evenodd" /><path
               transform="matrix(0.528691,4.26828e-2,-0.143181,0.403416,335.222,445.2067)"
               sodipodi:nodetypes="cccsc"
               id="path858"
               d="M 141.9884,438.7913 C 146.9253,443.1734 148.5897,447.7658 146.0665,450.8525 C 143.5433,453.9394 137.4956,452.8891 132.5587,448.5069 C 127.6217,444.1248 123.081,436.0667 128.5352,436.3341 C 134.4155,436.6387 137.6365,437.0417 141.9884,438.7913 z "
               style="font-size:12px;fill:url(#linearGradient2365);fill-rule:evenodd" /><path
               transform="matrix(0.528691,4.26828e-2,-0.143181,0.403416,335.222,445.2067)"
               sodipodi:ry="8.482666"
               sodipodi:rx="4.0950699"
               sodipodi:cy="417.91852"
               sodipodi:cx="115.83204"
               d="M 119.92711 417.91852 A 4.0950699 8.482666 0 1 1  111.73697,417.91852 A 4.0950699 8.482666 0 1 1  119.92711 417.91852 z"
               id="path854"
               style="font-size:12px;fill:url(#radialGradient734);fill-rule:evenodd"
               sodipodi:type="arc" /><path
               transform="matrix(0.839828,0,0,0.845163,106.2727,81.11203)"
               sodipodi:nodetypes="cccc"
               id="path1205"
               d="M 296.5653,647.2022 C 296.5653,649.5322 291.5652,649.6884 291.2527,647.3585 C 290.9402,645.0285 292.0105,640.9522 293.1277,641.1085 C 294.4012,641.1085 295.4715,644.4035 296.5653,647.2022 z "
               style="font-size:12px;fill:url(#linearGradient2367);fill-rule:evenodd" /><path
               sodipodi:nodetypes="cccc"
               id="path1207"
               d="M 336.5716,611.0863 C 336.9308,608.7842 341.8952,609.4006 341.8449,611.7509 C 341.7945,614.1012 340.1085,617.9638 339.0288,617.6371 C 337.7705,617.4408 337.2209,614.0202 336.5716,611.0863 z "
               style="font-size:12px;fill:url(#linearGradient1032);fill-rule:evenodd;stroke-width:1" /></g><g
             style="font-size:12px"
             transform="matrix(0.839828,0,0,0.845163,106.2727,81.11203)"
             id="g1213"><path
               sodipodi:nodetypes="cccccccccccccccccccccccccccccccccccccccccccccccccccccccccc"
               id="path926"
               d="M 339.3754,570.7991 C 339.3754,575.8042 344.1619,572.9866 331.5629,572.9866 C 318.9639,572.9866 316.2504,578.9292 316.2504,573.9241 C 316.2504,568.9191 310.1144,553.6583 322.7135,554.5729 C 335.3125,555.7924 339.3754,565.7941 339.3754,570.7991 z M 386.2535,546.5704 C 389.0207,549.4432 408.8694,544.5944 411.5848,556.7393 C 417.3425,584.4679 397.5044,591.1412 390.5465,599.2819 C 386.6534,604.1458 382.2415,616.5178 378.5036,622.2172 C 380.849,618.8671 380.6879,611.1388 380.2133,611.8472 C 378.8526,613.7695 376.7542,625.4448 376.2652,626.1421 C 375.7761,626.8394 375.9221,619.731 375.4014,620.4019 C 374.0136,622.3007 373.7604,629.886 373.2389,630.5517 C 372.7174,631.2173 372.5221,625.3307 371.9572,625.9542 C 370.8631,627.0398 370.5505,633.792 369.9859,634.4095 C 369.4212,635.0271 369.3089,629.2233 368.5668,629.6553 C 366.8212,630.9311 366.4355,637.6887 365.8171,638.2416 C 365.4771,638.5757 365.878,631.8777 363.9617,633.2556 C 362.6901,634.2891 362.4373,640.3961 361.7614,640.668 C 361.0857,640.9399 361.5568,634.1786 359.9235,634.8854 C 358.1569,635.5303 358.065,641.931 357.2466,642.153 C 356.4282,642.3749 356.863,635.5967 355.0294,636.2153 C 352.8681,637.0444 353.9043,643.1524 353.0082,643.3176 C 352.1121,643.4827 351.5745,636.9622 349.669,637.2044 C 347.0999,637.551 348.4696,644.0195 347.5606,644.121 C 346.6518,644.2226 345.7881,637.8246 344.2318,637.8121 C 340.9099,637.7811 343.0878,644.179 342.231,644.2101 C 341.3742,644.2413 339.9135,638.0005 339.1071,637.9974 C 337.3063,637.9908 338.461,644.5275 337.7213,644.4814 C 336.9814,644.4354 336.8704,638.0623 334.6846,637.7195 C 333.4723,637.5467 333.7286,644.0868 333.1708,643.9568 C 332.6129,643.8268 331.3574,632.0208 329.4786,631.6253 C 328.8763,631.4254 330.9309,639.2516 330.2939,639.0706 C 329.6569,638.8896 328.2065,631.1433 325.6607,630.5385 C 324.993,630.3756 325.3054,637.182 324.6111,637.0363 C 322.6668,635.0156 324.6466,630.1242 321.4992,629.6635 C 320.7823,629.5341 320.7183,634.6057 319.9831,634.4918 C 319.2479,634.3781 320.4821,631.2396 318.1857,630.6985 C 317.4518,630.5168 318.9248,635.4791 318.165,635.3938 C 317.4052,635.3084 314.0066,634.0524 311.5996,633.4667 C 307.9881,632.5077 310.9754,636.837 309.853,636.2219 C 308.4191,635.3654 304.9087,632.9847 303.7724,632.9766 C 302.0111,632.9651 303.7178,635.6323 302.5616,635.6459 C 301.4055,635.6595 299.1054,633.0198 296.6744,633.0198 C 288.8727,633.6448 284.7503,618.9923 284.287,619.1677 C 283.8082,619.2347 289.6383,627.5756 286.6819,630.371 C 285.2208,631.6451 283.4037,632.4355 281.6224,632.7238 C 279.8412,633.012 278.0958,632.7981 276.778,632.0635 C 275.3186,631.2767 272.2607,628.2825 272.4939,632.689 C 271.4667,631.3546 270.9998,629.2952 270.6903,627.5966 C 270.5355,626.7473 270.862,630.1038 270.4041,629.543 C 269.6148,627.8773 270.0298,623.9515 269.8309,623.3429 C 268.2402,618.4738 267.4963,611.0133 267.9651,599.0747 C 267.34,585.1049 282.8672,583.9645 286.8687,563.6502 C 290.8704,543.3359 268.9715,567.5976 272.8696,553.8066 C 277.2834,535.2096 279.2038,539.6552 286.7776,533.1471 C 300.0344,522.9179 311.7764,523.6662 333.1525,524.0254 C 348.9948,524.2916 374.3335,521.8851 386.2535,546.5704 z "
               style="font-size:12px;fill:url(#linearGradient614);fill-opacity:1;fill-rule:evenodd" /><path
               sodipodi:nodetypes="ccsss"
               id="path904"
               d="M 296.3954,602.6742 C 294.2949,617.7371 281.6096,607.9868 285.3285,621.5569 C 274.9659,607.6867 272.5003,612.7446 270.6253,607.6742 C 269.2296,602.0128 268.4781,596.1508 278.1253,596.7367 C 288.4153,596.7367 297.3506,595.8253 296.3954,602.6742 z "
               style="font-size:12px;fill:url(#radialGradient615);fill-rule:evenodd" /><path
               sodipodi:nodetypes="ccccc"
               id="path918"
               d="M 320.8503,594.5098 C 311.5695,592.209 312.6714,599.813 304.0565,618.3746 C 305.6061,597.6033 299.637,595.7444 294.7756,594.5098 C 313.3372,593.2749 304.2803,579.0417 308.9178,579.0417 C 313.5553,579.0417 314.6631,588.4135 320.8503,594.5098 z "
               style="font-size:12px;fill:url(#linearGradient758);fill-rule:evenodd" /><path
               sodipodi:nodetypes="ccccc"
               id="path909"
               d="M 407.6077,558.7106 C 407.6077,567.0689 402.8438,579.6655 396.9672,579.6655 C 391.0907,579.6655 387.3907,579.2926 387.3907,570.9343 C 387.3907,562.576 386.8345,557.5465 392.711,557.5465 C 398.5876,557.5465 406.0116,552.6807 407.6077,558.7106 z "
               style="font-size:12px;fill:url(#radialGradient713);fill-rule:evenodd" /></g><path
             transform="matrix(0.528691,4.26828e-2,-0.143181,0.403416,335.222,445.2067)"
             sodipodi:nodetypes="ccccccc"
             id="path853"
             d="M 230.9704,435.9243 C 226.3629,452.081 249.6763,474.1089 230.5097,468.643 C 211.3431,463.1771 200.4059,448.0971 205.0134,431.9404 C 213.6532,432.0462 215.9609,431.8711 221.8999,433.0772 C 215.307,427.3605 213.7166,426.3406 208.509,422.3192 C 210.4544,414.0024 237.6116,407.4016 247.1949,410.1345 C 266.3614,415.6003 235.5779,419.7678 230.9704,435.9243 z "
             style="font-size:12px;fill:url(#linearGradient1226);fill-rule:evenodd" /></g></g></g></g></svg>