<?xml version="1.0" encoding="UTF-8" standalone="no"?>
<!-- Created with Sodipodi ("http://www.sodipodi.com/") -->
<svg
   xmlns:dc="http://purl.org/dc/elements/1.1/"
   xmlns:cc="http://web.resource.org/cc/"
   xmlns:rdf="http://www.w3.org/1999/02/22-rdf-syntax-ns#"
   xmlns:svg="http://www.w3.org/2000/svg"
   xmlns="http://www.w3.org/2000/svg"
   xmlns:xlink="http://www.w3.org/1999/xlink"
   xmlns:sodipodi="http://sodipodi.sourceforge.net/DTD/sodipodi-0.dtd"
   xmlns:inkscape="http://www.inkscape.org/namespaces/inkscape"
   id="svg1276"
   sodipodi:version="0.32"
   width="799.99994"
   height="519.99988"
   xml:space="preserve"
   sodipodi:docbase="/home/franck/Dessins/Vectoriels/Animaux"
   sodipodi:docname="phoque2.svg"
   inkscape:version="0.45"
   inkscape:output_extension="org.inkscape.output.svg.inkscape"
   sodipodi:modified="true"
   version="1.0"><metadata
     id="metadata65"><rdf:RDF><cc:Work
         rdf:about=""><dc:format>image/svg+xml</dc:format><dc:type
           rdf:resource="http://purl.org/dc/dcmitype/StillImage" /></cc:Work></rdf:RDF></metadata><defs
     id="defs1278"><linearGradient
       id="linearGradient1418"><stop
         style="stop-color:#00b7c5;stop-opacity:0.2471;"
         offset="0"
         id="stop1419" /><stop
         style="stop-color:#00a2af;stop-opacity:0.7725;"
         offset="1"
         id="stop1420" /></linearGradient><linearGradient
       id="linearGradient1340"><stop
         style="stop-color:#7a6f6a;stop-opacity:1;"
         offset="0"
         id="stop1341" /><stop
         style="stop-color:#d5d7d7;stop-opacity:1;"
         offset="1"
         id="stop1342" /></linearGradient><linearGradient
       id="linearGradient1310"><stop
         style="stop-color:#917d6a;stop-opacity:1;"
         offset="0"
         id="stop1311" /><stop
         style="stop-color:#d5d7d7;stop-opacity:1;"
         offset="1"
         id="stop1312" /></linearGradient><linearGradient
       id="linearGradient1294"><stop
         style="stop-color:#ffffff;stop-opacity:1;"
         offset="0"
         id="stop1295" /><stop
         style="stop-color:#000000;stop-opacity:1;"
         offset="1"
         id="stop1296" /></linearGradient><linearGradient
       id="linearGradient1290"><stop
         style="stop-color:#000;stop-opacity:1;"
         offset="0"
         id="stop1291" /><stop
         style="stop-color:#fff;stop-opacity:1;"
         offset="1"
         id="stop1292" /></linearGradient><radialGradient
       xlink:href="#linearGradient1294"
       id="radialGradient1293"
       cx="0.23490646"
       cy="0.67961925"
       r="0.31695923"
       fx="0.23490646"
       fy="0.67961925"
       gradientTransform="translate(1.131304e-6,-1.427266e-6)" /><linearGradient
       xlink:href="#linearGradient1310"
       id="linearGradient1309"
       x1="0.48333228"
       y1="0.9765625"
       x2="1.6833333"
       y2="-0.5078125" /><radialGradient
       xlink:href="#linearGradient1340"
       id="radialGradient1313"
       cx="0.49999586"
       cy="0.51562506"
       r="2.2125902"
       fx="0.49999586"
       fy="0.51562506" /><radialGradient
       xlink:href="#linearGradient1290"
       id="radialGradient1314"
       cx="0.48029411"
       cy="0.80467725"
       r="1.7348132"
       fx="0.48029411"
       fy="0.80467725" /><linearGradient
       xlink:href="#linearGradient1310"
       id="linearGradient1315"
       x1="0.85713553"
       y1="0.49215874"
       x2="-0.35714298"
       y2="0.64062476" /><linearGradient
       xlink:href="#linearGradient1310"
       id="linearGradient1316"
       x1="0.062503137"
       y1="0.67983341"
       x2="1.0892856"
       y2="-0.74218649" /><linearGradient
       xlink:href="#linearGradient1310"
       id="linearGradient1317"
       x1="-0.5114069"
       y1="0.74239957"
       x2="2.6009414"
       y2="0.023015978" /><linearGradient
       xlink:href="#linearGradient1310"
       id="linearGradient1320"
       x1="1.2272835"
       y1="0.38289225"
       x2="-1.2045466"
       y2="0.68750167" /><linearGradient
       xlink:href="#linearGradient1310"
       id="linearGradient1323"
       x1="0.47367617"
       y1="0.22656667"
       x2="1.0789475"
       y2="-0.57812488" /><linearGradient
       xlink:href="#linearGradient1310"
       id="linearGradient1326"
       x1="-0.060972467"
       y1="0.9765625"
       x2="1.4939024"
       y2="-1.390625" /><linearGradient
       xlink:href="#linearGradient1310"
       id="linearGradient1339"
       x1="0.38888532"
       y1="0.53905857"
       x2="1.5555561"
       y2="0.41406244" /><linearGradient
       xlink:href="#linearGradient1418"
       id="linearGradient1417"
       x1="0.48245615"
       y1="0.10937124"
       x2="0.46052632"
       y2="0.71093702" /><linearGradient
       inkscape:collect="always"
       xlink:href="#linearGradient1310"
       id="linearGradient2239"
       x1="334.89563"
       y1="721.4386"
       x2="661.99615"
       y2="316.82236"
       gradientTransform="scale(0.9502481,1.0523568)"
       gradientUnits="userSpaceOnUse" /><linearGradient
       inkscape:collect="always"
       xlink:href="#linearGradient1310"
       id="linearGradient2241"
       x1="192.94312"
       y1="595.07263"
       x2="71.29454"
       y2="609.94623"
       gradientTransform="scale(0.9545859,1.0475747)"
       gradientUnits="userSpaceOnUse" /><linearGradient
       inkscape:collect="always"
       xlink:href="#linearGradient1310"
       id="linearGradient2243"
       x1="160.89667"
       y1="859.55096"
       x2="463.50537"
       y2="398.85052"
       gradientTransform="scale(1.1307192,0.8843929)"
       gradientUnits="userSpaceOnUse" /><linearGradient
       inkscape:collect="always"
       xlink:href="#linearGradient1310"
       id="linearGradient2245"
       x1="237.51802"
       y1="874.25836"
       x2="381.78644"
       y2="674.45703"
       gradientTransform="scale(1.3205365,0.757268)"
       gradientUnits="userSpaceOnUse" /><linearGradient
       inkscape:collect="always"
       xlink:href="#linearGradient1310"
       id="linearGradient2247"
       x1="657.44122"
       y1="384.42941"
       x2="762.86127"
       y2="373.1348"
       gradientTransform="scale(0.6778659,1.475218)"
       gradientUnits="userSpaceOnUse" /><linearGradient
       inkscape:collect="always"
       xlink:href="#linearGradient1310"
       id="linearGradient2249"
       x1="895.75824"
       y1="304.38452"
       x2="716.55084"
       y2="326.83191"
       gradientTransform="scale(0.5528039,1.8089599)"
       gradientUnits="userSpaceOnUse" /><linearGradient
       inkscape:collect="always"
       xlink:href="#linearGradient1310"
       id="linearGradient2251"
       x1="781.24292"
       y1="280.20306"
       x2="804.02814"
       y2="249.91071"
       gradientTransform="scale(0.5334034,1.8747537)"
       gradientUnits="userSpaceOnUse" /><linearGradient
       inkscape:collect="always"
       xlink:href="#linearGradient1310"
       id="linearGradient2253"
       x1="581.19305"
       y1="380.67068"
       x2="799.9375"
       y2="330.11044"
       gradientTransform="scale(0.6483586,1.5423564)"
       gradientUnits="userSpaceOnUse" /><linearGradient
       inkscape:collect="always"
       xlink:href="#linearGradient1418"
       id="linearGradient2255"
       x1="193.25394"
       y1="815.20807"
       x2="187.19662"
       y2="981.36877"
       gradientTransform="scale(1.3912636,0.718771)"
       gradientUnits="userSpaceOnUse" /><radialGradient
       inkscape:collect="always"
       xlink:href="#linearGradient1294"
       id="radialGradient2257"
       gradientTransform="scale(1.025977,0.9746807)"
       cx="259.90839"
       cy="535.50891"
       fx="259.90839"
       fy="535.50891"
       r="3.8703589"
       gradientUnits="userSpaceOnUse" /><radialGradient
       inkscape:collect="always"
       xlink:href="#linearGradient1294"
       id="radialGradient2259"
       gradientTransform="scale(1.025977,0.9746807)"
       cx="259.90839"
       cy="535.50891"
       fx="259.90839"
       fy="535.50891"
       r="3.8703589"
       gradientUnits="userSpaceOnUse" /><radialGradient
       inkscape:collect="always"
       xlink:href="#linearGradient1340"
       id="radialGradient2261"
       cx="180.98524"
       cy="702.36951"
       fx="180.98524"
       fy="702.36951"
       r="136.41203"
       gradientTransform="scale(1.3140588,0.7610009)"
       gradientUnits="userSpaceOnUse" /><radialGradient
       inkscape:collect="always"
       xlink:href="#linearGradient1290"
       id="radialGradient2263"
       cx="212.87097"
       cy="583.24658"
       fx="212.87097"
       fy="583.24658"
       r="47.984882"
       gradientTransform="scale(1.0889238,0.9183379)"
       gradientUnits="userSpaceOnUse" /></defs><sodipodi:namedview
     id="base"
     inkscape:zoom="0.31834771"
     inkscape:cx="372.04724"
     inkscape:cy="470.94846"
     inkscape:window-width="822"
     inkscape:window-height="592"
     inkscape:window-x="3"
     inkscape:window-y="25"
     inkscape:current-layer="svg1276" /><g
     id="g2210"
     transform="matrix(0.8,0,0,0.8,57.230737,-213.0626)"><rect
       y="266.32825"
       x="-71.538422"
       height="649.99988"
       width="999.99994"
       id="rect1279"
       style="font-size:12px;fill:#00a4b0;fill-opacity:1;fill-rule:evenodd;stroke-width:1" /><g
       id="g1878"><g
         id="g1869"><path
           transform="matrix(0.824696,-3.321299e-2,3.063481e-2,0.894102,85.14103,107.3824)"
           sodipodi:nodetypes="ccssssssc"
           id="path1283"
           d="M 310.0553,561.5891 C 311.7257,572.7867 340.4796,573.1722 370.5783,603.2397 C 375.6422,606.0272 400.3238,606.8594 403.983,607.1429 C 412.8689,608.1265 429.2738,610.5966 433.8031,610.9558 C 435.7515,610.9626 453.1571,617.7111 452.0078,622.2361 C 439.4239,670.9449 270.7727,885.2631 197.3742,675.5348 C 189.5021,653.2206 194.44,598.3969 196.0731,584.6217 C 199.1647,558.5431 180.083,488.0232 238.595,480.0888 C 298.3837,471.8986 305.3307,514.8233 310.0553,561.5891 z "
           style="font-size:12px;fill:url(#linearGradient2239);fill-opacity:1;fill-rule:evenodd" /><path
           transform="matrix(0.824696,-3.321299e-2,3.063481e-2,0.894102,85.14103,107.3824)"
           sodipodi:nodetypes="ccccs"
           id="path1304"
           d="M 194.1216,644.4517 C 194.0708,647.2107 193.883,618.0535 186.2516,618.0535 C 126.8864,651.4619 117.0374,703.5838 102.2111,660.1424 C 120.5857,608.2831 164.3695,562.4824 197.8432,573.3402 C 194.061,602.0833 193.7308,633.599 194.1216,644.4517 z "
           style="font-size:12px;fill:url(#linearGradient2241);fill-opacity:1;fill-rule:evenodd" /><path
           transform="matrix(0.824696,-3.321299e-2,3.063481e-2,0.894102,85.14103,107.3824)"
           sodipodi:nodetypes="cscsss"
           id="path1325"
           d="M 319.05,680.2763 C 352.341,752.2132 419.4432,623.071 415.2156,672.4252 C 415.0641,683.9453 345.6537,763.3796 287.312,764.2148 C 245.7975,764.2148 207.132,718.083 197.1095,669.4186 C 188.0816,621.5989 215.5089,590.4543 238.8699,592.1617 C 272.6466,594.6304 313.9214,669.194 319.05,680.2763 z "
           style="font-size:12px;fill:url(#linearGradient2243);fill-opacity:1;fill-rule:evenodd" /><path
           transform="matrix(0.824696,-3.321299e-2,3.063481e-2,0.894102,85.14103,107.3824)"
           sodipodi:nodetypes="cccsscs"
           id="path1306"
           d="M 486.9268,683.6175 C 476.4482,716.5334 467.8776,674.0126 409.5266,674.0126 C 380.3511,674.0126 370.5153,658.7582 348.7677,654.1144 C 342.078,652.9426 331.2478,649.2146 319.0497,640.1867 C 314.3478,636.5298 309.7018,623.9193 305.8776,613.1754 C 292.48,574.9451 318.0441,594.6381 325.0866,595.8909 C 384.0284,598.8437 497.3285,650.9429 486.9268,683.6175 z "
           style="font-size:12px;fill:url(#linearGradient2245);fill-opacity:1;fill-rule:evenodd" /><path
           transform="matrix(0.824696,-3.321299e-2,3.063481e-2,0.894102,85.93214,110.3417)"
           sodipodi:nodetypes="cscssccs"
           id="path1331"
           d="M 451.0132,510.7288 C 454.3513,510.3483 469.4417,496.6481 474.0383,496.9757 C 500.6934,499.7112 461.536,609.7686 445.5886,628.5608 C 448.9136,608.9241 445.892,612.3674 423.9651,610.8527 C 411.8887,610.0071 456.0862,614.4186 435.1897,588.9708 C 426.4684,578.1976 425.9569,557.1436 425.9569,539.9611 C 425.9569,524.806 432.0641,494.4423 438.0674,495.2774 C 441.5652,495.2774 445.1613,511.3957 451.0132,510.7288 z "
           style="font-size:12px;fill:url(#linearGradient2247);fill-rule:evenodd" /><path
           transform="matrix(0.824696,-3.321299e-2,3.063481e-2,0.894102,85.93214,110.3417)"
           sodipodi:nodetypes="ccsccc"
           id="path1319"
           d="M 479.7797,499.5773 C 489.229,518.4952 489.7898,588.8478 466.8883,591.2101 C 458.5381,605.9748 444.902,635.9804 445.1866,632.6241 C 446.038,617.3575 452.7144,602.5886 452.1238,574.9691 C 446.218,554.8701 447.4291,527.9252 456.1564,533.8311 C 477.8767,558.6356 486.8667,520.819 479.7797,499.5773 z "
           style="font-size:12px;fill:url(#linearGradient2249);fill-rule:evenodd" /><path
           transform="matrix(0.939226,-0.12497,0.108555,0.958957,-9.120029,104.0455)"
           id="path1322"
           d="M 427.2861,544.6091 C 427.2861,564.0977 422.7911,579.8964 417.2462,579.8964 C 411.7014,579.8964 407.2063,564.0977 407.2063,544.6091 C 407.2063,525.1205 411.7014,509.3219 417.2462,509.3219 C 422.7911,509.3219 427.2861,525.1205 427.2861,544.6091 z "
           style="font-size:12px;fill:url(#linearGradient2251);fill-rule:evenodd" /><path
           transform="matrix(0.939226,-0.12497,0.108555,0.958957,-9.120029,104.0455)"
           sodipodi:nodetypes="csccsscc"
           id="path1308"
           d="M 444.0056,506.653 C 448.6238,520.0687 442.9924,537.7761 436.4511,555.7972 C 426.4138,582.6364 439.1849,598.4844 430.3381,614.1066 C 423.8572,616.9719 414.9759,612.8015 405.7617,608.7436 C 414.0488,606.6818 419.4669,599.7747 419.0585,595.4609 C 418.2279,586.1836 415.8553,581.8381 406.0444,566.0528 C 402.8409,560.7385 392.3659,532.2473 410.5187,520.054 C 418.2266,533.6402 429.239,525.4467 444.0056,506.653 z "
           style="font-size:12px;fill:url(#linearGradient2253);fill-opacity:1;fill-rule:evenodd" /></g><g
         style="font-size:12px"
         id="g1794"><path
           transform="matrix(0.825265,0,0,0.894718,121.9546,100.351)"
           sodipodi:nodetypes="ccccccccccccsscssccccscccsc"
           id="path1416"
           d="M 382.109,599.6777 C 383.3618,599.8833 407.6844,591.9789 388.92,568.2453 C 391.7668,571.6561 408.1119,582.5193 411.4717,575.2628 C 414.9547,587.3721 414.415,597.3692 411.5844,602.1734 L 413.8957,602.8735 C 421.2757,599.2902 420.799,592.5681 413.4035,583.7433 C 412.5174,579.325 409.825,568.7496 409.66,565.1837 C 420.8154,562.7095 425.8531,565.808 428.4798,566.1836 C 428.9656,567.8878 429.4409,574.5193 429.8081,576.864 C 440.2872,578.1575 456.3336,572.8629 458.2599,568.5049 C 456.6211,575.5347 451.2505,584.1893 445.0208,584.5428 C 439.1461,596.8599 426.4491,624.0311 425.2451,626.7818 C 436.8072,633.696 468.7284,652.7709 467.7292,668.6157 C 467.8758,672.9131 464.6185,685.9928 458.4593,686.0208 C 451.9005,686.2729 429.606,667.121 402.363,666.7034 C 343.9449,748.5541 290.2753,766.2139 259.8815,762.2532 C 218.3361,756.8665 187.8234,710.6042 175.2554,667.7049 C 171.0995,653.5882 173.4106,622.6804 165.8202,618.5357 C 163.4489,617.722 95.54813,714.8033 83.82414,666.6828 C 79.77671,651.4313 111.0666,602.4326 125.4037,588.6972 C 141.36,594.1782 151.7926,591.5991 172.5917,590.1871 C 168.2184,611.379 180.817,611.0842 215.1977,609.7823 C 248.3363,609.3627 265.6437,606.3595 280.6309,598.8426 C 305.5839,602.0871 303.7381,599.7577 296.7867,589.3196 C 310.0207,588.5943 320.3591,577.1354 311.1834,572.23 C 325.2756,579.2193 332.39,582.7236 346.8474,595.0692 C 352.7202,600.1147 371.2512,599.0579 382.109,599.6777 z "
           style="font-size:12px;fill:url(#linearGradient2255);fill-opacity:0.44750001;fill-rule:evenodd" /><path
           transform="matrix(0.825265,0,0,0.894718,121.9546,100.351)"
           sodipodi:nodetypes="ccccccccccc"
           id="path1620"
           d="M 170.4843,543.9086 C 134.0156,544.4921 91.65733,554.2681 87.43722,585.4017 C 83.21716,616.5352 142.5369,646.3789 219.9315,652.0594 C 297.3261,657.7399 363.4879,637.1062 367.7081,605.9725 C 371.9282,574.8391 338.8101,553.9822 284.8013,547.0488 L 285.0793,551.4019 C 338.6266,559.0562 362.0692,579.268 356.6628,605.7938 C 351.2564,632.3196 289.9233,648.6337 219.6718,642.2321 C 149.4202,635.8307 96.85291,609.1377 102.2594,582.6118 C 107.6657,556.0861 145.6126,548.1241 171.18,547.4264 L 170.4843,543.9086 z "
           style="font-size:12px;fill:#a1eaf0;fill-rule:evenodd" /><path
           transform="matrix(0.825265,0,0,0.894718,121.9546,100.351)"
           sodipodi:nodetypes="ccccccccccc"
           id="path1621"
           d="M 168.8991,533.6832 C 105.2416,536.3244 34.77379,552.6624 29.04763,599.0512 C 23.32154,645.4399 103.811,689.9067 208.8258,698.3706 C 313.8407,706.8345 403.614,676.0905 409.3402,629.7015 C 415.0663,583.313 356.5457,544.5587 283.2626,534.228 L 283.6398,537.7612 C 356.2967,549.166 409.9572,588.7308 402.6213,628.2541 C 395.2855,667.7773 297.8901,697.4005 202.5675,687.8622 C 107.2449,678.3242 28.83061,636.1894 36.16655,596.6661 C 42.91163,549.4653 116.2526,538.7832 169.2525,537.7435 L 168.8991,533.6832 z "
           style="font-size:12px;fill:#a1eaf0;fill-rule:evenodd" /><path
           transform="matrix(0.825265,0,0,0.894718,121.9546,100.351)"
           sodipodi:nodetypes="cscsccscscc"
           id="path1622"
           d="M 380.9812,557.4263 C 376.9535,563.6799 380.995,570.8624 381.7557,571.9321 C 390.2313,584.1531 402.3761,591.3829 420.0244,591.8499 C 450.2708,593.7786 475.3675,586.5942 477.7767,576.2021 C 479.9949,566.6337 469.0359,560.2604 460.4155,558.9145 L 460.159,560.6014 C 468.1752,561.5149 477.3447,566.8398 475.2318,575.8461 C 473.119,584.8524 447.3777,590.6868 419.923,588.5133 C 401.5971,587.3839 391.7019,579.6382 384.627,570.3584 C 382.8313,567.7637 379.2948,562.825 381.253,558.6208 L 380.9812,557.4263 z "
           style="font-size:12px;fill:#a1eaf0;fill-rule:evenodd" /></g><g
         style="font-size:12px"
         transform="matrix(0.824696,-3.321299e-2,3.063481e-2,0.894102,85.14103,107.3824)"
         id="g1374"><g
           style="font-size:12px"
           id="g1297"><path
             sodipodi:ry="9.8137207"
             sodipodi:rx="8.2476807"
             sodipodi:cy="515.94958"
             sodipodi:cx="270.08551"
             d="M 278.33319 515.94958 A 8.2476807 9.8137207 0 1 1  261.83783,515.94958 A 8.2476807 9.8137207 0 1 1  278.33319 515.94958 z"
             id="path1288"
             style="fill:#f1f1f1;fill-opacity:1;fill-rule:evenodd;stroke:none;stroke-width:1pt;stroke-linecap:butt;stroke-linejoin:miter;stroke-opacity:1"
             sodipodi:type="arc" /><path
             transform="matrix(1.133334,0,0,1.157896,-35.99757,-83.01585)"
             sodipodi:ry="5.9508667"
             sodipodi:rx="6.2640533"
             sodipodi:cy="519.81244"
             sodipodi:cx="269.98114"
             d="M 276.24519 519.81244 A 6.2640533 5.9508667 0 1 1  263.71709,519.81244 A 6.2640533 5.9508667 0 1 1  276.24519 519.81244 z"
             id="path1289"
             style="fill:url(#radialGradient2257);fill-opacity:1;fill-rule:evenodd;stroke:none;stroke-width:1pt;stroke-linecap:butt;stroke-linejoin:miter;stroke-opacity:1"
             sodipodi:type="arc" /></g><g
           style="font-size:12px"
           transform="matrix(0.987925,0.154935,-0.154935,0.987925,29.32935,-43.96762)"
           id="g1300"><path
             sodipodi:ry="9.8137207"
             sodipodi:rx="8.2476807"
             sodipodi:cy="515.94958"
             sodipodi:cx="270.08551"
             d="M 278.33319 515.94958 A 8.2476807 9.8137207 0 1 1  261.83783,515.94958 A 8.2476807 9.8137207 0 1 1  278.33319 515.94958 z"
             id="path1301"
             style="fill:#f1f1f1;fill-opacity:1;fill-rule:evenodd;stroke:none;stroke-width:1pt;stroke-linecap:butt;stroke-linejoin:miter;stroke-opacity:1"
             sodipodi:type="arc" /><path
             transform="matrix(1.133334,0,0,1.157896,-35.99757,-83.01585)"
             sodipodi:ry="5.9508667"
             sodipodi:rx="6.2640533"
             sodipodi:cy="519.81244"
             sodipodi:cx="269.98114"
             d="M 276.24519 519.81244 A 6.2640533 5.9508667 0 1 1  263.71709,519.81244 A 6.2640533 5.9508667 0 1 1  276.24519 519.81244 z"
             id="path1302"
             style="fill:url(#radialGradient2259);fill-opacity:1;fill-rule:evenodd;stroke:none;stroke-width:1pt;stroke-linecap:butt;stroke-linejoin:miter;stroke-opacity:1"
             sodipodi:type="arc" /></g><path
           sodipodi:nodetypes="ccccc"
           id="path1287"
           d="M 278.3332,541.2147 C 278.3332,549.1716 245.7899,572.535 231.1439,541.8411 C 223.3884,560.842 197.318,549.1716 197.318,541.2147 C 197.318,533.2577 213.3659,510.3119 235.7376,510.3119 C 258.1093,510.3119 278.3332,533.2577 278.3332,541.2147 z "
           style="font-size:12px;fill:url(#radialGradient2261);fill-rule:evenodd" /><path
           sodipodi:nodetypes="ccccc"
           id="path1285"
           d="M 247.4536,523.7918 C 247.4536,532.5984 242.9585,511.0498 231.7674,540.5789 C 223.7738,504.5472 217.334,531.4172 217.334,522.6106 C 217.5428,520.0682 222.8373,515.1777 233.4378,515.1777 C 244.0383,515.1777 247.2448,522.0846 247.4536,523.7918 z "
           style="font-size:12px;fill:url(#radialGradient2263);fill-opacity:0.61879997;fill-rule:evenodd" /><path
           id="path1353"
           d="M 257.4994,546.2539 C 268.563,557.6063 273.0235,564.5792 277.9423,579.4624 M 259.3215,543.5579 C 273.6195,550.4026 280.2096,555.4114 289.9557,567.6881 M 260.2891,540.3386 C 275.959,542.7332 283.7202,545.6108 296.6132,554.5257 M 259.7365,536.2113 C 275.5863,534.9171 284.345,536.2524 297.9169,544.147 M 259.0956,532.2262 C 274.3148,527.7447 284.4654,528.0634 298.0313,534.401"
           style="font-size:12px;fill:none;fill-rule:evenodd;stroke:#000000;stroke-width:1.25;stroke-linecap:round" /><path
           id="path1354"
           d="M 210.5431,540.1986 C 199.4795,551.551 195.019,558.5239 190.1002,573.4071 M 208.721,537.5026 C 194.423,544.3473 187.8329,549.3561 178.0868,561.6328 M 207.7534,534.2833 C 192.0835,536.6779 184.3223,539.5555 171.4293,548.4704 M 208.306,530.156 C 192.4562,528.8618 183.6975,530.1971 170.1256,538.0917 M 208.9469,526.1709 C 193.7277,521.6894 183.5771,522.0081 170.0112,528.3457"
           style="font-size:12px;fill:none;fill-rule:evenodd;stroke:#000000;stroke-width:1.25;stroke-linecap:round;stroke-dasharray:none" /></g></g></g></svg>