<?xml version="1.0" encoding="UTF-8" standalone="no"?>
<!-- Created with Inkscape (http://www.inkscape.org/) -->

<svg
   xmlns:dc="http://purl.org/dc/elements/1.1/"
   xmlns:cc="http://creativecommons.org/ns#"
   xmlns:rdf="http://www.w3.org/1999/02/22-rdf-syntax-ns#"
   xmlns:svg="http://www.w3.org/2000/svg"
   xmlns="http://www.w3.org/2000/svg"
   xmlns:sodipodi="http://sodipodi.sourceforge.net/DTD/sodipodi-0.dtd"
   xmlns:inkscape="http://www.inkscape.org/namespaces/inkscape"
   width="100"
   height="100"
   id="svg12024"
   sodipodi:version="0.32"
   inkscape:version="0.48.2 r9819"
   version="1.0"
   sodipodi:docname="guessnumber.svg">
  <defs
     id="defs12026" />
  <sodipodi:namedview
     id="base"
     pagecolor="#ffffff"
     bordercolor="#666666"
     borderopacity="1.0"
     inkscape:pageopacity="0.0"
     inkscape:pageshadow="2"
     inkscape:zoom="3.3782846"
     inkscape:cx="52.525799"
     inkscape:cy="26.153477"
     inkscape:document-units="px"
     inkscape:current-layer="g40954"
     height="100px"
     width="100px"
     inkscape:window-width="1015"
     inkscape:window-height="756"
     inkscape:window-x="33"
     inkscape:window-y="0"
     showgrid="false"
     inkscape:window-maximized="0" />
  <metadata
     id="metadata12029">
    <rdf:RDF>
      <cc:Work
         rdf:about="">
        <dc:format>image/svg+xml</dc:format>
        <dc:type
           rdf:resource="http://purl.org/dc/dcmitype/StillImage" />
      </cc:Work>
    </rdf:RDF>
  </metadata>
  <g
     inkscape:label="Calque 1"
     inkscape:groupmode="layer"
     id="layer1">
    <path
       inkscape:connector-curvature="0"
       style="fill:#000000;fill-opacity:0.31085044;fill-rule:evenodd;stroke:none"
       d="m 55.785947,78.616626 c -0.506128,1.6e-5 -1.231501,0.05243 -2.1875,0.1875 -0.646713,0.175625 -1.128211,0.34719 -1.4375,0.46875 -0.281182,0.05405 -0.759546,0.224804 -1.40625,0.5625 -0.492064,0.243165 -0.959502,0.493354 -1.4375,0.75 -0.140591,0.08106 -0.543924,0.419152 -1.21875,1 -0.759179,0.68894 -1.156251,1.141134 -1.15625,1.34375 0,0.04054 0.06097,0.216334 0.1875,0.5 0.112471,0.283687 0.190632,0.454445 0.21875,0.5625 0.506119,1.999248 0.868808,3.518131 1.09375,4.53125 0.02812,0.09457 0.109407,0.204439 0.25,0.3125 0.224941,-0.108061 0.60482,-0.32781 1.125,-0.625 0.435823,-0.256653 0.659378,-0.374992 0.6875,-0.375 0.02811,7e-6 0.08595,0.03972 0.15625,0.09375 -0.618593,2.296429 -0.937501,3.968325 -0.9375,5.0625 -2e-6,0.621387 0.05784,1.003427 0.15625,1.125 0.196822,0.162101 0.356277,0.258466 0.46875,0.3125 -0.126532,0.297184 -0.248472,0.591325 -0.375,0.875 -0.15465,0.364725 -0.250001,0.720559 -0.25,1.03125 -2e-6,0.742958 0.376746,1.299987 1.09375,1.71875 0.562352,0.337707 1.189244,0.531248 1.90625,0.53125 0.68888,-4e-6 1.489284,-0.171565 2.375,-0.46875 0.590465,-0.202629 0.970345,-0.382658 1.125,-0.53125 0.379581,-0.324203 0.681299,-0.69697 0.90625,-1.15625 0.05622,-0.17561 0.07968,-0.329437 0.09375,-0.4375 0.323344,-0.634894 0.46874,-1.091324 0.46875,-1.375 -1.1e-5,-0.243151 0.01405,-0.365723 0,-0.40625 -0.05625,-0.121574 -0.178187,-0.337088 -0.375,-0.59375 -0.182776,-0.256657 -0.281262,-0.379234 -0.28125,-0.40625 -1.1e-5,-0.05403 0.02345,-0.185882 0.09375,-0.375 0.07028,-0.189115 0.12499,-0.325195 0.125,-0.40625 0.02811,-0.243148 0.03124,-0.445155 0.03125,-0.59375 0.112461,-0.202623 0.39072,-0.369148 0.8125,-0.53125 0.618578,-0.229638 1.086015,-0.475596 1.4375,-0.71875 1.110638,-0.729447 1.853206,-1.660051 2.21875,-2.78125 0.08434,-0.256652 0.128116,-0.445149 0.15625,-0.59375 0.407693,-0.878037 0.624984,-1.786662 0.625,-2.71875 -1.5e-5,-0.702425 -0.0985,-1.378605 -0.28125,-2 -0.210897,-0.715932 -0.457911,-1.294933 -0.78125,-1.78125 -0.590486,-0.851013 -1.414346,-1.417319 -2.46875,-1.6875 -0.449896,-0.135068 -0.806321,-0.262683 -1.03125,-0.34375 -0.576425,-0.05402 -1.3018,-0.06248 -2.1875,-0.0625 z m 14.0625,1.25 -3.625,3.78125 6.375,5.125 -7.8125,5.03125 4.34375,2.96875 7.625,-8.0625 -6.90625,-8.84375 z m 17.1875,0.03125 c -0.225248,0.129431 -0.418634,0.23702 -0.53125,0.3125 -0.625679,0.345128 -1.074682,0.618386 -1.375,0.8125 -0.60065,0.399052 -1.04343,0.711028 -1.34375,0.9375 -1.338942,0.79809 -2.193387,1.264949 -2.53125,1.4375 0,0.161781 0.01874,0.270473 0.03125,0.28125 0.900967,1.42361 1.393671,2.222916 1.46875,2.40625 0.26278,0.593173 0.387515,1.011634 0.375,1.28125 0.08759,0.107853 0.149956,0.156254 0.1875,0.15625 0.688238,-0.43139 1.212121,-0.762725 1.5625,-1 0.08759,0.0755 0.124997,0.155152 0.125,0.1875 -3e-6,0.172563 -0.180876,1.098815 -0.53125,2.78125 -0.02503,0.04314 -0.06243,0.08186 -0.125,0.125 -0.387921,0.09707 -0.674788,0.164829 -0.875,0.21875 -0.375405,0.06471 -0.656052,0.103435 -0.84375,0.125 -0.275297,0.09707 -0.587194,0.185293 -0.875,0.25 -0.125135,0.06471 -0.174988,0.123899 -0.1875,0.15625 -0.03754,0.776512 -0.118642,1.769422 -0.21875,3.03125 -0.100108,1.164763 -0.156249,1.730635 -0.15625,1.6875 0,0.140201 0.08733,0.258571 0.25,0.3125 0.200214,-0.08628 0.462189,-0.155148 0.75,-0.1875 1.476586,-0.150991 2.630341,-0.288724 3.46875,-0.375 0.20021,-0.02157 0.705356,-0.05919 1.53125,-0.15625 0.625666,-0.06471 1.118367,-0.09375 1.46875,-0.09375 0.06256,-2e-6 0.174846,-0.01079 0.3125,0 0.13764,0.02157 0.212449,0.03125 0.25,0.03125 0.05005,-10e-7 0.318242,-0.0086 0.78125,-0.0625 0.462988,-0.04314 0.699936,-0.0625 0.75,-0.0625 0.03753,-3e-6 0.143595,-0.01079 0.28125,0 0.137638,0.02157 0.212449,0.03125 0.25,0.03125 0.375393,-2e-6 0.749582,-0.603491 1.125,-1.84375 0.312826,-1.013777 0.468737,-1.727063 0.46875,-2.09375 -1.2e-5,-0.291189 -0.343019,-0.495577 -1.03125,-0.625 -0.375415,-0.04314 -0.730873,-0.08186 -1.09375,-0.125 -0.162684,-0.01078 -0.318601,-0.04093 -0.46875,-0.0625 -0.212739,-0.03235 -0.374941,-0.09043 -0.4375,-0.1875 0.350368,-1.380459 0.668482,-2.443339 0.90625,-3.1875 0.337853,-1.682433 0.549842,-2.900195 0.6875,-3.6875 0.08758,-0.345106 0.168684,-0.851791 0.21875,-1.53125 -1.1e-5,-0.05391 0.01243,-0.152927 0.0625,-0.25 0.05004,-0.107837 0.09374,-0.155133 0.09375,-0.1875 -1.1e-5,-0.258825 -0.330572,-0.454641 -0.96875,-0.5625 -0.362901,-0.0647 -0.712131,-0.09374 -1.0625,-0.09375 -0.05006,1.2e-5 -0.11865,0.0097 -0.21875,0.03125 -0.100117,0.0108 -0.181215,1.4e-5 -0.21875,0 -0.05006,1.2e-5 -0.374334,-0.01824 -1,-0.09375 -0.62568,-0.08627 -0.962466,-0.124988 -1,-0.125 -0.175195,1.3e-5 -0.274968,-0.01077 -0.3125,0 z m -48.6875,0.40625 -3.65625,3.75 6.375,5.125 -7.78125,5.03125 4.34375,2.96875 7.59375,-8.0625 -6.875,-8.8125 z m -12.34375,0.125 c -0.508192,1.3e-5 -0.827006,0.03036 -1,0.0625 -0.237879,0.04289 -0.48088,0.07141 -0.71875,0.125 -0.562252,0.08577 -1.029004,0.23474 -1.375,0.40625 -0.832561,0.396654 -1.462939,1.1155 -1.90625,2.1875 -0.356811,0.879057 -0.53125,1.539954 -0.53125,1.96875 0,0.171529 0.01925,0.406964 0.0625,0.75 0.04325,0.117928 0.09256,0.207128 0.125,0.25 -0.01081,-0.128634 -0.03125,0.255768 -0.03125,1.15625 0,0.407368 0.04931,0.989788 0.125,1.71875 0.09731,0.846891 0.145436,1.339199 0.15625,1.5 0.07569,0.739687 0.133436,1.263247 0.1875,1.53125 0.108124,1.072009 0.390812,1.888953 0.8125,2.5 0.118935,0.160799 0.253686,0.308857 0.4375,0.4375 1.167743,0.825445 2.273312,1.249998 3.34375,1.25 0.800116,-3e-6 1.557995,-0.0981 2.25,-0.3125 0.56224,-0.171524 1.047055,-0.478357 1.46875,-0.875 0.367615,-0.439526 0.629866,-0.774879 0.78125,-1 0.367613,-0.493125 0.60099,-0.866807 0.6875,-1.15625 0.183801,-0.621764 0.281239,-1.085557 0.28125,-1.375 -10e-6,-0.621763 -0.01926,-1.114982 -0.0625,-1.46875 -0.01082,-0.07504 -0.05051,-0.202564 -0.09375,-0.40625 -0.03245,-0.171518 -0.03126,-0.269616 -0.03125,-0.3125 l 0,-1.46875 c -1.1e-5,0.08577 -0.08782,-0.328976 -0.25,-1.21875 -0.03245,-0.182235 -0.08176,-0.565728 -0.125,-1.1875 -0.03245,-0.568156 -0.07095,-0.953469 -0.125,-1.125 -0.237884,-0.889758 -0.586762,-1.658563 -1.0625,-2.3125 -0.302758,-0.428791 -0.739448,-0.793575 -1.3125,-1.09375 -0.22707,-0.117909 -0.664948,-0.274865 -1.28125,-0.5 -0.03244,-0.01071 -0.30432,-0.03124 -0.8125,-0.03125 z m -10.8125,0.28125 c -0.15138,1.2e-5 -0.248818,0.02054 -0.28125,0.03125 -0.19463,0.128654 -0.340192,0.23747 -0.4375,0.3125 -0.540627,0.343055 -0.928005,0.5883 -1.1875,0.78125 -0.519001,0.396654 -0.928003,0.71239 -1.1875,0.9375 -1.156935,0.793296 -1.864314,1.265985 -2.1562498,1.4375 -3e-7,0.160809 -0.010813,0.270541 0,0.28125 0.7784968,1.415059 1.2163738,2.192764 1.2812498,2.375 0.22706,0.589611 0.323311,1.013253 0.3125,1.28125 0.07569,0.107206 0.12381,0.187505 0.15625,0.1875 0.594683,-0.428798 1.072248,-0.764154 1.375,-1 0.07568,0.07505 0.09375,0.124095 0.09375,0.15625 -4e-6,0.171528 -0.134754,1.077672 -0.4375,2.75 -0.02163,0.04288 -0.07094,0.113372 -0.125,0.15625 -0.335189,0.09648 -0.577002,0.165153 -0.75,0.21875 -0.324375,0.06432 -0.587814,0.103561 -0.75,0.125 -0.237875,0.09648 -0.470064,0.185684 -0.71875,0.25 -0.108125,0.06432 -0.176688,0.09284 -0.1875,0.125 -0.03244,0.771848 -0.101001,1.777 -0.1875,3.03125 -0.0865,1.157769 -0.1250001,1.730381 -0.1249998,1.6875 -3e-7,0.139359 0.078188,0.227648 0.2187498,0.28125 0.172999,-0.08576 0.376313,-0.124092 0.625,-0.15625 1.275869,-0.150083 2.275562,-0.289241 3,-0.375 0.172996,-0.02144 0.630122,-0.05977 1.34375,-0.15625 0.540617,-0.06432 0.947245,-0.125003 1.25,-0.125 0.05406,-2e-6 0.162306,0.02053 0.28125,0.03125 0.11893,0.02144 0.186306,0.03125 0.21875,0.03125 0.04324,-2e-6 0.256182,-0.04015 0.65625,-0.09375 0.400053,-0.04288 0.612992,-0.0625 0.65625,-0.0625 0.03243,-10e-7 0.131054,0.02053 0.25,0.03125 0.118928,0.02144 0.186304,0.03125 0.21875,0.03125 0.324365,-2e-6 0.644367,-0.610942 0.96875,-1.84375 0.270302,-1.007689 0.40624,-1.698016 0.40625,-2.0625 -10e-6,-0.289441 -0.280324,-0.496358 -0.875,-0.625 -0.324382,-0.04288 -0.655198,-0.08212 -0.96875,-0.125 -0.14057,-0.01072 -0.276508,-0.04106 -0.40625,-0.0625 -0.18382,-0.03216 -0.289695,-0.09101 -0.34375,-0.1875 0.302741,-1.372167 0.544554,-2.416558 0.75,-3.15625 0.291928,-1.672326 0.506054,-2.904926 0.625,-3.6875 0.07568,-0.343032 0.112991,-0.855874 0.15625,-1.53125 -9e-6,-0.05359 0.01924,-0.122258 0.0625,-0.21875 0.04324,-0.10719 0.09374,-0.18658 0.09375,-0.21875 -10e-6,-0.257271 -0.292323,-0.424037 -0.84375,-0.53125 -0.31357,-0.06431 -0.634759,-0.124987 -0.9375,-0.125 -0.04326,1.2e-5 -0.101008,0.0098 -0.1875,0.03125 -0.08651,0.01073 -0.12382,0.03126 -0.15625,0.03125 -0.04326,1.2e-5 -0.334383,-0.04995 -0.875,-0.125 -0.540629,-0.08575 -0.842568,-0.124987 -0.875,-0.125 z"
       id="path47285" />
    <path
       inkscape:connector-curvature="0"
       style="fill:#ffcc00;fill-opacity:1;fill-rule:evenodd;stroke:none"
       d="m 81.735327,80.638879 3.244295,-3.034986 4.395498,0.209309 -1.988439,9.000305 3.139641,0.627928 c 0,0 -0.209309,2.930332 -0.627928,2.930332 -0.418619,0 -9.418924,0.313964 -9.418924,0.313964 l 0,-3.453605 3.034987,-0.627929 0.523273,-4.186188 -1.77913,-0.523273 -0.523273,-1.255857 z"
       id="path43710" />
    <g
       id="g44597"
       style="fill:#ffcc00;fill-opacity:1;stroke:none">
      <path
         inkscape:connector-curvature="0"
         id="path43704"
         d="m 9.8375425,80.848189 3.4536055,-2.511713 3.244296,0.313964 -1.360511,8.790995 2.407058,0.732583 -0.732583,3.034987 -7.8491032,0 0,-2.825678 2.1977492,-0.837237 1.151201,-4.709462 -1.674475,0.313964 -0.8372375,-2.302403 z"
         style="fill:#ffcc00;fill-opacity:1;fill-rule:evenodd;stroke:none" />
      <path
         inkscape:connector-curvature="0"
         id="path43706"
         d="m 21.454215,79.487678 c -0.418619,0 -1.674475,2.930331 -1.674475,2.930331 l 0.418619,6.593247 1.674475,2.407058 2.511713,0.732583 3.139641,-0.837238 1.151202,-2.721022 -0.732583,-7.849103 -2.616367,-1.883785 -3.872225,0.627929 z"
         style="fill:#ffcc00;fill-opacity:1;fill-rule:evenodd;stroke:none" />
    </g>
    <path
       inkscape:connector-curvature="0"
       style="fill:#ff0000;fill-opacity:1;fill-rule:evenodd;stroke:#000000;stroke-width:1px;stroke-linecap:butt;stroke-linejoin:miter;stroke-opacity:1"
       d="m 46.571345,79.278368 0.732583,4.918771 4.290843,-1.046547 -1.77913,1.360511 -0.837238,5.442045 0.627928,1.151202 -0.941892,1.674475 2.302404,1.77913 2.825677,-0.837237 1.465166,-1.674476 -0.20931,-1.883785 -0.104655,-2.407058 3.139642,-1.360511 1.883784,-4.186188 -0.523273,-3.348951 -3.244296,-2.407058 -4.500153,0.418619 -3.872224,1.674475 -1.255856,0.732583 z"
       id="path43708" />
    <path
       inkscape:connector-curvature="0"
       style="fill:#000000;fill-opacity:0.31378299;fill-rule:evenodd;stroke:none"
       d="m 60.496051,19.140696 -3.5,0.5 0.09375,2.125 c -4.976842,-0.133287 -35.53125,-1.1875 -35.53125,-1.1875 l 0,4.125 35.6875,0.09375 0.09375,2.3125 -1.625,0.09375 -1.96875,1.59375 -2.125,10.625 -29.96875,0.71875 0.71875,-4.34375 -2.75,-3 -3.25,-2.125 -3.78125,-1.34375 -4.5937503,0.34375 -2.84375,5.3125 -2.125,5.34375 0.15625,6.375 4.09375,4.4375 6.7500003,0.53125 5.3125,-1.9375 1.9375,-4.09375 18.625,1.0625 c 0,0 7.654213,0.01008 8.71875,0.1875 1.064538,0.177423 4.436481,1.425385 4.96875,2.3125 0.532269,0.887114 1.572577,3.019136 1.75,3.90625 0.177423,0.887115 1.624999,4.96875 1.625,4.96875 l 1.71875,1.53125 -0.25,0.1875 -1.65625,2.6875 -0.875,2.53125 -0.75,3.28125 -0.0625,1.0625 -8.90625,-0.09375 0.59375,4.375 20.5,0.53125 19.875,-0.0625 7.75,0.03125 2.96875,-0.875 2.531249,-3.3125 -3.718749,-5.09375 -2.25,4.25 -4.15625,0.25 -1.5625,0 -0.125,-3.15625 -0.3125,-2.28125 3.4375,0 5.6875,-2.84375 2.125,-4.625 -0.875,-6.5625 -3.1875,-5.65625 -6.03125,-6.40625 -5.15625,-3.90625 -6.5625,-1.75 -6.40625,0 -7.625,1.40625 0.1875,-3.375 -1.40625,-3.375 -1.96875,0.09375 0,-2.125 36.03125,0.09375 -0.40625,-3.6875 c -10e-7,0 -32.607251,0.560902 -35.625,0.59375 l 0,-2.65625 z m 0.75,42.75 0.5,0.4375 4.59375,1.59375 9.59375,0 8.9375,0 0.28125,1.09375 -0.4375,2.6875 -0.40625,1.6875 -18.6875,0.0625 -6.125,-0.0625 0.125,-2.28125 0.4375,-2.84375 1.0625,-2.09375 0.125,-0.28125 z"
       id="path41860" />
    <g
       id="g40954"
       transform="translate(-1.647868,-15.65475)">
      <path
         inkscape:connector-curvature="0"
         sodipodi:nodetypes="ccccccccccccccccccccccccccsssccccccccc"
         id="path34718"
         d="m 7.0209903,42.563519 4.6129967,-0.354846 3.790704,1.337516 3.230286,2.129075 2.754316,3.005085 -0.726736,4.351123 29.984478,-0.709691 2.129075,-10.645377 1.951652,-1.596806 6.742072,-0.354846 1.419384,3.371036 -0.177423,3.371036 7.629186,-1.419384 6.387226,0 6.564649,1.774229 5.145266,3.903305 6.03238,6.387226 3.193613,5.677534 0.887115,6.564649 -2.129076,4.612997 -5.677534,2.838767 -6.564649,0 -9.225993,0 -9.580839,0 -4.612997,-1.596806 -4.790419,-4.258151 c 0,0 -1.419384,-4.080728 -1.596807,-4.967843 -0.177423,-0.887114 -1.24196,-3.01619 -1.774229,-3.903304 C 52.086418,61.192928 48.715382,59.950967 47.650844,59.773544 46.586307,59.596121 38.95712,59.596121 38.95712,59.596121 L 20.327711,58.531584 18.376059,62.612311 13.05337,64.563964 6.3112985,64.031695 2.2305708,59.596121 2.0531478,53.208895 4.1822232,47.886207 7.0209903,42.563519 z"
         style="fill:#000000;fill-opacity:1;fill-rule:evenodd;stroke:none" />
      <path
         inkscape:connector-curvature="0"
         sodipodi:nodetypes="ccccccccccccccccccccccccccsssccccccccc"
         id="path35605"
         d="m 7.770174,45.395665 3.764903,-0.303911 3.918386,1.698338 3.33698,2.131067 -0.963565,2.564343 0.854775,3.332413 33.702762,-0.303781 1.807597,-10.012969 1.793798,-1.3676 4.08572,-0.251135 0.354614,3.520466 0.259135,2.992707 9.650917,-2.007283 5.870606,0 6.033687,1.519555 4.729109,3.343022 5.544466,5.470399 2.935304,4.862577 0.815367,5.622355 -1.956875,3.950844 -5.218318,2.431289 -6.033685,0 -8.479771,0 -8.805922,0 -4.239887,-1.3676 -3.822424,-3.752485 c 0,0 -1.304581,-3.178321 -1.467653,-3.938099 -0.163073,-0.759777 -1.163401,-3.965011 -1.31407,-4.13466 -0.173392,-0.195235 -3.637756,-3.286784 -4.038273,-3.294821 -0.455739,-0.0091 -9.098849,-0.415836 -9.098849,-0.415836 L 18.540999,56.574639 17.309628,60.61393 12.839657,62.549322 7.2762108,62.357335 4.0005263,58.822325 3.7319018,53.879686 5.6359963,49.373796 7.770174,45.395665 z"
         style="fill:#ffcc00;fill-opacity:1;fill-rule:evenodd;stroke:none" />
      <path
         inkscape:connector-curvature="0"
         sodipodi:nodetypes="cccccccccccccccc"
         id="path36503"
         d="m 71.949524,47.605222 -2.239094,4.926005 1.642002,4.776732 2.388366,2.537639 3.582549,2.985457 4.478186,1.940548 5.523096,-0.298546 4.328913,-1.343456 2.537639,-2.388366 -1.642001,-2.985457 -1.940548,-1.940548 -3.582548,-3.582549 -4.62746,-3.284002 -4.478186,-1.343457 -3.731822,-0.597091 -2.239092,0.597091 z"
         style="fill:#00ffff;fill-opacity:1;fill-rule:evenodd;stroke:none" />
      <path
         inkscape:connector-curvature="0"
         id="path35611"
         d="m 68.119273,49.83519 -0.05084,3.89022 1.642001,2.686912 3.284004,4.478186 3.433276,3.13473 5.373823,1.940548 4.926005,-0.298546 5.523096,-1.343456 2.08982,-2.537639 0.895637,-1.642001 -1.194183,-1.04491 -2.836184,3.284003 -4.328914,1.343456 -4.776731,0 -2.985458,-0.746365 -2.836184,-2.08982 -2.537639,-2.537639 -1.343456,-2.537639 -1.642001,-2.836184 0.447818,-3.433276 0.895637,-3.13473 -1.791274,-0.447819 -2.188249,3.871969 z"
         style="fill:#000000;fill-opacity:1;fill-rule:evenodd;stroke:none"
         sodipodi:nodetypes="ccccccccccccccccccccccc" />
      <path
         inkscape:connector-curvature="0"
         sodipodi:nodetypes="cccccccccccccscc"
         id="path38283"
         d="m 60.903331,70.294699 -3.433276,2.388366 -1.642002,2.686911 -0.895637,2.537639 -0.746364,3.284003 -0.149273,3.134731 3.13473,1.04491 1.940548,-0.447819 -0.597091,-2.239093 0.149272,-2.686912 0.447818,-2.836184 1.04491,-2.08982 0.746365,-1.791275 c 0,0 1.194183,0.149273 1.642002,-0.597091 0.447818,-0.746365 0.447818,-1.940548 0.447818,-1.940548 l -2.08982,-0.447818 z"
         style="fill:#000000;fill-opacity:1;fill-rule:evenodd;stroke:none" />
      <path
         inkscape:connector-curvature="0"
         id="path38285"
         d="m 83.74208,72.832338 1.642002,1.343455 1.940547,2.537639 0.298546,2.388366 0.149273,3.881095 -4.776732,0.597091 0.746364,-2.985457 0.447819,-2.686912 -0.447819,-1.791274 -2.08982,-1.343456 -0.447819,-2.08982 1.343456,-0.895637 1.194183,1.04491 z"
         style="fill:#000000;fill-opacity:1;fill-rule:evenodd;stroke:none" />
      <g
         transform="translate(10.74765,-4.926005)"
         id="g38279">
        <path
           inkscape:connector-curvature="0"
           style="fill:#000000;fill-opacity:1;fill-rule:evenodd;stroke:none"
           d="m 35.063222,91.459235 20.494484,0.517525 19.89587,-0.05721 7.727131,0.03485 2.972501,-0.88578 2.530019,-3.286646 -3.720391,-5.112774 -2.229948,4.25199 -4.156777,0.253838 -24.650499,0.07956 -19.458721,-0.161772 0.596331,4.36641 z"
           id="path37390"
           sodipodi:nodetypes="cccccccccccc" />
        <path
           inkscape:connector-curvature="0"
           style="fill:#999999;fill-opacity:1;fill-rule:evenodd;stroke:none"
           d="m 35.884224,89.993804 21.091575,0.479052 19.89587,-0.01995 7.727131,0.01216 1.927591,-1.867582 -1.190372,-3.103262 -1.185038,2.774429 -8.48569,0.439145 -0.0026,-6.676492 -3.286562,-3.243216 2.385806,3.32479 -0.748924,6.608793 -18.967892,0.312421 -9.118958,-0.215443 1.340129,-7.40555 1.93722,-3.673728 -0.753021,-0.182358 -2.544295,3.698737 -1.648657,7.579831 -8.372593,-0.06617 -7.6e-4,1.2244 z"
           id="path38277"
           sodipodi:nodetypes="ccccccccccccccccccccc" />
      </g>
      <path
         inkscape:connector-curvature="0"
         id="path39176"
         d="m 4.0166787,58.700303 -0.2574794,-4.840612 1.3903888,-3.192745 2.2143229,-1.647868 4.737621,-0.772438 3.141249,1.235901 2.471802,1.853851 0.926926,3.347233 -0.102992,1.802356 -1.235901,4.016678 -4.428646,2.00834 -5.510059,-0.25748 -3.3472323,-3.553216 z"
         style="fill:#ffffff;fill-opacity:1;fill-rule:evenodd;stroke:none" />
      <path
         inkscape:connector-curvature="0"
         sodipodi:nodetypes="ccccccc"
         id="path39172"
         d="m 8.8070994,55.936514 0.5871401,-2.061831 2.3684635,-0.447819 0.776218,1.259491 -0.25874,2.015184 -2.069917,0.755693 -1.4031646,-1.520718 z"
         style="fill:#000000;fill-opacity:1;fill-rule:evenodd;stroke:none" />
      <path
         inkscape:connector-curvature="0"
         id="path39174"
         d="m 17.763472,51.337044 -2.388366,-1.791274 -3.134731,-1.343456 -4.7767315,0.746364 -3.2840031,2.388366 1.1941829,-3.433276 3.1347303,-1.04491 3.2840034,-0.746364 3.13473,1.194183 2.239093,1.343456 2.388366,1.492728 -1.791274,1.194183 z"
         style="fill:#000000;fill-opacity:1;fill-rule:evenodd;stroke:none" />
      <path
         inkscape:connector-curvature="0"
         sodipodi:nodetypes="cccccccccc"
         id="path39178"
         d="m 17.460037,60.096885 1.085977,-3.289219 -0.488885,-4.622244 -2.388366,-3.284003 3.433276,1.194183 1.04491,3.13473 0.591876,2.563061 -1.039695,3.855673 -1.085977,2.445077 -1.153116,-1.997258 z"
         style="fill:#000000;fill-opacity:1;fill-rule:evenodd;stroke:none" />
      <path
         inkscape:connector-curvature="0"
         id="path39180"
         d="m 56.439486,41.088712 -0.411968,-8.559761 3.50172,-0.503514 0,8.559761 -3.089752,0.503514 z"
         style="fill:#000000;fill-opacity:1;fill-rule:evenodd;stroke:none" />
      <path
         inkscape:connector-curvature="0"
         sodipodi:nodetypes="cccscc"
         id="path40067"
         d="m 20.598352,37.586992 74.978003,0.205983 -0.411967,-3.707703 c 0,0 -35.429166,0.617951 -36.665067,0.617951 -1.235901,0 -37.900969,-1.235902 -37.900969,-1.235902 l 0,4.119671 z"
         style="fill:#000000;fill-opacity:1;fill-rule:evenodd;stroke:none" />
    </g>
    <path
       inkscape:connector-curvature="0"
       style="fill:#000000;fill-opacity:0.28152496;fill-rule:evenodd;stroke:none"
       d="m 17.920566,39.852811 33.575315,1.647869 4.119671,3.604711 1.235901,4.840613 3.707703,4.11967 3.707703,2.265819 6.591473,0.411967 5.973522,-0.205984 7.209424,0.411968 5.149588,-0.617951 2.677786,-1.441885 2.883769,-2.471802 -0.823934,5.149588 -5.767539,2.677786 -23.070154,-0.411967 -5.149589,-1.441885 -0.411967,-1.853852 -3.295736,-0.823934 -1.441885,-2.265818 -2.471801,-7.00344 -4.531638,-3.295737 -29.249661,-1.441884 -0.617951,-1.853852 z"
       id="path40971"
       sodipodi:nodetypes="ccccccccccccccccccccccc" />
    <path
       inkscape:connector-curvature="0"
       style="font-size:16.14927483px;font-style:normal;font-variant:normal;font-weight:normal;font-stretch:normal;text-align:start;line-height:100%;writing-mode:lr-tb;text-anchor:start;fill:#000000;fill-opacity:1;stroke:none;font-family:Indigo Joker"
       d="m 18.419397,88.000534 c -10e-6,0.364484 -0.135166,1.050569 -0.405468,2.058258 -0.324383,1.232808 -0.648757,1.849213 -0.973121,1.849215 -0.03245,-2e-6 -0.108134,-0.01072 -0.227062,-0.03216 -0.118946,-0.01072 -0.194633,-0.01608 -0.227062,-0.01608 -0.04326,-10e-7 -0.264914,0.02144 -0.664967,0.06432 -0.400068,0.0536 -0.621724,0.08039 -0.664966,0.0804 -0.03245,-2e-6 -0.108132,-0.01072 -0.227062,-0.03216 -0.118944,-0.01072 -0.205443,-0.01608 -0.2595,-0.01608 -0.302755,-2e-6 -0.724441,0.03216 -1.265058,0.09649 -0.713628,0.09647 -1.156938,0.155439 -1.329934,0.176881 -0.724438,0.08576 -1.72459,0.20368 -3.000459,0.353763 -0.2486877,0.03216 -0.4595305,0.09112 -0.6325293,0.176882 -0.1405624,-0.0536 -0.2108435,-0.150084 -0.2108432,-0.289443 -3e-7,0.04288 0.043249,-0.514566 0.1297496,-1.672335 0.086499,-1.25425 0.1459678,-2.267297 0.1784057,-3.039146 0.010812,-0.03216 0.070281,-0.08039 0.1784058,-0.144721 0.2486857,-0.06432 0.4919659,-0.144719 0.7298415,-0.241202 0.1621853,-0.02144 0.4054656,-0.06431 0.7298409,-0.128641 0.172998,-0.0536 0.427091,-0.128639 0.762279,-0.225122 0.05406,-0.04287 0.0919,-0.08576 0.113531,-0.128641 0.302746,-1.67233 0.45412,-2.594257 0.454124,-2.765784 -4e-6,-0.03215 -0.03784,-0.08575 -0.113531,-0.160801 -0.302752,0.235847 -0.751469,0.56817 -1.346152,0.996968 -0.03244,5e-6 -0.0865,-0.0536 -0.162187,-0.160801 0.01081,-0.267997 -0.097314,-0.6968 -0.324374,-1.286411 -0.064877,-0.182236 -0.4865621,-0.980882 -1.2650587,-2.395941 -0.010813,-0.01071 -0.016219,-0.09647 -0.016218,-0.257282 0.2919361,-0.171513 1.0163706,-0.653917 2.1733061,-1.447213 0.259497,-0.225111 0.648745,-0.535993 1.167747,-0.932648 0.259494,-0.192951 0.659556,-0.460952 1.200183,-0.804007 0.09731,-0.07503 0.243275,-0.176869 0.437906,-0.305523 0.03243,-0.0107 0.124337,-0.01607 0.275717,-0.01608 0.03243,1.2e-5 0.318962,0.0429 0.859591,0.128641 0.540616,0.07506 0.832553,0.112573 0.87581,0.112561 0.03243,1.2e-5 0.0919,-0.0054 0.178406,-0.01608 0.08649,-0.02143 0.151367,-0.03215 0.194624,-0.03216 0.302741,1.2e-5 0.610896,0.03217 0.924466,0.09649 0.551427,0.107213 0.827144,0.289453 0.827154,0.546724 -10e-6,0.03217 -0.02163,0.101852 -0.06488,0.209042 -0.04325,0.0965 -0.06489,0.171533 -0.06488,0.225122 -0.04326,0.675376 -0.102728,1.184581 -0.178406,1.527613 -0.118946,0.782576 -0.324383,2.010026 -0.61631,3.682352 -0.205446,0.739692 -0.459538,1.79562 -0.762279,3.167787 0.05405,0.09649 0.172991,0.160805 0.356811,0.192963 0.129742,0.02145 0.264897,0.03752 0.405468,0.04824 0.313552,0.04289 0.63252,0.08576 0.956903,0.128641 0.594675,0.128643 0.892018,0.337685 0.892028,0.627126 m -1.605651,0.852247 c -0.03245,-0.03216 -0.0811,-0.0804 -0.145968,-0.144721 -0.302758,-0.06432 -1.075848,-0.18224 -2.319275,-0.353763 -0.05407,-0.08576 -0.0811,-0.171521 -0.0811,-0.257283 -6e-6,0.117923 0.232461,-1.077366 0.697405,-3.585871 0.129742,-0.825441 0.302742,-1.908169 0.518998,-3.248188 0.03243,-0.192953 0.113523,-0.546716 0.243281,-1.06129 0.118929,-0.460953 0.178397,-0.707515 0.178405,-0.739685 -8e-6,-0.08575 -0.02163,-0.150071 -0.06488,-0.192963 l -0.827154,0 c -0.756879,1.1e-5 -1.497532,0.05361 -2.221962,0.160802 -0.129755,0.02145 -0.297348,0.123292 -0.502781,0.305522 -0.194628,0.171532 -0.454127,0.428814 -0.778497,0.771847 -0.410877,0.428813 -0.616313,0.696815 -0.61631,0.804007 -3e-6,0.07505 0.08109,0.316251 0.24328,0.723607 0.183809,0.450251 0.335183,0.675372 0.454124,0.675365 0.03243,7e-6 0.183808,-0.06967 0.454123,-0.209041 0.270308,-0.139354 0.421682,-0.209034 0.454124,-0.209042 0.09731,8e-6 0.172994,0.03753 0.227062,0.112561 -0.02163,0.525292 -0.09191,1.211377 -0.210844,2.058258 -0.205441,1.554418 -0.318971,2.444184 -0.340593,2.669303 -0.03244,0.289445 -0.09732,0.659288 -0.194624,1.10953 -0.02163,0.107202 -0.0811,0.160803 -0.178405,0.160801 -0.04326,2e-6 -0.06488,-0.0054 -0.06488,-0.01608 l 0,0 c -4e-6,-0.02144 -0.01622,-0.03216 -0.04866,-0.03216 -0.04326,10e-7 -0.675782,0.117922 -1.8975881,0.353763 -0.1621887,0.03216 -0.2432821,0.08576 -0.2432806,0.160801 l 0,1.447213 3.6978637,0 2.805835,0.337683 c 0.172992,-10e-7 0.351397,-0.289444 0.535217,-0.868328 0.118929,-0.396643 0.194616,-0.707525 0.227062,-0.932648 m 12.78515,-0.659286 c -10e-6,0.289444 -0.09191,0.745048 -0.275717,1.366812 -0.08651,0.289442 -0.313572,0.680725 -0.681186,1.17385 -0.151384,0.225121 -0.410883,0.557443 -0.778497,0.996969 -0.421695,0.396641 -0.913662,0.680723 -1.475902,0.852247 -0.692005,0.2144 -1.438065,0.3216 -2.238181,0.321603 -1.070438,-3e-6 -2.189527,-0.412726 -3.357271,-1.238171 -0.183814,-0.128643 -0.335188,-0.273364 -0.454123,-0.434163 -0.421688,-0.611046 -0.686593,-1.452573 -0.794717,-2.524582 -0.05406,-0.268002 -0.118938,-0.771845 -0.194624,-1.511533 -0.01082,-0.160799 -0.06488,-0.664643 -0.162187,-1.511534 -0.07568,-0.728961 -0.113531,-1.297126 -0.113531,-1.704494 0,-0.900482 0.0054,-1.286404 0.01622,-1.157771 -0.03244,-0.04287 -0.07028,-0.123274 -0.113531,-0.241202 -0.04324,-0.343035 -0.06488,-0.600317 -0.06488,-0.771846 0,-0.428795 0.178405,-1.082721 0.535217,-1.961778 0.44331,-1.071998 1.081245,-1.806323 1.913807,-2.202978 0.345996,-0.17151 0.800119,-0.300151 1.362371,-0.385924 0.23787,-0.05359 0.475743,-0.101828 0.713622,-0.144722 0.172995,-0.03215 0.513587,-0.04822 1.021778,-0.04824 0.508181,1.3e-5 0.778492,0.0054 0.810936,0.01608 0.616303,0.225134 1.037989,0.396655 1.265059,0.514564 0.573052,0.300175 1.010956,0.664658 1.313714,1.093449 0.475739,0.653937 0.83255,1.425783 1.070434,2.315541 0.05405,0.17153 0.09731,0.541373 0.12975,1.109529 0.04323,0.621773 0.08109,1.023776 0.113531,1.206011 0.162176,0.889773 0.243269,1.291776 0.24328,1.20601 l 0,1.463293 c -1.1e-5,0.04288 0.01621,0.150086 0.04866,0.321603 0.04323,0.203685 0.07027,0.343046 0.0811,0.418084 0.04323,0.353766 0.06487,0.84153 0.06488,1.463292 m -1.930024,-0.900488 c -9e-6,-1.415048 -0.09191,-2.524577 -0.275719,-3.328588 -0.05407,-0.235836 -0.102726,-0.62176 -0.145968,-1.15777 -0.04325,-0.493117 -0.118946,-0.943361 -0.227061,-1.350732 -0.01083,-0.182234 -0.05407,-0.418076 -0.12975,-0.707526 -0.237882,-0.460955 -0.659568,-0.793277 -1.265059,-0.996969 -0.194631,-0.06431 -0.556849,-0.128631 -1.086653,-0.192962 -0.421692,-0.05359 -0.692003,-0.08039 -0.810935,-0.0804 -0.573065,1e-5 -1.043407,0.112571 -1.411027,0.337683 -0.16219,0.04288 -0.367627,0.123291 -0.61631,0.241202 -0.29194,0.214411 -0.486564,0.477053 -0.583873,0.787926 -0.0865,0.300172 -0.173002,0.605694 -0.2595,0.916568 -0.0865,0.300171 -0.173002,0.750414 -0.259499,1.350732 -0.07568,0.557451 -0.113533,0.970174 -0.113531,1.238171 -2e-6,-0.01071 0.03784,0.273367 0.113531,0.852247 0.07568,0.57889 0.113529,1.007693 0.113531,1.286412 -2e-6,0.235845 0.02703,0.514566 0.0811,0.836167 0.07568,0.375206 0.113529,0.616406 0.113531,0.723606 0.05406,0.750407 0.405465,1.420413 1.054216,2.010018 0.659556,0.589604 1.416428,0.884406 2.270618,0.884407 2.292235,-1e-6 3.438356,-1.21673 3.438365,-3.650192 m -2.38415,-5.049164 c -6e-6,0.128649 -0.145975,0.412731 -0.437904,0.852248 -0.151381,0.214408 -0.302755,0.42881 -0.454124,0.643206 -0.400067,0.664651 -0.637941,1.050574 -0.713623,1.157769 -0.389253,0.60033 -0.773095,1.088094 -1.151527,1.463294 -0.04326,-0.03215 -0.09732,-0.08576 -0.162188,-0.160802 -0.173003,-0.643201 -0.259502,-1.125605 -0.259498,-1.447213 -4e-6,-0.03215 0.02162,-0.198316 0.06488,-0.498484 0.05406,-0.310877 0.0919,-0.535998 0.113531,-0.675366 0.02162,-0.289435 0.08109,-0.728959 0.178406,-1.318572 0.06487,-0.235834 0.297339,-0.498476 0.697403,-0.787926 0.410869,-0.289434 0.735244,-0.434156 0.973123,-0.434164 0.302743,8e-6 0.567648,0.13401 0.794716,0.402003 0.237868,0.268011 0.356805,0.536014 0.356811,0.804007 m 0.405468,4.856203 c -7e-6,0.150083 -0.07029,0.536007 -0.210843,1.15777 -0.06488,0.246564 -0.232475,0.466325 -0.50278,0.659285 -0.313567,0.203683 -0.621722,0.305524 -0.924466,0.305523 -0.129755,10e-7 -0.275723,-0.04824 -0.437905,-0.144721 -0.162191,-0.09649 -0.243285,-0.225121 -0.24328,-0.385924 l 1.9949,-3.53763 c 0.07568,0.04289 0.183805,0.117926 0.324374,0.225122 l 0,1.720575"
       id="text42799" />
    <path
       inkscape:connector-curvature="0"
       style="font-size:20.67131996px;font-style:normal;font-variant:normal;font-weight:normal;font-stretch:normal;text-align:start;line-height:100%;writing-mode:lr-tb;text-anchor:start;fill:#000000;fill-opacity:1;stroke:none;font-family:Indigo Joker"
       d="m 60.977067,81.126824 c -1.5e-5,0.932087 -0.203868,1.837147 -0.611561,2.715184 -0.02814,0.148599 -0.08437,0.351224 -0.168707,0.607876 -0.365544,1.121201 -1.103635,2.046525 -2.214273,2.775972 -0.351484,0.243154 -0.836515,0.479551 -1.455094,0.709189 -0.421777,0.162104 -0.688895,0.344467 -0.801357,0.54709 -9e-6,0.148595 -0.01407,0.344466 -0.04217,0.587614 -10e-6,0.08105 -0.03515,0.216137 -0.105442,0.405252 -0.0703,0.189119 -0.105451,0.310694 -0.105441,0.364726 -1e-5,0.02702 0.09138,0.168856 0.274148,0.425513 0.196814,0.256661 0.323344,0.445778 0.37959,0.567352 0.01405,0.04052 0.02108,0.182364 0.02109,0.425514 -1e-5,0.283676 -0.161687,0.742961 -0.485032,1.377855 -0.01407,0.108065 -0.04921,0.249903 -0.105441,0.425513 -0.224951,0.459283 -0.527217,0.851026 -0.906798,1.17523 -0.154656,0.148589 -0.527217,0.324197 -1.117681,0.526826 -0.885717,0.297181 -1.673013,0.445772 -2.361893,0.445776 -0.717007,-4e-6 -1.356685,-0.168857 -1.919037,-0.506564 -0.717005,-0.418762 -1.075506,-0.999622 -1.075504,-1.74258 -2e-6,-0.310694 0.07732,-0.648403 0.231971,-1.013128 0.126528,-0.283677 0.253058,-0.574107 0.37959,-0.871291 -0.112474,-0.05403 -0.267121,-0.1621 -0.463943,-0.324201 -0.09842,-0.121574 -0.14762,-0.493054 -0.147618,-1.114441 -2e-6,-1.094175 0.309293,-2.789475 0.927886,-5.085904 -0.0703,-0.05403 -0.119503,-0.08105 -0.147618,-0.08105 -0.02813,7e-6 -0.260092,0.128336 -0.695915,0.384989 -0.52018,0.29719 -0.89274,0.499815 -1.117681,0.607876 -0.14059,-0.108061 -0.224943,-0.209373 -0.25306,-0.303938 -0.224942,-1.013121 -0.590473,-2.519304 -1.096592,-4.518552 -0.02812,-0.108056 -0.09842,-0.303927 -0.210883,-0.587614 -0.12653,-0.283665 -0.189795,-0.445765 -0.189795,-0.486302 0,-0.202614 0.37959,-0.648389 1.138769,-1.337329 0.674825,-0.580847 1.082532,-0.911802 1.223123,-0.992866 0.477999,-0.256645 0.96303,-0.50655 1.455094,-0.749714 0.646704,-0.337695 1.110647,-0.533566 1.391829,-0.587616 0.30929,-0.121559 0.787292,-0.270151 1.434005,-0.445776 0.955997,-0.135067 1.687058,-0.202609 2.193187,-0.202625 0.8857,1.6e-5 1.616761,0.02703 2.193185,0.08104 0.224932,0.08106 0.562344,0.189133 1.012239,0.324202 1.054404,0.270182 1.876848,0.830779 2.467334,1.681792 0.32334,0.486316 0.590459,1.087437 0.801356,1.803369 0.182751,0.621396 0.274133,1.283306 0.274148,1.985731 m -1.919037,0.810503 c -1.3e-5,-0.567342 -0.007,-0.884789 -0.02109,-0.952341 -0.548309,-2.242379 -2.467344,-3.363572 -5.757112,-3.363586 -0.759187,1.4e-5 -1.630836,0.175623 -2.614952,0.526827 -0.09842,1.2e-5 -0.224947,0.01352 -0.37959,0.04052 -1.082537,0.472805 -1.862804,0.986123 -2.340804,1.539955 -0.182767,0.202637 -0.274149,0.391754 -0.274148,0.567352 -10e-7,0.364736 0.133558,1.229272 0.400678,2.593608 0.01406,0.09456 0.09841,0.202633 0.25306,0.324201 1.673003,-0.905052 2.804742,-1.357583 3.39522,-1.357592 0.632643,9e-6 1.145792,0.155356 1.539448,0.466039 0.407699,0.310702 0.611553,0.763232 0.611561,1.357592 -8e-6,0.06755 -0.0703,0.209387 -0.210883,0.425514 -0.126538,0.216141 -0.217921,0.330962 -0.274148,0.344463 -0.112479,0.05404 -0.274156,0.114829 -0.485031,0.182363 -0.0703,7e-6 -0.34445,7e-6 -0.822446,0 -0.05624,7e-6 -0.309301,-0.0068 -0.759179,-0.02026 -0.435831,-0.02701 -0.681861,-0.04052 -0.738092,-0.04052 -0.168711,7e-6 -0.29524,0.3107 -0.379589,0.932079 -0.0703,0.418765 -0.154652,0.986116 -0.25306,1.702055 -0.0703,0.108071 -0.105446,0.175613 -0.105442,0.202626 l 0,1.641268 c -4e-6,0.09456 0.02812,0.202627 0.08435,0.324201 0.08435,0.17561 0.182762,0.263415 0.295237,0.263413 0.04217,2e-6 0.506115,-0.09455 1.391829,-0.283676 0.02812,2e-6 0.463937,-0.05403 1.307476,-0.162101 0.562348,-0.06754 0.927878,-0.168851 1.096594,-0.303938 0.05623,-0.39174 0.13355,-0.959092 0.231971,-1.702055 0.05623,-0.05403 0.372551,-0.114818 0.948974,-0.182363 0.702935,-0.09455 1.412907,-0.466035 2.129921,-1.114442 0.716991,-0.648396 1.202022,-1.330568 1.455094,-2.046518 0.182753,-0.51331 0.274135,-1.148204 0.274148,-1.904681 m -4.5129,9.381567 c -1e-5,-0.270167 -0.133569,-0.506564 -0.400679,-0.709189 -0.253068,-0.216133 -0.534245,-0.3242 -0.843533,-0.324201 -0.576421,10e-7 -1.272335,0.189118 -2.087744,0.567351 -0.998185,0.472793 -1.497274,1.026636 -1.497271,1.661531 -3e-6,0.22964 0.0492,0.371478 0.147619,0.425513 0.281173,0.175607 0.590468,0.297183 0.927886,0.364726 0.267113,0.04052 0.506114,0.06078 0.717002,0.06078 0.421761,-2e-6 0.92788,-0.06079 1.51836,-0.182363 0.379582,-0.08106 0.731054,-0.351219 1.054416,-0.810503 0.309287,-0.405252 0.463934,-0.756469 0.463944,-1.053653"
       id="text42803" />
    <path
       inkscape:connector-curvature="0"
       style="font-size:17.42558479px;font-style:normal;font-variant:normal;font-weight:normal;font-stretch:normal;text-align:start;line-height:100%;writing-mode:lr-tb;text-anchor:start;fill:#000000;fill-opacity:1;stroke:none;font-family:Indigo Joker"
       d="m 91.323957,87.23315 c -1.2e-5,0.366687 -0.15643,1.056918 -0.469255,2.070695 -0.375415,1.240258 -0.750818,1.860387 -1.126212,1.860389 -0.03755,-2e-6 -0.125145,-0.01079 -0.262782,-0.03235 -0.137659,-0.01079 -0.225252,-0.01618 -0.262783,-0.01618 -0.05007,-2e-6 -0.30659,0.02157 -0.769578,0.06471 -0.463007,0.05392 -0.719533,0.08089 -0.769578,0.08089 -0.03755,-2e-6 -0.125143,-0.01079 -0.262783,-0.03235 -0.137656,-0.01079 -0.237764,-0.01618 -0.300323,-0.01618 -0.350384,-2e-6 -0.838409,0.03235 -1.464075,0.09706 -0.825894,0.09706 -1.338946,0.156378 -1.539156,0.17795 -0.838407,0.08627 -1.9959,0.20491 -3.472486,0.355901 -0.287811,0.03235 -0.531823,0.09167 -0.732038,0.17795 -0.162675,-0.05393 -0.244013,-0.15099 -0.244013,-0.291191 0,0.04313 0.05006,-0.517676 0.150162,-1.68244 0.100112,-1.261829 0.168932,-2.280998 0.206472,-3.057511 0.01252,-0.03235 0.08134,-0.08088 0.206473,-0.145595 0.287808,-0.06471 0.569361,-0.145593 0.844658,-0.24266 0.1877,-0.02157 0.469253,-0.06471 0.844659,-0.129418 0.200213,-0.05392 0.494278,-0.129415 0.882199,-0.226482 0.06256,-0.04314 0.106359,-0.08627 0.131392,-0.129418 0.350373,-1.682435 0.525561,-2.609933 0.525565,-2.782497 -4e-6,-0.03234 -0.0438,-0.08627 -0.131392,-0.161773 -0.35038,0.237273 -0.869688,0.571604 -1.557925,1.002993 -0.03754,5e-6 -0.100112,-0.05392 -0.187702,-0.161773 0.01252,-0.269616 -0.112624,-0.701011 -0.375405,-1.294184 -0.07508,-0.183336 -0.563107,-0.986809 -1.464074,-2.410418 -0.01252,-0.01078 -0.01878,-0.09705 -0.01878,-0.258837 0.337863,-0.172548 1.176264,-0.657867 2.515206,-1.455957 0.30032,-0.226472 0.750804,-0.539233 1.351454,-0.938284 0.300319,-0.194116 0.763316,-0.463738 1.388995,-0.808865 0.112615,-0.07549 0.281546,-0.177938 0.506795,-0.307369 0.03754,-0.01077 0.143898,-0.01616 0.319094,-0.01618 0.03754,1.3e-5 0.369139,0.04315 0.994819,0.129419 0.625666,0.0755 0.963529,0.113253 1.013591,0.113241 0.03753,1.2e-5 0.106359,-0.0054 0.206473,-0.01618 0.1001,-0.02156 0.175179,-0.03234 0.225242,-0.03235 0.350368,1.2e-5 0.707,0.03236 1.069901,0.09706 0.638176,0.10786 0.957269,0.291203 0.95728,0.550029 -1.1e-5,0.03236 -0.02503,0.102467 -0.07508,0.210304 -0.05007,0.09708 -0.07509,0.172569 -0.07508,0.226482 -0.05007,0.679457 -0.118888,1.191738 -0.206471,1.536844 -0.13766,0.787305 -0.375415,2.02217 -0.713269,3.704603 -0.237765,0.74416 -0.53183,1.806469 -0.882198,3.186928 0.06256,0.09707 0.200206,0.161776 0.412944,0.194128 0.150152,0.02157 0.306571,0.03775 0.469254,0.04854 0.362881,0.04314 0.732028,0.08628 1.107443,0.129418 0.688228,0.129421 1.032348,0.339725 1.03236,0.630915 m -1.858249,0.857397 c -0.03755,-0.03235 -0.09386,-0.08089 -0.168932,-0.145596 -0.350387,-0.06471 -1.245098,-0.183342 -2.684138,-0.355901 -0.06257,-0.08627 -0.09385,-0.172556 -0.09385,-0.258836 -7e-6,0.118635 0.269032,-1.083877 0.807118,-3.607539 0.150154,-0.830428 0.350369,-1.919699 0.600646,-3.267815 0.03753,-0.194119 0.131383,-0.55002 0.281554,-1.067702 0.137638,-0.46374 0.206463,-0.711791 0.206471,-0.744156 -8e-6,-0.08627 -0.02503,-0.150978 -0.07508,-0.194128 l -0.95728,0 c -0.875949,1.1e-5 -1.733121,0.05394 -2.571517,0.161774 -0.150167,0.02158 -0.344125,0.124036 -0.581876,0.307368 -0.225246,0.172568 -0.525569,0.431404 -0.900969,0.776511 -0.475516,0.431404 -0.71327,0.701025 -0.713267,0.808865 -3e-6,0.0755 0.09384,0.318162 0.281552,0.727978 0.212726,0.452973 0.387914,0.679455 0.525566,0.679447 0.03754,8e-6 0.212725,-0.07009 0.525565,-0.210305 0.312832,-0.140195 0.488021,-0.210297 0.525566,-0.210304 0.112616,7e-6 0.200209,0.03776 0.262783,0.113241 -0.02503,0.528465 -0.10637,1.218696 -0.244013,2.070694 -0.237761,1.56381 -0.369151,2.458953 -0.394174,2.685433 -0.03755,0.291193 -0.112626,0.663271 -0.225242,1.116233 -0.02503,0.10785 -0.09385,0.161774 -0.206473,0.161773 -0.05006,10e-7 -0.07509,-0.0054 -0.07508,-0.01618 l 0,0 c -5e-6,-0.02157 -0.01877,-0.03235 -0.05631,-0.03235 -0.05006,10e-7 -0.782095,0.118634 -2.196113,0.3559 -0.187704,0.03235 -0.281554,0.08628 -0.281553,0.161773 l 0,1.455957 4.279604,0 3.247245,0.339724 c 0.200206,-1e-6 0.406677,-0.291192 0.619416,-0.873575 0.137638,-0.399039 0.225233,-0.7118 0.262783,-0.938283"
       id="text42811" />
    <path
       inkscape:connector-curvature="0"
       style="fill:#000000;fill-opacity:1;fill-rule:evenodd;stroke:none"
       d="m 36.775981,76.929845 6.892526,8.830425 -7.605546,8.060225 -4.341499,-2.964372 7.795684,-5.024206 -6.369644,-5.131677 3.628479,-3.770395 z"
       id="path42815"
       sodipodi:nodetypes="ccccccc" />
    <path
       inkscape:connector-curvature="0"
       style="fill:#000000;fill-opacity:1;fill-rule:evenodd;stroke:none"
       d="m 68.29146,76.517879 6.892526,8.830425 -7.605546,8.060225 -4.341499,-2.964372 7.795684,-5.024206 -6.369644,-5.131677 3.628479,-3.770395 z"
       id="path43702"
       sodipodi:nodetypes="ccccccc" />
  </g>
</svg>
