<?xml version="1.0" encoding="UTF-8" standalone="no"?>
<!-- Created with Inkscape (http://www.inkscape.org/) -->

<svg
   xmlns:dc="http://purl.org/dc/elements/1.1/"
   xmlns:cc="http://creativecommons.org/ns#"
   xmlns:rdf="http://www.w3.org/1999/02/22-rdf-syntax-ns#"
   xmlns:svg="http://www.w3.org/2000/svg"
   xmlns="http://www.w3.org/2000/svg"
   xmlns:sodipodi="http://sodipodi.sourceforge.net/DTD/sodipodi-0.dtd"
   xmlns:inkscape="http://www.inkscape.org/namespaces/inkscape"
   width="100"
   height="100"
   id="svg12024"
   sodipodi:version="0.32"
   inkscape:version="0.48.2 r9819"
   version="1.0"
   sodipodi:docname="helicogame.svg">
  <defs
     id="defs12026" />
  <sodipodi:namedview
     id="base"
     pagecolor="#ffffff"
     bordercolor="#666666"
     borderopacity="1.0"
     inkscape:pageopacity="0.0"
     inkscape:pageshadow="2"
     inkscape:zoom="4.8547572"
     inkscape:cx="55.143277"
     inkscape:cy="56.70772"
     inkscape:document-units="px"
     inkscape:current-layer="layer1"
     height="100px"
     width="100px"
     inkscape:window-width="1015"
     inkscape:window-height="756"
     inkscape:window-x="33"
     inkscape:window-y="0"
     showgrid="false"
     inkscape:window-maximized="0" />
  <metadata
     id="metadata12029">
    <rdf:RDF>
      <cc:Work
         rdf:about="">
        <dc:format>image/svg+xml</dc:format>
        <dc:type
           rdf:resource="http://purl.org/dc/dcmitype/StillImage" />
      </cc:Work>
    </rdf:RDF>
  </metadata>
  <g
     inkscape:label="Calque 1"
     inkscape:groupmode="layer"
     id="layer1">
    <path
       style="fill:black;fill-opacity:0.31378299;fill-rule:evenodd;stroke:none;stroke-width:1px;stroke-linecap:butt;stroke-linejoin:miter;stroke-opacity:1"
       d="M 60.496051,19.140696 L 56.996051,19.640696 L 57.089801,21.765696 C 52.112959,21.632409 21.558551,20.578196 21.558551,20.578196 L 21.558551,24.703196 L 57.246051,24.796946 L 57.339801,27.109446 L 55.714801,27.203196 L 53.746051,28.796946 L 51.621051,39.421946 L 21.652301,40.140696 L 22.371051,35.796946 L 19.621051,32.796946 L 16.371051,30.671946 L 12.589801,29.328196 L 7.9960507,29.671946 L 5.1523007,34.984446 L 3.0273007,40.328196 L 3.1835507,46.703196 L 7.2773007,51.140696 L 14.027301,51.671946 L 19.339801,49.734446 L 21.277301,45.640696 L 39.902301,46.703196 C 39.902301,46.703196 47.556514,46.713273 48.621051,46.890696 C 49.685589,47.068119 53.057532,48.316081 53.589801,49.203196 C 54.12207,50.09031 55.162378,52.222332 55.339801,53.109446 C 55.517224,53.996561 56.9648,58.078196 56.964801,58.078196 L 58.683551,59.609446 L 58.433551,59.796946 L 56.777301,62.484446 L 55.902301,65.015696 L 55.152301,68.296946 L 55.089801,69.359446 L 46.183551,69.265696 L 46.777301,73.640696 L 67.277301,74.171946 L 87.152301,74.109446 L 94.902301,74.140696 L 97.871051,73.265696 L 100.4023,69.953196 L 96.683551,64.859446 L 94.433551,69.109446 L 90.277301,69.359446 L 88.714801,69.359446 L 88.589801,66.203196 L 88.277301,63.921946 L 91.714801,63.921946 L 97.402301,61.078196 L 99.527301,56.453196 L 98.652301,49.890696 L 95.464801,44.234446 L 89.433551,37.828196 L 84.277301,33.921946 L 77.714801,32.171946 L 71.308551,32.171946 L 63.683551,33.578196 L 63.871051,30.203196 L 62.464801,26.828196 L 60.496051,26.921946 L 60.496051,24.796946 L 96.527301,24.890696 L 96.121051,21.203196 C 96.12105,21.203196 63.5138,21.764098 60.496051,21.796946 L 60.496051,19.140696 z M 61.246051,61.890696 L 61.746051,62.328196 L 66.339801,63.921946 L 75.933551,63.921946 L 84.871051,63.921946 L 85.152301,65.015696 L 84.714801,67.703196 L 84.308551,69.390696 L 65.621051,69.453196 L 59.496051,69.390696 L 59.621051,67.109446 L 60.058551,64.265696 L 61.121051,62.171946 L 61.246051,61.890696 z "
       id="path41860" />
    <path
       inkscape:connector-curvature="0"
       style="fill:#000000;fill-opacity:1;fill-rule:evenodd;stroke:none"
       d="m 5.3731223,26.908769 4.6129967,-0.354846 3.790704,1.337516 3.230286,2.129075 2.754316,3.005085 -0.726736,4.351123 29.984478,-0.709691 2.129075,-10.645377 1.951652,-1.596806 6.742072,-0.354846 1.419384,3.371036 -0.177423,3.371036 7.629186,-1.419384 6.387226,0 6.564649,1.774229 5.145266,3.903305 6.03238,6.387226 3.193613,5.677534 0.887115,6.564649 -2.129076,4.612997 -5.677534,2.838767 -6.564649,0 -9.225993,0 -9.580839,0 -4.612997,-1.596806 -4.790419,-4.258151 c 0,0 -1.419384,-4.080728 -1.596807,-4.967843 -0.177423,-0.887114 -1.24196,-3.01619 -1.774229,-3.903304 -0.532269,-0.887115 -3.903305,-2.129076 -4.967843,-2.306499 -1.064537,-0.177423 -8.693724,-0.177423 -8.693724,-0.177423 L 18.679843,42.876834 16.728191,46.957561 11.405502,48.909214 4.6634305,48.376945 0.5827028,43.941371 0.4052798,37.554145 2.5343552,32.231457 5.3731223,26.908769 z"
       id="path34718"
       sodipodi:nodetypes="ccccccccccccccccccccccccccsssccccccccc" />
    <path
       inkscape:connector-curvature="0"
       style="fill:#ffcc00;fill-opacity:1;fill-rule:evenodd;stroke:none"
       d="m 6.122306,29.740915 3.764903,-0.303911 3.918386,1.698338 3.33698,2.131067 -0.963565,2.564343 0.854775,3.332413 33.702762,-0.303781 1.807597,-10.012969 1.793798,-1.3676 4.08572,-0.251135 0.354614,3.520466 0.259135,2.992707 9.650917,-2.007283 5.870606,0 6.033687,1.519555 4.729109,3.343022 5.544466,5.470399 2.935304,4.862577 0.815367,5.622355 -1.956875,3.950844 -5.218318,2.431289 -6.033685,0 -8.479771,0 -8.805922,0 -4.239887,-1.3676 -3.822424,-3.752485 c 0,0 -1.304581,-3.178321 -1.467653,-3.938099 -0.163073,-0.759777 -1.163401,-3.965011 -1.31407,-4.13466 C 53.10487,45.545532 49.640506,42.453983 49.239989,42.445946 48.78425,42.436846 40.14114,42.03011 40.14114,42.03011 L 16.893131,40.919889 15.66176,44.95918 11.191789,46.894572 5.6283428,46.702585 2.3526583,43.167575 2.0840338,38.224936 3.9881283,33.719046 6.122306,29.740915 z"
       id="path35605"
       sodipodi:nodetypes="ccccccccccccccccccccccccccsssccccccccc" />
    <path
       inkscape:connector-curvature="0"
       style="fill:#00ffff;fill-opacity:1;fill-rule:evenodd;stroke:none"
       d="m 70.301656,31.950472 -2.239094,4.926005 1.642002,4.776732 2.388366,2.537639 3.582549,2.985457 4.478186,1.940548 5.523096,-0.298546 4.328913,-1.343456 2.537639,-2.388366 -1.642001,-2.985457 -1.940548,-1.940548 -3.582548,-3.582549 -4.62746,-3.284002 -4.478186,-1.343457 -3.731822,-0.597091 -2.239092,0.597091 z"
       id="path36503"
       sodipodi:nodetypes="cccccccccccccccc" />
    <path
       inkscape:connector-curvature="0"
       sodipodi:nodetypes="ccccccccccccccccccccccc"
       style="fill:#000000;fill-opacity:1;fill-rule:evenodd;stroke:none"
       d="m 66.471405,34.18044 -0.05084,3.89022 1.642001,2.686912 3.284004,4.478186 3.433276,3.13473 5.373823,1.940548 4.926005,-0.298546 5.523096,-1.343456 2.08982,-2.537639 0.895637,-1.642001 -1.194183,-1.04491 -2.836184,3.284003 -4.328914,1.343456 -4.776731,0 -2.985458,-0.746365 -2.836184,-2.08982 -2.537639,-2.537639 -1.343456,-2.537639 -1.642001,-2.836184 0.447818,-3.433276 0.895637,-3.13473 -1.791274,-0.447819 -2.188249,3.871969 z"
       id="path35611" />
    <path
       inkscape:connector-curvature="0"
       style="fill:#000000;fill-opacity:1;fill-rule:evenodd;stroke:none"
       d="m 59.255463,54.639949 -3.433276,2.388366 -1.642002,2.686911 -0.895637,2.537639 -0.746364,3.284003 -0.149273,3.134731 3.13473,1.04491 1.940548,-0.447819 -0.597091,-2.239093 0.149272,-2.686912 0.447818,-2.836184 1.04491,-2.08982 0.746365,-1.791275 c 0,0 1.194183,0.149273 1.642002,-0.597091 0.447818,-0.746365 0.447818,-1.940548 0.447818,-1.940548 l -2.08982,-0.447818 z"
       id="path38283"
       sodipodi:nodetypes="cccccccccccccscc" />
    <path
       inkscape:connector-curvature="0"
       style="fill:#000000;fill-opacity:1;fill-rule:evenodd;stroke:none"
       d="m 82.094212,57.177588 1.642002,1.343455 1.940547,2.537639 0.298546,2.388366 0.149273,3.881095 -4.776732,0.597091 0.746364,-2.985457 0.447819,-2.686912 -0.447819,-1.791274 -2.08982,-1.343456 -0.447819,-2.08982 1.343456,-0.895637 1.194183,1.04491 z"
       id="path38285" />
    <g
       id="g38279"
       transform="translate(9.099782,-20.580755)">
      <path
         inkscape:connector-curvature="0"
         sodipodi:nodetypes="cccccccccccc"
         id="path37390"
         d="m 35.063222,91.459235 20.494484,0.517525 19.89587,-0.05721 7.727131,0.03485 2.972501,-0.88578 2.530019,-3.286646 -3.720391,-5.112774 -2.229948,4.25199 -4.156777,0.253838 -24.650499,0.07956 -19.458721,-0.161772 0.596331,4.36641 z"
         style="fill:#000000;fill-opacity:1;fill-rule:evenodd;stroke:none" />
      <path
         inkscape:connector-curvature="0"
         sodipodi:nodetypes="ccccccccccccccccccccc"
         id="path38277"
         d="m 35.884224,89.993804 21.091575,0.479052 19.89587,-0.01995 7.727131,0.01216 1.927591,-1.867582 -1.190372,-3.103262 -1.185038,2.774429 -8.48569,0.439145 -0.0026,-6.676492 -3.286562,-3.243216 2.385806,3.32479 -0.748924,6.608793 -18.967892,0.312421 -9.118958,-0.215443 1.340129,-7.40555 1.93722,-3.673728 -0.753021,-0.182358 -2.544295,3.698737 -1.648657,7.579831 -8.372593,-0.06617 -7.6e-4,1.2244 z"
         style="fill:#999999;fill-opacity:1;fill-rule:evenodd;stroke:none" />
    </g>
    <path
       inkscape:connector-curvature="0"
       style="fill:#ffffff;fill-opacity:1;fill-rule:evenodd;stroke:none"
       d="m 2.3688107,43.045553 -0.2574794,-4.840612 1.3903888,-3.192745 2.2143229,-1.647868 4.737621,-0.772438 3.141249,1.235901 2.471802,1.853851 0.926926,3.347233 -0.102992,1.802356 -1.235901,4.016678 -4.428646,2.00834 -5.510059,-0.25748 -3.3472323,-3.553216 z"
       id="path39176" />
    <path
       inkscape:connector-curvature="0"
       style="fill:#000000;fill-opacity:1;fill-rule:evenodd;stroke:none"
       d="m 7.1592314,40.281764 0.5871401,-2.061831 2.3684635,-0.447819 0.776218,1.259491 -0.25874,2.015184 -2.069917,0.755693 -1.4031646,-1.520718 z"
       id="path39172"
       sodipodi:nodetypes="ccccccc" />
    <path
       inkscape:connector-curvature="0"
       style="fill:#000000;fill-opacity:1;fill-rule:evenodd;stroke:none"
       d="m 16.115604,35.682294 -2.388366,-1.791274 -3.134731,-1.343456 -4.7767315,0.746364 -3.2840031,2.388366 1.1941829,-3.433276 3.1347303,-1.04491 3.2840034,-0.746364 3.13473,1.194183 2.239093,1.343456 2.388366,1.492728 -1.791274,1.194183 z"
       id="path39174" />
    <path
       inkscape:connector-curvature="0"
       style="fill:#000000;fill-opacity:1;fill-rule:evenodd;stroke:none"
       d="m 15.812169,44.442135 1.085977,-3.289219 -0.488885,-4.622244 -2.388366,-3.284003 3.433276,1.194183 1.04491,3.13473 0.591876,2.563061 -1.039695,3.855673 -1.085977,2.445077 -1.153116,-1.997258 z"
       id="path39178"
       sodipodi:nodetypes="cccccccccc" />
    <path
       inkscape:connector-curvature="0"
       style="fill:#000000;fill-opacity:1;fill-rule:evenodd;stroke:none"
       d="m 54.791618,25.433962 -0.411968,-8.559761 3.50172,-0.503514 0,8.559761 -3.089752,0.503514 z"
       id="path39180" />
    <path
       inkscape:connector-curvature="0"
       style="fill:#000000;fill-opacity:1;fill-rule:evenodd;stroke:none"
       d="m 18.950484,21.932242 74.978003,0.205983 -0.411967,-3.707703 c 0,0 -35.429166,0.617951 -36.665067,0.617951 -1.235901,0 -37.900969,-1.235902 -37.900969,-1.235902 l 0,4.119671 z"
       id="path40067"
       sodipodi:nodetypes="cccscc" />
    <path
       style="fill:black;fill-opacity:0.28152493;fill-rule:evenodd;stroke:none;stroke-width:1px;stroke-linecap:butt;stroke-linejoin:miter;stroke-opacity:1"
       d="M 17.920566,39.852811 L 51.495881,41.50068 L 55.615552,45.105391 L 56.851453,49.946004 L 60.559156,54.065674 L 64.266859,56.331493 L 70.858332,56.74346 L 76.831854,56.537476 L 84.041278,56.949444 L 89.190866,56.331493 L 91.868652,54.889608 L 94.752421,52.417806 L 93.928487,57.567394 L 88.160948,60.24518 L 65.090794,59.833213 L 59.941205,58.391328 L 59.529238,56.537476 L 56.233502,55.713542 L 54.791617,53.447724 L 52.319816,46.444284 L 47.788178,43.148547 L 18.538517,41.706663 L 17.920566,39.852811 z "
       id="path40971"
       sodipodi:nodetypes="ccccccccccccccccccccccc" />
  </g>
</svg>
