<?xml version="1.0" encoding="UTF-8" standalone="no"?>
<!-- Created with Inkscape (http://www.inkscape.org/) -->

<svg
   xmlns:dc="http://purl.org/dc/elements/1.1/"
   xmlns:cc="http://creativecommons.org/ns#"
   xmlns:rdf="http://www.w3.org/1999/02/22-rdf-syntax-ns#"
   xmlns:svg="http://www.w3.org/2000/svg"
   xmlns="http://www.w3.org/2000/svg"
   xmlns:sodipodi="http://sodipodi.sourceforge.net/DTD/sodipodi-0.dtd"
   xmlns:inkscape="http://www.inkscape.org/namespaces/inkscape"
   width="234"
   height="386"
   id="svg2"
   version="1.1"
   inkscape:version="0.48.2 r9819"
   sodipodi:docname="rocket.svg">
  <defs
     id="defs4" />
  <sodipodi:namedview
     id="base"
     pagecolor="#ffffff"
     bordercolor="#666666"
     borderopacity="1.0"
     inkscape:pageopacity="0.0"
     inkscape:pageshadow="2"
     inkscape:zoom="0.7"
     inkscape:cx="-0.043027143"
     inkscape:cy="131.63262"
     inkscape:document-units="px"
     inkscape:current-layer="layer1"
     showgrid="false"
     inkscape:window-width="1280"
     inkscape:window-height="752"
     inkscape:window-x="0"
     inkscape:window-y="0"
     inkscape:window-maximized="1"
     fit-margin-top="10"
     fit-margin-left="10"
     fit-margin-bottom="10"
     fit-margin-right="10" />
  <metadata
     id="metadata7">
    <rdf:RDF>
      <cc:Work
         rdf:about="">
        <dc:format>image/svg+xml</dc:format>
        <dc:type
           rdf:resource="http://purl.org/dc/dcmitype/StillImage" />
        <dc:title></dc:title>
      </cc:Work>
    </rdf:RDF>
  </metadata>
  <g
     inkscape:label="Layer 1"
     inkscape:groupmode="layer"
     id="layer1"
     transform="translate(-71.172907,-591.87438)">
    <g
       id="g3089"
       transform="matrix(0.82903757,-0.55919291,0.55919291,0.82903757,-445.40072,408.19836)">
      <path
         inkscape:connector-curvature="0"
         id="path3242"
         d="m 416.2724,512.45544 c -2.68417,-0.3908 -5.57843,-0.44446 -8.66296,-0.13548 -1.23383,0.12359 -2.50446,0.30239 -3.79846,0.5415 -2.588,0.47823 -5.30029,1.18917 -8.11567,2.14169 -2.11159,0.71438 -4.27161,1.56783 -6.50232,2.557 -7.43575,3.29724 -15.5245,8.13484 -24.10432,14.65038 -1.06663,0.76775 -2.14448,1.56401 -3.23,2.37451 -0.84596,0.63166 -1.69014,1.27786 -2.54691,1.93452 -0.83229,0.63793 -1.67014,1.27964 -2.51207,1.94039 -0.15185,0.11919 -0.30143,0.23342 -0.45358,0.35334 -0.32331,0.25476 -0.64944,0.5269 -0.97404,0.78493 -0.0463,0.0367 -0.0962,0.0645 -0.14248,0.10134 -0.26542,0.21119 -0.52169,0.42387 -0.78799,0.63721 -0.56995,0.45657 -1.14458,0.90955 -1.71839,1.37577 -0.29895,0.24279 -0.59281,0.48165 -0.8927,0.72702 -0.0254,0.0208 -0.056,0.0371 -0.0814,0.0579 -0.47492,0.38884 -0.94166,0.79825 -1.41904,1.19343 -0.48272,0.3996 -0.96872,0.78163 -1.45387,1.18756 -0.53739,0.44953 -1.07076,0.91886 -1.611,1.37598 -0.36816,0.31151 -0.7385,0.62648 -1.10792,0.94145 -0.0127,0.0108 -0.028,0.0181 -0.0407,0.029 -0.0125,0.0107 -0.0282,0.0183 -0.0407,0.029 -0.3856,0.32892 -0.76464,0.65519 -1.15156,0.98781 -0.1791,0.15397 -0.3644,0.30874 -0.54378,0.46348 -0.0736,0.0635 -0.13871,0.13342 -0.21231,0.19702 -0.55741,0.48163 -1.11793,0.9652 -1.67793,1.45424 -0.3578,0.3124 -0.71136,0.61455 -1.07016,0.9299 -0.12961,0.11393 -0.25124,0.23336 -0.38098,0.34766 -0.19848,0.17488 -0.39158,0.35151 -0.59036,0.52727 -0.0281,0.0249 -0.0562,0.0505 -0.0843,0.0753 -0.8246,0.72937 -1.65424,1.45181 -2.48354,2.19594 -0.10071,0.0904 -0.19586,0.18175 -0.29664,0.27234 -1.91767,1.72374 -3.85981,3.49309 -5.79909,5.29028 -0.0867,0.0803 -0.16924,0.16292 -0.25595,0.24339 -0.10361,0.0961 -0.21334,0.19048 -0.317,0.28682 -1.74747,1.62403 -3.49803,3.27442 -5.25845,4.95163 -1.35829,1.2941 -2.71967,2.60905 -4.0836,3.93193 -0.52477,0.50897 -1.04236,1.03146 -1.56778,1.54444 -0.1357,0.1325 -0.27146,0.26422 -0.4072,0.39697 -1.70181,1.66431 -3.40743,3.34499 -5.11347,5.04772 -1.51052,1.50758 -3.02067,3.03858 -4.53192,4.57269 -0.53208,0.54014 -1.06497,1.06802 -1.59694,1.61116 -0.13659,0.13947 -0.27355,0.27473 -0.41014,0.41439 -1.95199,1.99588 -3.90596,4.00215 -5.85276,6.03341 -2.0601,2.14945 -4.11604,4.31953 -6.16429,6.50024 -0.66028,0.70296 -1.3109,1.41579 -1.96952,2.12142 -1.50049,1.6076 -2.99584,3.21224 -4.48596,4.83117 -0.3318,0.36047 -0.65795,0.72589 -0.98916,1.08683 -1.75414,1.91158 -3.5131,3.8202 -5.24834,5.74133 -0.56179,0.62196 -1.11628,1.24393 -1.6758,1.8665 -1.27558,1.41931 -2.53707,2.84545 -3.79973,4.26634 -1.07353,1.20804 -2.1431,2.40655 -3.20622,3.61424 -0.75587,0.85866 -1.51053,1.71589 -2.2607,2.57377 -1.14567,1.31013 -2.2874,2.61182 -3.41874,3.91868 -1.15701,1.3365 -2.29276,2.67453 -3.43342,4.00574 -0.49205,0.57424 -0.98348,1.14873 -1.47231,1.72172 -1.57074,1.84124 -3.11762,3.67635 -4.65272,5.5015 -0.35388,0.42074 -0.71889,0.83244 -1.07076,1.25216 -1.44498,1.72363 -2.85968,3.43263 -4.2688,5.13642 -0.42809,0.51761 -0.85868,1.04108 -1.28328,1.5566 -1.54177,1.87194 -3.06398,3.73059 -4.55705,5.57135 -0.246,0.30329 -0.50034,0.61075 -0.74496,0.9131 -0.15054,0.18608 -0.30397,0.38246 -0.45398,0.56818 -1.57855,1.9543 -3.13343,3.89603 -4.65039,5.80634 -1.58749,1.99908 -3.13617,3.97066 -4.6506,5.91375 -0.81946,1.05143 -1.60719,2.07156 -2.40397,3.1048 -0.90513,1.17376 -1.8088,2.33895 -2.6834,3.48749 -0.11832,0.15538 -0.22861,0.30606 -0.34636,0.46095 -0.71197,0.93653 -1.38754,1.84737 -2.07816,2.76574 -0.12762,-0.18701 -0.27314,-0.3627 -0.44607,-0.54085 -0.26836,-0.27607 -0.58918,-0.53455 -0.95947,-0.7886 -0.004,-0.003 -0.0131,8e-5 -0.0174,-0.003 -0.18191,-0.1248 -0.3781,-0.24787 -0.58285,-0.36691 -0.0686,-0.0398 -0.14062,-0.0861 -0.2117,-0.12524 -0.0515,-0.0283 -0.11257,-0.0537 -0.16533,-0.0816 -0.24077,-0.12754 -0.49351,-0.25872 -0.75993,-0.37886 -0.0799,-0.036 -0.16731,-0.0784 -0.24946,-0.1137 -0.50536,-0.21708 -1.05258,-0.40784 -1.63629,-0.59827 -0.29065,-0.0949 -0.59403,-0.18956 -0.90238,-0.27753 -1.03226,-0.29418 -2.16122,-0.55209 -3.36339,-0.76413 -3.41415,-0.60176 -7.429,-0.86896 -11.54193,-0.69257 -1.54159,0.0658 -3.0906,0.20921 -4.63432,0.40056 -0.13387,0.0166 -0.26705,0.0223 -0.40072,0.0399 -1.01665,0.13363 -2.02357,0.30181 -3.0203,0.49362 -0.26168,0.0504 -0.5187,0.10075 -0.77836,0.1553 -0.42955,0.0901 -0.86075,0.18346 -1.28377,0.28498 -0.0255,0.006 -0.05,0.0169 -0.0755,0.0231 -0.96169,0.23259 -1.90052,0.4848 -2.81761,0.77852 -0.30245,0.0969 -0.59823,0.21102 -0.89479,0.31475 -0.21152,0.0739 -0.42216,0.15652 -0.63045,0.23397 -0.19035,0.0708 -0.38482,0.13416 -0.57233,0.20794 -0.45259,0.17795 -0.89323,0.35077 -1.32781,0.54619 -0.65594,0.33652 -1.28481,0.68984 -1.92972,1.03569 -0.91528,0.4907 -1.8292,0.98261 -2.72316,1.4929 -0.46474,0.26534 -0.93007,0.5336 -1.38927,0.80446 -0.10794,0.0636 -0.21209,0.13285 -0.31973,0.19681 -0.89808,0.53378 -1.77885,1.07354 -2.65665,1.62947 -0.19064,0.12068 -0.37422,0.24879 -0.56393,0.37054 -0.79806,0.51242 -1.59264,1.01968 -2.37489,1.55163 -0.0207,0.014 -0.0404,0.0294 -0.061,0.0434 -0.79549,0.54177 -1.59503,1.09619 -2.37509,1.65905 -0.3072,0.22161 -0.61378,0.44392 -0.91869,0.6689 -0.70723,0.52194 -1.40088,1.0581 -2.09627,1.5986 -0.25627,0.19914 -0.50997,0.40359 -0.7647,0.60532 -0.60203,0.4769 -1.20901,0.95947 -1.80276,1.4511 -0.15709,0.13005 -0.32033,0.25412 -0.47686,0.38522 -0.6014,0.50376 -1.18917,1.02449 -1.78261,1.54404 -0.47742,0.41786 -0.95824,0.83475 -1.43079,1.26309 -0.0994,0.0901 -0.19747,0.18176 -0.29665,0.27234 -1.77762,1.62314 -3.51485,3.3363 -5.23263,5.11717 -0.33706,0.34954 -0.68305,0.69023 -1.01812,1.04613 -0.19268,0.20462 -0.37816,0.41346 -0.57021,0.62021 -0.36118,0.38889 -0.71739,0.78305 -1.07644,1.17957 -0.74405,0.82151 -1.49579,1.65198 -2.23154,2.50705 -0.20796,0.24175 -0.41823,0.49176 -0.62559,0.73624 -0.30332,0.35757 -0.59706,0.7206 -0.89916,1.0841 -0.54862,0.6601 -1.08175,1.32018 -1.6267,2.00014 -1.28584,1.60398 -2.5775,3.25573 -3.84752,4.97463 -0.0943,0.12769 -0.18517,0.25436 -0.27944,0.3827 -0.43871,0.5972 -0.86958,1.19185 -1.30698,1.80333 -0.0237,0.0331 -0.0461,0.0625 -0.0698,0.0957 -0.0108,0.0152 -0.0154,0.0341 -0.0262,0.0493 -0.46946,0.65852 -0.94339,1.32584 -1.41186,2.00054 -0.45005,0.64904 -0.90464,1.30955 -1.35376,1.97453 -0.0179,0.0264 -0.0316,0.0547 -0.0495,0.0812 -0.21681,0.32136 -0.42967,0.64046 -0.64635,0.96555 -0.25335,0.37953 -0.51306,0.7581 -0.76572,1.14242 -0.34118,0.51896 -0.67509,1.03753 -1.0162,1.56581 -0.12591,0.19471 -0.24101,0.38685 -0.36691,0.58285 -0.46892,0.72857 -0.94012,1.44959 -1.40934,2.19798 -0.003,0.005 1.3e-4,0.0128 -0.003,0.0174 -0.0597,0.26264 -0.10774,0.53359 -0.15246,0.79811 -0.003,0.0173 -0.006,0.0349 -0.009,0.0522 -0.0363,0.21861 -0.0679,0.44496 -0.0942,0.66466 -0.0268,0.22388 -0.0427,0.44576 -0.0594,0.67053 -0.002,0.0231 -0.0101,0.0465 -0.0117,0.0697 -0.005,0.0711 -0.0139,0.14072 -0.0179,0.2119 -0.002,0.0418 -0.001,0.0829 -0.003,0.12483 -4e-4,0.006 -0.003,0.0117 -0.003,0.0174 -7.7e-4,0.0181 0.009,0.0371 0.009,0.0552 -0.003,0.0709 -0.0157,0.14089 -0.0178,0.21189 -0.003,0.11915 -0.006,0.23777 -0.007,0.35709 -0.002,0.37488 0.003,0.73862 0.0269,1.11489 0.002,0.0244 0.004,0.0482 0.006,0.0726 1.7e-4,0.006 -0.003,0.0118 -0.003,0.0174 0.0127,0.18282 0.0325,0.36295 0.0512,0.5459 0.009,0.0845 0.0186,0.171 0.0285,0.25554 0.004,0.0373 0.0126,0.073 0.0172,0.11036 0.032,0.25768 0.0768,0.51464 0.12047,0.77249 8.3e-4,0.005 -0.004,0.012 -0.003,0.0174 0.05,0.29468 0.0932,0.57375 0.15803,0.86837 0.0649,0.29462 0.14833,0.58583 0.22768,0.88011 0.0737,0.27125 0.15333,0.53982 0.23943,0.81046 0.0158,0.0502 0.03,0.1009 0.0462,0.15105 0.0805,0.2466 0.16097,0.49485 0.25118,0.7408 0.0189,0.0521 0.0443,0.10194 0.0636,0.154 0.007,0.0197 0.0186,0.0384 0.026,0.0581 0.0819,0.21648 0.15952,0.43493 0.24844,0.6508 0.01,0.0244 0.013,0.0511 0.0231,0.0755 0.1223,0.29425 0.25566,0.57877 0.39028,0.87171 0.18537,0.40327 0.37482,0.80911 0.58416,1.20885 0.0411,0.0786 0.0794,0.15687 0.12149,0.23539 0.0501,0.0933 0.0991,0.18302 0.15044,0.2761 0.004,0.007 0.0105,0.0131 0.0145,0.0203 0.0728,0.13194 0.14486,0.26432 0.21989,0.39526 0.40354,0.70413 0.85971,1.39932 1.33152,2.08705 0.009,0.0135 0.0196,0.0272 0.029,0.0407 0.19399,0.28184 0.37143,0.55286 0.57616,0.83142 0.0518,0.0708 0.10969,0.13578 0.16219,0.20644 0.1949,0.26102 0.39846,0.52431 0.60239,0.78211 0.14608,0.18593 0.29256,0.3741 0.44313,0.55826 0.0797,0.0969 0.15654,0.19444 0.23752,0.29078 0.1526,0.18277 0.30655,0.36317 0.46348,0.54378 0.24689,0.28281 0.49616,0.56553 0.75324,0.84337 0.35955,0.38857 0.73727,0.75926 1.11558,1.13728 0.0208,0.0208 0.04,0.0433 0.0608,0.064 0.1909,0.19009 0.39002,0.3771 0.58538,0.56434 0.22061,0.2112 0.43757,0.42388 0.66364,0.63126 0.0155,0.0142 0.0309,0.0294 0.0464,0.0436 0.99899,0.91506 2.04642,1.79435 3.13921,2.62468 0.55905,0.42478 1.12834,0.83736 1.70765,1.23712 0.0218,0.015 0.042,0.0316 0.0638,0.0466 0.005,0.003 0.0129,-1.2e-4 0.0174,0.003 0.27568,0.18938 0.55826,0.36984 0.83798,0.55321 0.26849,0.17603 0.53414,0.35961 0.8061,0.52992 0.0602,0.0377 0.1165,0.082 0.17687,0.11936 0.17125,0.10622 0.3495,0.19906 0.522,0.30293 0.0703,0.0423 0.14117,0.0833 0.2117,0.12524 0.15226,0.0905 0.30212,0.18513 0.45529,0.27377 0.0483,0.0279 0.0995,0.0509 0.14792,0.0786 0.0923,0.053 0.18576,0.1021 0.27842,0.1544 0.0941,0.0531 0.18107,0.11942 0.27548,0.17182 0.005,0.003 0.0126,4e-4 0.0174,0.003 0.19021,0.10548 0.38286,0.20921 0.57425,0.31173 0.39379,0.21092 0.78802,0.41391 1.18626,0.61194 0.0988,0.0491 0.19975,0.0916 0.29877,0.13992 0.0284,0.0139 0.0527,0.0357 0.0812,0.0495 0.48554,0.23554 0.97434,0.44354 1.46488,0.65891 0.21226,0.0933 0.41935,0.19631 0.63236,0.28572 0.0725,0.0304 0.14497,0.0605 0.21758,0.0904 0.49289,0.20355 0.98085,0.4074 1.47662,0.58926 0.24179,0.0886 0.48601,0.16485 0.72824,0.24816 0.0676,0.0233 0.13544,0.0472 0.2031,0.0701 0.33366,0.1126 0.6669,0.22774 1.00099,0.32997 0.9999,0.3063 2.00696,0.56709 3.00337,0.77506 0.11446,0.0239 0.23397,0.036 0.34827,0.0587 0.0468,0.009 0.0896,0.0319 0.13638,0.0409 0.1657,0.0319 0.33963,0.0561 0.505,0.0851 0.33026,0.0574 0.66689,0.10415 0.99552,0.14999 0.16463,0.0232 0.32635,0.0448 0.49052,0.0648 0.4926,0.0601 0.97554,0.1068 1.46296,0.13923 0.32572,0.0216 0.65249,0.0481 0.97538,0.057 0.24476,0.007 0.49159,-8.8e-4 0.73452,-10e-4 0.10824,-3.8e-4 0.21442,0.002 0.32226,6.4e-4 0.0186,-3.1e-4 0.0366,-0.008 0.0551,-0.009 0.0173,-5.2e-4 0.0349,0.009 0.0522,0.009 0.25473,-0.005 0.50543,-0.0196 0.75781,-0.0334 0.15696,-0.009 0.31439,-0.0163 0.47038,-0.0281 0.15286,-0.0117 0.30401,-0.0336 0.4559,-0.0485 0.006,-7.3e-4 0.0118,0.004 0.0174,0.003 0.30709,-0.0304 0.61195,-0.0706 0.91474,-0.11439 0.079,-0.0114 0.15943,-0.0191 0.23812,-0.0315 0.23098,-0.0364 0.45429,-0.0733 0.68249,-0.11774 0.037,-0.007 0.0735,-0.01 0.11035,-0.0172 0.26378,-0.0528 0.52154,-0.10892 0.7813,-0.17271 0.29488,-0.0724 0.59365,-0.15788 0.88305,-0.2451 0.0753,-0.0226 0.15167,-0.0456 0.22658,-0.0692 0.0281,-0.009 0.0505,-0.0315 0.0785,-0.0405 0.0252,-0.008 0.0505,-0.0149 0.0755,-0.0231 0.0622,-0.0203 0.1269,-0.0368 0.18882,-0.0577 0.1005,-0.0341 0.20236,-0.0564 0.30211,-0.0923 0.56584,-0.20324 1.1193,-0.44156 1.65908,-0.70524 0.004,-0.002 0.0133,0.005 0.0174,0.003 0.54398,-0.26635 1.0697,-0.56693 1.58396,-0.897 1.88186,-4.48439 3.51159,-8.39351 5.05121,-12.00688 0.12522,-0.29387 0.2349,-0.56311 0.35871,-0.85287 0.0574,-0.13423 0.11789,-0.26694 0.17496,-0.40031 0.31708,-0.74099 0.63224,-1.47003 0.9419,-2.18725 -0.0366,0.3837 -0.0609,0.76727 -0.0864,1.14952 -0.005,0.071 -0.0134,0.14096 -0.0178,0.2119 -0.0367,0.59757 -0.06,1.2031 -0.0702,1.79696 -0.001,0.0836 -0.005,0.1661 -0.006,0.24967 -0.006,0.57867 -0.004,1.14667 0.0142,1.72164 0.01,0.30745 0.025,0.61406 0.0418,0.92041 0.0228,0.42276 0.0549,0.84824 0.0905,1.26888 0.006,0.0669 0.0139,0.13352 0.0199,0.20036 0.0576,0.64392 0.10994,1.27489 0.19669,1.9136 0.004,0.0313 0.0158,0.0617 0.0201,0.0929 0.17308,1.25362 0.39822,2.49973 0.67808,3.73194 0.0341,0.1496 0.0681,0.29802 0.10366,0.4473 0.1432,0.60207 0.31705,1.20433 0.48433,1.80092 0.0121,0.0433 0.0194,0.0875 0.0317,0.1307 1.55348,5.48098 4.10203,10.73613 7.31541,15.66812 0.0498,0.0763 0.10917,0.14771 0.15925,0.22385 -0.0243,0.0308 -0.0455,0.0648 -0.0698,0.0957 -0.27475,0.34827 -0.54641,0.68976 -0.82069,1.0436 -0.12651,0.16318 -0.24324,0.32848 -0.36965,0.49285 -0.4827,0.62768 -0.96797,1.25913 -1.44943,1.90467 -0.49633,0.6654 -0.99511,1.35612 -1.49033,2.04104 -0.1906,0.26367 -0.37428,0.5336 -0.56474,0.80022 -0.49379,0.69097 -0.98884,1.3854 -1.48173,2.09622 -0.0598,0.0863 -0.12651,0.16852 -0.18629,0.25513 -0.22405,0.3243 -0.4428,0.6515 -0.6667,0.98003 -0.0275,0.0386 -0.0636,0.0711 -0.0902,0.11015 -0.32093,0.47205 -0.63423,0.93394 -0.95495,1.41497 -0.003,0.005 1.1e-4,0.0129 -0.003,0.0174 -0.0818,0.12316 -0.15955,0.24749 -0.24167,0.37116 -0.005,0.006 -0.0161,0.008 -0.0203,0.0145 -0.029,0.0418 -0.0652,0.0854 -0.0932,0.12757 -0.4326,0.65268 -0.85171,1.31684 -1.2841,1.98627 -0.0535,0.083 -0.11238,0.15739 -0.16594,0.24065 -0.003,0.005 1.1e-4,0.013 -0.003,0.0174 -0.40456,0.62912 -0.8156,1.28123 -1.22011,1.92543 -0.003,0.005 1.3e-4,0.0128 -0.003,0.0174 -0.43176,0.68771 -0.86987,1.38548 -1.30172,2.09076 -0.0825,0.1346 -0.16507,0.27073 -0.24754,0.40598 -0.27792,0.45605 -0.56071,0.89944 -0.83872,1.36293 -0.13688,0.22809 -0.26503,0.45445 -0.40195,0.6844 -0.003,0.005 1.4e-4,0.0127 -0.003,0.0174 -0.46461,0.78058 -0.93585,1.55867 -1.40094,2.36057 -0.18416,0.95625 -0.29139,1.92522 -0.34518,2.89677 -4.1e-4,0.006 -0.003,0.0115 -0.003,0.0174 -0.028,0.48136 -0.0367,0.97486 -0.0318,1.46317 0.01,0.983 0.0872,1.96623 0.21793,2.9559 0.0112,0.0853 0.0165,0.17023 0.0285,0.25554 0.0504,0.35518 0.11285,0.71297 0.17797,1.06872 0.0101,0.0551 0.0154,0.11049 0.0258,0.16553 0.0823,0.4348 0.17832,0.86624 0.28204,1.30119 0.0361,0.15075 0.0824,0.29953 0.12108,0.45023 0.0157,0.061 0.0242,0.12486 0.0403,0.18588 0.0825,0.31502 0.17773,0.62656 0.27112,0.94116 0.0143,0.048 0.0142,0.10015 0.0287,0.14812 0.20081,0.66457 0.43659,1.33508 0.68428,1.99582 0.11348,0.30171 0.2267,0.59989 0.34958,0.90066 0.002,0.005 -0.005,0.0126 -0.003,0.0174 0.40064,0.98068 0.85746,1.94769 1.35317,2.91451 0.24787,0.48341 0.50799,0.95973 0.77824,1.43858 0.54049,0.9577 1.13526,1.90476 1.75977,2.8398 0.93677,1.40256 1.9483,2.78024 3.04929,4.11386 0.003,0.003 0.0146,-4.1e-4 0.0174,0.003 0.36427,0.44102 0.73882,0.88462 1.12104,1.3173 0.004,0.004 0.0138,-0.002 0.0174,0.003 0.15497,0.17533 0.30883,0.35257 0.46642,0.52637 0.006,0.006 0.009,0.0142 0.0144,0.0203 0.21526,0.23582 0.4317,0.468 0.6519,0.70091 0.0369,0.0394 0.0672,0.0858 0.10428,0.12504 0.17144,0.1804 0.34524,0.3565 0.51866,0.53518 0.61899,0.63846 1.25197,1.26582 1.90385,1.8791 0.86056,0.80959 1.75216,1.60484 2.66358,2.36539 3.6457,3.0422 7.66581,5.66685 11.83058,7.68991 1.70862,0.82997 3.4467,1.55049 5.18687,2.16405 2.85496,1.0066 5.73091,1.71753 8.55483,2.05141 1.12955,0.13356 2.25587,0.21419 3.36441,0.22704 4.98842,0.0578 9.72297,-1.14335 13.77462,-3.94546 0.74094,-0.84999 1.45817,-1.71002 2.16775,-2.55363 0.48973,-0.58222 0.96555,-1.16583 1.44042,-1.74501 0.47393,-0.57791 0.9429,-1.15821 1.40265,-1.73347 0.37594,-0.47062 0.74807,-0.93706 1.11461,-1.40595 0.0839,-0.10717 0.16691,-0.20888 0.25027,-0.31597 1.16847,-1.50211 2.29374,-2.99483 3.37046,-4.482 0.1585,-0.21876 0.31208,-0.43676 0.46866,-0.65524 0.41875,-0.58462 0.82014,-1.16257 1.22558,-1.74542 0.17924,-0.25748 0.3474,-0.51412 0.52405,-0.77126 0.20137,-0.29325 0.41613,-0.58854 0.61425,-0.88141 1.00905,-1.49152 1.97417,-2.97181 2.90008,-4.45386 10.11123,3.12083 20.56072,3.71704 30.60688,-0.53412 -1.20929,1.10715 -2.44208,2.2119 -3.76326,3.41286 -1.80711,1.64139 -3.46777,3.15086 -5.54021,5.02948 -0.0702,0.29738 -0.13511,0.60042 -0.18752,0.89965 -0.18245,1.04156 -0.24762,2.09331 -0.22663,3.14957 0.002,0.0829 -0.009,0.16676 -0.006,0.24967 0.003,0.0736 0.0135,0.14416 0.017,0.21777 0.003,0.0656 -0.001,0.13175 0.003,0.19742 0.0138,0.24195 0.0328,0.48384 0.0567,0.72592 0.06,0.60844 0.14623,1.20948 0.26654,1.81793 10e-4,0.004 0.0136,0.0164 0.0145,0.0203 0.0595,0.2999 0.11635,0.59216 0.18992,0.89165 0.0754,0.30811 0.16672,0.61343 0.25664,0.92081 0.0887,0.30309 0.17463,0.60424 0.27698,0.90633 0.10235,0.3021 0.21656,0.59691 0.33217,0.89773 0.10188,0.26566 0.20182,0.52406 0.31496,0.78738 0.52378,1.23699 1.16545,2.45151 1.89178,3.65005 0.002,0.004 -0.005,0.0136 -0.003,0.0174 0.70166,1.15675 1.48383,2.28419 2.34808,3.38672 0.003,0.003 0.0147,-3.9e-4 0.0174,0.003 0.21419,0.27305 0.42557,0.55672 0.64875,0.82575 0.003,0.003 0.0146,-4e-4 0.0174,0.003 0.22325,0.26893 0.45467,0.54958 0.68652,0.81421 0.70422,0.80393 1.4431,1.58506 2.21942,2.34422 1.55306,1.51853 3.24137,2.93738 5.01746,4.23083 0.59188,0.43108 1.18451,0.85028 1.79469,1.25179 1.22072,0.80319 2.47219,1.53647 3.74684,2.20778 0.005,0.003 0.0125,3.9e-4 0.0174,0.003 2.22586,1.17118 4.51215,2.13631 6.79399,2.82904 0.65329,0.1983 1.31964,0.37526 1.97026,0.52922 1.30157,0.30806 2.59438,0.53483 3.86592,0.65187 0.63567,0.0585 1.26067,0.0776 1.88398,0.0849 1.24685,0.0147 2.46893,-0.0769 3.64702,-0.28049 0.589,-0.10182 1.16413,-0.22884 1.7311,-0.38864 1.41748,-0.39946 2.75946,-0.97371 4.00396,-1.76047 0.56872,-0.71534 1.13406,-1.42493 1.68503,-2.13357 0.1235,-0.15906 0.24412,-0.31669 0.36671,-0.47544 0.387,-0.50028 0.7512,-0.9958 1.12926,-1.49302 0.27619,-0.36379 0.55522,-0.71619 0.82657,-1.07843 0.23555,-0.3138 0.46378,-0.62664 0.69571,-0.93932 0.40244,-0.54357 0.79588,-1.0861 1.18758,-1.62646 0.0938,-0.12922 0.18621,-0.25365 0.27943,-0.3827 0.48079,-0.6666 0.94731,-1.33839 1.41187,-2.00054 0.0345,-0.0492 0.0791,-0.0929 0.11353,-0.14204 -0.006,-4.1e-4 -0.0116,-0.003 -0.0174,-0.003 12.47787,-17.82182 19.11795,-34.10198 21.66856,-52.88475 1.07543,-12.84454 -6.23767,-30.08332 -12.0854,-34.00528 25.40186,-37.7109 55.208,-92.669 75.47237,-140.64595 0.58997,-1.39671 1.18817,-2.79602 1.76152,-4.18021 0.29803,-0.71929 0.58741,-1.4281 0.88082,-2.14382 0.27282,-0.66564 0.55091,-1.33059 0.81962,-1.99296 0.34183,-0.8421 0.67996,-1.67858 1.01508,-2.51518 0.21558,-0.53825 0.41457,-1.0597 0.62722,-1.59558 0.76018,-1.91402 1.50618,-3.79596 2.22888,-5.67739 0.30515,-0.79484 0.60342,-1.58454 0.90161,-2.37313 0.15443,-0.4081 0.30267,-0.8063 0.45521,-1.21268 0.34329,-0.91505 0.68196,-1.82401 1.01548,-2.73002 0.10028,-0.27186 0.19846,-0.53839 0.29769,-0.80943 0.85705,-2.34137 1.68676,-4.65038 2.47513,-6.92531 0.35423,-0.96867 0.67974,-1.92032 1.00414,-2.8752 0.64885,-1.90974 1.24399,-3.79462 1.77589,-5.64631 0.53366,-1.85773 1.0049,-3.67733 1.42427,-5.47279 0.20912,-0.89491 0.41015,-1.77953 0.5915,-2.65824 0.54559,-2.64255 0.95802,-5.19792 1.26036,-7.68531 0.10052,-0.82724 0.19441,-1.63489 0.26884,-2.44401 0.22281,-2.42119 0.32746,-4.76905 0.32398,-7.0194 9.6e-4,-0.006 0.002,-0.0118 0.003,-0.0174 -0.003,-1.50375 -0.0575,-2.95574 -0.15717,-4.37837 -0.84495,-12.09393 -5.13907,-21.19128 -11.84203,-26.10222 -3.15439,-2.31104 -6.90342,-3.806 -11.19808,-4.43128 z"
         style="fill:#1a1a1a;fill-rule:evenodd;stroke:#1a1a1a;stroke-width:5.65108299" />
      <g
         transform="matrix(0.55724194,0.09396185,-0.09396185,0.55724194,107.44532,414.42471)"
         id="g3155">
        <path
           style="fill:#3771c8;fill-rule:evenodd;stroke:none"
           d="m 588.58345,84.637107 c -24.73658,-12.418022 -62.56671,0.639522 -104.34021,45.099283 -93.20247,94.24172 -220.88146,321.45006 -226.33629,363.3454 -7.67982,56.90468 29.84879,105.971 77.11911,127.83707 1.43245,0.66257 2.89548,1.30801 4.34735,1.92027 11.61495,4.89824 23.82693,8.17155 36.1601,9.54124 1.54165,0.17121 3.07399,0.30944 4.61864,0.42071 32.43779,2.33671 58.54122,-9.69608 92.77362,-35.04451 46.03847,-60.44017 121.29414,-268.03931 143.89318,-402.4896 10.66147,-57.42407 -3.49893,-98.211837 -28.2355,-110.629863 z"
           id="rect3011"
           inkscape:connector-curvature="0"
           sodipodi:nodetypes="sccccssccs" />
        <path
           style="fill:#550000;fill-opacity:1;fill-rule:evenodd;stroke:none"
           d="m 482.72249,582.62706 c -43.76879,10.26311 -92.19162,5.5527 -131.83998,-13.54204 -39.58998,-19.06663 -69.55253,-51.49267 -88.81924,-92.02863 -2.16981,5.25618 -4.33735,10.53956 -6.50117,15.91123 -31.72697,65.87793 26.35709,112.77805 74.32872,134.98187 1.4537,0.6728 2.93825,1.32861 4.41132,1.95107 46.09469,20.72582 105.8049,36.18062 138.51622,-31.7412 3.09848,-5.41512 7.22186,-10.70199 9.90413,-15.5323 z"
           id="path3040"
           inkscape:connector-curvature="0"
           sodipodi:nodetypes="cscccccc" />
        <path
           style="fill:#808080;fill-opacity:1;fill-rule:evenodd;stroke:none"
           d="m 588.58291,84.631895 c -24.73658,-12.418022 -62.56671,0.639522 -104.34022,45.099275 -13.10659,13.25274 -26.90945,29.14642 -40.94385,46.77299 11.45051,29.69312 34.25561,55.62256 65.87566,70.85085 31.23061,15.04074 65.27271,16.86684 95.35317,7.69916 4.96156,-20.94221 9.13607,-41.0758 12.27993,-59.77984 10.66147,-57.42407 -3.48812,-98.224417 -28.22469,-110.642435 z"
           id="path3964"
           inkscape:connector-curvature="0" />
        <path
           style="opacity:0.3688525;fill:#1c2224;fill-rule:evenodd;stroke:none"
           d="M 588.58291,84.631895 C 563.84633,72.213873 526.0162,85.271417 484.24269,129.73117 399.43015,215.48941 286.07742,411.33413 262.24513,477.471 c -0.0641,-0.13434 -0.12375,-0.26805 -0.18767,-0.40255 -2.16981,5.25618 -4.35124,10.53288 -6.51505,15.90455 -22.28104,46.26437 -0.22633,83.14421 31.48059,108.70727 14.66136,-64.41209 42.72813,-132.93109 78.74846,-217.60086 72.2898,-155.4476 158.40275,-283.99625 222.81145,-299.447515 z"
           id="path3981"
           inkscape:connector-curvature="0"
           sodipodi:nodetypes="cccccccc" />
        <path
           style="fill:#aa0000;fill-opacity:1;fill-rule:evenodd;stroke:none"
           d="m 389.00975,493.40057 c -12.35951,-5.43386 -29.12488,-2.19467 -45.99818,12.25495 -39.13561,31.35906 -67.59689,62.56217 -91.45258,126.22616 -0.64322,27.73052 29.69294,54.4621 61.14298,63.68095 3.22564,0.94553 6.47479,1.71572 9.6918,2.27432 16.8893,2.93265 33.21607,0.31487 44.31905,-10.49691 1.0428,-1.70119 2.05142,-3.40996 3.04138,-5.09078 30.68869,-52.10542 36.34325,-94.69938 38.63322,-145.10858 1.95108,-22.34122 -6.22078,-37.95566 -19.37767,-43.74011 z"
           id="path3016"
           inkscape:connector-curvature="0" />
        <path
           style="fill:#aa0000;fill-rule:evenodd;stroke:none"
           d="m 263.63931,477.19006 c -11.24148,33.01363 -15.21251,50.10301 -23.80338,86.74774 -25.60782,23.2724 -88.96079,-6.67924 -87.03939,-39.97283 19.07414,-46.0132 40.62785,-75.7674 72.57464,-99.60649 24.91814,-16.67093 74.04784,-17.42505 65.86622,-2.38928 -12.47359,22.9234 -18.93364,33.60569 -27.59809,55.22086 z"
           id="path3018"
           inkscape:connector-curvature="0"
           sodipodi:nodetypes="ccccsc" />
        <path
           sodipodi:nodetypes="ccccsc"
           inkscape:connector-curvature="0"
           id="path3026"
           d="m 480.13572,581.45525 c -18.80347,29.37176 -29.68921,43.13099 -52.98423,72.69418 -2.23044,34.531 60.68524,65.39064 85.51824,43.13133 24.084,-43.60044 33.90986,-79.0028 32.63131,-118.84329 -2.501,-29.87606 -32.54152,-68.75874 -39.19651,-52.98775 -10.14617,24.0443 -14.47067,35.75507 -25.96881,56.00553 z"
           style="fill:#aa0000;fill-opacity:1;fill-rule:evenodd;stroke:none" />
        <path
           style="fill:#550000;fill-rule:evenodd;stroke:none"
           d="m 245.1365,541.51553 c -16.33147,2.92764 -33.28319,1.07057 -48.86099,-6.43174 -14.72926,-7.09365 -26.30986,-18.30135 -34.19844,-31.83562 -3.18034,6.51908 -6.25694,13.41643 -9.28109,20.7117 -1.92141,33.29359 61.44649,63.2556 87.05432,39.9832 1.96427,-8.37869 3.66283,-15.66943 5.2862,-22.42754 z"
           id="path3935"
           inkscape:connector-curvature="0" />
        <path
           id="path3939"
           d="m 441.37583,636.02815 c 7.89291,14.59416 19.91351,26.69022 35.49131,34.19253 14.72927,7.09365 30.71209,9.16056 46.21216,6.89032 -3.11421,6.55093 -6.58884,13.25659 -10.4073,20.16932 -24.833,22.2593 -87.76609,-8.60555 -85.53565,-43.13656 5.32632,-6.75951 9.96768,-12.63299 14.23948,-18.11561 z"
           style="fill:#550000;fill-rule:evenodd;stroke:none"
           inkscape:connector-curvature="0" />
        <path
           style="fill:#550000;fill-opacity:1;fill-rule:evenodd;stroke:none"
           d="m 265.95302,598.4006 c -4.99787,10.11386 -9.779,21.17555 -14.38907,33.47852 -0.64322,27.73052 29.69295,54.4621 61.14298,63.68095 3.22564,0.94553 6.47479,1.71572 9.6918,2.27432 16.8893,2.93265 33.21608,0.31487 44.31905,-10.49691 1.04281,-1.70119 2.05142,-3.40996 3.04138,-5.09078 5.46583,-9.28026 10.12147,-18.24248 14.12148,-27.01719 -22.50166,3.95184 -46.21558,1.22439 -68.1363,-9.33268 -21.93459,-10.56375 -38.85302,-27.42252 -49.79132,-47.49623 z"
           id="path3943"
           inkscape:connector-curvature="0" />
        <g
           id="g4042"
           transform="matrix(0.90095908,0.43390406,-0.43390406,0.90095908,258.05947,-109.30362)">
          <path
             transform="matrix(0.94736842,0,0,0.94736842,17.06299,279.14688)"
             d="m 425.71429,160.21933 c 0,22.48588 -18.22841,40.71429 -40.71429,40.71429 -22.48588,0 -40.71429,-18.22841 -40.71429,-40.71429 0,-22.48588 18.22841,-40.71429 40.71429,-40.71429 22.48588,0 40.71429,18.22841 40.71429,40.71429 z"
             sodipodi:ry="40.714287"
             sodipodi:rx="40.714287"
             sodipodi:cy="160.21933"
             sodipodi:cx="385"
             id="path3970"
             style="fill:#333333;fill-opacity:1;stroke:none"
             sodipodi:type="arc" />
          <g
             transform="matrix(1.6363636,0,0,1.6363636,-239.45703,-553.58111)"
             id="text3972"
             style="font-size:40px;font-style:normal;font-weight:normal;line-height:125%;letter-spacing:0px;word-spacing:0px;fill:#ffffff;fill-opacity:1;stroke:none;font-family:Sans">
            <path
               inkscape:connector-curvature="0"
               id="path3977"
               style="fill:#3771c8;fill-opacity:1"
               d="m 371.54175,612.90765 6.44531,0 0,-22.24609 -7.01172,1.40625 0,-3.59375 6.97266,-1.40625 3.94531,0 0,25.83984 6.44531,0 0,3.32032 -16.79687,0 0,-3.32032" />
          </g>
        </g>
        <path
           sodipodi:type="arc"
           style="fill:#333333;fill-opacity:1;fill-rule:evenodd;stroke:none"
           id="path3014"
           sodipodi:cx="601.54584"
           sodipodi:cy="455.8671"
           sodipodi:rx="60.104076"
           sodipodi:ry="60.104076"
           d="m 661.64991,455.8671 c 0,33.19456 -26.90951,60.10407 -60.10407,60.10407 -33.19457,0 -60.10408,-26.90951 -60.10408,-60.10407 0,-33.19457 26.90951,-60.10408 60.10408,-60.10408 33.19456,0 60.10407,26.90951 60.10407,60.10408 z"
           transform="matrix(1.2463556,0.60024786,-0.54009687,1.121458,-34.248211,-545.18651)" />
        <path
           sodipodi:type="arc"
           style="fill:#1a1a1a;fill-rule:evenodd;stroke:none"
           id="path4033"
           sodipodi:cx="601.54584"
           sodipodi:cy="455.8671"
           sodipodi:rx="60.104076"
           sodipodi:ry="60.104076"
           d="m 661.64991,455.8671 c 0,33.19456 -26.90951,60.10407 -60.10407,60.10407 -33.19457,0 -60.10408,-26.90951 -60.10408,-60.10407 0,-33.19457 26.90951,-60.10408 60.10408,-60.10408 33.19456,0 60.10407,26.90951 60.10407,60.10408 z"
           transform="matrix(0.90095908,0.43390406,-0.40500743,0.84095807,115.14146,-314.67956)" />
        <path
           transform="matrix(0.90095908,0.43390406,-0.39598341,0.82222059,103.89752,-309.76988)"
           d="m 661.64991,455.8671 c 0,33.19456 -26.90951,60.10407 -60.10407,60.10407 -33.19457,0 -60.10408,-26.90951 -60.10408,-60.10407 0,-33.19457 26.90951,-60.10408 60.10408,-60.10408 33.19456,0 60.10407,26.90951 60.10407,60.10408 z"
           sodipodi:ry="60.104076"
           sodipodi:rx="60.104076"
           sodipodi:cy="455.8671"
           sodipodi:cx="601.54584"
           id="path4035"
           style="fill:#666666;fill-rule:evenodd;stroke:none"
           sodipodi:type="arc" />
        <path
           transform="matrix(0.90095908,0.43390406,-0.39042241,0.81067373,104.89761,-302.62784)"
           d="m 661.64991,455.8671 c 0,33.19456 -26.90951,60.10407 -60.10407,60.10407 -33.19457,0 -60.10408,-26.90951 -60.10408,-60.10407 0,-33.19457 26.90951,-60.10408 60.10408,-60.10408 33.19456,0 60.10407,26.90951 60.10407,60.10408 z"
           sodipodi:ry="60.104076"
           sodipodi:rx="60.104076"
           sodipodi:cy="455.8671"
           sodipodi:cx="601.54584"
           id="path3022"
           style="fill:#80b3ff;fill-rule:evenodd;stroke:none"
           sodipodi:type="arc" />
        <path
           style="fill:#d5e5ff;stroke:none"
           d="m 512.64798,302.60264 c -6.45057,-16.28351 -27.01513,-1.26882 -19.10718,12.1696 3.28676,13.75 21.76701,29.85944 7.42943,43.11178 -6.1946,2.67599 -10.52983,15.88776 0.14639,11.00372 10.28401,-10.73593 15.99989,-25.96825 19.10696,-40.22852 0.29428,-9.08422 -1.50385,-18.9766 -7.5756,-26.05658 z"
           id="path3889"
           inkscape:connector-curvature="0" />
        <path
           style="fill:#d5e5ff;fill-opacity:1;stroke:none"
           d="m 443.45722,328.70364 c -3.96917,-4.96116 -6.22537,-12.29898 -13.49566,-13.28419 -6.45355,0.27057 -8.38421,8.60277 -7.86103,13.89513 0.38212,6.85872 4.61566,12.89268 10.66298,15.99829 4.51962,2.69279 9.48219,4.49616 14.2335,6.71846 6.39454,-1.96726 5.4757,-10.62836 2.32371,-15.07179 -1.70298,-2.9241 -3.92025,-5.49663 -5.8635,-8.2559 z"
           id="path3899"
           inkscape:connector-curvature="0" />
        <path
           style="opacity:0.38114756;fill:#2b0000;fill-opacity:1;fill-rule:evenodd;stroke:none"
           d="m 386.23151,492.3351 c -12.03002,-3.84207 -27.58062,-0.0708 -43.21497,13.31786 -31.57272,25.29897 -56.19901,50.52547 -77.06352,92.74764 -0.62812,1.27109 -1.23626,2.55481 -1.85765,3.85723 -0.57125,1.19731 -1.14176,2.39286 -1.70746,3.6174 -0.1262,0.2729 -0.2673,0.54223 -0.39323,0.81649 -0.42111,0.91813 -0.84085,1.82442 -1.25896,2.75815 -0.11107,0.24768 -0.21353,0.4968 -0.32439,0.74559 -0.0418,0.094 -0.0938,0.18743 -0.1356,0.28155 -0.56283,1.26618 -1.11868,2.54522 -1.6762,3.84056 -0.0705,0.16405 -0.13192,0.32767 -0.20235,0.4922 -0.52915,1.23438 -1.04116,2.49343 -1.56565,3.75506 -0.5896,1.41977 -1.18311,2.8622 -1.76697,4.31713 -0.5897,1.46947 -1.18087,2.95059 -1.7649,4.45686 -0.58319,1.50411 -1.15801,2.99858 -1.73571,4.5403 -0.0201,0.86657 -0.001,1.72104 0.0383,2.58517 0.0781,1.73758 0.25767,3.44152 0.56575,5.16308 0.30643,1.71238 0.73055,3.42257 1.24984,5.11102 1.29824,4.22112 3.23498,8.37155 5.70409,12.35492 0.98765,1.59334 2.06511,3.16331 3.21457,4.7045 0.57474,0.7706 1.16847,1.52374 1.78093,2.27979 1.22491,1.5121 2.5307,2.99498 3.89556,4.44282 2.72971,2.89569 5.69771,5.64993 8.89971,8.24024 0.008,0.006 0.0203,0.007 0.0281,0.0136 1.18387,0.9571 2.40864,1.88768 3.64753,2.79722 0.23165,-28.94162 7.95187,-62.02825 23.60322,-94.52673 20.87701,-43.34905 51.3465,-76.31475 82.03988,-92.70961 z"
           id="path4008"
           inkscape:connector-curvature="0" />
        <path
           style="fill:#2a0000;fill-opacity:0.38039216;fill-rule:evenodd;stroke:none"
           d="m 287.91117,413.663 c -11.53415,-5.34967 -43.86741,-1.80577 -62.55601,10.69742 -26.88171,20.05947 -46.39911,44.28926 -63.27809,78.88775 -0.0316,0.0648 -0.0633,0.13219 -0.0949,0.19709 -0.6403,1.31476 -1.26433,2.6666 -1.8973,4.01156 -0.12037,0.25619 -0.246,0.50288 -0.3661,0.76019 -0.4997,1.06854 -0.99402,2.14888 -1.48948,3.23678 -0.61074,1.34426 -1.22165,2.70608 -1.82638,4.0804 -0.44265,1.00595 -0.88491,2.01648 -1.32469,3.03867 -0.76475,1.77432 -1.52578,3.56219 -2.28223,5.38701 -0.21016,3.64149 0.36829,7.25647 1.58508,10.75274 0.17388,0.49949 0.33914,0.97855 0.539,1.47356 1.00004,2.4823 2.34295,4.89674 3.937,7.2376 0.52811,0.77554 1.08326,1.53892 1.66934,2.29542 0.11483,0.14808 0.22503,0.29489 0.342,0.4422 1.08377,1.36648 2.24142,2.67897 3.49725,3.97351 0.007,0.007 0.0214,0.007 0.0281,0.0136 2.07643,2.13827 4.37368,4.20044 6.84138,6.10433 3.46604,2.67414 7.26714,5.09868 11.27433,7.19869 16.02878,8.40004 35.32352,11.679 49.22709,5.67155 2.48298,-1.07262 4.79431,-2.45229 6.88514,-4.14143 0.41817,-0.33784 0.82844,-0.6749 1.22856,-1.03853 1.96427,-8.37869 3.66283,-15.66943 5.2862,-22.42754 5.47651,-22.79894 9.81716,-38.85138 18.48831,-64.31657 8.66445,-21.61517 15.13648,-32.3176 27.61007,-55.241 2.04541,-3.75894 0.52101,-6.51174 -3.32371,-8.29496 z"
           id="path4016"
           inkscape:connector-curvature="0" />
        <path
           style="fill:#290000;fill-opacity:0.14509804;fill-rule:evenodd;stroke:none"
           d="m 492.53812,557.2333 c -3.47612,7.61868 -7.18981,15.05929 -12.40158,24.23823 -14.50412,22.65601 -24.34868,36.05776 -38.75989,54.55372 -1.93643,2.4853 -3.90978,5.00144 -6.03559,7.70694 -2.67035,3.39584 -5.14036,6.52082 -8.2039,10.40868 -0.0349,0.53955 -0.0426,1.07047 -0.046,1.60803 -0.0171,2.68785 0.34517,5.35514 1.05456,7.96521 0.1438,0.52908 0.31354,1.06148 0.48476,1.58619 0.16664,0.51072 0.32002,1.02366 0.51188,1.52988 0.003,0.007 0.0255,0.007 0.0282,0.0136 0.19208,0.5058 0.37883,0.99975 0.59531,1.50069 0.2223,0.51543 0.47415,1.01687 0.72148,1.52677 0.24394,0.50278 0.46757,1.00158 0.73505,1.49861 0.004,0.007 0.0242,0.006 0.0282,0.0136 0.2638,0.48945 0.53261,0.98593 0.81848,1.46942 0.51188,0.86714 1.0657,1.71522 1.64533,2.56134 10.85173,-10.94893 22.89979,-27.1556 33.76604,-46.34508 16.24177,-28.68251 25.43177,-56.19259 25.05781,-71.83574 z"
           id="path4023"
           inkscape:connector-curvature="0" />
        <path
           style="opacity:0.21311478;fill:#ffffff;fill-opacity:1;stroke:none"
           d="m 610.35588,149.00029 c -0.76525,19.72184 0.24635,32.28457 -27.55269,60.86981 22.1291,-34.91818 8.3532,-105.69735 14.81689,-100.43431 9.94189,1.41475 13.53615,18.93803 12.7358,39.5645 z"
           id="path4031"
           inkscape:connector-curvature="0"
           sodipodi:nodetypes="sccs" />
        <path
           style="fill:#2b2b2b;fill-opacity:1;fill-rule:evenodd;stroke:none"
           d="m 496.05687,257.23554 c -40.0032,-16.10125 -84.56919,-1.71495 -101.68407,33.82243 -17.12741,35.56337 -0.5518,79.40916 37.03547,100.63008 -31.34814,-24.15271 -44.1307,-63.93128 -28.44821,-96.49444 15.6698,-32.53678 54.69876,-47.36284 93.09681,-37.95807 z"
           id="path4039"
           inkscape:connector-curvature="0" />
        <path
           sodipodi:type="arc"
           style="opacity:0.21311478;fill:#ffffff;fill-opacity:1;stroke:none"
           id="path4148"
           sodipodi:cx="505.71429"
           sodipodi:cy="578.79077"
           sodipodi:rx="7.1428571"
           sodipodi:ry="19.285715"
           d="m 512.85715,578.79077 c 0,10.65121 -3.19796,19.28572 -7.14286,19.28572 -3.94489,0 -7.14285,-8.63451 -7.14285,-19.28572 0,-10.6512 3.19796,-19.28571 7.14285,-19.28571 3.9449,0 7.14286,8.63451 7.14286,19.28571 z"
           transform="translate(19.881166,-14.820887)" />
        <path
           transform="matrix(1.2994556,0.60869943,-0.64828182,1.2201143,96.889197,-483.62046)"
           d="m 512.85715,578.79077 c 0,10.65121 -3.19796,19.28572 -7.14286,19.28572 -3.94489,0 -7.14285,-8.63451 -7.14285,-19.28572 0,-10.6512 3.19796,-19.28571 7.14285,-19.28571 3.9449,0 7.14286,8.63451 7.14286,19.28571 z"
           sodipodi:ry="19.285715"
           sodipodi:rx="7.1428571"
           sodipodi:cy="578.79077"
           sodipodi:cx="505.71429"
           id="path4152"
           style="opacity:0.21311478;fill:#ffffff;fill-opacity:1;stroke:none"
           sodipodi:type="arc" />
      </g>
    </g>
  </g>
</svg>
