<?xml version="1.0" encoding="UTF-8" standalone="no"?>
<!-- Created with Inkscape (http://www.inkscape.org/) -->

<svg
   xmlns:dc="http://purl.org/dc/elements/1.1/"
   xmlns:cc="http://creativecommons.org/ns#"
   xmlns:rdf="http://www.w3.org/1999/02/22-rdf-syntax-ns#"
   xmlns:svg="http://www.w3.org/2000/svg"
   xmlns="http://www.w3.org/2000/svg"
   xmlns:xlink="http://www.w3.org/1999/xlink"
   xmlns:sodipodi="http://sodipodi.sourceforge.net/DTD/sodipodi-0.dtd"
   xmlns:inkscape="http://www.inkscape.org/namespaces/inkscape"
   width="64"
   height="74"
   id="svg2"
   sodipodi:version="0.32"
   inkscape:version="0.48.2 r9819"
   sodipodi:docname="back1.svg"
   inkscape:output_extension="org.inkscape.output.svgz.inkscape"
   version="1.0"
   style="display:inline;enable-background:new"
   inkscape:export-filename="/home/tef/Desktop/watercycle_preview_04.png"
   inkscape:export-xdpi="90"
   inkscape:export-ydpi="90">
  <defs
     id="defs4">
    <inkscape:perspective
       sodipodi:type="inkscape:persp3d"
       inkscape:vp_x="0 : 260 : 1"
       inkscape:vp_y="0 : 1000 : 0"
       inkscape:vp_z="800 : 260 : 1"
       inkscape:persp3d-origin="400 : 173.33333 : 1"
       id="perspective5750" />
    <linearGradient
       inkscape:collect="always"
       id="linearGradient7115">
      <stop
         style="stop-color:#deaa87;stop-opacity:1;"
         offset="0"
         id="stop7117" />
      <stop
         style="stop-color:#deaa87;stop-opacity:0;"
         offset="1"
         id="stop7119" />
    </linearGradient>
    <linearGradient
       id="linearGradient15760">
      <stop
         id="stop15762"
         offset="0"
         style="stop-color:#00aa00;stop-opacity:1;" />
      <stop
         style="stop-color:#008e00;stop-opacity:1;"
         offset="0.47496903"
         id="stop15764" />
      <stop
         id="stop15766"
         offset="1"
         style="stop-color:#007300;stop-opacity:1;" />
    </linearGradient>
    <linearGradient
       id="linearGradient18703">
      <stop
         style="stop-color:#848484;stop-opacity:1;"
         offset="0"
         id="stop18705" />
      <stop
         style="stop-color:#6d6d6d;stop-opacity:1;"
         offset="1"
         id="stop18707" />
    </linearGradient>
    <linearGradient
       id="linearGradient18687">
      <stop
         style="stop-color:#cccccc;stop-opacity:1;"
         offset="0"
         id="stop18689" />
      <stop
         style="stop-color:#8a8a8a;stop-opacity:1;"
         offset="1"
         id="stop18691" />
    </linearGradient>
    <linearGradient
       id="linearGradient18679">
      <stop
         style="stop-color:#92c5ff;stop-opacity:1;"
         offset="0"
         id="stop18681" />
      <stop
         style="stop-color:#4398ff;stop-opacity:1;"
         offset="1"
         id="stop18683" />
    </linearGradient>
    <linearGradient
       inkscape:collect="always"
       xlink:href="#linearGradient7115"
       id="linearGradient7280"
       gradientUnits="userSpaceOnUse"
       x1="574.89532"
       y1="674.24615"
       x2="574.89532"
       y2="683.6665" />
    <linearGradient
       inkscape:collect="always"
       xlink:href="#linearGradient15760"
       id="linearGradient7350"
       gradientUnits="userSpaceOnUse"
       x1="190.3918"
       y1="222.07539"
       x2="821.79773"
       y2="263.08762" />
    <radialGradient
       inkscape:collect="always"
       xlink:href="#linearGradient18687"
       id="radialGradient7457"
       gradientUnits="userSpaceOnUse"
       gradientTransform="matrix(0.8023362,0.3102283,-0.3276306,0.8473435,134.23176,-1061.139)"
       cx="340.19864"
       cy="93.756691"
       fx="340.19864"
       fy="93.756691"
       r="168.61659" />
    <linearGradient
       inkscape:collect="always"
       xlink:href="#linearGradient18687"
       id="linearGradient7459"
       gradientUnits="userSpaceOnUse"
       gradientTransform="translate(0,-960)"
       x1="216.56773"
       y1="86.94973"
       x2="253.94122"
       y2="162.94974" />
    <radialGradient
       inkscape:collect="always"
       xlink:href="#linearGradient18687"
       id="radialGradient8268"
       gradientUnits="userSpaceOnUse"
       gradientTransform="matrix(0.8023362,0.3102283,-0.3276306,0.8473435,134.23176,-81.13896)"
       cx="340.19864"
       cy="93.756691"
       fx="340.19864"
       fy="93.756691"
       r="168.61659" />
    <linearGradient
       inkscape:collect="always"
       xlink:href="#linearGradient18687"
       id="linearGradient8284"
       gradientUnits="userSpaceOnUse"
       gradientTransform="translate(0,20)"
       x1="216.56773"
       y1="86.94973"
       x2="253.94122"
       y2="162.94974" />
    <linearGradient
       inkscape:collect="always"
       xlink:href="#linearGradient18703"
       id="linearGradient9522"
       gradientUnits="userSpaceOnUse"
       gradientTransform="translate(0,20)"
       x1="833.66272"
       y1="236.70831"
       x2="559.94501"
       y2="119.30124" />
    <linearGradient
       inkscape:collect="always"
       xlink:href="#linearGradient7115"
       id="linearGradient4001"
       gradientUnits="userSpaceOnUse"
       gradientTransform="matrix(0.6165256,0,0,0.6165256,358.73929,75.09851)"
       x1="574.89532"
       y1="674.24615"
       x2="574.89532"
       y2="683.6665" />
    <inkscape:perspective
       id="perspective4065"
       inkscape:persp3d-origin="0.5 : 0.33333333 : 1"
       inkscape:vp_z="1 : 0.5 : 1"
       inkscape:vp_y="0 : 1000 : 0"
       inkscape:vp_x="0 : 0.5 : 1"
       sodipodi:type="inkscape:persp3d" />
    <inkscape:perspective
       id="perspective4166"
       inkscape:persp3d-origin="0.5 : 0.33333333 : 1"
       inkscape:vp_z="1 : 0.5 : 1"
       inkscape:vp_y="0 : 1000 : 0"
       inkscape:vp_x="0 : 0.5 : 1"
       sodipodi:type="inkscape:persp3d" />
    <inkscape:perspective
       id="perspective4142"
       inkscape:persp3d-origin="0.5 : 0.33333333 : 1"
       inkscape:vp_z="1 : 0.5 : 1"
       inkscape:vp_y="0 : 1000 : 0"
       inkscape:vp_x="0 : 0.5 : 1"
       sodipodi:type="inkscape:persp3d" />
    <inkscape:perspective
       id="perspective4156"
       inkscape:persp3d-origin="0.5 : 0.33333333 : 1"
       inkscape:vp_z="1 : 0.5 : 1"
       inkscape:vp_y="0 : 1000 : 0"
       inkscape:vp_x="0 : 0.5 : 1"
       sodipodi:type="inkscape:persp3d" />
    <inkscape:perspective
       id="perspective4952"
       inkscape:persp3d-origin="0.5 : 0.33333333 : 1"
       inkscape:vp_z="1 : 0.5 : 1"
       inkscape:vp_y="0 : 1000 : 0"
       inkscape:vp_x="0 : 0.5 : 1"
       sodipodi:type="inkscape:persp3d" />
    <inkscape:perspective
       inkscape:persp3d-origin="300 : 400 : 1"
       inkscape:vp_z="700 : 600 : 1"
       inkscape:vp_y="0 : 1000 : 0"
       inkscape:vp_x="-50 : 600 : 1"
       id="perspective10"
       sodipodi:type="inkscape:persp3d" />
  </defs>
  <sodipodi:namedview
     id="base"
     pagecolor="#ffffff"
     bordercolor="#666666"
     borderopacity="1.0"
     inkscape:pageopacity="0.0"
     inkscape:pageshadow="2"
     inkscape:zoom="0.88660312"
     inkscape:cx="334.39913"
     inkscape:cy="66.699681"
     inkscape:document-units="px"
     inkscape:current-layer="layer5"
     showgrid="false"
     inkscape:window-width="1125"
     inkscape:window-height="694"
     inkscape:window-x="0"
     inkscape:window-y="1"
     showguides="true"
     inkscape:guide-bbox="true"
     borderlayer="true"
     inkscape:showpageshadow="false"
     inkscape:window-maximized="0" />
  <metadata
     id="metadata7">
    <rdf:RDF>
      <cc:Work
         rdf:about="">
        <dc:format>image/svg+xml</dc:format>
        <dc:type
           rdf:resource="http://purl.org/dc/dcmitype/StillImage" />
        <dc:title></dc:title>
        <dc:date>28/10/2008</dc:date>
        <dc:creator>
          <cc:Agent>
            <dc:title>Cabaraux Stéphane</dc:title>
          </cc:Agent>
        </dc:creator>
        <dc:rights>
          <cc:Agent>
            <dc:title>Cabaraux Stéphane</dc:title>
          </cc:Agent>
        </dc:rights>
        <dc:publisher>
          <cc:Agent>
            <dc:title>Gnurps</dc:title>
          </cc:Agent>
        </dc:publisher>
        <dc:identifier />
        <dc:relation />
        <dc:subject>
          <rdf:Bag>
            <rdf:li>gcompris</rdf:li>
            <rdf:li>watercycle</rdf:li>
          </rdf:Bag>
        </dc:subject>
        <cc:license
           rdf:resource="http://artlibre.org/licence.php/lalgb.html" />
      </cc:Work>
      <cc:License
         rdf:about="http://artlibre.org/licence.php/lalgb.html">
        <cc:permits
           rdf:resource="http://creativecommons.org/ns#Reproduction" />
        <cc:permits
           rdf:resource="http://creativecommons.org/ns#Distribution" />
        <cc:permits
           rdf:resource="http://creativecommons.org/ns#DerivativeWorks" />
        <cc:requires
           rdf:resource="http://creativecommons.org/ns#ShareAlike" />
        <cc:requires
           rdf:resource="http://creativecommons.org/ns#Notice" />
        <cc:requires
           rdf:resource="http://creativecommons.org/ns#Attribution" />
      </cc:License>
    </rdf:RDF>
  </metadata>
  <g
     inkscape:groupmode="layer"
     id="BACKGROUND"
     style="display:inline"
     inkscape:label="BACKGROUND"
     transform="translate(0,-446)" />
  <g
     inkscape:groupmode="layer"
     id="layer5"
     inkscape:label="MISC"
     style="display:inline"
     transform="translate(0,-446)">
    <g
       id="TUX"
       transform="matrix(2.4921748,0,0,2.4921748,-1977.4351,-325.61637)">
      <g
         id="g4014"
         style="fill:#ff7f2a;fill-opacity:1;stroke:#aa4400;stroke-width:2.20038342;stroke-linecap:round;stroke-linejoin:round;stroke-miterlimit:4;stroke-dasharray:none;display:inline;enable-background:new"
         transform="matrix(0.1747013,0,0,0.1486377,783.52229,308.57065)">
        <rect
           id="rect4016"
           style="fill:#ff7f2a;fill-opacity:1;fill-rule:evenodd;stroke:#aa4400;stroke-width:2.20038342;stroke-linecap:round;stroke-linejoin:round;stroke-miterlimit:4;stroke-opacity:1;stroke-dasharray:none"
           y="189.19467"
           x="119.38962"
           height="13.131983"
           width="8.0812206" />
        <rect
           id="rect4018"
           style="fill:#ff7f2a;fill-opacity:1;fill-rule:evenodd;stroke:#aa4400;stroke-width:2.20038342;stroke-linecap:round;stroke-linejoin:round;stroke-miterlimit:4;stroke-opacity:1;stroke-dasharray:none"
           y="188.68959"
           x="140.83061"
           height="13.131983"
           width="8.0812206" />
        <path
           id="path4020"
           style="fill:#ff7f2a;fill-opacity:1;fill-rule:evenodd;stroke:#aa4400;stroke-width:2.20038342;stroke-linecap:round;stroke-linejoin:round;stroke-miterlimit:4;stroke-opacity:1;stroke-dasharray:none"
           d="m 119.5131,200.49794 c 0,0 8.11085,-0.52281 8.67684,1.12017 0.56602,1.64299 1.9183,4.2061 3.63772,5.56444 1.71942,1.35834 -6.78803,2.54625 -11.51958,1.52611 -4.73155,-1.02014 -7.59683,-1.16385 -11.15997,-0.60865 -3.56311,0.5552 -10.005972,2.28701 -13.760456,0.92445 -3.754491,-1.36256 1.505485,-3.34939 -5.400478,-2.96186 -6.905961,0.38755 -14.495295,0.15369 -13.62114,-0.48743 0.874157,-0.64115 27.512834,-5.9592 43.147064,-5.07723 z"
           inkscape:connector-curvature="0" />
        <path
           id="path4022"
           style="fill:#ff7f2a;fill-opacity:1;fill-rule:evenodd;stroke:#aa4400;stroke-width:2.20038342;stroke-linecap:round;stroke-linejoin:round;stroke-miterlimit:4;stroke-opacity:1;stroke-dasharray:none"
           d="m 148.60842,200.49794 c 0,0 -8.11083,-0.52281 -8.67682,1.12017 -0.56601,1.64299 -1.9183,4.2061 -3.63772,5.56444 -1.71942,1.35834 6.78803,2.54625 11.51957,1.52611 4.73156,-1.02014 7.59685,-1.16385 11.15997,-0.60865 3.56312,0.5552 10.00598,2.28701 13.76046,0.92445 3.7545,-1.36256 -1.50548,-3.34939 5.40047,-2.96186 6.90597,0.38755 14.49531,0.15369 13.62115,-0.48743 -0.87416,-0.64115 -27.51283,-5.9592 -43.14708,-5.07723 z"
           inkscape:connector-curvature="0" />
      </g>
      <path
         id="path4024"
         style="fill:#000000;fill-opacity:1;fill-rule:evenodd;stroke:#000000;stroke-width:0.35457733;stroke-linecap:round;stroke-linejoin:round;stroke-miterlimit:4;stroke-opacity:1;stroke-dasharray:none;display:inline;enable-background:new"
         d="m 798.7433,323.50798 c -0.25214,0.008 -0.52043,0.0777 -0.79675,0.23789 -1.36035,0.78869 -3.49877,6.4671 -3.69311,7.41352 -0.19433,0.94642 2.9154,-3.46944 5.44177,-5.20455 l 0.77704,-1.57826 c 0,0 -0.73978,-0.90146 -1.72895,-0.8686 z m 16.3413,0 c -0.96003,0.003 -1.67108,0.8686 -1.67108,0.8686 l 0.77704,1.57826 c 2.52638,1.73511 5.6361,6.15097 5.44177,5.20455 -0.19434,-0.94642 -2.33276,-6.62483 -3.69311,-7.41352 -0.29758,-0.17252 -0.58582,-0.23873 -0.85462,-0.23789 z"
         inkscape:connector-curvature="0" />
      <path
         id="path4026"
         style="fill:#000000;fill-opacity:1;fill-rule:nonzero;stroke:#000000;stroke-width:0.35457733;stroke-linecap:round;stroke-linejoin:round;stroke-miterlimit:4;stroke-opacity:1;stroke-dasharray:none;display:inline;enable-background:new"
         d="m 806.94288,310.1389 c -4.80964,0 -8.71347,4.26451 -8.71347,9.51852 0,1.08733 0.16788,2.13219 0.47568,3.1057 -0.90288,1.5836 -1.42336,3.44699 -1.42336,5.44069 0,5.7475 4.32816,10.41142 9.66115,10.41142 5.333,0 9.66116,-4.66392 9.66116,-10.41142 0,-1.9937 -0.52048,-3.85709 -1.42336,-5.44069 0.3078,-0.97351 0.47568,-2.01837 0.47568,-3.1057 0,-5.25401 -3.90384,-9.51852 -8.71348,-9.51852 z"
         inkscape:connector-curvature="0" />
      <path
         id="path4028"
         style="fill:#ffffff;fill-opacity:1;fill-rule:nonzero;stroke:#ffffff;stroke-width:0.35457733;stroke-linecap:round;stroke-linejoin:round;stroke-miterlimit:4;stroke-opacity:1;stroke-dasharray:none;display:inline;enable-background:new"
         d="m 814.00392,319.0744 c 2.1e-4,3.05576 -2.03488,5.53308 -4.54537,5.53308 -2.51048,0 -4.54557,-2.47732 -4.54536,-5.53308 -2.1e-4,-3.05576 2.03488,-5.53308 4.54536,-5.53308 2.51049,0 4.54558,2.47732 4.54537,5.53308 l 0,0 z"
         inkscape:connector-curvature="0" />
      <path
         id="path4030"
         style="fill:#ffffff;fill-opacity:1;fill-rule:nonzero;stroke:#ffffff;stroke-width:0.3545773;stroke-linecap:round;stroke-linejoin:round;stroke-miterlimit:4;stroke-opacity:1;stroke-dasharray:none;display:inline;enable-background:new"
         d="m 808.83725,319.0744 c 2.1e-4,3.05652 -1.97429,5.53446 -4.41004,5.53446 -2.43574,0 -4.41025,-2.47794 -4.41004,-5.53446 -2.1e-4,-3.05652 1.9743,-5.53446 4.41004,-5.53446 2.43575,0 4.41025,2.47794 4.41004,5.53446 l 0,0 z"
         inkscape:connector-curvature="0" />
      <path
         id="path4032"
         style="fill:#ffffff;fill-opacity:1;fill-rule:nonzero;stroke:#ffffff;stroke-width:0.3248117;stroke-linecap:round;stroke-linejoin:round;stroke-miterlimit:4;stroke-opacity:1;stroke-dasharray:none;display:inline;enable-background:new"
         d="m 813.59892,330.05621 c 0,5.0033 -2.9819,7.18744 -6.65604,7.18744 -3.67413,0 -6.65604,-2.18414 -6.65604,-7.18744 0,-5.0033 2.98191,-9.06395 6.65604,-9.06395 3.67414,0 6.65604,4.06065 6.65604,9.06395 z"
         inkscape:connector-curvature="0" />
      <g
         id="g4034"
         style="stroke-width:1.74461734;stroke-linecap:round;stroke-linejoin:round;stroke-miterlimit:4;stroke-dasharray:none;display:inline;enable-background:new"
         transform="matrix(0.1875939,0,0,0.1886297,763.54579,329.37897)">
        <path
           id="path4036"
           style="fill:#000000;fill-opacity:1;fill-rule:nonzero;stroke:#000000;stroke-width:63.61036301;stroke-linecap:round;stroke-linejoin:round;stroke-miterlimit:4;stroke-opacity:1;stroke-dasharray:none"
           transform="matrix(0.03338411,0,0,0.03338411,213.86605,-64.483747)"
           d="m 485.71428,129.50504 c 0.0129,149.91495 -121.51361,271.45186 -271.42856,271.45186 -149.914952,0 -271.441427,-121.53691 -271.428558,-271.45186 -0.01287,-149.914953 121.513606,-271.45186 271.428558,-271.45186 149.91495,0 271.44143,121.536907 271.42856,271.45186 l 0,0 z"
           inkscape:connector-curvature="0" />
        <path
           id="path4038"
           style="fill:#ffffff;fill-opacity:1;fill-rule:nonzero;stroke:#ffffff;stroke-width:160.84480286;stroke-linecap:round;stroke-linejoin:round;stroke-miterlimit:4;stroke-opacity:1;stroke-dasharray:none"
           transform="matrix(0.01320264,0,0,0.01320264,222.55121,-67.051323)"
           d="m 485.71428,129.50504 c 0.0129,149.91495 -121.51361,271.45186 -271.42856,271.45186 -149.914952,0 -271.441427,-121.53691 -271.428558,-271.45186 -0.01287,-149.914953 121.513606,-271.45186 271.428558,-271.45186 149.91495,0 271.44143,121.536907 271.42856,271.45186 l 0,0 z"
           inkscape:connector-curvature="0" />
      </g>
      <g
         id="g4040"
         style="fill:#ff6600;fill-opacity:1;stroke:#803300;stroke-width:6.57706261;stroke-linecap:round;stroke-linejoin:round;stroke-miterlimit:4;stroke-opacity:1;stroke-dasharray:none;display:inline;enable-background:new"
         transform="matrix(0.03676479,0,0,0.03296609,823.91573,306.80468)">
        <path
           id="path4042"
           style="fill:#ff7f2a;fill-rule:evenodd;stroke-width:9.66249752;stroke-linecap:round;stroke-linejoin:round;stroke-miterlimit:4;stroke-dasharray:none"
           d="m -461.66042,402.2523 c 26.85317,0 113.56111,57.2527 113.56111,57.2527 0,0 -68.42062,16.44861 -114.70332,16.64445 -46.07394,0 -113.94185,-12.82296 -113.94185,-12.82296 0,0 88.21377,-61.07419 115.08406,-61.07419 z"
           sodipodi:nodetypes="ccccc"
           inkscape:connector-curvature="0" />
        <path
           id="path4044"
           style="fill:#ff7f2a;fill-opacity:1;fill-rule:evenodd;stroke:#803300;stroke-width:9.66249752;stroke-linecap:round;stroke-linejoin:round;stroke-miterlimit:4;stroke-opacity:1;stroke-dasharray:none"
           d="m -575.49344,462.7297 113.56111,-18.33969 112.96271,15.79203"
           sodipodi:nodetypes="ccc"
           inkscape:connector-curvature="0" />
        <path
           id="path4046"
           style="fill:#803300;fill-opacity:1;fill-rule:nonzero;stroke:none"
           transform="matrix(7.1663567,2.838336,-2.7400776,7.4233401,22.879161,-2397.9053)"
           d="m 67.25,354.54968 c 0,0.72487 -0.195875,1.3125 -0.4375,1.3125 -0.241625,0 -0.4375,-0.58763 -0.4375,-1.3125 0,-0.72487 0.195875,-1.3125 0.4375,-1.3125 0.241625,0 0.4375,0.58763 0.4375,1.3125 z"
           inkscape:connector-curvature="0" />
        <path
           id="path4048"
           style="fill:#803300;fill-opacity:1;fill-rule:nonzero;stroke:none"
           transform="matrix(-7.1663567,2.838336,2.7400776,7.4233401,-947.15905,-2397.9053)"
           d="m 67.25,354.54968 c 0,0.72487 -0.195875,1.3125 -0.4375,1.3125 -0.241625,0 -0.4375,-0.58763 -0.4375,-1.3125 0,-0.72487 0.195875,-1.3125 0.4375,-1.3125 0.241625,0 0.4375,0.58763 0.4375,1.3125 z"
           inkscape:connector-curvature="0" />
      </g>
      <g
         id="g4050"
         style="stroke-width:2.54848862;stroke-linecap:round;stroke-linejoin:round;stroke-miterlimit:4;stroke-dasharray:none;display:inline;enable-background:new"
         transform="matrix(0.128421,0,0,0.1291301,780.49444,326.04627)">
        <path
           id="path4052"
           style="fill:#000000;fill-opacity:1;fill-rule:nonzero;stroke:#000000;stroke-width:92.9202652;stroke-linecap:round;stroke-linejoin:round;stroke-miterlimit:4;stroke-opacity:1;stroke-dasharray:none"
           transform="matrix(0.03338411,0,0,0.03338411,213.86605,-64.483747)"
           d="m 485.71428,129.50504 c 0.0129,149.91495 -121.51361,271.45186 -271.42856,271.45186 -149.914952,0 -271.441427,-121.53691 -271.428558,-271.45186 -0.01287,-149.914953 121.513606,-271.45186 271.428558,-271.45186 149.91495,0 271.44143,121.536907 271.42856,271.45186 l 0,0 z"
           inkscape:connector-curvature="0" />
        <path
           id="path4054"
           style="fill:#ffffff;fill-opacity:1;fill-rule:nonzero;stroke:#ffffff;stroke-width:234.9576416;stroke-linecap:round;stroke-linejoin:round;stroke-miterlimit:4;stroke-opacity:1;stroke-dasharray:none"
           transform="matrix(0.01320264,0,0,0.01320264,222.55121,-67.051323)"
           d="m 485.71428,129.50504 c 0.0129,149.91495 -121.51361,271.45186 -271.42856,271.45186 -149.914952,0 -271.441427,-121.53691 -271.428558,-271.45186 -0.01287,-149.914953 121.513606,-271.45186 271.428558,-271.45186 149.91495,0 271.44143,121.536907 271.42856,271.45186 l 0,0 z"
           inkscape:connector-curvature="0" />
      </g>
    </g>
  </g>
  <g
     inkscape:groupmode="layer"
     id="layer4"
     inkscape:label="Cliquable"
     style="display:inline"
     transform="translate(0,-446)" />
  <g
     inkscape:groupmode="layer"
     id="FOREGROUND"
     inkscape:label="FOREGROUND"
     style="display:inline"
     transform="translate(0,-446)">
    <g
       style="display:inline;enable-background:new"
       id="g17478"
       transform="matrix(0.9099873,0,0,0.9099873,-85.990819,25.130066)" />
    <g
       style="fill:#d38d5f;fill-opacity:1;display:inline;enable-background:new"
       id="g15790"
       transform="matrix(0.3831471,0,0,0.2692464,341.1036,397.78251)">
      <g
         id="g15802"
         transform="matrix(0.7886114,0,0,0.7886114,81.005046,47.197041)" />
      <g
         transform="matrix(-0.7886114,0,0,0.7886114,777.18677,47.197041)"
         id="g15874"
         inkscape:transform-center-x="-10.783377" />
    </g>
    <g
       transform="translate(840,-520)"
       id="g7437"
       style="display:inline;enable-background:new" />
  </g>
  <g
     inkscape:groupmode="layer"
     id="layer1"
     inkscape:label="FOREGROUND2"
     transform="translate(0,-446)" />
</svg>
