<?xml version="1.0" encoding="UTF-8" standalone="no"?>
<!-- Created with Inkscape (http://www.inkscape.org/) -->

<svg
   xmlns:dc="http://purl.org/dc/elements/1.1/"
   xmlns:cc="http://creativecommons.org/ns#"
   xmlns:rdf="http://www.w3.org/1999/02/22-rdf-syntax-ns#"
   xmlns:svg="http://www.w3.org/2000/svg"
   xmlns="http://www.w3.org/2000/svg"
   xmlns:sodipodi="http://sodipodi.sourceforge.net/DTD/sodipodi-0.dtd"
   xmlns:inkscape="http://www.inkscape.org/namespaces/inkscape"
   width="100"
   height="100"
   id="svg2"
   sodipodi:version="0.32"
   inkscape:version="0.48.2 r9819"
   version="1.0"
   sodipodi:docname="electric.svg">
  <defs
     id="defs4" />
  <sodipodi:namedview
     id="base"
     pagecolor="#ffffff"
     bordercolor="#666666"
     borderopacity="1.0"
     inkscape:pageopacity="0.0"
     inkscape:pageshadow="2"
     inkscape:zoom="4.4466433"
     inkscape:cx="40.784824"
     inkscape:cy="46.780231"
     inkscape:document-units="px"
     inkscape:current-layer="layer1"
     width="100px"
     height="100px"
     inkscape:window-width="1102"
     inkscape:window-height="756"
     inkscape:window-x="81"
     inkscape:window-y="18"
     showgrid="false"
     inkscape:window-maximized="0" />
  <metadata
     id="metadata7">
    <rdf:RDF>
      <cc:Work
         rdf:about="">
        <dc:format>image/svg+xml</dc:format>
        <dc:type
           rdf:resource="http://purl.org/dc/dcmitype/StillImage" />
      </cc:Work>
    </rdf:RDF>
  </metadata>
  <g
     inkscape:label="Calque 1"
     inkscape:groupmode="layer"
     id="layer1">
    <path
       style="fill:black;fill-opacity:0.31378299;fill-rule:evenodd;stroke:none;stroke-width:1px;stroke-linecap:butt;stroke-linejoin:miter;stroke-opacity:1"
       d="M 71.719248,11.624424 L 63.312998,15.093174 C 63.312998,15.093174 56.606194,20.479595 55.406748,21.218174 C 54.207299,21.956754 50.594248,30.343174 50.594248,30.343174 C 50.594248,30.343174 51.250494,42.178515 51.250498,43.655674 C 51.250498,45.132832 57.125496,52.218172 57.125498,52.218174 L 62.219248,57.249424 L 63.469248,57.999424 L 62.187998,57.374424 L 63.656748,63.311924 L 61.281748,66.968174 L 63.969248,70.561924 L 61.625498,73.249424 L 64.031748,77.155674 L 61.531748,80.968174 L 66.031748,84.374424 L 73.375498,84.905674 C 73.375498,84.905675 79.260758,84.883686 80.437998,84.624424 C 81.615238,84.365165 85.156748,82.811924 85.156748,82.811924 L 87.062998,80.624424 L 85.156748,77.124424 L 87.312998,73.468174 L 84.750498,70.561924 L 86.625498,66.218174 L 84.062998,63.374424 L 86.750498,58.311924 L 87.062998,58.218174 L 92.344248,53.499424 L 95.719248,48.311924 L 99.531748,39.436924 L 97.625498,26.405674 L 92.094248,16.811924 L 82.031748,12.124424 L 71.719248,11.624424 z M 22.906748,11.780674 L 14.406748,13.155674 L 5.5942482,18.155674 L 3.2504982,22.280674 L 3.0629982,22.155674 L 3.0629982,22.593174 L 3.0004982,22.718174 L 3.0629982,22.749424 L 3.2817482,41.718174 L 3.7817482,66.468174 L 3.3129982,82.968174 L 10.750498,88.124424 L 18.406748,91.343174 L 30.656748,92.561924 L 46.719248,86.155674 C 47.953512,84.522942 47.576203,69.290205 46.500498,55.405674 C 46.500499,54.174711 47.219248,37.905674 47.219248,37.905674 L 46.500498,22.655674 L 45.781748,20.436924 L 45.562998,20.561924 L 45.937998,20.218174 L 44.750498,17.749424 L 41.156748,14.874424 L 32.406748,12.030674 L 22.906748,11.780674 z "
       id="path12622" />
    <path
       style="fill:black;fill-opacity:1;fill-rule:evenodd;stroke:none;stroke-width:1px;stroke-linecap:butt;stroke-linejoin:miter;stroke-opacity:1"
       d="M 0.82740222,15.40985 L 1.0410758,34.965538 L 1.5470714,59.724617 L 1.0672921,76.219557 L 8.5038739,81.389614 L 16.180344,84.590125 L 28.414722,85.82109 L 44.487334,79.420069 C 45.721597,77.787337 45.323147,62.530456 44.247442,48.645925 C 44.247442,47.414959 44.967112,31.166211 44.967112,31.166211 L 44.247442,15.902235 L 43.527774,13.686496 L 33.348701,19.44894 L 20.49836,22.795643 L 10.947778,21.272295 L 3.9459688,17.625587 L 0.82740222,15.40985 z "
       id="path1872"
       sodipodi:nodetypes="ccccccccccccccccc" />
    <path
       style="fill:black;fill-opacity:1;fill-rule:evenodd;stroke:none;stroke-width:1px;stroke-linecap:butt;stroke-linejoin:miter;stroke-opacity:1"
       d="M 0.76633204,15.963517 L 3.3573811,11.423378 L 12.180868,6.4071337 L 20.654497,5.0299748 L 30.158909,5.2761682 L 38.931124,8.1240562 L 42.503255,11.011707 L 43.702703,13.473638 L 39.047358,17.732018 L 32.70652,21.464678 L 24.141714,23.733712 L 15.111675,23.577099 L 11.0777,21.844206 L 4.2320276,17.898687 L 0.76633204,15.963517 z "
       id="path1874"
       sodipodi:nodetypes="ccccccccccccccc" />
    <path
       style="fill:#ccc;fill-opacity:1;fill-rule:evenodd;stroke:none;stroke-width:1px;stroke-linecap:butt;stroke-linejoin:miter;stroke-opacity:1"
       d="M 3.7825861,14.725029 L 6.9524431,11.51953 L 14.16926,7.9702202 L 21.154971,7.3183144 L 29.014339,7.3845927 L 36.318541,9.5703121 L 40.624461,13.122611 L 36.678741,16.591654 L 31.304453,19.632426 L 24.045202,20.461815 L 17.011493,20.538042 L 12.972567,19.941604 L 7.170397,16.727429 L 3.7825861,14.725029 z "
       id="path4542"
       sodipodi:nodetypes="cccccccccccccc" />
    <path
       style="fill:none;fill-opacity:0.75;fill-rule:evenodd;stroke:black;stroke-width:1.40879405px;stroke-linecap:butt;stroke-linejoin:miter;stroke-opacity:1"
       d="M 17.191175,9.1485909 L 21.509191,8.6562042 L 27.026654,8.4100109 L 28.705882,9.887171 L 24.627757,12.102908 L 20.789521,12.595295 L 17.191175,9.1485909 z "
       id="path1876" />
    <path
       style="fill:none;fill-opacity:0.75;fill-rule:evenodd;stroke:black;stroke-width:1.40879405px;stroke-linecap:butt;stroke-linejoin:miter;stroke-opacity:1"
       d="M 16.951286,9.6409776 L 16.711396,13.82626 L 18.150734,16.288192 L 21.98897,16.780579 L 26.306985,16.041999 L 28.705882,14.811034 L 28.705882,9.6409776 L 26.067095,11.36433 L 22.468749,12.102908 L 16.951286,9.6409776 z "
       id="path1878" />
    <path
       style="fill:white;fill-opacity:0.61583581;fill-rule:evenodd;stroke:none;stroke-width:1px;stroke-linecap:butt;stroke-linejoin:miter;stroke-opacity:1"
       d="M 3.676256,19.770787 L 4.1638158,73.310484 L 7.5767342,76.062524 L 8.0642933,23.023199 L 3.676256,19.770787 z "
       id="path4544" />
    <path
       style="fill:white;fill-opacity:0.52492664;fill-rule:evenodd;stroke:none;stroke-width:1px;stroke-linecap:butt;stroke-linejoin:miter;stroke-opacity:1"
       d="M 20.148918,12.711842 L 20.009506,15.732247 L 18.73823,15.571387 L 17.345257,13.319717 L 17.641029,10.460172 L 20.148918,12.711842 z "
       id="path5431"
       sodipodi:nodetypes="cccccc" />
    <path
       style="fill:white;fill-opacity:0.52492664;fill-rule:evenodd;stroke:none;stroke-width:1px;stroke-linecap:butt;stroke-linejoin:miter;stroke-opacity:1"
       d="M 13.978646,8.1850797 L 12.463307,10.524794 L 8.8164304,12.642082 L 9.3473163,14.670047 L 12.57634,19.467047 L 7.7365579,16.98377 L 3.906557,14.553453 L 6.9448474,11.515849 L 13.978646,8.1850797 z "
       id="path6318"
       sodipodi:nodetypes="ccccccccc" />
    <path
       style="fill:black;fill-opacity:1;fill-rule:evenodd;stroke:none;stroke-width:1px;stroke-linecap:butt;stroke-linejoin:miter;stroke-opacity:1"
       d="M 59.964878,50.494022 L 54.882059,45.459616 C 54.882059,45.459616 49.002724,38.374662 49.002724,36.897504 C 49.002724,35.420344 48.364063,23.597939 48.364063,23.597939 C 48.364063,23.597939 51.96241,15.227373 53.161859,14.488793 C 54.361308,13.750214 61.078221,8.3339653 61.078221,8.3339653 L 69.474363,4.8872619 L 79.789625,5.3796491 L 89.864995,10.057317 L 95.382459,19.658849 L 97.301583,32.707085 L 93.46334,41.570037 L 90.104885,46.740092 L 84.835517,51.470371 L 79.840885,53.202146 C 79.840885,53.202146 73.552489,54.72349 72.113151,54.72349 C 70.673813,54.72349 66.115906,54.125886 66.115906,54.125886 L 59.964878,50.494022 z "
       id="path1880"
       sodipodi:nodetypes="ccscsccccccccccscc" />
    <path
       style="fill:black;fill-opacity:1;fill-rule:evenodd;stroke:none;stroke-width:1.09785068px;stroke-linecap:butt;stroke-linejoin:miter;stroke-opacity:1"
       d="M 59.949994,50.617274 L 61.406057,56.573566 L 59.026244,60.225052 L 61.735012,63.826444 L 59.38053,66.491547 L 61.782437,70.41978 L 59.298237,74.225139 L 63.804948,77.62625 L 71.130618,78.147229 C 71.130618,78.147229 77.016822,78.147229 78.194061,77.887967 C 79.371301,77.628707 82.903024,76.073142 82.903024,76.073142 L 84.811155,73.882327 L 82.915578,70.369403 L 85.058043,66.72009 L 82.498522,63.817843 L 84.374573,59.480444 L 81.815053,56.639634 L 84.668884,51.277156 L 75.168546,53.808298 L 66.077982,53.555069 L 59.949994,50.617274 z "
       id="path1882"
       sodipodi:nodetypes="cccccccccsccccccccccc" />
    <path
       style="fill:#ccc;fill-opacity:1;fill-rule:evenodd;stroke:none;stroke-width:1.09785068px;stroke-linecap:butt;stroke-linejoin:miter;stroke-opacity:1"
       d="M 62.609196,53.671597 L 64.120928,58.000013 L 61.638879,60.740222 L 63.802316,63.820986 L 61.92184,66.100813 L 63.840195,69.461169 L 61.856113,72.716414 L 65.455534,75.62585 L 71.306402,76.071517 C 71.306402,76.071517 76.007595,76.071517 76.947833,75.849734 C 77.888071,75.627952 80.708787,74.297264 80.708787,74.297264 L 82.232776,72.423159 L 80.718815,69.418074 L 82.429961,66.296317 L 80.38572,63.813628 L 81.884086,60.103256 L 79.839848,57.673121 L 82.119145,53.085858 L 74.531415,55.251091 L 68.084838,55.801287 L 62.609196,53.671597 z "
       id="path8102"
       sodipodi:nodetypes="cccccccccsccccccccccc" />
    <path
       style="fill:white;fill-opacity:0.75;fill-rule:evenodd;stroke:none;stroke-width:1px;stroke-linecap:butt;stroke-linejoin:miter;stroke-opacity:1"
       d="M 64.027766,58.005058 L 61.98971,60.54487 L 68.686183,62.038877 L 72.907872,60.39547 L 67.521579,59.797866 L 64.027766,58.005058 z "
       id="path8104"
       sodipodi:nodetypes="cccccc" />
    <path
       style="fill:white;fill-opacity:0.75;fill-rule:evenodd;stroke:none;stroke-width:1px;stroke-linecap:butt;stroke-linejoin:miter;stroke-opacity:1"
       d="M 63.882191,63.756984 L 61.844135,66.296795 L 68.540608,67.790801 L 72.907872,66.595596 L 66.939278,65.54979 L 63.882191,63.756984 z "
       id="path8991"
       sodipodi:nodetypes="cccccc" />
    <path
       style="fill:white;fill-opacity:0.75;fill-rule:evenodd;stroke:none;stroke-width:1px;stroke-linecap:butt;stroke-linejoin:miter;stroke-opacity:1"
       d="M 64.027767,69.882409 L 61.989711,72.422222 L 68.686184,73.916228 L 72.762297,72.422222 L 67.084854,71.376416 L 64.027767,69.882409 z "
       id="path8993"
       sodipodi:nodetypes="cccccc" />
    <path
       style="fill:black;fill-opacity:0.21994132;fill-rule:evenodd;stroke:none;stroke-width:1px;stroke-linecap:butt;stroke-linejoin:miter;stroke-opacity:1"
       d="M 81.860767,60.171369 L 80.405013,63.458184 L 72.543935,64.354588 L 75.455446,61.814776 L 78.658108,61.366573 L 81.860767,60.171369 z "
       id="path8995"
       sodipodi:nodetypes="cccccc" />
    <path
       style="fill:black;fill-opacity:0.21994132;fill-rule:evenodd;stroke:none;stroke-width:1px;stroke-linecap:butt;stroke-linejoin:miter;stroke-opacity:1"
       d="M 82.807006,65.997994 L 81.351252,69.284808 L 72.907872,70.330612 L 76.110533,67.6414 L 79.604347,67.193198 L 82.807006,65.997994 z "
       id="path9882"
       sodipodi:nodetypes="cccccc" />
    <path
       style="fill:black;fill-opacity:0.21994132;fill-rule:evenodd;stroke:none;stroke-width:1px;stroke-linecap:butt;stroke-linejoin:miter;stroke-opacity:1"
       d="M 82.370281,71.675218 L 80.914526,74.962033 L 72.179995,76.90424 L 76.983988,73.468025 L 79.16762,72.870422 L 82.370281,71.675218 z "
       id="path9884"
       sodipodi:nodetypes="cccccc" />
    <path
       style="fill:white;fill-opacity:1;fill-rule:evenodd;stroke:none;stroke-width:1px;stroke-linecap:butt;stroke-linejoin:miter;stroke-opacity:1"
       d="M 61.460006,48.523023 L 56.966866,44.03194 C 56.966866,44.03194 51.769617,37.711607 51.769617,36.393868 C 51.769617,35.076127 51.205049,24.529618 51.205049,24.529618 C 51.205049,24.529618 54.385936,17.062419 55.446233,16.403549 C 56.506529,15.74468 62.444185,10.912962 62.444185,10.912962 L 69.866256,7.8382334 L 78.9848,8.2774807 L 87.891285,12.450327 L 92.768645,21.015641 L 94.465119,32.655686 L 91.072172,40.562132 L 88.103344,45.174225 L 83.445297,49.394002 L 79.030114,50.938881 C 79.030114,50.938881 73.471262,52.296039 72.198906,52.296039 C 70.926552,52.296039 66.897428,51.76293 66.897428,51.76293 L 61.460006,48.523023 z "
       id="path10771"
       sodipodi:nodetypes="ccscsccccccccccscc" />
    <path
       style="fill:black;fill-opacity:1;fill-rule:evenodd;stroke:none;stroke-width:1px;stroke-linecap:butt;stroke-linejoin:miter;stroke-opacity:1"
       d="M 66.374738,52.411724 L 63.937915,51.482425 C 63.937915,51.482425 61.119221,50.174617 61.119221,49.901949 C 61.119221,49.629282 60.813033,47.446988 60.813033,47.446988 C 60.813033,47.446988 62.538165,45.901869 63.113209,45.765536 C 63.688253,45.629201 66.908501,44.629417 66.908501,44.629417 L 70.93381,43.993192 L 75.87919,44.084082 L 80.709561,44.94753 L 83.354764,46.719872 L 84.274835,49.128442 L 82.434692,50.764451 L 80.824569,51.718789 L 78.298311,52.591948 L 75.903765,52.911617 C 75.903765,52.911617 72.88896,53.192441 72.198907,53.192441 C 71.508855,53.192441 69.323687,53.082129 69.323687,53.082129 L 66.374738,52.411724 z "
       id="path10773"
       sodipodi:nodetypes="ccscsccccccccccscc" />
    <path
       style="fill:#ccc;fill-opacity:1;fill-rule:evenodd;stroke:none;stroke-width:1px;stroke-linecap:butt;stroke-linejoin:miter;stroke-opacity:1"
       d="M 67.978669,51.843608 L 66.146644,51.216156 C 66.146644,51.216156 64.027526,50.333135 64.027526,50.149033 C 64.027526,49.964931 63.797331,48.49147 63.797331,48.49147 C 63.797331,48.49147 65.0943,47.448221 65.526625,47.35617 C 65.958947,47.264121 68.379956,46.589077 68.379956,46.589077 L 71.406219,46.159504 L 75.124197,46.220871 L 78.75571,46.803862 L 80.744396,48.00053 L 81.436115,49.62677 L 80.052679,50.731386 L 78.842174,51.375746 L 76.942913,51.965292 L 75.142672,52.181129 C 75.142672,52.181129 72.876115,52.370739 72.357329,52.370739 C 71.838541,52.370739 70.195714,52.296257 70.195714,52.296257 L 67.978669,51.843608 z "
       id="path10775"
       sodipodi:nodetypes="ccscsccccccccccscc" />
    <path
       style="fill:#d38d5f;fill-opacity:0.25513198;fill-rule:evenodd;stroke:none;stroke-width:1px;stroke-linecap:butt;stroke-linejoin:miter;stroke-opacity:1"
       d="M 61.678369,48.523024 L 57.185229,44.031941 C 57.185229,44.031941 51.98798,37.711608 51.98798,36.393869 C 51.98798,35.076128 51.423413,24.529619 51.423413,24.529619 C 51.423413,24.529619 54.604301,17.06242 55.664597,16.40355 C 56.724894,15.744681 62.662549,10.912963 62.662549,10.912963 L 70.08462,7.8382346 L 79.203164,8.2774818 L 88.109649,12.450328 L 92.98701,21.015643 L 94.683484,32.655687 L 91.290537,40.562133 L 88.321708,45.174227 L 83.663662,49.394003 L 79.248478,50.938882 C 79.248478,50.938882 73.689626,52.29604 72.417271,52.29604 C 71.144916,52.29604 67.115792,51.762931 67.115792,51.762931 L 61.678369,48.523024 z "
       id="path10777"
       sodipodi:nodetypes="ccscsccccccccccscc" />
    <path
       style="fill:black;fill-opacity:1;fill-rule:evenodd;stroke:none;stroke-width:1px;stroke-linecap:butt;stroke-linejoin:miter;stroke-opacity:1"
       d="M 84.117833,32.754871 L 80.7716,32.888669 L 78.729094,36.635025 L 76.686589,32.888669 L 74.51371,35.43084 L 72.167001,32.888669 L 70.732901,36.947221 L 67.647414,33.067068 L 65.21379,36.322828 L 62.432505,33.513063 L 60.39,34.092855 L 60.694203,37.973009 L 66.778263,44.261533 L 66.517517,49.925665 L 69.168429,50.059463 L 68.864226,43.324944 L 62.215218,35.520038 L 65.344163,38.329805 L 67.690871,36.055232 L 71.254392,39.221794 L 72.645035,35.475439 L 74.557168,37.482415 L 76.382386,35.475439 L 78.685637,39.132594 L 80.945431,35.921434 L 82.596818,35.386239 L 81.597294,38.374404 L 77.773028,42.878949 L 76.382386,50.460858 L 77.990316,50.550057 L 80.641228,42.923549 L 83.98746,37.393216 L 84.117833,32.754871 z "
       id="path11664" />
    <path
       style="fill:white;fill-opacity:0.75;fill-rule:evenodd;stroke:none;stroke-width:1px;stroke-linecap:butt;stroke-linejoin:miter;stroke-opacity:1"
       d="M 55.26389,16.649257 L 51.325316,24.347269 L 51.664885,29.301841 L 57.635439,18.901056 L 61.967617,14.899053 L 66.824075,12.007041 L 69.84555,8.0050359 L 62.755345,10.867997 L 55.26389,16.649257 z "
       id="path12600"
       sodipodi:nodetypes="ccccccccc" />
    <path
       inkscape:connector-curvature="0"
       sodipodi:nodetypes="ccccccccccccc"
       id="path3016"
       d="m 7.3601965,22.419729 2.6662395,2.213865 7.18667,2.839275 11.34736,0 9.83439,-3.312489 6.14961,-3.171733 0.0246,21.448495 -5.66767,3.34854 -10.34088,2.035334 -8.69964,0 -6.80842,-3.31249 -5.6190595,-3.468138 -0.0731,-18.620659 z"
       style="fill:#ff9955;fill-opacity:1;fill-rule:evenodd;stroke:none" />
    <g
       transform="matrix(1.389674,-0.05323815,0.05187506,1.42619,29.396291,-32.653919)"
       id="g3018">
      <path
         inkscape:connector-curvature="0"
         style="fill:#000000;fill-opacity:1;fill-rule:evenodd;stroke:none"
         d="m -5.4917151,45.235989 2.1812389,0.139203 -0.1677875,3.897687 0.2237168,4.03689 -2.6286726,-0.185604 0.5033629,-3.990489 -0.1118585,-3.897687 z"
         id="path3020" />
      <path
         inkscape:connector-curvature="0"
         style="fill:#000000;fill-opacity:1;fill-rule:evenodd;stroke:none"
         d="m -0.46940575,48.068403 -0.139203,2.181239 -3.89768705,-0.167788 -4.0368898,0.223717 0.185604,-2.628672 3.9904888,0.503363 3.89768705,-0.111859 z"
         id="path3022" />
    </g>
  </g>
</svg>
