<?xml version="1.0" encoding="UTF-8" standalone="no"?>
<!-- Created with Inkscape (http://www.inkscape.org/) -->

<svg
   xmlns:dc="http://purl.org/dc/elements/1.1/"
   xmlns:cc="http://creativecommons.org/ns#"
   xmlns:rdf="http://www.w3.org/1999/02/22-rdf-syntax-ns#"
   xmlns:svg="http://www.w3.org/2000/svg"
   xmlns="http://www.w3.org/2000/svg"
   xmlns:sodipodi="http://sodipodi.sourceforge.net/DTD/sodipodi-0.dtd"
   xmlns:inkscape="http://www.inkscape.org/namespaces/inkscape"
   width="100"
   height="100"
   id="svg2831"
   sodipodi:version="0.32"
   inkscape:version="0.48.2 r9819"
   version="1.0"
   sodipodi:docname="click_on_letter_up.svg">
  <defs
     id="defs2833" />
  <sodipodi:namedview
     id="base"
     pagecolor="#ffffff"
     bordercolor="#666666"
     borderopacity="1.0"
     inkscape:pageopacity="0.0"
     inkscape:pageshadow="2"
     inkscape:zoom="5.2161034"
     inkscape:cx="20.412663"
     inkscape:cy="40.837237"
     inkscape:document-units="px"
     inkscape:current-layer="layer1"
     height="100px"
     width="100px"
     inkscape:window-width="1170"
     inkscape:window-height="714"
     inkscape:window-x="44"
     inkscape:window-y="0"
     showgrid="false"
     inkscape:window-maximized="0" />
  <metadata
     id="metadata2836">
    <rdf:RDF>
      <cc:Work
         rdf:about="">
        <dc:format>image/svg+xml</dc:format>
        <dc:type
           rdf:resource="http://purl.org/dc/dcmitype/StillImage" />
      </cc:Work>
    </rdf:RDF>
  </metadata>
  <g
     inkscape:label="Calque 1"
     inkscape:groupmode="layer"
     id="layer1">
    <path
       style="fill:black;fill-opacity:0.2961877;fill-rule:evenodd;stroke:none;stroke-width:1px;stroke-linecap:butt;stroke-linejoin:miter;stroke-opacity:1"
       d="M 66.437923,24.363823 L 53.000423,24.957573 L 40.562923,25.145073 L 26.750423,24.957573 L 20.406673,26.863823 L 16.594173,29.551323 L 12.937923,34.145073 L 11.219173,41.426323 C 11.219173,41.426323 11.594173,47.374004 11.594173,48.332573 C 11.594173,49.291143 14.656673,54.270073 14.656673,54.270073 L 18.312923,58.488823 L 18.562923,58.613823 L 8.7191727,58.613823 L 8.9066727,63.770073 C 8.9066727,63.770073 8.5460667,69.145074 9.3129227,69.145073 C 10.003218,69.623007 14.022478,69.635095 18.375423,69.520073 L 17.625423,73.895073 L 20.344173,78.426323 L 24.594173,81.113823 L 31.187923,80.738823 C 31.187923,80.738823 33.660229,77.943639 34.969173,76.832573 C 36.278116,75.721503 36.625423,71.256142 36.625423,70.145073 C 36.625423,69.99068 36.564578,69.730254 36.469173,69.457573 C 40.322069,69.730305 45.607128,69.873091 51.656673,69.145073 C 54.707907,68.77788 65.281674,69.363822 65.281673,69.363823 L 67.344173,69.332573 L 66.531673,74.082573 L 69.219173,78.645073 L 73.500423,81.301323 L 80.062923,80.926323 C 80.062923,80.926323 82.566478,78.131141 83.875423,77.020073 C 85.184366,75.909003 85.500421,71.443644 85.500423,70.332573 C 85.500423,70.130691 85.405448,69.787343 85.250423,69.395073 L 94.219173,69.801323 L 94.406673,57.738823 L 86.844173,58.176323 C 86.944256,58.08793 87.021108,58.020206 87.125423,57.926323 C 89.042563,56.200897 90.585746,53.514105 90.969173,52.363823 C 91.352601,51.213539 91.929495,45.857856 92.312923,44.707573 C 92.696351,43.557289 91.750423,37.416143 91.750423,36.457573 C 91.750423,35.499003 89.250424,31.474429 89.250423,30.707573 C 89.250423,29.940717 84.250422,26.676323 84.250423,26.676323 C 84.250423,26.676323 78.511313,24.761645 76.594173,25.145073 C 74.677033,25.528501 66.437924,24.363823 66.437923,24.363823 z "
       id="path33185" />
    <path
       style="fill:black;fill-opacity:1;fill-rule:evenodd;stroke:none;stroke-width:1px;stroke-linecap:butt;stroke-linejoin:miter;stroke-opacity:1"
       d="M 17.062545,62.232339 L 10.735983,59.164915 L 7.093417,54.947208 C 7.093417,54.947208 4.0259936,49.962644 4.0259936,49.004074 C 4.0259936,48.045504 3.6425656,42.10237 3.6425656,42.10237 L 5.367992,34.817238 L 9.010557,30.216103 L 12.844837,27.532107 L 19.171399,25.614967 L 32.974806,25.806681 L 45.436215,25.614967 L 58.856195,25.039825 C 58.856195,25.039825 67.099897,26.190109 69.017037,25.806681 C 70.934177,25.423253 76.685596,27.340393 76.685596,27.340393 C 76.685596,27.340393 81.67016,30.599531 81.67016,31.366387 C 81.67016,32.133243 84.162442,36.159236 84.162442,37.117806 C 84.162442,38.076376 85.121012,44.211224 84.737584,45.361508 C 84.354156,46.511792 83.779014,51.879784 83.395586,53.030068 C 83.012158,54.180351 81.478446,56.864347 79.561306,58.589773 C 77.644166,60.315199 76.493882,61.082055 74.193314,62.040625 C 71.892747,62.999195 66.908183,62.615767 64.607615,62.807481 C 62.307047,62.999195 49.078782,62.424053 47.54507,62.424053 C 46.011358,62.424053 38.726226,62.999195 35.658802,62.999195 C 32.591378,62.999195 22.430537,63.190909 22.430537,63.190909 L 17.062545,62.232339 z "
       id="path2839"
       sodipodi:nodetypes="cccsccccccccscssssssssscc" />
    <path
       style="fill:black;fill-opacity:1;fill-rule:evenodd;stroke:none;stroke-width:1px;stroke-linecap:butt;stroke-linejoin:miter;stroke-opacity:1"
       d="M 1.1502838,59.292724 L 16.103975,59.292724 L 37.767656,59.292724 C 37.767656,59.292724 56.747341,58.621725 57.705911,58.621725 C 58.664481,58.621725 75.343599,59.069058 75.343599,59.069058 L 86.846438,58.398059 L 86.654724,70.476041 L 71.701033,69.805047 L 57.705911,70.028708 C 57.705911,70.028708 47.145452,69.437844 44.094218,69.805037 C 33.058101,71.133153 24.347676,69.581376 22.813964,69.581376 C 21.395203,69.772502 3.2668346,70.872256 1.7254252,69.805042 C 0.9585693,69.805042 1.3419978,64.43705 1.3419978,64.43705 L 1.1502838,59.292724 z "
       id="path2845"
       sodipodi:nodetypes="cccscccccscccc" />
    <path
       style="fill:#666;fill-opacity:1;fill-rule:evenodd;stroke:none;stroke-width:1px;stroke-linecap:butt;stroke-linejoin:miter;stroke-opacity:1"
       d="M 3.9301365,62.015773 L 17.813318,62.015773 L 37.926131,62.015773 C 37.926131,62.015773 55.547091,61.674948 56.437039,61.674948 C 57.326987,61.674948 72.812074,61.902165 72.812074,61.902165 L 83.491443,61.56134 L 83.313454,67.696188 L 69.430273,67.355366 L 56.437039,67.468971 C 56.437039,67.468971 46.632586,67.16885 43.799785,67.35536 C 33.553725,68.02996 25.466866,67.241755 24.04295,67.241755 C 22.725755,67.338835 5.895167,67.89744 4.4641045,67.355363 C 3.7521465,67.355363 4.108126,64.628764 4.108126,64.628764 L 3.9301365,62.015773 z "
       id="path32257"
       sodipodi:nodetypes="cccscccccscccc" />
    <path
       style="fill:black;fill-opacity:0.27565984;fill-rule:evenodd;stroke:none;stroke-width:1px;stroke-linecap:butt;stroke-linejoin:miter;stroke-opacity:1"
       d="M 2.1088532,64.820479 L 2.8757093,68.201616 L 15.337119,68.811615 L 40.068224,68.567615 L 69.017036,69.421614 L 83.970728,68.463044 L 84.929298,65.569906 L 2.1088532,64.820479 z "
       id="path32278"
       sodipodi:nodetypes="cccccccc" />
    <path
       style="fill:black;fill-opacity:1;fill-rule:evenodd;stroke:none;stroke-width:1px;stroke-linecap:butt;stroke-linejoin:miter;stroke-opacity:1"
       d="M 11.076441,68.667829 L 13.859599,64.576478 L 20.536535,62.999194 L 26.175571,64.929406 C 26.175571,64.929406 29.044669,69.687399 29.044669,70.798468 C 29.044669,71.909538 28.720739,76.38431 27.411796,77.49538 C 26.102852,78.606446 23.603959,81.403736 23.603959,81.403736 L 17.026185,81.765396 L 12.768812,79.098816 L 10.064984,74.55432 L 11.076441,68.667829 z "
       id="path2843"
       sodipodi:nodetypes="ccccssccccc" />
    <path
       style="fill:red;fill-opacity:1;fill-rule:evenodd;stroke:none;stroke-width:1px;stroke-linecap:butt;stroke-linejoin:miter;stroke-opacity:1"
       d="M 13.81693,70.178599 L 15.700481,67.633733 L 20.219216,66.652645 L 24.035532,67.853258 C 24.035532,67.853258 25.977245,70.812782 25.977245,71.503879 C 25.977245,72.194977 25.75802,74.978335 24.872169,75.669432 C 23.986319,76.360528 22.295148,78.100473 22.295148,78.100473 L 17.843524,78.325429 L 14.962271,76.666787 L 13.132408,73.84006 L 13.81693,70.178599 z "
       id="path32259"
       sodipodi:nodetypes="ccccssccccc" />
    <path
       style="fill:black;fill-opacity:1;fill-rule:evenodd;stroke:none;stroke-width:1px;stroke-linecap:butt;stroke-linejoin:miter;stroke-opacity:1"
       d="M 59.963515,68.870429 L 62.746673,64.779078 L 69.423609,63.201794 L 75.062645,65.132006 C 75.062645,65.132006 77.931743,69.889999 77.931743,71.001068 C 77.931743,72.112138 77.607813,76.58691 76.29887,77.69798 C 74.989926,78.809046 72.491033,81.606336 72.491033,81.606336 L 65.913259,81.967996 L 61.655886,79.301416 L 58.952058,74.75692 L 59.963515,68.870429 z "
       id="path32267"
       sodipodi:nodetypes="ccccssccccc" />
    <path
       style="fill:red;fill-opacity:1;fill-rule:evenodd;stroke:none;stroke-width:1px;stroke-linecap:butt;stroke-linejoin:miter;stroke-opacity:1"
       d="M 62.704004,70.381199 L 64.587555,67.836333 L 69.10629,66.855245 L 72.922606,68.055858 C 72.922606,68.055858 74.864319,71.015382 74.864319,71.706479 C 74.864319,72.397577 74.645094,75.180935 73.759243,75.872032 C 72.873393,76.563128 71.182222,78.303073 71.182222,78.303073 L 66.730598,78.528029 L 63.849345,76.869387 L 62.019482,74.04266 L 62.704004,70.381199 z "
       id="path32269"
       sodipodi:nodetypes="ccccssccccc" />
    <path
       style="fill:black;fill-opacity:0.27565984;fill-rule:evenodd;stroke:none;stroke-width:1px;stroke-linecap:butt;stroke-linejoin:miter;stroke-opacity:1"
       d="M 6.326561,51.68807 L 11.311125,57.944917 L 15.720547,60.855484 L 40.451652,61.37834 L 69.400464,61.465483 L 76.493882,58.781487 L 82.053588,51.862355 L 65.853756,56.276134 L 42.368792,56.472205 L 20.609254,56.284849 L 6.326561,51.68807 z "
       id="path32276"
       sodipodi:nodetypes="ccccccccccc" />
    <path
       sodipodi:nodetypes="cccsccccccccscssssssssscc"
       id="path2997"
       d="m 20.365949,58.403839 -5.624394,-2.435442 -3.238289,-3.348732 c 0,0 -2.7269782,-3.957593 -2.7269782,-4.71867 0,-0.761074 -0.3408724,-5.479743 -0.3408724,-5.479743 l 1.5339262,-5.784175 3.2382864,-3.653164 3.408725,-2.131011 5.624393,-1.522152 12.271406,0.152215 11.078352,-0.152215 11.930534,-0.456645 c 0,0 7.328757,0.913291 9.033119,0.60886 1.704362,-0.30443 6.817447,1.217722 6.817447,1.217722 0,0 4.431341,2.587657 4.431341,3.196517 0,0.608861 2.215671,3.805379 2.215671,4.566453 0,0.761077 0.852181,5.631961 0.511308,6.545252 -0.340872,0.913291 -0.852181,5.175314 -1.193054,6.088605 -0.340872,0.91329 -1.704362,3.044302 -3.408723,4.414238 -1.704362,1.369936 -2.726979,1.978797 -4.772214,2.739872 -2.045233,0.761076 -6.476574,0.456646 -8.521809,0.608861 -2.045234,0.152215 -13.805331,-0.30443 -15.16882,-0.30443 -1.363491,0 -7.840065,0.456645 -10.567045,0.456645 -2.726979,0 -11.760097,0.152215 -11.760097,0.152215 l -4.772213,-0.761076 z"
       style="fill:#ffff00;fill-opacity:1;fill-rule:evenodd;stroke:none"
       inkscape:connector-curvature="0" />
    <flowRoot
       xml:space="preserve"
       id="flowRoot3044"
       style="font-size:16px;font-style:normal;font-weight:normal;line-height:125%;letter-spacing:0px;word-spacing:0px;fill:#000000;fill-opacity:1;stroke:none;font-family:Sans"><flowRegion
         id="flowRegion3046"><rect
           id="rect3048"
           width="8.8188438"
           height="23.005678"
           x="-28.948812"
           y="53.605213" /></flowRegion><flowPara
         id="flowPara3050">AAAAA</flowPara></flowRoot>    <g
       id="g3103"
       transform="matrix(0,-0.75177304,-0.94444445,0,127.5068,27.45385)">
      <path
         sodipodi:open="true"
         sodipodi:end="3.1410157"
         sodipodi:start="0"
         d="m -9.7774124,60.986202 c 0,7.464591 -6.0512466,13.515837 -13.5158366,13.515837 -7.461545,0 -13.51153,-6.046495 -13.515835,-13.508039"
         sodipodi:ry="13.515837"
         sodipodi:rx="13.515837"
         sodipodi:cy="60.986202"
         sodipodi:cx="-23.293249"
         id="path3099"
         style="fill:#000000"
         sodipodi:type="arc" />
      <path
         transform="matrix(1,0,0,1.2272727,4.0259938,5.9688252)"
         sodipodi:open="true"
         sodipodi:end="3.1410157"
         sodipodi:start="0"
         d="m -17.637688,44.594658 c 0,4.658751 -4.33458,8.435415 -9.681556,8.435415 -5.344795,0 -9.678472,-3.773698 -9.681555,-8.430548"
         sodipodi:ry="8.4354153"
         sodipodi:rx="9.6815567"
         sodipodi:cy="44.594658"
         sodipodi:cx="-27.319244"
         id="path3101"
         style="fill:#ffff00"
         sodipodi:type="arc" />
    </g>
    <g
       id="g3146"
       transform="translate(-2,0)">
      <g
         id="g3107"
         transform="matrix(0,-0.40513624,0.94444445,0,-11.98613,29.626687)">
        <path
           sodipodi:open="true"
           sodipodi:end="3.1410157"
           sodipodi:start="0"
           d="m -9.7774124,60.986202 c 0,7.464591 -6.0512466,13.515837 -13.5158366,13.515837 -7.461545,0 -13.51153,-6.046495 -13.515835,-13.508039"
           sodipodi:ry="13.515837"
           sodipodi:rx="13.515837"
           sodipodi:cy="60.986202"
           sodipodi:cx="-23.293249"
           id="path3109"
           style="fill:#000000"
           sodipodi:type="arc" />
        <path
           transform="matrix(1,0,0,1.2272727,4.0259938,5.9688252)"
           sodipodi:open="true"
           sodipodi:end="3.1410157"
           sodipodi:start="0"
           d="m -17.637688,44.594658 c 0,4.658751 -4.33458,8.435415 -9.681556,8.435415 -5.344795,0 -9.678472,-3.773698 -9.681555,-8.430548"
           sodipodi:ry="8.4354153"
           sodipodi:rx="9.6815567"
           sodipodi:cy="44.594658"
           sodipodi:cx="-27.319244"
           id="path3111"
           style="fill:#ffff00"
           sodipodi:type="arc" />
      </g>
      <g
         transform="matrix(0,-0.41413927,0.94444445,0,-11.794416,39.638386)"
         id="g3113">
        <path
           sodipodi:type="arc"
           style="fill:#000000"
           id="path3115"
           sodipodi:cx="-23.293249"
           sodipodi:cy="60.986202"
           sodipodi:rx="13.515837"
           sodipodi:ry="13.515837"
           d="m -9.7774124,60.986202 c 0,7.464591 -6.0512466,13.515837 -13.5158366,13.515837 -7.461545,0 -13.51153,-6.046495 -13.515835,-13.508039"
           sodipodi:start="0"
           sodipodi:end="3.1410157"
           sodipodi:open="true" />
        <path
           sodipodi:type="arc"
           style="fill:#ffff00"
           id="path3117"
           sodipodi:cx="-27.319244"
           sodipodi:cy="44.594658"
           sodipodi:rx="9.6815567"
           sodipodi:ry="8.4354153"
           d="m -17.637688,44.594658 c 0,4.658751 -4.33458,8.435415 -9.681556,8.435415 -5.344795,0 -9.678472,-3.773698 -9.681555,-8.430548"
           sodipodi:start="0"
           sodipodi:end="3.1410157"
           sodipodi:open="true"
           transform="matrix(1,0,0,1.2272727,4.0259938,5.9688252)" />
      </g>
      <path
         style="fill:none;stroke:#000000;stroke-width:3.41618872px;stroke-linecap:butt;stroke-linejoin:miter;stroke-opacity:1"
         d="m 46.091058,33.735854 c -0.338812,20.263869 -0.338812,20.263869 -0.338812,20.263869 l 0,0"
         id="path3121"
         inkscape:connector-curvature="0" />
    </g>
    <g
       id="g3191"
       transform="translate(48.311926,3.8342798)">
      <path
         inkscape:connector-curvature="0"
         style="fill:#000000;fill-opacity:1;fill-rule:evenodd;stroke:none"
         d="m -17.292068,29.512393 1.506883,3.483997 2.183047,5.047325 c 0,0 2.114977,4.320243 2.211572,4.543576 0.09659,0.223333 1.6424182,4.177163 1.6424182,4.177163 l 1.361535,2.578245 -3.6624212,1.78686 -1.304489,-3.585745 -1.477748,-3.226749 c 0,0 -0.885954,-2.550036 -1.304182,-3.205248 -1.512709,-2.369858 -1.922398,-4.634575 -2.076949,-4.991908 -0.200618,-0.301569 -2.359132,-4.358449 -2.192551,-4.879412 -0.07727,-0.178666 1.580519,-0.903348 1.580519,-0.903348 l 1.532369,-0.824768 z"
         id="path3005"
         sodipodi:nodetypes="cccscccccscccc" />
      <path
         sodipodi:nodetypes="cccscccccscccc"
         id="path3007"
         d="m -17.604127,31.163679 -1.506884,3.483996 -2.183046,5.047325 c 0,0 -1.710186,4.523748 -1.806781,4.74708 -0.0966,0.223333 -1.912279,4.041493 -1.912279,4.041493 l -0.956747,2.78175 -3.623779,-1.876204 1.709276,-3.382243 1.342827,-3.294579 c 0,0 1.2424,-2.370836 1.439117,-3.13741 0.711506,-2.772654 2.057318,-4.566746 2.211869,-4.92408 0.08532,-0.359533 1.580394,-4.74995 2.057632,-4.947241 0.07727,-0.178666 1.657794,0.724682 1.657794,0.724682 l 1.571011,0.735425 z"
         style="fill:#000000;fill-opacity:1;fill-rule:evenodd;stroke:none"
         inkscape:connector-curvature="0" />
      <path
         inkscape:connector-curvature="0"
         id="path3179"
         d="m -12.654236,45.57076 c -12.329235,-0.50424 -12.329235,-0.50424 -12.329235,-0.50424 l 0,0"
         style="fill:none;stroke:#000000;stroke-width:3.25076556px;stroke-linecap:butt;stroke-linejoin:miter;stroke-opacity:1" />
    </g>
  </g>
</svg>
