<?xml version="1.0" encoding="UTF-8" standalone="no"?>
<!-- Created with Inkscape (http://www.inkscape.org/) -->

<svg
   xmlns:dc="http://purl.org/dc/elements/1.1/"
   xmlns:cc="http://creativecommons.org/ns#"
   xmlns:rdf="http://www.w3.org/1999/02/22-rdf-syntax-ns#"
   xmlns:svg="http://www.w3.org/2000/svg"
   xmlns="http://www.w3.org/2000/svg"
   xmlns:sodipodi="http://sodipodi.sourceforge.net/DTD/sodipodi-0.dtd"
   xmlns:inkscape="http://www.inkscape.org/namespaces/inkscape"
   width="100"
   height="100"
   id="svg2831"
   sodipodi:version="0.32"
   inkscape:version="0.48.2 r9819"
   version="1.0"
   sodipodi:docname="click_on_letter.svg">
  <defs
     id="defs2833" />
  <sodipodi:namedview
     id="base"
     pagecolor="#ffffff"
     bordercolor="#666666"
     borderopacity="1.0"
     inkscape:pageopacity="0.0"
     inkscape:pageshadow="2"
     inkscape:zoom="3.6883421"
     inkscape:cx="48.854725"
     inkscape:cy="61.139304"
     inkscape:document-units="px"
     inkscape:current-layer="layer1"
     height="100px"
     width="100px"
     inkscape:window-width="1005"
     inkscape:window-height="756"
     inkscape:window-x="90"
     inkscape:window-y="0"
     showgrid="false"
     inkscape:window-maximized="0" />
  <metadata
     id="metadata2836">
    <rdf:RDF>
      <cc:Work
         rdf:about="">
        <dc:format>image/svg+xml</dc:format>
        <dc:type
           rdf:resource="http://purl.org/dc/dcmitype/StillImage" />
      </cc:Work>
    </rdf:RDF>
  </metadata>
  <g
     inkscape:label="Calque 1"
     inkscape:groupmode="layer"
     id="layer1">
    <path
       style="fill:black;fill-opacity:0.2961877;fill-rule:evenodd;stroke:none;stroke-width:1px;stroke-linecap:butt;stroke-linejoin:miter;stroke-opacity:1"
       d="M 66.437923,24.363823 L 53.000423,24.957573 L 40.562923,25.145073 L 26.750423,24.957573 L 20.406673,26.863823 L 16.594173,29.551323 L 12.937923,34.145073 L 11.219173,41.426323 C 11.219173,41.426323 11.594173,47.374004 11.594173,48.332573 C 11.594173,49.291143 14.656673,54.270073 14.656673,54.270073 L 18.312923,58.488823 L 18.562923,58.613823 L 8.7191727,58.613823 L 8.9066727,63.770073 C 8.9066727,63.770073 8.5460667,69.145074 9.3129227,69.145073 C 10.003218,69.623007 14.022478,69.635095 18.375423,69.520073 L 17.625423,73.895073 L 20.344173,78.426323 L 24.594173,81.113823 L 31.187923,80.738823 C 31.187923,80.738823 33.660229,77.943639 34.969173,76.832573 C 36.278116,75.721503 36.625423,71.256142 36.625423,70.145073 C 36.625423,69.99068 36.564578,69.730254 36.469173,69.457573 C 40.322069,69.730305 45.607128,69.873091 51.656673,69.145073 C 54.707907,68.77788 65.281674,69.363822 65.281673,69.363823 L 67.344173,69.332573 L 66.531673,74.082573 L 69.219173,78.645073 L 73.500423,81.301323 L 80.062923,80.926323 C 80.062923,80.926323 82.566478,78.131141 83.875423,77.020073 C 85.184366,75.909003 85.500421,71.443644 85.500423,70.332573 C 85.500423,70.130691 85.405448,69.787343 85.250423,69.395073 L 94.219173,69.801323 L 94.406673,57.738823 L 86.844173,58.176323 C 86.944256,58.08793 87.021108,58.020206 87.125423,57.926323 C 89.042563,56.200897 90.585746,53.514105 90.969173,52.363823 C 91.352601,51.213539 91.929495,45.857856 92.312923,44.707573 C 92.696351,43.557289 91.750423,37.416143 91.750423,36.457573 C 91.750423,35.499003 89.250424,31.474429 89.250423,30.707573 C 89.250423,29.940717 84.250422,26.676323 84.250423,26.676323 C 84.250423,26.676323 78.511313,24.761645 76.594173,25.145073 C 74.677033,25.528501 66.437924,24.363823 66.437923,24.363823 z "
       id="path33185" />
    <path
       style="fill:black;fill-opacity:1;fill-rule:evenodd;stroke:none;stroke-width:1px;stroke-linecap:butt;stroke-linejoin:miter;stroke-opacity:1"
       d="M 17.062545,62.232339 L 10.735983,59.164915 L 7.093417,54.947208 C 7.093417,54.947208 4.0259936,49.962644 4.0259936,49.004074 C 4.0259936,48.045504 3.6425656,42.10237 3.6425656,42.10237 L 5.367992,34.817238 L 9.010557,30.216103 L 12.844837,27.532107 L 19.171399,25.614967 L 32.974806,25.806681 L 45.436215,25.614967 L 58.856195,25.039825 C 58.856195,25.039825 67.099897,26.190109 69.017037,25.806681 C 70.934177,25.423253 76.685596,27.340393 76.685596,27.340393 C 76.685596,27.340393 81.67016,30.599531 81.67016,31.366387 C 81.67016,32.133243 84.162442,36.159236 84.162442,37.117806 C 84.162442,38.076376 85.121012,44.211224 84.737584,45.361508 C 84.354156,46.511792 83.779014,51.879784 83.395586,53.030068 C 83.012158,54.180351 81.478446,56.864347 79.561306,58.589773 C 77.644166,60.315199 76.493882,61.082055 74.193314,62.040625 C 71.892747,62.999195 66.908183,62.615767 64.607615,62.807481 C 62.307047,62.999195 49.078782,62.424053 47.54507,62.424053 C 46.011358,62.424053 38.726226,62.999195 35.658802,62.999195 C 32.591378,62.999195 22.430537,63.190909 22.430537,63.190909 L 17.062545,62.232339 z "
       id="path2839"
       sodipodi:nodetypes="cccsccccccccscssssssssscc" />
    <path
       style="fill:black;fill-opacity:1;fill-rule:evenodd;stroke:none;stroke-width:1px;stroke-linecap:butt;stroke-linejoin:miter;stroke-opacity:1"
       d="M 1.1502838,59.292724 L 16.103975,59.292724 L 37.767656,59.292724 C 37.767656,59.292724 56.747341,58.621725 57.705911,58.621725 C 58.664481,58.621725 75.343599,59.069058 75.343599,59.069058 L 86.846438,58.398059 L 86.654724,70.476041 L 71.701033,69.805047 L 57.705911,70.028708 C 57.705911,70.028708 47.145452,69.437844 44.094218,69.805037 C 33.058101,71.133153 24.347676,69.581376 22.813964,69.581376 C 21.395203,69.772502 3.2668346,70.872256 1.7254252,69.805042 C 0.9585693,69.805042 1.3419978,64.43705 1.3419978,64.43705 L 1.1502838,59.292724 z "
       id="path2845"
       sodipodi:nodetypes="cccscccccscccc" />
    <path
       style="fill:#666;fill-opacity:1;fill-rule:evenodd;stroke:none;stroke-width:1px;stroke-linecap:butt;stroke-linejoin:miter;stroke-opacity:1"
       d="M 3.9301365,62.015773 L 17.813318,62.015773 L 37.926131,62.015773 C 37.926131,62.015773 55.547091,61.674948 56.437039,61.674948 C 57.326987,61.674948 72.812074,61.902165 72.812074,61.902165 L 83.491443,61.56134 L 83.313454,67.696188 L 69.430273,67.355366 L 56.437039,67.468971 C 56.437039,67.468971 46.632586,67.16885 43.799785,67.35536 C 33.553725,68.02996 25.466866,67.241755 24.04295,67.241755 C 22.725755,67.338835 5.895167,67.89744 4.4641045,67.355363 C 3.7521465,67.355363 4.108126,64.628764 4.108126,64.628764 L 3.9301365,62.015773 z "
       id="path32257"
       sodipodi:nodetypes="cccscccccscccc" />
    <path
       style="fill:black;fill-opacity:0.27565984;fill-rule:evenodd;stroke:none;stroke-width:1px;stroke-linecap:butt;stroke-linejoin:miter;stroke-opacity:1"
       d="M 2.1088532,64.820479 L 2.8757093,68.201616 L 15.337119,68.811615 L 40.068224,68.567615 L 69.017036,69.421614 L 83.970728,68.463044 L 84.929298,65.569906 L 2.1088532,64.820479 z "
       id="path32278"
       sodipodi:nodetypes="cccccccc" />
    <path
       style="fill:black;fill-opacity:1;fill-rule:evenodd;stroke:none;stroke-width:1px;stroke-linecap:butt;stroke-linejoin:miter;stroke-opacity:1"
       d="M 11.076441,68.667829 L 13.859599,64.576478 L 20.536535,62.999194 L 26.175571,64.929406 C 26.175571,64.929406 29.044669,69.687399 29.044669,70.798468 C 29.044669,71.909538 28.720739,76.38431 27.411796,77.49538 C 26.102852,78.606446 23.603959,81.403736 23.603959,81.403736 L 17.026185,81.765396 L 12.768812,79.098816 L 10.064984,74.55432 L 11.076441,68.667829 z "
       id="path2843"
       sodipodi:nodetypes="ccccssccccc" />
    <path
       style="fill:red;fill-opacity:1;fill-rule:evenodd;stroke:none;stroke-width:1px;stroke-linecap:butt;stroke-linejoin:miter;stroke-opacity:1"
       d="M 13.81693,70.178599 L 15.700481,67.633733 L 20.219216,66.652645 L 24.035532,67.853258 C 24.035532,67.853258 25.977245,70.812782 25.977245,71.503879 C 25.977245,72.194977 25.75802,74.978335 24.872169,75.669432 C 23.986319,76.360528 22.295148,78.100473 22.295148,78.100473 L 17.843524,78.325429 L 14.962271,76.666787 L 13.132408,73.84006 L 13.81693,70.178599 z "
       id="path32259"
       sodipodi:nodetypes="ccccssccccc" />
    <path
       style="fill:black;fill-opacity:1;fill-rule:evenodd;stroke:none;stroke-width:1px;stroke-linecap:butt;stroke-linejoin:miter;stroke-opacity:1"
       d="M 59.963515,68.870429 L 62.746673,64.779078 L 69.423609,63.201794 L 75.062645,65.132006 C 75.062645,65.132006 77.931743,69.889999 77.931743,71.001068 C 77.931743,72.112138 77.607813,76.58691 76.29887,77.69798 C 74.989926,78.809046 72.491033,81.606336 72.491033,81.606336 L 65.913259,81.967996 L 61.655886,79.301416 L 58.952058,74.75692 L 59.963515,68.870429 z "
       id="path32267"
       sodipodi:nodetypes="ccccssccccc" />
    <path
       style="fill:red;fill-opacity:1;fill-rule:evenodd;stroke:none;stroke-width:1px;stroke-linecap:butt;stroke-linejoin:miter;stroke-opacity:1"
       d="M 62.704004,70.381199 L 64.587555,67.836333 L 69.10629,66.855245 L 72.922606,68.055858 C 72.922606,68.055858 74.864319,71.015382 74.864319,71.706479 C 74.864319,72.397577 74.645094,75.180935 73.759243,75.872032 C 72.873393,76.563128 71.182222,78.303073 71.182222,78.303073 L 66.730598,78.528029 L 63.849345,76.869387 L 62.019482,74.04266 L 62.704004,70.381199 z "
       id="path32269"
       sodipodi:nodetypes="ccccssccccc" />
    <path
       sodipodi:nodetypes="cccsccccccccscssssssssscc"
       id="path2999"
       d="m 21.011596,55.218525 -5.248493,-2.086472 -3.02186,-2.868896 c 0,0 -2.544723,-3.390515 -2.544723,-4.042538 0,-0.652022 -0.3180903,-4.694559 -0.3180903,-4.694559 L 11.309837,36.570691 14.331696,33.440986 17.5126,31.615324 22.761093,30.31128 34.21235,30.441684 44.550289,30.31128 55.683456,29.920066 c 0,0 6.838946,0.782427 8.429398,0.521618 1.590453,-0.260809 6.361809,1.043236 6.361809,1.043236 0,0 4.135176,2.216875 4.135176,2.738492 0,0.521618 2.067588,3.260111 2.067588,3.912132 0,0.652023 0.795226,4.824965 0.477136,5.607391 -0.318091,0.782427 -0.795226,4.433751 -1.113317,5.216178 -0.31809,0.782426 -1.590452,2.608087 -3.180905,3.781728 -1.590452,1.173639 -2.544723,1.695257 -4.453266,2.347279 -1.908542,0.652023 -6.043718,0.391213 -7.952261,0.521618 -1.908544,0.130405 -12.882664,-0.260809 -14.155026,-0.260809 -1.272362,0 -7.316081,0.391214 -9.860805,0.391214 -2.544723,0 -10.97412,0.130404 -10.97412,0.130404 l -4.453267,-0.652022 z"
       style="fill:#ffff00;fill-opacity:1;fill-rule:evenodd;stroke:none"
       inkscape:connector-curvature="0" />
    <path
       style="font-size:20.4701004px;font-style:normal;font-variant:normal;font-weight:normal;font-stretch:normal;text-align:start;line-height:100%;writing-mode:lr-tb;text-anchor:start;fill:#000000;fill-opacity:1;stroke:none;font-family:Independence"
       d="m 23.942232,47.461234 -3.22766,0 0,-3.914813 c 0.26401,-0.141071 0.56764,-0.268037 0.91087,-0.380901 0.35643,-0.112855 0.62705,-0.225714 0.81187,-0.338578 -0.18482,-0.197499 -0.60066,-0.395003 -1.2475,-0.592512 -0.29043,-0.08464 -0.44884,-0.155176 -0.47524,-0.211611 -0.0132,-0.04232 -0.0132,-0.197499 0,-0.465546 0.0264,-0.282142 0.0396,-0.507861 0.0396,-0.677157 0,-0.310356 -0.033,-0.592505 -0.099,-0.846446 -0.23762,0.169297 -0.48844,0.486713 -0.75246,0.952252 -0.21122,0.3668 -0.40263,0.550196 -0.57424,0.55019 -0.0396,6e-6 -0.30363,-0.09875 -0.79207,-0.296256 -0.23762,-0.09875 -0.44884,-0.148122 -0.63365,-0.148128 -0.11881,6e-6 -0.20462,0.0071 -0.25742,0.02116 0.13201,0.296263 0.28382,0.57841 0.45544,0.846446 0.18481,0.253939 0.36302,0.507873 0.53464,0.761801 0,0.05643 -0.18482,0.324476 -0.55444,0.804124 -0.22443,0.282152 -0.38944,0.585461 -0.49504,0.909929 l 0.43563,0 c 0.40923,-0.239822 0.73266,-0.359735 0.97028,-0.359739 0.44883,4e-6 0.83826,0.225722 1.16829,0.677157 0.27722,0.380903 0.41583,0.719481 0.41584,1.015735 -10e-6,0.451439 -0.21122,0.846447 -0.63365,1.185024 -0.35644,0.282149 -0.68646,0.423223 -0.99008,0.423223 -0.73927,0 -1.49173,-0.40206 -2.25739,-1.206185 -0.89767,-0.945196 -1.346508,-2.080844 -1.346508,-3.406945 0,-1.326093 0.475238,-2.475848 1.425718,-3.449268 0.88447,-0.916974 1.84815,-1.375466 2.89103,-1.375475 1.17489,9e-6 2.21118,0.564306 3.10886,1.692892 0.77885,0.973421 1.16828,1.876295 1.16829,2.708628 l 0,5.120998 m 9.78942,-4.824743 c -1e-5,1.142707 -0.33663,2.165495 -1.00988,3.068367 -0.80527,1.086273 -1.89436,1.629409 -3.26727,1.629409 -0.72606,0 -1.33331,-0.119913 -1.82174,-0.35974 -0.39604,-0.26804 -0.79207,-0.543134 -1.1881,-0.825284 -0.14521,0.126968 -0.27062,0.232773 -0.37623,0.317417 -0.34323,0.268042 -0.69966,0.514922 -1.06929,0.74064 l 0,-12.865979 3.32667,0 0.0396,4.867064 c 0.18481,-0.437321 0.42903,-0.754738 0.73266,-0.952251 0.30361,-0.211602 0.59404,-0.317409 0.87127,-0.317418 0.75245,9e-6 1.52471,0.395018 2.31678,1.185025 0.96367,0.959313 1.44551,2.130229 1.44552,3.51275 m -2.37619,1.608248 c -0.13202,-0.296253 -0.34324,-0.63483 -0.63365,-1.015735 -0.23763,-0.310359 -0.35644,-0.52197 -0.35643,-0.634835 -10e-6,-0.141069 0.132,-0.423218 0.39603,-0.846446 0.14521,-0.225713 0.29702,-0.458485 0.45544,-0.698318 -0.22443,0.07054 -0.46205,0.141081 -0.71286,0.211612 -0.25083,0.07054 -0.44884,0.105811 -0.59405,0.105805 -0.46204,6e-6 -0.85147,-0.190443 -1.16829,-0.57135 -0.21122,-0.282142 -0.36304,-0.4867 -0.45544,-0.613674 0,0.169297 0.007,0.366801 0.0198,0.592513 0.0132,0.225725 0.0198,0.38796 0.0198,0.486706 0,0.268047 -0.033,0.571356 -0.099,0.909929 -0.26402,5e-6 -0.54124,0.05644 -0.83166,0.16929 -0.29043,0.09876 -0.54125,0.225724 -0.75246,0.3809 0.71285,0.211616 1.18149,0.387959 1.40591,0.529029 0.22441,0.141079 0.33662,0.317422 0.33663,0.529029 -0.0396,0.268044 -0.0594,0.50787 -0.0594,0.719479 0,0.225722 0.0396,0.486709 0.11881,0.782962 0.0528,-0.05643 0.27062,-0.409113 0.65346,-1.058057 0.1716,-0.296253 0.37622,-0.44438 0.61385,-0.444384 0.132,4e-6 0.42242,0.07759 0.87127,0.232772 0.44883,0.141079 0.70625,0.218669 0.77226,0.232773 m 11.86488,-0.232773 c -0.48845,1.05806 -0.89109,1.770485 -1.2079,2.137277 -0.71287,0.818231 -1.66994,1.227346 -2.87124,1.227346 -1.2145,0 -2.25078,-0.423222 -3.10885,-1.269669 -0.84487,-0.846444 -1.2673,-1.946822 -1.2673,-3.301139 0,-1.255555 0.42903,-2.377095 1.2871,-3.364623 0.77886,-0.888759 1.54453,-1.333143 2.29699,-1.333153 l 1.50492,0 c 0.23762,10e-6 0.49504,0.0776 0.77227,0.232773 0.63364,0.352695 0.98347,0.529038 1.04948,0.529029 0.17161,9e-6 0.34322,-0.07053 0.51484,-0.211611 0.29042,-0.239818 0.45543,-0.373838 0.49504,-0.402062 l 0,3.047205 c -1e-5,0.25394 -0.14522,0.493766 -0.43563,0.71948 -0.27723,0.211616 -0.54786,0.317422 -0.81187,0.317417 -0.51485,5e-6 -0.87128,-0.197499 -1.06929,-0.592513 -0.13201,-0.578398 -0.25742,-1.156802 -0.37623,-1.735214 -0.0924,0.126975 -0.35643,0.521982 -0.79206,1.185025 -0.18482,0.282154 -0.33003,0.423228 -0.43564,0.423223 -0.15841,5e-6 -0.38283,-0.06348 -0.67325,-0.190451 -0.64686,-0.282142 -0.97688,-0.423216 -0.99008,-0.423223 -0.0792,7e-6 -0.11881,0.03527 -0.11881,0.105806 0.22441,0.338585 0.38943,0.592518 0.49504,0.761801 0.33002,0.52198 0.49504,0.818236 0.49504,0.888769 0,0.155186 -0.16502,0.451442 -0.49504,0.888768 -0.22442,0.296259 -0.38283,0.550193 -0.47524,0.761801 0.0528,0.02822 0.11221,0.05643 0.17822,0.08465 0.31682,-0.112857 0.55444,-0.197501 0.71285,-0.253934 0.48844,-0.169285 0.76566,-0.25393 0.83167,-0.253934 0.15841,4e-6 0.36303,0.218668 0.61385,0.655996 0.19801,0.338581 0.39603,0.634837 0.59405,0.888768 l 0.21782,0 0,-1.925664 3.06925,0 0,0.402061 m 9.79127,3.279979 -0.21782,0 c -0.21122,-0.197504 -0.37623,-0.345632 -0.49504,-0.444385 -0.35643,-0.296254 -0.59405,-0.444383 -0.71285,-0.444384 -0.30364,0.268042 -0.70627,0.507868 -1.2079,0.71948 -0.48845,0.197504 -1.06929,0.296256 -1.74254,0.296256 -1.21451,0 -2.23759,-0.451438 -3.06925,-1.354314 -0.83167,-0.902873 -1.2475,-2.003252 -1.2475,-3.301139 0,-1.396631 0.50164,-2.5746 1.50492,-3.533913 0.80526,-0.775899 1.56432,-1.163853 2.27718,-1.163863 0.39603,1e-5 0.75246,0.155191 1.06929,0.465545 0.39603,0.38091 0.60724,0.578413 0.63365,0.592513 l 0,-4.549648 3.20786,0 0,12.717852 m -1.56433,-4.401519 c -0.25082,-0.25393 -0.58745,-0.402057 -1.00988,-0.444384 -0.42244,-0.04232 -0.63365,-0.719474 -0.63365,-2.031471 -0.18482,0.211619 -0.36303,0.416176 -0.53464,0.613673 -0.33003,0.338584 -0.69306,0.507874 -1.08909,0.507868 -0.22442,6e-6 -0.43564,-0.03526 -0.63365,-0.105806 -0.30363,-0.112853 -0.54785,-0.183391 -0.73266,-0.211611 0.0924,0.169294 0.23101,0.380906 0.41583,0.634834 0.30362,0.423229 0.45544,0.726538 0.45544,0.90993 0,0.112863 -0.099,0.310368 -0.29703,0.592512 -0.27722,0.366797 -0.52144,0.691267 -0.73265,0.973413 l 1.68313,-0.423223 c 0.19801,3e-6 0.42903,0.232776 0.69306,0.698318 0.22441,0.395011 0.42903,0.705374 0.61385,0.93109 l 0,-1.925664 c 0.23761,-0.183392 0.58744,-0.352682 1.04948,-0.507868 0.10561,-0.02821 0.35643,-0.09875 0.75246,-0.211611 m 11.24732,-0.888769 -3.14846,0 0,-1.84102 -0.15841,-0.169289 c -0.27723,0.296263 -0.54125,0.670109 -0.79206,1.121541 -0.14522,0.253939 -0.31683,0.380907 -0.51485,0.380901 -0.14521,6e-6 -0.33663,-0.03526 -0.57424,-0.105806 -0.55445,-0.169283 -0.85148,-0.253927 -0.89108,-0.253934 -0.0924,7e-6 -0.13861,0.03527 -0.13861,0.105806 0,0.01411 0.14521,0.232779 0.43564,0.655995 0.29042,0.423229 0.43563,0.69127 0.43563,0.804124 0,0.09876 -0.0594,0.253938 -0.17821,0.465545 -0.10561,0.211616 -0.33663,0.592516 -0.69306,1.142702 0.11881,0.04233 0.19142,0.06349 0.21782,0.06348 0.0396,3e-6 0.25082,-0.06348 0.63365,-0.19045 0.38283,-0.126963 0.62045,-0.190447 0.71286,-0.190451 0.19801,4e-6 0.41583,0.204562 0.65345,0.613674 0.29042,0.493762 0.54784,0.797071 0.77227,0.909929 -1e-5,-0.97341 0.066,-1.650566 0.19801,-2.03147 0.21121,-0.620722 0.64685,-0.931086 1.30691,-0.931091 0.39602,5e-6 0.73925,0.155187 1.02968,0.465545 0.30362,0.296261 0.45543,0.670107 0.45544,1.121542 -1e-5,0.874663 -0.44885,1.650571 -1.34651,2.327726 -0.83167,0.634835 -1.69634,0.952252 -2.59401,0.952252 -1.1881,0 -2.21778,-0.465545 -3.08905,-1.396636 -0.85807,-0.945196 -1.28711,-2.094951 -1.28711,-3.449268 0,-1.28377 0.46864,-2.384149 1.40592,-3.301139 0.88447,-0.860544 1.86795,-1.29082 2.95044,-1.290831 1.13528,1.1e-5 2.02636,0.359749 2.67321,1.07922 0.15841,0.183404 0.66665,1.001635 1.52473,2.454693 l 0,0.486706 m 11.53196,-5.099837 c -10e-6,0.395019 -0.11222,0.747704 -0.33663,1.058057 -0.22443,0.296266 -0.54125,0.444393 -0.95048,0.444384 -0.60725,9e-6 -1.00989,-0.359729 -1.20789,-1.079218 -0.066,-0.423212 -0.12542,-0.853488 -0.17822,-1.29083 -0.25083,0.197515 -0.51485,0.402073 -0.79206,0.613673 -0.26403,0.211622 -0.46205,0.317428 -0.59405,0.317418 -0.14522,10e-6 -0.43564,-0.176333 -0.87127,-0.529029 -0.25083,-0.211601 -0.49505,-0.345621 -0.73266,-0.402062 l -0.0792,0.148128 c 0.11881,0.310375 0.20461,0.543147 0.25742,0.698318 0.17161,0.49377 0.25742,0.81824 0.25742,0.973413 0,0.141083 -0.16502,0.352695 -0.49504,0.634834 -0.50164,0.437339 -0.77886,0.684219 -0.83166,0.74064 0.1188,0.05644 0.23761,0.105815 0.35643,0.148128 0.132,0.02822 0.30361,0.04233 0.51484,0.04232 0.1584,8e-6 0.30362,-0.007 0.43563,-0.02116 0.14521,-0.0141 0.23102,-0.02115 0.25742,-0.02116 0.25082,0.05644 0.42903,0.338587 0.53465,0.846446 0.1188,0.507875 0.26401,0.895829 0.43563,1.163864 0.1188,-0.155175 0.22441,-0.387948 0.31683,-0.698318 0.23761,-0.790008 0.38282,-1.227339 0.43563,-1.311992 l 2.09897,0 0,2.412371 -2.61381,0 c -10e-6,0.02822 -0.033,0.0776 -0.099,0.148129 0,0.112864 0.25082,0.945203 0.75246,2.497015 0.50164,1.55182 0.75246,2.581662 0.75247,3.089529 -1e-5,0.860552 -0.26403,1.678782 -0.79207,2.454693 -0.73927,1.086268 -1.79535,1.629404 -3.16826,1.629408 -1.12209,-4e-6 -2.09237,-0.43028 -2.91083,-1.29083 -0.80527,-0.846448 -1.2079,-1.81986 -1.2079,-2.920239 0,-0.677155 0.23762,-1.403687 0.71286,-2.179598 0.47523,-0.790013 0.95707,-1.185021 1.44551,-1.185024 0.27722,3e-6 0.53464,0.112862 0.77227,0.338578 0.23761,0.211615 0.35642,0.514924 0.35643,0.909929 -10e-6,0.691266 -0.33663,1.086274 -1.00989,1.185025 -0.67325,0.09875 -1.00988,0.162236 -1.00988,0.190451 0,0.09875 0.22442,0.289202 0.67326,0.57135 0.44883,0.282149 0.67325,0.564297 0.67325,0.846446 0,0.211612 -0.0528,0.465545 -0.15841,0.761802 -0.10561,0.296255 -0.21122,0.606618 -0.31683,0.93109 0,0.09875 0.0594,0.148126 0.17822,0.148128 0.13201,-2e-6 0.34322,-0.119915 0.63365,-0.359739 0.30362,-0.239828 0.61384,-0.486708 0.93067,-0.74064 0.0528,-10e-7 0.25082,0.141073 0.59405,0.423223 0.27722,0.225717 0.63365,0.45849 1.06929,0.698317 0.0264,-0.08465 0.0528,-0.169291 0.0792,-0.253933 -1e-5,-0.04232 -0.0924,-0.331527 -0.27723,-0.867607 -0.18482,-0.536084 -0.27722,-0.818232 -0.27722,-0.846446 0,-0.08465 0.16501,-0.268041 0.49504,-0.55019 0.44883,-0.352686 0.76566,-0.60662 0.95048,-0.761801 -0.11882,-0.05643 -0.25743,-0.09875 -0.41584,-0.126968 -0.14521,-0.04232 -0.27722,-0.06348 -0.39603,-0.06348 -0.0924,1e-6 -0.18482,0.0071 -0.27722,0.02116 -0.0924,1e-6 -0.18482,1e-6 -0.27722,0 -0.26403,1e-6 -0.48185,-0.119912 -0.65346,-0.35974 -0.23762,-0.324469 -0.46204,-0.945195 -0.67325,-1.862181 -0.29043,-1.18502 -0.51485,-1.911552 -0.67325,-2.179598 -0.15842,-0.268036 -0.44884,-0.402056 -0.87128,-0.402062 -0.15841,6e-6 -0.31022,0.0071 -0.45543,0.02116 -0.13202,6e-6 -0.26403,6e-6 -0.39604,0 l 0,-2.243082 0.75247,0 c -1e-5,-2.101997 0.49503,-3.682029 1.48512,-4.740098 0.79206,-0.846432 1.75573,-1.269654 2.89103,-1.269669 0.71285,1.5e-5 1.50492,0.310377 2.37619,0.931091 1.01648,0.719492 1.52472,1.558883 1.52473,2.518177"
       id="text32271"
       inkscape:connector-curvature="0" />
    <path
       style="fill:black;fill-opacity:0.27565984;fill-rule:evenodd;stroke:none;stroke-width:1px;stroke-linecap:butt;stroke-linejoin:miter;stroke-opacity:1"
       d="M 6.326561,51.68807 L 11.311125,57.944917 L 15.720547,60.855484 L 40.451652,61.37834 L 69.400464,61.465483 L 76.493882,58.781487 L 82.053588,51.862355 L 65.853756,56.276134 L 42.368792,56.472205 L 20.609254,56.284849 L 6.326561,51.68807 z "
       id="path32276"
       sodipodi:nodetypes="ccccccccccc" />
    <path
       style="font-size:20.4701004px;font-style:normal;font-variant:normal;font-weight:normal;font-stretch:normal;text-align:start;line-height:100%;writing-mode:lr-tb;text-anchor:start;fill:#000000;fill-opacity:0.34604103;stroke:none;font-family:Independence"
       d="m 23.169593,47.632973 -3.227662,0 0,-3.914813 c 0.264015,-0.141071 0.56764,-0.268037 0.910873,-0.380901 0.356423,-0.112855 0.627045,-0.225714 0.811866,-0.338578 -0.184821,-0.197499 -0.600655,-0.395003 -1.247501,-0.592512 -0.290429,-0.08464 -0.448842,-0.155176 -0.475238,-0.211611 -0.01321,-0.04232 -0.01321,-0.197499 0,-0.465546 0.0264,-0.282142 0.0396,-0.507861 0.0396,-0.677157 -6e-6,-0.310356 -0.03301,-0.592505 -0.09901,-0.846446 -0.237625,0.169297 -0.488445,0.486713 -0.752461,0.952252 -0.211222,0.3668 -0.402638,0.550196 -0.574246,0.55019 -0.03961,6e-6 -0.30363,-0.09875 -0.792065,-0.296256 -0.237623,-0.09875 -0.44884,-0.148122 -0.633652,-0.148128 -0.118812,6e-6 -0.204619,0.0071 -0.257421,0.02116 0.132008,0.296263 0.283821,0.57841 0.455437,0.846446 0.184812,0.253939 0.363026,0.507873 0.534644,0.761801 -4e-6,0.05643 -0.184819,0.324476 -0.554445,0.804124 -0.224421,0.282152 -0.389434,0.585461 -0.49504,0.909929 l 0.435635,0 c 0.40923,-0.239822 0.732656,-0.359735 0.970279,-0.359739 0.448832,4e-6 0.838263,0.225722 1.168295,0.677157 0.277217,0.380903 0.415828,0.719481 0.415834,1.015735 -6e-6,0.451439 -0.211223,0.846447 -0.633652,1.185024 -0.356434,0.282149 -0.68646,0.423223 -0.99008,0.423223 -0.739264,0 -1.491724,-0.40206 -2.257384,-1.206185 -0.897674,-0.945196 -1.34651,-2.080844 -1.34651,-3.406945 0,-1.326093 0.475239,-2.475848 1.425717,-3.449268 0.884469,-0.916974 1.848147,-1.375466 2.891034,-1.375475 1.17489,9e-6 2.211173,0.564306 3.108853,1.692892 0.778854,0.973421 1.168286,1.876295 1.168295,2.708628 l 0,5.120998 m 9.789419,-4.824743 c -1e-5,1.142707 -0.33664,2.165495 -1.00988,3.068367 -0.80527,1.086273 -1.89436,1.629409 -3.26727,1.629409 -0.72606,0 -1.333309,-0.119913 -1.821744,-0.35974 -0.396035,-0.26804 -0.792067,-0.543134 -1.188097,-0.825284 -0.145213,0.126968 -0.270624,0.232773 -0.37623,0.317417 -0.343229,0.268042 -0.699658,0.514922 -1.069287,0.74064 l 0,-12.865979 3.32667,0 0.0396,4.867064 c 0.184815,-0.437321 0.429035,-0.754738 0.732655,-0.952251 0.30362,-0.211602 0.59405,-0.317409 0.87128,-0.317418 0.75245,9e-6 1.52471,0.395018 2.31678,1.185025 0.96367,0.959313 1.44551,2.130229 1.44552,3.51275 m -2.37619,1.608248 c -0.13202,-0.296253 -0.34324,-0.63483 -0.63365,-1.015735 -0.23763,-0.310359 -0.35644,-0.52197 -0.35643,-0.634835 -10e-6,-0.141069 0.132,-0.423218 0.39603,-0.846446 0.1452,-0.225713 0.29702,-0.458485 0.45544,-0.698318 -0.22443,0.07054 -0.46205,0.141081 -0.71286,0.211612 -0.25083,0.07054 -0.44884,0.105811 -0.59405,0.105805 -0.46204,6e-6 -0.85147,-0.190443 -1.16829,-0.57135 -0.21123,-0.282142 -0.363037,-0.4867 -0.455442,-0.613674 -3e-6,0.169297 0.0066,0.366801 0.0198,0.592513 0.0132,0.225725 0.0198,0.38796 0.0198,0.486706 -3e-6,0.268047 -0.03301,0.571356 -0.09901,0.909929 -0.264025,5e-6 -0.541247,0.05644 -0.831667,0.16929 -0.290427,0.09876 -0.541247,0.225724 -0.752462,0.3809 0.712856,0.211616 1.181493,0.387959 1.405914,0.529029 0.224415,0.141079 0.336621,0.317422 0.336631,0.529029 -0.03961,0.268044 -0.05941,0.50787 -0.05941,0.719479 -3e-6,0.225722 0.0396,0.486709 0.118808,0.782962 0.0528,-0.05643 0.27062,-0.409113 0.65345,-1.058057 0.17161,-0.296253 0.37623,-0.44438 0.61385,-0.444384 0.13201,4e-6 0.42243,0.07759 0.87127,0.232772 0.44883,0.141079 0.70626,0.218669 0.77227,0.232773 m 11.86487,-0.232773 c -0.48844,1.05806 -0.89108,1.770485 -1.20789,2.137277 -0.71287,0.818231 -1.66995,1.227346 -2.87124,1.227346 -1.2145,0 -2.25078,-0.423222 -3.10885,-1.269669 -0.84487,-0.846444 -1.2673,-1.946822 -1.2673,-3.301139 0,-1.255555 0.42903,-2.377095 1.2871,-3.364623 0.77886,-0.888759 1.54452,-1.333143 2.29699,-1.333153 l 1.50492,0 c 0.23761,10e-6 0.49504,0.0776 0.77226,0.232773 0.63365,0.352695 0.98348,0.529038 1.04949,0.529029 0.17161,9e-6 0.34322,-0.07053 0.51484,-0.211611 0.29042,-0.239818 0.45543,-0.373838 0.49504,-0.402062 l 0,3.047205 c -10e-6,0.25394 -0.14522,0.493766 -0.43563,0.71948 -0.27723,0.211616 -0.54786,0.317422 -0.81187,0.317417 -0.51485,5e-6 -0.87128,-0.197499 -1.06929,-0.592513 -0.13201,-0.578398 -0.25742,-1.156802 -0.37623,-1.735214 -0.0924,0.126975 -0.35643,0.521982 -0.79206,1.185025 -0.18482,0.282154 -0.33003,0.423228 -0.43564,0.423223 -0.15841,5e-6 -0.38283,-0.06348 -0.67325,-0.190451 -0.64686,-0.282142 -0.97688,-0.423216 -0.99008,-0.423223 -0.0792,7e-6 -0.11881,0.03528 -0.11881,0.105806 0.22441,0.338585 0.38943,0.592518 0.49504,0.761801 0.33002,0.52198 0.49504,0.818236 0.49504,0.888769 0,0.155186 -0.16502,0.451442 -0.49504,0.888768 -0.22442,0.296259 -0.38284,0.550193 -0.47524,0.761801 0.0528,0.02822 0.11221,0.05643 0.17821,0.08464 0.31683,-0.112857 0.55445,-0.197501 0.71286,-0.253934 0.48844,-0.169285 0.76566,-0.25393 0.83167,-0.253934 0.15841,4e-6 0.36302,0.218668 0.61385,0.655996 0.19801,0.338581 0.39603,0.634837 0.59405,0.888768 l 0.21782,0 0,-1.925664 3.06924,0 0,0.402061 m 9.79128,3.279979 -0.21782,0 c -0.21122,-0.197504 -0.37624,-0.345632 -0.49504,-0.444385 -0.35643,-0.296254 -0.59405,-0.444383 -0.71285,-0.444384 -0.30364,0.268042 -0.70627,0.507868 -1.2079,0.71948 -0.48845,0.197504 -1.0693,0.296256 -1.74254,0.296256 -1.21451,0 -2.23759,-0.451438 -3.06925,-1.354314 -0.83167,-0.902873 -1.24751,-2.003252 -1.2475,-3.301139 -1e-5,-1.396631 0.50164,-2.5746 1.50492,-3.533913 0.80526,-0.775899 1.56432,-1.163853 2.27718,-1.163863 0.39603,10e-6 0.75246,0.155191 1.06929,0.465545 0.39602,0.38091 0.60724,0.578413 0.63365,0.592513 l 0,-4.549648 3.20786,0 0,12.717852 m -1.56433,-4.401519 c -0.25082,-0.25393 -0.58745,-0.402057 -1.00988,-0.444384 -0.42244,-0.04232 -0.63366,-0.719474 -0.63365,-2.031471 -0.18482,0.211619 -0.36303,0.416176 -0.53464,0.613673 -0.33004,0.338584 -0.69306,0.507874 -1.08909,0.507868 -0.22442,6e-6 -0.43564,-0.03526 -0.63365,-0.105806 -0.30363,-0.112853 -0.54785,-0.183391 -0.73266,-0.211611 0.0924,0.169294 0.23101,0.380906 0.41583,0.634834 0.30362,0.423229 0.45543,0.726538 0.45544,0.90993 -1e-5,0.112863 -0.099,0.310368 -0.29703,0.592512 -0.27722,0.366797 -0.52144,0.691267 -0.73265,0.973413 l 1.68313,-0.423223 c 0.19801,3e-6 0.42903,0.232776 0.69306,0.698318 0.22441,0.395011 0.42903,0.705374 0.61385,0.93109 l 0,-1.925664 c 0.23761,-0.183392 0.58744,-0.352682 1.04948,-0.507868 0.1056,-0.02821 0.35642,-0.09875 0.75246,-0.211611 m 11.24732,-0.888769 -3.14846,0 0,-1.84102 -0.15841,-0.169289 c -0.27723,0.296263 -0.54125,0.670109 -0.79207,1.121541 -0.14521,0.253939 -0.31683,0.380907 -0.51484,0.380901 -0.14521,6e-6 -0.33663,-0.03526 -0.57424,-0.105806 -0.55445,-0.169283 -0.85148,-0.253927 -0.89108,-0.253934 -0.0924,7e-6 -0.13861,0.03527 -0.13861,0.105806 0,0.01411 0.14521,0.232779 0.43564,0.655995 0.29042,0.423229 0.43563,0.69127 0.43563,0.804124 0,0.09876 -0.0594,0.253938 -0.17821,0.465545 -0.10561,0.211616 -0.33663,0.592516 -0.69306,1.142702 0.11881,0.04233 0.19142,0.06349 0.21782,0.06348 0.0396,3e-6 0.25082,-0.06348 0.63365,-0.19045 0.38283,-0.126963 0.62045,-0.190447 0.71286,-0.190451 0.19801,4e-6 0.41583,0.204562 0.65345,0.613674 0.29042,0.493762 0.54784,0.797071 0.77227,0.909929 -10e-6,-0.97341 0.066,-1.650566 0.19801,-2.03147 0.21121,-0.620722 0.64685,-0.931086 1.30691,-0.931091 0.39602,5e-6 0.73925,0.155187 1.02968,0.465545 0.30362,0.296261 0.45543,0.670107 0.45544,1.121542 -10e-6,0.874663 -0.44885,1.650571 -1.34651,2.327726 -0.83168,0.634835 -1.69634,0.952252 -2.59401,0.952252 -1.1881,0 -2.21778,-0.465545 -3.08905,-1.396636 -0.85807,-0.945196 -1.28711,-2.094951 -1.28711,-3.449268 0,-1.28377 0.46864,-2.384149 1.40592,-3.301139 0.88447,-0.860544 1.86795,-1.29082 2.95044,-1.290831 1.13528,1.1e-5 2.02635,0.359749 2.67321,1.07922 0.15841,0.183404 0.66665,1.001635 1.52473,2.454693 l 0,0.486706 m 11.53196,-5.099837 c -1e-5,0.395019 -0.11222,0.747704 -0.33663,1.058057 -0.22443,0.296266 -0.54125,0.444393 -0.95048,0.444384 -0.60726,9e-6 -1.00989,-0.359729 -1.2079,-1.079218 -0.066,-0.423212 -0.12541,-0.853488 -0.17821,-1.29083 -0.25083,0.197515 -0.51485,0.402073 -0.79206,0.613673 -0.26403,0.211622 -0.46205,0.317428 -0.59405,0.317418 -0.14522,1e-5 -0.43564,-0.176333 -0.87127,-0.529029 -0.25083,-0.211601 -0.49505,-0.345621 -0.73266,-0.402062 l -0.0792,0.148128 c 0.11881,0.310375 0.20461,0.543147 0.25742,0.698318 0.17161,0.49377 0.25742,0.81824 0.25742,0.973413 0,0.141083 -0.16502,0.352695 -0.49504,0.634834 -0.50164,0.437339 -0.77887,0.684219 -0.83166,0.74064 0.1188,0.05644 0.23761,0.105815 0.35642,0.148128 0.13201,0.02822 0.30362,0.04233 0.51485,0.04232 0.1584,8e-6 0.30361,-0.007 0.43563,-0.02116 0.14521,-0.0141 0.23101,-0.02115 0.25742,-0.02116 0.25082,0.05644 0.42903,0.338587 0.53465,0.846446 0.1188,0.507875 0.26401,0.895829 0.43563,1.163864 0.1188,-0.155175 0.22441,-0.387948 0.31683,-0.698318 0.23761,-0.790008 0.38282,-1.227339 0.43563,-1.311992 l 2.09897,0 0,2.412371 -2.61381,0 c -1e-5,0.02822 -0.033,0.0776 -0.099,0.148129 0,0.112864 0.25082,0.945203 0.75246,2.497015 0.50164,1.55182 0.75246,2.581662 0.75246,3.089529 0,0.860552 -0.26402,1.678782 -0.79206,2.454693 -0.73927,1.086268 -1.79535,1.629404 -3.16826,1.629408 -1.12209,-4e-6 -2.09237,-0.43028 -2.91083,-1.29083 -0.80527,-0.846448 -1.2079,-1.81986 -1.2079,-2.920239 0,-0.677155 0.23762,-1.403687 0.71286,-2.179598 0.47523,-0.790013 0.95707,-1.185021 1.44551,-1.185024 0.27722,3e-6 0.53464,0.112862 0.77227,0.338578 0.23761,0.211615 0.35642,0.514924 0.35643,0.909929 -1e-5,0.691266 -0.33664,1.086274 -1.00989,1.185025 -0.67325,0.09875 -1.00988,0.162236 -1.00988,0.190451 0,0.09875 0.22442,0.289202 0.67326,0.57135 0.44883,0.282149 0.67325,0.564297 0.67325,0.846446 0,0.211612 -0.0528,0.465545 -0.15841,0.761802 -0.10561,0.296255 -0.21122,0.606618 -0.31683,0.93109 0,0.09875 0.0594,0.148126 0.17822,0.148128 0.132,-2e-6 0.34322,-0.119915 0.63365,-0.359739 0.30362,-0.239828 0.61384,-0.486708 0.93067,-0.74064 0.0528,-1e-6 0.25082,0.141073 0.59405,0.423223 0.27722,0.225717 0.63365,0.45849 1.06929,0.698317 0.0264,-0.08465 0.0528,-0.169291 0.0792,-0.253933 0,-0.04232 -0.0924,-0.331527 -0.27722,-0.867607 -0.18482,-0.536084 -0.27723,-0.818232 -0.27722,-0.846446 -1e-5,-0.08465 0.16501,-0.268041 0.49504,-0.55019 0.44883,-0.352686 0.76566,-0.60662 0.95048,-0.761801 -0.11882,-0.05643 -0.25743,-0.09875 -0.41584,-0.126968 -0.14521,-0.04232 -0.27723,-0.06348 -0.39603,-0.06348 -0.0924,10e-7 -0.18482,0.0071 -0.27722,0.02116 -0.0924,10e-7 -0.18482,10e-7 -0.27722,0 -0.26403,10e-7 -0.48185,-0.119912 -0.65346,-0.35974 -0.23762,-0.324469 -0.46204,-0.945195 -0.67325,-1.862181 -0.29043,-1.18502 -0.51485,-1.911552 -0.67326,-2.179598 -0.15841,-0.268036 -0.44884,-0.402056 -0.87127,-0.402062 -0.15841,6e-6 -0.31022,0.0071 -0.45543,0.02116 -0.13202,6e-6 -0.26403,6e-6 -0.39604,0 l 0,-2.243082 0.75247,0 c -1e-5,-2.101997 0.49503,-3.682029 1.48512,-4.740098 0.79205,-0.846432 1.75573,-1.269654 2.89103,-1.269669 0.71285,1.5e-5 1.50491,0.310377 2.37619,0.931091 1.01648,0.719492 1.52472,1.558883 1.52473,2.518177"
       id="path32280"
       inkscape:connector-curvature="0" />
  </g>
</svg>
