<?xml version="1.0" encoding="UTF-8" standalone="no"?>
<!-- Created with Inkscape (http://www.inkscape.org/) -->

<svg
   xmlns:dc="http://purl.org/dc/elements/1.1/"
   xmlns:cc="http://creativecommons.org/ns#"
   xmlns:rdf="http://www.w3.org/1999/02/22-rdf-syntax-ns#"
   xmlns:svg="http://www.w3.org/2000/svg"
   xmlns="http://www.w3.org/2000/svg"
   xmlns:sodipodi="http://sodipodi.sourceforge.net/DTD/sodipodi-0.dtd"
   xmlns:inkscape="http://www.inkscape.org/namespaces/inkscape"
   width="100"
   height="100"
   id="svg12024"
   sodipodi:version="0.32"
   inkscape:version="0.48.2 r9819"
   version="1.0"
   sodipodi:docname="imagename.svg">
  <defs
     id="defs12026" />
  <sodipodi:namedview
     id="base"
     pagecolor="#ffffff"
     bordercolor="#666666"
     borderopacity="1.0"
     inkscape:pageopacity="0.0"
     inkscape:pageshadow="2"
     inkscape:zoom="6.0203674"
     inkscape:cx="68.316745"
     inkscape:cy="69.194058"
     inkscape:document-units="px"
     inkscape:current-layer="layer1"
     height="100px"
     width="100px"
     inkscape:window-width="1015"
     inkscape:window-height="756"
     inkscape:window-x="49"
     inkscape:window-y="17"
     showgrid="false"
     inkscape:window-maximized="0" />
  <metadata
     id="metadata12029">
    <rdf:RDF>
      <cc:Work
         rdf:about="">
        <dc:format>image/svg+xml</dc:format>
        <dc:type
           rdf:resource="http://purl.org/dc/dcmitype/StillImage" />
      </cc:Work>
    </rdf:RDF>
  </metadata>
  <g
     inkscape:label="Calque 1"
     inkscape:groupmode="layer"
     id="layer1">
    <path
       style="fill:#000000;fill-opacity:0.29032258;fill-rule:evenodd;stroke:none"
       d="m 28.504656,5.540684 -10.96875,4.73037 -9.2812502,7.385481 -3.8125,8.392593 -1.09375,11.566518 4.375,9.430222 7.0937502,7.934814 9.34375,3.662222 6.9375,1.556445 6.1875,-0.671408 -5.59375,-14.61837 -4.15625,-5.066073 2.46875,-0.518815 2.75,0.762963 2.5625,1.648 2.1875,2.075259 0.09375,1.922666 1.125,0.244149 0.59375,-1.800593 0.5625,-1.525926 -0.375,-2.044741 -1.25,0.244149 -0.1875,1.281777 -1.21875,-1.800592 -1.71875,-2.563556 -2.46875,-1.403851 -2.84375,-0.274667 -2.1875,0.274667 -1.1875,0.335703 3.03125,-7.538074 -6.25,-1.342814 0.875,-7.293926 2.21875,-7.324444 2.1875,-7.660148 z m 43.6875,2.8077036 -9.875,4.1810364 -8.34375,6.592 -3.4375,7.477037 -0.96875,10.315259 3.90625,8.392592 6.375,7.049778 8.40625,3.265481 8.34375,1.373333 10.375,-2.319407 7.84375,-6.530963 4.4375,-6.591999 1.031254,-9.765926 -2.031254,-8.453629 -4.40625,-7.019259 -9.8125,-6.5614816 -11.84375,-1.4038518 z m -40.90625,8.4536294 -2.1875,0.824 -1.84375,1.251259 -0.75,1.464889 -0.21875,2.014222 0.875,1.617482 1.40625,1.373333 1.84375,0.640889 1.84375,0.274666 2.28125,-0.457777 1.71875,-1.281778 1,-1.281778 0.21875,-1.892148 -0.4375,-1.648 -1,-1.342815 -2.15625,-1.281777 -2.59375,-0.274667 z m 35.5625,43.702517 -11.65625,0.824 -2.125,2.746666 c 0,0 4.189186,2.779028 4.40625,3.601185 0.158822,0.601572 -3.121514,3.885159 -4.90625,5.615408 l 7.1875,3.662222 c 0.271988,-0.407415 0.642976,-0.899071 1.1875,-1.464889 l 3.8125,-2.838222 3.71875,2.136296 2.1875,-3.326518 -3.8125,-10.956148 z m -37.40625,1.068148 -3.8125,10.925629 2.1875,3.326519 3.71875,-2.105778 3.8125,2.838222 c 0.544526,0.565818 0.915512,1.026955 1.1875,1.43437 l 7.1875,-3.662222 c -1.784741,-1.730248 -5.065072,-4.983317 -4.90625,-5.584888 0.217066,-0.822155 4.40625,-3.631704 4.40625,-3.631704 l -2.125,-2.716148 -11.65625,-0.824 z m 30.46875,20.050666 c -0.306057,1e-5 -0.492993,0.01184 -0.53125,0.03052 -0.191287,0.08412 -0.341858,0.136401 -0.4375,0.183111 -1.061626,0.177584 -1.912135,0.867205 -2.5625,2.044741 -0.49734,0.897196 -0.776801,1.80277 -0.84375,2.746667 -4e-6,0.06543 -0.0026,0.174361 -0.03125,0.305185 -0.01913,0.130844 -0.03125,0.21612 -0.03125,0.244148 0,0.0118 -7.79e-4,0.07577 0,0.09156 -0.0018,0.01313 0,0.05318 0,0.06104 0,0.05374 0.04315,0.260349 0.0625,0.39674 0.01468,0.109271 0.009,0.128764 0.03125,0.274667 0.01,0.06029 0.01959,0.05376 0.03125,0.122074 0.06675,0.428705 0.152096,0.964834 0.28125,1.678519 0.0081,0.04412 0.02291,0.07873 0.03125,0.122074 0.0022,0.01234 -0.0022,0.0181 0,0.03052 0.01864,0.101283 0.04268,0.177525 0.0625,0.274667 0.0555,0.257742 0.09089,0.535778 0.15625,0.762963 0.104248,0.380949 0.24034,0.739036 0.375,1.037629 0.315619,0.672882 0.769898,1.33886 1.34375,1.983704 0.277361,0.317754 0.471973,0.576053 0.625,0.762963 0.965982,0.476626 1.816494,0.701916 2.5625,0.701926 0.468645,0 0.881448,-0.0498 1.1875,-0.152593 0.18172,-0.08411 0.301043,-0.157554 0.40625,-0.213629 0.745994,-0.168219 1.450382,-0.701614 2.0625,-1.617482 0.564274,-0.831764 0.858416,-1.635275 0.90625,-2.410963 0.06694,-0.308408 0.139668,-0.543054 0.1875,-0.701926 0.03825,-0.355138 0.03124,-0.762797 0.03125,-1.22074 -10e-7,-0.02452 2.82e-4,-0.03742 0,-0.06104 4.73e-4,-0.04468 -10e-7,-0.07639 0,-0.122074 -1.6e-5,-0.495309 -0.08742,-0.805885 -0.25,-0.946074 -0.06696,-0.03737 -0.14225,-0.08468 -0.21875,-0.122075 -0.03826,-0.02336 -0.07206,-0.03045 -0.09375,-0.06104 0.0078,-0.05508 0.03812,-0.119378 0.09375,-0.274666 0.06694,-0.18691 0.09374,-0.29831 0.09375,-0.335704 -3e-6,-0.04297 0.0067,-0.122562 0,-0.183111 -1.6e-5,-0.158862 -0.07274,-0.440814 -0.1875,-0.824 -0.0574,-0.130824 -0.10844,-0.221062 -0.15625,-0.305185 -0.114786,-0.457924 -0.357882,-0.977013 -0.75,-1.556445 -0.392147,-0.588758 -0.819623,-1.091049 -1.25,-1.464888 -0.468648,-0.411195 -1.178148,-0.759731 -2.125,-1.068149 -0.468648,-0.149516 -0.804268,-0.213619 -1.0625,-0.213629 z m -17.1875,0.03052 c -0.03827,1e-5 -0.276248,0.01185 -0.6875,0.03052 -0.468654,0.0187 -0.787037,0.02118 -0.96875,0.03052 -0.04783,0.05609 -0.135236,0.238465 -0.25,0.518815 -0.07652,0.214968 -0.214972,0.364328 -0.40625,0.457778 -0.03826,-0.03737 -0.0555,-0.08468 -0.09375,-0.122074 -0.03826,-0.112132 -0.07718,-0.223542 -0.125,-0.335704 -0.105215,-0.214938 -0.216863,-0.305165 -0.3125,-0.305185 -0.114779,1e-5 -0.280029,0.02863 -0.5,0.122074 -0.296497,0.121508 -0.449626,0.204303 -0.46875,0.21363 -0.985116,0.289725 -1.728423,0.498238 -2.1875,0.61037 -0.191289,0.02805 -0.371218,0.04237 -0.5625,0.06104 -0.248674,0.06543 -0.375,0.202975 -0.375,0.427259 -4e-6,0.570096 -0.01212,0.954112 -0.03125,1.159704 -0.0096,0.242996 0,0.349444 0,0.274667 0,0.0038 -8.61e-4,0.0809 0,0.09155 -0.0021,9.8e-5 0,0.07945 0,0.06104 0.0081,0.0877 0.03287,0.185826 0.0625,0.518815 0.0078,0.08586 -0.0099,0.07181 0,0.183111 0.05739,0.476636 0.08419,0.808375 0.09375,0.976593 0.07983,1.08809 0.182174,2.036517 0.25,2.746666 0.05497,0.530778 0.07717,0.857097 0.125,1.190222 0.0171,0.11769 0.04602,0.339337 0.0625,0.42726 0.0072,0.04232 0.02431,0.146078 0.03125,0.183111 0.05617,0.353644 0.101241,0.676114 0.125,0.885037 0.0026,0.0097 -0.0026,0.02087 0,0.03052 0.0051,0.04039 0.02712,0.116254 0.03125,0.152593 0.583412,2.205556 1.71339,3.326518 3.40625,3.326518 0.478205,10e-6 0.820832,-0.05666 1.03125,-0.122074 0.927718,-0.299062 1.715065,-0.749662 2.375,-1.403852 0.191276,-0.289716 0.339293,-0.524361 0.40625,-0.701925 0.31561,-0.504664 0.595073,-1.156325 0.84375,-1.922667 0.06694,-0.177564 0.0963,-0.312627 0.125,-0.396741 0.191274,-1.476588 0.31249,-2.408316 0.3125,-2.838222 -9e-6,-0.439242 -0.05806,-1.014973 -0.125,-1.678518 -0.0045,-0.05089 0.0029,-0.101986 0,-0.152593 0.05261,0.369425 0.111994,0.784712 0.15625,1.007111 0.0081,0.0457 0.02319,0.142592 0.03125,0.183111 0.05857,0.992853 0.13262,2.018871 0.25,3.112889 0.01123,0.06806 0.02013,0.08707 0.03125,0.152593 0.0011,0.01064 -0.0011,0.01986 0,0.03052 0.143463,0.869148 0.248102,1.532635 0.34375,1.953185 0.04451,0.405911 0.06062,0.614736 0.09375,0.915556 0.01631,0.205826 0.05161,0.518912 0.0625,0.671407 0.0039,0.04579 0.02826,0.141274 0.03125,0.183111 0.04691,0.261571 0.08611,0.523327 0.09375,0.732445 0.0039,0.04715 0.02959,0.107093 0.03125,0.152592 0.07651,0.09345 0.156917,0.152593 0.28125,0.152593 0.200849,10e-6 0.426711,-0.07345 0.65625,-0.21363 0.0096,-10e-6 0.216287,-0.140033 0.65625,-0.457778 0.545147,-0.392521 1.390544,-0.87363 2.5,-1.43437 0.04781,-0.03737 0.08673,-0.08469 0.125,-0.122074 0.03825,-0.214948 0.06249,-0.314531 0.0625,-0.305185 -3e-6,-0.0091 -0.05062,-0.04363 -0.0625,-0.06104 0.0072,-0.03218 0.03125,-0.125844 0.03125,-0.122074 -1.6e-5,-0.02804 -0.02937,-0.09213 -0.125,-0.21363 -0.08609,-0.130834 -0.146699,-0.227946 -0.15625,-0.274666 -0.07653,-0.261678 -0.127568,-0.449008 -0.15625,-0.579852 -0.102541,-0.315967 -0.138037,-0.397229 -0.15625,-0.42726 0.0096,-0.0093 0.03124,-0.02117 0.03125,-0.03052 l 0.09375,0 5.09375,4.12 c 0.01912,10e-6 0.05804,0 0.125,0 0.06694,10e-6 0.0963,0 0.125,0 0.05737,10e-6 0.130103,-0.03796 0.1875,-0.122074 -0.0038,0.03004 -0.02333,-0.140171 -0.03125,-0.183111 -0.0057,0.04473 -0.01721,-0.15689 -0.03125,-0.274667 -0.0096,-0.121498 -0.007,-0.524206 0.03125,-1.159704 0.04781,-0.635498 0.09374,-0.934247 0.09375,-0.915555 -3e-6,-0.01183 -0.02547,-0.139751 -0.03125,-0.183111 -1.1e-5,-0.02557 -0.03317,-0.225476 -0.0625,-0.396741 -0.01561,-0.09406 -0.01653,-0.107191 -0.03125,-0.183111 -0.0574,-0.345782 -0.0842,-0.568602 -0.09375,-0.671408 -0.09566,-1.439224 -0.158819,-2.506004 -0.1875,-3.234962 -0.04422,-0.266366 -0.08867,-0.441518 -0.125,-0.610371 -0.0287,-0.598114 -0.07463,-1.064915 -0.09375,-1.373333 -0.0021,-0.03831 0.0022,-0.117621 0,-0.152593 -0.0558,-0.334873 -0.110198,-0.563357 -0.15625,-0.762963 -0.01765,-0.06555 -0.01424,-0.09018 -0.03125,-0.152592 -0.1913,-0.710256 -0.344427,-1.264824 -0.46875,-1.648 -0.0096,-0.03737 -1.1e-5,-0.146303 0,-0.305185 -0.0096,-0.121479 -0.03382,-0.197409 -0.0625,-0.244148 -0.229556,-0.299043 -0.506458,-0.483902 -0.8125,-0.549334 -0.0096,-0.0093 -0.250117,-0.01182 -0.71875,-0.03052 -0.612122,-0.02802 -1.068957,-0.06103 -1.375,-0.06104 -0.46866,9e-6 -1.127115,0.06163 -1.96875,0.183111 -0.04784,0.0094 -0.07719,0.04733 -0.125,0.122074 -0.04784,0.07478 -0.09376,0.157573 -0.09375,0.21363 -10e-7,5.46e-4 0.02964,0.116966 0.03125,0.122074 -0.0024,0.0179 -3e-6,0.04623 0,0.06104 -1.1e-5,0.0093 0.23797,0.68964 0.6875,2.04474 0.01912,0.04674 0.07016,0.15814 0.15625,0.335704 0.03173,0.07752 0.02351,0.104232 0.03125,0.152593 -0.0096,0.0094 -1.3e-5,0.02118 0,0.03052 l -0.125,0 -2.90625,-2.227852 c -1.157268,-0.88782 -1.908248,-1.404418 -2.28125,-1.525926 -0.124338,0.177584 -0.187499,0.3363 -0.1875,0.457778 -4e-6,0.11891 0.02288,0.264754 0.03125,0.396741 -0.05976,-0.162456 -0.139098,-0.298818 -0.21875,-0.427259 -0.172167,-0.271005 -0.412705,-0.453383 -0.71875,-0.518815 -0.07653,-0.01868 -0.329185,-0.0305 -0.75,-0.03052 z m 33.71875,0 c -0.34431,1e-5 -0.81838,0.05915 -1.46875,0.152593 -0.43995,0.121508 -0.75834,0.221091 -0.96875,0.305185 -0.19128,0.03739 -0.5288,0.163111 -0.96875,0.396741 -0.33474,0.168237 -0.64357,0.34126 -0.96875,0.518815 -0.09564,0.05609 -0.38467,0.300077 -0.84375,0.701926 -0.51646,0.476635 -0.78125,0.775385 -0.78125,0.915555 0,0.01064 0.05084,0.08733 0.0625,0.122074 -0.0057,0.0185 -0.03125,0.04653 -0.03125,0.06104 0,0.02805 0.03893,0.139458 0.125,0.335704 0.07652,0.196266 0.13713,0.321982 0.15625,0.396741 0.34431,1.383157 0.56573,2.442497 0.71875,3.143407 0.01913,0.06542 0.09186,0.108353 0.1875,0.183111 0.15303,-0.07476 0.39613,-0.191139 0.75,-0.396741 0.29649,-0.177564 0.44963,-0.274657 0.46875,-0.274666 0.0096,9e-6 0.03962,0.01993 0.0625,0.03052 -0.39015,1.500652 -0.59375,2.627747 -0.59375,3.357037 0,0.0378 -4.2e-4,0.05612 0,0.09156 -6e-4,0.02801 0,0.06458 0,0.09155 0.0032,0.121742 0.02148,0.248758 0.03125,0.335704 0.02239,0.201403 0.04986,0.372121 0.09375,0.427259 0.09634,0.0807 0.15302,0.135366 0.21875,0.183111 -0.06613,0.163501 -0.11923,0.332647 -0.1875,0.488296 -0.1052,0.252332 -0.15625,0.486978 -0.15625,0.701926 0,0.02084 -7.6e-4,0.04062 0,0.06104 -0.0019,0.02979 0,0.06248 0,0.09156 0,0.51401 0.26223,0.931025 0.75,1.220741 0.38257,0.23364 0.82473,0.335694 1.3125,0.335703 0.46865,0 0.99121,-0.09958 1.59375,-0.305185 0.4017,-0.14019 0.6448,-0.263416 0.75,-0.366222 0.25824,-0.224294 0.47198,-0.475737 0.625,-0.793481 0.03826,-0.121498 0.05294,-0.230418 0.0625,-0.305186 0.21998,-0.439242 0.34375,-0.749808 0.34375,-0.946074 0,-0.101595 -0.02288,-0.129525 -0.03125,-0.183111 0,-0.168218 0.0096,-0.277147 0,-0.305185 -0.03826,-0.08411 -0.1161,-0.188658 -0.25,-0.366222 -0.10056,-0.143628 -0.13677,-0.201764 -0.15625,-0.244148 0.01787,-0.05034 0.0354,-0.07845 0.0625,-0.152593 0.04782,-0.130834 0.0625,-0.218591 0.0625,-0.274667 0.01913,-0.168227 0.03125,-0.293944 0.03125,-0.39674 0.07652,-0.14018 0.24433,-0.284589 0.53125,-0.396741 0.42083,-0.158872 0.76089,-0.320068 1,-0.488296 0.75556,-0.504645 1.25132,-1.146979 1.5,-1.922667 0.05738,-0.177564 0.10586,-0.293935 0.125,-0.396741 0.27735,-0.60746 0.40624,-1.247294 0.40625,-1.892148 -1e-5,-0.300341 -0.01472,-0.606249 -0.0625,-0.885037 -0.03133,-0.228845 -0.09409,-0.456459 -0.15625,-0.671407 -0.14347,-0.495308 -0.31128,-0.914804 -0.53125,-1.251259 -0.40171,-0.588759 -0.9702,-0.972774 -1.6875,-1.159704 -0.30605,-0.09344 -0.53447,-0.157544 -0.6875,-0.21363 -0.39213,-0.03736 -0.89746,-0.06102 -1.5,-0.06104 z m -48.71875,0.09156 c -0.258233,10e-6 -0.399243,0.02119 -0.4375,0.03052 -0.382567,0.121508 -0.674153,0.197438 -0.875,0.244149 -0.06695,0.04674 -0.09119,0.122669 -0.0625,0.244148 l 0,0.03052 c -0.003,0.04001 0.0169,0.09185 0.03125,0.152593 l 0.5625,3.387555 0,1.190222 c 0,0.03739 0.02424,0.148794 0.0625,0.335704 0.01087,0.05723 0.01044,0.08143 0.03125,0.183111 0.01084,0.06236 0.03125,0.155073 0.03125,0.183111 0.0091,0.04749 0.03125,0.127026 0.03125,0.152593 0.02445,0.182672 0.0401,0.366945 0.0625,0.549333 0.0045,0.05048 -0.0062,0.102181 0,0.152593 0.01883,0.297675 0.02511,0.634746 0,1.068148 -0.0027,0.05917 0.0036,0.09068 0,0.152593 -0.003,0.03563 0.02678,0.130716 0.03125,0.183111 0.0055,0.07652 -0.01483,0.108558 0,0.213629 0.01001,0.07079 0.01909,0.09698 0.03125,0.183111 0.01296,0.09222 0.03125,0.238826 0.03125,0.244148 l 0,1.739556 c 0,0.570076 0.05104,1.387904 0.15625,2.472 0.002,0.02268 0.02746,0.0386 0.03125,0.06104 0.0043,0.04485 -0.0044,0.07627 0,0.122074 0.01913,0.214948 0.118659,0.42097 0.28125,0.579852 0.765131,-0.0841 1.20729,-0.16691 1.3125,-0.21363 0.372999,-0.149536 0.856642,-0.263426 1.46875,-0.366222 0.363434,-0.04673 0.730308,-0.09653 1.09375,-0.152593 0.621665,-0.102805 1.168473,-0.214215 1.65625,-0.335703 0.325177,-0.03738 0.665248,-0.0847 1,-0.122074 0.411253,-0.07477 0.656907,-0.262098 0.78125,-0.579852 0.05738,-0.14018 0.09374,-0.263426 0.09375,-0.366222 0.04781,-0.635508 0.06249,-1.06683 0.0625,-1.281778 -10e-7,-0.04925 0.0012,-0.129594 0,-0.183111 -10e-7,-0.05081 0.0019,-0.127758 0,-0.183111 -0.0084,-0.202057 -0.03737,-0.418714 -0.0625,-0.671408 -0.03193,-0.283124 -0.07204,-0.62707 -0.125,-0.976592 -0.0058,-0.06208 -0.02474,-0.122592 -0.03125,-0.183111 -0.0038,-0.04072 0.0043,-0.08316 0,-0.122074 -0.007,-0.08246 -0.01135,-0.13435 -0.03125,-0.183112 -0.0096,-0.112132 -0.02425,-0.197398 -0.0625,-0.244148 -0.267808,-0.271014 -0.619998,-0.39674 -1.03125,-0.39674 -0.03827,9e-6 -0.317726,0.0498 -0.84375,0.152592 -0.516475,0.102806 -0.774248,0.152603 -0.8125,0.152593 -0.200856,1e-5 -0.327184,-0.08527 -0.375,-0.244148 -0.01851,-0.04823 -0.01893,-0.205778 -0.03125,-0.335704 -6e-6,-0.03738 0.03636,-0.243406 0.09375,-0.579852 0.06694,-0.345782 0.09375,-0.511949 0.09375,-0.549333 l 0,-1.495408 0.1875,-2.04474 c 0,-0.04825 -0.024,-0.104642 -0.03125,-0.152593 -9e-6,-0.271014 -0.114215,-0.564793 -0.34375,-0.854518 -0.21998,-0.299043 -0.453516,-0.510036 -0.75,-0.640889 -1.032933,-0.457924 -2.145674,-0.701916 -3.3125,-0.701926 z"
       id="path32966"
       inkscape:connector-curvature="0" />
    <path
       style="fill:black;fill-opacity:1;fill-rule:evenodd;stroke:none;stroke-width:1px;stroke-linecap:butt;stroke-linejoin:miter;stroke-opacity:1"
       d="M 69.879259,5.7781558 L 60.003236,10.074656 L 51.660757,16.817776 L 48.225618,24.455999 L 47.244149,35.018231 L 51.170022,43.611233 L 57.549565,50.831741 L 65.953386,54.173464 L 74.295866,55.605631 L 84.662623,53.218686 L 92.514369,46.535241 L 96.930975,39.792121 L 97.973785,29.766952 L 95.949508,21.114277 L 91.5329,13.953442 L 81.718218,7.2103227 L 69.879259,5.7781558 z "
       id="path30383"
       sodipodi:nodetypes="ccccccccccccccccc" />
    <path
       style="fill:black;fill-opacity:1;fill-rule:evenodd;stroke:none;stroke-width:1px;stroke-linecap:butt;stroke-linejoin:miter;stroke-opacity:1"
       d="M 63.66363,15.40026 L 61.181351,16.398585 L 59.084519,17.965403 L 58.221119,19.740204 L 57.974432,22.194419 L 58.961176,24.191071 L 60.564636,25.868813 L 62.676885,26.645288 L 64.773717,26.978064 L 67.379338,26.423437 L 69.352827,24.870487 L 70.462914,23.303671 L 70.725018,20.974244 L 70.216229,18.963728 L 69.106141,17.299853 L 66.63928,15.733035 L 63.66363,15.40026 z "
       id="path30607"
       sodipodi:nodetypes="ccccccccccccccccc" />
    <path
       style="fill:white;fill-opacity:1;fill-rule:evenodd;stroke:none;stroke-width:1px;stroke-linecap:butt;stroke-linejoin:miter;stroke-opacity:1"
       d="M 64.070226,17.213319 L 62.396267,17.888887 L 60.982239,18.949154 L 60.399993,20.150164 L 60.233636,21.810936 L 60.899061,23.162073 L 61.980376,24.297402 L 63.4048,24.822844 L 64.818829,25.048035 L 66.575966,24.672718 L 67.906816,23.621835 L 68.655418,22.561567 L 68.832171,20.985241 L 68.489062,19.624722 L 67.74046,18.498775 L 66.076897,17.438508 L 64.070226,17.213319 z "
       id="path30609"
       sodipodi:nodetypes="ccccccccccccccccc" />
    <path
       style="fill:black;fill-opacity:1;fill-rule:evenodd;stroke:none;stroke-width:1px;stroke-linecap:butt;stroke-linejoin:miter;stroke-opacity:1"
       d="M 77.233103,14.873889 L 73.918731,16.255488 L 71.119013,18.423832 L 69.966187,20.880009 L 69.636809,24.276441 L 70.954324,27.039642 L 73.095284,29.361496 L 75.915588,30.436074 L 78.715307,30.896608 L 82.194368,30.129051 L 84.829396,27.979897 L 86.3116,25.811553 L 86.661564,22.58782 L 85.982221,19.805432 L 84.500017,17.502766 L 81.206232,15.334422 L 77.233103,14.873889 z "
       id="path30611"
       sodipodi:nodetypes="ccccccccccccccccc" />
    <path
       style="fill:white;fill-opacity:1;fill-rule:evenodd;stroke:none;stroke-width:1px;stroke-linecap:butt;stroke-linejoin:miter;stroke-opacity:1"
       d="M 77.12494,16.628461 L 74.523791,17.687304 L 72.326547,19.349098 L 71.421799,21.231484 L 71.1633,23.834472 L 72.197296,25.952158 L 73.877542,27.7316 L 76.090942,28.555145 L 78.288186,28.908093 L 81.018585,28.319846 L 83.086578,26.672759 L 84.249826,25.010964 L 84.52448,22.540331 L 83.991327,20.407941 L 82.828079,18.643203 L 80.243087,16.981409 L 77.12494,16.628461 z "
       id="path30613"
       sodipodi:nodetypes="ccccccccccccccccc" />
    <path
       sodipodi:nodetypes="ccccccccccccccccc"
       id="path3011"
       d="m 70.438626,10.595138 -8.453203,3.5374 -7.140594,5.551755 -2.940245,6.288712 -0.84007,8.696112 3.36028,7.074802 5.460454,5.944798 7.193098,2.751312 7.140595,1.179134 8.873238,-1.965222 6.720559,-5.502623 3.780313,-5.551755 0.892575,-8.253937 -1.732643,-7.123932 -3.780316,-5.895668 -8.400699,-5.551755 -10.133342,-1.179133 z"
       style="fill:#ffff00;fill-opacity:1;fill-rule:evenodd;stroke:none"
       inkscape:connector-curvature="0" />
    <path
       style="fill:black;fill-opacity:1;fill-rule:evenodd;stroke:none;stroke-width:1px;stroke-linecap:butt;stroke-linejoin:miter;stroke-opacity:1"
       d="M 64.945586,18.616975 L 64.008624,19.010131 L 63.217152,19.627168 L 62.891252,20.326112 L 62.798138,21.292619 L 63.170595,22.07893 L 63.775838,22.739651 L 64.573129,23.045437 L 65.3646,23.17649 L 66.348118,22.95807 L 67.093033,22.346495 L 67.512048,21.729459 L 67.610981,20.812096 L 67.418934,20.020323 L 66.999919,19.365064 L 66.068775,18.748027 L 64.945586,18.616975 z "
       id="path30615"
       sodipodi:nodetypes="ccccccccccccccccc" />
    <path
       style="fill:black;fill-opacity:1;fill-rule:evenodd;stroke:none;stroke-width:1px;stroke-linecap:butt;stroke-linejoin:miter;stroke-opacity:1"
       d="M 74.898295,19.669719 L 73.961332,20.062874 L 73.169862,20.679911 L 72.843962,21.378855 L 72.750848,22.345362 L 73.123304,23.131673 L 73.728547,23.792394 L 74.525838,24.098181 L 75.317309,24.229233 L 76.300828,24.010813 L 77.045742,23.399238 L 77.464756,22.782201 L 77.563691,21.864839 L 77.371642,21.073066 L 76.952628,20.417807 L 76.021485,19.80077 L 74.898295,19.669719 z "
       id="path30617"
       sodipodi:nodetypes="ccccccccccccccccc" />
    <path
       style="fill:black;fill-opacity:1;fill-rule:evenodd;stroke:none;stroke-width:1px;stroke-linecap:butt;stroke-linejoin:miter;stroke-opacity:1"
       d="M 57.327875,33.646623 L 58.915424,35.167253 L 63.311713,37.974568 L 66.364691,39.612169 L 72.592767,40.547941 L 76.134222,39.846112 L 79.431438,38.325483 L 82.240178,36.453939 L 82.362298,34.699367 L 83.827727,34.465424 L 84.560442,36.103025 L 85.293157,37.506682 L 84.80468,39.378227 L 83.217132,39.144283 L 82.972893,37.974568 L 81.385345,39.612169 L 79.1872,41.951599 L 76.012103,43.238285 L 72.348529,43.472228 L 69.539789,43.238285 L 66.120453,42.536457 L 62.33476,41.24977 L 60.502972,39.963084 L 59.648139,38.325483 L 58.304829,36.570911 L 57.327875,35.401196 L 55.37397,35.518168 L 54.885493,34.816339 C 54.885493,34.816339 54.030659,33.412681 54.763374,33.061767 C 55.496088,32.710852 57.694233,31.307195 57.694233,31.307195 L 59.037543,32.710852 L 57.327875,33.646623 z "
       id="path30619"
       sodipodi:nodetypes="ccccccccccccccccccccccccccccsccc" />
    <path
       style="fill:black;fill-opacity:1;fill-rule:evenodd;stroke:none;stroke-width:1px;stroke-linecap:butt;stroke-linejoin:miter;stroke-opacity:1"
       d="M 26.200502,2.9145873 L 15.225027,7.7410253 L 5.9538178,15.315853 L 2.1362608,23.896188 L 1.0455299,35.761183 L 5.4084518,45.41406 L 12.4982,53.525158 L 21.83758,57.279055 L 28.783351,58.887867 L 34.98003,58.203114 L 29.38341,43.233519 L 23.620686,36.070756 L 27.159721,27.080863 L 20.898689,25.731699 L 21.780078,18.23673 L 23.99029,10.741762 L 26.200502,2.9145873 z "
       id="path31511"
       sodipodi:nodetypes="ccccccccccccccccc" />
    <path
       style="fill:#fff6d5;fill-opacity:1;fill-rule:evenodd;stroke:none;stroke-width:1px;stroke-linecap:butt;stroke-linejoin:miter;stroke-opacity:1"
       d="M 22.794389,7.3993639 L 16.13874,10.65628 L 8.0394789,16.999757 L 5.3200465,24.561593 L 4.3769626,33.191065 L 7.8170908,42.362541 L 12.867466,49.178635 L 19.188157,52.985247 L 25.630896,55.233604 L 30.836836,55.213262 L 26.224449,44.92561 L 20.126146,36.95205 L 23.145482,28.697066 L 18.187134,27.508049 L 19.313299,19.573922 L 20.887741,12.968618 L 22.794389,7.3993639 z "
       id="path31513"
       sodipodi:nodetypes="ccccccccccccccccc" />
    <path
       style="fill:black;fill-opacity:1;fill-rule:evenodd;stroke:none;stroke-width:1px;stroke-linecap:butt;stroke-linejoin:miter;stroke-opacity:1"
       d="M 12.354426,16.59148 L 10.177869,17.426488 L 8.3392869,18.736987 L 7.5822244,20.221446 L 7.3659203,22.274172 L 8.2311353,23.944189 L 9.6371094,25.347466 L 11.48921,25.996916 L 13.327792,26.275253 L 15.6125,25.811359 L 17.34293,24.512458 L 18.316296,23.201959 L 18.546119,21.253607 L 18.099993,19.571995 L 17.126626,18.180315 L 14.963588,16.869816 L 12.354426,16.59148 z "
       id="path31515"
       sodipodi:nodetypes="ccccccccccccccccc" />
    <path
       style="fill:white;fill-opacity:1;fill-rule:evenodd;stroke:none;stroke-width:1px;stroke-linecap:butt;stroke-linejoin:miter;stroke-opacity:1"
       d="M 12.710944,18.107938 L 11.243153,18.672989 L 10.00328,19.559805 L 9.4927441,20.56434 L 9.3468766,21.953424 L 9.930346,23.083526 L 10.878484,24.033125 L 12.127474,24.472609 L 13.367348,24.66096 L 14.908072,24.347042 L 16.075012,23.468075 L 16.731415,22.581258 L 16.886399,21.262805 L 16.585548,20.124856 L 15.929144,19.183104 L 14.47047,18.296288 L 12.710944,18.107938 z "
       id="path31517"
       sodipodi:nodetypes="ccccccccccccccccc" />
    <path
       style="fill:black;fill-opacity:1;fill-rule:evenodd;stroke:none;stroke-width:1px;stroke-linecap:butt;stroke-linejoin:miter;stroke-opacity:1"
       d="M 15.139521,18.617556 L 14.317957,18.989364 L 13.623965,19.572893 L 13.338203,20.233884 L 13.256557,21.147909 L 13.583142,21.89152 L 14.113841,22.516364 L 14.812936,22.805545 L 15.506928,22.929482 L 16.369315,22.722921 L 17.022484,22.144557 L 17.389892,21.561026 L 17.476641,20.693478 L 17.308246,19.9447 L 16.940838,19.325023 L 16.124376,18.741492 L 15.139521,18.617556 z "
       id="path31519"
       sodipodi:nodetypes="ccccccccccccccccc" />
    <path
       style="fill:black;fill-opacity:1;fill-rule:evenodd;stroke:none;stroke-width:1px;stroke-linecap:butt;stroke-linejoin:miter;stroke-opacity:1"
       d="M 15.823776,45.238266 L 17.057699,43.530079 L 20.474716,40.376505 L 22.847644,38.53692 L 27.688418,37.485728 L 30.441015,38.274122 L 33.003777,39.982308 L 35.186871,42.084691 L 35.281789,44.055675 L 36.420795,44.318473 L 36.990297,42.478888 L 37.5598,40.902101 L 37.180131,38.799717 L 35.946209,39.062516 L 35.756375,40.376505 L 34.522452,38.53692 L 32.813943,35.908941 L 30.346098,34.463553 L 27.498584,34.200755 L 25.315489,34.463553 L 22.65781,35.251946 L 19.715378,36.697335 L 18.291621,38.142723 L 17.627202,39.982308 L 16.583113,41.953292 L 15.823776,43.267281 L 14.305102,43.135882 L 13.925433,43.924276 C 13.925433,43.924276 13.261014,45.501063 13.830518,45.89526 C 14.400018,46.289457 16.108527,47.866244 16.108527,47.866244 L 17.152615,46.289457 L 15.823776,45.238266 z "
       id="path31521"
       sodipodi:nodetypes="ccccccccccccccccccccccccccccsccc" />
    <path
       style="fill:black;fill-opacity:1;fill-rule:evenodd;stroke:none;stroke-width:1px;stroke-linecap:butt;stroke-linejoin:miter;stroke-opacity:1"
       d="M 28.964708,14.432143 L 26.788151,15.267151 L 24.949569,16.57765 L 24.192507,18.062109 L 23.976203,20.114835 L 24.841418,21.784852 L 26.247392,23.188129 L 28.099492,23.837579 L 29.938074,24.115916 L 32.222782,23.652022 L 33.953212,22.353121 L 34.926578,21.042622 L 35.156401,19.09427 L 34.710275,17.412658 L 33.736908,16.020978 L 31.57387,14.710479 L 28.964708,14.432143 z "
       id="path31523"
       sodipodi:nodetypes="ccccccccccccccccc" />
    <path
       style="fill:white;fill-opacity:1;fill-rule:evenodd;stroke:none;stroke-width:1px;stroke-linecap:butt;stroke-linejoin:miter;stroke-opacity:1"
       d="M 29.321226,15.948601 L 27.853435,16.513652 L 26.613562,17.400468 L 26.103027,18.405003 L 25.957159,19.794087 L 26.540628,20.924189 L 27.488767,21.873788 L 28.737756,22.313272 L 29.97763,22.501623 L 31.518354,22.187705 L 32.685294,21.308738 L 33.341697,20.421921 L 33.496681,19.103468 L 33.19583,17.965519 L 32.539426,17.023767 L 31.080752,16.136951 L 29.321226,15.948601 z "
       id="path31525"
       sodipodi:nodetypes="ccccccccccccccccc" />
    <path
       style="fill:black;fill-opacity:1;fill-rule:evenodd;stroke:none;stroke-width:1px;stroke-linecap:butt;stroke-linejoin:miter;stroke-opacity:1"
       d="M 31.749803,16.458219 L 30.928239,16.830027 L 30.234247,17.413556 L 29.948485,18.074547 L 29.866839,18.988572 L 30.193424,19.732183 L 30.724123,20.357027 L 31.423218,20.646208 L 32.11721,20.770145 L 32.979597,20.563584 L 33.632766,19.98522 L 34.000174,19.401689 L 34.086923,18.534141 L 33.918528,17.785363 L 33.55112,17.165686 L 32.734658,16.582155 L 31.749803,16.458219 z "
       id="path31527"
       sodipodi:nodetypes="ccccccccccccccccc" />
    <g
       id="g27626"
       transform="matrix(0.454905,0.281672,-0.29002,0.441811,37.75948,68.42045)">
      <path
         id="path20377"
         d="M -5.9132601,-12.757095 L -24.97576,-2.5070945 L -19.44451,19.305405 L -12.50701,22.617905 L -8.9445101,15.399155 L -0.0070101322,16.305405 C 1.4385099,16.695206 2.5148599,17.092571 3.3679899,17.492905 L 10.77424,4.3054055 C 6.1669699,3.2326085 -2.4045031,1.1112145 -2.7882601,-0.038344541 C -3.3127391,-1.6094464 0.30548887,-10.382095 0.30548987,-10.382095 L -5.9132601,-12.757095 z "
         style="fill:black;fill-opacity:1;fill-rule:evenodd;stroke:none;stroke-width:1px;stroke-linecap:butt;stroke-linejoin:miter;stroke-opacity:1" />
      <path
         sodipodi:nodetypes="ccccccccccc"
         id="path26699"
         d="M -8.097637,-7.2936763 L -20.796202,-0.66833834 L -18.771793,7.4292977 L -17.483532,15.895009 L -13.06664,17.73538 L -9.017823,8.7175587 L 2.392481,13.502525 L 6.257261,7.2452597 L -7.177452,3.0124057 L -4.416893,-7.6617503 L -8.097637,-7.2936763 z "
         style="fill:#ff9100;fill-opacity:1;fill-rule:evenodd;stroke:none;stroke-width:1px;stroke-linecap:butt;stroke-linejoin:miter;stroke-opacity:1" />
    </g>
    <g
       id="g32018"
       transform="matrix(-0.454905,0.281672,0.29002,0.441811,53.90282,67.34265)">
      <path
         id="path32020"
         d="M -5.9132601,-12.757095 L -24.97576,-2.5070945 L -19.44451,19.305405 L -12.50701,22.617905 L -8.9445101,15.399155 L -0.0070101322,16.305405 C 1.4385099,16.695206 2.5148599,17.092571 3.3679899,17.492905 L 10.77424,4.3054055 C 6.1669699,3.2326085 -2.4045031,1.1112145 -2.7882601,-0.038344541 C -3.3127391,-1.6094464 0.30548887,-10.382095 0.30548987,-10.382095 L -5.9132601,-12.757095 z "
         style="fill:black;fill-opacity:1;fill-rule:evenodd;stroke:none;stroke-width:1px;stroke-linecap:butt;stroke-linejoin:miter;stroke-opacity:1" />
      <path
         sodipodi:nodetypes="ccccccccccc"
         id="path32022"
         d="M -8.097637,-7.2936763 L -20.796202,-0.66833834 L -18.771793,7.4292977 L -17.483532,15.895009 L -13.06664,17.73538 L -9.017823,8.7175587 L 2.392481,13.502525 L 6.257261,7.2452597 L -7.177452,3.0124057 L -4.416893,-7.6617503 L -8.097637,-7.2936763 z "
         style="fill:#ff9100;fill-opacity:1;fill-rule:evenodd;stroke:none;stroke-width:1px;stroke-linecap:butt;stroke-linejoin:miter;stroke-opacity:1" />
    </g>
    <rect
       style="fill:#ffff00"
       id="rect3019"
       width="72.42083"
       height="20.264544"
       x="10.928955"
       y="77.243912" />
    <g
       id="g3010"
       transform="translate(0,2)">
      <path
         inkscape:connector-curvature="0"
         d="m 39.769489,80.791397 c 0.36656,-0.229735 0.72067,-0.477595 1.0859,-0.709744 0.99656,-0.69638 0.12091,-0.09215 2.86451,-1.618518 2.45228,-1.364271 -8.2248,4.578302 0.61302,-0.342927 0.32188,-0.158952 0.66725,-0.250254 0.98522,-0.421292 0.34313,-0.06029 0.66558,-0.18271 1.00415,-0.258137 0.37057,-0.06822 0.74823,-0.07931 1.12432,-0.08412 0.35596,-0.0068 0.71179,-0.0048 1.06779,-0.0027 0.33169,-1.75e-4 0.66343,-0.0027 0.99509,4.97e-4 0.40725,-0.03108 0.79734,0.03849 1.1948,0.110735 0.35006,0.05018 0.69081,0.170362 1.00425,0.326835 0.26185,0.08901 0.43623,0.306988 0.68035,0.424704 0.29031,0.152944 0.48094,0.396937 0.6971,0.628505 0.23946,0.285769 0.39972,0.607804 0.50518,0.958692 0.0607,0.355586 0.12079,0.705729 0.20541,1.056561 0.0829,0.369766 0.10105,0.748374 0.11409,1.125214 0.0127,0.400298 0.0218,0.798544 -0.039,1.195404 -0.0684,0.334793 -0.21859,0.644414 -0.37019,0.95003 -0.14117,0.29051 -0.30774,0.572451 -0.4922,0.839746 -0.19068,0.305097 -0.44113,0.565129 -0.72011,0.796314 -0.25973,0.168804 -0.50377,0.357986 -0.76945,0.518613 -1.11302,0.803983 3.78454,-2.727474 -2.80113,1.599221 -0.7717,0.506991 3.22726,-1.814037 2.42861,-1.347256 -0.88838,0.519226 -1.81,0.984599 -2.69786,1.504628 -0.70092,0.410524 7.74742,-4.325772 -0.27575,0.167535 -0.95078,0.382981 -2.07848,1.08871 2.06399,-1.174455 0.0495,-0.02707 -0.098,0.05608 -0.14569,0.08609 -0.13268,0.08351 -0.1457,0.09749 -0.26505,0.188637 -0.25491,0.212068 -0.51035,0.422532 -0.77892,0.618519 -7.38759,4.07241 -0.20703,0.112635 -0.30984,0.170126 -1.35213,0.756088 -2.00448,1.482866 -3.31026,1.607737 -0.46107,0.05631 -0.92667,0.04669 -1.39049,0.04855 -0.44148,0.0025 -0.88286,-10e-4 -1.32433,-8.28e-4 -0.46353,0.04244 -0.82376,-0.06507 -1.16428,-0.367423 -0.32983,-0.241842 -0.47591,-0.582215 -0.56014,-0.95999 -0.0579,-0.381966 -0.0734,-0.770992 -0.0485,-1.156114 0.0445,-0.343817 0.18312,-0.663891 0.3862,-0.947403 0.17995,-0.231086 0.33856,-0.46833 0.5655,-0.65999 1.04954,-0.874633 2.27425,-1.407863 3.49878,-2.08497 -0.43442,0.247804 0.95725,-0.490704 0.49415,-0.230446 -4.4803,2.517811 -2.80203,1.712893 -2.07749,1.071896 0.24646,-0.258547 0.51031,-0.607179 0.43759,-0.975505 -0.15985,-0.246797 -0.43561,-0.288189 -0.71432,-0.311407 -0.36831,8.75e-4 -0.74407,-0.04565 -1.10538,0.03202 -0.42993,0.08478 -0.86669,0.123942 -1.30422,0.147015 -0.3832,0.02557 -0.75564,-0.08479 -1.10762,-0.218997 -0.29714,-0.15533 -0.52127,-0.428067 -0.707,-0.696322 -0.16354,-0.29481 -0.1907,-0.62384 -0.18174,-0.951664 0.0362,-0.323474 0.11811,-0.634086 0.24256,-0.935686 0.59301,-1.119551 1.46602,-0.911602 2.94013,-1.910077 1.1007,-0.745551 -3.39532,1.919206 -2.32612,1.285828 0.90358,-0.491642 1.80718,-0.983282 2.71076,-1.474923 0.0558,-0.0095 0.11336,-0.01201 0.16738,-0.02851 0.18934,-0.05786 0.33672,-0.159593 0.53662,-0.200085 0.34515,-0.02393 0.66421,-0.138074 1.00698,-0.183714 0.27238,-0.05408 0.55738,-0.01508 0.83049,-0.05133 0.11739,-0.01558 0.22924,-0.05789 0.34405,-0.08613 0,0 -2.38141,1.739217 -2.38141,1.739217 l 0,0 c -0.38956,0.06537 -0.7889,0.04759 -1.17729,0.125985 -0.33348,0.06853 -0.66562,0.145519 -0.99726,0.219627 -1.05688,0.409226 -2.78817,1.034794 1.75708,-1.108493 -0.9103,0.591887 -1.46302,0.954844 -2.80202,1.573935 -0.84487,0.390636 1.61445,-0.916859 2.42076,-1.376768 0.0406,-0.02319 -0.0862,0.03902 -0.12373,0.06657 -0.10349,0.0759 -0.1119,0.119022 -0.17379,0.227812 -0.18346,0.2464 -0.23196,0.545322 -0.29459,0.837254 -0.0559,0.254988 -0.0169,0.53263 0.0913,0.771826 0.15445,0.224216 0.32865,0.453154 0.5999,0.547786 0.32934,0.110701 0.675,0.163452 1.02384,0.126346 0.43513,-0.03364 0.86597,-0.09426 1.29644,-0.163521 0.38909,-0.01666 0.78131,-0.02204 1.16808,0.02885 0.38174,0.0874 0.69524,0.250251 0.88496,0.59766 0.0241,0.0754 0.0619,0.147956 0.0724,0.226201 0.0484,0.360915 -0.19091,0.727108 -0.37752,1.016918 -0.91519,0.996774 -2.28319,1.450958 -3.49639,2.055136 4.37729,-2.454611 2.4674,-1.504827 1.60369,-0.789561 -0.23391,0.179787 -0.45739,0.338764 -0.59053,0.60865 -0.22659,0.230888 -0.39603,0.492077 -0.45961,0.808398 -0.0821,0.349019 -0.021,0.719069 0.002,1.072855 0.0581,0.325311 0.17092,0.59213 0.45874,0.793248 0.31117,0.228529 0.66333,0.215514 1.04164,0.203406 0.43886,0.0022 0.87765,0.0027 1.3165,0.0029 0.45572,-0.0043 0.91316,-0.01184 1.36354,-0.08641 0.20509,-0.04767 0.22278,-0.04111 0.40497,-0.120673 0.0507,-0.02215 0.1961,-0.101603 0.14797,-0.07466 -0.80244,0.44904 -3.22545,1.769543 -2.41097,1.341032 0.74741,-0.393228 6.06511,-3.377495 0.31635,-0.157578 0.29208,-0.156846 0.53779,-0.374406 0.78699,-0.584502 1.00547,-0.861847 2.26445,-1.382924 3.44964,-1.987948 -6.2224,3.499052 0.0644,-0.03176 0.27788,-0.171186 0.77227,-0.504386 -3.21943,1.819053 -2.42155,1.352993 8.44073,-4.930428 -1.12034,0.873494 0.38135,-0.234838 0.2365,-0.197564 0.52721,-0.338972 0.77367,-0.523811 0.30295,-0.175253 0.5551,-0.419509 0.75944,-0.694784 0.16852,-0.266382 0.34844,-0.524402 0.51123,-0.79502 0.11811,-0.306512 0.30261,-0.581724 0.41063,-0.894057 0.0734,-0.380646 0.0847,-0.757782 0.0636,-1.145248 -0.01,-0.357955 -0.02,-0.718138 -0.0943,-1.070196 -0.085,-0.348545 -0.14966,-0.694 -0.1922,-1.049883 -0.0855,-0.311132 -0.23256,-0.591634 -0.44477,-0.841883 -0.19348,-0.213753 -0.38695,-0.413252 -0.65266,-0.547188 -0.2212,-0.139286 -0.41831,-0.315009 -0.6683,-0.409235 -0.29837,-0.136381 -0.62264,-0.22073 -0.94894,-0.266532 -0.38619,-0.06904 -0.77251,-0.08108 -1.16497,-0.066 -0.33098,0.0027 -0.66204,-4.82e-4 -0.99303,-0.0023 -0.35309,8.28e-4 -0.70626,1.9e-5 -1.05923,0.0081 -0.36586,0.01668 -0.73424,0.04154 -1.08768,0.140968 -0.32552,0.09596 -0.66447,0.159405 -0.97047,0.30583 -0.32708,0.137818 -0.66453,0.25227 -0.97184,0.431124 8.07504,-4.507108 -6.19423,3.436709 1.78062,-1.003728 0.0546,-0.03042 -0.10617,0.06569 -0.15936,0.09853 -0.33708,0.263458 -0.73937,0.445157 -1.06091,0.729356 0,0 -2.79848,1.038453 -2.79848,1.038453 z"
         id="path3013"
         style="fill:#000000" />
      <path
         inkscape:connector-curvature="0"
         d="m 44.913949,90.093914 c -0.44363,-0.01758 -0.88772,-0.01002 -1.33156,-0.0099 -0.42339,-0.03981 -0.80831,0.07369 -1.19624,0.229123 -0.72334,0.454137 -1.89832,0.992761 1.60328,-0.903593 0.0545,-0.02953 -0.0935,0.08175 -0.13624,0.126681 -0.11117,0.116864 -0.1225,0.149172 -0.20707,0.283206 -0.15181,0.280822 -0.17965,0.596229 -0.19612,0.908713 -0.0109,0.330271 -0.0342,0.659946 0.0436,0.983244 0.0981,0.337683 0.38898,0.534631 0.66154,0.728231 0.22825,0.211818 0.47303,0.306695 0.7766,0.343587 0.3525,0.07106 0.69469,0.177459 1.0441,0.260736 0.3647,0.123386 0.73455,0.235596 1.10918,0.325809 0.35676,0.06851 0.72364,0.118801 1.08516,0.06972 0.1628,-0.03876 0.33607,-0.03812 0.48806,-0.116526 0.0448,-0.02314 0.16817,-0.11138 0.12417,-0.08664 -1.89136,1.063446 -2.59336,1.563344 -1.83667,1.031105 0.28003,-0.17897 0.47011,-0.445979 0.67474,-0.700002 0.17863,-0.212654 0.24016,-0.462718 0.2754,-0.730685 0.0183,-0.278197 0.0337,-0.555426 -0.0215,-0.829761 -0.0469,-0.239578 -0.15485,-0.462039 -0.26468,-0.678335 -0.13948,-0.212723 -0.25896,-0.43492 -0.43425,-0.622003 -0.13656,-0.201413 -0.32907,-0.349259 -0.53177,-0.478458 -0.306,-0.182594 -0.65521,-0.287254 -0.99944,-0.372689 -0.25477,-0.04835 -0.12792,-0.02762 -0.38048,-0.06251 0,0 1.99739,-1.401957 1.99739,-1.401957 l 0,0 c 0.25993,0.04953 0.12938,0.02149 0.39158,0.08446 0.36671,0.106304 0.73696,0.219698 1.06062,0.428188 0.21328,0.149574 0.41507,0.318094 0.56821,0.531403 0.17473,0.211898 0.31471,0.445849 0.46404,0.675603 0.1193,0.234708 0.23658,0.476768 0.29301,0.735111 0.0676,0.296636 0.072,0.59272 0.0496,0.896301 -0.0109,0.302278 -0.0522,0.596988 -0.21792,0.857383 -0.19618,0.273524 -0.39611,0.545242 -0.64614,0.769421 -0.92811,0.65777 -1.86171,1.449109 -3.01713,1.518221 -0.38157,0.0045 -0.7613,-0.0342 -1.13077,-0.133962 -0.37243,-0.102239 -0.74356,-0.209098 -1.11284,-0.321939 -0.34366,-0.09185 -0.68758,-0.181636 -1.03828,-0.243585 -0.32275,-0.07381 -0.58863,-0.218725 -0.836,-0.440273 -0.3049,-0.237483 -0.63028,-0.481084 -0.74174,-0.87015 -0.10082,-0.342494 -0.0976,-0.689653 -0.089,-1.044796 0.013,-0.342002 0.0378,-0.688834 0.15892,-1.012191 0.50827,-1.111575 1.81878,-1.508176 2.88797,-2.004263 0.40937,-0.12852 0.81258,-0.198495 1.24429,-0.161161 0.45291,1.42e-4 0.90604,0.0073 1.35877,-0.0099 0,0 -1.99437,1.44899 -1.99437,1.44899 z"
         id="path3015"
         style="fill:#000000" />
    </g>
  </g>
</svg>
