<?xml version="1.0" encoding="UTF-8" standalone="no"?>
<!-- Created with Inkscape (http://www.inkscape.org/) -->

<svg
   xmlns:dc="http://purl.org/dc/elements/1.1/"
   xmlns:cc="http://creativecommons.org/ns#"
   xmlns:rdf="http://www.w3.org/1999/02/22-rdf-syntax-ns#"
   xmlns:svg="http://www.w3.org/2000/svg"
   xmlns="http://www.w3.org/2000/svg"
   xmlns:sodipodi="http://sodipodi.sourceforge.net/DTD/sodipodi-0.dtd"
   xmlns:inkscape="http://www.inkscape.org/namespaces/inkscape"
   width="100"
   height="100"
   id="svg12024"
   sodipodi:version="0.32"
   inkscape:version="0.48.2 r9819"
   version="1.0"
   sodipodi:docname="imageid.svg">
  <defs
     id="defs12026" />
  <sodipodi:namedview
     id="base"
     pagecolor="#ffffff"
     bordercolor="#666666"
     borderopacity="1.0"
     inkscape:pageopacity="0.0"
     inkscape:pageshadow="2"
     inkscape:zoom="6.0203674"
     inkscape:cx="48.531294"
     inkscape:cy="35.161224"
     inkscape:document-units="px"
     inkscape:current-layer="layer1"
     height="100px"
     width="100px"
     inkscape:window-width="1015"
     inkscape:window-height="756"
     inkscape:window-x="44"
     inkscape:window-y="0"
     showgrid="false"
     inkscape:window-maximized="0" />
  <metadata
     id="metadata12029">
    <rdf:RDF>
      <cc:Work
         rdf:about="">
        <dc:format>image/svg+xml</dc:format>
        <dc:type
           rdf:resource="http://purl.org/dc/dcmitype/StillImage" />
      </cc:Work>
    </rdf:RDF>
  </metadata>
  <g
     inkscape:label="Calque 1"
     inkscape:groupmode="layer"
     id="layer1">
    <path
       style="fill:#000000;fill-opacity:1;fill-rule:evenodd;stroke:none"
       d="M 42.085883,16.13066 28.7101,22.231813 17.452821,31.807234 12.882297,42.653729 11.688172,57.652398 17.14261,69.854704 25.916154,80.108031 37.391342,84.853373 48.757633,86.88709 62.826361,83.497561 73.416953,74.006878 79.334377,64.431457 80.6191,50.195432 77.750358,37.908388 71.647536,27.739799 58.207982,18.164378 42.085883,16.13066 z"
       id="path30383"
       sodipodi:nodetypes="ccccccccccccccccc"
       inkscape:connector-curvature="0" />
    <path
       inkscape:connector-curvature="0"
       sodipodi:nodetypes="ccccccccccccccccc"
       id="path2994"
       d="m 43.133106,20.781539 -11.570812,5.270439 -9.738184,8.271664 -3.953764,9.369671 -1.032986,12.9565 4.7184,10.54088 7.589613,8.857267 9.926689,4.099232 9.832488,1.756813 12.17025,-2.928022 9.161464,-8.198463 5.118908,-8.271662 1.111359,-12.297695 -2.481625,-10.61408 -5.279288,-8.784067 -11.625979,-8.271664 -13.946533,-1.756813 z"
       style="fill:#ffff00;fill-opacity:1;fill-rule:nonzero;stroke:none" />
    <path
       style="fill:#000000;fill-opacity:1;fill-rule:evenodd;stroke:none"
       d="m 33.963775,29.794322 -3.376322,1.41765 -2.852048,2.224924 -1.174373,2.520268 -0.335535,3.485057 1.34214,2.835302 2.180978,2.38244 2.873019,1.102617 2.852049,0.472551 3.544089,-0.787585 2.68428,-2.205233 1.509908,-2.224924 0.356506,-3.307852 -0.692041,-2.85499 -1.509908,-2.362751 -3.355351,-2.224924 -4.047391,-0.47255 z"
       id="path30607"
       sodipodi:nodetypes="ccccccccccccccccc"
       inkscape:connector-curvature="0" />
    <path
       style="fill:#ffffff;fill-opacity:1;fill-rule:evenodd;stroke:none"
       d="m 34.516815,32.368916 -2.27687,0.959326 -1.923318,1.505609 -0.791955,1.705469 -0.226273,2.358343 0.905091,1.918653 1.470773,1.6122 1.93746,0.746143 1.923319,0.319776 2.390006,-0.53296 1.810182,-1.492284 1.018227,-1.50561 0.240415,-2.238428 -0.466687,-1.931976 -1.018228,-1.598877 -2.262728,-1.505609 -2.729414,-0.319775 z"
       id="path30609"
       sodipodi:nodetypes="ccccccccccccccccc"
       inkscape:connector-curvature="0" />
    <path
       style="fill:#000000;fill-opacity:1;fill-rule:evenodd;stroke:none"
       d="m 52.42057,29.046859 -4.508111,1.96191 -3.808093,3.07911 -1.568039,3.487842 -0.448011,4.82303 1.792044,3.923823 2.912071,3.297099 3.836094,1.525931 3.808094,0.653971 4.732116,-1.089952 3.584087,-3.05186 2.01605,-3.07911 0.476011,-4.577793 -0.924022,-3.951069 -2.01605,-3.269852 -4.480109,-3.07911 -5.404132,-0.65397 z"
       id="path30611"
       sodipodi:nodetypes="ccccccccccccccccc"
       inkscape:connector-curvature="0" />
    <path
       style="fill:#ffffff;fill-opacity:1;fill-rule:evenodd;stroke:none"
       d="m 52.273449,31.538402 -3.538006,1.503586 -2.988626,2.359795 -1.230611,2.673043 -0.351603,3.696316 1.406412,3.007174 2.28542,2.526859 3.010601,1.169457 2.988626,0.501196 3.713808,-0.835327 2.812823,-2.338911 1.582215,-2.359796 0.373577,-3.508369 -0.72518,-3.028055 -1.582215,-2.505977 -3.516029,-2.359796 -4.241212,-0.501195 z"
       id="path30613"
       sodipodi:nodetypes="ccccccccccccccccc"
       inkscape:connector-curvature="0" />
    <path
       style="fill:#000000;fill-opacity:1;fill-rule:evenodd;stroke:none"
       d="m 35.707453,34.362149 -1.274428,0.558292 -1.076535,0.876209 -0.44328,0.99252 -0.126651,1.372468 0.506605,1.116585 0.823233,0.938241 1.084451,0.434227 1.076536,0.186098 1.337753,-0.310163 1.01321,-0.868454 0.569931,-0.876209 0.134567,-1.302682 -0.261218,-1.124339 -0.569931,-0.930487 -1.266513,-0.876209 -1.52773,-0.186097 z"
       id="path30615"
       sodipodi:nodetypes="ccccccccccccccccc"
       inkscape:connector-curvature="0" />
    <path
       style="fill:#000000;fill-opacity:1;fill-rule:evenodd;stroke:none"
       d="m 49.244833,35.857074 -1.274428,0.558292 -1.076535,0.876209 -0.44328,0.99252 -0.126651,1.372468 0.506605,1.116585 0.823233,0.938241 1.084451,0.434227 1.076536,0.186098 1.337753,-0.310163 1.01321,-0.868454 0.569931,-0.876209 0.134567,-1.302682 -0.261218,-1.124339 -0.569931,-0.930487 -1.266513,-0.876209 -1.52773,-0.186097 z"
       id="path30617"
       sodipodi:nodetypes="ccccccccccccccccc"
       inkscape:connector-curvature="0" />
    <path
       style="fill:#000000;fill-opacity:1;fill-rule:evenodd;stroke:none"
       d="m 25.34607,55.704676 2.159336,2.159337 5.979702,3.986468 4.15257,2.325439 8.471244,1.328823 4.816982,-0.996617 4.484776,-2.159337 3.820365,-2.657645 0.166103,-2.491542 1.993234,-0.332206 0.996617,2.32544 0.996617,1.993233 -0.664412,2.657646 -2.159336,-0.332206 -0.332206,-1.661029 -2.159337,2.32544 -2.989851,3.322057 -4.318673,1.827131 -4.983084,0.332205 -3.820365,-0.332205 -4.650879,-0.996617 -5.149188,-1.827131 -2.491542,-1.827131 -1.16272,-2.32544 -1.827131,-2.491542 -1.328822,-1.661028 -2.657645,0.166103 -0.664412,-0.996617 c 0,0 -1.162719,-1.993234 -0.166102,-2.491543 0.996616,-0.498308 3.986467,-2.491542 3.986467,-2.491542 l 1.827131,1.993234 -2.325439,1.328822 z"
       id="path30619"
       sodipodi:nodetypes="ccccccccccccccccccccccccccccsccc"
       inkscape:connector-curvature="0" />
  </g>
</svg>
